G75*
%MOIN*%
%OFA0B0*%
%FSLAX25Y25*%
%IPPOS*%
%LPD*%
%AMOC8*
5,1,8,0,0,1.08239X$1,22.5*
%
%ADD10C,0.07400*%
%ADD11C,0.04800*%
%ADD12OC8,0.04800*%
%ADD13C,0.07600*%
%ADD14C,0.04800*%
%ADD15OC8,0.06300*%
%ADD16C,0.06299*%
%ADD17C,0.01000*%
%ADD18C,0.02362*%
%ADD19C,0.00600*%
D10*
X0066250Y0051500D03*
X0066250Y0081500D03*
X0116250Y0026500D03*
X0126250Y0026500D03*
X0136250Y0026500D03*
D11*
X0123650Y0056500D02*
X0118850Y0056500D01*
X0118850Y0066500D02*
X0123650Y0066500D01*
X0123650Y0076500D02*
X0118850Y0076500D01*
X0108650Y0076500D02*
X0103850Y0076500D01*
X0103850Y0056500D02*
X0108650Y0056500D01*
X0096250Y0028900D02*
X0096250Y0024100D01*
X0086250Y0024100D02*
X0086250Y0028900D01*
X0076250Y0028900D02*
X0076250Y0024100D01*
X0078650Y0056500D02*
X0073850Y0056500D01*
X0073850Y0066500D02*
X0078650Y0066500D01*
X0078650Y0076500D02*
X0073850Y0076500D01*
X0056250Y0079100D02*
X0056250Y0083900D01*
X0056250Y0063900D02*
X0056250Y0059100D01*
X0026250Y0059100D02*
X0026250Y0063900D01*
X0016250Y0063900D02*
X0016250Y0059100D01*
X0016250Y0079100D02*
X0016250Y0083900D01*
X0026250Y0083900D02*
X0026250Y0079100D01*
X0148850Y0076500D02*
X0153650Y0076500D01*
X0153650Y0056500D02*
X0148850Y0056500D01*
D12*
X0161250Y0081500D03*
X0181250Y0081500D03*
X0066250Y0041500D03*
X0066250Y0021500D03*
D13*
X0066250Y0096500D03*
X0056250Y0096500D03*
X0046250Y0096500D03*
X0036250Y0096500D03*
X0026250Y0096500D03*
X0016250Y0096500D03*
X0076250Y0096500D03*
X0086250Y0096500D03*
X0096250Y0096500D03*
X0106250Y0096500D03*
X0116250Y0096500D03*
X0126250Y0096500D03*
X0136250Y0096500D03*
X0146250Y0096500D03*
X0156250Y0096500D03*
X0166250Y0096500D03*
X0176250Y0096500D03*
X0176250Y0156500D03*
X0166250Y0156500D03*
X0156250Y0156500D03*
X0146250Y0156500D03*
X0136250Y0156500D03*
X0126250Y0156500D03*
X0116250Y0156500D03*
X0106250Y0156500D03*
X0096250Y0156500D03*
X0086250Y0156500D03*
X0076250Y0156500D03*
X0066250Y0156500D03*
X0056250Y0156500D03*
X0046250Y0156500D03*
X0036250Y0156500D03*
X0026250Y0156500D03*
X0016250Y0156500D03*
D14*
X0166250Y0066500D03*
X0176250Y0066500D03*
D15*
X0051250Y0046500D03*
X0051250Y0036500D03*
D16*
X0029872Y0036933D03*
X0029872Y0044807D03*
X0167667Y0044807D03*
X0167667Y0036933D03*
D17*
X0008718Y0048203D02*
X0008718Y0003968D01*
X0188821Y0003968D01*
X0188821Y0066242D01*
X0178931Y0056353D01*
X0178931Y0055967D01*
X0178523Y0054981D01*
X0177769Y0054227D01*
X0176783Y0053819D01*
X0175717Y0053819D01*
X0174731Y0054227D01*
X0173977Y0054981D01*
X0173855Y0055276D01*
X0168035Y0049456D01*
X0168756Y0049342D01*
X0169452Y0049116D01*
X0170104Y0048784D01*
X0170696Y0048354D01*
X0171214Y0047836D01*
X0171644Y0047244D01*
X0171976Y0046592D01*
X0172202Y0045896D01*
X0172317Y0045173D01*
X0172317Y0044996D01*
X0167856Y0044996D01*
X0167856Y0044618D01*
X0172317Y0044618D01*
X0172317Y0044441D01*
X0172202Y0043718D01*
X0171976Y0043022D01*
X0171644Y0042370D01*
X0171214Y0041778D01*
X0170696Y0041261D01*
X0170215Y0040911D01*
X0170301Y0040875D01*
X0171609Y0039567D01*
X0172317Y0037858D01*
X0172317Y0036008D01*
X0171609Y0034299D01*
X0170301Y0032991D01*
X0168592Y0032283D01*
X0166742Y0032283D01*
X0165034Y0032991D01*
X0163726Y0034299D01*
X0163018Y0036008D01*
X0163018Y0037858D01*
X0163726Y0039567D01*
X0165034Y0040875D01*
X0165120Y0040911D01*
X0164638Y0041261D01*
X0164121Y0041778D01*
X0163691Y0042370D01*
X0163440Y0042862D01*
X0163078Y0042500D01*
X0139078Y0018500D01*
X0113422Y0018500D01*
X0112250Y0019672D01*
X0108250Y0023672D01*
X0108250Y0040328D01*
X0109422Y0041500D01*
X0119250Y0051328D01*
X0119250Y0052600D01*
X0118074Y0052600D01*
X0116641Y0053194D01*
X0115544Y0054291D01*
X0114950Y0055724D01*
X0114950Y0057276D01*
X0115544Y0058709D01*
X0116641Y0059806D01*
X0118074Y0060400D01*
X0124426Y0060400D01*
X0125859Y0059806D01*
X0126250Y0059415D01*
X0126250Y0063585D01*
X0126136Y0063471D01*
X0125497Y0063044D01*
X0124788Y0062750D01*
X0124034Y0062600D01*
X0121550Y0062600D01*
X0121550Y0066200D01*
X0120950Y0066200D01*
X0120950Y0062600D01*
X0118466Y0062600D01*
X0117712Y0062750D01*
X0117003Y0063044D01*
X0116364Y0063471D01*
X0115821Y0064014D01*
X0115394Y0064653D01*
X0115100Y0065362D01*
X0114950Y0066116D01*
X0114950Y0066200D01*
X0120950Y0066200D01*
X0120950Y0066800D01*
X0120950Y0070400D01*
X0118466Y0070400D01*
X0117712Y0070250D01*
X0117003Y0069956D01*
X0116364Y0069529D01*
X0115821Y0068986D01*
X0115394Y0068347D01*
X0115100Y0067638D01*
X0114950Y0066884D01*
X0114950Y0066800D01*
X0120950Y0066800D01*
X0121550Y0066800D01*
X0121550Y0070400D01*
X0124034Y0070400D01*
X0124788Y0070250D01*
X0125497Y0069956D01*
X0126136Y0069529D01*
X0126294Y0069372D01*
X0148744Y0091822D01*
X0148284Y0091588D01*
X0147491Y0091330D01*
X0146750Y0091213D01*
X0146750Y0096000D01*
X0145750Y0096000D01*
X0145750Y0091213D01*
X0145009Y0091330D01*
X0144216Y0091588D01*
X0143472Y0091967D01*
X0142797Y0092457D01*
X0142207Y0093047D01*
X0141717Y0093722D01*
X0141338Y0094466D01*
X0141253Y0094728D01*
X0140743Y0093498D01*
X0139252Y0092007D01*
X0137304Y0091200D01*
X0135196Y0091200D01*
X0133248Y0092007D01*
X0131757Y0093498D01*
X0131250Y0094722D01*
X0130743Y0093498D01*
X0129252Y0092007D01*
X0127304Y0091200D01*
X0125196Y0091200D01*
X0123248Y0092007D01*
X0121757Y0093498D01*
X0121250Y0094722D01*
X0120743Y0093498D01*
X0119252Y0092007D01*
X0117304Y0091200D01*
X0115196Y0091200D01*
X0113248Y0092007D01*
X0111757Y0093498D01*
X0111250Y0094722D01*
X0110743Y0093498D01*
X0109252Y0092007D01*
X0107304Y0091200D01*
X0105196Y0091200D01*
X0103248Y0092007D01*
X0101757Y0093498D01*
X0101250Y0094722D01*
X0100743Y0093498D01*
X0099252Y0092007D01*
X0097304Y0091200D01*
X0095196Y0091200D01*
X0093248Y0092007D01*
X0091757Y0093498D01*
X0091250Y0094722D01*
X0090743Y0093498D01*
X0089252Y0092007D01*
X0087304Y0091200D01*
X0085196Y0091200D01*
X0083248Y0092007D01*
X0081757Y0093498D01*
X0081250Y0094722D01*
X0080743Y0093498D01*
X0079252Y0092007D01*
X0077304Y0091200D01*
X0075196Y0091200D01*
X0073248Y0092007D01*
X0071757Y0093498D01*
X0071250Y0094722D01*
X0070743Y0093498D01*
X0069252Y0092007D01*
X0067304Y0091200D01*
X0065196Y0091200D01*
X0063248Y0092007D01*
X0061757Y0093498D01*
X0061250Y0094722D01*
X0060743Y0093498D01*
X0059252Y0092007D01*
X0057304Y0091200D01*
X0055196Y0091200D01*
X0053248Y0092007D01*
X0051757Y0093498D01*
X0051250Y0094722D01*
X0050743Y0093498D01*
X0049252Y0092007D01*
X0047304Y0091200D01*
X0045196Y0091200D01*
X0043248Y0092007D01*
X0041757Y0093498D01*
X0041250Y0094722D01*
X0040743Y0093498D01*
X0039252Y0092007D01*
X0037304Y0091200D01*
X0035196Y0091200D01*
X0033248Y0092007D01*
X0031757Y0093498D01*
X0031250Y0094722D01*
X0030743Y0093498D01*
X0029252Y0092007D01*
X0027357Y0091222D01*
X0032250Y0086328D01*
X0032250Y0077328D01*
X0058250Y0051328D01*
X0058250Y0054328D01*
X0059422Y0055500D01*
X0066422Y0062500D01*
X0077422Y0062500D01*
X0077522Y0062600D01*
X0076550Y0062600D01*
X0076550Y0066200D01*
X0075950Y0066200D01*
X0075950Y0062600D01*
X0073466Y0062600D01*
X0072712Y0062750D01*
X0072003Y0063044D01*
X0071364Y0063471D01*
X0070821Y0064014D01*
X0070394Y0064653D01*
X0070100Y0065362D01*
X0069950Y0066116D01*
X0069950Y0066200D01*
X0075950Y0066200D01*
X0075950Y0066800D01*
X0075950Y0070400D01*
X0073466Y0070400D01*
X0072712Y0070250D01*
X0072003Y0069956D01*
X0071364Y0069529D01*
X0070821Y0068986D01*
X0070394Y0068347D01*
X0070100Y0067638D01*
X0069950Y0066884D01*
X0069950Y0066800D01*
X0075950Y0066800D01*
X0076550Y0066800D01*
X0076550Y0070400D01*
X0079034Y0070400D01*
X0079788Y0070250D01*
X0080497Y0069956D01*
X0081136Y0069529D01*
X0081679Y0068986D01*
X0082106Y0068347D01*
X0082400Y0067638D01*
X0082427Y0067505D01*
X0093422Y0078500D01*
X0100457Y0078500D01*
X0100544Y0078709D01*
X0101641Y0079806D01*
X0103074Y0080400D01*
X0109426Y0080400D01*
X0110859Y0079806D01*
X0111956Y0078709D01*
X0112550Y0077276D01*
X0112550Y0075724D01*
X0111956Y0074291D01*
X0110859Y0073194D01*
X0109426Y0072600D01*
X0103074Y0072600D01*
X0101641Y0073194D01*
X0100544Y0074291D01*
X0100457Y0074500D01*
X0095078Y0074500D01*
X0080524Y0059945D01*
X0080859Y0059806D01*
X0081956Y0058709D01*
X0082550Y0057276D01*
X0082550Y0055724D01*
X0081956Y0054291D01*
X0080859Y0053194D01*
X0079426Y0052600D01*
X0073074Y0052600D01*
X0071641Y0053194D01*
X0070849Y0053986D01*
X0071450Y0052534D01*
X0071450Y0050466D01*
X0071058Y0049520D01*
X0088250Y0032328D01*
X0088250Y0032293D01*
X0088459Y0032206D01*
X0089556Y0031109D01*
X0090150Y0029676D01*
X0090150Y0023324D01*
X0089556Y0021891D01*
X0088459Y0020794D01*
X0087026Y0020200D01*
X0085474Y0020200D01*
X0084041Y0020794D01*
X0082944Y0021891D01*
X0082350Y0023324D01*
X0082350Y0029676D01*
X0082944Y0031109D01*
X0083378Y0031543D01*
X0072250Y0042672D01*
X0072250Y0038672D01*
X0064250Y0030672D01*
X0063078Y0029500D01*
X0027422Y0029500D01*
X0009422Y0047500D01*
X0008718Y0048203D01*
X0008718Y0047432D02*
X0009490Y0047432D01*
X0008718Y0046433D02*
X0010489Y0046433D01*
X0011487Y0045434D02*
X0008718Y0045434D01*
X0008718Y0044436D02*
X0012486Y0044436D01*
X0013484Y0043437D02*
X0008718Y0043437D01*
X0008718Y0042439D02*
X0014483Y0042439D01*
X0015481Y0041440D02*
X0008718Y0041440D01*
X0008718Y0040442D02*
X0016480Y0040442D01*
X0017478Y0039443D02*
X0008718Y0039443D01*
X0008718Y0038445D02*
X0018477Y0038445D01*
X0019475Y0037446D02*
X0008718Y0037446D01*
X0008718Y0036448D02*
X0020474Y0036448D01*
X0021472Y0035449D02*
X0008718Y0035449D01*
X0008718Y0034451D02*
X0022471Y0034451D01*
X0023469Y0033452D02*
X0008718Y0033452D01*
X0008718Y0032454D02*
X0024468Y0032454D01*
X0025466Y0031455D02*
X0008718Y0031455D01*
X0008718Y0030457D02*
X0026465Y0030457D01*
X0028250Y0031500D02*
X0010250Y0049500D01*
X0010250Y0150500D01*
X0016250Y0156500D01*
X0021064Y0154272D02*
X0021436Y0154272D01*
X0021250Y0154722D02*
X0021757Y0153498D01*
X0023248Y0152007D01*
X0025196Y0151200D01*
X0027304Y0151200D01*
X0029252Y0152007D01*
X0030743Y0153498D01*
X0031250Y0154722D01*
X0031757Y0153498D01*
X0033248Y0152007D01*
X0035196Y0151200D01*
X0037304Y0151200D01*
X0038306Y0151615D01*
X0045422Y0144500D01*
X0047078Y0144500D01*
X0133422Y0144500D01*
X0176122Y0101800D01*
X0175196Y0101800D01*
X0173248Y0100993D01*
X0171757Y0099502D01*
X0171250Y0098278D01*
X0170743Y0099502D01*
X0169252Y0100993D01*
X0167304Y0101800D01*
X0165196Y0101800D01*
X0163248Y0100993D01*
X0161757Y0099502D01*
X0161250Y0098278D01*
X0160743Y0099502D01*
X0159252Y0100993D01*
X0157304Y0101800D01*
X0155196Y0101800D01*
X0153248Y0100993D01*
X0151757Y0099502D01*
X0151247Y0098272D01*
X0151162Y0098534D01*
X0150783Y0099278D01*
X0150293Y0099953D01*
X0149703Y0100543D01*
X0149028Y0101033D01*
X0148284Y0101412D01*
X0147491Y0101669D01*
X0146750Y0101787D01*
X0146750Y0097000D01*
X0145750Y0097000D01*
X0145750Y0101787D01*
X0145009Y0101669D01*
X0144216Y0101412D01*
X0143472Y0101033D01*
X0142797Y0100543D01*
X0142207Y0099953D01*
X0141717Y0099278D01*
X0141338Y0098534D01*
X0141253Y0098272D01*
X0140743Y0099502D01*
X0139252Y0100993D01*
X0137304Y0101800D01*
X0135196Y0101800D01*
X0133248Y0100993D01*
X0131757Y0099502D01*
X0131250Y0098278D01*
X0130743Y0099502D01*
X0129252Y0100993D01*
X0127304Y0101800D01*
X0125196Y0101800D01*
X0123248Y0100993D01*
X0121757Y0099502D01*
X0121250Y0098278D01*
X0120743Y0099502D01*
X0119252Y0100993D01*
X0117304Y0101800D01*
X0115196Y0101800D01*
X0113248Y0100993D01*
X0111757Y0099502D01*
X0111250Y0098278D01*
X0110743Y0099502D01*
X0109252Y0100993D01*
X0107304Y0101800D01*
X0105196Y0101800D01*
X0103248Y0100993D01*
X0101757Y0099502D01*
X0101250Y0098278D01*
X0100743Y0099502D01*
X0099252Y0100993D01*
X0097304Y0101800D01*
X0095196Y0101800D01*
X0093248Y0100993D01*
X0091757Y0099502D01*
X0091250Y0098278D01*
X0090743Y0099502D01*
X0089252Y0100993D01*
X0087304Y0101800D01*
X0085196Y0101800D01*
X0083248Y0100993D01*
X0081757Y0099502D01*
X0081250Y0098278D01*
X0080743Y0099502D01*
X0079252Y0100993D01*
X0077304Y0101800D01*
X0075196Y0101800D01*
X0073248Y0100993D01*
X0071757Y0099502D01*
X0071250Y0098278D01*
X0070743Y0099502D01*
X0069252Y0100993D01*
X0067304Y0101800D01*
X0065196Y0101800D01*
X0063248Y0100993D01*
X0061757Y0099502D01*
X0061250Y0098278D01*
X0060743Y0099502D01*
X0059252Y0100993D01*
X0057304Y0101800D01*
X0055196Y0101800D01*
X0053248Y0100993D01*
X0051757Y0099502D01*
X0051250Y0098278D01*
X0050743Y0099502D01*
X0049252Y0100993D01*
X0047304Y0101800D01*
X0045196Y0101800D01*
X0043248Y0100993D01*
X0041757Y0099502D01*
X0041250Y0098278D01*
X0040743Y0099502D01*
X0039252Y0100993D01*
X0037304Y0101800D01*
X0035196Y0101800D01*
X0033248Y0100993D01*
X0031757Y0099502D01*
X0031250Y0098278D01*
X0030743Y0099502D01*
X0029252Y0100993D01*
X0027304Y0101800D01*
X0025196Y0101800D01*
X0023248Y0100993D01*
X0021757Y0099502D01*
X0021250Y0098278D01*
X0020743Y0099502D01*
X0019252Y0100993D01*
X0017304Y0101800D01*
X0015196Y0101800D01*
X0013248Y0100993D01*
X0012250Y0099995D01*
X0012250Y0149672D01*
X0014194Y0151615D01*
X0015196Y0151200D01*
X0017304Y0151200D01*
X0019252Y0152007D01*
X0020743Y0153498D01*
X0021250Y0154722D01*
X0020519Y0153274D02*
X0021981Y0153274D01*
X0022979Y0152275D02*
X0019521Y0152275D01*
X0017489Y0151277D02*
X0025011Y0151277D01*
X0027489Y0151277D02*
X0035011Y0151277D01*
X0032979Y0152275D02*
X0029521Y0152275D01*
X0030519Y0153274D02*
X0031981Y0153274D01*
X0031436Y0154272D02*
X0031064Y0154272D01*
X0036250Y0156500D02*
X0046250Y0146500D01*
X0134250Y0146500D01*
X0182250Y0098500D01*
X0182250Y0094500D01*
X0178250Y0090500D01*
X0157250Y0090500D01*
X0131250Y0064500D01*
X0128250Y0068500D02*
X0156250Y0096500D01*
X0154112Y0101351D02*
X0148403Y0101351D01*
X0146750Y0101351D02*
X0145750Y0101351D01*
X0145750Y0100353D02*
X0146750Y0100353D01*
X0146750Y0099354D02*
X0145750Y0099354D01*
X0145750Y0098356D02*
X0146750Y0098356D01*
X0146750Y0097357D02*
X0145750Y0097357D01*
X0146250Y0096500D02*
X0146250Y0091500D01*
X0121250Y0066500D01*
X0120950Y0066403D02*
X0086982Y0066403D01*
X0087980Y0067402D02*
X0115053Y0067402D01*
X0115429Y0068400D02*
X0088979Y0068400D01*
X0089977Y0069399D02*
X0116233Y0069399D01*
X0118452Y0070397D02*
X0090976Y0070397D01*
X0091974Y0071396D02*
X0128317Y0071396D01*
X0127319Y0070397D02*
X0124048Y0070397D01*
X0124426Y0072600D02*
X0125859Y0073194D01*
X0126956Y0074291D01*
X0127550Y0075724D01*
X0127550Y0077276D01*
X0126956Y0078709D01*
X0125859Y0079806D01*
X0124426Y0080400D01*
X0118074Y0080400D01*
X0116641Y0079806D01*
X0115544Y0078709D01*
X0114950Y0077276D01*
X0114950Y0075724D01*
X0115544Y0074291D01*
X0116641Y0073194D01*
X0118074Y0072600D01*
X0124426Y0072600D01*
X0126058Y0073393D02*
X0130314Y0073393D01*
X0129316Y0072394D02*
X0092973Y0072394D01*
X0093971Y0073393D02*
X0101442Y0073393D01*
X0100502Y0074391D02*
X0094970Y0074391D01*
X0094250Y0076500D02*
X0078250Y0060500D01*
X0067250Y0060500D01*
X0060250Y0053500D01*
X0060250Y0049500D01*
X0064250Y0045500D01*
X0068250Y0045500D01*
X0070250Y0043500D01*
X0070250Y0039500D01*
X0062250Y0031500D01*
X0028250Y0031500D01*
X0033014Y0033500D02*
X0033814Y0034299D01*
X0034522Y0036008D01*
X0034522Y0037858D01*
X0033814Y0039567D01*
X0032506Y0040875D01*
X0032419Y0040911D01*
X0032901Y0041261D01*
X0033419Y0041778D01*
X0033849Y0042370D01*
X0034181Y0043022D01*
X0034407Y0043718D01*
X0034522Y0044441D01*
X0034522Y0044618D01*
X0030061Y0044618D01*
X0030061Y0044996D01*
X0034522Y0044996D01*
X0034522Y0045173D01*
X0034407Y0045896D01*
X0034181Y0046592D01*
X0033849Y0047244D01*
X0033419Y0047836D01*
X0032901Y0048354D01*
X0032309Y0048784D01*
X0031657Y0049116D01*
X0030961Y0049342D01*
X0030238Y0049457D01*
X0030061Y0049457D01*
X0030061Y0044996D01*
X0029683Y0044996D01*
X0029683Y0044618D01*
X0025222Y0044618D01*
X0025222Y0044441D01*
X0025337Y0043718D01*
X0025563Y0043022D01*
X0025895Y0042370D01*
X0026326Y0041778D01*
X0026843Y0041261D01*
X0027325Y0040911D01*
X0027238Y0040875D01*
X0025930Y0039567D01*
X0025222Y0037858D01*
X0025222Y0037356D01*
X0012250Y0050328D01*
X0012250Y0093005D01*
X0013248Y0092007D01*
X0015196Y0091200D01*
X0017304Y0091200D01*
X0018306Y0091615D01*
X0021422Y0088500D01*
X0024422Y0088500D01*
X0025225Y0087697D01*
X0024041Y0087206D01*
X0022944Y0086109D01*
X0022350Y0084676D01*
X0022350Y0078324D01*
X0022944Y0076891D01*
X0024041Y0075794D01*
X0025474Y0075200D01*
X0027026Y0075200D01*
X0028250Y0075707D01*
X0028250Y0075672D01*
X0029422Y0074500D01*
X0052772Y0051150D01*
X0051550Y0051150D01*
X0051550Y0046800D01*
X0055900Y0046800D01*
X0055900Y0048022D01*
X0062350Y0041572D01*
X0062350Y0039885D01*
X0064635Y0037600D01*
X0065522Y0037600D01*
X0061422Y0033500D01*
X0054826Y0033500D01*
X0055900Y0034574D01*
X0055900Y0038426D01*
X0053176Y0041150D01*
X0049324Y0041150D01*
X0046600Y0038426D01*
X0046600Y0034574D01*
X0047674Y0033500D01*
X0033014Y0033500D01*
X0033877Y0034451D02*
X0046723Y0034451D01*
X0046600Y0035449D02*
X0034290Y0035449D01*
X0034522Y0036448D02*
X0046600Y0036448D01*
X0046600Y0037446D02*
X0034522Y0037446D01*
X0034279Y0038445D02*
X0046619Y0038445D01*
X0047617Y0039443D02*
X0033865Y0039443D01*
X0032939Y0040442D02*
X0048616Y0040442D01*
X0049324Y0041850D02*
X0050950Y0041850D01*
X0050950Y0046200D01*
X0051550Y0046200D01*
X0051550Y0046800D01*
X0050950Y0046800D01*
X0050950Y0051150D01*
X0049324Y0051150D01*
X0046600Y0048426D01*
X0046600Y0046800D01*
X0050950Y0046800D01*
X0050950Y0046200D01*
X0046600Y0046200D01*
X0046600Y0044574D01*
X0049324Y0041850D01*
X0048735Y0042439D02*
X0033884Y0042439D01*
X0034316Y0043437D02*
X0047736Y0043437D01*
X0046738Y0044436D02*
X0034521Y0044436D01*
X0034480Y0045434D02*
X0046600Y0045434D01*
X0046600Y0047432D02*
X0033713Y0047432D01*
X0034233Y0046433D02*
X0050950Y0046433D01*
X0051250Y0046500D02*
X0030250Y0046500D01*
X0029872Y0044807D01*
X0030250Y0045500D01*
X0030250Y0046500D01*
X0030250Y0065500D01*
X0016250Y0079500D01*
X0016250Y0081500D01*
X0016550Y0081381D02*
X0022350Y0081381D01*
X0022350Y0082379D02*
X0020150Y0082379D01*
X0020150Y0081800D02*
X0020150Y0084284D01*
X0020000Y0085038D01*
X0019706Y0085747D01*
X0019279Y0086386D01*
X0018736Y0086929D01*
X0018097Y0087356D01*
X0017388Y0087650D01*
X0016634Y0087800D01*
X0016550Y0087800D01*
X0016550Y0081800D01*
X0020150Y0081800D01*
X0020150Y0081200D02*
X0016550Y0081200D01*
X0016550Y0081800D01*
X0015950Y0081800D01*
X0015950Y0087800D01*
X0015866Y0087800D01*
X0015112Y0087650D01*
X0014403Y0087356D01*
X0013764Y0086929D01*
X0013221Y0086386D01*
X0012794Y0085747D01*
X0012500Y0085038D01*
X0012350Y0084284D01*
X0012350Y0081800D01*
X0015950Y0081800D01*
X0015950Y0081200D01*
X0016550Y0081200D01*
X0016550Y0075200D01*
X0016634Y0075200D01*
X0017388Y0075350D01*
X0018097Y0075644D01*
X0018736Y0076071D01*
X0019279Y0076614D01*
X0019706Y0077253D01*
X0020000Y0077962D01*
X0020150Y0078716D01*
X0020150Y0081200D01*
X0020150Y0080382D02*
X0022350Y0080382D01*
X0022350Y0079384D02*
X0020150Y0079384D01*
X0020084Y0078385D02*
X0022350Y0078385D01*
X0022738Y0077387D02*
X0019762Y0077387D01*
X0019054Y0076388D02*
X0023446Y0076388D01*
X0025016Y0075390D02*
X0017484Y0075390D01*
X0016550Y0075390D02*
X0015950Y0075390D01*
X0015950Y0075200D02*
X0015950Y0081200D01*
X0012350Y0081200D01*
X0012350Y0078716D01*
X0012500Y0077962D01*
X0012794Y0077253D01*
X0013221Y0076614D01*
X0013764Y0076071D01*
X0014403Y0075644D01*
X0015112Y0075350D01*
X0015866Y0075200D01*
X0015950Y0075200D01*
X0015016Y0075390D02*
X0012250Y0075390D01*
X0012250Y0076388D02*
X0013446Y0076388D01*
X0012738Y0077387D02*
X0012250Y0077387D01*
X0012250Y0078385D02*
X0012416Y0078385D01*
X0012350Y0079384D02*
X0012250Y0079384D01*
X0012250Y0080382D02*
X0012350Y0080382D01*
X0012250Y0081381D02*
X0015950Y0081381D01*
X0015950Y0082379D02*
X0016550Y0082379D01*
X0016550Y0083378D02*
X0015950Y0083378D01*
X0015950Y0084376D02*
X0016550Y0084376D01*
X0016550Y0085375D02*
X0015950Y0085375D01*
X0015950Y0086373D02*
X0016550Y0086373D01*
X0016550Y0087372D02*
X0015950Y0087372D01*
X0014441Y0087372D02*
X0012250Y0087372D01*
X0012250Y0088370D02*
X0024551Y0088370D01*
X0024441Y0087372D02*
X0018059Y0087372D01*
X0019288Y0086373D02*
X0023208Y0086373D01*
X0022640Y0085375D02*
X0019860Y0085375D01*
X0020132Y0084376D02*
X0022350Y0084376D01*
X0022350Y0083378D02*
X0020150Y0083378D01*
X0016550Y0080382D02*
X0015950Y0080382D01*
X0015950Y0079384D02*
X0016550Y0079384D01*
X0016550Y0078385D02*
X0015950Y0078385D01*
X0015950Y0077387D02*
X0016550Y0077387D01*
X0016550Y0076388D02*
X0015950Y0076388D01*
X0012250Y0074391D02*
X0029530Y0074391D01*
X0030529Y0073393D02*
X0012250Y0073393D01*
X0012250Y0072394D02*
X0031527Y0072394D01*
X0032526Y0071396D02*
X0012250Y0071396D01*
X0012250Y0070397D02*
X0033524Y0070397D01*
X0034523Y0069399D02*
X0012250Y0069399D01*
X0012250Y0068400D02*
X0035521Y0068400D01*
X0036520Y0067402D02*
X0027987Y0067402D01*
X0028459Y0067206D02*
X0027026Y0067800D01*
X0025474Y0067800D01*
X0024041Y0067206D01*
X0022944Y0066109D01*
X0022350Y0064676D01*
X0022350Y0058324D01*
X0022944Y0056891D01*
X0024041Y0055794D01*
X0025474Y0055200D01*
X0027026Y0055200D01*
X0028459Y0055794D01*
X0029556Y0056891D01*
X0030150Y0058324D01*
X0030150Y0064676D01*
X0029556Y0066109D01*
X0028459Y0067206D01*
X0029262Y0066403D02*
X0037518Y0066403D01*
X0038517Y0065405D02*
X0029848Y0065405D01*
X0030150Y0064406D02*
X0039515Y0064406D01*
X0040514Y0063408D02*
X0030150Y0063408D01*
X0030150Y0062409D02*
X0041512Y0062409D01*
X0042511Y0061411D02*
X0030150Y0061411D01*
X0030150Y0060412D02*
X0043509Y0060412D01*
X0044508Y0059414D02*
X0030150Y0059414D01*
X0030150Y0058415D02*
X0045506Y0058415D01*
X0046505Y0057417D02*
X0029774Y0057417D01*
X0029084Y0056418D02*
X0047503Y0056418D01*
X0048502Y0055420D02*
X0027556Y0055420D01*
X0024944Y0055420D02*
X0017556Y0055420D01*
X0017026Y0055200D02*
X0018459Y0055794D01*
X0019556Y0056891D01*
X0020150Y0058324D01*
X0020150Y0064676D01*
X0019556Y0066109D01*
X0018459Y0067206D01*
X0017026Y0067800D01*
X0015474Y0067800D01*
X0014041Y0067206D01*
X0012944Y0066109D01*
X0012350Y0064676D01*
X0012350Y0058324D01*
X0012944Y0056891D01*
X0014041Y0055794D01*
X0015474Y0055200D01*
X0017026Y0055200D01*
X0014944Y0055420D02*
X0012250Y0055420D01*
X0012250Y0056418D02*
X0013416Y0056418D01*
X0012726Y0057417D02*
X0012250Y0057417D01*
X0012250Y0058415D02*
X0012350Y0058415D01*
X0012350Y0059414D02*
X0012250Y0059414D01*
X0012250Y0060412D02*
X0012350Y0060412D01*
X0012350Y0061411D02*
X0012250Y0061411D01*
X0012250Y0062409D02*
X0012350Y0062409D01*
X0012350Y0063408D02*
X0012250Y0063408D01*
X0012250Y0064406D02*
X0012350Y0064406D01*
X0012250Y0065405D02*
X0012652Y0065405D01*
X0012250Y0066403D02*
X0013238Y0066403D01*
X0012250Y0067402D02*
X0014513Y0067402D01*
X0017987Y0067402D02*
X0024513Y0067402D01*
X0023238Y0066403D02*
X0019262Y0066403D01*
X0019848Y0065405D02*
X0022652Y0065405D01*
X0022350Y0064406D02*
X0020150Y0064406D01*
X0020150Y0063408D02*
X0022350Y0063408D01*
X0022350Y0062409D02*
X0020150Y0062409D01*
X0020150Y0061411D02*
X0022350Y0061411D01*
X0022350Y0060412D02*
X0020150Y0060412D01*
X0020150Y0059414D02*
X0022350Y0059414D01*
X0022350Y0058415D02*
X0020150Y0058415D01*
X0019774Y0057417D02*
X0022726Y0057417D01*
X0023416Y0056418D02*
X0019084Y0056418D01*
X0012250Y0054421D02*
X0049500Y0054421D01*
X0050499Y0053423D02*
X0012250Y0053423D01*
X0012250Y0052424D02*
X0051497Y0052424D01*
X0052496Y0051426D02*
X0012250Y0051426D01*
X0012250Y0050427D02*
X0048601Y0050427D01*
X0047602Y0049429D02*
X0030416Y0049429D01*
X0030061Y0049429D02*
X0029683Y0049429D01*
X0029683Y0049457D02*
X0029506Y0049457D01*
X0028783Y0049342D01*
X0028087Y0049116D01*
X0027435Y0048784D01*
X0026843Y0048354D01*
X0026326Y0047836D01*
X0025895Y0047244D01*
X0025563Y0046592D01*
X0025337Y0045896D01*
X0025222Y0045173D01*
X0025222Y0044996D01*
X0029683Y0044996D01*
X0029683Y0049457D01*
X0029328Y0049429D02*
X0013150Y0049429D01*
X0014148Y0048430D02*
X0026948Y0048430D01*
X0026032Y0047432D02*
X0015147Y0047432D01*
X0016145Y0046433D02*
X0025511Y0046433D01*
X0025264Y0045434D02*
X0017144Y0045434D01*
X0018142Y0044436D02*
X0025223Y0044436D01*
X0025428Y0043437D02*
X0019141Y0043437D01*
X0020139Y0042439D02*
X0025860Y0042439D01*
X0026663Y0041440D02*
X0021138Y0041440D01*
X0022136Y0040442D02*
X0026805Y0040442D01*
X0025879Y0039443D02*
X0023135Y0039443D01*
X0024133Y0038445D02*
X0025466Y0038445D01*
X0025222Y0037446D02*
X0025132Y0037446D01*
X0033081Y0041440D02*
X0062350Y0041440D01*
X0062350Y0040442D02*
X0053884Y0040442D01*
X0054883Y0039443D02*
X0062791Y0039443D01*
X0063790Y0038445D02*
X0055881Y0038445D01*
X0055900Y0037446D02*
X0065368Y0037446D01*
X0064369Y0036448D02*
X0055900Y0036448D01*
X0055900Y0035449D02*
X0063371Y0035449D01*
X0062372Y0034451D02*
X0055777Y0034451D01*
X0053176Y0041850D02*
X0051550Y0041850D01*
X0051550Y0046200D01*
X0055900Y0046200D01*
X0055900Y0044574D01*
X0053176Y0041850D01*
X0053765Y0042439D02*
X0061483Y0042439D01*
X0060484Y0043437D02*
X0054764Y0043437D01*
X0055762Y0044436D02*
X0059486Y0044436D01*
X0058487Y0045434D02*
X0055900Y0045434D01*
X0057489Y0046433D02*
X0051550Y0046433D01*
X0051550Y0045434D02*
X0050950Y0045434D01*
X0050950Y0044436D02*
X0051550Y0044436D01*
X0051550Y0043437D02*
X0050950Y0043437D01*
X0050950Y0042439D02*
X0051550Y0042439D01*
X0051550Y0047432D02*
X0050950Y0047432D01*
X0050950Y0048430D02*
X0051550Y0048430D01*
X0051550Y0049429D02*
X0050950Y0049429D01*
X0050950Y0050427D02*
X0051550Y0050427D01*
X0055900Y0047432D02*
X0056490Y0047432D01*
X0058153Y0051426D02*
X0058250Y0051426D01*
X0058250Y0052424D02*
X0057154Y0052424D01*
X0056156Y0053423D02*
X0058250Y0053423D01*
X0058343Y0054421D02*
X0055157Y0054421D01*
X0055474Y0055200D02*
X0057026Y0055200D01*
X0058459Y0055794D01*
X0059556Y0056891D01*
X0060150Y0058324D01*
X0060150Y0064676D01*
X0059556Y0066109D01*
X0058459Y0067206D01*
X0057026Y0067800D01*
X0055474Y0067800D01*
X0054041Y0067206D01*
X0052944Y0066109D01*
X0052350Y0064676D01*
X0052350Y0058324D01*
X0052944Y0056891D01*
X0054041Y0055794D01*
X0055474Y0055200D01*
X0054944Y0055420D02*
X0054159Y0055420D01*
X0053416Y0056418D02*
X0053160Y0056418D01*
X0052726Y0057417D02*
X0052162Y0057417D01*
X0052350Y0058415D02*
X0051163Y0058415D01*
X0050165Y0059414D02*
X0052350Y0059414D01*
X0052350Y0060412D02*
X0049166Y0060412D01*
X0048168Y0061411D02*
X0052350Y0061411D01*
X0052350Y0062409D02*
X0047169Y0062409D01*
X0046171Y0063408D02*
X0052350Y0063408D01*
X0052350Y0064406D02*
X0045172Y0064406D01*
X0044174Y0065405D02*
X0052652Y0065405D01*
X0053238Y0066403D02*
X0043175Y0066403D01*
X0042177Y0067402D02*
X0054513Y0067402D01*
X0057987Y0067402D02*
X0070053Y0067402D01*
X0070429Y0068400D02*
X0041178Y0068400D01*
X0040180Y0069399D02*
X0071233Y0069399D01*
X0073452Y0070397D02*
X0039181Y0070397D01*
X0038183Y0071396D02*
X0086317Y0071396D01*
X0085319Y0070397D02*
X0079048Y0070397D01*
X0079426Y0072600D02*
X0080859Y0073194D01*
X0081956Y0074291D01*
X0082550Y0075724D01*
X0082550Y0077276D01*
X0081956Y0078709D01*
X0080859Y0079806D01*
X0079426Y0080400D01*
X0073074Y0080400D01*
X0071641Y0079806D01*
X0070849Y0079014D01*
X0071450Y0080466D01*
X0071450Y0082534D01*
X0070658Y0084446D01*
X0069196Y0085908D01*
X0067284Y0086700D01*
X0065216Y0086700D01*
X0063304Y0085908D01*
X0061842Y0084446D01*
X0061050Y0082534D01*
X0061050Y0080466D01*
X0061442Y0079520D01*
X0060082Y0078161D01*
X0060150Y0078324D01*
X0060150Y0084676D01*
X0059556Y0086109D01*
X0058459Y0087206D01*
X0057026Y0087800D01*
X0055474Y0087800D01*
X0054041Y0087206D01*
X0052944Y0086109D01*
X0052350Y0084676D01*
X0052350Y0078324D01*
X0052944Y0076891D01*
X0053335Y0076500D01*
X0041042Y0076500D01*
X0040769Y0076773D01*
X0039783Y0077181D01*
X0038717Y0077181D01*
X0037731Y0076773D01*
X0036977Y0076019D01*
X0036569Y0075033D01*
X0036569Y0073967D01*
X0036977Y0072981D01*
X0037731Y0072227D01*
X0038717Y0071819D01*
X0039783Y0071819D01*
X0040769Y0072227D01*
X0041042Y0072500D01*
X0060078Y0072500D01*
X0064270Y0076692D01*
X0065216Y0076300D01*
X0067284Y0076300D01*
X0069196Y0077092D01*
X0070353Y0078249D01*
X0069950Y0077276D01*
X0069950Y0075724D01*
X0070544Y0074291D01*
X0071641Y0073194D01*
X0073074Y0072600D01*
X0079426Y0072600D01*
X0081058Y0073393D02*
X0088314Y0073393D01*
X0087316Y0072394D02*
X0040936Y0072394D01*
X0039250Y0074500D02*
X0059250Y0074500D01*
X0066250Y0081500D01*
X0071101Y0083378D02*
X0140300Y0083378D01*
X0141298Y0084376D02*
X0070687Y0084376D01*
X0069729Y0085375D02*
X0142297Y0085375D01*
X0143295Y0086373D02*
X0068073Y0086373D01*
X0064427Y0086373D02*
X0059292Y0086373D01*
X0059860Y0085375D02*
X0062771Y0085375D01*
X0061813Y0084376D02*
X0060150Y0084376D01*
X0060150Y0083378D02*
X0061399Y0083378D01*
X0061050Y0082379D02*
X0060150Y0082379D01*
X0060150Y0081381D02*
X0061050Y0081381D01*
X0061084Y0080382D02*
X0060150Y0080382D01*
X0060150Y0079384D02*
X0061305Y0079384D01*
X0060307Y0078385D02*
X0060150Y0078385D01*
X0062968Y0075390D02*
X0070089Y0075390D01*
X0069950Y0076388D02*
X0067498Y0076388D01*
X0069491Y0077387D02*
X0069996Y0077387D01*
X0071002Y0079384D02*
X0071218Y0079384D01*
X0071415Y0080382D02*
X0073032Y0080382D01*
X0071450Y0081381D02*
X0138302Y0081381D01*
X0137304Y0080382D02*
X0124468Y0080382D01*
X0126282Y0079384D02*
X0136305Y0079384D01*
X0135307Y0078385D02*
X0127090Y0078385D01*
X0127504Y0077387D02*
X0134308Y0077387D01*
X0133310Y0076388D02*
X0127550Y0076388D01*
X0127411Y0075390D02*
X0132311Y0075390D01*
X0131313Y0074391D02*
X0126998Y0074391D01*
X0121550Y0070397D02*
X0120950Y0070397D01*
X0120950Y0069399D02*
X0121550Y0069399D01*
X0121550Y0068400D02*
X0120950Y0068400D01*
X0120950Y0067402D02*
X0121550Y0067402D01*
X0121550Y0065405D02*
X0120950Y0065405D01*
X0120950Y0064406D02*
X0121550Y0064406D01*
X0121550Y0063408D02*
X0120950Y0063408D01*
X0116458Y0063408D02*
X0083986Y0063408D01*
X0084985Y0064406D02*
X0115559Y0064406D01*
X0115091Y0065405D02*
X0085983Y0065405D01*
X0082988Y0062409D02*
X0126250Y0062409D01*
X0126250Y0061411D02*
X0081989Y0061411D01*
X0080991Y0060412D02*
X0126250Y0060412D01*
X0126250Y0063408D02*
X0126042Y0063408D01*
X0128250Y0068500D02*
X0128250Y0054500D01*
X0116250Y0042500D01*
X0116250Y0026500D01*
X0114250Y0020500D02*
X0110250Y0024500D01*
X0110250Y0039500D01*
X0121250Y0050500D01*
X0121250Y0056500D01*
X0116412Y0053423D02*
X0111088Y0053423D01*
X0110859Y0053194D02*
X0111956Y0054291D01*
X0112550Y0055724D01*
X0112550Y0057276D01*
X0111956Y0058709D01*
X0110859Y0059806D01*
X0109426Y0060400D01*
X0103074Y0060400D01*
X0101641Y0059806D01*
X0100544Y0058709D01*
X0099950Y0057276D01*
X0099950Y0055724D01*
X0100544Y0054291D01*
X0101641Y0053194D01*
X0103074Y0052600D01*
X0109426Y0052600D01*
X0110859Y0053194D01*
X0112010Y0054421D02*
X0115490Y0054421D01*
X0115076Y0055420D02*
X0112424Y0055420D01*
X0112550Y0056418D02*
X0114950Y0056418D01*
X0115008Y0057417D02*
X0112492Y0057417D01*
X0112078Y0058415D02*
X0115422Y0058415D01*
X0116248Y0059414D02*
X0111252Y0059414D01*
X0119250Y0052424D02*
X0071450Y0052424D01*
X0071450Y0051426D02*
X0119250Y0051426D01*
X0118349Y0050427D02*
X0071434Y0050427D01*
X0071150Y0049429D02*
X0117350Y0049429D01*
X0116352Y0048430D02*
X0072148Y0048430D01*
X0073147Y0047432D02*
X0115353Y0047432D01*
X0114355Y0046433D02*
X0074145Y0046433D01*
X0075144Y0045434D02*
X0113356Y0045434D01*
X0112358Y0044436D02*
X0076142Y0044436D01*
X0077141Y0043437D02*
X0111359Y0043437D01*
X0110361Y0042439D02*
X0078139Y0042439D01*
X0079138Y0041440D02*
X0109362Y0041440D01*
X0108364Y0040442D02*
X0080136Y0040442D01*
X0081135Y0039443D02*
X0108250Y0039443D01*
X0108250Y0038445D02*
X0082133Y0038445D01*
X0083132Y0037446D02*
X0108250Y0037446D01*
X0108250Y0036448D02*
X0084131Y0036448D01*
X0085129Y0035449D02*
X0108250Y0035449D01*
X0108250Y0034451D02*
X0086128Y0034451D01*
X0087126Y0033452D02*
X0108250Y0033452D01*
X0108250Y0032454D02*
X0097861Y0032454D01*
X0098459Y0032206D02*
X0097026Y0032800D01*
X0095474Y0032800D01*
X0094041Y0032206D01*
X0092944Y0031109D01*
X0092350Y0029676D01*
X0092350Y0023324D01*
X0092944Y0021891D01*
X0094041Y0020794D01*
X0095474Y0020200D01*
X0097026Y0020200D01*
X0098459Y0020794D01*
X0099556Y0021891D01*
X0100150Y0023324D01*
X0100150Y0029676D01*
X0099556Y0031109D01*
X0098459Y0032206D01*
X0099210Y0031455D02*
X0108250Y0031455D01*
X0108250Y0030457D02*
X0099826Y0030457D01*
X0100150Y0029458D02*
X0108250Y0029458D01*
X0108250Y0028460D02*
X0100150Y0028460D01*
X0100150Y0027461D02*
X0108250Y0027461D01*
X0108250Y0026463D02*
X0100150Y0026463D01*
X0100150Y0025464D02*
X0108250Y0025464D01*
X0108250Y0024466D02*
X0100150Y0024466D01*
X0100150Y0023467D02*
X0108454Y0023467D01*
X0109453Y0022469D02*
X0099796Y0022469D01*
X0099136Y0021470D02*
X0110451Y0021470D01*
X0111450Y0020472D02*
X0097682Y0020472D01*
X0094818Y0020472D02*
X0087682Y0020472D01*
X0089136Y0021470D02*
X0093364Y0021470D01*
X0092704Y0022469D02*
X0089796Y0022469D01*
X0090150Y0023467D02*
X0092350Y0023467D01*
X0092350Y0024466D02*
X0090150Y0024466D01*
X0090150Y0025464D02*
X0092350Y0025464D01*
X0092350Y0026463D02*
X0090150Y0026463D01*
X0090150Y0027461D02*
X0092350Y0027461D01*
X0092350Y0028460D02*
X0090150Y0028460D01*
X0090150Y0029458D02*
X0092350Y0029458D01*
X0092674Y0030457D02*
X0089826Y0030457D01*
X0089210Y0031455D02*
X0093290Y0031455D01*
X0094639Y0032454D02*
X0088125Y0032454D01*
X0086250Y0031500D02*
X0066250Y0051500D01*
X0071082Y0053423D02*
X0071412Y0053423D01*
X0064334Y0060412D02*
X0060150Y0060412D01*
X0060150Y0059414D02*
X0063335Y0059414D01*
X0062337Y0058415D02*
X0060150Y0058415D01*
X0059774Y0057417D02*
X0061338Y0057417D01*
X0060340Y0056418D02*
X0059084Y0056418D01*
X0059341Y0055420D02*
X0057556Y0055420D01*
X0060150Y0061411D02*
X0065332Y0061411D01*
X0066331Y0062409D02*
X0060150Y0062409D01*
X0060150Y0063408D02*
X0071458Y0063408D01*
X0070559Y0064406D02*
X0060150Y0064406D01*
X0059848Y0065405D02*
X0070091Y0065405D01*
X0075950Y0065405D02*
X0076550Y0065405D01*
X0076550Y0064406D02*
X0075950Y0064406D01*
X0075950Y0063408D02*
X0076550Y0063408D01*
X0075950Y0066403D02*
X0059262Y0066403D01*
X0060971Y0073393D02*
X0071442Y0073393D01*
X0070502Y0074391D02*
X0061970Y0074391D01*
X0063967Y0076388D02*
X0065002Y0076388D01*
X0071450Y0082379D02*
X0139301Y0082379D01*
X0144294Y0087372D02*
X0058059Y0087372D01*
X0054441Y0087372D02*
X0031206Y0087372D01*
X0030208Y0088370D02*
X0145292Y0088370D01*
X0146291Y0089369D02*
X0029209Y0089369D01*
X0028211Y0090368D02*
X0147289Y0090368D01*
X0147600Y0091366D02*
X0148288Y0091366D01*
X0146750Y0091366D02*
X0145750Y0091366D01*
X0144900Y0091366D02*
X0137705Y0091366D01*
X0139610Y0092365D02*
X0142925Y0092365D01*
X0141978Y0093363D02*
X0140608Y0093363D01*
X0141101Y0094362D02*
X0141391Y0094362D01*
X0141280Y0098356D02*
X0141218Y0098356D01*
X0140804Y0099354D02*
X0141772Y0099354D01*
X0142607Y0100353D02*
X0139893Y0100353D01*
X0138388Y0101351D02*
X0144097Y0101351D01*
X0149893Y0100353D02*
X0152607Y0100353D01*
X0151696Y0099354D02*
X0150728Y0099354D01*
X0151220Y0098356D02*
X0151282Y0098356D01*
X0146750Y0095360D02*
X0145750Y0095360D01*
X0145750Y0094362D02*
X0146750Y0094362D01*
X0146750Y0093363D02*
X0145750Y0093363D01*
X0145750Y0092365D02*
X0146750Y0092365D01*
X0158388Y0101351D02*
X0164112Y0101351D01*
X0162607Y0100353D02*
X0159893Y0100353D01*
X0160804Y0099354D02*
X0161696Y0099354D01*
X0161282Y0098356D02*
X0161218Y0098356D01*
X0168388Y0101351D02*
X0174112Y0101351D01*
X0175572Y0102350D02*
X0012250Y0102350D01*
X0012250Y0103348D02*
X0174573Y0103348D01*
X0173575Y0104347D02*
X0012250Y0104347D01*
X0012250Y0105345D02*
X0172576Y0105345D01*
X0171578Y0106344D02*
X0012250Y0106344D01*
X0012250Y0107342D02*
X0170579Y0107342D01*
X0169581Y0108341D02*
X0012250Y0108341D01*
X0012250Y0109339D02*
X0168582Y0109339D01*
X0167584Y0110338D02*
X0012250Y0110338D01*
X0012250Y0111336D02*
X0166585Y0111336D01*
X0165587Y0112335D02*
X0012250Y0112335D01*
X0012250Y0113333D02*
X0164588Y0113333D01*
X0163590Y0114332D02*
X0012250Y0114332D01*
X0012250Y0115330D02*
X0162591Y0115330D01*
X0161593Y0116329D02*
X0012250Y0116329D01*
X0012250Y0117327D02*
X0160594Y0117327D01*
X0159596Y0118326D02*
X0012250Y0118326D01*
X0012250Y0119324D02*
X0158597Y0119324D01*
X0157599Y0120323D02*
X0012250Y0120323D01*
X0012250Y0121321D02*
X0156600Y0121321D01*
X0155602Y0122320D02*
X0012250Y0122320D01*
X0012250Y0123318D02*
X0154603Y0123318D01*
X0153605Y0124317D02*
X0012250Y0124317D01*
X0012250Y0125315D02*
X0152606Y0125315D01*
X0151608Y0126314D02*
X0012250Y0126314D01*
X0012250Y0127312D02*
X0150609Y0127312D01*
X0149611Y0128311D02*
X0012250Y0128311D01*
X0012250Y0129309D02*
X0148612Y0129309D01*
X0147614Y0130308D02*
X0012250Y0130308D01*
X0012250Y0131306D02*
X0146615Y0131306D01*
X0145617Y0132305D02*
X0012250Y0132305D01*
X0012250Y0133303D02*
X0144618Y0133303D01*
X0143620Y0134302D02*
X0012250Y0134302D01*
X0012250Y0135301D02*
X0142621Y0135301D01*
X0141623Y0136299D02*
X0012250Y0136299D01*
X0012250Y0137298D02*
X0140624Y0137298D01*
X0139626Y0138296D02*
X0012250Y0138296D01*
X0012250Y0139295D02*
X0138627Y0139295D01*
X0137628Y0140293D02*
X0012250Y0140293D01*
X0012250Y0141292D02*
X0136630Y0141292D01*
X0135631Y0142290D02*
X0012250Y0142290D01*
X0012250Y0143289D02*
X0134633Y0143289D01*
X0133634Y0144287D02*
X0012250Y0144287D01*
X0012250Y0145286D02*
X0044636Y0145286D01*
X0043637Y0146284D02*
X0012250Y0146284D01*
X0012250Y0147283D02*
X0042639Y0147283D01*
X0041640Y0148281D02*
X0012250Y0148281D01*
X0012250Y0149280D02*
X0040642Y0149280D01*
X0039643Y0150278D02*
X0012857Y0150278D01*
X0013855Y0151277D02*
X0015011Y0151277D01*
X0037489Y0151277D02*
X0038645Y0151277D01*
X0056250Y0156500D02*
X0064250Y0148500D01*
X0135250Y0148500D01*
X0184250Y0099500D01*
X0184250Y0093500D01*
X0167250Y0076500D01*
X0151250Y0076500D01*
X0134795Y0091366D02*
X0127705Y0091366D01*
X0129610Y0092365D02*
X0132890Y0092365D01*
X0131892Y0093363D02*
X0130608Y0093363D01*
X0131101Y0094362D02*
X0131399Y0094362D01*
X0131282Y0098356D02*
X0131218Y0098356D01*
X0130804Y0099354D02*
X0131696Y0099354D01*
X0132607Y0100353D02*
X0129893Y0100353D01*
X0128388Y0101351D02*
X0134112Y0101351D01*
X0124112Y0101351D02*
X0118388Y0101351D01*
X0119893Y0100353D02*
X0122607Y0100353D01*
X0121696Y0099354D02*
X0120804Y0099354D01*
X0121218Y0098356D02*
X0121282Y0098356D01*
X0121399Y0094362D02*
X0121101Y0094362D01*
X0120608Y0093363D02*
X0121892Y0093363D01*
X0122890Y0092365D02*
X0119610Y0092365D01*
X0117705Y0091366D02*
X0124795Y0091366D01*
X0114795Y0091366D02*
X0107705Y0091366D01*
X0109610Y0092365D02*
X0112890Y0092365D01*
X0111892Y0093363D02*
X0110608Y0093363D01*
X0111101Y0094362D02*
X0111399Y0094362D01*
X0111282Y0098356D02*
X0111218Y0098356D01*
X0110804Y0099354D02*
X0111696Y0099354D01*
X0112607Y0100353D02*
X0109893Y0100353D01*
X0108388Y0101351D02*
X0114112Y0101351D01*
X0104112Y0101351D02*
X0098388Y0101351D01*
X0099893Y0100353D02*
X0102607Y0100353D01*
X0101696Y0099354D02*
X0100804Y0099354D01*
X0101218Y0098356D02*
X0101282Y0098356D01*
X0101399Y0094362D02*
X0101101Y0094362D01*
X0100608Y0093363D02*
X0101892Y0093363D01*
X0102890Y0092365D02*
X0099610Y0092365D01*
X0097705Y0091366D02*
X0104795Y0091366D01*
X0094795Y0091366D02*
X0087705Y0091366D01*
X0089610Y0092365D02*
X0092890Y0092365D01*
X0091892Y0093363D02*
X0090608Y0093363D01*
X0091101Y0094362D02*
X0091399Y0094362D01*
X0091282Y0098356D02*
X0091218Y0098356D01*
X0090804Y0099354D02*
X0091696Y0099354D01*
X0092607Y0100353D02*
X0089893Y0100353D01*
X0088388Y0101351D02*
X0094112Y0101351D01*
X0084112Y0101351D02*
X0078388Y0101351D01*
X0079893Y0100353D02*
X0082607Y0100353D01*
X0081696Y0099354D02*
X0080804Y0099354D01*
X0081218Y0098356D02*
X0081282Y0098356D01*
X0081399Y0094362D02*
X0081101Y0094362D01*
X0080608Y0093363D02*
X0081892Y0093363D01*
X0082890Y0092365D02*
X0079610Y0092365D01*
X0077705Y0091366D02*
X0084795Y0091366D01*
X0074795Y0091366D02*
X0067705Y0091366D01*
X0069610Y0092365D02*
X0072890Y0092365D01*
X0071892Y0093363D02*
X0070608Y0093363D01*
X0071101Y0094362D02*
X0071399Y0094362D01*
X0071282Y0098356D02*
X0071218Y0098356D01*
X0070804Y0099354D02*
X0071696Y0099354D01*
X0072607Y0100353D02*
X0069893Y0100353D01*
X0068388Y0101351D02*
X0074112Y0101351D01*
X0064112Y0101351D02*
X0058388Y0101351D01*
X0059893Y0100353D02*
X0062607Y0100353D01*
X0061696Y0099354D02*
X0060804Y0099354D01*
X0061218Y0098356D02*
X0061282Y0098356D01*
X0061399Y0094362D02*
X0061101Y0094362D01*
X0060608Y0093363D02*
X0061892Y0093363D01*
X0062890Y0092365D02*
X0059610Y0092365D01*
X0057705Y0091366D02*
X0064795Y0091366D01*
X0054795Y0091366D02*
X0047705Y0091366D01*
X0049610Y0092365D02*
X0052890Y0092365D01*
X0051892Y0093363D02*
X0050608Y0093363D01*
X0051101Y0094362D02*
X0051399Y0094362D01*
X0051282Y0098356D02*
X0051218Y0098356D01*
X0050804Y0099354D02*
X0051696Y0099354D01*
X0052607Y0100353D02*
X0049893Y0100353D01*
X0048388Y0101351D02*
X0054112Y0101351D01*
X0044795Y0091366D02*
X0037705Y0091366D01*
X0039610Y0092365D02*
X0042890Y0092365D01*
X0041892Y0093363D02*
X0040608Y0093363D01*
X0041101Y0094362D02*
X0041399Y0094362D01*
X0041282Y0098356D02*
X0041218Y0098356D01*
X0040804Y0099354D02*
X0041696Y0099354D01*
X0042607Y0100353D02*
X0039893Y0100353D01*
X0038388Y0101351D02*
X0044112Y0101351D01*
X0034112Y0101351D02*
X0028388Y0101351D01*
X0029893Y0100353D02*
X0032607Y0100353D01*
X0031696Y0099354D02*
X0030804Y0099354D01*
X0031218Y0098356D02*
X0031282Y0098356D01*
X0031399Y0094362D02*
X0031101Y0094362D01*
X0030608Y0093363D02*
X0031892Y0093363D01*
X0032890Y0092365D02*
X0029610Y0092365D01*
X0027705Y0091366D02*
X0034795Y0091366D01*
X0032205Y0086373D02*
X0053208Y0086373D01*
X0052640Y0085375D02*
X0032250Y0085375D01*
X0032250Y0084376D02*
X0052350Y0084376D01*
X0052350Y0083378D02*
X0032250Y0083378D01*
X0032250Y0082379D02*
X0052350Y0082379D01*
X0052350Y0081381D02*
X0032250Y0081381D01*
X0032250Y0080382D02*
X0052350Y0080382D01*
X0052350Y0079384D02*
X0032250Y0079384D01*
X0032250Y0078385D02*
X0052350Y0078385D01*
X0052738Y0077387D02*
X0032250Y0077387D01*
X0033190Y0076388D02*
X0037347Y0076388D01*
X0036717Y0075390D02*
X0034189Y0075390D01*
X0035187Y0074391D02*
X0036569Y0074391D01*
X0036807Y0073393D02*
X0036186Y0073393D01*
X0037184Y0072394D02*
X0037564Y0072394D01*
X0030250Y0076500D02*
X0030250Y0085500D01*
X0025250Y0090500D01*
X0022250Y0090500D01*
X0016250Y0096500D01*
X0014112Y0101351D02*
X0012250Y0101351D01*
X0012250Y0100353D02*
X0012607Y0100353D01*
X0018388Y0101351D02*
X0024112Y0101351D01*
X0022607Y0100353D02*
X0019893Y0100353D01*
X0020804Y0099354D02*
X0021696Y0099354D01*
X0021282Y0098356D02*
X0021218Y0098356D01*
X0018556Y0091366D02*
X0017705Y0091366D01*
X0019554Y0090368D02*
X0012250Y0090368D01*
X0012250Y0091366D02*
X0014795Y0091366D01*
X0012890Y0092365D02*
X0012250Y0092365D01*
X0012250Y0089369D02*
X0020553Y0089369D01*
X0013212Y0086373D02*
X0012250Y0086373D01*
X0012250Y0085375D02*
X0012640Y0085375D01*
X0012368Y0084376D02*
X0012250Y0084376D01*
X0012250Y0083378D02*
X0012350Y0083378D01*
X0012350Y0082379D02*
X0012250Y0082379D01*
X0027484Y0075390D02*
X0028532Y0075390D01*
X0030250Y0076500D02*
X0063250Y0043500D01*
X0064250Y0043500D01*
X0066250Y0041500D01*
X0072250Y0041440D02*
X0073481Y0041440D01*
X0074480Y0040442D02*
X0072250Y0040442D01*
X0072250Y0039443D02*
X0075478Y0039443D01*
X0076477Y0038445D02*
X0072023Y0038445D01*
X0071025Y0037446D02*
X0077475Y0037446D01*
X0078474Y0036448D02*
X0070026Y0036448D01*
X0069028Y0035449D02*
X0079472Y0035449D01*
X0080471Y0034451D02*
X0068029Y0034451D01*
X0067031Y0033452D02*
X0081469Y0033452D01*
X0082468Y0032454D02*
X0077861Y0032454D01*
X0078097Y0032356D02*
X0077388Y0032650D01*
X0076634Y0032800D01*
X0076550Y0032800D01*
X0076550Y0026800D01*
X0080150Y0026800D01*
X0080150Y0029284D01*
X0080000Y0030038D01*
X0079706Y0030747D01*
X0079279Y0031386D01*
X0078736Y0031929D01*
X0078097Y0032356D01*
X0079210Y0031455D02*
X0083290Y0031455D01*
X0082674Y0030457D02*
X0079826Y0030457D01*
X0080115Y0029458D02*
X0082350Y0029458D01*
X0082350Y0028460D02*
X0080150Y0028460D01*
X0080150Y0027461D02*
X0082350Y0027461D01*
X0082350Y0026463D02*
X0076550Y0026463D01*
X0076550Y0026200D02*
X0076550Y0026800D01*
X0075950Y0026800D01*
X0075950Y0032800D01*
X0075866Y0032800D01*
X0075112Y0032650D01*
X0074403Y0032356D01*
X0073764Y0031929D01*
X0073221Y0031386D01*
X0072794Y0030747D01*
X0072500Y0030038D01*
X0072350Y0029284D01*
X0072350Y0026800D01*
X0075950Y0026800D01*
X0075950Y0026200D01*
X0076550Y0026200D01*
X0080150Y0026200D01*
X0080150Y0023716D01*
X0080000Y0022962D01*
X0079706Y0022253D01*
X0079279Y0021614D01*
X0078736Y0021071D01*
X0078097Y0020644D01*
X0077388Y0020350D01*
X0076634Y0020200D01*
X0076550Y0020200D01*
X0076550Y0026200D01*
X0075950Y0026200D02*
X0075950Y0020200D01*
X0075866Y0020200D01*
X0075112Y0020350D01*
X0074403Y0020644D01*
X0073764Y0021071D01*
X0073221Y0021614D01*
X0072794Y0022253D01*
X0072500Y0022962D01*
X0072350Y0023716D01*
X0072350Y0026200D01*
X0075950Y0026200D01*
X0075950Y0026463D02*
X0008718Y0026463D01*
X0008718Y0027461D02*
X0072350Y0027461D01*
X0072350Y0028460D02*
X0008718Y0028460D01*
X0008718Y0029458D02*
X0072385Y0029458D01*
X0072674Y0030457D02*
X0064035Y0030457D01*
X0065034Y0031455D02*
X0073290Y0031455D01*
X0074639Y0032454D02*
X0066032Y0032454D01*
X0064635Y0025400D02*
X0062350Y0023115D01*
X0062350Y0019885D01*
X0064635Y0017600D01*
X0067865Y0017600D01*
X0070150Y0019885D01*
X0070150Y0023115D01*
X0067865Y0025400D01*
X0064635Y0025400D01*
X0063700Y0024466D02*
X0008718Y0024466D01*
X0008718Y0025464D02*
X0072350Y0025464D01*
X0072350Y0024466D02*
X0068800Y0024466D01*
X0069798Y0023467D02*
X0072399Y0023467D01*
X0072704Y0022469D02*
X0070150Y0022469D01*
X0070150Y0021470D02*
X0073364Y0021470D01*
X0074818Y0020472D02*
X0070150Y0020472D01*
X0069739Y0019473D02*
X0112448Y0019473D01*
X0114250Y0020500D02*
X0138250Y0020500D01*
X0162250Y0044500D01*
X0162250Y0046500D01*
X0186250Y0070500D01*
X0186250Y0100500D01*
X0136250Y0150500D01*
X0072250Y0150500D01*
X0066250Y0156500D01*
X0076250Y0156500D02*
X0082250Y0162500D01*
X0178250Y0162500D01*
X0188250Y0152500D01*
X0188250Y0068500D01*
X0176250Y0056500D01*
X0178704Y0055420D02*
X0188821Y0055420D01*
X0188821Y0056418D02*
X0178997Y0056418D01*
X0179995Y0057417D02*
X0188821Y0057417D01*
X0188821Y0058415D02*
X0180994Y0058415D01*
X0181992Y0059414D02*
X0188821Y0059414D01*
X0188821Y0060412D02*
X0182991Y0060412D01*
X0183989Y0061411D02*
X0188821Y0061411D01*
X0188821Y0062409D02*
X0184988Y0062409D01*
X0185986Y0063408D02*
X0188821Y0063408D01*
X0188821Y0064406D02*
X0186985Y0064406D01*
X0187983Y0065405D02*
X0188821Y0065405D01*
X0188821Y0054421D02*
X0177963Y0054421D01*
X0174537Y0054421D02*
X0173000Y0054421D01*
X0172001Y0053423D02*
X0188821Y0053423D01*
X0188821Y0052424D02*
X0171002Y0052424D01*
X0170004Y0051426D02*
X0188821Y0051426D01*
X0188821Y0050427D02*
X0169005Y0050427D01*
X0168211Y0049429D02*
X0188821Y0049429D01*
X0188821Y0048430D02*
X0170591Y0048430D01*
X0171508Y0047432D02*
X0188821Y0047432D01*
X0188821Y0046433D02*
X0172028Y0046433D01*
X0172276Y0045434D02*
X0188821Y0045434D01*
X0188821Y0044436D02*
X0172316Y0044436D01*
X0172111Y0043437D02*
X0188821Y0043437D01*
X0188821Y0042439D02*
X0171679Y0042439D01*
X0170876Y0041440D02*
X0188821Y0041440D01*
X0188821Y0040442D02*
X0170734Y0040442D01*
X0171660Y0039443D02*
X0188821Y0039443D01*
X0188821Y0038445D02*
X0172074Y0038445D01*
X0172317Y0037446D02*
X0188821Y0037446D01*
X0188821Y0036448D02*
X0172317Y0036448D01*
X0172085Y0035449D02*
X0188821Y0035449D01*
X0188821Y0034451D02*
X0171672Y0034451D01*
X0170762Y0033452D02*
X0188821Y0033452D01*
X0188821Y0032454D02*
X0169004Y0032454D01*
X0166331Y0032454D02*
X0153032Y0032454D01*
X0152034Y0031455D02*
X0188821Y0031455D01*
X0188821Y0030457D02*
X0151035Y0030457D01*
X0150037Y0029458D02*
X0188821Y0029458D01*
X0188821Y0028460D02*
X0149038Y0028460D01*
X0148040Y0027461D02*
X0188821Y0027461D01*
X0188821Y0026463D02*
X0147041Y0026463D01*
X0146043Y0025464D02*
X0188821Y0025464D01*
X0188821Y0024466D02*
X0145044Y0024466D01*
X0144046Y0023467D02*
X0188821Y0023467D01*
X0188821Y0022469D02*
X0143047Y0022469D01*
X0142049Y0021470D02*
X0176265Y0021470D01*
X0177734Y0022079D02*
X0174512Y0020744D01*
X0172045Y0018278D01*
X0170711Y0015055D01*
X0170711Y0011567D01*
X0172045Y0008345D01*
X0174512Y0005878D01*
X0177734Y0004543D01*
X0181222Y0004543D01*
X0184445Y0005878D01*
X0186911Y0008345D01*
X0188246Y0011567D01*
X0188246Y0015055D01*
X0186911Y0018278D01*
X0184445Y0020744D01*
X0181222Y0022079D01*
X0177734Y0022079D01*
X0174240Y0020472D02*
X0141050Y0020472D01*
X0140052Y0019473D02*
X0173241Y0019473D01*
X0172243Y0018475D02*
X0068740Y0018475D01*
X0063760Y0018475D02*
X0025297Y0018475D01*
X0025494Y0018278D02*
X0023028Y0020744D01*
X0019805Y0022079D01*
X0016317Y0022079D01*
X0013095Y0020744D01*
X0010628Y0018278D01*
X0009293Y0015055D01*
X0009293Y0011567D01*
X0010628Y0008345D01*
X0013095Y0005878D01*
X0016317Y0004543D01*
X0019805Y0004543D01*
X0023028Y0005878D01*
X0025494Y0008345D01*
X0026829Y0011567D01*
X0026829Y0015055D01*
X0025494Y0018278D01*
X0025826Y0017476D02*
X0171714Y0017476D01*
X0171300Y0016478D02*
X0026239Y0016478D01*
X0026653Y0015479D02*
X0170886Y0015479D01*
X0170711Y0014481D02*
X0026829Y0014481D01*
X0026829Y0013482D02*
X0170711Y0013482D01*
X0170711Y0012484D02*
X0026829Y0012484D01*
X0026795Y0011485D02*
X0170745Y0011485D01*
X0171158Y0010487D02*
X0026381Y0010487D01*
X0025968Y0009488D02*
X0171572Y0009488D01*
X0171985Y0008490D02*
X0025554Y0008490D01*
X0024640Y0007491D02*
X0172899Y0007491D01*
X0173897Y0006493D02*
X0023642Y0006493D01*
X0022100Y0005494D02*
X0175439Y0005494D01*
X0183518Y0005494D02*
X0188821Y0005494D01*
X0188821Y0004496D02*
X0008718Y0004496D01*
X0008718Y0005494D02*
X0014022Y0005494D01*
X0012480Y0006493D02*
X0008718Y0006493D01*
X0008718Y0007491D02*
X0011482Y0007491D01*
X0010568Y0008490D02*
X0008718Y0008490D01*
X0008718Y0009488D02*
X0010154Y0009488D01*
X0009741Y0010487D02*
X0008718Y0010487D01*
X0008718Y0011485D02*
X0009327Y0011485D01*
X0009293Y0012484D02*
X0008718Y0012484D01*
X0008718Y0013482D02*
X0009293Y0013482D01*
X0009293Y0014481D02*
X0008718Y0014481D01*
X0008718Y0015479D02*
X0009469Y0015479D01*
X0009883Y0016478D02*
X0008718Y0016478D01*
X0008718Y0017476D02*
X0010296Y0017476D01*
X0010825Y0018475D02*
X0008718Y0018475D01*
X0008718Y0019473D02*
X0011824Y0019473D01*
X0012822Y0020472D02*
X0008718Y0020472D01*
X0008718Y0021470D02*
X0014848Y0021470D01*
X0008718Y0022469D02*
X0062350Y0022469D01*
X0062350Y0021470D02*
X0021274Y0021470D01*
X0023300Y0020472D02*
X0062350Y0020472D01*
X0062761Y0019473D02*
X0024298Y0019473D01*
X0008718Y0023467D02*
X0062702Y0023467D01*
X0075950Y0023467D02*
X0076550Y0023467D01*
X0076550Y0022469D02*
X0075950Y0022469D01*
X0075950Y0021470D02*
X0076550Y0021470D01*
X0076550Y0020472D02*
X0075950Y0020472D01*
X0077682Y0020472D02*
X0084818Y0020472D01*
X0083364Y0021470D02*
X0079136Y0021470D01*
X0079796Y0022469D02*
X0082704Y0022469D01*
X0082350Y0023467D02*
X0080101Y0023467D01*
X0080150Y0024466D02*
X0082350Y0024466D01*
X0082350Y0025464D02*
X0080150Y0025464D01*
X0076550Y0025464D02*
X0075950Y0025464D01*
X0075950Y0024466D02*
X0076550Y0024466D01*
X0076550Y0027461D02*
X0075950Y0027461D01*
X0075950Y0028460D02*
X0076550Y0028460D01*
X0076550Y0029458D02*
X0075950Y0029458D01*
X0075950Y0030457D02*
X0076550Y0030457D01*
X0076550Y0031455D02*
X0075950Y0031455D01*
X0075950Y0032454D02*
X0076550Y0032454D01*
X0086250Y0031500D02*
X0086250Y0026500D01*
X0072483Y0042439D02*
X0072250Y0042439D01*
X0081088Y0053423D02*
X0101412Y0053423D01*
X0100490Y0054421D02*
X0082010Y0054421D01*
X0082424Y0055420D02*
X0100076Y0055420D01*
X0099950Y0056418D02*
X0082550Y0056418D01*
X0082492Y0057417D02*
X0100008Y0057417D01*
X0100422Y0058415D02*
X0082078Y0058415D01*
X0081252Y0059414D02*
X0101248Y0059414D01*
X0111058Y0073393D02*
X0116442Y0073393D01*
X0115502Y0074391D02*
X0111998Y0074391D01*
X0112411Y0075390D02*
X0115089Y0075390D01*
X0114950Y0076388D02*
X0112550Y0076388D01*
X0112504Y0077387D02*
X0114996Y0077387D01*
X0115410Y0078385D02*
X0112090Y0078385D01*
X0111282Y0079384D02*
X0116218Y0079384D01*
X0118032Y0080382D02*
X0109468Y0080382D01*
X0106250Y0076500D02*
X0094250Y0076500D01*
X0093307Y0078385D02*
X0082090Y0078385D01*
X0082504Y0077387D02*
X0092308Y0077387D01*
X0091310Y0076388D02*
X0082550Y0076388D01*
X0082411Y0075390D02*
X0090311Y0075390D01*
X0089313Y0074391D02*
X0081998Y0074391D01*
X0081282Y0079384D02*
X0101218Y0079384D01*
X0103032Y0080382D02*
X0079468Y0080382D01*
X0076550Y0070397D02*
X0075950Y0070397D01*
X0075950Y0069399D02*
X0076550Y0069399D01*
X0076550Y0068400D02*
X0075950Y0068400D01*
X0075950Y0067402D02*
X0076550Y0067402D01*
X0081267Y0069399D02*
X0084320Y0069399D01*
X0083322Y0068400D02*
X0082071Y0068400D01*
X0046604Y0048430D02*
X0032796Y0048430D01*
X0030061Y0048430D02*
X0029683Y0048430D01*
X0029683Y0047432D02*
X0030061Y0047432D01*
X0030061Y0046433D02*
X0029683Y0046433D01*
X0029683Y0045434D02*
X0030061Y0045434D01*
X0126267Y0069399D02*
X0126320Y0069399D01*
X0158025Y0037446D02*
X0163018Y0037446D01*
X0163018Y0036448D02*
X0157026Y0036448D01*
X0156028Y0035449D02*
X0163249Y0035449D01*
X0163663Y0034451D02*
X0155029Y0034451D01*
X0154031Y0033452D02*
X0164572Y0033452D01*
X0163261Y0038445D02*
X0159023Y0038445D01*
X0160022Y0039443D02*
X0163674Y0039443D01*
X0164601Y0040442D02*
X0161020Y0040442D01*
X0162019Y0041440D02*
X0164458Y0041440D01*
X0163656Y0042439D02*
X0163017Y0042439D01*
X0182691Y0021470D02*
X0188821Y0021470D01*
X0188821Y0020472D02*
X0184717Y0020472D01*
X0185716Y0019473D02*
X0188821Y0019473D01*
X0188821Y0018475D02*
X0186714Y0018475D01*
X0187243Y0017476D02*
X0188821Y0017476D01*
X0188821Y0016478D02*
X0187657Y0016478D01*
X0188070Y0015479D02*
X0188821Y0015479D01*
X0188821Y0014481D02*
X0188246Y0014481D01*
X0188246Y0013482D02*
X0188821Y0013482D01*
X0188821Y0012484D02*
X0188246Y0012484D01*
X0188212Y0011485D02*
X0188821Y0011485D01*
X0188821Y0010487D02*
X0187799Y0010487D01*
X0187385Y0009488D02*
X0188821Y0009488D01*
X0188821Y0008490D02*
X0186971Y0008490D01*
X0186058Y0007491D02*
X0188821Y0007491D01*
X0188821Y0006493D02*
X0185059Y0006493D01*
X0136250Y0026500D02*
X0176250Y0066500D01*
X0171282Y0098356D02*
X0171218Y0098356D01*
X0170804Y0099354D02*
X0171696Y0099354D01*
X0172607Y0100353D02*
X0169893Y0100353D01*
D18*
X0131250Y0064500D03*
X0176250Y0056500D03*
X0039250Y0074500D03*
D19*
X0116250Y0026500D02*
X0116650Y0027100D01*
M02*
