G75*
%MOIN*%
%OFA0B0*%
%FSLAX25Y25*%
%IPPOS*%
%LPD*%
%AMOC8*
5,1,8,0,0,1.08239X$1,22.5*
%
%ADD10C,0.13398*%
%ADD11C,0.08200*%
%ADD12C,0.05600*%
%ADD13OC8,0.05600*%
%ADD14C,0.08400*%
%ADD15C,0.05600*%
%ADD16OC8,0.07100*%
%ADD17C,0.07099*%
D10*
X0018061Y0013311D03*
X0179478Y0013311D03*
X0179478Y0174728D03*
X0018061Y0174728D03*
D11*
X0066250Y0081500D03*
X0066250Y0051500D03*
X0116250Y0026500D03*
X0126250Y0026500D03*
X0136250Y0026500D03*
D12*
X0123650Y0056500D02*
X0118850Y0056500D01*
X0118850Y0066500D02*
X0123650Y0066500D01*
X0123650Y0076500D02*
X0118850Y0076500D01*
X0108650Y0076500D02*
X0103850Y0076500D01*
X0103850Y0056500D02*
X0108650Y0056500D01*
X0096250Y0028900D02*
X0096250Y0024100D01*
X0086250Y0024100D02*
X0086250Y0028900D01*
X0076250Y0028900D02*
X0076250Y0024100D01*
X0078650Y0056500D02*
X0073850Y0056500D01*
X0073850Y0066500D02*
X0078650Y0066500D01*
X0078650Y0076500D02*
X0073850Y0076500D01*
X0056250Y0079100D02*
X0056250Y0083900D01*
X0056250Y0063900D02*
X0056250Y0059100D01*
X0026250Y0059100D02*
X0026250Y0063900D01*
X0016250Y0063900D02*
X0016250Y0059100D01*
X0016250Y0079100D02*
X0016250Y0083900D01*
X0026250Y0083900D02*
X0026250Y0079100D01*
X0148850Y0076500D02*
X0153650Y0076500D01*
X0153650Y0056500D02*
X0148850Y0056500D01*
D13*
X0161250Y0081500D03*
X0181250Y0081500D03*
X0066250Y0041500D03*
X0066250Y0021500D03*
D14*
X0066250Y0096500D03*
X0056250Y0096500D03*
X0046250Y0096500D03*
X0036250Y0096500D03*
X0026250Y0096500D03*
X0016250Y0096500D03*
X0076250Y0096500D03*
X0086250Y0096500D03*
X0096250Y0096500D03*
X0106250Y0096500D03*
X0116250Y0096500D03*
X0126250Y0096500D03*
X0136250Y0096500D03*
X0146250Y0096500D03*
X0156250Y0096500D03*
X0166250Y0096500D03*
X0176250Y0096500D03*
X0176250Y0156500D03*
X0166250Y0156500D03*
X0156250Y0156500D03*
X0146250Y0156500D03*
X0136250Y0156500D03*
X0126250Y0156500D03*
X0116250Y0156500D03*
X0106250Y0156500D03*
X0096250Y0156500D03*
X0086250Y0156500D03*
X0076250Y0156500D03*
X0066250Y0156500D03*
X0056250Y0156500D03*
X0046250Y0156500D03*
X0036250Y0156500D03*
X0026250Y0156500D03*
X0016250Y0156500D03*
D15*
X0166250Y0066500D03*
X0176250Y0066500D03*
D16*
X0051250Y0046500D03*
X0051250Y0036500D03*
D17*
X0029872Y0036933D03*
X0029872Y0044807D03*
X0167667Y0044807D03*
X0167667Y0036933D03*
M02*
