G75*
%MOIN*%
%OFA0B0*%
%FSLAX25Y25*%
%IPPOS*%
%LPD*%
%AMOC8*
5,1,8,0,0,1.08239X$1,22.5*
%
%ADD10C,0.07400*%
%ADD11C,0.05200*%
%ADD12OC8,0.05200*%
%ADD13C,0.07600*%
%ADD14C,0.05200*%
%ADD15OC8,0.06300*%
%ADD16C,0.06299*%
%ADD17C,0.00600*%
%ADD18C,0.02978*%
D10*
X0066250Y0051300D03*
X0066250Y0081300D03*
X0116250Y0026300D03*
X0126250Y0026300D03*
X0136250Y0026300D03*
D11*
X0123850Y0056300D02*
X0118650Y0056300D01*
X0108850Y0056300D02*
X0103650Y0056300D01*
X0118650Y0066300D02*
X0123850Y0066300D01*
X0123850Y0076300D02*
X0118650Y0076300D01*
X0108850Y0076300D02*
X0103650Y0076300D01*
X0078850Y0076300D02*
X0073650Y0076300D01*
X0073650Y0066300D02*
X0078850Y0066300D01*
X0078850Y0056300D02*
X0073650Y0056300D01*
X0056250Y0058700D02*
X0056250Y0063900D01*
X0056250Y0078700D02*
X0056250Y0083900D01*
X0026250Y0083900D02*
X0026250Y0078700D01*
X0016250Y0078700D02*
X0016250Y0083900D01*
X0016250Y0063900D02*
X0016250Y0058700D01*
X0026250Y0058700D02*
X0026250Y0063900D01*
X0076250Y0028900D02*
X0076250Y0023700D01*
X0086250Y0023700D02*
X0086250Y0028900D01*
X0096250Y0028900D02*
X0096250Y0023700D01*
X0148650Y0056300D02*
X0153850Y0056300D01*
X0153850Y0076300D02*
X0148650Y0076300D01*
D12*
X0161250Y0081300D03*
X0181250Y0081300D03*
X0066250Y0041300D03*
X0066250Y0021300D03*
D13*
X0066250Y0096300D03*
X0056250Y0096300D03*
X0046250Y0096300D03*
X0036250Y0096300D03*
X0026250Y0096300D03*
X0016250Y0096300D03*
X0076250Y0096300D03*
X0086250Y0096300D03*
X0096250Y0096300D03*
X0106250Y0096300D03*
X0116250Y0096300D03*
X0126250Y0096300D03*
X0136250Y0096300D03*
X0146250Y0096300D03*
X0156250Y0096300D03*
X0166250Y0096300D03*
X0176250Y0096300D03*
X0176250Y0156300D03*
X0166250Y0156300D03*
X0156250Y0156300D03*
X0146250Y0156300D03*
X0136250Y0156300D03*
X0126250Y0156300D03*
X0116250Y0156300D03*
X0106250Y0156300D03*
X0096250Y0156300D03*
X0086250Y0156300D03*
X0076250Y0156300D03*
X0066250Y0156300D03*
X0056250Y0156300D03*
X0046250Y0156300D03*
X0036250Y0156300D03*
X0026250Y0156300D03*
X0016250Y0156300D03*
D14*
X0166250Y0066300D03*
X0176250Y0066300D03*
D15*
X0051250Y0046300D03*
X0051250Y0036300D03*
D16*
X0029872Y0036733D03*
X0029872Y0044607D03*
X0167667Y0044607D03*
X0167667Y0036733D03*
D17*
X0010583Y0005600D02*
X0010550Y0005600D01*
X0010550Y0005633D01*
X0010583Y0005600D01*
X0025540Y0005600D02*
X0026542Y0006603D01*
X0027938Y0009020D01*
X0028660Y0011716D01*
X0028660Y0014506D01*
X0027938Y0017202D01*
X0026542Y0019619D01*
X0024569Y0021592D01*
X0022152Y0022988D01*
X0019456Y0023710D01*
X0016666Y0023710D01*
X0013970Y0022988D01*
X0011553Y0021592D01*
X0010550Y0020590D01*
X0010550Y0076337D01*
X0014387Y0072500D01*
X0021587Y0072500D01*
X0026287Y0067800D01*
X0025474Y0067800D01*
X0024041Y0067206D01*
X0022944Y0066109D01*
X0022350Y0064676D01*
X0022350Y0057924D01*
X0022944Y0056491D01*
X0024041Y0055394D01*
X0024650Y0055141D01*
X0024650Y0054237D01*
X0029831Y0049057D01*
X0028987Y0049057D01*
X0027352Y0048379D01*
X0026100Y0047128D01*
X0025422Y0045492D01*
X0025422Y0043722D01*
X0026100Y0042087D01*
X0027352Y0040835D01*
X0027749Y0040670D01*
X0027352Y0040505D01*
X0026100Y0039254D01*
X0025422Y0037618D01*
X0025422Y0035848D01*
X0026100Y0034213D01*
X0027352Y0032961D01*
X0028987Y0032283D01*
X0030757Y0032283D01*
X0032393Y0032961D01*
X0033644Y0034213D01*
X0034322Y0035848D01*
X0034322Y0037618D01*
X0033644Y0039254D01*
X0032393Y0040505D01*
X0031995Y0040670D01*
X0032393Y0040835D01*
X0033644Y0042087D01*
X0034322Y0043722D01*
X0034322Y0044566D01*
X0047850Y0031037D01*
X0048787Y0030100D01*
X0072526Y0030100D01*
X0072350Y0029676D01*
X0072350Y0022924D01*
X0072944Y0021491D01*
X0074041Y0020394D01*
X0075474Y0019800D01*
X0077026Y0019800D01*
X0078459Y0020394D01*
X0079276Y0021211D01*
X0082387Y0018100D01*
X0138113Y0018100D01*
X0139050Y0019037D01*
X0162913Y0042900D01*
X0163558Y0042900D01*
X0163895Y0042087D01*
X0165147Y0040835D01*
X0165545Y0040670D01*
X0165147Y0040505D01*
X0163895Y0039254D01*
X0163218Y0037618D01*
X0163218Y0035848D01*
X0163895Y0034213D01*
X0165147Y0032961D01*
X0166782Y0032283D01*
X0168552Y0032283D01*
X0170188Y0032961D01*
X0171440Y0034213D01*
X0172117Y0035848D01*
X0172117Y0037618D01*
X0171440Y0039254D01*
X0170188Y0040505D01*
X0169790Y0040670D01*
X0170188Y0040835D01*
X0171440Y0042087D01*
X0172117Y0043722D01*
X0172117Y0045492D01*
X0171440Y0047128D01*
X0170188Y0048379D01*
X0168552Y0049057D01*
X0166782Y0049057D01*
X0165147Y0048379D01*
X0163895Y0047128D01*
X0163469Y0046100D01*
X0161587Y0046100D01*
X0141250Y0025763D01*
X0141250Y0027295D01*
X0140489Y0029132D01*
X0139082Y0030539D01*
X0137245Y0031300D01*
X0135255Y0031300D01*
X0134165Y0030848D01*
X0130113Y0034900D01*
X0115850Y0034900D01*
X0115850Y0053585D01*
X0116441Y0052994D01*
X0117874Y0052400D01*
X0120653Y0052400D01*
X0120261Y0051455D01*
X0120261Y0050345D01*
X0120686Y0049320D01*
X0121470Y0048536D01*
X0122495Y0048111D01*
X0123605Y0048111D01*
X0124630Y0048536D01*
X0125394Y0049300D01*
X0157313Y0049300D01*
X0172513Y0064500D01*
X0172698Y0064685D01*
X0172944Y0064091D01*
X0174041Y0062994D01*
X0175474Y0062400D01*
X0177026Y0062400D01*
X0178459Y0062994D01*
X0179556Y0064091D01*
X0180150Y0065524D01*
X0180150Y0067076D01*
X0179556Y0068509D01*
X0178459Y0069606D01*
X0177026Y0070200D01*
X0176613Y0070200D01*
X0182113Y0075700D01*
X0183713Y0075700D01*
X0186913Y0078900D01*
X0186989Y0078977D01*
X0186989Y0020590D01*
X0185986Y0021592D01*
X0183569Y0022988D01*
X0180874Y0023710D01*
X0178083Y0023710D01*
X0175387Y0022988D01*
X0172970Y0021592D01*
X0170997Y0019619D01*
X0169601Y0017202D01*
X0168879Y0014506D01*
X0168879Y0011716D01*
X0169601Y0009020D01*
X0170997Y0006603D01*
X0172000Y0005600D01*
X0025540Y0005600D01*
X0026028Y0006088D02*
X0171512Y0006088D01*
X0170949Y0006687D02*
X0026591Y0006687D01*
X0026936Y0007285D02*
X0170603Y0007285D01*
X0170257Y0007884D02*
X0027282Y0007884D01*
X0027627Y0008482D02*
X0169912Y0008482D01*
X0169585Y0009081D02*
X0027954Y0009081D01*
X0028115Y0009679D02*
X0169425Y0009679D01*
X0169264Y0010278D02*
X0028275Y0010278D01*
X0028435Y0010876D02*
X0169104Y0010876D01*
X0168944Y0011475D02*
X0028596Y0011475D01*
X0028660Y0012073D02*
X0168879Y0012073D01*
X0168879Y0012672D02*
X0028660Y0012672D01*
X0028660Y0013270D02*
X0168879Y0013270D01*
X0168879Y0013869D02*
X0028660Y0013869D01*
X0028660Y0014467D02*
X0168879Y0014467D01*
X0169029Y0015066D02*
X0028510Y0015066D01*
X0028350Y0015664D02*
X0169189Y0015664D01*
X0169350Y0016263D02*
X0028190Y0016263D01*
X0028029Y0016861D02*
X0169510Y0016861D01*
X0169750Y0017460D02*
X0067925Y0017460D01*
X0067865Y0017400D02*
X0070150Y0019685D01*
X0070150Y0022915D01*
X0067865Y0025200D01*
X0064635Y0025200D01*
X0062350Y0022915D01*
X0062350Y0019685D01*
X0064635Y0017400D01*
X0067865Y0017400D01*
X0068524Y0018058D02*
X0170096Y0018058D01*
X0170441Y0018657D02*
X0138670Y0018657D01*
X0139268Y0019255D02*
X0170787Y0019255D01*
X0171232Y0019854D02*
X0139867Y0019854D01*
X0140465Y0020452D02*
X0171830Y0020452D01*
X0172429Y0021051D02*
X0141064Y0021051D01*
X0141662Y0021649D02*
X0173069Y0021649D01*
X0174105Y0022248D02*
X0142261Y0022248D01*
X0142859Y0022846D02*
X0175142Y0022846D01*
X0177093Y0023445D02*
X0143458Y0023445D01*
X0144056Y0024043D02*
X0186989Y0024043D01*
X0186989Y0023445D02*
X0181864Y0023445D01*
X0183815Y0022846D02*
X0186989Y0022846D01*
X0186989Y0022248D02*
X0184851Y0022248D01*
X0185888Y0021649D02*
X0186989Y0021649D01*
X0186989Y0021051D02*
X0186528Y0021051D01*
X0186989Y0024642D02*
X0144655Y0024642D01*
X0145253Y0025240D02*
X0186989Y0025240D01*
X0186989Y0025839D02*
X0145852Y0025839D01*
X0146450Y0026437D02*
X0186989Y0026437D01*
X0186989Y0027036D02*
X0147049Y0027036D01*
X0147647Y0027634D02*
X0186989Y0027634D01*
X0186989Y0028233D02*
X0148246Y0028233D01*
X0148844Y0028832D02*
X0186989Y0028832D01*
X0186989Y0029430D02*
X0149443Y0029430D01*
X0150041Y0030029D02*
X0186989Y0030029D01*
X0186989Y0030627D02*
X0150640Y0030627D01*
X0151238Y0031226D02*
X0186989Y0031226D01*
X0186989Y0031824D02*
X0151837Y0031824D01*
X0152435Y0032423D02*
X0166446Y0032423D01*
X0165087Y0033021D02*
X0153034Y0033021D01*
X0153632Y0033620D02*
X0164488Y0033620D01*
X0163893Y0034218D02*
X0154231Y0034218D01*
X0154829Y0034817D02*
X0163645Y0034817D01*
X0163397Y0035415D02*
X0155428Y0035415D01*
X0156026Y0036014D02*
X0163218Y0036014D01*
X0163218Y0036612D02*
X0156625Y0036612D01*
X0157223Y0037211D02*
X0163218Y0037211D01*
X0163297Y0037809D02*
X0157822Y0037809D01*
X0158420Y0038408D02*
X0163545Y0038408D01*
X0163793Y0039006D02*
X0159019Y0039006D01*
X0159617Y0039605D02*
X0164246Y0039605D01*
X0164845Y0040203D02*
X0160216Y0040203D01*
X0160814Y0040802D02*
X0165227Y0040802D01*
X0164581Y0041400D02*
X0161413Y0041400D01*
X0162012Y0041999D02*
X0163983Y0041999D01*
X0163684Y0042597D02*
X0162610Y0042597D01*
X0162250Y0044500D02*
X0137450Y0019700D01*
X0083050Y0019700D01*
X0076650Y0026100D01*
X0076250Y0026300D01*
X0080150Y0026437D02*
X0082350Y0026437D01*
X0082350Y0025839D02*
X0080150Y0025839D01*
X0080150Y0025240D02*
X0082350Y0025240D01*
X0082350Y0024642D02*
X0080371Y0024642D01*
X0080150Y0024863D02*
X0080150Y0029676D01*
X0079556Y0031109D01*
X0078965Y0031700D01*
X0083535Y0031700D01*
X0082944Y0031109D01*
X0082350Y0029676D01*
X0082350Y0022924D01*
X0082535Y0022478D01*
X0080150Y0024863D01*
X0080969Y0024043D02*
X0082350Y0024043D01*
X0082350Y0023445D02*
X0081568Y0023445D01*
X0082166Y0022846D02*
X0082382Y0022846D01*
X0079436Y0021051D02*
X0079116Y0021051D01*
X0078518Y0020452D02*
X0080035Y0020452D01*
X0080633Y0019854D02*
X0077156Y0019854D01*
X0075344Y0019854D02*
X0070150Y0019854D01*
X0070150Y0020452D02*
X0073982Y0020452D01*
X0073384Y0021051D02*
X0070150Y0021051D01*
X0070150Y0021649D02*
X0072878Y0021649D01*
X0072630Y0022248D02*
X0070150Y0022248D01*
X0070150Y0022846D02*
X0072382Y0022846D01*
X0072350Y0023445D02*
X0069620Y0023445D01*
X0069022Y0024043D02*
X0072350Y0024043D01*
X0072350Y0024642D02*
X0068423Y0024642D01*
X0072350Y0025240D02*
X0010550Y0025240D01*
X0010550Y0024642D02*
X0064077Y0024642D01*
X0063478Y0024043D02*
X0010550Y0024043D01*
X0010550Y0023445D02*
X0015675Y0023445D01*
X0013725Y0022846D02*
X0010550Y0022846D01*
X0010550Y0022248D02*
X0012688Y0022248D01*
X0011651Y0021649D02*
X0010550Y0021649D01*
X0010550Y0021051D02*
X0011011Y0021051D01*
X0010550Y0025839D02*
X0072350Y0025839D01*
X0072350Y0026437D02*
X0010550Y0026437D01*
X0010550Y0027036D02*
X0072350Y0027036D01*
X0072350Y0027634D02*
X0010550Y0027634D01*
X0010550Y0028233D02*
X0072350Y0028233D01*
X0072350Y0028832D02*
X0010550Y0028832D01*
X0010550Y0029430D02*
X0072350Y0029430D01*
X0072496Y0030029D02*
X0010550Y0030029D01*
X0010550Y0030627D02*
X0048260Y0030627D01*
X0047662Y0031226D02*
X0010550Y0031226D01*
X0010550Y0031824D02*
X0047063Y0031824D01*
X0046465Y0032423D02*
X0031093Y0032423D01*
X0032453Y0033021D02*
X0045866Y0033021D01*
X0045268Y0033620D02*
X0033051Y0033620D01*
X0033647Y0034218D02*
X0044669Y0034218D01*
X0044071Y0034817D02*
X0033894Y0034817D01*
X0034142Y0035415D02*
X0043472Y0035415D01*
X0042874Y0036014D02*
X0034322Y0036014D01*
X0034322Y0036612D02*
X0042275Y0036612D01*
X0041677Y0037211D02*
X0034322Y0037211D01*
X0034243Y0037809D02*
X0041078Y0037809D01*
X0040480Y0038408D02*
X0033995Y0038408D01*
X0033747Y0039006D02*
X0039881Y0039006D01*
X0039283Y0039605D02*
X0033293Y0039605D01*
X0032695Y0040203D02*
X0038684Y0040203D01*
X0038086Y0040802D02*
X0032313Y0040802D01*
X0032958Y0041400D02*
X0037487Y0041400D01*
X0036888Y0041999D02*
X0033556Y0041999D01*
X0033856Y0042597D02*
X0036290Y0042597D01*
X0035691Y0043196D02*
X0034104Y0043196D01*
X0034322Y0043794D02*
X0035093Y0043794D01*
X0034494Y0044393D02*
X0034322Y0044393D01*
X0036626Y0046787D02*
X0041700Y0046787D01*
X0041102Y0047385D02*
X0036027Y0047385D01*
X0035429Y0047984D02*
X0040503Y0047984D01*
X0039905Y0048582D02*
X0034830Y0048582D01*
X0034232Y0049181D02*
X0039306Y0049181D01*
X0038708Y0049779D02*
X0033633Y0049779D01*
X0033035Y0050378D02*
X0038109Y0050378D01*
X0037511Y0050976D02*
X0032436Y0050976D01*
X0031838Y0051575D02*
X0036912Y0051575D01*
X0036314Y0052173D02*
X0031239Y0052173D01*
X0030641Y0052772D02*
X0035715Y0052772D01*
X0035117Y0053370D02*
X0030042Y0053370D01*
X0029444Y0053969D02*
X0034518Y0053969D01*
X0033920Y0054568D02*
X0028845Y0054568D01*
X0028247Y0055166D02*
X0033321Y0055166D01*
X0032723Y0055765D02*
X0028830Y0055765D01*
X0028459Y0055394D02*
X0029556Y0056491D01*
X0030150Y0057924D01*
X0030150Y0058337D01*
X0048572Y0039915D01*
X0046800Y0038143D01*
X0046800Y0036613D01*
X0028148Y0055265D01*
X0028459Y0055394D01*
X0029428Y0056363D02*
X0032124Y0056363D01*
X0031526Y0056962D02*
X0029751Y0056962D01*
X0029999Y0057560D02*
X0030927Y0057560D01*
X0030329Y0058159D02*
X0030150Y0058159D01*
X0030250Y0060500D02*
X0030250Y0066100D01*
X0022250Y0074100D01*
X0015050Y0074100D01*
X0011050Y0078100D01*
X0011050Y0150900D01*
X0015850Y0155700D01*
X0016250Y0156300D01*
X0012643Y0159905D02*
X0010550Y0159905D01*
X0010550Y0159307D02*
X0012045Y0159307D01*
X0011926Y0159189D02*
X0011150Y0157314D01*
X0011150Y0155286D01*
X0011742Y0153855D01*
X0010550Y0152663D01*
X0010550Y0167050D01*
X0011553Y0166047D01*
X0013970Y0164651D01*
X0016666Y0163929D01*
X0019456Y0163929D01*
X0022152Y0164651D01*
X0024569Y0166047D01*
X0026542Y0168020D01*
X0027938Y0170437D01*
X0028660Y0173133D01*
X0028660Y0175924D01*
X0027938Y0178619D01*
X0026542Y0181036D01*
X0025540Y0182039D01*
X0172000Y0182039D01*
X0170997Y0181036D01*
X0169601Y0178619D01*
X0168879Y0175924D01*
X0168879Y0173133D01*
X0169601Y0170437D01*
X0170997Y0168020D01*
X0172970Y0166047D01*
X0174264Y0165300D01*
X0032787Y0165300D01*
X0028412Y0160925D01*
X0027264Y0161400D01*
X0025236Y0161400D01*
X0023361Y0160624D01*
X0021926Y0159189D01*
X0021250Y0157556D01*
X0020574Y0159189D01*
X0019139Y0160624D01*
X0017264Y0161400D01*
X0015236Y0161400D01*
X0013361Y0160624D01*
X0011926Y0159189D01*
X0011727Y0158708D02*
X0010550Y0158708D01*
X0010550Y0158110D02*
X0011480Y0158110D01*
X0011232Y0157511D02*
X0010550Y0157511D01*
X0010550Y0156913D02*
X0011150Y0156913D01*
X0011150Y0156314D02*
X0010550Y0156314D01*
X0010550Y0155716D02*
X0011150Y0155716D01*
X0011220Y0155117D02*
X0010550Y0155117D01*
X0010550Y0154519D02*
X0011468Y0154519D01*
X0011715Y0153920D02*
X0010550Y0153920D01*
X0010550Y0153322D02*
X0011209Y0153322D01*
X0010611Y0152723D02*
X0010550Y0152723D01*
X0012742Y0150329D02*
X0069358Y0150329D01*
X0069956Y0149731D02*
X0012650Y0149731D01*
X0012650Y0150237D02*
X0014088Y0151675D01*
X0015236Y0151200D01*
X0017264Y0151200D01*
X0019139Y0151976D01*
X0020574Y0153411D01*
X0021250Y0155044D01*
X0021926Y0153411D01*
X0023361Y0151976D01*
X0025236Y0151200D01*
X0027264Y0151200D01*
X0029139Y0151976D01*
X0030574Y0153411D01*
X0031250Y0155044D01*
X0031926Y0153411D01*
X0033361Y0151976D01*
X0035236Y0151200D01*
X0037264Y0151200D01*
X0039139Y0151976D01*
X0040574Y0153411D01*
X0041250Y0155044D01*
X0041926Y0153411D01*
X0043361Y0151976D01*
X0045236Y0151200D01*
X0047264Y0151200D01*
X0049139Y0151976D01*
X0050574Y0153411D01*
X0051250Y0155044D01*
X0051926Y0153411D01*
X0053361Y0151976D01*
X0055236Y0151200D01*
X0057264Y0151200D01*
X0059139Y0151976D01*
X0060574Y0153411D01*
X0061250Y0155044D01*
X0061926Y0153411D01*
X0063361Y0151976D01*
X0065236Y0151200D01*
X0067264Y0151200D01*
X0068129Y0151558D01*
X0070387Y0149300D01*
X0091906Y0149300D01*
X0091886Y0149280D01*
X0091461Y0148255D01*
X0091461Y0147145D01*
X0091886Y0146120D01*
X0092670Y0145336D01*
X0093695Y0144911D01*
X0094805Y0144911D01*
X0095830Y0145336D01*
X0096594Y0146100D01*
X0131987Y0146100D01*
X0176687Y0101400D01*
X0175236Y0101400D01*
X0173361Y0100624D01*
X0171926Y0099189D01*
X0171250Y0097556D01*
X0170574Y0099189D01*
X0169139Y0100624D01*
X0167264Y0101400D01*
X0165236Y0101400D01*
X0163361Y0100624D01*
X0161926Y0099189D01*
X0161250Y0097556D01*
X0160574Y0099189D01*
X0159139Y0100624D01*
X0157264Y0101400D01*
X0155236Y0101400D01*
X0153361Y0100624D01*
X0151926Y0099189D01*
X0151250Y0097556D01*
X0150574Y0099189D01*
X0149139Y0100624D01*
X0147264Y0101400D01*
X0145236Y0101400D01*
X0143361Y0100624D01*
X0141926Y0099189D01*
X0141250Y0097556D01*
X0140574Y0099189D01*
X0139139Y0100624D01*
X0137264Y0101400D01*
X0135236Y0101400D01*
X0133361Y0100624D01*
X0131926Y0099189D01*
X0131250Y0097556D01*
X0130574Y0099189D01*
X0129139Y0100624D01*
X0127264Y0101400D01*
X0125236Y0101400D01*
X0123361Y0100624D01*
X0121926Y0099189D01*
X0121250Y0097556D01*
X0120574Y0099189D01*
X0119139Y0100624D01*
X0117264Y0101400D01*
X0115236Y0101400D01*
X0113361Y0100624D01*
X0111926Y0099189D01*
X0111250Y0097556D01*
X0110574Y0099189D01*
X0109139Y0100624D01*
X0107264Y0101400D01*
X0105236Y0101400D01*
X0103361Y0100624D01*
X0101926Y0099189D01*
X0101250Y0097556D01*
X0100574Y0099189D01*
X0099139Y0100624D01*
X0097264Y0101400D01*
X0095236Y0101400D01*
X0093361Y0100624D01*
X0091926Y0099189D01*
X0091250Y0097556D01*
X0090574Y0099189D01*
X0089139Y0100624D01*
X0087264Y0101400D01*
X0085236Y0101400D01*
X0083361Y0100624D01*
X0081926Y0099189D01*
X0081250Y0097556D01*
X0080574Y0099189D01*
X0079139Y0100624D01*
X0077264Y0101400D01*
X0075236Y0101400D01*
X0073361Y0100624D01*
X0071926Y0099189D01*
X0071250Y0097556D01*
X0070574Y0099189D01*
X0069139Y0100624D01*
X0067264Y0101400D01*
X0065236Y0101400D01*
X0063361Y0100624D01*
X0061926Y0099189D01*
X0061250Y0097556D01*
X0060574Y0099189D01*
X0059139Y0100624D01*
X0057264Y0101400D01*
X0055236Y0101400D01*
X0053361Y0100624D01*
X0051926Y0099189D01*
X0051250Y0097556D01*
X0050574Y0099189D01*
X0049139Y0100624D01*
X0047264Y0101400D01*
X0045236Y0101400D01*
X0043361Y0100624D01*
X0041926Y0099189D01*
X0041250Y0097556D01*
X0040574Y0099189D01*
X0039139Y0100624D01*
X0037264Y0101400D01*
X0035236Y0101400D01*
X0033361Y0100624D01*
X0031926Y0099189D01*
X0031250Y0097556D01*
X0030574Y0099189D01*
X0029139Y0100624D01*
X0027264Y0101400D01*
X0025236Y0101400D01*
X0023361Y0100624D01*
X0021926Y0099189D01*
X0021250Y0097556D01*
X0020574Y0099189D01*
X0019139Y0100624D01*
X0017264Y0101400D01*
X0015236Y0101400D01*
X0013361Y0100624D01*
X0012650Y0099912D01*
X0012650Y0150237D01*
X0013341Y0150928D02*
X0068759Y0150928D01*
X0068161Y0151526D02*
X0068052Y0151526D01*
X0071050Y0150900D02*
X0066250Y0155700D01*
X0066250Y0156300D01*
X0062643Y0159905D02*
X0059857Y0159905D01*
X0059262Y0160500D02*
X0060574Y0159189D01*
X0061250Y0157556D01*
X0061926Y0159189D01*
X0063238Y0160500D01*
X0059262Y0160500D01*
X0060455Y0159307D02*
X0062045Y0159307D01*
X0061727Y0158708D02*
X0060773Y0158708D01*
X0061020Y0158110D02*
X0061480Y0158110D01*
X0061468Y0154519D02*
X0061032Y0154519D01*
X0060785Y0153920D02*
X0061715Y0153920D01*
X0062016Y0153322D02*
X0060484Y0153322D01*
X0059886Y0152723D02*
X0062614Y0152723D01*
X0063213Y0152125D02*
X0059287Y0152125D01*
X0058052Y0151526D02*
X0064448Y0151526D01*
X0070640Y0153572D02*
X0071250Y0155044D01*
X0071926Y0153411D01*
X0072838Y0152500D01*
X0071713Y0152500D01*
X0070640Y0153572D01*
X0070891Y0153322D02*
X0072016Y0153322D01*
X0071715Y0153920D02*
X0070785Y0153920D01*
X0071032Y0154519D02*
X0071468Y0154519D01*
X0071489Y0152723D02*
X0072614Y0152723D01*
X0071050Y0150900D02*
X0131850Y0150900D01*
X0183050Y0099700D01*
X0183050Y0093300D01*
X0161450Y0071700D01*
X0139850Y0071700D01*
X0124650Y0056500D01*
X0121450Y0056500D01*
X0121250Y0056300D01*
X0117874Y0060200D02*
X0116441Y0059606D01*
X0115850Y0059015D01*
X0115850Y0063585D01*
X0116441Y0062994D01*
X0117874Y0062400D01*
X0124626Y0062400D01*
X0126059Y0062994D01*
X0127156Y0064091D01*
X0127750Y0065524D01*
X0127750Y0067076D01*
X0127156Y0068509D01*
X0126059Y0069606D01*
X0124626Y0070200D01*
X0117874Y0070200D01*
X0116441Y0069606D01*
X0115850Y0069015D01*
X0115850Y0073585D01*
X0116441Y0072994D01*
X0117874Y0072400D01*
X0124626Y0072400D01*
X0126059Y0072994D01*
X0127156Y0074091D01*
X0127491Y0074900D01*
X0143713Y0074900D01*
X0144750Y0075937D01*
X0144750Y0075524D01*
X0145344Y0074091D01*
X0146135Y0073300D01*
X0139187Y0073300D01*
X0138250Y0072363D01*
X0125659Y0059772D01*
X0124626Y0060200D01*
X0117874Y0060200D01*
X0117281Y0059954D02*
X0115850Y0059954D01*
X0115850Y0059356D02*
X0116190Y0059356D01*
X0115850Y0060553D02*
X0126440Y0060553D01*
X0127038Y0061151D02*
X0115850Y0061151D01*
X0115850Y0061750D02*
X0127637Y0061750D01*
X0128235Y0062348D02*
X0115850Y0062348D01*
X0115850Y0062947D02*
X0116554Y0062947D01*
X0115889Y0063545D02*
X0115850Y0063545D01*
X0112650Y0063545D02*
X0105158Y0063545D01*
X0104559Y0062947D02*
X0112650Y0062947D01*
X0112650Y0062348D02*
X0103961Y0062348D01*
X0103362Y0061750D02*
X0112650Y0061750D01*
X0112650Y0061151D02*
X0102764Y0061151D01*
X0102165Y0060553D02*
X0112650Y0060553D01*
X0112650Y0059954D02*
X0110219Y0059954D01*
X0109626Y0060200D02*
X0111059Y0059606D01*
X0112156Y0058509D01*
X0112650Y0057317D01*
X0112650Y0075283D01*
X0112156Y0074091D01*
X0111059Y0072994D01*
X0109626Y0072400D01*
X0107850Y0072400D01*
X0107850Y0066237D01*
X0078250Y0036637D01*
X0078250Y0036637D01*
X0077313Y0035700D01*
X0055987Y0035700D01*
X0055700Y0035987D01*
X0055700Y0034457D01*
X0054543Y0033300D01*
X0072787Y0033300D01*
X0073450Y0033963D01*
X0074387Y0034900D01*
X0112650Y0034900D01*
X0112650Y0055283D01*
X0112156Y0054091D01*
X0111059Y0052994D01*
X0109626Y0052400D01*
X0102874Y0052400D01*
X0101441Y0052994D01*
X0100344Y0054091D01*
X0099750Y0055524D01*
X0099750Y0057076D01*
X0100344Y0058509D01*
X0101441Y0059606D01*
X0102874Y0060200D01*
X0109626Y0060200D01*
X0111310Y0059356D02*
X0112650Y0059356D01*
X0112650Y0058757D02*
X0111908Y0058757D01*
X0112301Y0058159D02*
X0112650Y0058159D01*
X0112650Y0057560D02*
X0112549Y0057560D01*
X0112602Y0055166D02*
X0112650Y0055166D01*
X0112650Y0054568D02*
X0112354Y0054568D01*
X0112650Y0053969D02*
X0112034Y0053969D01*
X0111436Y0053370D02*
X0112650Y0053370D01*
X0112650Y0052772D02*
X0110524Y0052772D01*
X0112650Y0052173D02*
X0093786Y0052173D01*
X0093188Y0051575D02*
X0112650Y0051575D01*
X0112650Y0050976D02*
X0092589Y0050976D01*
X0091991Y0050378D02*
X0112650Y0050378D01*
X0112650Y0049779D02*
X0091392Y0049779D01*
X0090794Y0049181D02*
X0112650Y0049181D01*
X0112650Y0048582D02*
X0090195Y0048582D01*
X0089597Y0047984D02*
X0112650Y0047984D01*
X0112650Y0047385D02*
X0088998Y0047385D01*
X0088400Y0046787D02*
X0112650Y0046787D01*
X0112650Y0046188D02*
X0087801Y0046188D01*
X0087203Y0045590D02*
X0112650Y0045590D01*
X0112650Y0044991D02*
X0086604Y0044991D01*
X0086006Y0044393D02*
X0112650Y0044393D01*
X0112650Y0043794D02*
X0085407Y0043794D01*
X0084809Y0043196D02*
X0112650Y0043196D01*
X0112650Y0042597D02*
X0084210Y0042597D01*
X0083611Y0041999D02*
X0112650Y0041999D01*
X0112650Y0041400D02*
X0083013Y0041400D01*
X0082414Y0040802D02*
X0112650Y0040802D01*
X0112650Y0040203D02*
X0081816Y0040203D01*
X0081217Y0039605D02*
X0112650Y0039605D01*
X0112650Y0039006D02*
X0080619Y0039006D01*
X0080020Y0038408D02*
X0112650Y0038408D01*
X0112650Y0037809D02*
X0079422Y0037809D01*
X0078823Y0037211D02*
X0112650Y0037211D01*
X0112650Y0036612D02*
X0078225Y0036612D01*
X0077626Y0036014D02*
X0112650Y0036014D01*
X0112650Y0035415D02*
X0055700Y0035415D01*
X0055700Y0034817D02*
X0074304Y0034817D01*
X0073705Y0034218D02*
X0055461Y0034218D01*
X0054863Y0033620D02*
X0073107Y0033620D01*
X0073450Y0031700D02*
X0075050Y0033300D01*
X0114250Y0033300D01*
X0114250Y0078100D01*
X0126250Y0090100D01*
X0126250Y0096300D01*
X0130959Y0098259D02*
X0131541Y0098259D01*
X0131789Y0098857D02*
X0130711Y0098857D01*
X0130307Y0099456D02*
X0132193Y0099456D01*
X0132792Y0100054D02*
X0129708Y0100054D01*
X0129068Y0100653D02*
X0133432Y0100653D01*
X0134877Y0101251D02*
X0127623Y0101251D01*
X0131207Y0097660D02*
X0131293Y0097660D01*
X0131250Y0095044D02*
X0131926Y0093411D01*
X0133361Y0091976D01*
X0135236Y0091200D01*
X0137264Y0091200D01*
X0139139Y0091976D01*
X0140574Y0093411D01*
X0141250Y0095044D01*
X0141926Y0093411D01*
X0143361Y0091976D01*
X0145236Y0091200D01*
X0147264Y0091200D01*
X0149139Y0091976D01*
X0150574Y0093411D01*
X0151250Y0095044D01*
X0151926Y0093411D01*
X0153361Y0091976D01*
X0155236Y0091200D01*
X0155487Y0091200D01*
X0142387Y0078100D01*
X0127326Y0078100D01*
X0127156Y0078509D01*
X0126059Y0079606D01*
X0124626Y0080200D01*
X0118613Y0080200D01*
X0127850Y0089437D01*
X0127850Y0091443D01*
X0129139Y0091976D01*
X0130574Y0093411D01*
X0131250Y0095044D01*
X0131094Y0094668D02*
X0131406Y0094668D01*
X0131654Y0094069D02*
X0130846Y0094069D01*
X0130598Y0093471D02*
X0131902Y0093471D01*
X0132465Y0092872D02*
X0130035Y0092872D01*
X0129436Y0092274D02*
X0133064Y0092274D01*
X0134088Y0091675D02*
X0128412Y0091675D01*
X0127850Y0091077D02*
X0155364Y0091077D01*
X0154765Y0090478D02*
X0127850Y0090478D01*
X0127850Y0089880D02*
X0154167Y0089880D01*
X0153568Y0089281D02*
X0127694Y0089281D01*
X0127095Y0088683D02*
X0152970Y0088683D01*
X0152371Y0088084D02*
X0126497Y0088084D01*
X0125898Y0087486D02*
X0151773Y0087486D01*
X0151174Y0086887D02*
X0125300Y0086887D01*
X0124701Y0086289D02*
X0150576Y0086289D01*
X0149977Y0085690D02*
X0124103Y0085690D01*
X0123504Y0085092D02*
X0149379Y0085092D01*
X0148780Y0084493D02*
X0122906Y0084493D01*
X0122307Y0083895D02*
X0148182Y0083895D01*
X0147583Y0083296D02*
X0121709Y0083296D01*
X0121110Y0082698D02*
X0146985Y0082698D01*
X0146386Y0082099D02*
X0120512Y0082099D01*
X0119913Y0081501D02*
X0145788Y0081501D01*
X0145189Y0080902D02*
X0119315Y0080902D01*
X0118716Y0080303D02*
X0144591Y0080303D01*
X0143992Y0079705D02*
X0125821Y0079705D01*
X0126559Y0079106D02*
X0143394Y0079106D01*
X0142795Y0078508D02*
X0127157Y0078508D01*
X0127251Y0074318D02*
X0145249Y0074318D01*
X0145002Y0074917D02*
X0143730Y0074917D01*
X0144328Y0075515D02*
X0144754Y0075515D01*
X0143050Y0076500D02*
X0157450Y0090900D01*
X0178250Y0090900D01*
X0181450Y0094100D01*
X0181450Y0098900D01*
X0132650Y0147700D01*
X0094250Y0147700D01*
X0091630Y0146738D02*
X0012650Y0146738D01*
X0012650Y0146140D02*
X0091877Y0146140D01*
X0092465Y0145541D02*
X0012650Y0145541D01*
X0012650Y0144943D02*
X0093619Y0144943D01*
X0094881Y0144943D02*
X0133145Y0144943D01*
X0133743Y0144344D02*
X0012650Y0144344D01*
X0012650Y0143746D02*
X0134342Y0143746D01*
X0134940Y0143147D02*
X0012650Y0143147D01*
X0012650Y0142549D02*
X0135539Y0142549D01*
X0136137Y0141950D02*
X0012650Y0141950D01*
X0012650Y0141352D02*
X0136736Y0141352D01*
X0137334Y0140753D02*
X0012650Y0140753D01*
X0012650Y0140155D02*
X0137933Y0140155D01*
X0138531Y0139556D02*
X0012650Y0139556D01*
X0012650Y0138958D02*
X0139130Y0138958D01*
X0139728Y0138359D02*
X0012650Y0138359D01*
X0012650Y0137761D02*
X0140327Y0137761D01*
X0140925Y0137162D02*
X0012650Y0137162D01*
X0012650Y0136564D02*
X0141524Y0136564D01*
X0142122Y0135965D02*
X0012650Y0135965D01*
X0012650Y0135367D02*
X0142721Y0135367D01*
X0143319Y0134768D02*
X0012650Y0134768D01*
X0012650Y0134170D02*
X0143918Y0134170D01*
X0144516Y0133571D02*
X0012650Y0133571D01*
X0012650Y0132972D02*
X0145115Y0132972D01*
X0145713Y0132374D02*
X0012650Y0132374D01*
X0012650Y0131775D02*
X0146312Y0131775D01*
X0146910Y0131177D02*
X0012650Y0131177D01*
X0012650Y0130578D02*
X0147509Y0130578D01*
X0148107Y0129980D02*
X0012650Y0129980D01*
X0012650Y0129381D02*
X0148706Y0129381D01*
X0149304Y0128783D02*
X0012650Y0128783D01*
X0012650Y0128184D02*
X0149903Y0128184D01*
X0150501Y0127586D02*
X0012650Y0127586D01*
X0012650Y0126987D02*
X0151100Y0126987D01*
X0151698Y0126389D02*
X0012650Y0126389D01*
X0012650Y0125790D02*
X0152297Y0125790D01*
X0152895Y0125192D02*
X0012650Y0125192D01*
X0012650Y0124593D02*
X0153494Y0124593D01*
X0154092Y0123995D02*
X0012650Y0123995D01*
X0012650Y0123396D02*
X0154691Y0123396D01*
X0155289Y0122798D02*
X0012650Y0122798D01*
X0012650Y0122199D02*
X0155888Y0122199D01*
X0156486Y0121601D02*
X0012650Y0121601D01*
X0012650Y0121002D02*
X0157085Y0121002D01*
X0157684Y0120404D02*
X0012650Y0120404D01*
X0012650Y0119805D02*
X0158282Y0119805D01*
X0158881Y0119207D02*
X0012650Y0119207D01*
X0012650Y0118608D02*
X0159479Y0118608D01*
X0160078Y0118010D02*
X0012650Y0118010D01*
X0012650Y0117411D02*
X0160676Y0117411D01*
X0161275Y0116813D02*
X0012650Y0116813D01*
X0012650Y0116214D02*
X0161873Y0116214D01*
X0162472Y0115616D02*
X0012650Y0115616D01*
X0012650Y0115017D02*
X0163070Y0115017D01*
X0163669Y0114419D02*
X0012650Y0114419D01*
X0012650Y0113820D02*
X0164267Y0113820D01*
X0164866Y0113222D02*
X0012650Y0113222D01*
X0012650Y0112623D02*
X0165464Y0112623D01*
X0166063Y0112025D02*
X0012650Y0112025D01*
X0012650Y0111426D02*
X0166661Y0111426D01*
X0167260Y0110828D02*
X0012650Y0110828D01*
X0012650Y0110229D02*
X0167858Y0110229D01*
X0168457Y0109631D02*
X0012650Y0109631D01*
X0012650Y0109032D02*
X0169055Y0109032D01*
X0169654Y0108434D02*
X0012650Y0108434D01*
X0012650Y0107835D02*
X0170252Y0107835D01*
X0170851Y0107237D02*
X0012650Y0107237D01*
X0012650Y0106638D02*
X0171449Y0106638D01*
X0172048Y0106039D02*
X0012650Y0106039D01*
X0012650Y0105441D02*
X0172646Y0105441D01*
X0173245Y0104842D02*
X0012650Y0104842D01*
X0012650Y0104244D02*
X0173843Y0104244D01*
X0174442Y0103645D02*
X0012650Y0103645D01*
X0012650Y0103047D02*
X0175040Y0103047D01*
X0175639Y0102448D02*
X0012650Y0102448D01*
X0012650Y0101850D02*
X0176237Y0101850D01*
X0174877Y0101251D02*
X0167623Y0101251D01*
X0169068Y0100653D02*
X0173432Y0100653D01*
X0172792Y0100054D02*
X0169708Y0100054D01*
X0170307Y0099456D02*
X0172193Y0099456D01*
X0171789Y0098857D02*
X0170711Y0098857D01*
X0170959Y0098259D02*
X0171541Y0098259D01*
X0171293Y0097660D02*
X0171207Y0097660D01*
X0171250Y0095044D02*
X0171926Y0093411D01*
X0172838Y0092500D01*
X0169662Y0092500D01*
X0170574Y0093411D01*
X0171250Y0095044D01*
X0171094Y0094668D02*
X0171406Y0094668D01*
X0171654Y0094069D02*
X0170846Y0094069D01*
X0170598Y0093471D02*
X0171902Y0093471D01*
X0172465Y0092872D02*
X0170035Y0092872D01*
X0174973Y0087486D02*
X0156298Y0087486D01*
X0156897Y0088084D02*
X0175571Y0088084D01*
X0176170Y0088683D02*
X0157495Y0088683D01*
X0158094Y0089281D02*
X0176768Y0089281D01*
X0176787Y0089300D02*
X0160787Y0073300D01*
X0156365Y0073300D01*
X0157156Y0074091D01*
X0157750Y0075524D01*
X0157750Y0077076D01*
X0157156Y0078509D01*
X0156059Y0079606D01*
X0154626Y0080200D01*
X0149013Y0080200D01*
X0158113Y0089300D01*
X0176787Y0089300D01*
X0174374Y0086887D02*
X0155700Y0086887D01*
X0155101Y0086289D02*
X0173776Y0086289D01*
X0173177Y0085690D02*
X0154503Y0085690D01*
X0153904Y0085092D02*
X0159526Y0085092D01*
X0159635Y0085200D02*
X0157350Y0082915D01*
X0157350Y0079685D01*
X0159635Y0077400D01*
X0162865Y0077400D01*
X0165150Y0079685D01*
X0165150Y0082915D01*
X0162865Y0085200D01*
X0159635Y0085200D01*
X0158928Y0084493D02*
X0153306Y0084493D01*
X0152707Y0083895D02*
X0158329Y0083895D01*
X0157731Y0083296D02*
X0152109Y0083296D01*
X0151510Y0082698D02*
X0157350Y0082698D01*
X0157350Y0082099D02*
X0150912Y0082099D01*
X0150313Y0081501D02*
X0157350Y0081501D01*
X0157350Y0080902D02*
X0149715Y0080902D01*
X0149116Y0080303D02*
X0157350Y0080303D01*
X0157350Y0079705D02*
X0155821Y0079705D01*
X0156559Y0079106D02*
X0157928Y0079106D01*
X0158527Y0078508D02*
X0157157Y0078508D01*
X0157405Y0077909D02*
X0159125Y0077909D01*
X0157653Y0077311D02*
X0164798Y0077311D01*
X0164200Y0076712D02*
X0157750Y0076712D01*
X0157750Y0076114D02*
X0163601Y0076114D01*
X0163003Y0075515D02*
X0157746Y0075515D01*
X0157498Y0074917D02*
X0162404Y0074917D01*
X0161806Y0074318D02*
X0157251Y0074318D01*
X0156785Y0073720D02*
X0161207Y0073720D01*
X0159987Y0070100D02*
X0153587Y0063700D01*
X0136594Y0063700D01*
X0135830Y0064464D01*
X0135156Y0064743D01*
X0140513Y0070100D01*
X0159987Y0070100D01*
X0159418Y0069530D02*
X0139943Y0069530D01*
X0139345Y0068932D02*
X0158819Y0068932D01*
X0158221Y0068333D02*
X0138746Y0068333D01*
X0138147Y0067735D02*
X0157622Y0067735D01*
X0157024Y0067136D02*
X0137549Y0067136D01*
X0136950Y0066538D02*
X0156425Y0066538D01*
X0155827Y0065939D02*
X0136352Y0065939D01*
X0135753Y0065341D02*
X0155228Y0065341D01*
X0154629Y0064742D02*
X0135159Y0064742D01*
X0136151Y0064144D02*
X0154031Y0064144D01*
X0154250Y0062100D02*
X0184650Y0092500D01*
X0184650Y0155700D01*
X0178250Y0162100D01*
X0051850Y0162100D01*
X0046250Y0156500D01*
X0046250Y0156300D01*
X0042643Y0159905D02*
X0039857Y0159905D01*
X0040455Y0159307D02*
X0042045Y0159307D01*
X0041926Y0159189D02*
X0041250Y0157556D01*
X0040574Y0159189D01*
X0039139Y0160624D01*
X0037264Y0161400D01*
X0035236Y0161400D01*
X0033361Y0160624D01*
X0031926Y0159189D01*
X0031250Y0157556D01*
X0030758Y0158745D01*
X0034113Y0162100D01*
X0049587Y0162100D01*
X0048412Y0160925D01*
X0047264Y0161400D01*
X0045236Y0161400D01*
X0043361Y0160624D01*
X0041926Y0159189D01*
X0041727Y0158708D02*
X0040773Y0158708D01*
X0041020Y0158110D02*
X0041480Y0158110D01*
X0043242Y0160504D02*
X0039258Y0160504D01*
X0037983Y0161103D02*
X0044517Y0161103D01*
X0047983Y0161103D02*
X0048590Y0161103D01*
X0049188Y0161701D02*
X0033714Y0161701D01*
X0033115Y0161103D02*
X0034517Y0161103D01*
X0033242Y0160504D02*
X0032517Y0160504D01*
X0032643Y0159905D02*
X0031918Y0159905D01*
X0032045Y0159307D02*
X0031320Y0159307D01*
X0031727Y0158708D02*
X0030773Y0158708D01*
X0031020Y0158110D02*
X0031480Y0158110D01*
X0031468Y0154519D02*
X0031032Y0154519D01*
X0030785Y0153920D02*
X0031715Y0153920D01*
X0032016Y0153322D02*
X0030484Y0153322D01*
X0029886Y0152723D02*
X0032614Y0152723D01*
X0033213Y0152125D02*
X0029287Y0152125D01*
X0028052Y0151526D02*
X0034448Y0151526D01*
X0038052Y0151526D02*
X0044448Y0151526D01*
X0043213Y0152125D02*
X0039287Y0152125D01*
X0039886Y0152723D02*
X0042614Y0152723D01*
X0042016Y0153322D02*
X0040484Y0153322D01*
X0040785Y0153920D02*
X0041715Y0153920D01*
X0041468Y0154519D02*
X0041032Y0154519D01*
X0048052Y0151526D02*
X0054448Y0151526D01*
X0053213Y0152125D02*
X0049287Y0152125D01*
X0049886Y0152723D02*
X0052614Y0152723D01*
X0052016Y0153322D02*
X0050484Y0153322D01*
X0050785Y0153920D02*
X0051715Y0153920D01*
X0051468Y0154519D02*
X0051032Y0154519D01*
X0051250Y0157556D02*
X0050758Y0158745D01*
X0052513Y0160500D01*
X0053238Y0160500D01*
X0051926Y0159189D01*
X0051250Y0157556D01*
X0051020Y0158110D02*
X0051480Y0158110D01*
X0051727Y0158708D02*
X0050773Y0158708D01*
X0051320Y0159307D02*
X0052045Y0159307D01*
X0051918Y0159905D02*
X0052643Y0159905D01*
X0069262Y0160500D02*
X0073238Y0160500D01*
X0071926Y0159189D01*
X0071250Y0157556D01*
X0070574Y0159189D01*
X0069262Y0160500D01*
X0069857Y0159905D02*
X0072643Y0159905D01*
X0072045Y0159307D02*
X0070455Y0159307D01*
X0070773Y0158708D02*
X0071727Y0158708D01*
X0071480Y0158110D02*
X0071020Y0158110D01*
X0079262Y0160500D02*
X0080574Y0159189D01*
X0081250Y0157556D01*
X0081926Y0159189D01*
X0083238Y0160500D01*
X0079262Y0160500D01*
X0079857Y0159905D02*
X0082643Y0159905D01*
X0082045Y0159307D02*
X0080455Y0159307D01*
X0080773Y0158708D02*
X0081727Y0158708D01*
X0081480Y0158110D02*
X0081020Y0158110D01*
X0081250Y0155044D02*
X0081926Y0153411D01*
X0082838Y0152500D01*
X0079662Y0152500D01*
X0080574Y0153411D01*
X0081250Y0155044D01*
X0081032Y0154519D02*
X0081468Y0154519D01*
X0081715Y0153920D02*
X0080785Y0153920D01*
X0080484Y0153322D02*
X0082016Y0153322D01*
X0082614Y0152723D02*
X0079886Y0152723D01*
X0089662Y0152500D02*
X0090574Y0153411D01*
X0091250Y0155044D01*
X0091926Y0153411D01*
X0092838Y0152500D01*
X0089662Y0152500D01*
X0089886Y0152723D02*
X0092614Y0152723D01*
X0092016Y0153322D02*
X0090484Y0153322D01*
X0090785Y0153920D02*
X0091715Y0153920D01*
X0091468Y0154519D02*
X0091032Y0154519D01*
X0091250Y0157556D02*
X0090574Y0159189D01*
X0089262Y0160500D01*
X0093238Y0160500D01*
X0091926Y0159189D01*
X0091250Y0157556D01*
X0091020Y0158110D02*
X0091480Y0158110D01*
X0091727Y0158708D02*
X0090773Y0158708D01*
X0090455Y0159307D02*
X0092045Y0159307D01*
X0092643Y0159905D02*
X0089857Y0159905D01*
X0099262Y0160500D02*
X0103238Y0160500D01*
X0101926Y0159189D01*
X0101250Y0157556D01*
X0100574Y0159189D01*
X0099262Y0160500D01*
X0099857Y0159905D02*
X0102643Y0159905D01*
X0102045Y0159307D02*
X0100455Y0159307D01*
X0100773Y0158708D02*
X0101727Y0158708D01*
X0101480Y0158110D02*
X0101020Y0158110D01*
X0101250Y0155044D02*
X0101926Y0153411D01*
X0102838Y0152500D01*
X0099662Y0152500D01*
X0100574Y0153411D01*
X0101250Y0155044D01*
X0101032Y0154519D02*
X0101468Y0154519D01*
X0101715Y0153920D02*
X0100785Y0153920D01*
X0100484Y0153322D02*
X0102016Y0153322D01*
X0102614Y0152723D02*
X0099886Y0152723D01*
X0096594Y0149300D02*
X0096594Y0149300D01*
X0131187Y0149300D01*
X0131187Y0149300D01*
X0096594Y0149300D01*
X0096035Y0145541D02*
X0132546Y0145541D01*
X0135880Y0149132D02*
X0183050Y0149132D01*
X0183050Y0148534D02*
X0136479Y0148534D01*
X0137077Y0147935D02*
X0183050Y0147935D01*
X0183050Y0147337D02*
X0137676Y0147337D01*
X0138274Y0146738D02*
X0183050Y0146738D01*
X0183050Y0146140D02*
X0138873Y0146140D01*
X0139471Y0145541D02*
X0183050Y0145541D01*
X0183050Y0144943D02*
X0140070Y0144943D01*
X0140669Y0144344D02*
X0183050Y0144344D01*
X0183050Y0143746D02*
X0141267Y0143746D01*
X0141866Y0143147D02*
X0183050Y0143147D01*
X0183050Y0142549D02*
X0142464Y0142549D01*
X0143063Y0141950D02*
X0183050Y0141950D01*
X0183050Y0141352D02*
X0143661Y0141352D01*
X0144260Y0140753D02*
X0183050Y0140753D01*
X0183050Y0140155D02*
X0144858Y0140155D01*
X0145457Y0139556D02*
X0183050Y0139556D01*
X0183050Y0138958D02*
X0146055Y0138958D01*
X0146654Y0138359D02*
X0183050Y0138359D01*
X0183050Y0137761D02*
X0147252Y0137761D01*
X0147851Y0137162D02*
X0183050Y0137162D01*
X0183050Y0136564D02*
X0148449Y0136564D01*
X0149048Y0135965D02*
X0183050Y0135965D01*
X0183050Y0135367D02*
X0149646Y0135367D01*
X0150245Y0134768D02*
X0183050Y0134768D01*
X0183050Y0134170D02*
X0150843Y0134170D01*
X0151442Y0133571D02*
X0183050Y0133571D01*
X0183050Y0132972D02*
X0152040Y0132972D01*
X0152639Y0132374D02*
X0183050Y0132374D01*
X0183050Y0131775D02*
X0153237Y0131775D01*
X0153836Y0131177D02*
X0183050Y0131177D01*
X0183050Y0130578D02*
X0154434Y0130578D01*
X0155033Y0129980D02*
X0183050Y0129980D01*
X0183050Y0129381D02*
X0155631Y0129381D01*
X0156230Y0128783D02*
X0183050Y0128783D01*
X0183050Y0128184D02*
X0156828Y0128184D01*
X0157427Y0127586D02*
X0183050Y0127586D01*
X0183050Y0126987D02*
X0158025Y0126987D01*
X0158624Y0126389D02*
X0183050Y0126389D01*
X0183050Y0125790D02*
X0159222Y0125790D01*
X0159821Y0125192D02*
X0183050Y0125192D01*
X0183050Y0124593D02*
X0160419Y0124593D01*
X0161018Y0123995D02*
X0183050Y0123995D01*
X0183050Y0123396D02*
X0161616Y0123396D01*
X0162215Y0122798D02*
X0183050Y0122798D01*
X0183050Y0122199D02*
X0162813Y0122199D01*
X0163412Y0121601D02*
X0183050Y0121601D01*
X0183050Y0121002D02*
X0164010Y0121002D01*
X0164609Y0120404D02*
X0183050Y0120404D01*
X0183050Y0119805D02*
X0165207Y0119805D01*
X0165806Y0119207D02*
X0183050Y0119207D01*
X0183050Y0118608D02*
X0166405Y0118608D01*
X0167003Y0118010D02*
X0183050Y0118010D01*
X0183050Y0117411D02*
X0167602Y0117411D01*
X0168200Y0116813D02*
X0183050Y0116813D01*
X0183050Y0116214D02*
X0168799Y0116214D01*
X0169397Y0115616D02*
X0183050Y0115616D01*
X0183050Y0115017D02*
X0169996Y0115017D01*
X0170594Y0114419D02*
X0183050Y0114419D01*
X0183050Y0113820D02*
X0171193Y0113820D01*
X0171791Y0113222D02*
X0183050Y0113222D01*
X0183050Y0112623D02*
X0172390Y0112623D01*
X0172988Y0112025D02*
X0183050Y0112025D01*
X0183050Y0111426D02*
X0173587Y0111426D01*
X0174185Y0110828D02*
X0183050Y0110828D01*
X0183050Y0110229D02*
X0174784Y0110229D01*
X0175382Y0109631D02*
X0183050Y0109631D01*
X0183050Y0109032D02*
X0175981Y0109032D01*
X0176579Y0108434D02*
X0183050Y0108434D01*
X0183050Y0107835D02*
X0177178Y0107835D01*
X0177776Y0107237D02*
X0183050Y0107237D01*
X0183050Y0106638D02*
X0178375Y0106638D01*
X0178973Y0106039D02*
X0183050Y0106039D01*
X0183050Y0105441D02*
X0179572Y0105441D01*
X0180170Y0104842D02*
X0183050Y0104842D01*
X0183050Y0104244D02*
X0180769Y0104244D01*
X0181367Y0103645D02*
X0183050Y0103645D01*
X0183050Y0103047D02*
X0181966Y0103047D01*
X0182564Y0102448D02*
X0183050Y0102448D01*
X0183050Y0101963D02*
X0133450Y0151563D01*
X0132513Y0152500D01*
X0129662Y0152500D01*
X0130574Y0153411D01*
X0131250Y0155044D01*
X0131926Y0153411D01*
X0133361Y0151976D01*
X0135236Y0151200D01*
X0137264Y0151200D01*
X0139139Y0151976D01*
X0140574Y0153411D01*
X0141250Y0155044D01*
X0141926Y0153411D01*
X0143361Y0151976D01*
X0145236Y0151200D01*
X0147264Y0151200D01*
X0149139Y0151976D01*
X0150574Y0153411D01*
X0151250Y0155044D01*
X0151926Y0153411D01*
X0153361Y0151976D01*
X0155236Y0151200D01*
X0157264Y0151200D01*
X0159139Y0151976D01*
X0160574Y0153411D01*
X0161250Y0155044D01*
X0161926Y0153411D01*
X0163361Y0151976D01*
X0165236Y0151200D01*
X0167264Y0151200D01*
X0169139Y0151976D01*
X0170574Y0153411D01*
X0171250Y0155044D01*
X0171926Y0153411D01*
X0173361Y0151976D01*
X0175236Y0151200D01*
X0177264Y0151200D01*
X0179139Y0151976D01*
X0180574Y0153411D01*
X0181350Y0155286D01*
X0181350Y0156737D01*
X0183050Y0155037D01*
X0183050Y0101963D01*
X0184650Y0090237D02*
X0184650Y0083415D01*
X0182865Y0085200D01*
X0179635Y0085200D01*
X0177350Y0082915D01*
X0177350Y0079685D01*
X0179461Y0077574D01*
X0170250Y0068363D01*
X0170250Y0066763D01*
X0170150Y0066663D01*
X0170150Y0067076D01*
X0169556Y0068509D01*
X0168459Y0069606D01*
X0167026Y0070200D01*
X0165474Y0070200D01*
X0164041Y0069606D01*
X0162944Y0068509D01*
X0162350Y0067076D01*
X0162350Y0065524D01*
X0162944Y0064091D01*
X0164041Y0062994D01*
X0165474Y0062400D01*
X0165887Y0062400D01*
X0155987Y0052500D01*
X0154867Y0052500D01*
X0156059Y0052994D01*
X0157156Y0054091D01*
X0157750Y0055524D01*
X0157750Y0057076D01*
X0157156Y0058509D01*
X0156059Y0059606D01*
X0154626Y0060200D01*
X0147874Y0060200D01*
X0146441Y0059606D01*
X0145344Y0058509D01*
X0144750Y0057076D01*
X0144750Y0055524D01*
X0145344Y0054091D01*
X0146441Y0052994D01*
X0147633Y0052500D01*
X0125394Y0052500D01*
X0125240Y0052654D01*
X0126059Y0052994D01*
X0127156Y0054091D01*
X0127750Y0055524D01*
X0127750Y0057076D01*
X0127673Y0057261D01*
X0131607Y0061194D01*
X0131886Y0060520D01*
X0132670Y0059736D01*
X0133695Y0059311D01*
X0134805Y0059311D01*
X0135830Y0059736D01*
X0136594Y0060500D01*
X0153587Y0060500D01*
X0154913Y0060500D01*
X0184650Y0090237D01*
X0184650Y0089880D02*
X0184292Y0089880D01*
X0184650Y0089281D02*
X0183694Y0089281D01*
X0183095Y0088683D02*
X0184650Y0088683D01*
X0184650Y0088084D02*
X0182497Y0088084D01*
X0181898Y0087486D02*
X0184650Y0087486D01*
X0184650Y0086887D02*
X0181300Y0086887D01*
X0180701Y0086289D02*
X0184650Y0086289D01*
X0184650Y0085690D02*
X0180103Y0085690D01*
X0179526Y0085092D02*
X0179504Y0085092D01*
X0178928Y0084493D02*
X0178906Y0084493D01*
X0178329Y0083895D02*
X0178307Y0083895D01*
X0177731Y0083296D02*
X0177709Y0083296D01*
X0177350Y0082698D02*
X0177110Y0082698D01*
X0177350Y0082099D02*
X0176512Y0082099D01*
X0175913Y0081501D02*
X0177350Y0081501D01*
X0177350Y0080902D02*
X0175315Y0080902D01*
X0174716Y0080303D02*
X0177350Y0080303D01*
X0177350Y0079705D02*
X0174118Y0079705D01*
X0173519Y0079106D02*
X0177928Y0079106D01*
X0178527Y0078508D02*
X0172921Y0078508D01*
X0172322Y0077909D02*
X0179125Y0077909D01*
X0179198Y0077311D02*
X0171724Y0077311D01*
X0171125Y0076712D02*
X0178600Y0076712D01*
X0178001Y0076114D02*
X0170527Y0076114D01*
X0169928Y0075515D02*
X0177403Y0075515D01*
X0176804Y0074917D02*
X0169330Y0074917D01*
X0168731Y0074318D02*
X0176206Y0074318D01*
X0175607Y0073720D02*
X0168133Y0073720D01*
X0167534Y0073121D02*
X0175009Y0073121D01*
X0174410Y0072523D02*
X0166936Y0072523D01*
X0166337Y0071924D02*
X0173812Y0071924D01*
X0173213Y0071326D02*
X0165739Y0071326D01*
X0165140Y0070727D02*
X0172615Y0070727D01*
X0172016Y0070129D02*
X0167198Y0070129D01*
X0168535Y0069530D02*
X0171418Y0069530D01*
X0170819Y0068932D02*
X0169134Y0068932D01*
X0169629Y0068333D02*
X0170250Y0068333D01*
X0170250Y0067735D02*
X0169877Y0067735D01*
X0170125Y0067136D02*
X0170250Y0067136D01*
X0171850Y0067700D02*
X0181450Y0077300D01*
X0183050Y0077300D01*
X0186250Y0080500D01*
X0186250Y0156500D01*
X0179050Y0163700D01*
X0033450Y0163700D01*
X0026250Y0156500D01*
X0026250Y0156300D01*
X0022643Y0159905D02*
X0019857Y0159905D01*
X0020455Y0159307D02*
X0022045Y0159307D01*
X0021727Y0158708D02*
X0020773Y0158708D01*
X0021020Y0158110D02*
X0021480Y0158110D01*
X0023242Y0160504D02*
X0019258Y0160504D01*
X0017983Y0161103D02*
X0024517Y0161103D01*
X0027983Y0161103D02*
X0028590Y0161103D01*
X0029188Y0161701D02*
X0010550Y0161701D01*
X0010550Y0161103D02*
X0014517Y0161103D01*
X0013242Y0160504D02*
X0010550Y0160504D01*
X0010550Y0162300D02*
X0029787Y0162300D01*
X0030385Y0162898D02*
X0010550Y0162898D01*
X0010550Y0163497D02*
X0030984Y0163497D01*
X0031582Y0164095D02*
X0020076Y0164095D01*
X0022225Y0164694D02*
X0032181Y0164694D01*
X0032779Y0165292D02*
X0023262Y0165292D01*
X0024298Y0165891D02*
X0173241Y0165891D01*
X0172528Y0166489D02*
X0025011Y0166489D01*
X0025610Y0167088D02*
X0171930Y0167088D01*
X0171331Y0167686D02*
X0026208Y0167686D01*
X0026695Y0168285D02*
X0170844Y0168285D01*
X0170499Y0168883D02*
X0027041Y0168883D01*
X0027386Y0169482D02*
X0170153Y0169482D01*
X0169808Y0170080D02*
X0027732Y0170080D01*
X0028003Y0170679D02*
X0169537Y0170679D01*
X0169376Y0171277D02*
X0028163Y0171277D01*
X0028323Y0171876D02*
X0169216Y0171876D01*
X0169056Y0172474D02*
X0028484Y0172474D01*
X0028644Y0173073D02*
X0168895Y0173073D01*
X0168879Y0173671D02*
X0028660Y0173671D01*
X0028660Y0174270D02*
X0168879Y0174270D01*
X0168879Y0174868D02*
X0028660Y0174868D01*
X0028660Y0175467D02*
X0168879Y0175467D01*
X0168917Y0176065D02*
X0028622Y0176065D01*
X0028462Y0176664D02*
X0169077Y0176664D01*
X0169238Y0177262D02*
X0028302Y0177262D01*
X0028141Y0177861D02*
X0169398Y0177861D01*
X0169559Y0178459D02*
X0027981Y0178459D01*
X0027685Y0179058D02*
X0169855Y0179058D01*
X0170200Y0179656D02*
X0027339Y0179656D01*
X0026994Y0180255D02*
X0170546Y0180255D01*
X0170891Y0180853D02*
X0026648Y0180853D01*
X0026127Y0181452D02*
X0171412Y0181452D01*
X0186957Y0182039D02*
X0186989Y0182039D01*
X0186989Y0182007D01*
X0186957Y0182039D01*
X0186989Y0167050D02*
X0186989Y0158023D01*
X0181039Y0163973D01*
X0183569Y0164651D01*
X0185986Y0166047D01*
X0186989Y0167050D01*
X0186989Y0166489D02*
X0186429Y0166489D01*
X0186989Y0165891D02*
X0185716Y0165891D01*
X0184679Y0165292D02*
X0186989Y0165292D01*
X0186989Y0164694D02*
X0183642Y0164694D01*
X0181493Y0164095D02*
X0186989Y0164095D01*
X0186989Y0163497D02*
X0181516Y0163497D01*
X0182115Y0162898D02*
X0186989Y0162898D01*
X0186989Y0162300D02*
X0182713Y0162300D01*
X0183312Y0161701D02*
X0186989Y0161701D01*
X0186989Y0161103D02*
X0183910Y0161103D01*
X0184509Y0160504D02*
X0186989Y0160504D01*
X0186989Y0159905D02*
X0185107Y0159905D01*
X0185706Y0159307D02*
X0186989Y0159307D01*
X0186989Y0158708D02*
X0186304Y0158708D01*
X0186903Y0158110D02*
X0186989Y0158110D01*
X0182970Y0155117D02*
X0181280Y0155117D01*
X0181350Y0155716D02*
X0182371Y0155716D01*
X0181773Y0156314D02*
X0181350Y0156314D01*
X0181032Y0154519D02*
X0183050Y0154519D01*
X0183050Y0153920D02*
X0180785Y0153920D01*
X0180484Y0153322D02*
X0183050Y0153322D01*
X0183050Y0152723D02*
X0179886Y0152723D01*
X0179287Y0152125D02*
X0183050Y0152125D01*
X0183050Y0151526D02*
X0178052Y0151526D01*
X0174448Y0151526D02*
X0168052Y0151526D01*
X0169287Y0152125D02*
X0173213Y0152125D01*
X0172614Y0152723D02*
X0169886Y0152723D01*
X0170484Y0153322D02*
X0172016Y0153322D01*
X0171715Y0153920D02*
X0170785Y0153920D01*
X0171032Y0154519D02*
X0171468Y0154519D01*
X0171250Y0157556D02*
X0170574Y0159189D01*
X0169262Y0160500D01*
X0173238Y0160500D01*
X0171926Y0159189D01*
X0171250Y0157556D01*
X0171020Y0158110D02*
X0171480Y0158110D01*
X0171727Y0158708D02*
X0170773Y0158708D01*
X0170455Y0159307D02*
X0172045Y0159307D01*
X0172643Y0159905D02*
X0169857Y0159905D01*
X0163238Y0160500D02*
X0161926Y0159189D01*
X0161250Y0157556D01*
X0160574Y0159189D01*
X0159262Y0160500D01*
X0163238Y0160500D01*
X0162643Y0159905D02*
X0159857Y0159905D01*
X0160455Y0159307D02*
X0162045Y0159307D01*
X0161727Y0158708D02*
X0160773Y0158708D01*
X0161020Y0158110D02*
X0161480Y0158110D01*
X0161468Y0154519D02*
X0161032Y0154519D01*
X0160785Y0153920D02*
X0161715Y0153920D01*
X0162016Y0153322D02*
X0160484Y0153322D01*
X0159886Y0152723D02*
X0162614Y0152723D01*
X0163213Y0152125D02*
X0159287Y0152125D01*
X0158052Y0151526D02*
X0164448Y0151526D01*
X0154448Y0151526D02*
X0148052Y0151526D01*
X0149287Y0152125D02*
X0153213Y0152125D01*
X0152614Y0152723D02*
X0149886Y0152723D01*
X0150484Y0153322D02*
X0152016Y0153322D01*
X0151715Y0153920D02*
X0150785Y0153920D01*
X0151032Y0154519D02*
X0151468Y0154519D01*
X0151250Y0157556D02*
X0150574Y0159189D01*
X0149262Y0160500D01*
X0153238Y0160500D01*
X0151926Y0159189D01*
X0151250Y0157556D01*
X0151020Y0158110D02*
X0151480Y0158110D01*
X0151727Y0158708D02*
X0150773Y0158708D01*
X0150455Y0159307D02*
X0152045Y0159307D01*
X0152643Y0159905D02*
X0149857Y0159905D01*
X0143238Y0160500D02*
X0141926Y0159189D01*
X0141250Y0157556D01*
X0140574Y0159189D01*
X0139262Y0160500D01*
X0143238Y0160500D01*
X0142643Y0159905D02*
X0139857Y0159905D01*
X0140455Y0159307D02*
X0142045Y0159307D01*
X0141727Y0158708D02*
X0140773Y0158708D01*
X0141020Y0158110D02*
X0141480Y0158110D01*
X0141468Y0154519D02*
X0141032Y0154519D01*
X0140785Y0153920D02*
X0141715Y0153920D01*
X0142016Y0153322D02*
X0140484Y0153322D01*
X0139886Y0152723D02*
X0142614Y0152723D01*
X0143213Y0152125D02*
X0139287Y0152125D01*
X0138052Y0151526D02*
X0144448Y0151526D01*
X0135282Y0149731D02*
X0183050Y0149731D01*
X0183050Y0150329D02*
X0134683Y0150329D01*
X0134085Y0150928D02*
X0183050Y0150928D01*
X0134448Y0151526D02*
X0133486Y0151526D01*
X0133213Y0152125D02*
X0132888Y0152125D01*
X0132614Y0152723D02*
X0129886Y0152723D01*
X0130484Y0153322D02*
X0132016Y0153322D01*
X0131715Y0153920D02*
X0130785Y0153920D01*
X0131032Y0154519D02*
X0131468Y0154519D01*
X0131250Y0157556D02*
X0130574Y0159189D01*
X0129262Y0160500D01*
X0133238Y0160500D01*
X0131926Y0159189D01*
X0131250Y0157556D01*
X0131020Y0158110D02*
X0131480Y0158110D01*
X0131727Y0158708D02*
X0130773Y0158708D01*
X0130455Y0159307D02*
X0132045Y0159307D01*
X0132643Y0159905D02*
X0129857Y0159905D01*
X0123238Y0160500D02*
X0121926Y0159189D01*
X0121250Y0157556D01*
X0120574Y0159189D01*
X0119262Y0160500D01*
X0123238Y0160500D01*
X0122643Y0159905D02*
X0119857Y0159905D01*
X0120455Y0159307D02*
X0122045Y0159307D01*
X0121727Y0158708D02*
X0120773Y0158708D01*
X0121020Y0158110D02*
X0121480Y0158110D01*
X0121250Y0155044D02*
X0121926Y0153411D01*
X0122838Y0152500D01*
X0119662Y0152500D01*
X0120574Y0153411D01*
X0121250Y0155044D01*
X0121032Y0154519D02*
X0121468Y0154519D01*
X0121715Y0153920D02*
X0120785Y0153920D01*
X0120484Y0153322D02*
X0122016Y0153322D01*
X0122614Y0152723D02*
X0119886Y0152723D01*
X0112838Y0152500D02*
X0109662Y0152500D01*
X0110574Y0153411D01*
X0111250Y0155044D01*
X0111926Y0153411D01*
X0112838Y0152500D01*
X0112614Y0152723D02*
X0109886Y0152723D01*
X0110484Y0153322D02*
X0112016Y0153322D01*
X0111715Y0153920D02*
X0110785Y0153920D01*
X0111032Y0154519D02*
X0111468Y0154519D01*
X0111250Y0157556D02*
X0110574Y0159189D01*
X0109262Y0160500D01*
X0113238Y0160500D01*
X0111926Y0159189D01*
X0111250Y0157556D01*
X0111020Y0158110D02*
X0111480Y0158110D01*
X0111727Y0158708D02*
X0110773Y0158708D01*
X0110455Y0159307D02*
X0112045Y0159307D01*
X0112643Y0159905D02*
X0109857Y0159905D01*
X0091825Y0149132D02*
X0012650Y0149132D01*
X0012650Y0148534D02*
X0091577Y0148534D01*
X0091461Y0147935D02*
X0012650Y0147935D01*
X0012650Y0147337D02*
X0091461Y0147337D01*
X0094877Y0101251D02*
X0087623Y0101251D01*
X0089068Y0100653D02*
X0093432Y0100653D01*
X0092792Y0100054D02*
X0089708Y0100054D01*
X0090307Y0099456D02*
X0092193Y0099456D01*
X0091789Y0098857D02*
X0090711Y0098857D01*
X0090959Y0098259D02*
X0091541Y0098259D01*
X0091293Y0097660D02*
X0091207Y0097660D01*
X0091250Y0095044D02*
X0091926Y0093411D01*
X0093361Y0091976D01*
X0095236Y0091200D01*
X0097264Y0091200D01*
X0099139Y0091976D01*
X0100574Y0093411D01*
X0101250Y0095044D01*
X0101926Y0093411D01*
X0103361Y0091976D01*
X0105236Y0091200D01*
X0107264Y0091200D01*
X0109139Y0091976D01*
X0110574Y0093411D01*
X0111250Y0095044D01*
X0111926Y0093411D01*
X0113361Y0091976D01*
X0115236Y0091200D01*
X0117264Y0091200D01*
X0119139Y0091976D01*
X0120574Y0093411D01*
X0121250Y0095044D01*
X0121926Y0093411D01*
X0123361Y0091976D01*
X0124650Y0091443D01*
X0124650Y0090763D01*
X0113587Y0079700D01*
X0112650Y0078763D01*
X0112650Y0077317D01*
X0112156Y0078509D01*
X0111059Y0079606D01*
X0109626Y0080200D01*
X0102874Y0080200D01*
X0101441Y0079606D01*
X0100344Y0078509D01*
X0099750Y0077076D01*
X0099750Y0075524D01*
X0100344Y0074091D01*
X0101441Y0072994D01*
X0102874Y0072400D01*
X0104650Y0072400D01*
X0104650Y0068394D01*
X0104614Y0068480D01*
X0103830Y0069264D01*
X0102805Y0069689D01*
X0101695Y0069689D01*
X0100670Y0069264D01*
X0099906Y0068500D01*
X0082160Y0068500D01*
X0082156Y0068509D01*
X0081059Y0069606D01*
X0079626Y0070200D01*
X0072874Y0070200D01*
X0071441Y0069606D01*
X0070344Y0068509D01*
X0069750Y0067076D01*
X0069750Y0065524D01*
X0070344Y0064091D01*
X0071441Y0062994D01*
X0072874Y0062400D01*
X0079626Y0062400D01*
X0081059Y0062994D01*
X0082156Y0064091D01*
X0082657Y0065300D01*
X0099906Y0065300D01*
X0100670Y0064536D01*
X0101344Y0064257D01*
X0075987Y0038900D01*
X0069365Y0038900D01*
X0070150Y0039685D01*
X0070150Y0042915D01*
X0067865Y0045200D01*
X0064635Y0045200D01*
X0063024Y0043589D01*
X0031850Y0074763D01*
X0030913Y0075700D01*
X0028765Y0075700D01*
X0029556Y0076491D01*
X0029802Y0077085D01*
X0055850Y0051037D01*
X0056787Y0050100D01*
X0061335Y0050100D01*
X0062011Y0048468D01*
X0063418Y0047061D01*
X0065255Y0046300D01*
X0067245Y0046300D01*
X0069082Y0047061D01*
X0070489Y0048468D01*
X0071250Y0050305D01*
X0071250Y0052295D01*
X0070621Y0053814D01*
X0071441Y0052994D01*
X0072874Y0052400D01*
X0079626Y0052400D01*
X0081059Y0052994D01*
X0082156Y0054091D01*
X0082750Y0055524D01*
X0082750Y0057076D01*
X0082156Y0058509D01*
X0081059Y0059606D01*
X0079626Y0060200D01*
X0072874Y0060200D01*
X0071441Y0059606D01*
X0070344Y0058509D01*
X0069750Y0057076D01*
X0069750Y0055524D01*
X0070212Y0054409D01*
X0069082Y0055539D01*
X0067245Y0056300D01*
X0065255Y0056300D01*
X0063418Y0055539D01*
X0062011Y0054132D01*
X0061666Y0053300D01*
X0058113Y0053300D01*
X0056613Y0054800D01*
X0057026Y0054800D01*
X0058459Y0055394D01*
X0059556Y0056491D01*
X0060150Y0057924D01*
X0060150Y0064676D01*
X0059556Y0066109D01*
X0058459Y0067206D01*
X0057026Y0067800D01*
X0055474Y0067800D01*
X0054041Y0067206D01*
X0052944Y0066109D01*
X0052350Y0064676D01*
X0052350Y0059063D01*
X0030150Y0081263D01*
X0030150Y0084676D01*
X0029556Y0086109D01*
X0028459Y0087206D01*
X0027026Y0087800D01*
X0025474Y0087800D01*
X0024041Y0087206D01*
X0022944Y0086109D01*
X0022350Y0084676D01*
X0022350Y0078663D01*
X0022250Y0078763D01*
X0022250Y0092363D01*
X0020758Y0093855D01*
X0021250Y0095044D01*
X0021926Y0093411D01*
X0023361Y0091976D01*
X0025236Y0091200D01*
X0027264Y0091200D01*
X0029139Y0091976D01*
X0030574Y0093411D01*
X0031250Y0095044D01*
X0031926Y0093411D01*
X0033361Y0091976D01*
X0035236Y0091200D01*
X0037264Y0091200D01*
X0039139Y0091976D01*
X0040574Y0093411D01*
X0041250Y0095044D01*
X0041926Y0093411D01*
X0043361Y0091976D01*
X0045236Y0091200D01*
X0047264Y0091200D01*
X0049139Y0091976D01*
X0050574Y0093411D01*
X0051250Y0095044D01*
X0051926Y0093411D01*
X0053361Y0091976D01*
X0055236Y0091200D01*
X0057264Y0091200D01*
X0059139Y0091976D01*
X0060574Y0093411D01*
X0061250Y0095044D01*
X0061926Y0093411D01*
X0063361Y0091976D01*
X0065236Y0091200D01*
X0067264Y0091200D01*
X0069139Y0091976D01*
X0070574Y0093411D01*
X0071250Y0095044D01*
X0071926Y0093411D01*
X0073361Y0091976D01*
X0075236Y0091200D01*
X0077264Y0091200D01*
X0079139Y0091976D01*
X0080574Y0093411D01*
X0081250Y0095044D01*
X0081926Y0093411D01*
X0083361Y0091976D01*
X0085236Y0091200D01*
X0087264Y0091200D01*
X0089139Y0091976D01*
X0090574Y0093411D01*
X0091250Y0095044D01*
X0091094Y0094668D02*
X0091406Y0094668D01*
X0091654Y0094069D02*
X0090846Y0094069D01*
X0090598Y0093471D02*
X0091902Y0093471D01*
X0092465Y0092872D02*
X0090035Y0092872D01*
X0089436Y0092274D02*
X0093064Y0092274D01*
X0094088Y0091675D02*
X0088412Y0091675D01*
X0084088Y0091675D02*
X0078412Y0091675D01*
X0079436Y0092274D02*
X0083064Y0092274D01*
X0082465Y0092872D02*
X0080035Y0092872D01*
X0080598Y0093471D02*
X0081902Y0093471D01*
X0081654Y0094069D02*
X0080846Y0094069D01*
X0081094Y0094668D02*
X0081406Y0094668D01*
X0081293Y0097660D02*
X0081207Y0097660D01*
X0080959Y0098259D02*
X0081541Y0098259D01*
X0081789Y0098857D02*
X0080711Y0098857D01*
X0080307Y0099456D02*
X0082193Y0099456D01*
X0082792Y0100054D02*
X0079708Y0100054D01*
X0079068Y0100653D02*
X0083432Y0100653D01*
X0084877Y0101251D02*
X0077623Y0101251D01*
X0074877Y0101251D02*
X0067623Y0101251D01*
X0069068Y0100653D02*
X0073432Y0100653D01*
X0072792Y0100054D02*
X0069708Y0100054D01*
X0070307Y0099456D02*
X0072193Y0099456D01*
X0071789Y0098857D02*
X0070711Y0098857D01*
X0070959Y0098259D02*
X0071541Y0098259D01*
X0071293Y0097660D02*
X0071207Y0097660D01*
X0071094Y0094668D02*
X0071406Y0094668D01*
X0071654Y0094069D02*
X0070846Y0094069D01*
X0070598Y0093471D02*
X0071902Y0093471D01*
X0072465Y0092872D02*
X0070035Y0092872D01*
X0069436Y0092274D02*
X0073064Y0092274D01*
X0074088Y0091675D02*
X0068412Y0091675D01*
X0064088Y0091675D02*
X0058412Y0091675D01*
X0059436Y0092274D02*
X0063064Y0092274D01*
X0062465Y0092872D02*
X0060035Y0092872D01*
X0060598Y0093471D02*
X0061902Y0093471D01*
X0061654Y0094069D02*
X0060846Y0094069D01*
X0061094Y0094668D02*
X0061406Y0094668D01*
X0061293Y0097660D02*
X0061207Y0097660D01*
X0060959Y0098259D02*
X0061541Y0098259D01*
X0061789Y0098857D02*
X0060711Y0098857D01*
X0060307Y0099456D02*
X0062193Y0099456D01*
X0062792Y0100054D02*
X0059708Y0100054D01*
X0059068Y0100653D02*
X0063432Y0100653D01*
X0064877Y0101251D02*
X0057623Y0101251D01*
X0054877Y0101251D02*
X0047623Y0101251D01*
X0049068Y0100653D02*
X0053432Y0100653D01*
X0052792Y0100054D02*
X0049708Y0100054D01*
X0050307Y0099456D02*
X0052193Y0099456D01*
X0051789Y0098857D02*
X0050711Y0098857D01*
X0050959Y0098259D02*
X0051541Y0098259D01*
X0051293Y0097660D02*
X0051207Y0097660D01*
X0051094Y0094668D02*
X0051406Y0094668D01*
X0051654Y0094069D02*
X0050846Y0094069D01*
X0050598Y0093471D02*
X0051902Y0093471D01*
X0052465Y0092872D02*
X0050035Y0092872D01*
X0049436Y0092274D02*
X0053064Y0092274D01*
X0054088Y0091675D02*
X0048412Y0091675D01*
X0053722Y0086887D02*
X0028778Y0086887D01*
X0029377Y0086289D02*
X0053123Y0086289D01*
X0052944Y0086109D02*
X0052350Y0084676D01*
X0052350Y0077924D01*
X0052944Y0076491D01*
X0054041Y0075394D01*
X0055474Y0074800D01*
X0057026Y0074800D01*
X0058459Y0075394D01*
X0059556Y0076491D01*
X0060150Y0077924D01*
X0060150Y0084676D01*
X0059556Y0086109D01*
X0058459Y0087206D01*
X0057026Y0087800D01*
X0055474Y0087800D01*
X0054041Y0087206D01*
X0052944Y0086109D01*
X0052770Y0085690D02*
X0029730Y0085690D01*
X0029978Y0085092D02*
X0052522Y0085092D01*
X0052350Y0084493D02*
X0030150Y0084493D01*
X0030150Y0083895D02*
X0052350Y0083895D01*
X0052350Y0083296D02*
X0030150Y0083296D01*
X0030150Y0082698D02*
X0052350Y0082698D01*
X0052350Y0082099D02*
X0030150Y0082099D01*
X0030150Y0081501D02*
X0052350Y0081501D01*
X0052350Y0080902D02*
X0030511Y0080902D01*
X0031109Y0080303D02*
X0052350Y0080303D01*
X0052350Y0079705D02*
X0031708Y0079705D01*
X0032306Y0079106D02*
X0052350Y0079106D01*
X0052350Y0078508D02*
X0032905Y0078508D01*
X0033503Y0077909D02*
X0052356Y0077909D01*
X0052604Y0077311D02*
X0034102Y0077311D01*
X0034700Y0076712D02*
X0052852Y0076712D01*
X0053321Y0076114D02*
X0035299Y0076114D01*
X0035897Y0075515D02*
X0053919Y0075515D01*
X0055192Y0074917D02*
X0036496Y0074917D01*
X0037094Y0074318D02*
X0070249Y0074318D01*
X0070344Y0074091D02*
X0071441Y0072994D01*
X0072874Y0072400D01*
X0079626Y0072400D01*
X0081059Y0072994D01*
X0082156Y0074091D01*
X0082750Y0075524D01*
X0082750Y0077076D01*
X0082156Y0078509D01*
X0081059Y0079606D01*
X0079626Y0080200D01*
X0072874Y0080200D01*
X0071441Y0079606D01*
X0070621Y0078786D01*
X0071250Y0080305D01*
X0071250Y0082295D01*
X0070489Y0084132D01*
X0069082Y0085539D01*
X0067245Y0086300D01*
X0065255Y0086300D01*
X0063418Y0085539D01*
X0062011Y0084132D01*
X0061250Y0082295D01*
X0061250Y0080305D01*
X0062011Y0078468D01*
X0063418Y0077061D01*
X0065255Y0076300D01*
X0067245Y0076300D01*
X0069082Y0077061D01*
X0070212Y0078191D01*
X0069750Y0077076D01*
X0069750Y0075524D01*
X0070344Y0074091D01*
X0070715Y0073720D02*
X0037693Y0073720D01*
X0038291Y0073121D02*
X0071313Y0073121D01*
X0072578Y0072523D02*
X0038890Y0072523D01*
X0039488Y0071924D02*
X0104650Y0071924D01*
X0104650Y0071326D02*
X0040087Y0071326D01*
X0040685Y0070727D02*
X0104650Y0070727D01*
X0104650Y0070129D02*
X0079798Y0070129D01*
X0081135Y0069530D02*
X0101312Y0069530D01*
X0100338Y0068932D02*
X0081734Y0068932D01*
X0079922Y0072523D02*
X0102578Y0072523D01*
X0101313Y0073121D02*
X0081187Y0073121D01*
X0081785Y0073720D02*
X0100715Y0073720D01*
X0100249Y0074318D02*
X0082251Y0074318D01*
X0082498Y0074917D02*
X0100002Y0074917D01*
X0099754Y0075515D02*
X0082746Y0075515D01*
X0082750Y0076114D02*
X0099750Y0076114D01*
X0099750Y0076712D02*
X0082750Y0076712D01*
X0082653Y0077311D02*
X0099847Y0077311D01*
X0100095Y0077909D02*
X0082405Y0077909D01*
X0082157Y0078508D02*
X0100343Y0078508D01*
X0100941Y0079106D02*
X0081559Y0079106D01*
X0080821Y0079705D02*
X0101679Y0079705D01*
X0106250Y0076300D02*
X0106250Y0066900D01*
X0076650Y0037300D01*
X0056650Y0037300D01*
X0052650Y0041300D01*
X0049450Y0041300D01*
X0030250Y0060500D01*
X0031850Y0061163D02*
X0031850Y0066763D01*
X0026113Y0072500D01*
X0029587Y0072500D01*
X0051337Y0050750D01*
X0049407Y0050750D01*
X0046800Y0048143D01*
X0046800Y0046213D01*
X0031850Y0061163D01*
X0031862Y0061151D02*
X0040936Y0061151D01*
X0041535Y0060553D02*
X0032460Y0060553D01*
X0033059Y0059954D02*
X0042133Y0059954D01*
X0042732Y0059356D02*
X0033657Y0059356D01*
X0034256Y0058757D02*
X0043330Y0058757D01*
X0043929Y0058159D02*
X0034854Y0058159D01*
X0035453Y0057560D02*
X0044527Y0057560D01*
X0045126Y0056962D02*
X0036051Y0056962D01*
X0036650Y0056363D02*
X0045724Y0056363D01*
X0046323Y0055765D02*
X0037248Y0055765D01*
X0037847Y0055166D02*
X0046921Y0055166D01*
X0047520Y0054568D02*
X0038445Y0054568D01*
X0039044Y0053969D02*
X0048118Y0053969D01*
X0048717Y0053370D02*
X0039642Y0053370D01*
X0040241Y0052772D02*
X0049315Y0052772D01*
X0049914Y0052173D02*
X0040839Y0052173D01*
X0041438Y0051575D02*
X0050512Y0051575D01*
X0051111Y0050976D02*
X0042036Y0050976D01*
X0042635Y0050378D02*
X0049035Y0050378D01*
X0048436Y0049779D02*
X0043233Y0049779D01*
X0043832Y0049181D02*
X0047838Y0049181D01*
X0047239Y0048582D02*
X0044430Y0048582D01*
X0045029Y0047984D02*
X0046800Y0047984D01*
X0046800Y0047385D02*
X0045627Y0047385D01*
X0046226Y0046787D02*
X0046800Y0046787D01*
X0044693Y0043794D02*
X0039618Y0043794D01*
X0039020Y0044393D02*
X0044094Y0044393D01*
X0043496Y0044991D02*
X0038421Y0044991D01*
X0037823Y0045590D02*
X0042897Y0045590D01*
X0042299Y0046188D02*
X0037224Y0046188D01*
X0040217Y0043196D02*
X0045291Y0043196D01*
X0045890Y0042597D02*
X0040815Y0042597D01*
X0041414Y0041999D02*
X0046488Y0041999D01*
X0047087Y0041400D02*
X0042012Y0041400D01*
X0042611Y0040802D02*
X0047686Y0040802D01*
X0048284Y0040203D02*
X0043209Y0040203D01*
X0043808Y0039605D02*
X0048262Y0039605D01*
X0047663Y0039006D02*
X0044406Y0039006D01*
X0045005Y0038408D02*
X0047064Y0038408D01*
X0046800Y0037809D02*
X0045604Y0037809D01*
X0046202Y0037211D02*
X0046800Y0037211D01*
X0049450Y0031700D02*
X0073450Y0031700D01*
X0079440Y0031226D02*
X0083060Y0031226D01*
X0082744Y0030627D02*
X0079756Y0030627D01*
X0080004Y0030029D02*
X0082496Y0030029D01*
X0082350Y0029430D02*
X0080150Y0029430D01*
X0080150Y0028832D02*
X0082350Y0028832D01*
X0082350Y0028233D02*
X0080150Y0028233D01*
X0080150Y0027634D02*
X0082350Y0027634D01*
X0082350Y0027036D02*
X0080150Y0027036D01*
X0081232Y0019255D02*
X0069721Y0019255D01*
X0069122Y0018657D02*
X0081830Y0018657D01*
X0089365Y0021300D02*
X0089556Y0021491D01*
X0090150Y0022924D01*
X0090150Y0029676D01*
X0089556Y0031109D01*
X0088965Y0031700D01*
X0093535Y0031700D01*
X0092944Y0031109D01*
X0092350Y0029676D01*
X0092350Y0022924D01*
X0092944Y0021491D01*
X0093135Y0021300D01*
X0089365Y0021300D01*
X0089622Y0021649D02*
X0092878Y0021649D01*
X0092630Y0022248D02*
X0089870Y0022248D01*
X0090118Y0022846D02*
X0092382Y0022846D01*
X0092350Y0023445D02*
X0090150Y0023445D01*
X0090150Y0024043D02*
X0092350Y0024043D01*
X0092350Y0024642D02*
X0090150Y0024642D01*
X0090150Y0025240D02*
X0092350Y0025240D01*
X0092350Y0025839D02*
X0090150Y0025839D01*
X0090150Y0026437D02*
X0092350Y0026437D01*
X0092350Y0027036D02*
X0090150Y0027036D01*
X0090150Y0027634D02*
X0092350Y0027634D01*
X0092350Y0028233D02*
X0090150Y0028233D01*
X0090150Y0028832D02*
X0092350Y0028832D01*
X0092350Y0029430D02*
X0090150Y0029430D01*
X0090004Y0030029D02*
X0092496Y0030029D01*
X0092744Y0030627D02*
X0089756Y0030627D01*
X0089440Y0031226D02*
X0093060Y0031226D01*
X0098965Y0031700D02*
X0128787Y0031700D01*
X0131819Y0028668D01*
X0131250Y0027295D01*
X0130489Y0029132D01*
X0129082Y0030539D01*
X0127245Y0031300D01*
X0125255Y0031300D01*
X0123418Y0030539D01*
X0122011Y0029132D01*
X0121250Y0027295D01*
X0121250Y0025305D01*
X0122011Y0023468D01*
X0123418Y0022061D01*
X0125255Y0021300D01*
X0127245Y0021300D01*
X0129082Y0022061D01*
X0130489Y0023468D01*
X0131250Y0025305D01*
X0131250Y0027295D01*
X0131250Y0025305D01*
X0132011Y0023468D01*
X0133418Y0022061D01*
X0135255Y0021300D01*
X0136787Y0021300D01*
X0099365Y0021300D01*
X0099556Y0021491D01*
X0100150Y0022924D01*
X0100150Y0029676D01*
X0099556Y0031109D01*
X0098965Y0031700D01*
X0099440Y0031226D02*
X0115076Y0031226D01*
X0115255Y0031300D02*
X0113418Y0030539D01*
X0112011Y0029132D01*
X0111250Y0027295D01*
X0111250Y0025305D01*
X0112011Y0023468D01*
X0113418Y0022061D01*
X0115255Y0021300D01*
X0117245Y0021300D01*
X0119082Y0022061D01*
X0120489Y0023468D01*
X0121250Y0025305D01*
X0121250Y0027295D01*
X0120489Y0029132D01*
X0119082Y0030539D01*
X0117245Y0031300D01*
X0115255Y0031300D01*
X0113631Y0030627D02*
X0099756Y0030627D01*
X0100004Y0030029D02*
X0112907Y0030029D01*
X0112309Y0029430D02*
X0100150Y0029430D01*
X0100150Y0028832D02*
X0111887Y0028832D01*
X0111639Y0028233D02*
X0100150Y0028233D01*
X0100150Y0027634D02*
X0111391Y0027634D01*
X0111250Y0027036D02*
X0100150Y0027036D01*
X0100150Y0026437D02*
X0111250Y0026437D01*
X0111250Y0025839D02*
X0100150Y0025839D01*
X0100150Y0025240D02*
X0111277Y0025240D01*
X0111525Y0024642D02*
X0100150Y0024642D01*
X0100150Y0024043D02*
X0111773Y0024043D01*
X0112034Y0023445D02*
X0100150Y0023445D01*
X0100118Y0022846D02*
X0112633Y0022846D01*
X0113231Y0022248D02*
X0099870Y0022248D01*
X0099622Y0021649D02*
X0114412Y0021649D01*
X0118088Y0021649D02*
X0124412Y0021649D01*
X0123231Y0022248D02*
X0119269Y0022248D01*
X0119867Y0022846D02*
X0122633Y0022846D01*
X0122034Y0023445D02*
X0120466Y0023445D01*
X0120727Y0024043D02*
X0121773Y0024043D01*
X0121525Y0024642D02*
X0120975Y0024642D01*
X0121223Y0025240D02*
X0121277Y0025240D01*
X0121250Y0025839D02*
X0121250Y0025839D01*
X0121250Y0026437D02*
X0121250Y0026437D01*
X0121250Y0027036D02*
X0121250Y0027036D01*
X0121109Y0027634D02*
X0121391Y0027634D01*
X0121639Y0028233D02*
X0120861Y0028233D01*
X0120613Y0028832D02*
X0121887Y0028832D01*
X0122309Y0029430D02*
X0120191Y0029430D01*
X0119593Y0030029D02*
X0122907Y0030029D01*
X0123631Y0030627D02*
X0118869Y0030627D01*
X0117424Y0031226D02*
X0125076Y0031226D01*
X0127424Y0031226D02*
X0129262Y0031226D01*
X0128869Y0030627D02*
X0129860Y0030627D01*
X0129593Y0030029D02*
X0130459Y0030029D01*
X0130191Y0029430D02*
X0131057Y0029430D01*
X0130613Y0028832D02*
X0131656Y0028832D01*
X0131639Y0028233D02*
X0130861Y0028233D01*
X0131109Y0027634D02*
X0131391Y0027634D01*
X0131250Y0027036D02*
X0131250Y0027036D01*
X0131250Y0026437D02*
X0131250Y0026437D01*
X0131250Y0025839D02*
X0131250Y0025839D01*
X0131223Y0025240D02*
X0131277Y0025240D01*
X0131525Y0024642D02*
X0130975Y0024642D01*
X0130727Y0024043D02*
X0131773Y0024043D01*
X0132034Y0023445D02*
X0130466Y0023445D01*
X0129867Y0022846D02*
X0132633Y0022846D01*
X0133231Y0022248D02*
X0129269Y0022248D01*
X0128088Y0021649D02*
X0134412Y0021649D01*
X0136787Y0021300D02*
X0136787Y0021300D01*
X0136250Y0026300D02*
X0135850Y0026900D01*
X0129450Y0033300D01*
X0114250Y0033300D01*
X0115850Y0035415D02*
X0150902Y0035415D01*
X0150304Y0034817D02*
X0130196Y0034817D01*
X0130795Y0034218D02*
X0149705Y0034218D01*
X0149107Y0033620D02*
X0131393Y0033620D01*
X0131992Y0033021D02*
X0148508Y0033021D01*
X0147910Y0032423D02*
X0132590Y0032423D01*
X0133189Y0031824D02*
X0147311Y0031824D01*
X0146713Y0031226D02*
X0137424Y0031226D01*
X0138869Y0030627D02*
X0146114Y0030627D01*
X0145516Y0030029D02*
X0139593Y0030029D01*
X0140191Y0029430D02*
X0144917Y0029430D01*
X0144319Y0028832D02*
X0140613Y0028832D01*
X0140861Y0028233D02*
X0143720Y0028233D01*
X0143122Y0027634D02*
X0141109Y0027634D01*
X0141250Y0027036D02*
X0142523Y0027036D01*
X0141925Y0026437D02*
X0141250Y0026437D01*
X0141250Y0025839D02*
X0141326Y0025839D01*
X0135076Y0031226D02*
X0133787Y0031226D01*
X0151501Y0036014D02*
X0115850Y0036014D01*
X0115850Y0036612D02*
X0152099Y0036612D01*
X0152698Y0037211D02*
X0115850Y0037211D01*
X0115850Y0037809D02*
X0153296Y0037809D01*
X0153895Y0038408D02*
X0115850Y0038408D01*
X0115850Y0039006D02*
X0154493Y0039006D01*
X0155092Y0039605D02*
X0115850Y0039605D01*
X0115850Y0040203D02*
X0155691Y0040203D01*
X0156289Y0040802D02*
X0115850Y0040802D01*
X0115850Y0041400D02*
X0156888Y0041400D01*
X0157486Y0041999D02*
X0115850Y0041999D01*
X0115850Y0042597D02*
X0158085Y0042597D01*
X0158683Y0043196D02*
X0115850Y0043196D01*
X0115850Y0043794D02*
X0159282Y0043794D01*
X0159880Y0044393D02*
X0115850Y0044393D01*
X0115850Y0044991D02*
X0160479Y0044991D01*
X0161077Y0045590D02*
X0115850Y0045590D01*
X0115850Y0046188D02*
X0163506Y0046188D01*
X0163754Y0046787D02*
X0115850Y0046787D01*
X0115850Y0047385D02*
X0164153Y0047385D01*
X0164751Y0047984D02*
X0115850Y0047984D01*
X0115850Y0048582D02*
X0121423Y0048582D01*
X0120825Y0049181D02*
X0115850Y0049181D01*
X0115850Y0049779D02*
X0120495Y0049779D01*
X0120261Y0050378D02*
X0115850Y0050378D01*
X0115850Y0050976D02*
X0120261Y0050976D01*
X0120311Y0051575D02*
X0115850Y0051575D01*
X0115850Y0052173D02*
X0120559Y0052173D01*
X0123050Y0050900D02*
X0156650Y0050900D01*
X0171850Y0066100D01*
X0171850Y0067700D01*
X0172156Y0064144D02*
X0172922Y0064144D01*
X0173489Y0063545D02*
X0171558Y0063545D01*
X0170959Y0062947D02*
X0174154Y0062947D01*
X0170361Y0062348D02*
X0186989Y0062348D01*
X0186989Y0061750D02*
X0169762Y0061750D01*
X0169164Y0061151D02*
X0186989Y0061151D01*
X0186989Y0060553D02*
X0168565Y0060553D01*
X0167967Y0059954D02*
X0186989Y0059954D01*
X0186989Y0059356D02*
X0167368Y0059356D01*
X0166770Y0058757D02*
X0186989Y0058757D01*
X0186989Y0058159D02*
X0166171Y0058159D01*
X0165573Y0057560D02*
X0186989Y0057560D01*
X0186989Y0056962D02*
X0164974Y0056962D01*
X0164376Y0056363D02*
X0186989Y0056363D01*
X0186989Y0055765D02*
X0163777Y0055765D01*
X0163179Y0055166D02*
X0186989Y0055166D01*
X0186989Y0054568D02*
X0162580Y0054568D01*
X0161982Y0053969D02*
X0186989Y0053969D01*
X0186989Y0053370D02*
X0161383Y0053370D01*
X0160785Y0052772D02*
X0186989Y0052772D01*
X0186989Y0052173D02*
X0160186Y0052173D01*
X0159588Y0051575D02*
X0186989Y0051575D01*
X0186989Y0050976D02*
X0158989Y0050976D01*
X0158391Y0050378D02*
X0186989Y0050378D01*
X0186989Y0049779D02*
X0157792Y0049779D01*
X0156259Y0052772D02*
X0155524Y0052772D01*
X0156436Y0053370D02*
X0156858Y0053370D01*
X0157034Y0053969D02*
X0157456Y0053969D01*
X0157354Y0054568D02*
X0158055Y0054568D01*
X0157602Y0055166D02*
X0158653Y0055166D01*
X0159252Y0055765D02*
X0157750Y0055765D01*
X0157750Y0056363D02*
X0159850Y0056363D01*
X0160449Y0056962D02*
X0157750Y0056962D01*
X0157549Y0057560D02*
X0161047Y0057560D01*
X0161646Y0058159D02*
X0157301Y0058159D01*
X0156908Y0058757D02*
X0162244Y0058757D01*
X0162843Y0059356D02*
X0156310Y0059356D01*
X0155219Y0059954D02*
X0163441Y0059954D01*
X0164040Y0060553D02*
X0154965Y0060553D01*
X0155564Y0061151D02*
X0164638Y0061151D01*
X0165237Y0061750D02*
X0156162Y0061750D01*
X0156761Y0062348D02*
X0165835Y0062348D01*
X0164154Y0062947D02*
X0157359Y0062947D01*
X0157958Y0063545D02*
X0163489Y0063545D01*
X0162922Y0064144D02*
X0158556Y0064144D01*
X0159155Y0064742D02*
X0162674Y0064742D01*
X0162426Y0065341D02*
X0159753Y0065341D01*
X0160352Y0065939D02*
X0162350Y0065939D01*
X0162350Y0066538D02*
X0160950Y0066538D01*
X0161549Y0067136D02*
X0162375Y0067136D01*
X0162147Y0067735D02*
X0162623Y0067735D01*
X0162746Y0068333D02*
X0162871Y0068333D01*
X0163345Y0068932D02*
X0163366Y0068932D01*
X0163943Y0069530D02*
X0163965Y0069530D01*
X0164542Y0070129D02*
X0165302Y0070129D01*
X0165397Y0077909D02*
X0163375Y0077909D01*
X0163973Y0078508D02*
X0165995Y0078508D01*
X0166594Y0079106D02*
X0164572Y0079106D01*
X0165150Y0079705D02*
X0167192Y0079705D01*
X0167791Y0080303D02*
X0165150Y0080303D01*
X0165150Y0080902D02*
X0168389Y0080902D01*
X0168988Y0081501D02*
X0165150Y0081501D01*
X0165150Y0082099D02*
X0169586Y0082099D01*
X0170185Y0082698D02*
X0165150Y0082698D01*
X0164769Y0083296D02*
X0170783Y0083296D01*
X0171382Y0083895D02*
X0164171Y0083895D01*
X0163572Y0084493D02*
X0171980Y0084493D01*
X0172579Y0085092D02*
X0162974Y0085092D01*
X0162838Y0092500D02*
X0159662Y0092500D01*
X0160574Y0093411D01*
X0161250Y0095044D01*
X0161926Y0093411D01*
X0162838Y0092500D01*
X0162465Y0092872D02*
X0160035Y0092872D01*
X0160598Y0093471D02*
X0161902Y0093471D01*
X0161654Y0094069D02*
X0160846Y0094069D01*
X0161094Y0094668D02*
X0161406Y0094668D01*
X0161293Y0097660D02*
X0161207Y0097660D01*
X0160959Y0098259D02*
X0161541Y0098259D01*
X0161789Y0098857D02*
X0160711Y0098857D01*
X0160307Y0099456D02*
X0162193Y0099456D01*
X0162792Y0100054D02*
X0159708Y0100054D01*
X0159068Y0100653D02*
X0163432Y0100653D01*
X0164877Y0101251D02*
X0157623Y0101251D01*
X0154877Y0101251D02*
X0147623Y0101251D01*
X0149068Y0100653D02*
X0153432Y0100653D01*
X0152792Y0100054D02*
X0149708Y0100054D01*
X0150307Y0099456D02*
X0152193Y0099456D01*
X0151789Y0098857D02*
X0150711Y0098857D01*
X0150959Y0098259D02*
X0151541Y0098259D01*
X0151293Y0097660D02*
X0151207Y0097660D01*
X0151094Y0094668D02*
X0151406Y0094668D01*
X0151654Y0094069D02*
X0150846Y0094069D01*
X0150598Y0093471D02*
X0151902Y0093471D01*
X0152465Y0092872D02*
X0150035Y0092872D01*
X0149436Y0092274D02*
X0153064Y0092274D01*
X0154088Y0091675D02*
X0148412Y0091675D01*
X0144088Y0091675D02*
X0138412Y0091675D01*
X0139436Y0092274D02*
X0143064Y0092274D01*
X0142465Y0092872D02*
X0140035Y0092872D01*
X0140598Y0093471D02*
X0141902Y0093471D01*
X0141654Y0094069D02*
X0140846Y0094069D01*
X0141094Y0094668D02*
X0141406Y0094668D01*
X0141293Y0097660D02*
X0141207Y0097660D01*
X0140959Y0098259D02*
X0141541Y0098259D01*
X0141789Y0098857D02*
X0140711Y0098857D01*
X0140307Y0099456D02*
X0142193Y0099456D01*
X0142792Y0100054D02*
X0139708Y0100054D01*
X0139068Y0100653D02*
X0143432Y0100653D01*
X0144877Y0101251D02*
X0137623Y0101251D01*
X0124877Y0101251D02*
X0117623Y0101251D01*
X0119068Y0100653D02*
X0123432Y0100653D01*
X0122792Y0100054D02*
X0119708Y0100054D01*
X0120307Y0099456D02*
X0122193Y0099456D01*
X0121789Y0098857D02*
X0120711Y0098857D01*
X0120959Y0098259D02*
X0121541Y0098259D01*
X0121293Y0097660D02*
X0121207Y0097660D01*
X0121094Y0094668D02*
X0121406Y0094668D01*
X0121654Y0094069D02*
X0120846Y0094069D01*
X0120598Y0093471D02*
X0121902Y0093471D01*
X0122465Y0092872D02*
X0120035Y0092872D01*
X0119436Y0092274D02*
X0123064Y0092274D01*
X0124088Y0091675D02*
X0118412Y0091675D01*
X0114088Y0091675D02*
X0108412Y0091675D01*
X0109436Y0092274D02*
X0113064Y0092274D01*
X0112465Y0092872D02*
X0110035Y0092872D01*
X0110598Y0093471D02*
X0111902Y0093471D01*
X0111654Y0094069D02*
X0110846Y0094069D01*
X0111094Y0094668D02*
X0111406Y0094668D01*
X0111293Y0097660D02*
X0111207Y0097660D01*
X0110959Y0098259D02*
X0111541Y0098259D01*
X0111789Y0098857D02*
X0110711Y0098857D01*
X0110307Y0099456D02*
X0112193Y0099456D01*
X0112792Y0100054D02*
X0109708Y0100054D01*
X0109068Y0100653D02*
X0113432Y0100653D01*
X0114877Y0101251D02*
X0107623Y0101251D01*
X0104877Y0101251D02*
X0097623Y0101251D01*
X0099068Y0100653D02*
X0103432Y0100653D01*
X0102792Y0100054D02*
X0099708Y0100054D01*
X0100307Y0099456D02*
X0102193Y0099456D01*
X0101789Y0098857D02*
X0100711Y0098857D01*
X0100959Y0098259D02*
X0101541Y0098259D01*
X0101293Y0097660D02*
X0101207Y0097660D01*
X0101094Y0094668D02*
X0101406Y0094668D01*
X0101654Y0094069D02*
X0100846Y0094069D01*
X0100598Y0093471D02*
X0101902Y0093471D01*
X0102465Y0092872D02*
X0100035Y0092872D01*
X0099436Y0092274D02*
X0103064Y0092274D01*
X0104088Y0091675D02*
X0098412Y0091675D01*
X0110821Y0079705D02*
X0113592Y0079705D01*
X0112994Y0079106D02*
X0111559Y0079106D01*
X0112157Y0078508D02*
X0112650Y0078508D01*
X0112650Y0077909D02*
X0112405Y0077909D01*
X0114191Y0080303D02*
X0071249Y0080303D01*
X0071250Y0080902D02*
X0114789Y0080902D01*
X0115388Y0081501D02*
X0071250Y0081501D01*
X0071250Y0082099D02*
X0115986Y0082099D01*
X0116585Y0082698D02*
X0071083Y0082698D01*
X0070835Y0083296D02*
X0117183Y0083296D01*
X0117782Y0083895D02*
X0070587Y0083895D01*
X0070128Y0084493D02*
X0118380Y0084493D01*
X0118979Y0085092D02*
X0069529Y0085092D01*
X0068717Y0085690D02*
X0119577Y0085690D01*
X0120176Y0086289D02*
X0067272Y0086289D01*
X0065228Y0086289D02*
X0059377Y0086289D01*
X0059730Y0085690D02*
X0063783Y0085690D01*
X0062971Y0085092D02*
X0059978Y0085092D01*
X0060150Y0084493D02*
X0062372Y0084493D01*
X0061913Y0083895D02*
X0060150Y0083895D01*
X0060150Y0083296D02*
X0061665Y0083296D01*
X0061417Y0082698D02*
X0060150Y0082698D01*
X0060150Y0082099D02*
X0061250Y0082099D01*
X0061250Y0081501D02*
X0060150Y0081501D01*
X0060150Y0080902D02*
X0061250Y0080902D01*
X0061251Y0080303D02*
X0060150Y0080303D01*
X0060150Y0079705D02*
X0061499Y0079705D01*
X0061747Y0079106D02*
X0060150Y0079106D01*
X0060150Y0078508D02*
X0061995Y0078508D01*
X0062569Y0077909D02*
X0060144Y0077909D01*
X0059896Y0077311D02*
X0063168Y0077311D01*
X0064260Y0076712D02*
X0059648Y0076712D01*
X0059179Y0076114D02*
X0069750Y0076114D01*
X0069750Y0076712D02*
X0068240Y0076712D01*
X0069332Y0077311D02*
X0069847Y0077311D01*
X0069930Y0077909D02*
X0070095Y0077909D01*
X0070753Y0079106D02*
X0070941Y0079106D01*
X0071001Y0079705D02*
X0071679Y0079705D01*
X0069754Y0075515D02*
X0058581Y0075515D01*
X0057308Y0074917D02*
X0070002Y0074917D01*
X0072702Y0070129D02*
X0041284Y0070129D01*
X0041882Y0069530D02*
X0071365Y0069530D01*
X0070766Y0068932D02*
X0042481Y0068932D01*
X0043079Y0068333D02*
X0070271Y0068333D01*
X0070023Y0067735D02*
X0057183Y0067735D01*
X0058529Y0067136D02*
X0069775Y0067136D01*
X0069750Y0066538D02*
X0059128Y0066538D01*
X0059627Y0065939D02*
X0069750Y0065939D01*
X0069826Y0065341D02*
X0059875Y0065341D01*
X0060122Y0064742D02*
X0070074Y0064742D01*
X0070322Y0064144D02*
X0060150Y0064144D01*
X0060150Y0063545D02*
X0070889Y0063545D01*
X0071554Y0062947D02*
X0060150Y0062947D01*
X0060150Y0062348D02*
X0099435Y0062348D01*
X0098837Y0061750D02*
X0060150Y0061750D01*
X0060150Y0061151D02*
X0098238Y0061151D01*
X0097640Y0060553D02*
X0060150Y0060553D01*
X0060150Y0059954D02*
X0072281Y0059954D01*
X0071190Y0059356D02*
X0060150Y0059356D01*
X0060150Y0058757D02*
X0070592Y0058757D01*
X0070199Y0058159D02*
X0060150Y0058159D01*
X0059999Y0057560D02*
X0069951Y0057560D01*
X0069750Y0056962D02*
X0059751Y0056962D01*
X0059428Y0056363D02*
X0069750Y0056363D01*
X0069750Y0055765D02*
X0068537Y0055765D01*
X0069455Y0055166D02*
X0069898Y0055166D01*
X0070054Y0054568D02*
X0070146Y0054568D01*
X0070804Y0053370D02*
X0071064Y0053370D01*
X0071052Y0052772D02*
X0071976Y0052772D01*
X0071250Y0052173D02*
X0089261Y0052173D01*
X0088662Y0051575D02*
X0071250Y0051575D01*
X0071250Y0050976D02*
X0088064Y0050976D01*
X0087465Y0050378D02*
X0071250Y0050378D01*
X0071032Y0049779D02*
X0086867Y0049779D01*
X0086268Y0049181D02*
X0070784Y0049181D01*
X0070536Y0048582D02*
X0085670Y0048582D01*
X0085071Y0047984D02*
X0070005Y0047984D01*
X0069406Y0047385D02*
X0084473Y0047385D01*
X0083874Y0046787D02*
X0068420Y0046787D01*
X0068074Y0044991D02*
X0082079Y0044991D01*
X0082677Y0045590D02*
X0061023Y0045590D01*
X0060424Y0046188D02*
X0083276Y0046188D01*
X0081480Y0044393D02*
X0068673Y0044393D01*
X0069271Y0043794D02*
X0080882Y0043794D01*
X0080283Y0043196D02*
X0069870Y0043196D01*
X0070150Y0042597D02*
X0079685Y0042597D01*
X0079086Y0041999D02*
X0070150Y0041999D01*
X0070150Y0041400D02*
X0078488Y0041400D01*
X0077889Y0040802D02*
X0070150Y0040802D01*
X0070150Y0040203D02*
X0077291Y0040203D01*
X0076692Y0039605D02*
X0070070Y0039605D01*
X0069472Y0039006D02*
X0076093Y0039006D01*
X0066250Y0041300D02*
X0063050Y0041300D01*
X0030250Y0074100D01*
X0024650Y0074100D01*
X0020650Y0078100D01*
X0020650Y0091700D01*
X0016650Y0095700D01*
X0016250Y0096300D01*
X0012650Y0092688D02*
X0013361Y0091976D01*
X0015236Y0091200D01*
X0017264Y0091200D01*
X0018412Y0091675D01*
X0018412Y0091675D01*
X0019050Y0091037D01*
X0019050Y0086615D01*
X0018459Y0087206D01*
X0017026Y0087800D01*
X0015474Y0087800D01*
X0014041Y0087206D01*
X0012944Y0086109D01*
X0012650Y0085400D01*
X0012650Y0092688D01*
X0012650Y0092274D02*
X0013064Y0092274D01*
X0012650Y0091675D02*
X0014088Y0091675D01*
X0012650Y0091077D02*
X0019011Y0091077D01*
X0019050Y0090478D02*
X0012650Y0090478D01*
X0012650Y0089880D02*
X0019050Y0089880D01*
X0019050Y0089281D02*
X0012650Y0089281D01*
X0012650Y0088683D02*
X0019050Y0088683D01*
X0019050Y0088084D02*
X0012650Y0088084D01*
X0012650Y0087486D02*
X0014715Y0087486D01*
X0013722Y0086887D02*
X0012650Y0086887D01*
X0012650Y0086289D02*
X0013123Y0086289D01*
X0012770Y0085690D02*
X0012650Y0085690D01*
X0017785Y0087486D02*
X0019050Y0087486D01*
X0019050Y0086887D02*
X0018778Y0086887D01*
X0022250Y0086887D02*
X0023722Y0086887D01*
X0023123Y0086289D02*
X0022250Y0086289D01*
X0022250Y0085690D02*
X0022770Y0085690D01*
X0022522Y0085092D02*
X0022250Y0085092D01*
X0022250Y0084493D02*
X0022350Y0084493D01*
X0022350Y0083895D02*
X0022250Y0083895D01*
X0022250Y0083296D02*
X0022350Y0083296D01*
X0022350Y0082698D02*
X0022250Y0082698D01*
X0022250Y0082099D02*
X0022350Y0082099D01*
X0022350Y0081501D02*
X0022250Y0081501D01*
X0022250Y0080902D02*
X0022350Y0080902D01*
X0022350Y0080303D02*
X0022250Y0080303D01*
X0022250Y0079705D02*
X0022350Y0079705D01*
X0022350Y0079106D02*
X0022250Y0079106D01*
X0019775Y0076712D02*
X0019648Y0076712D01*
X0019685Y0076802D02*
X0019987Y0076500D01*
X0020787Y0075700D01*
X0018765Y0075700D01*
X0019556Y0076491D01*
X0019685Y0076802D01*
X0019179Y0076114D02*
X0020373Y0076114D01*
X0022163Y0071924D02*
X0010550Y0071924D01*
X0010550Y0071326D02*
X0022761Y0071326D01*
X0023360Y0070727D02*
X0010550Y0070727D01*
X0010550Y0070129D02*
X0023958Y0070129D01*
X0024557Y0069530D02*
X0010550Y0069530D01*
X0010550Y0068932D02*
X0025155Y0068932D01*
X0025754Y0068333D02*
X0010550Y0068333D01*
X0010550Y0067735D02*
X0015317Y0067735D01*
X0015474Y0067800D02*
X0014041Y0067206D01*
X0012944Y0066109D01*
X0012350Y0064676D01*
X0012350Y0057924D01*
X0012944Y0056491D01*
X0014041Y0055394D01*
X0015474Y0054800D01*
X0017026Y0054800D01*
X0018459Y0055394D01*
X0019556Y0056491D01*
X0020150Y0057924D01*
X0020150Y0064676D01*
X0019556Y0066109D01*
X0018459Y0067206D01*
X0017026Y0067800D01*
X0015474Y0067800D01*
X0013971Y0067136D02*
X0010550Y0067136D01*
X0010550Y0066538D02*
X0013372Y0066538D01*
X0012873Y0065939D02*
X0010550Y0065939D01*
X0010550Y0065341D02*
X0012625Y0065341D01*
X0012378Y0064742D02*
X0010550Y0064742D01*
X0010550Y0064144D02*
X0012350Y0064144D01*
X0012350Y0063545D02*
X0010550Y0063545D01*
X0010550Y0062947D02*
X0012350Y0062947D01*
X0012350Y0062348D02*
X0010550Y0062348D01*
X0010550Y0061750D02*
X0012350Y0061750D01*
X0012350Y0061151D02*
X0010550Y0061151D01*
X0010550Y0060553D02*
X0012350Y0060553D01*
X0012350Y0059954D02*
X0010550Y0059954D01*
X0010550Y0059356D02*
X0012350Y0059356D01*
X0012350Y0058757D02*
X0010550Y0058757D01*
X0010550Y0058159D02*
X0012350Y0058159D01*
X0012501Y0057560D02*
X0010550Y0057560D01*
X0010550Y0056962D02*
X0012749Y0056962D01*
X0013072Y0056363D02*
X0010550Y0056363D01*
X0010550Y0055765D02*
X0013670Y0055765D01*
X0014591Y0055166D02*
X0010550Y0055166D01*
X0010550Y0054568D02*
X0024650Y0054568D01*
X0024591Y0055166D02*
X0017909Y0055166D01*
X0018830Y0055765D02*
X0023670Y0055765D01*
X0023072Y0056363D02*
X0019428Y0056363D01*
X0019751Y0056962D02*
X0022749Y0056962D01*
X0022501Y0057560D02*
X0019999Y0057560D01*
X0020150Y0058159D02*
X0022350Y0058159D01*
X0022350Y0058757D02*
X0020150Y0058757D01*
X0020150Y0059356D02*
X0022350Y0059356D01*
X0022350Y0059954D02*
X0020150Y0059954D01*
X0020150Y0060553D02*
X0022350Y0060553D01*
X0022350Y0061151D02*
X0020150Y0061151D01*
X0020150Y0061750D02*
X0022350Y0061750D01*
X0022350Y0062348D02*
X0020150Y0062348D01*
X0020150Y0062947D02*
X0022350Y0062947D01*
X0022350Y0063545D02*
X0020150Y0063545D01*
X0020150Y0064144D02*
X0022350Y0064144D01*
X0022378Y0064742D02*
X0020122Y0064742D01*
X0019875Y0065341D02*
X0022625Y0065341D01*
X0022873Y0065939D02*
X0019627Y0065939D01*
X0019128Y0066538D02*
X0023372Y0066538D01*
X0023971Y0067136D02*
X0018529Y0067136D01*
X0017183Y0067735D02*
X0025317Y0067735D01*
X0027885Y0070727D02*
X0031360Y0070727D01*
X0031958Y0070129D02*
X0028484Y0070129D01*
X0029082Y0069530D02*
X0032557Y0069530D01*
X0033155Y0068932D02*
X0029681Y0068932D01*
X0030279Y0068333D02*
X0033754Y0068333D01*
X0034352Y0067735D02*
X0030878Y0067735D01*
X0031476Y0067136D02*
X0034951Y0067136D01*
X0035550Y0066538D02*
X0031850Y0066538D01*
X0031850Y0065939D02*
X0036148Y0065939D01*
X0036747Y0065341D02*
X0031850Y0065341D01*
X0031850Y0064742D02*
X0037345Y0064742D01*
X0037944Y0064144D02*
X0031850Y0064144D01*
X0031850Y0063545D02*
X0038542Y0063545D01*
X0039141Y0062947D02*
X0031850Y0062947D01*
X0031850Y0062348D02*
X0039739Y0062348D01*
X0040338Y0061750D02*
X0031850Y0061750D01*
X0026250Y0061300D02*
X0026250Y0054900D01*
X0049450Y0031700D01*
X0057207Y0039006D02*
X0063028Y0039006D01*
X0063135Y0038900D02*
X0057313Y0038900D01*
X0054250Y0041963D01*
X0053728Y0042485D01*
X0055700Y0044457D01*
X0055700Y0046387D01*
X0062350Y0039737D01*
X0062350Y0039685D01*
X0063135Y0038900D01*
X0062430Y0039605D02*
X0056608Y0039605D01*
X0056009Y0040203D02*
X0061884Y0040203D01*
X0061286Y0040802D02*
X0055411Y0040802D01*
X0054812Y0041400D02*
X0060687Y0041400D01*
X0060088Y0041999D02*
X0054214Y0041999D01*
X0053841Y0042597D02*
X0059490Y0042597D01*
X0058891Y0043196D02*
X0054439Y0043196D01*
X0055038Y0043794D02*
X0058293Y0043794D01*
X0057694Y0044393D02*
X0055636Y0044393D01*
X0055700Y0044991D02*
X0057096Y0044991D01*
X0056497Y0045590D02*
X0055700Y0045590D01*
X0055700Y0046188D02*
X0055899Y0046188D01*
X0058030Y0048582D02*
X0061964Y0048582D01*
X0061716Y0049181D02*
X0057432Y0049181D01*
X0056833Y0049779D02*
X0061468Y0049779D01*
X0062495Y0047984D02*
X0058629Y0047984D01*
X0059227Y0047385D02*
X0063094Y0047385D01*
X0064080Y0046787D02*
X0059826Y0046787D01*
X0061621Y0044991D02*
X0064426Y0044991D01*
X0063827Y0044393D02*
X0062220Y0044393D01*
X0062818Y0043794D02*
X0063229Y0043794D01*
X0056509Y0050378D02*
X0056235Y0050378D01*
X0055911Y0050976D02*
X0055636Y0050976D01*
X0055312Y0051575D02*
X0055038Y0051575D01*
X0054714Y0052173D02*
X0054439Y0052173D01*
X0054115Y0052772D02*
X0053841Y0052772D01*
X0053517Y0053370D02*
X0053242Y0053370D01*
X0052918Y0053969D02*
X0052644Y0053969D01*
X0052320Y0054568D02*
X0052045Y0054568D01*
X0051721Y0055166D02*
X0051447Y0055166D01*
X0051123Y0055765D02*
X0050848Y0055765D01*
X0050524Y0056363D02*
X0050250Y0056363D01*
X0049926Y0056962D02*
X0049651Y0056962D01*
X0049327Y0057560D02*
X0049053Y0057560D01*
X0048729Y0058159D02*
X0048454Y0058159D01*
X0048130Y0058757D02*
X0047856Y0058757D01*
X0047532Y0059356D02*
X0047257Y0059356D01*
X0046933Y0059954D02*
X0046659Y0059954D01*
X0046335Y0060553D02*
X0046060Y0060553D01*
X0045736Y0061151D02*
X0045462Y0061151D01*
X0045138Y0061750D02*
X0044863Y0061750D01*
X0044539Y0062348D02*
X0044265Y0062348D01*
X0043941Y0062947D02*
X0043666Y0062947D01*
X0043342Y0063545D02*
X0043068Y0063545D01*
X0042744Y0064144D02*
X0042469Y0064144D01*
X0042145Y0064742D02*
X0041871Y0064742D01*
X0041547Y0065341D02*
X0041272Y0065341D01*
X0040948Y0065939D02*
X0040673Y0065939D01*
X0040350Y0066538D02*
X0040075Y0066538D01*
X0039751Y0067136D02*
X0039476Y0067136D01*
X0039152Y0067735D02*
X0038878Y0067735D01*
X0038554Y0068333D02*
X0038279Y0068333D01*
X0037955Y0068932D02*
X0037681Y0068932D01*
X0037357Y0069530D02*
X0037082Y0069530D01*
X0036758Y0070129D02*
X0036484Y0070129D01*
X0036160Y0070727D02*
X0035885Y0070727D01*
X0035561Y0071326D02*
X0035287Y0071326D01*
X0034963Y0071924D02*
X0034688Y0071924D01*
X0034364Y0072523D02*
X0034090Y0072523D01*
X0033766Y0073121D02*
X0033491Y0073121D01*
X0033167Y0073720D02*
X0032893Y0073720D01*
X0032569Y0074318D02*
X0032294Y0074318D01*
X0031970Y0074917D02*
X0031696Y0074917D01*
X0031372Y0075515D02*
X0031097Y0075515D01*
X0030773Y0076114D02*
X0029179Y0076114D01*
X0029648Y0076712D02*
X0030175Y0076712D01*
X0030163Y0071924D02*
X0026688Y0071924D01*
X0027287Y0071326D02*
X0030761Y0071326D01*
X0027850Y0081300D02*
X0026250Y0081300D01*
X0027850Y0081300D02*
X0057450Y0051700D01*
X0066250Y0051700D01*
X0066250Y0051300D01*
X0062446Y0054568D02*
X0056845Y0054568D01*
X0057444Y0053969D02*
X0061944Y0053969D01*
X0061696Y0053370D02*
X0058042Y0053370D01*
X0057909Y0055166D02*
X0063045Y0055166D01*
X0063963Y0055765D02*
X0058830Y0055765D01*
X0052350Y0059356D02*
X0052057Y0059356D01*
X0052350Y0059954D02*
X0051459Y0059954D01*
X0050860Y0060553D02*
X0052350Y0060553D01*
X0052350Y0061151D02*
X0050262Y0061151D01*
X0049663Y0061750D02*
X0052350Y0061750D01*
X0052350Y0062348D02*
X0049065Y0062348D01*
X0048466Y0062947D02*
X0052350Y0062947D01*
X0052350Y0063545D02*
X0047868Y0063545D01*
X0047269Y0064144D02*
X0052350Y0064144D01*
X0052378Y0064742D02*
X0046671Y0064742D01*
X0046072Y0065341D02*
X0052625Y0065341D01*
X0052873Y0065939D02*
X0045473Y0065939D01*
X0044875Y0066538D02*
X0053372Y0066538D01*
X0053971Y0067136D02*
X0044276Y0067136D01*
X0043678Y0067735D02*
X0055317Y0067735D01*
X0058778Y0086887D02*
X0120774Y0086887D01*
X0121373Y0087486D02*
X0057785Y0087486D01*
X0054715Y0087486D02*
X0027785Y0087486D01*
X0024715Y0087486D02*
X0022250Y0087486D01*
X0022250Y0088084D02*
X0121971Y0088084D01*
X0122570Y0088683D02*
X0022250Y0088683D01*
X0022250Y0089281D02*
X0123168Y0089281D01*
X0123767Y0089880D02*
X0022250Y0089880D01*
X0022250Y0090478D02*
X0124365Y0090478D01*
X0124650Y0091077D02*
X0022250Y0091077D01*
X0022250Y0091675D02*
X0024088Y0091675D01*
X0023064Y0092274D02*
X0022250Y0092274D01*
X0022465Y0092872D02*
X0021740Y0092872D01*
X0021902Y0093471D02*
X0021142Y0093471D01*
X0020846Y0094069D02*
X0021654Y0094069D01*
X0021406Y0094668D02*
X0021094Y0094668D01*
X0021207Y0097660D02*
X0021293Y0097660D01*
X0021541Y0098259D02*
X0020959Y0098259D01*
X0020711Y0098857D02*
X0021789Y0098857D01*
X0022193Y0099456D02*
X0020307Y0099456D01*
X0019708Y0100054D02*
X0022792Y0100054D01*
X0023432Y0100653D02*
X0019068Y0100653D01*
X0017623Y0101251D02*
X0024877Y0101251D01*
X0027623Y0101251D02*
X0034877Y0101251D01*
X0033432Y0100653D02*
X0029068Y0100653D01*
X0029708Y0100054D02*
X0032792Y0100054D01*
X0032193Y0099456D02*
X0030307Y0099456D01*
X0030711Y0098857D02*
X0031789Y0098857D01*
X0031541Y0098259D02*
X0030959Y0098259D01*
X0031207Y0097660D02*
X0031293Y0097660D01*
X0031406Y0094668D02*
X0031094Y0094668D01*
X0030846Y0094069D02*
X0031654Y0094069D01*
X0031902Y0093471D02*
X0030598Y0093471D01*
X0030035Y0092872D02*
X0032465Y0092872D01*
X0033064Y0092274D02*
X0029436Y0092274D01*
X0028412Y0091675D02*
X0034088Y0091675D01*
X0038412Y0091675D02*
X0044088Y0091675D01*
X0043064Y0092274D02*
X0039436Y0092274D01*
X0040035Y0092872D02*
X0042465Y0092872D01*
X0041902Y0093471D02*
X0040598Y0093471D01*
X0040846Y0094069D02*
X0041654Y0094069D01*
X0041406Y0094668D02*
X0041094Y0094668D01*
X0041207Y0097660D02*
X0041293Y0097660D01*
X0041541Y0098259D02*
X0040959Y0098259D01*
X0040711Y0098857D02*
X0041789Y0098857D01*
X0042193Y0099456D02*
X0040307Y0099456D01*
X0039708Y0100054D02*
X0042792Y0100054D01*
X0043432Y0100653D02*
X0039068Y0100653D01*
X0037623Y0101251D02*
X0044877Y0101251D01*
X0014877Y0101251D02*
X0012650Y0101251D01*
X0012650Y0100653D02*
X0013432Y0100653D01*
X0012792Y0100054D02*
X0012650Y0100054D01*
X0010773Y0076114D02*
X0010550Y0076114D01*
X0010550Y0075515D02*
X0011372Y0075515D01*
X0011970Y0074917D02*
X0010550Y0074917D01*
X0010550Y0074318D02*
X0012569Y0074318D01*
X0013167Y0073720D02*
X0010550Y0073720D01*
X0010550Y0073121D02*
X0013766Y0073121D01*
X0014364Y0072523D02*
X0010550Y0072523D01*
X0010550Y0053969D02*
X0024918Y0053969D01*
X0025517Y0053370D02*
X0010550Y0053370D01*
X0010550Y0052772D02*
X0026115Y0052772D01*
X0026714Y0052173D02*
X0010550Y0052173D01*
X0010550Y0051575D02*
X0027312Y0051575D01*
X0027911Y0050976D02*
X0010550Y0050976D01*
X0010550Y0050378D02*
X0028509Y0050378D01*
X0029108Y0049779D02*
X0010550Y0049779D01*
X0010550Y0049181D02*
X0029706Y0049181D01*
X0027842Y0048582D02*
X0010550Y0048582D01*
X0010550Y0047984D02*
X0026956Y0047984D01*
X0026358Y0047385D02*
X0010550Y0047385D01*
X0010550Y0046787D02*
X0025959Y0046787D01*
X0025711Y0046188D02*
X0010550Y0046188D01*
X0010550Y0045590D02*
X0025463Y0045590D01*
X0025422Y0044991D02*
X0010550Y0044991D01*
X0010550Y0044393D02*
X0025422Y0044393D01*
X0025422Y0043794D02*
X0010550Y0043794D01*
X0010550Y0043196D02*
X0025640Y0043196D01*
X0025888Y0042597D02*
X0010550Y0042597D01*
X0010550Y0041999D02*
X0026188Y0041999D01*
X0026786Y0041400D02*
X0010550Y0041400D01*
X0010550Y0040802D02*
X0027432Y0040802D01*
X0027050Y0040203D02*
X0010550Y0040203D01*
X0010550Y0039605D02*
X0026451Y0039605D01*
X0025997Y0039006D02*
X0010550Y0039006D01*
X0010550Y0038408D02*
X0025749Y0038408D01*
X0025502Y0037809D02*
X0010550Y0037809D01*
X0010550Y0037211D02*
X0025422Y0037211D01*
X0025422Y0036612D02*
X0010550Y0036612D01*
X0010550Y0036014D02*
X0025422Y0036014D01*
X0025602Y0035415D02*
X0010550Y0035415D01*
X0010550Y0034817D02*
X0025850Y0034817D01*
X0026098Y0034218D02*
X0010550Y0034218D01*
X0010550Y0033620D02*
X0026693Y0033620D01*
X0027291Y0033021D02*
X0010550Y0033021D01*
X0010550Y0032423D02*
X0028651Y0032423D01*
X0022397Y0022846D02*
X0062350Y0022846D01*
X0062350Y0022248D02*
X0023434Y0022248D01*
X0024471Y0021649D02*
X0062350Y0021649D01*
X0062350Y0021051D02*
X0025111Y0021051D01*
X0025709Y0020452D02*
X0062350Y0020452D01*
X0062350Y0019854D02*
X0026308Y0019854D01*
X0026753Y0019255D02*
X0062779Y0019255D01*
X0063378Y0018657D02*
X0027098Y0018657D01*
X0027444Y0018058D02*
X0063976Y0018058D01*
X0064575Y0017460D02*
X0027789Y0017460D01*
X0020447Y0023445D02*
X0062880Y0023445D01*
X0080524Y0052772D02*
X0089859Y0052772D01*
X0090458Y0053370D02*
X0081436Y0053370D01*
X0082034Y0053969D02*
X0091056Y0053969D01*
X0091655Y0054568D02*
X0082354Y0054568D01*
X0082602Y0055166D02*
X0092253Y0055166D01*
X0092852Y0055765D02*
X0082750Y0055765D01*
X0082750Y0056363D02*
X0093450Y0056363D01*
X0094049Y0056962D02*
X0082750Y0056962D01*
X0082549Y0057560D02*
X0094647Y0057560D01*
X0095246Y0058159D02*
X0082301Y0058159D01*
X0081908Y0058757D02*
X0095844Y0058757D01*
X0096443Y0059356D02*
X0081310Y0059356D01*
X0080219Y0059954D02*
X0097041Y0059954D01*
X0099173Y0057560D02*
X0099951Y0057560D01*
X0099771Y0058159D02*
X0100199Y0058159D01*
X0100370Y0058757D02*
X0100592Y0058757D01*
X0100968Y0059356D02*
X0101190Y0059356D01*
X0101567Y0059954D02*
X0102281Y0059954D01*
X0100034Y0062947D02*
X0080946Y0062947D01*
X0081611Y0063545D02*
X0100632Y0063545D01*
X0101231Y0064144D02*
X0082178Y0064144D01*
X0082426Y0064742D02*
X0100464Y0064742D01*
X0102250Y0066900D02*
X0076650Y0066900D01*
X0076250Y0066300D01*
X0094385Y0052772D02*
X0101976Y0052772D01*
X0101064Y0053370D02*
X0094983Y0053370D01*
X0095582Y0053969D02*
X0100466Y0053969D01*
X0100146Y0054568D02*
X0096180Y0054568D01*
X0096779Y0055166D02*
X0099898Y0055166D01*
X0099750Y0055765D02*
X0097377Y0055765D01*
X0097976Y0056363D02*
X0099750Y0056363D01*
X0099750Y0056962D02*
X0098574Y0056962D01*
X0105756Y0064144D02*
X0112650Y0064144D01*
X0112650Y0064742D02*
X0106355Y0064742D01*
X0106953Y0065341D02*
X0112650Y0065341D01*
X0112650Y0065939D02*
X0107552Y0065939D01*
X0107850Y0066538D02*
X0112650Y0066538D01*
X0112650Y0067136D02*
X0107850Y0067136D01*
X0107850Y0067735D02*
X0112650Y0067735D01*
X0112650Y0068333D02*
X0107850Y0068333D01*
X0107850Y0068932D02*
X0112650Y0068932D01*
X0112650Y0069530D02*
X0107850Y0069530D01*
X0107850Y0070129D02*
X0112650Y0070129D01*
X0112650Y0070727D02*
X0107850Y0070727D01*
X0107850Y0071326D02*
X0112650Y0071326D01*
X0112650Y0071924D02*
X0107850Y0071924D01*
X0109922Y0072523D02*
X0112650Y0072523D01*
X0112650Y0073121D02*
X0111187Y0073121D01*
X0111785Y0073720D02*
X0112650Y0073720D01*
X0112650Y0074318D02*
X0112251Y0074318D01*
X0112498Y0074917D02*
X0112650Y0074917D01*
X0115850Y0073121D02*
X0116313Y0073121D01*
X0115850Y0072523D02*
X0117578Y0072523D01*
X0115850Y0071924D02*
X0137812Y0071924D01*
X0138410Y0072523D02*
X0124922Y0072523D01*
X0126187Y0073121D02*
X0139009Y0073121D01*
X0137213Y0071326D02*
X0115850Y0071326D01*
X0115850Y0070727D02*
X0136615Y0070727D01*
X0136016Y0070129D02*
X0124798Y0070129D01*
X0126135Y0069530D02*
X0135418Y0069530D01*
X0134819Y0068932D02*
X0126734Y0068932D01*
X0127229Y0068333D02*
X0134221Y0068333D01*
X0133622Y0067735D02*
X0127477Y0067735D01*
X0127725Y0067136D02*
X0133024Y0067136D01*
X0132425Y0066538D02*
X0127750Y0066538D01*
X0127750Y0065939D02*
X0131826Y0065939D01*
X0131228Y0065341D02*
X0127674Y0065341D01*
X0127426Y0064742D02*
X0130629Y0064742D01*
X0130031Y0064144D02*
X0127178Y0064144D01*
X0126611Y0063545D02*
X0129432Y0063545D01*
X0128834Y0062947D02*
X0125946Y0062947D01*
X0125841Y0059954D02*
X0125219Y0059954D01*
X0127973Y0057560D02*
X0144951Y0057560D01*
X0144750Y0056962D02*
X0127750Y0056962D01*
X0127750Y0056363D02*
X0144750Y0056363D01*
X0144750Y0055765D02*
X0127750Y0055765D01*
X0127602Y0055166D02*
X0144898Y0055166D01*
X0145146Y0054568D02*
X0127354Y0054568D01*
X0127034Y0053969D02*
X0145466Y0053969D01*
X0146064Y0053370D02*
X0126436Y0053370D01*
X0125524Y0052772D02*
X0146976Y0052772D01*
X0145199Y0058159D02*
X0128571Y0058159D01*
X0129170Y0058757D02*
X0145592Y0058757D01*
X0146190Y0059356D02*
X0134912Y0059356D01*
X0136048Y0059954D02*
X0147281Y0059954D01*
X0154250Y0062100D02*
X0134250Y0062100D01*
X0131624Y0061151D02*
X0131564Y0061151D01*
X0131872Y0060553D02*
X0130965Y0060553D01*
X0130367Y0059954D02*
X0132452Y0059954D01*
X0133588Y0059356D02*
X0129768Y0059356D01*
X0125275Y0049181D02*
X0186989Y0049181D01*
X0186989Y0048582D02*
X0169697Y0048582D01*
X0170583Y0047984D02*
X0186989Y0047984D01*
X0186989Y0047385D02*
X0171182Y0047385D01*
X0171581Y0046787D02*
X0186989Y0046787D01*
X0186989Y0046188D02*
X0171829Y0046188D01*
X0172076Y0045590D02*
X0186989Y0045590D01*
X0186989Y0044991D02*
X0172117Y0044991D01*
X0172117Y0044393D02*
X0186989Y0044393D01*
X0186989Y0043794D02*
X0172117Y0043794D01*
X0171899Y0043196D02*
X0186989Y0043196D01*
X0186989Y0042597D02*
X0171651Y0042597D01*
X0171352Y0041999D02*
X0186989Y0041999D01*
X0186989Y0041400D02*
X0170753Y0041400D01*
X0170108Y0040802D02*
X0186989Y0040802D01*
X0186989Y0040203D02*
X0170490Y0040203D01*
X0171088Y0039605D02*
X0186989Y0039605D01*
X0186989Y0039006D02*
X0171542Y0039006D01*
X0171790Y0038408D02*
X0186989Y0038408D01*
X0186989Y0037809D02*
X0172038Y0037809D01*
X0172117Y0037211D02*
X0186989Y0037211D01*
X0186989Y0036612D02*
X0172117Y0036612D01*
X0172117Y0036014D02*
X0186989Y0036014D01*
X0186989Y0035415D02*
X0171938Y0035415D01*
X0171690Y0034817D02*
X0186989Y0034817D01*
X0186989Y0034218D02*
X0171442Y0034218D01*
X0170847Y0033620D02*
X0186989Y0033620D01*
X0186989Y0033021D02*
X0170248Y0033021D01*
X0168888Y0032423D02*
X0186989Y0032423D01*
X0167667Y0044607D02*
X0167050Y0044500D01*
X0162250Y0044500D01*
X0165637Y0048582D02*
X0124677Y0048582D01*
X0116976Y0052772D02*
X0115850Y0052772D01*
X0115850Y0053370D02*
X0116064Y0053370D01*
X0104650Y0068932D02*
X0104162Y0068932D01*
X0104650Y0069530D02*
X0103188Y0069530D01*
X0115850Y0069530D02*
X0116365Y0069530D01*
X0115850Y0070129D02*
X0117702Y0070129D01*
X0121250Y0076300D02*
X0121450Y0076500D01*
X0143050Y0076500D01*
X0145715Y0073720D02*
X0126785Y0073720D01*
X0177140Y0070727D02*
X0186989Y0070727D01*
X0186989Y0070129D02*
X0177198Y0070129D01*
X0177739Y0071326D02*
X0186989Y0071326D01*
X0186989Y0071924D02*
X0178337Y0071924D01*
X0178936Y0072523D02*
X0186989Y0072523D01*
X0186989Y0073121D02*
X0179534Y0073121D01*
X0180133Y0073720D02*
X0186989Y0073720D01*
X0186989Y0074318D02*
X0180731Y0074318D01*
X0181330Y0074917D02*
X0186989Y0074917D01*
X0186989Y0075515D02*
X0181928Y0075515D01*
X0184127Y0076114D02*
X0186989Y0076114D01*
X0186989Y0076712D02*
X0184725Y0076712D01*
X0185324Y0077311D02*
X0186989Y0077311D01*
X0186989Y0077909D02*
X0185922Y0077909D01*
X0186521Y0078508D02*
X0186989Y0078508D01*
X0184650Y0083895D02*
X0184171Y0083895D01*
X0184650Y0084493D02*
X0183572Y0084493D01*
X0182974Y0085092D02*
X0184650Y0085092D01*
X0186989Y0069530D02*
X0178535Y0069530D01*
X0179134Y0068932D02*
X0186989Y0068932D01*
X0186989Y0068333D02*
X0179629Y0068333D01*
X0179877Y0067735D02*
X0186989Y0067735D01*
X0186989Y0067136D02*
X0180125Y0067136D01*
X0180150Y0066538D02*
X0186989Y0066538D01*
X0186989Y0065939D02*
X0180150Y0065939D01*
X0180074Y0065341D02*
X0186989Y0065341D01*
X0186989Y0064742D02*
X0179826Y0064742D01*
X0179578Y0064144D02*
X0186989Y0064144D01*
X0186989Y0063545D02*
X0179011Y0063545D01*
X0178346Y0062947D02*
X0186989Y0062947D01*
X0186989Y0005633D02*
X0186989Y0005600D01*
X0186957Y0005600D01*
X0186989Y0005633D01*
X0024448Y0151526D02*
X0018052Y0151526D01*
X0019287Y0152125D02*
X0023213Y0152125D01*
X0022614Y0152723D02*
X0019886Y0152723D01*
X0020484Y0153322D02*
X0022016Y0153322D01*
X0021715Y0153920D02*
X0020785Y0153920D01*
X0021032Y0154519D02*
X0021468Y0154519D01*
X0014448Y0151526D02*
X0013939Y0151526D01*
X0016046Y0164095D02*
X0010550Y0164095D01*
X0010550Y0164694D02*
X0013897Y0164694D01*
X0012860Y0165292D02*
X0010550Y0165292D01*
X0010550Y0165891D02*
X0011824Y0165891D01*
X0011111Y0166489D02*
X0010550Y0166489D01*
X0010550Y0182007D02*
X0010550Y0182039D01*
X0010583Y0182039D01*
X0010550Y0182007D01*
D18*
X0094250Y0147700D03*
X0102250Y0066900D03*
X0123050Y0050900D03*
X0134250Y0062100D03*
M02*
