G75*
%MOIN*%
%OFA0B0*%
%FSLAX25Y25*%
%IPPOS*%
%LPD*%
%AMOC8*
5,1,8,0,0,1.08239X$1,22.5*
%
%ADD10C,0.06600*%
%ADD11C,0.07400*%
%ADD12C,0.05200*%
%ADD13OC8,0.05200*%
%ADD14C,0.07600*%
%ADD15C,0.05200*%
%ADD16OC8,0.06300*%
%ADD17C,0.00600*%
%ADD18C,0.02978*%
%ADD19C,0.01600*%
D10*
X0056250Y0046800D03*
X0056250Y0086800D03*
D11*
X0056250Y0037500D03*
X0056250Y0026100D03*
X0036950Y0036800D03*
X0025550Y0036800D03*
X0086250Y0026800D03*
X0096250Y0026800D03*
X0106250Y0026800D03*
D12*
X0093850Y0041800D02*
X0088650Y0041800D01*
X0073850Y0041800D02*
X0068650Y0041800D01*
X0038850Y0066800D02*
X0033650Y0066800D01*
X0033650Y0076800D02*
X0038850Y0076800D01*
X0038850Y0086800D02*
X0033650Y0086800D01*
X0068650Y0081800D02*
X0073850Y0081800D01*
X0073850Y0071800D02*
X0068650Y0071800D01*
X0088650Y0071800D02*
X0093850Y0071800D01*
X0093850Y0081800D02*
X0088650Y0081800D01*
X0103650Y0076800D02*
X0108850Y0076800D01*
X0108850Y0066800D02*
X0103650Y0066800D01*
X0103650Y0056800D02*
X0108850Y0056800D01*
X0133650Y0056800D02*
X0138850Y0056800D01*
X0148650Y0056800D02*
X0153850Y0056800D01*
X0153850Y0066800D02*
X0148650Y0066800D01*
X0148650Y0076800D02*
X0153850Y0076800D01*
X0138850Y0076800D02*
X0133650Y0076800D01*
X0178650Y0076800D02*
X0183850Y0076800D01*
X0183850Y0056800D02*
X0178650Y0056800D01*
D13*
X0146250Y0026800D03*
X0126250Y0026800D03*
X0016250Y0066800D03*
X0016250Y0086800D03*
D14*
X0016250Y0096800D03*
X0026250Y0096800D03*
X0036250Y0096800D03*
X0046250Y0096800D03*
X0056250Y0096800D03*
X0066250Y0096800D03*
X0076250Y0096800D03*
X0086250Y0096800D03*
X0096250Y0096800D03*
X0106250Y0096800D03*
X0116250Y0096800D03*
X0126250Y0096800D03*
X0136250Y0096800D03*
X0146250Y0096800D03*
X0156250Y0096800D03*
X0166250Y0096800D03*
X0176250Y0096800D03*
X0176250Y0156800D03*
X0166250Y0156800D03*
X0156250Y0156800D03*
X0146250Y0156800D03*
X0136250Y0156800D03*
X0126250Y0156800D03*
X0116250Y0156800D03*
X0106250Y0156800D03*
X0096250Y0156800D03*
X0086250Y0156800D03*
X0076250Y0156800D03*
X0066250Y0156800D03*
X0056250Y0156800D03*
X0046250Y0156800D03*
X0036250Y0156800D03*
X0026250Y0156800D03*
X0016250Y0156800D03*
D15*
X0156250Y0026800D03*
X0166250Y0026800D03*
D16*
X0036250Y0046800D03*
X0036250Y0056800D03*
D17*
X0036650Y0056200D01*
X0036650Y0053000D01*
X0041450Y0048200D01*
X0041450Y0041000D01*
X0037450Y0037000D01*
X0036950Y0036800D01*
X0056250Y0046800D02*
X0056650Y0046600D01*
X0081450Y0021800D01*
X0099050Y0021800D01*
X0103850Y0026600D01*
X0106250Y0026600D01*
X0106250Y0026800D01*
X0106250Y0027400D01*
X0110250Y0031400D01*
X0157450Y0031400D01*
X0161450Y0027400D01*
X0166250Y0027400D01*
X0166250Y0026800D01*
X0151850Y0057000D02*
X0151250Y0056800D01*
X0151850Y0057000D02*
X0151850Y0058600D01*
X0172650Y0079400D01*
X0172650Y0085800D01*
X0181450Y0094600D01*
X0181450Y0099400D01*
X0135850Y0145000D01*
X0077450Y0145000D01*
X0084650Y0148200D02*
X0135050Y0148200D01*
X0183050Y0100200D01*
X0183050Y0093800D01*
X0174250Y0085000D01*
X0174250Y0075400D01*
X0180650Y0069000D01*
X0180650Y0057000D01*
X0181250Y0056800D01*
X0181250Y0076800D02*
X0181450Y0077000D01*
X0181450Y0089800D01*
X0184650Y0093000D01*
X0184650Y0101000D01*
X0134250Y0151400D01*
X0061450Y0151400D01*
X0056650Y0156200D01*
X0056250Y0156800D01*
X0040650Y0141800D02*
X0026250Y0156200D01*
X0026250Y0156800D01*
X0016250Y0156800D02*
X0015850Y0156200D01*
X0011050Y0151400D01*
X0011050Y0094600D01*
X0014250Y0091400D01*
X0039850Y0091400D01*
X0079050Y0052200D01*
X0110250Y0052200D01*
X0134250Y0076200D01*
X0135850Y0076200D01*
X0136250Y0076800D01*
X0134250Y0072200D02*
X0139850Y0072200D01*
X0144650Y0077000D01*
X0144650Y0081800D01*
X0155850Y0093000D01*
X0155850Y0096200D01*
X0156250Y0096800D01*
X0150250Y0091400D02*
X0142250Y0091400D01*
X0107850Y0057000D01*
X0106250Y0057000D01*
X0106250Y0056800D01*
X0095050Y0067400D02*
X0075850Y0067400D01*
X0071850Y0071400D01*
X0071250Y0071800D01*
X0075050Y0086600D02*
X0056650Y0086600D01*
X0056250Y0086800D01*
X0075050Y0086600D02*
X0089450Y0072200D01*
X0091050Y0072200D01*
X0091250Y0071800D01*
X0095050Y0067400D02*
X0099050Y0071400D01*
X0109450Y0071400D01*
X0126250Y0088200D01*
X0126250Y0096800D01*
X0134250Y0072200D02*
X0089450Y0027400D01*
X0086250Y0027400D01*
X0086250Y0026800D01*
D18*
X0150250Y0091400D03*
X0084650Y0148200D03*
X0077450Y0145000D03*
X0040650Y0141800D03*
D19*
X0011050Y0091630D02*
X0011050Y0022297D01*
X0011246Y0022493D01*
X0013777Y0023954D01*
X0016600Y0024710D01*
X0019522Y0024710D01*
X0022345Y0023954D01*
X0024876Y0022493D01*
X0026943Y0020426D01*
X0028404Y0017895D01*
X0029160Y0015072D01*
X0029160Y0012150D01*
X0028404Y0009327D01*
X0026943Y0006796D01*
X0026747Y0006600D01*
X0170793Y0006600D01*
X0170597Y0006796D01*
X0169136Y0009327D01*
X0168379Y0012150D01*
X0168379Y0015072D01*
X0169136Y0017895D01*
X0170597Y0020426D01*
X0172663Y0022493D01*
X0175194Y0023954D01*
X0178017Y0024710D01*
X0180940Y0024710D01*
X0183762Y0023954D01*
X0186293Y0022493D01*
X0186489Y0022297D01*
X0186489Y0053217D01*
X0186342Y0053070D01*
X0184725Y0052400D01*
X0177775Y0052400D01*
X0176158Y0053070D01*
X0174920Y0054308D01*
X0174250Y0055925D01*
X0174250Y0057675D01*
X0174920Y0059292D01*
X0176158Y0060530D01*
X0177775Y0061200D01*
X0178550Y0061200D01*
X0178550Y0068130D01*
X0173380Y0073300D01*
X0172150Y0074530D01*
X0172150Y0075930D01*
X0156546Y0060326D01*
X0157580Y0059292D01*
X0158250Y0057675D01*
X0158250Y0055925D01*
X0157580Y0054308D01*
X0156342Y0053070D01*
X0154725Y0052400D01*
X0147775Y0052400D01*
X0146158Y0053070D01*
X0144920Y0054308D01*
X0144250Y0055925D01*
X0144250Y0057675D01*
X0144920Y0059292D01*
X0146158Y0060530D01*
X0147775Y0061200D01*
X0151480Y0061200D01*
X0152680Y0062400D01*
X0147775Y0062400D01*
X0146158Y0063070D01*
X0144920Y0064308D01*
X0144250Y0065925D01*
X0144250Y0067675D01*
X0144920Y0069292D01*
X0146158Y0070530D01*
X0147775Y0071200D01*
X0154725Y0071200D01*
X0156342Y0070530D01*
X0157580Y0069292D01*
X0158164Y0067884D01*
X0170550Y0080270D01*
X0170550Y0086670D01*
X0175097Y0091216D01*
X0173078Y0092053D01*
X0171503Y0093628D01*
X0171250Y0094238D01*
X0170997Y0093628D01*
X0169422Y0092053D01*
X0167364Y0091200D01*
X0165136Y0091200D01*
X0163078Y0092053D01*
X0161503Y0093628D01*
X0161250Y0094238D01*
X0160997Y0093628D01*
X0159422Y0092053D01*
X0157364Y0091200D01*
X0157020Y0091200D01*
X0156720Y0090900D01*
X0146750Y0080930D01*
X0146750Y0080776D01*
X0147775Y0081200D01*
X0154725Y0081200D01*
X0156342Y0080530D01*
X0157580Y0079292D01*
X0158250Y0077675D01*
X0158250Y0075925D01*
X0157580Y0074308D01*
X0156342Y0073070D01*
X0154725Y0072400D01*
X0147775Y0072400D01*
X0146158Y0073070D01*
X0144924Y0074304D01*
X0140720Y0070100D01*
X0135120Y0070100D01*
X0097320Y0032300D01*
X0097344Y0032300D01*
X0099365Y0031463D01*
X0100913Y0029915D01*
X0101250Y0029101D01*
X0101587Y0029915D01*
X0103134Y0031463D01*
X0105156Y0032300D01*
X0107344Y0032300D01*
X0107935Y0032055D01*
X0109380Y0033500D01*
X0158320Y0033500D01*
X0159550Y0032270D01*
X0162320Y0029500D01*
X0162727Y0029500D01*
X0163758Y0030530D01*
X0165375Y0031200D01*
X0167125Y0031200D01*
X0168742Y0030530D01*
X0169980Y0029292D01*
X0170650Y0027675D01*
X0170650Y0025925D01*
X0169980Y0024308D01*
X0168742Y0023070D01*
X0167125Y0022400D01*
X0165375Y0022400D01*
X0163758Y0023070D01*
X0162520Y0024308D01*
X0162109Y0025300D01*
X0160580Y0025300D01*
X0160447Y0025434D01*
X0159980Y0024308D01*
X0158742Y0023070D01*
X0157125Y0022400D01*
X0155375Y0022400D01*
X0153758Y0023070D01*
X0152520Y0024308D01*
X0151850Y0025925D01*
X0151850Y0027675D01*
X0152520Y0029292D01*
X0152527Y0029300D01*
X0149973Y0029300D01*
X0150650Y0028623D01*
X0150650Y0024977D01*
X0148073Y0022400D01*
X0144427Y0022400D01*
X0141850Y0024977D01*
X0141850Y0028623D01*
X0142527Y0029300D01*
X0129973Y0029300D01*
X0130650Y0028623D01*
X0130650Y0024977D01*
X0128073Y0022400D01*
X0124427Y0022400D01*
X0121850Y0024977D01*
X0121850Y0028623D01*
X0122527Y0029300D01*
X0111168Y0029300D01*
X0111750Y0027894D01*
X0111750Y0025706D01*
X0110913Y0023684D01*
X0109365Y0022137D01*
X0107344Y0021300D01*
X0105156Y0021300D01*
X0103134Y0022137D01*
X0102746Y0022526D01*
X0101150Y0020930D01*
X0099920Y0019700D01*
X0080580Y0019700D01*
X0061750Y0038530D01*
X0061750Y0036406D01*
X0060913Y0034384D01*
X0059365Y0032837D01*
X0057344Y0032000D01*
X0055156Y0032000D01*
X0053134Y0032837D01*
X0051587Y0034384D01*
X0050750Y0036406D01*
X0050750Y0038594D01*
X0051587Y0040615D01*
X0053134Y0042163D01*
X0053627Y0042366D01*
X0053361Y0042476D01*
X0051926Y0043911D01*
X0051150Y0045786D01*
X0051150Y0047814D01*
X0051926Y0049689D01*
X0053361Y0051124D01*
X0055236Y0051900D01*
X0057264Y0051900D01*
X0059139Y0051124D01*
X0060574Y0049689D01*
X0061350Y0047814D01*
X0061350Y0045786D01*
X0061082Y0045138D01*
X0064250Y0041970D01*
X0064250Y0042675D01*
X0064920Y0044292D01*
X0066158Y0045530D01*
X0067775Y0046200D01*
X0074725Y0046200D01*
X0076342Y0045530D01*
X0077580Y0044292D01*
X0078250Y0042675D01*
X0078250Y0040925D01*
X0077580Y0039308D01*
X0076342Y0038070D01*
X0074725Y0037400D01*
X0068820Y0037400D01*
X0080917Y0025303D01*
X0080750Y0025706D01*
X0080750Y0027894D01*
X0081587Y0029915D01*
X0083134Y0031463D01*
X0085156Y0032300D01*
X0087344Y0032300D01*
X0089365Y0031463D01*
X0089954Y0030874D01*
X0109180Y0050100D01*
X0078180Y0050100D01*
X0042988Y0085292D01*
X0042580Y0084308D01*
X0041342Y0083070D01*
X0039725Y0082400D01*
X0032775Y0082400D01*
X0031158Y0083070D01*
X0029920Y0084308D01*
X0029250Y0085925D01*
X0029250Y0087675D01*
X0029920Y0089292D01*
X0029927Y0089300D01*
X0019973Y0089300D01*
X0020650Y0088623D01*
X0020650Y0084977D01*
X0018073Y0082400D01*
X0014427Y0082400D01*
X0011850Y0084977D01*
X0011850Y0088623D01*
X0012954Y0089726D01*
X0011050Y0091630D01*
X0011050Y0091317D02*
X0011364Y0091317D01*
X0011050Y0089718D02*
X0012946Y0089718D01*
X0011850Y0088120D02*
X0011050Y0088120D01*
X0011050Y0086521D02*
X0011850Y0086521D01*
X0011905Y0084923D02*
X0011050Y0084923D01*
X0011050Y0083324D02*
X0013503Y0083324D01*
X0011050Y0081726D02*
X0046555Y0081726D01*
X0044956Y0083324D02*
X0041597Y0083324D01*
X0042835Y0084923D02*
X0043358Y0084923D01*
X0046100Y0088120D02*
X0051276Y0088120D01*
X0051150Y0087814D02*
X0051150Y0085786D01*
X0051926Y0083911D01*
X0053361Y0082476D01*
X0055236Y0081700D01*
X0057264Y0081700D01*
X0059139Y0082476D01*
X0060574Y0083911D01*
X0060817Y0084500D01*
X0065127Y0084500D01*
X0064920Y0084292D01*
X0064250Y0082675D01*
X0064250Y0080925D01*
X0064920Y0079308D01*
X0066158Y0078070D01*
X0067775Y0077400D01*
X0074725Y0077400D01*
X0076342Y0078070D01*
X0077580Y0079308D01*
X0078105Y0080575D01*
X0084764Y0073916D01*
X0084250Y0072675D01*
X0084250Y0070925D01*
X0084840Y0069500D01*
X0077660Y0069500D01*
X0078250Y0070925D01*
X0078250Y0072675D01*
X0077580Y0074292D01*
X0076342Y0075530D01*
X0074725Y0076200D01*
X0067775Y0076200D01*
X0066158Y0075530D01*
X0064920Y0074292D01*
X0064250Y0072675D01*
X0064250Y0070925D01*
X0064920Y0069308D01*
X0066158Y0068070D01*
X0067775Y0067400D01*
X0072880Y0067400D01*
X0074980Y0065300D01*
X0095920Y0065300D01*
X0097150Y0066530D01*
X0099920Y0069300D01*
X0099927Y0069300D01*
X0099920Y0069292D01*
X0099250Y0067675D01*
X0099250Y0065925D01*
X0099920Y0064308D01*
X0101158Y0063070D01*
X0102775Y0062400D01*
X0109725Y0062400D01*
X0110673Y0062792D01*
X0109080Y0061200D01*
X0102775Y0061200D01*
X0101158Y0060530D01*
X0099920Y0059292D01*
X0099250Y0057675D01*
X0099250Y0055925D01*
X0099920Y0054308D01*
X0099927Y0054300D01*
X0079920Y0054300D01*
X0041950Y0092270D01*
X0040795Y0093425D01*
X0040997Y0093628D01*
X0041250Y0094238D01*
X0041503Y0093628D01*
X0043078Y0092053D01*
X0045136Y0091200D01*
X0047364Y0091200D01*
X0049422Y0092053D01*
X0050997Y0093628D01*
X0051250Y0094238D01*
X0051503Y0093628D01*
X0053078Y0092053D01*
X0054341Y0091529D01*
X0053361Y0091124D01*
X0051926Y0089689D01*
X0051150Y0087814D01*
X0051150Y0086521D02*
X0047699Y0086521D01*
X0049297Y0084923D02*
X0051507Y0084923D01*
X0050896Y0083324D02*
X0052513Y0083324D01*
X0052494Y0081726D02*
X0055174Y0081726D01*
X0054093Y0080127D02*
X0064580Y0080127D01*
X0064250Y0081726D02*
X0057326Y0081726D01*
X0059987Y0083324D02*
X0064519Y0083324D01*
X0065699Y0078529D02*
X0055691Y0078529D01*
X0057290Y0076930D02*
X0081750Y0076930D01*
X0080152Y0078529D02*
X0076801Y0078529D01*
X0077920Y0080127D02*
X0078553Y0080127D01*
X0081296Y0083324D02*
X0084519Y0083324D01*
X0084250Y0082675D02*
X0084920Y0084292D01*
X0086158Y0085530D01*
X0087775Y0086200D01*
X0094725Y0086200D01*
X0096342Y0085530D01*
X0097580Y0084292D01*
X0098250Y0082675D01*
X0098250Y0080925D01*
X0097580Y0079308D01*
X0096342Y0078070D01*
X0094725Y0077400D01*
X0087775Y0077400D01*
X0086827Y0077792D01*
X0088420Y0076200D01*
X0094725Y0076200D01*
X0096342Y0075530D01*
X0097580Y0074292D01*
X0097988Y0073308D01*
X0098180Y0073500D01*
X0100727Y0073500D01*
X0099920Y0074308D01*
X0099250Y0075925D01*
X0099250Y0077675D01*
X0099920Y0079292D01*
X0101158Y0080530D01*
X0102775Y0081200D01*
X0109725Y0081200D01*
X0111342Y0080530D01*
X0112580Y0079292D01*
X0113105Y0078025D01*
X0124150Y0089070D01*
X0124150Y0091608D01*
X0123078Y0092053D01*
X0121503Y0093628D01*
X0121250Y0094238D01*
X0120997Y0093628D01*
X0119422Y0092053D01*
X0117364Y0091200D01*
X0115136Y0091200D01*
X0113078Y0092053D01*
X0111503Y0093628D01*
X0111250Y0094238D01*
X0110997Y0093628D01*
X0109422Y0092053D01*
X0107364Y0091200D01*
X0105136Y0091200D01*
X0103078Y0092053D01*
X0101503Y0093628D01*
X0101250Y0094238D01*
X0100997Y0093628D01*
X0099422Y0092053D01*
X0097364Y0091200D01*
X0095136Y0091200D01*
X0093078Y0092053D01*
X0091503Y0093628D01*
X0091250Y0094238D01*
X0090997Y0093628D01*
X0089422Y0092053D01*
X0087364Y0091200D01*
X0085136Y0091200D01*
X0083078Y0092053D01*
X0081503Y0093628D01*
X0081250Y0094238D01*
X0080997Y0093628D01*
X0079422Y0092053D01*
X0077364Y0091200D01*
X0075136Y0091200D01*
X0073078Y0092053D01*
X0071503Y0093628D01*
X0071250Y0094238D01*
X0070997Y0093628D01*
X0069422Y0092053D01*
X0067364Y0091200D01*
X0065136Y0091200D01*
X0063078Y0092053D01*
X0061503Y0093628D01*
X0061250Y0094238D01*
X0060997Y0093628D01*
X0059422Y0092053D01*
X0058159Y0091529D01*
X0059139Y0091124D01*
X0060574Y0089689D01*
X0060983Y0088700D01*
X0075920Y0088700D01*
X0077150Y0087470D01*
X0084642Y0079977D01*
X0084250Y0080925D01*
X0084250Y0082675D01*
X0084250Y0081726D02*
X0082894Y0081726D01*
X0084493Y0080127D02*
X0084580Y0080127D01*
X0087690Y0076930D02*
X0099250Y0076930D01*
X0099496Y0075332D02*
X0096541Y0075332D01*
X0097812Y0073733D02*
X0100494Y0073733D01*
X0099603Y0078529D02*
X0096801Y0078529D01*
X0097920Y0080127D02*
X0100755Y0080127D01*
X0098250Y0081726D02*
X0116806Y0081726D01*
X0118404Y0083324D02*
X0097981Y0083324D01*
X0096950Y0084923D02*
X0120003Y0084923D01*
X0121601Y0086521D02*
X0078099Y0086521D01*
X0079697Y0084923D02*
X0085550Y0084923D01*
X0084855Y0091317D02*
X0077645Y0091317D01*
X0080285Y0092915D02*
X0082215Y0092915D01*
X0087645Y0091317D02*
X0094855Y0091317D01*
X0097645Y0091317D02*
X0104855Y0091317D01*
X0107645Y0091317D02*
X0114855Y0091317D01*
X0117645Y0091317D02*
X0124150Y0091317D01*
X0124150Y0089718D02*
X0060544Y0089718D01*
X0058673Y0091317D02*
X0064855Y0091317D01*
X0062215Y0092915D02*
X0060285Y0092915D01*
X0061250Y0099362D02*
X0060997Y0099972D01*
X0059422Y0101547D01*
X0057364Y0102400D01*
X0055136Y0102400D01*
X0053078Y0101547D01*
X0051503Y0099972D01*
X0051250Y0099362D01*
X0050997Y0099972D01*
X0049422Y0101547D01*
X0047364Y0102400D01*
X0045136Y0102400D01*
X0043078Y0101547D01*
X0041503Y0099972D01*
X0041250Y0099362D01*
X0040997Y0099972D01*
X0039422Y0101547D01*
X0037364Y0102400D01*
X0035136Y0102400D01*
X0033078Y0101547D01*
X0031503Y0099972D01*
X0031250Y0099362D01*
X0030997Y0099972D01*
X0029422Y0101547D01*
X0027364Y0102400D01*
X0025136Y0102400D01*
X0023078Y0101547D01*
X0021503Y0099972D01*
X0021250Y0099362D01*
X0020997Y0099972D01*
X0019422Y0101547D01*
X0017364Y0102400D01*
X0015136Y0102400D01*
X0013150Y0101577D01*
X0013150Y0150530D01*
X0014205Y0151586D01*
X0015136Y0151200D01*
X0017364Y0151200D01*
X0019422Y0152053D01*
X0020997Y0153628D01*
X0021250Y0154238D01*
X0021503Y0153628D01*
X0023078Y0152053D01*
X0025136Y0151200D01*
X0027364Y0151200D01*
X0028012Y0151468D01*
X0037361Y0142119D01*
X0037361Y0141146D01*
X0037862Y0139937D01*
X0038787Y0139012D01*
X0039996Y0138511D01*
X0041304Y0138511D01*
X0042513Y0139012D01*
X0043438Y0139937D01*
X0043939Y0141146D01*
X0043939Y0142454D01*
X0043438Y0143663D01*
X0042513Y0144588D01*
X0041304Y0145089D01*
X0040331Y0145089D01*
X0033572Y0151848D01*
X0035136Y0151200D01*
X0037364Y0151200D01*
X0039422Y0152053D01*
X0040997Y0153628D01*
X0041250Y0154238D01*
X0041503Y0153628D01*
X0043078Y0152053D01*
X0045136Y0151200D01*
X0047364Y0151200D01*
X0049422Y0152053D01*
X0050997Y0153628D01*
X0051250Y0154238D01*
X0051503Y0153628D01*
X0053078Y0152053D01*
X0055136Y0151200D01*
X0057364Y0151200D01*
X0058295Y0151586D01*
X0060580Y0149300D01*
X0081546Y0149300D01*
X0081361Y0148854D01*
X0081361Y0147546D01*
X0081546Y0147100D01*
X0080001Y0147100D01*
X0079313Y0147788D01*
X0078104Y0148289D01*
X0076796Y0148289D01*
X0075587Y0147788D01*
X0074662Y0146863D01*
X0074161Y0145654D01*
X0074161Y0144346D01*
X0074662Y0143137D01*
X0075587Y0142212D01*
X0076796Y0141711D01*
X0078104Y0141711D01*
X0079313Y0142212D01*
X0080001Y0142900D01*
X0134980Y0142900D01*
X0175480Y0102400D01*
X0175136Y0102400D01*
X0173078Y0101547D01*
X0171503Y0099972D01*
X0171250Y0099362D01*
X0170997Y0099972D01*
X0169422Y0101547D01*
X0167364Y0102400D01*
X0165136Y0102400D01*
X0163078Y0101547D01*
X0161503Y0099972D01*
X0161250Y0099362D01*
X0160997Y0099972D01*
X0159422Y0101547D01*
X0157364Y0102400D01*
X0155136Y0102400D01*
X0153078Y0101547D01*
X0151503Y0099972D01*
X0151250Y0099362D01*
X0150997Y0099972D01*
X0149422Y0101547D01*
X0147364Y0102400D01*
X0145136Y0102400D01*
X0143078Y0101547D01*
X0141503Y0099972D01*
X0141250Y0099362D01*
X0140997Y0099972D01*
X0139422Y0101547D01*
X0137364Y0102400D01*
X0135136Y0102400D01*
X0133078Y0101547D01*
X0131503Y0099972D01*
X0131250Y0099362D01*
X0130997Y0099972D01*
X0129422Y0101547D01*
X0127364Y0102400D01*
X0125136Y0102400D01*
X0123078Y0101547D01*
X0121503Y0099972D01*
X0121250Y0099362D01*
X0120997Y0099972D01*
X0119422Y0101547D01*
X0117364Y0102400D01*
X0115136Y0102400D01*
X0113078Y0101547D01*
X0111503Y0099972D01*
X0111250Y0099362D01*
X0110997Y0099972D01*
X0109422Y0101547D01*
X0107364Y0102400D01*
X0105136Y0102400D01*
X0103078Y0101547D01*
X0101503Y0099972D01*
X0101250Y0099362D01*
X0100997Y0099972D01*
X0099422Y0101547D01*
X0097364Y0102400D01*
X0095136Y0102400D01*
X0093078Y0101547D01*
X0091503Y0099972D01*
X0091250Y0099362D01*
X0090997Y0099972D01*
X0089422Y0101547D01*
X0087364Y0102400D01*
X0085136Y0102400D01*
X0083078Y0101547D01*
X0081503Y0099972D01*
X0081250Y0099362D01*
X0080997Y0099972D01*
X0079422Y0101547D01*
X0077364Y0102400D01*
X0075136Y0102400D01*
X0073078Y0101547D01*
X0071503Y0099972D01*
X0071250Y0099362D01*
X0070997Y0099972D01*
X0069422Y0101547D01*
X0067364Y0102400D01*
X0065136Y0102400D01*
X0063078Y0101547D01*
X0061503Y0099972D01*
X0061250Y0099362D01*
X0060062Y0100908D02*
X0062438Y0100908D01*
X0070062Y0100908D02*
X0072438Y0100908D01*
X0080062Y0100908D02*
X0082438Y0100908D01*
X0090062Y0100908D02*
X0092438Y0100908D01*
X0100062Y0100908D02*
X0102438Y0100908D01*
X0110062Y0100908D02*
X0112438Y0100908D01*
X0120062Y0100908D02*
X0122438Y0100908D01*
X0130062Y0100908D02*
X0132438Y0100908D01*
X0131250Y0094238D02*
X0131503Y0093628D01*
X0133078Y0092053D01*
X0135136Y0091200D01*
X0137364Y0091200D01*
X0139422Y0092053D01*
X0140997Y0093628D01*
X0141250Y0094238D01*
X0141503Y0093628D01*
X0141630Y0093500D01*
X0141380Y0093500D01*
X0140150Y0092270D01*
X0112858Y0064977D01*
X0113250Y0065925D01*
X0113250Y0067675D01*
X0112580Y0069292D01*
X0111446Y0070426D01*
X0111550Y0070530D01*
X0128350Y0087330D01*
X0128350Y0091608D01*
X0129422Y0092053D01*
X0130997Y0093628D01*
X0131250Y0094238D01*
X0130285Y0092915D02*
X0132215Y0092915D01*
X0134855Y0091317D02*
X0128350Y0091317D01*
X0128350Y0089718D02*
X0137598Y0089718D01*
X0137645Y0091317D02*
X0139197Y0091317D01*
X0140285Y0092915D02*
X0140795Y0092915D01*
X0143120Y0089300D02*
X0147699Y0089300D01*
X0148387Y0088612D01*
X0148461Y0088581D01*
X0142550Y0082670D01*
X0142550Y0080930D01*
X0142550Y0079323D01*
X0141342Y0080530D01*
X0139725Y0081200D01*
X0135020Y0081200D01*
X0143120Y0089300D01*
X0141939Y0088120D02*
X0148000Y0088120D01*
X0146401Y0086521D02*
X0140341Y0086521D01*
X0138742Y0084923D02*
X0144803Y0084923D01*
X0143204Y0083324D02*
X0137144Y0083324D01*
X0135545Y0081726D02*
X0142550Y0081726D01*
X0142550Y0080127D02*
X0141745Y0080127D01*
X0147545Y0081726D02*
X0170550Y0081726D01*
X0170550Y0083324D02*
X0149144Y0083324D01*
X0150742Y0084923D02*
X0170550Y0084923D01*
X0170550Y0086521D02*
X0152341Y0086521D01*
X0153939Y0088120D02*
X0172000Y0088120D01*
X0173598Y0089718D02*
X0155538Y0089718D01*
X0157645Y0091317D02*
X0164855Y0091317D01*
X0167645Y0091317D02*
X0174855Y0091317D01*
X0172215Y0092915D02*
X0170285Y0092915D01*
X0170062Y0100908D02*
X0172438Y0100908D01*
X0175374Y0102506D02*
X0013150Y0102506D01*
X0013150Y0104105D02*
X0173775Y0104105D01*
X0172177Y0105703D02*
X0013150Y0105703D01*
X0013150Y0107302D02*
X0170578Y0107302D01*
X0168980Y0108900D02*
X0013150Y0108900D01*
X0013150Y0110499D02*
X0167381Y0110499D01*
X0165783Y0112097D02*
X0013150Y0112097D01*
X0013150Y0113696D02*
X0164184Y0113696D01*
X0162586Y0115294D02*
X0013150Y0115294D01*
X0013150Y0116893D02*
X0160987Y0116893D01*
X0159389Y0118491D02*
X0013150Y0118491D01*
X0013150Y0120090D02*
X0157790Y0120090D01*
X0156192Y0121688D02*
X0013150Y0121688D01*
X0013150Y0123287D02*
X0154593Y0123287D01*
X0152995Y0124885D02*
X0013150Y0124885D01*
X0013150Y0126484D02*
X0151396Y0126484D01*
X0149798Y0128082D02*
X0013150Y0128082D01*
X0013150Y0129681D02*
X0148199Y0129681D01*
X0146601Y0131279D02*
X0013150Y0131279D01*
X0013150Y0132878D02*
X0145002Y0132878D01*
X0143404Y0134476D02*
X0013150Y0134476D01*
X0013150Y0136075D02*
X0141805Y0136075D01*
X0140207Y0137673D02*
X0013150Y0137673D01*
X0013150Y0139272D02*
X0038527Y0139272D01*
X0037475Y0140870D02*
X0013150Y0140870D01*
X0013150Y0142469D02*
X0037011Y0142469D01*
X0035413Y0144068D02*
X0013150Y0144068D01*
X0013150Y0145666D02*
X0033814Y0145666D01*
X0032216Y0147265D02*
X0013150Y0147265D01*
X0013150Y0148863D02*
X0030617Y0148863D01*
X0029019Y0150462D02*
X0013150Y0150462D01*
X0011050Y0154370D02*
X0011050Y0154720D01*
X0011153Y0154473D01*
X0011050Y0154370D01*
X0011050Y0158880D02*
X0011050Y0166343D01*
X0011246Y0166147D01*
X0013777Y0164686D01*
X0016600Y0163929D01*
X0019522Y0163929D01*
X0022345Y0164686D01*
X0024876Y0166147D01*
X0026943Y0168213D01*
X0028404Y0170744D01*
X0029160Y0173567D01*
X0029160Y0176490D01*
X0028404Y0179312D01*
X0026943Y0181843D01*
X0026747Y0182039D01*
X0170793Y0182039D01*
X0170597Y0181843D01*
X0169136Y0179312D01*
X0168379Y0176490D01*
X0168379Y0173567D01*
X0169136Y0170744D01*
X0170597Y0168213D01*
X0172663Y0166147D01*
X0175194Y0164686D01*
X0178017Y0163929D01*
X0180940Y0163929D01*
X0183762Y0164686D01*
X0186293Y0166147D01*
X0186489Y0166343D01*
X0186489Y0102130D01*
X0137403Y0151216D01*
X0139422Y0152053D01*
X0140997Y0153628D01*
X0141250Y0154238D01*
X0141503Y0153628D01*
X0143078Y0152053D01*
X0145136Y0151200D01*
X0147364Y0151200D01*
X0149422Y0152053D01*
X0150997Y0153628D01*
X0151250Y0154238D01*
X0151503Y0153628D01*
X0153078Y0152053D01*
X0155136Y0151200D01*
X0157364Y0151200D01*
X0159422Y0152053D01*
X0160997Y0153628D01*
X0161250Y0154238D01*
X0161503Y0153628D01*
X0163078Y0152053D01*
X0165136Y0151200D01*
X0167364Y0151200D01*
X0169422Y0152053D01*
X0170997Y0153628D01*
X0171250Y0154238D01*
X0171503Y0153628D01*
X0173078Y0152053D01*
X0175136Y0151200D01*
X0177364Y0151200D01*
X0179422Y0152053D01*
X0180997Y0153628D01*
X0181850Y0155686D01*
X0181850Y0157914D01*
X0180997Y0159972D01*
X0179422Y0161547D01*
X0177364Y0162400D01*
X0175136Y0162400D01*
X0173078Y0161547D01*
X0171503Y0159972D01*
X0171250Y0159362D01*
X0170997Y0159972D01*
X0169422Y0161547D01*
X0167364Y0162400D01*
X0165136Y0162400D01*
X0163078Y0161547D01*
X0161503Y0159972D01*
X0161250Y0159362D01*
X0160997Y0159972D01*
X0159422Y0161547D01*
X0157364Y0162400D01*
X0155136Y0162400D01*
X0153078Y0161547D01*
X0151503Y0159972D01*
X0151250Y0159362D01*
X0150997Y0159972D01*
X0149422Y0161547D01*
X0147364Y0162400D01*
X0145136Y0162400D01*
X0143078Y0161547D01*
X0141503Y0159972D01*
X0141250Y0159362D01*
X0140997Y0159972D01*
X0139422Y0161547D01*
X0137364Y0162400D01*
X0135136Y0162400D01*
X0133078Y0161547D01*
X0131503Y0159972D01*
X0131250Y0159362D01*
X0130997Y0159972D01*
X0129422Y0161547D01*
X0127364Y0162400D01*
X0125136Y0162400D01*
X0123078Y0161547D01*
X0121503Y0159972D01*
X0121250Y0159362D01*
X0120997Y0159972D01*
X0119422Y0161547D01*
X0117364Y0162400D01*
X0115136Y0162400D01*
X0113078Y0161547D01*
X0111503Y0159972D01*
X0111250Y0159362D01*
X0110997Y0159972D01*
X0109422Y0161547D01*
X0107364Y0162400D01*
X0105136Y0162400D01*
X0103078Y0161547D01*
X0101503Y0159972D01*
X0101250Y0159362D01*
X0100997Y0159972D01*
X0099422Y0161547D01*
X0097364Y0162400D01*
X0095136Y0162400D01*
X0093078Y0161547D01*
X0091503Y0159972D01*
X0091250Y0159362D01*
X0090997Y0159972D01*
X0089422Y0161547D01*
X0087364Y0162400D01*
X0085136Y0162400D01*
X0083078Y0161547D01*
X0081503Y0159972D01*
X0081250Y0159362D01*
X0080997Y0159972D01*
X0079422Y0161547D01*
X0077364Y0162400D01*
X0075136Y0162400D01*
X0073078Y0161547D01*
X0071503Y0159972D01*
X0071250Y0159362D01*
X0070997Y0159972D01*
X0069422Y0161547D01*
X0067364Y0162400D01*
X0065136Y0162400D01*
X0063078Y0161547D01*
X0061503Y0159972D01*
X0061250Y0159362D01*
X0060997Y0159972D01*
X0059422Y0161547D01*
X0057364Y0162400D01*
X0055136Y0162400D01*
X0053078Y0161547D01*
X0051503Y0159972D01*
X0051250Y0159362D01*
X0050997Y0159972D01*
X0049422Y0161547D01*
X0047364Y0162400D01*
X0045136Y0162400D01*
X0043078Y0161547D01*
X0041503Y0159972D01*
X0041250Y0159362D01*
X0040997Y0159972D01*
X0039422Y0161547D01*
X0037364Y0162400D01*
X0035136Y0162400D01*
X0033078Y0161547D01*
X0031503Y0159972D01*
X0031250Y0159362D01*
X0030997Y0159972D01*
X0029422Y0161547D01*
X0027364Y0162400D01*
X0025136Y0162400D01*
X0023078Y0161547D01*
X0021503Y0159972D01*
X0021250Y0159362D01*
X0020997Y0159972D01*
X0019422Y0161547D01*
X0017364Y0162400D01*
X0015136Y0162400D01*
X0013078Y0161547D01*
X0011503Y0159972D01*
X0011050Y0158880D01*
X0011050Y0160053D02*
X0011583Y0160053D01*
X0011050Y0161651D02*
X0013328Y0161651D01*
X0011050Y0163250D02*
X0186489Y0163250D01*
X0186489Y0164848D02*
X0184044Y0164848D01*
X0186489Y0161651D02*
X0179172Y0161651D01*
X0180917Y0160053D02*
X0186489Y0160053D01*
X0186489Y0158454D02*
X0181626Y0158454D01*
X0181850Y0156856D02*
X0186489Y0156856D01*
X0186489Y0155257D02*
X0181672Y0155257D01*
X0181010Y0153659D02*
X0186489Y0153659D01*
X0186489Y0152060D02*
X0179430Y0152060D01*
X0173070Y0152060D02*
X0169430Y0152060D01*
X0171010Y0153659D02*
X0171490Y0153659D01*
X0171583Y0160053D02*
X0170917Y0160053D01*
X0169172Y0161651D02*
X0173328Y0161651D01*
X0174913Y0164848D02*
X0022627Y0164848D01*
X0025176Y0166447D02*
X0172363Y0166447D01*
X0170765Y0168045D02*
X0026775Y0168045D01*
X0027768Y0169644D02*
X0169771Y0169644D01*
X0169002Y0171242D02*
X0028537Y0171242D01*
X0028966Y0172841D02*
X0168574Y0172841D01*
X0168379Y0174439D02*
X0029160Y0174439D01*
X0029160Y0176038D02*
X0168379Y0176038D01*
X0168686Y0177636D02*
X0028853Y0177636D01*
X0028425Y0179235D02*
X0169115Y0179235D01*
X0170014Y0180833D02*
X0027526Y0180833D01*
X0013495Y0164848D02*
X0011050Y0164848D01*
X0019172Y0161651D02*
X0023328Y0161651D01*
X0021583Y0160053D02*
X0020917Y0160053D01*
X0021010Y0153659D02*
X0021490Y0153659D01*
X0023070Y0152060D02*
X0019430Y0152060D01*
X0029172Y0161651D02*
X0033328Y0161651D01*
X0031583Y0160053D02*
X0030917Y0160053D01*
X0031250Y0154238D02*
X0031230Y0154190D01*
X0031298Y0154122D01*
X0031250Y0154238D01*
X0034958Y0150462D02*
X0059419Y0150462D01*
X0053070Y0152060D02*
X0049430Y0152060D01*
X0051010Y0153659D02*
X0051490Y0153659D01*
X0051583Y0160053D02*
X0050917Y0160053D01*
X0049172Y0161651D02*
X0053328Y0161651D01*
X0059172Y0161651D02*
X0063328Y0161651D01*
X0061583Y0160053D02*
X0060917Y0160053D01*
X0069172Y0161651D02*
X0073328Y0161651D01*
X0071583Y0160053D02*
X0070917Y0160053D01*
X0071250Y0154238D02*
X0071503Y0153628D01*
X0071630Y0153500D01*
X0070870Y0153500D01*
X0070997Y0153628D01*
X0071250Y0154238D01*
X0071010Y0153659D02*
X0071490Y0153659D01*
X0075063Y0147265D02*
X0038155Y0147265D01*
X0036557Y0148863D02*
X0081365Y0148863D01*
X0081478Y0147265D02*
X0079837Y0147265D01*
X0079570Y0142469D02*
X0135411Y0142469D01*
X0137010Y0140870D02*
X0043825Y0140870D01*
X0043933Y0142469D02*
X0075330Y0142469D01*
X0074276Y0144068D02*
X0043034Y0144068D01*
X0039754Y0145666D02*
X0074166Y0145666D01*
X0080870Y0153500D02*
X0080997Y0153628D01*
X0081250Y0154238D01*
X0081503Y0153628D01*
X0081630Y0153500D01*
X0080870Y0153500D01*
X0081010Y0153659D02*
X0081490Y0153659D01*
X0081583Y0160053D02*
X0080917Y0160053D01*
X0079172Y0161651D02*
X0083328Y0161651D01*
X0089172Y0161651D02*
X0093328Y0161651D01*
X0091583Y0160053D02*
X0090917Y0160053D01*
X0091250Y0154238D02*
X0091503Y0153628D01*
X0091630Y0153500D01*
X0090870Y0153500D01*
X0090997Y0153628D01*
X0091250Y0154238D01*
X0091010Y0153659D02*
X0091490Y0153659D01*
X0099172Y0161651D02*
X0103328Y0161651D01*
X0101583Y0160053D02*
X0100917Y0160053D01*
X0101250Y0154238D02*
X0101503Y0153628D01*
X0101630Y0153500D01*
X0100870Y0153500D01*
X0100997Y0153628D01*
X0101250Y0154238D01*
X0101010Y0153659D02*
X0101490Y0153659D01*
X0109172Y0161651D02*
X0113328Y0161651D01*
X0111583Y0160053D02*
X0110917Y0160053D01*
X0111250Y0154238D02*
X0111503Y0153628D01*
X0111630Y0153500D01*
X0110870Y0153500D01*
X0110997Y0153628D01*
X0111250Y0154238D01*
X0111010Y0153659D02*
X0111490Y0153659D01*
X0119172Y0161651D02*
X0123328Y0161651D01*
X0121583Y0160053D02*
X0120917Y0160053D01*
X0121250Y0154238D02*
X0121503Y0153628D01*
X0121630Y0153500D01*
X0120870Y0153500D01*
X0120997Y0153628D01*
X0121250Y0154238D01*
X0121010Y0153659D02*
X0121490Y0153659D01*
X0129172Y0161651D02*
X0133328Y0161651D01*
X0131583Y0160053D02*
X0130917Y0160053D01*
X0131250Y0154238D02*
X0131503Y0153628D01*
X0131630Y0153500D01*
X0130870Y0153500D01*
X0130997Y0153628D01*
X0131250Y0154238D01*
X0131010Y0153659D02*
X0131490Y0153659D01*
X0138158Y0150462D02*
X0186489Y0150462D01*
X0186489Y0148863D02*
X0139757Y0148863D01*
X0141355Y0147265D02*
X0186489Y0147265D01*
X0186489Y0145666D02*
X0142954Y0145666D01*
X0144552Y0144068D02*
X0186489Y0144068D01*
X0186489Y0142469D02*
X0146151Y0142469D01*
X0147749Y0140870D02*
X0186489Y0140870D01*
X0186489Y0139272D02*
X0149348Y0139272D01*
X0150946Y0137673D02*
X0186489Y0137673D01*
X0186489Y0136075D02*
X0152545Y0136075D01*
X0154143Y0134476D02*
X0186489Y0134476D01*
X0186489Y0132878D02*
X0155742Y0132878D01*
X0157340Y0131279D02*
X0186489Y0131279D01*
X0186489Y0129681D02*
X0158939Y0129681D01*
X0160537Y0128082D02*
X0186489Y0128082D01*
X0186489Y0126484D02*
X0162136Y0126484D01*
X0163734Y0124885D02*
X0186489Y0124885D01*
X0186489Y0123287D02*
X0165333Y0123287D01*
X0166931Y0121688D02*
X0186489Y0121688D01*
X0186489Y0120090D02*
X0168530Y0120090D01*
X0170129Y0118491D02*
X0186489Y0118491D01*
X0186489Y0116893D02*
X0171727Y0116893D01*
X0173326Y0115294D02*
X0186489Y0115294D01*
X0186489Y0113696D02*
X0174924Y0113696D01*
X0176523Y0112097D02*
X0186489Y0112097D01*
X0186489Y0110499D02*
X0178121Y0110499D01*
X0179720Y0108900D02*
X0186489Y0108900D01*
X0186489Y0107302D02*
X0181318Y0107302D01*
X0182917Y0105703D02*
X0186489Y0105703D01*
X0186489Y0104105D02*
X0184515Y0104105D01*
X0186114Y0102506D02*
X0186489Y0102506D01*
X0186489Y0091870D02*
X0186489Y0080383D01*
X0186342Y0080530D01*
X0184725Y0081200D01*
X0183550Y0081200D01*
X0183550Y0088930D01*
X0185520Y0090900D01*
X0186489Y0091870D01*
X0186489Y0091317D02*
X0185936Y0091317D01*
X0186489Y0089718D02*
X0184338Y0089718D01*
X0183550Y0088120D02*
X0186489Y0088120D01*
X0186489Y0086521D02*
X0183550Y0086521D01*
X0183550Y0084923D02*
X0186489Y0084923D01*
X0186489Y0083324D02*
X0183550Y0083324D01*
X0183550Y0081726D02*
X0186489Y0081726D01*
X0179350Y0081726D02*
X0176350Y0081726D01*
X0176350Y0080610D02*
X0176350Y0084130D01*
X0179350Y0087130D01*
X0179350Y0081200D01*
X0177775Y0081200D01*
X0176350Y0080610D01*
X0176350Y0083324D02*
X0179350Y0083324D01*
X0179350Y0084923D02*
X0177142Y0084923D01*
X0178741Y0086521D02*
X0179350Y0086521D01*
X0170407Y0080127D02*
X0156745Y0080127D01*
X0157897Y0078529D02*
X0168809Y0078529D01*
X0167210Y0076930D02*
X0158250Y0076930D01*
X0158004Y0075332D02*
X0165612Y0075332D01*
X0164013Y0073733D02*
X0157006Y0073733D01*
X0156328Y0070536D02*
X0160816Y0070536D01*
X0159218Y0068937D02*
X0157727Y0068937D01*
X0161960Y0065740D02*
X0178550Y0065740D01*
X0178550Y0064142D02*
X0160362Y0064142D01*
X0158763Y0062543D02*
X0178550Y0062543D01*
X0177159Y0060945D02*
X0157165Y0060945D01*
X0157526Y0059346D02*
X0174974Y0059346D01*
X0174280Y0057748D02*
X0158220Y0057748D01*
X0158250Y0056149D02*
X0174250Y0056149D01*
X0174819Y0054551D02*
X0157681Y0054551D01*
X0156059Y0052952D02*
X0176441Y0052952D01*
X0182750Y0061200D02*
X0182750Y0069870D01*
X0180220Y0072400D01*
X0184725Y0072400D01*
X0186342Y0073070D01*
X0186489Y0073217D01*
X0186489Y0060383D01*
X0186342Y0060530D01*
X0184725Y0061200D01*
X0182750Y0061200D01*
X0182750Y0062543D02*
X0186489Y0062543D01*
X0186489Y0060945D02*
X0185341Y0060945D01*
X0186489Y0064142D02*
X0182750Y0064142D01*
X0182750Y0065740D02*
X0186489Y0065740D01*
X0186489Y0067339D02*
X0182750Y0067339D01*
X0182750Y0068937D02*
X0186489Y0068937D01*
X0186489Y0070536D02*
X0182084Y0070536D01*
X0180485Y0072134D02*
X0186489Y0072134D01*
X0178550Y0067339D02*
X0163559Y0067339D01*
X0165157Y0068937D02*
X0177743Y0068937D01*
X0176144Y0070536D02*
X0166756Y0070536D01*
X0168354Y0072134D02*
X0174546Y0072134D01*
X0172947Y0073733D02*
X0169953Y0073733D01*
X0171551Y0075332D02*
X0172150Y0075332D01*
X0162415Y0072134D02*
X0142754Y0072134D01*
X0141156Y0070536D02*
X0146172Y0070536D01*
X0144773Y0068937D02*
X0133957Y0068937D01*
X0132359Y0067339D02*
X0144250Y0067339D01*
X0144326Y0065740D02*
X0130760Y0065740D01*
X0129162Y0064142D02*
X0145086Y0064142D01*
X0147428Y0062543D02*
X0127563Y0062543D01*
X0125965Y0060945D02*
X0132159Y0060945D01*
X0132775Y0061200D02*
X0131158Y0060530D01*
X0129920Y0059292D01*
X0129250Y0057675D01*
X0129250Y0055925D01*
X0129920Y0054308D01*
X0131158Y0053070D01*
X0132775Y0052400D01*
X0139725Y0052400D01*
X0141342Y0053070D01*
X0142580Y0054308D01*
X0143250Y0055925D01*
X0143250Y0057675D01*
X0142580Y0059292D01*
X0141342Y0060530D01*
X0139725Y0061200D01*
X0132775Y0061200D01*
X0129974Y0059346D02*
X0124366Y0059346D01*
X0122768Y0057748D02*
X0129280Y0057748D01*
X0129250Y0056149D02*
X0121169Y0056149D01*
X0119571Y0054551D02*
X0129819Y0054551D01*
X0131441Y0052952D02*
X0117972Y0052952D01*
X0116374Y0051354D02*
X0186489Y0051354D01*
X0186489Y0052952D02*
X0186059Y0052952D01*
X0186489Y0049755D02*
X0114775Y0049755D01*
X0113177Y0048157D02*
X0186489Y0048157D01*
X0186489Y0046558D02*
X0111578Y0046558D01*
X0109980Y0044960D02*
X0186489Y0044960D01*
X0186489Y0043361D02*
X0108381Y0043361D01*
X0106783Y0041763D02*
X0186489Y0041763D01*
X0186489Y0040164D02*
X0105184Y0040164D01*
X0103586Y0038566D02*
X0186489Y0038566D01*
X0186489Y0036967D02*
X0101987Y0036967D01*
X0100389Y0035369D02*
X0186489Y0035369D01*
X0186489Y0033770D02*
X0098790Y0033770D01*
X0097654Y0032172D02*
X0104846Y0032172D01*
X0107654Y0032172D02*
X0108052Y0032172D01*
X0111302Y0028975D02*
X0122202Y0028975D01*
X0121850Y0027376D02*
X0111750Y0027376D01*
X0111750Y0025778D02*
X0121850Y0025778D01*
X0122648Y0024179D02*
X0111118Y0024179D01*
X0109809Y0022581D02*
X0124247Y0022581D01*
X0128253Y0022581D02*
X0144247Y0022581D01*
X0142648Y0024179D02*
X0129852Y0024179D01*
X0130650Y0025778D02*
X0141850Y0025778D01*
X0141850Y0027376D02*
X0130650Y0027376D01*
X0130298Y0028975D02*
X0142202Y0028975D01*
X0150298Y0028975D02*
X0152388Y0028975D01*
X0151850Y0027376D02*
X0150650Y0027376D01*
X0150650Y0025778D02*
X0151911Y0025778D01*
X0152648Y0024179D02*
X0149852Y0024179D01*
X0148253Y0022581D02*
X0154939Y0022581D01*
X0157561Y0022581D02*
X0164939Y0022581D01*
X0167561Y0022581D02*
X0172816Y0022581D01*
X0171153Y0020982D02*
X0101202Y0020982D01*
X0100255Y0030573D02*
X0102245Y0030573D01*
X0096047Y0036967D02*
X0069253Y0036967D01*
X0070851Y0035369D02*
X0094449Y0035369D01*
X0094725Y0037400D02*
X0096342Y0038070D01*
X0097580Y0039308D01*
X0098250Y0040925D01*
X0098250Y0042675D01*
X0097580Y0044292D01*
X0096342Y0045530D01*
X0094725Y0046200D01*
X0087775Y0046200D01*
X0086158Y0045530D01*
X0084920Y0044292D01*
X0084250Y0042675D01*
X0084250Y0040925D01*
X0084920Y0039308D01*
X0086158Y0038070D01*
X0087775Y0037400D01*
X0094725Y0037400D01*
X0096838Y0038566D02*
X0097646Y0038566D01*
X0097935Y0040164D02*
X0099244Y0040164D01*
X0098250Y0041763D02*
X0100843Y0041763D01*
X0102441Y0043361D02*
X0097966Y0043361D01*
X0096913Y0044960D02*
X0104040Y0044960D01*
X0105638Y0046558D02*
X0061350Y0046558D01*
X0061260Y0044960D02*
X0065587Y0044960D01*
X0064534Y0043361D02*
X0062859Y0043361D01*
X0061208Y0048157D02*
X0107237Y0048157D01*
X0108836Y0049755D02*
X0060507Y0049755D01*
X0058583Y0051354D02*
X0076926Y0051354D01*
X0075328Y0052952D02*
X0039667Y0052952D01*
X0039535Y0053085D02*
X0041200Y0054750D01*
X0041200Y0058850D01*
X0038300Y0061750D01*
X0034200Y0061750D01*
X0031300Y0058850D01*
X0031300Y0054750D01*
X0034200Y0051850D01*
X0034830Y0051850D01*
X0034930Y0051750D01*
X0034200Y0051750D01*
X0031300Y0048850D01*
X0031300Y0044750D01*
X0034200Y0041850D01*
X0034770Y0041850D01*
X0033834Y0041463D01*
X0032287Y0039915D01*
X0031450Y0037894D01*
X0031450Y0035706D01*
X0032287Y0033684D01*
X0033834Y0032137D01*
X0035856Y0031300D01*
X0038044Y0031300D01*
X0040065Y0032137D01*
X0041613Y0033684D01*
X0042450Y0035706D01*
X0042450Y0037894D01*
X0042117Y0038697D01*
X0043550Y0040130D01*
X0043550Y0049070D01*
X0042320Y0050300D01*
X0039535Y0053085D01*
X0041001Y0054551D02*
X0073729Y0054551D01*
X0072131Y0056149D02*
X0041200Y0056149D01*
X0041200Y0057748D02*
X0070532Y0057748D01*
X0068934Y0059346D02*
X0040704Y0059346D01*
X0039105Y0060945D02*
X0067335Y0060945D01*
X0065737Y0062543D02*
X0040071Y0062543D01*
X0039725Y0062400D02*
X0041342Y0063070D01*
X0042580Y0064308D01*
X0043250Y0065925D01*
X0043250Y0067675D01*
X0042580Y0069292D01*
X0041342Y0070530D01*
X0039725Y0071200D01*
X0032775Y0071200D01*
X0031158Y0070530D01*
X0029920Y0069292D01*
X0029250Y0067675D01*
X0029250Y0065925D01*
X0029920Y0064308D01*
X0031158Y0063070D01*
X0032775Y0062400D01*
X0039725Y0062400D01*
X0042414Y0064142D02*
X0064138Y0064142D01*
X0062540Y0065740D02*
X0043174Y0065740D01*
X0043250Y0067339D02*
X0060941Y0067339D01*
X0059343Y0068937D02*
X0042727Y0068937D01*
X0041328Y0070536D02*
X0057744Y0070536D01*
X0056146Y0072134D02*
X0011050Y0072134D01*
X0011050Y0070536D02*
X0013763Y0070536D01*
X0014427Y0071200D02*
X0011850Y0068623D01*
X0011850Y0064977D01*
X0014427Y0062400D01*
X0018073Y0062400D01*
X0020650Y0064977D01*
X0020650Y0068623D01*
X0018073Y0071200D01*
X0014427Y0071200D01*
X0012165Y0068937D02*
X0011050Y0068937D01*
X0011050Y0067339D02*
X0011850Y0067339D01*
X0011850Y0065740D02*
X0011050Y0065740D01*
X0011050Y0064142D02*
X0012686Y0064142D01*
X0014284Y0062543D02*
X0011050Y0062543D01*
X0011050Y0060945D02*
X0033395Y0060945D01*
X0032428Y0062543D02*
X0018216Y0062543D01*
X0019814Y0064142D02*
X0030086Y0064142D01*
X0029326Y0065740D02*
X0020650Y0065740D01*
X0020650Y0067339D02*
X0029250Y0067339D01*
X0029773Y0068937D02*
X0020335Y0068937D01*
X0018737Y0070536D02*
X0031172Y0070536D01*
X0032775Y0072400D02*
X0031158Y0073070D01*
X0029920Y0074308D01*
X0029250Y0075925D01*
X0029250Y0077675D01*
X0029920Y0079292D01*
X0031158Y0080530D01*
X0032775Y0081200D01*
X0039725Y0081200D01*
X0041342Y0080530D01*
X0042580Y0079292D01*
X0043250Y0077675D01*
X0043250Y0075925D01*
X0042580Y0074308D01*
X0041342Y0073070D01*
X0039725Y0072400D01*
X0032775Y0072400D01*
X0030494Y0073733D02*
X0011050Y0073733D01*
X0011050Y0075332D02*
X0029496Y0075332D01*
X0029250Y0076930D02*
X0011050Y0076930D01*
X0011050Y0078529D02*
X0029603Y0078529D01*
X0030755Y0080127D02*
X0011050Y0080127D01*
X0018997Y0083324D02*
X0030903Y0083324D01*
X0029665Y0084923D02*
X0020595Y0084923D01*
X0020650Y0086521D02*
X0029250Y0086521D01*
X0029434Y0088120D02*
X0020650Y0088120D01*
X0020870Y0093500D02*
X0020997Y0093628D01*
X0021250Y0094238D01*
X0021503Y0093628D01*
X0021630Y0093500D01*
X0020870Y0093500D01*
X0020062Y0100908D02*
X0022438Y0100908D01*
X0030062Y0100908D02*
X0032438Y0100908D01*
X0031250Y0094238D02*
X0031503Y0093628D01*
X0031630Y0093500D01*
X0030870Y0093500D01*
X0030997Y0093628D01*
X0031250Y0094238D01*
X0040062Y0100908D02*
X0042438Y0100908D01*
X0050062Y0100908D02*
X0052438Y0100908D01*
X0052215Y0092915D02*
X0050285Y0092915D01*
X0047645Y0091317D02*
X0053827Y0091317D01*
X0051956Y0089718D02*
X0044502Y0089718D01*
X0044855Y0091317D02*
X0042903Y0091317D01*
X0042215Y0092915D02*
X0041305Y0092915D01*
X0041745Y0080127D02*
X0048153Y0080127D01*
X0049752Y0078529D02*
X0042897Y0078529D01*
X0043250Y0076930D02*
X0051350Y0076930D01*
X0052949Y0075332D02*
X0043004Y0075332D01*
X0042006Y0073733D02*
X0054547Y0073733D01*
X0058888Y0075332D02*
X0065959Y0075332D01*
X0064688Y0073733D02*
X0060487Y0073733D01*
X0062085Y0072134D02*
X0064250Y0072134D01*
X0064411Y0070536D02*
X0063684Y0070536D01*
X0065282Y0068937D02*
X0065290Y0068937D01*
X0066881Y0067339D02*
X0072941Y0067339D01*
X0074540Y0065740D02*
X0068479Y0065740D01*
X0070078Y0064142D02*
X0100086Y0064142D01*
X0099326Y0065740D02*
X0096360Y0065740D01*
X0097959Y0067339D02*
X0099250Y0067339D01*
X0099557Y0068937D02*
X0099773Y0068937D01*
X0102428Y0062543D02*
X0071676Y0062543D01*
X0073275Y0060945D02*
X0102159Y0060945D01*
X0099974Y0059346D02*
X0074873Y0059346D01*
X0076472Y0057748D02*
X0099280Y0057748D01*
X0099250Y0056149D02*
X0078070Y0056149D01*
X0079669Y0054551D02*
X0099819Y0054551D01*
X0110071Y0062543D02*
X0110424Y0062543D01*
X0113174Y0065740D02*
X0113621Y0065740D01*
X0113250Y0067339D02*
X0115219Y0067339D01*
X0116818Y0068937D02*
X0112727Y0068937D01*
X0111556Y0070536D02*
X0118416Y0070536D01*
X0120015Y0072134D02*
X0113154Y0072134D01*
X0114753Y0073733D02*
X0121613Y0073733D01*
X0123212Y0075332D02*
X0116351Y0075332D01*
X0117950Y0076930D02*
X0124810Y0076930D01*
X0126409Y0078529D02*
X0119548Y0078529D01*
X0121147Y0080127D02*
X0128007Y0080127D01*
X0129606Y0081726D02*
X0122745Y0081726D01*
X0124344Y0083324D02*
X0131204Y0083324D01*
X0132803Y0084923D02*
X0125942Y0084923D01*
X0127541Y0086521D02*
X0134401Y0086521D01*
X0136000Y0088120D02*
X0128350Y0088120D01*
X0123200Y0088120D02*
X0076500Y0088120D01*
X0074855Y0091317D02*
X0067645Y0091317D01*
X0070285Y0092915D02*
X0072215Y0092915D01*
X0090285Y0092915D02*
X0092215Y0092915D01*
X0100285Y0092915D02*
X0102215Y0092915D01*
X0110285Y0092915D02*
X0112215Y0092915D01*
X0120285Y0092915D02*
X0122215Y0092915D01*
X0115207Y0080127D02*
X0111745Y0080127D01*
X0112897Y0078529D02*
X0113609Y0078529D01*
X0122757Y0068937D02*
X0124018Y0068937D01*
X0124356Y0070536D02*
X0125616Y0070536D01*
X0125954Y0072134D02*
X0127215Y0072134D01*
X0127553Y0073733D02*
X0128813Y0073733D01*
X0129764Y0074684D02*
X0129395Y0075575D01*
X0112736Y0058916D01*
X0113105Y0058025D01*
X0129764Y0074684D01*
X0129496Y0075332D02*
X0129151Y0075332D01*
X0122419Y0067339D02*
X0121159Y0067339D01*
X0120821Y0065740D02*
X0119560Y0065740D01*
X0119222Y0064142D02*
X0117962Y0064142D01*
X0117624Y0062543D02*
X0116363Y0062543D01*
X0116025Y0060945D02*
X0114765Y0060945D01*
X0114427Y0059346D02*
X0113166Y0059346D01*
X0140341Y0060945D02*
X0147159Y0060945D01*
X0144974Y0059346D02*
X0142526Y0059346D01*
X0143220Y0057748D02*
X0144280Y0057748D01*
X0144250Y0056149D02*
X0143250Y0056149D01*
X0142681Y0054551D02*
X0144819Y0054551D01*
X0146441Y0052952D02*
X0141059Y0052952D01*
X0144353Y0073733D02*
X0145494Y0073733D01*
X0160285Y0092915D02*
X0162215Y0092915D01*
X0162438Y0100908D02*
X0160062Y0100908D01*
X0152438Y0100908D02*
X0150062Y0100908D01*
X0142438Y0100908D02*
X0140062Y0100908D01*
X0138608Y0139272D02*
X0042773Y0139272D01*
X0043070Y0152060D02*
X0039430Y0152060D01*
X0041010Y0153659D02*
X0041490Y0153659D01*
X0041583Y0160053D02*
X0040917Y0160053D01*
X0039172Y0161651D02*
X0043328Y0161651D01*
X0076541Y0075332D02*
X0083349Y0075332D01*
X0084688Y0073733D02*
X0077812Y0073733D01*
X0078250Y0072134D02*
X0084250Y0072134D01*
X0084411Y0070536D02*
X0078089Y0070536D01*
X0053917Y0051354D02*
X0041266Y0051354D01*
X0042864Y0049755D02*
X0051993Y0049755D01*
X0051292Y0048157D02*
X0043550Y0048157D01*
X0043550Y0046558D02*
X0051150Y0046558D01*
X0051492Y0044960D02*
X0043550Y0044960D01*
X0043550Y0043361D02*
X0052476Y0043361D01*
X0052735Y0041763D02*
X0043550Y0041763D01*
X0043550Y0040164D02*
X0051400Y0040164D01*
X0050750Y0038566D02*
X0042172Y0038566D01*
X0042450Y0036967D02*
X0050750Y0036967D01*
X0051180Y0035369D02*
X0042310Y0035369D01*
X0041648Y0033770D02*
X0052202Y0033770D01*
X0054741Y0032172D02*
X0040100Y0032172D01*
X0033800Y0032172D02*
X0028700Y0032172D01*
X0028665Y0032137D02*
X0030213Y0033684D01*
X0031050Y0035706D01*
X0031050Y0037894D01*
X0030213Y0039915D01*
X0028665Y0041463D01*
X0026644Y0042300D01*
X0024456Y0042300D01*
X0022434Y0041463D01*
X0020887Y0039915D01*
X0020050Y0037894D01*
X0020050Y0035706D01*
X0020887Y0033684D01*
X0022434Y0032137D01*
X0024456Y0031300D01*
X0026644Y0031300D01*
X0028665Y0032137D01*
X0030248Y0033770D02*
X0032252Y0033770D01*
X0031590Y0035369D02*
X0030910Y0035369D01*
X0031050Y0036967D02*
X0031450Y0036967D01*
X0031728Y0038566D02*
X0030772Y0038566D01*
X0029964Y0040164D02*
X0032536Y0040164D01*
X0034559Y0041763D02*
X0027941Y0041763D01*
X0031300Y0044960D02*
X0011050Y0044960D01*
X0011050Y0046558D02*
X0031300Y0046558D01*
X0031300Y0048157D02*
X0011050Y0048157D01*
X0011050Y0049755D02*
X0032205Y0049755D01*
X0033804Y0051354D02*
X0011050Y0051354D01*
X0011050Y0052952D02*
X0033097Y0052952D01*
X0031499Y0054551D02*
X0011050Y0054551D01*
X0011050Y0056149D02*
X0031300Y0056149D01*
X0031300Y0057748D02*
X0011050Y0057748D01*
X0011050Y0059346D02*
X0031796Y0059346D01*
X0032688Y0043361D02*
X0011050Y0043361D01*
X0011050Y0041763D02*
X0023159Y0041763D01*
X0021136Y0040164D02*
X0011050Y0040164D01*
X0011050Y0038566D02*
X0020328Y0038566D01*
X0020050Y0036967D02*
X0011050Y0036967D01*
X0011050Y0035369D02*
X0020190Y0035369D01*
X0020852Y0033770D02*
X0011050Y0033770D01*
X0011050Y0032172D02*
X0022400Y0032172D01*
X0021504Y0024179D02*
X0051092Y0024179D01*
X0050750Y0025006D02*
X0051587Y0022984D01*
X0053134Y0021437D01*
X0055156Y0020600D01*
X0057344Y0020600D01*
X0059365Y0021437D01*
X0060913Y0022984D01*
X0061750Y0025006D01*
X0061750Y0027194D01*
X0060913Y0029215D01*
X0059365Y0030763D01*
X0057344Y0031600D01*
X0055156Y0031600D01*
X0053134Y0030763D01*
X0051587Y0029215D01*
X0050750Y0027194D01*
X0050750Y0025006D01*
X0050750Y0025778D02*
X0011050Y0025778D01*
X0011050Y0027376D02*
X0050825Y0027376D01*
X0051488Y0028975D02*
X0011050Y0028975D01*
X0011050Y0030573D02*
X0052945Y0030573D01*
X0057759Y0032172D02*
X0068108Y0032172D01*
X0066510Y0033770D02*
X0060298Y0033770D01*
X0061320Y0035369D02*
X0064911Y0035369D01*
X0063313Y0036967D02*
X0061750Y0036967D01*
X0059555Y0030573D02*
X0069707Y0030573D01*
X0071305Y0028975D02*
X0061012Y0028975D01*
X0061675Y0027376D02*
X0072904Y0027376D01*
X0074502Y0025778D02*
X0061750Y0025778D01*
X0061408Y0024179D02*
X0076101Y0024179D01*
X0077699Y0022581D02*
X0060509Y0022581D01*
X0058267Y0020982D02*
X0079298Y0020982D01*
X0080442Y0025778D02*
X0080750Y0025778D01*
X0080750Y0027376D02*
X0078844Y0027376D01*
X0077245Y0028975D02*
X0081198Y0028975D01*
X0082245Y0030573D02*
X0075647Y0030573D01*
X0074048Y0032172D02*
X0084846Y0032172D01*
X0087654Y0032172D02*
X0091252Y0032172D01*
X0092850Y0033770D02*
X0072450Y0033770D01*
X0076838Y0038566D02*
X0085662Y0038566D01*
X0084565Y0040164D02*
X0077935Y0040164D01*
X0078250Y0041763D02*
X0084250Y0041763D01*
X0084534Y0043361D02*
X0077966Y0043361D01*
X0076913Y0044960D02*
X0085587Y0044960D01*
X0091250Y0024499D02*
X0091002Y0023900D01*
X0091498Y0023900D01*
X0091250Y0024499D01*
X0091118Y0024179D02*
X0091382Y0024179D01*
X0054233Y0020982D02*
X0026387Y0020982D01*
X0027544Y0019384D02*
X0169995Y0019384D01*
X0169106Y0017785D02*
X0028433Y0017785D01*
X0028862Y0016187D02*
X0168678Y0016187D01*
X0168379Y0014588D02*
X0029160Y0014588D01*
X0029160Y0012990D02*
X0168379Y0012990D01*
X0168582Y0011391D02*
X0028957Y0011391D01*
X0028529Y0009793D02*
X0169011Y0009793D01*
X0169790Y0008194D02*
X0027750Y0008194D01*
X0024724Y0022581D02*
X0051991Y0022581D01*
X0039272Y0041791D02*
X0038543Y0042093D01*
X0039350Y0042900D01*
X0039350Y0041870D01*
X0039272Y0041791D01*
X0014618Y0024179D02*
X0011050Y0024179D01*
X0011050Y0022581D02*
X0011398Y0022581D01*
X0139430Y0152060D02*
X0143070Y0152060D01*
X0141490Y0153659D02*
X0141010Y0153659D01*
X0140917Y0160053D02*
X0141583Y0160053D01*
X0143328Y0161651D02*
X0139172Y0161651D01*
X0149172Y0161651D02*
X0153328Y0161651D01*
X0151583Y0160053D02*
X0150917Y0160053D01*
X0151010Y0153659D02*
X0151490Y0153659D01*
X0153070Y0152060D02*
X0149430Y0152060D01*
X0159430Y0152060D02*
X0163070Y0152060D01*
X0161490Y0153659D02*
X0161010Y0153659D01*
X0160917Y0160053D02*
X0161583Y0160053D01*
X0163328Y0161651D02*
X0159172Y0161651D01*
X0159648Y0032172D02*
X0186489Y0032172D01*
X0186489Y0030573D02*
X0168638Y0030573D01*
X0170112Y0028975D02*
X0186489Y0028975D01*
X0186489Y0027376D02*
X0170650Y0027376D01*
X0170589Y0025778D02*
X0186489Y0025778D01*
X0186489Y0024179D02*
X0182922Y0024179D01*
X0186141Y0022581D02*
X0186489Y0022581D01*
X0176035Y0024179D02*
X0169852Y0024179D01*
X0162648Y0024179D02*
X0159852Y0024179D01*
X0161247Y0030573D02*
X0163862Y0030573D01*
M02*
