G75*
%MOIN*%
%OFA0B0*%
%FSLAX25Y25*%
%IPPOS*%
%LPD*%
%AMOC8*
5,1,8,0,0,1.08239X$1,22.5*
%
%ADD10C,0.07400*%
%ADD11C,0.05200*%
%ADD12OC8,0.05200*%
%ADD13C,0.07600*%
%ADD14C,0.05200*%
%ADD15OC8,0.06300*%
%ADD16C,0.06299*%
%ADD17C,0.05000*%
%ADD18C,0.00600*%
%ADD19C,0.02978*%
D10*
X0066250Y0051300D03*
X0066250Y0081300D03*
X0116250Y0026300D03*
X0126250Y0026300D03*
X0136250Y0026300D03*
D11*
X0123850Y0056300D02*
X0118650Y0056300D01*
X0108850Y0056300D02*
X0103650Y0056300D01*
X0118650Y0066300D02*
X0123850Y0066300D01*
X0123850Y0076300D02*
X0118650Y0076300D01*
X0108850Y0076300D02*
X0103650Y0076300D01*
X0078850Y0076300D02*
X0073650Y0076300D01*
X0073650Y0066300D02*
X0078850Y0066300D01*
X0078850Y0056300D02*
X0073650Y0056300D01*
X0056250Y0058700D02*
X0056250Y0063900D01*
X0056250Y0078700D02*
X0056250Y0083900D01*
X0026250Y0083900D02*
X0026250Y0078700D01*
X0016250Y0078700D02*
X0016250Y0083900D01*
X0016250Y0063900D02*
X0016250Y0058700D01*
X0026250Y0058700D02*
X0026250Y0063900D01*
X0076250Y0028900D02*
X0076250Y0023700D01*
X0086250Y0023700D02*
X0086250Y0028900D01*
X0096250Y0028900D02*
X0096250Y0023700D01*
X0148650Y0056300D02*
X0153850Y0056300D01*
X0153850Y0076300D02*
X0148650Y0076300D01*
D12*
X0161250Y0081300D03*
X0181250Y0081300D03*
X0066250Y0041300D03*
X0066250Y0021300D03*
D13*
X0066250Y0096300D03*
X0056250Y0096300D03*
X0046250Y0096300D03*
X0036250Y0096300D03*
X0026250Y0096300D03*
X0016250Y0096300D03*
X0076250Y0096300D03*
X0086250Y0096300D03*
X0096250Y0096300D03*
X0106250Y0096300D03*
X0116250Y0096300D03*
X0126250Y0096300D03*
X0136250Y0096300D03*
X0146250Y0096300D03*
X0156250Y0096300D03*
X0166250Y0096300D03*
X0176250Y0096300D03*
X0176250Y0156300D03*
X0166250Y0156300D03*
X0156250Y0156300D03*
X0146250Y0156300D03*
X0136250Y0156300D03*
X0126250Y0156300D03*
X0116250Y0156300D03*
X0106250Y0156300D03*
X0096250Y0156300D03*
X0086250Y0156300D03*
X0076250Y0156300D03*
X0066250Y0156300D03*
X0056250Y0156300D03*
X0046250Y0156300D03*
X0036250Y0156300D03*
X0026250Y0156300D03*
X0016250Y0156300D03*
D14*
X0166250Y0066300D03*
X0176250Y0066300D03*
D15*
X0051250Y0046300D03*
X0051250Y0036300D03*
D16*
X0029872Y0036733D03*
X0029872Y0044607D03*
X0167667Y0044607D03*
X0167667Y0036733D03*
D17*
X0167667Y0027717D01*
X0151250Y0011300D01*
X0141250Y0011300D01*
X0133450Y0019100D01*
X0133268Y0019100D01*
X0129050Y0023318D01*
X0129050Y0023500D01*
X0126250Y0026300D01*
X0123450Y0023500D01*
X0123450Y0023318D01*
X0111432Y0011300D01*
X0051250Y0011300D01*
X0051250Y0036300D01*
X0029872Y0044607D02*
X0046565Y0061300D01*
X0056250Y0061300D01*
X0016250Y0061300D02*
X0016250Y0036300D01*
X0041250Y0011300D01*
X0051250Y0011300D01*
D18*
X0010583Y0005600D02*
X0010550Y0005600D01*
X0010550Y0005633D01*
X0010583Y0005600D01*
X0025540Y0005600D02*
X0026542Y0006603D01*
X0027938Y0009020D01*
X0028660Y0011716D01*
X0028660Y0014506D01*
X0027938Y0017202D01*
X0026542Y0019619D01*
X0024569Y0021592D01*
X0022152Y0022988D01*
X0019456Y0023710D01*
X0016666Y0023710D01*
X0013970Y0022988D01*
X0011553Y0021592D01*
X0010550Y0020590D01*
X0010550Y0092337D01*
X0013587Y0089300D01*
X0024787Y0089300D01*
X0026287Y0087800D01*
X0025474Y0087800D01*
X0024041Y0087206D01*
X0022944Y0086109D01*
X0022350Y0084676D01*
X0022350Y0077924D01*
X0022944Y0076491D01*
X0024041Y0075394D01*
X0025474Y0074800D01*
X0027026Y0074800D01*
X0028459Y0075394D01*
X0029556Y0076491D01*
X0030150Y0077924D01*
X0030150Y0083937D01*
X0043987Y0070100D01*
X0072633Y0070100D01*
X0071441Y0069606D01*
X0070344Y0068509D01*
X0069750Y0067076D01*
X0069750Y0067063D01*
X0059824Y0057136D01*
X0060150Y0057924D01*
X0060150Y0064676D01*
X0059556Y0066109D01*
X0058459Y0067206D01*
X0057026Y0067800D01*
X0055474Y0067800D01*
X0054041Y0067206D01*
X0052944Y0066109D01*
X0052526Y0065100D01*
X0045809Y0065100D01*
X0044412Y0064521D01*
X0043343Y0063453D01*
X0028920Y0049029D01*
X0027352Y0048379D01*
X0026100Y0047128D01*
X0025422Y0045492D01*
X0025422Y0043722D01*
X0025516Y0043497D01*
X0023850Y0045163D01*
X0023850Y0055585D01*
X0024041Y0055394D01*
X0025474Y0054800D01*
X0027026Y0054800D01*
X0028459Y0055394D01*
X0029556Y0056491D01*
X0030150Y0057924D01*
X0030150Y0064676D01*
X0029556Y0066109D01*
X0028459Y0067206D01*
X0027026Y0067800D01*
X0025474Y0067800D01*
X0024041Y0067206D01*
X0022944Y0066109D01*
X0022698Y0065515D01*
X0018250Y0069963D01*
X0018250Y0075307D01*
X0018459Y0075394D01*
X0019556Y0076491D01*
X0020150Y0077924D01*
X0020150Y0084676D01*
X0019556Y0086109D01*
X0018459Y0087206D01*
X0017026Y0087800D01*
X0015474Y0087800D01*
X0014041Y0087206D01*
X0012944Y0086109D01*
X0012350Y0084676D01*
X0012350Y0077924D01*
X0012944Y0076491D01*
X0014041Y0075394D01*
X0015050Y0074976D01*
X0015050Y0068637D01*
X0015887Y0067800D01*
X0015474Y0067800D01*
X0014041Y0067206D01*
X0012944Y0066109D01*
X0012350Y0064676D01*
X0012350Y0057924D01*
X0012450Y0057683D01*
X0012450Y0035544D01*
X0013029Y0034147D01*
X0038029Y0009147D01*
X0039097Y0008079D01*
X0040494Y0007500D01*
X0112188Y0007500D01*
X0113585Y0008079D01*
X0126250Y0020744D01*
X0130046Y0016947D01*
X0131115Y0015879D01*
X0131426Y0015750D01*
X0138029Y0009147D01*
X0139097Y0008079D01*
X0140494Y0007500D01*
X0152006Y0007500D01*
X0153403Y0008079D01*
X0170889Y0025565D01*
X0171467Y0026961D01*
X0171467Y0034280D01*
X0172117Y0035848D01*
X0172117Y0037618D01*
X0171440Y0039254D01*
X0170188Y0040505D01*
X0169790Y0040670D01*
X0170188Y0040835D01*
X0171440Y0042087D01*
X0172117Y0043722D01*
X0172117Y0045492D01*
X0171440Y0047128D01*
X0170188Y0048379D01*
X0168552Y0049057D01*
X0166782Y0049057D01*
X0165147Y0048379D01*
X0163895Y0047128D01*
X0163218Y0045492D01*
X0163218Y0043722D01*
X0163895Y0042087D01*
X0165147Y0040835D01*
X0165545Y0040670D01*
X0165147Y0040505D01*
X0163895Y0039254D01*
X0163218Y0037618D01*
X0163218Y0035848D01*
X0163867Y0034280D01*
X0163867Y0029291D01*
X0149676Y0015100D01*
X0142824Y0015100D01*
X0136624Y0021300D01*
X0137245Y0021300D01*
X0139082Y0022061D01*
X0140489Y0023468D01*
X0141250Y0025305D01*
X0141250Y0027295D01*
X0140681Y0028668D01*
X0174724Y0062711D01*
X0175474Y0062400D01*
X0177026Y0062400D01*
X0178459Y0062994D01*
X0179556Y0064091D01*
X0180150Y0065524D01*
X0180150Y0067076D01*
X0179556Y0068509D01*
X0178459Y0069606D01*
X0177026Y0070200D01*
X0175474Y0070200D01*
X0174041Y0069606D01*
X0172944Y0068509D01*
X0172350Y0067076D01*
X0172350Y0065524D01*
X0172544Y0065056D01*
X0138335Y0030848D01*
X0137245Y0031300D01*
X0135255Y0031300D01*
X0133418Y0030539D01*
X0132011Y0029132D01*
X0131250Y0027295D01*
X0130489Y0029132D01*
X0129082Y0030539D01*
X0127245Y0031300D01*
X0125255Y0031300D01*
X0123418Y0030539D01*
X0122011Y0029132D01*
X0121250Y0027295D01*
X0120489Y0029132D01*
X0119082Y0030539D01*
X0118250Y0030884D01*
X0118250Y0039837D01*
X0145313Y0066900D01*
X0146250Y0067837D01*
X0146250Y0073185D01*
X0146441Y0072994D01*
X0147874Y0072400D01*
X0154626Y0072400D01*
X0156059Y0072994D01*
X0157156Y0074091D01*
X0157750Y0075524D01*
X0157750Y0077076D01*
X0157156Y0078509D01*
X0156059Y0079606D01*
X0155748Y0079735D01*
X0157350Y0081337D01*
X0157350Y0079685D01*
X0159635Y0077400D01*
X0162865Y0077400D01*
X0165150Y0079685D01*
X0165150Y0079700D01*
X0169587Y0079700D01*
X0150250Y0060363D01*
X0150250Y0060200D01*
X0147874Y0060200D01*
X0146441Y0059606D01*
X0145344Y0058509D01*
X0144750Y0057076D01*
X0144750Y0055524D01*
X0145344Y0054091D01*
X0146441Y0052994D01*
X0147874Y0052400D01*
X0154626Y0052400D01*
X0156059Y0052994D01*
X0157156Y0054091D01*
X0157750Y0055524D01*
X0157750Y0057076D01*
X0157156Y0058509D01*
X0156059Y0059606D01*
X0154626Y0060200D01*
X0154613Y0060200D01*
X0185313Y0090900D01*
X0186250Y0091837D01*
X0186250Y0156363D01*
X0185313Y0157300D01*
X0185313Y0157300D01*
X0179850Y0162763D01*
X0178913Y0163700D01*
X0081587Y0163700D01*
X0078695Y0160808D01*
X0077264Y0161400D01*
X0075236Y0161400D01*
X0073361Y0160624D01*
X0071926Y0159189D01*
X0071250Y0157556D01*
X0070574Y0159189D01*
X0069139Y0160624D01*
X0067264Y0161400D01*
X0065236Y0161400D01*
X0063361Y0160624D01*
X0061926Y0159189D01*
X0061250Y0157556D01*
X0060574Y0159189D01*
X0059139Y0160624D01*
X0057264Y0161400D01*
X0055236Y0161400D01*
X0053361Y0160624D01*
X0051926Y0159189D01*
X0051250Y0157556D01*
X0050574Y0159189D01*
X0049139Y0160624D01*
X0047264Y0161400D01*
X0045236Y0161400D01*
X0043361Y0160624D01*
X0041926Y0159189D01*
X0041250Y0157556D01*
X0040574Y0159189D01*
X0039139Y0160624D01*
X0037264Y0161400D01*
X0035236Y0161400D01*
X0033361Y0160624D01*
X0031926Y0159189D01*
X0031250Y0157556D01*
X0030574Y0159189D01*
X0029139Y0160624D01*
X0027264Y0161400D01*
X0025236Y0161400D01*
X0023361Y0160624D01*
X0021926Y0159189D01*
X0021250Y0157556D01*
X0020574Y0159189D01*
X0019139Y0160624D01*
X0017264Y0161400D01*
X0015236Y0161400D01*
X0013361Y0160624D01*
X0011926Y0159189D01*
X0011150Y0157314D01*
X0011150Y0155286D01*
X0011926Y0153411D01*
X0013361Y0151976D01*
X0015236Y0151200D01*
X0017264Y0151200D01*
X0019139Y0151976D01*
X0020574Y0153411D01*
X0021250Y0155044D01*
X0021926Y0153411D01*
X0023361Y0151976D01*
X0025236Y0151200D01*
X0027264Y0151200D01*
X0029139Y0151976D01*
X0030574Y0153411D01*
X0031250Y0155044D01*
X0031742Y0153855D01*
X0010550Y0132663D01*
X0010550Y0167050D01*
X0011553Y0166047D01*
X0013970Y0164651D01*
X0016666Y0163929D01*
X0019456Y0163929D01*
X0022152Y0164651D01*
X0024569Y0166047D01*
X0026542Y0168020D01*
X0027938Y0170437D01*
X0028660Y0173133D01*
X0028660Y0175924D01*
X0027938Y0178619D01*
X0026542Y0181036D01*
X0025540Y0182039D01*
X0172000Y0182039D01*
X0170997Y0181036D01*
X0169601Y0178619D01*
X0168879Y0175924D01*
X0168879Y0173133D01*
X0169601Y0170437D01*
X0170997Y0168020D01*
X0172970Y0166047D01*
X0175387Y0164651D01*
X0178083Y0163929D01*
X0180874Y0163929D01*
X0183569Y0164651D01*
X0185986Y0166047D01*
X0186989Y0167050D01*
X0186989Y0020590D01*
X0185986Y0021592D01*
X0183569Y0022988D01*
X0180874Y0023710D01*
X0178083Y0023710D01*
X0175387Y0022988D01*
X0172970Y0021592D01*
X0170997Y0019619D01*
X0169601Y0017202D01*
X0168879Y0014506D01*
X0168879Y0011716D01*
X0169601Y0009020D01*
X0170997Y0006603D01*
X0172000Y0005600D01*
X0025540Y0005600D01*
X0026028Y0006088D02*
X0171512Y0006088D01*
X0170949Y0006687D02*
X0026591Y0006687D01*
X0026936Y0007285D02*
X0170603Y0007285D01*
X0170257Y0007884D02*
X0152932Y0007884D01*
X0153806Y0008482D02*
X0169912Y0008482D01*
X0169585Y0009081D02*
X0154405Y0009081D01*
X0155003Y0009679D02*
X0169425Y0009679D01*
X0169264Y0010278D02*
X0155602Y0010278D01*
X0156200Y0010876D02*
X0169104Y0010876D01*
X0168944Y0011475D02*
X0156799Y0011475D01*
X0157397Y0012073D02*
X0168879Y0012073D01*
X0168879Y0012672D02*
X0157996Y0012672D01*
X0158594Y0013270D02*
X0168879Y0013270D01*
X0168879Y0013869D02*
X0159193Y0013869D01*
X0159791Y0014467D02*
X0168879Y0014467D01*
X0169029Y0015066D02*
X0160390Y0015066D01*
X0160988Y0015664D02*
X0169189Y0015664D01*
X0169350Y0016263D02*
X0161587Y0016263D01*
X0162185Y0016861D02*
X0169510Y0016861D01*
X0169750Y0017460D02*
X0162784Y0017460D01*
X0163382Y0018058D02*
X0170096Y0018058D01*
X0170441Y0018657D02*
X0163981Y0018657D01*
X0164579Y0019255D02*
X0170787Y0019255D01*
X0171232Y0019854D02*
X0165178Y0019854D01*
X0165776Y0020452D02*
X0171830Y0020452D01*
X0172429Y0021051D02*
X0166375Y0021051D01*
X0166973Y0021649D02*
X0173069Y0021649D01*
X0174105Y0022248D02*
X0167572Y0022248D01*
X0168170Y0022846D02*
X0175142Y0022846D01*
X0177093Y0023445D02*
X0168769Y0023445D01*
X0169367Y0024043D02*
X0186989Y0024043D01*
X0186989Y0023445D02*
X0181864Y0023445D01*
X0183815Y0022846D02*
X0186989Y0022846D01*
X0186989Y0022248D02*
X0184851Y0022248D01*
X0185888Y0021649D02*
X0186989Y0021649D01*
X0186989Y0021051D02*
X0186528Y0021051D01*
X0186989Y0024642D02*
X0169966Y0024642D01*
X0170564Y0025240D02*
X0186989Y0025240D01*
X0186989Y0025839D02*
X0171002Y0025839D01*
X0171250Y0026437D02*
X0186989Y0026437D01*
X0186989Y0027036D02*
X0171467Y0027036D01*
X0171467Y0027634D02*
X0186989Y0027634D01*
X0186989Y0028233D02*
X0171467Y0028233D01*
X0171467Y0028832D02*
X0186989Y0028832D01*
X0186989Y0029430D02*
X0171467Y0029430D01*
X0171467Y0030029D02*
X0186989Y0030029D01*
X0186989Y0030627D02*
X0171467Y0030627D01*
X0171467Y0031226D02*
X0186989Y0031226D01*
X0186989Y0031824D02*
X0171467Y0031824D01*
X0171467Y0032423D02*
X0186989Y0032423D01*
X0186989Y0033021D02*
X0171467Y0033021D01*
X0171467Y0033620D02*
X0186989Y0033620D01*
X0186989Y0034218D02*
X0171467Y0034218D01*
X0171690Y0034817D02*
X0186989Y0034817D01*
X0186989Y0035415D02*
X0171938Y0035415D01*
X0172117Y0036014D02*
X0186989Y0036014D01*
X0186989Y0036612D02*
X0172117Y0036612D01*
X0172117Y0037211D02*
X0186989Y0037211D01*
X0186989Y0037809D02*
X0172038Y0037809D01*
X0171790Y0038408D02*
X0186989Y0038408D01*
X0186989Y0039006D02*
X0171542Y0039006D01*
X0171088Y0039605D02*
X0186989Y0039605D01*
X0186989Y0040203D02*
X0170490Y0040203D01*
X0170108Y0040802D02*
X0186989Y0040802D01*
X0186989Y0041400D02*
X0170753Y0041400D01*
X0171352Y0041999D02*
X0186989Y0041999D01*
X0186989Y0042597D02*
X0171651Y0042597D01*
X0171899Y0043196D02*
X0186989Y0043196D01*
X0186989Y0043794D02*
X0172117Y0043794D01*
X0172117Y0044393D02*
X0186989Y0044393D01*
X0186989Y0044991D02*
X0172117Y0044991D01*
X0172076Y0045590D02*
X0186989Y0045590D01*
X0186989Y0046188D02*
X0171829Y0046188D01*
X0171581Y0046787D02*
X0186989Y0046787D01*
X0186989Y0047385D02*
X0171182Y0047385D01*
X0170583Y0047984D02*
X0186989Y0047984D01*
X0186989Y0048582D02*
X0169697Y0048582D01*
X0165637Y0048582D02*
X0160595Y0048582D01*
X0159997Y0047984D02*
X0164751Y0047984D01*
X0164153Y0047385D02*
X0159398Y0047385D01*
X0158800Y0046787D02*
X0163754Y0046787D01*
X0163506Y0046188D02*
X0158201Y0046188D01*
X0157603Y0045590D02*
X0163258Y0045590D01*
X0163218Y0044991D02*
X0157004Y0044991D01*
X0156406Y0044393D02*
X0163218Y0044393D01*
X0163218Y0043794D02*
X0155807Y0043794D01*
X0155209Y0043196D02*
X0163436Y0043196D01*
X0163684Y0042597D02*
X0154610Y0042597D01*
X0154011Y0041999D02*
X0163983Y0041999D01*
X0164581Y0041400D02*
X0153413Y0041400D01*
X0152814Y0040802D02*
X0165227Y0040802D01*
X0164845Y0040203D02*
X0152216Y0040203D01*
X0151617Y0039605D02*
X0164246Y0039605D01*
X0163793Y0039006D02*
X0151019Y0039006D01*
X0150420Y0038408D02*
X0163545Y0038408D01*
X0163297Y0037809D02*
X0149822Y0037809D01*
X0149223Y0037211D02*
X0163218Y0037211D01*
X0163218Y0036612D02*
X0148625Y0036612D01*
X0148026Y0036014D02*
X0163218Y0036014D01*
X0163397Y0035415D02*
X0147428Y0035415D01*
X0146829Y0034817D02*
X0163645Y0034817D01*
X0163867Y0034218D02*
X0146231Y0034218D01*
X0145632Y0033620D02*
X0163867Y0033620D01*
X0163867Y0033021D02*
X0145034Y0033021D01*
X0144435Y0032423D02*
X0163867Y0032423D01*
X0163867Y0031824D02*
X0143837Y0031824D01*
X0143238Y0031226D02*
X0163867Y0031226D01*
X0163867Y0030627D02*
X0142640Y0030627D01*
X0142041Y0030029D02*
X0163867Y0030029D01*
X0163867Y0029430D02*
X0141443Y0029430D01*
X0140844Y0028832D02*
X0163408Y0028832D01*
X0162809Y0028233D02*
X0140861Y0028233D01*
X0141109Y0027634D02*
X0162210Y0027634D01*
X0161612Y0027036D02*
X0141250Y0027036D01*
X0141250Y0026437D02*
X0161013Y0026437D01*
X0160415Y0025839D02*
X0141250Y0025839D01*
X0141223Y0025240D02*
X0159816Y0025240D01*
X0159218Y0024642D02*
X0140975Y0024642D01*
X0140727Y0024043D02*
X0158619Y0024043D01*
X0158021Y0023445D02*
X0140466Y0023445D01*
X0139867Y0022846D02*
X0157422Y0022846D01*
X0156824Y0022248D02*
X0139269Y0022248D01*
X0138088Y0021649D02*
X0156225Y0021649D01*
X0155627Y0021051D02*
X0136873Y0021051D01*
X0137472Y0020452D02*
X0155028Y0020452D01*
X0154430Y0019854D02*
X0138070Y0019854D01*
X0138669Y0019255D02*
X0153831Y0019255D01*
X0153233Y0018657D02*
X0139267Y0018657D01*
X0139866Y0018058D02*
X0152634Y0018058D01*
X0152036Y0017460D02*
X0140464Y0017460D01*
X0141063Y0016861D02*
X0151437Y0016861D01*
X0150839Y0016263D02*
X0141661Y0016263D01*
X0142260Y0015664D02*
X0150240Y0015664D01*
X0139568Y0007884D02*
X0113114Y0007884D01*
X0113988Y0008482D02*
X0138694Y0008482D01*
X0138095Y0009081D02*
X0114587Y0009081D01*
X0115186Y0009679D02*
X0137497Y0009679D01*
X0136898Y0010278D02*
X0115784Y0010278D01*
X0116383Y0010876D02*
X0136300Y0010876D01*
X0135701Y0011475D02*
X0116981Y0011475D01*
X0117580Y0012073D02*
X0135103Y0012073D01*
X0134504Y0012672D02*
X0118178Y0012672D01*
X0118777Y0013270D02*
X0133906Y0013270D01*
X0133307Y0013869D02*
X0119375Y0013869D01*
X0119974Y0014467D02*
X0132709Y0014467D01*
X0132110Y0015066D02*
X0120572Y0015066D01*
X0121171Y0015664D02*
X0131512Y0015664D01*
X0130731Y0016263D02*
X0121769Y0016263D01*
X0122368Y0016861D02*
X0130132Y0016861D01*
X0129534Y0017460D02*
X0122966Y0017460D01*
X0123565Y0018058D02*
X0128935Y0018058D01*
X0128337Y0018657D02*
X0124163Y0018657D01*
X0124762Y0019255D02*
X0127738Y0019255D01*
X0127140Y0019854D02*
X0125360Y0019854D01*
X0125959Y0020452D02*
X0126541Y0020452D01*
X0131250Y0026674D02*
X0131250Y0027295D01*
X0131250Y0026674D01*
X0131250Y0026674D01*
X0131250Y0027036D02*
X0131250Y0027036D01*
X0131109Y0027634D02*
X0131391Y0027634D01*
X0131639Y0028233D02*
X0130861Y0028233D01*
X0130613Y0028832D02*
X0131887Y0028832D01*
X0132309Y0029430D02*
X0130191Y0029430D01*
X0129593Y0030029D02*
X0132907Y0030029D01*
X0133631Y0030627D02*
X0128869Y0030627D01*
X0127424Y0031226D02*
X0135076Y0031226D01*
X0137424Y0031226D02*
X0138713Y0031226D01*
X0139311Y0031824D02*
X0118250Y0031824D01*
X0118250Y0031226D02*
X0125076Y0031226D01*
X0123631Y0030627D02*
X0118869Y0030627D01*
X0119593Y0030029D02*
X0122907Y0030029D01*
X0122309Y0029430D02*
X0120191Y0029430D01*
X0120613Y0028832D02*
X0121887Y0028832D01*
X0121639Y0028233D02*
X0120861Y0028233D01*
X0121109Y0027634D02*
X0121391Y0027634D01*
X0121250Y0027295D02*
X0121250Y0026674D01*
X0121250Y0026674D01*
X0121250Y0027295D01*
X0121250Y0027036D02*
X0121250Y0027036D01*
X0116650Y0026900D02*
X0116250Y0026300D01*
X0116650Y0026900D02*
X0116650Y0040500D01*
X0144650Y0068500D01*
X0144650Y0084500D01*
X0155850Y0095700D01*
X0156250Y0096300D01*
X0151541Y0098259D02*
X0150959Y0098259D01*
X0150711Y0098857D02*
X0151789Y0098857D01*
X0151926Y0099189D02*
X0151250Y0097556D01*
X0150574Y0099189D01*
X0149139Y0100624D01*
X0147264Y0101400D01*
X0145236Y0101400D01*
X0143361Y0100624D01*
X0141926Y0099189D01*
X0141250Y0097556D01*
X0140574Y0099189D01*
X0139139Y0100624D01*
X0137264Y0101400D01*
X0135236Y0101400D01*
X0133361Y0100624D01*
X0131926Y0099189D01*
X0131250Y0097556D01*
X0130574Y0099189D01*
X0129139Y0100624D01*
X0127264Y0101400D01*
X0125236Y0101400D01*
X0123361Y0100624D01*
X0121926Y0099189D01*
X0121250Y0097556D01*
X0120574Y0099189D01*
X0119139Y0100624D01*
X0117264Y0101400D01*
X0115236Y0101400D01*
X0113361Y0100624D01*
X0111926Y0099189D01*
X0111250Y0097556D01*
X0110574Y0099189D01*
X0109139Y0100624D01*
X0107264Y0101400D01*
X0105236Y0101400D01*
X0103361Y0100624D01*
X0101926Y0099189D01*
X0101250Y0097556D01*
X0100574Y0099189D01*
X0099139Y0100624D01*
X0097264Y0101400D01*
X0095236Y0101400D01*
X0093361Y0100624D01*
X0091926Y0099189D01*
X0091250Y0097556D01*
X0090574Y0099189D01*
X0089139Y0100624D01*
X0087264Y0101400D01*
X0085236Y0101400D01*
X0083361Y0100624D01*
X0081926Y0099189D01*
X0081250Y0097556D01*
X0080574Y0099189D01*
X0079139Y0100624D01*
X0077264Y0101400D01*
X0075236Y0101400D01*
X0073361Y0100624D01*
X0071926Y0099189D01*
X0071250Y0097556D01*
X0070574Y0099189D01*
X0069139Y0100624D01*
X0067264Y0101400D01*
X0065236Y0101400D01*
X0063361Y0100624D01*
X0061926Y0099189D01*
X0061250Y0097556D01*
X0060574Y0099189D01*
X0059139Y0100624D01*
X0057264Y0101400D01*
X0055236Y0101400D01*
X0053361Y0100624D01*
X0051926Y0099189D01*
X0051250Y0097556D01*
X0050574Y0099189D01*
X0049139Y0100624D01*
X0047264Y0101400D01*
X0045236Y0101400D01*
X0043361Y0100624D01*
X0041926Y0099189D01*
X0041250Y0097556D01*
X0040574Y0099189D01*
X0039139Y0100624D01*
X0037264Y0101400D01*
X0035236Y0101400D01*
X0033361Y0100624D01*
X0031926Y0099189D01*
X0031250Y0097556D01*
X0030574Y0099189D01*
X0029139Y0100624D01*
X0027264Y0101400D01*
X0025236Y0101400D01*
X0023361Y0100624D01*
X0021926Y0099189D01*
X0021250Y0097556D01*
X0020574Y0099189D01*
X0019139Y0100624D01*
X0017264Y0101400D01*
X0015236Y0101400D01*
X0013361Y0100624D01*
X0012650Y0099912D01*
X0012650Y0130237D01*
X0034088Y0151675D01*
X0035236Y0151200D01*
X0037264Y0151200D01*
X0039139Y0151976D01*
X0040574Y0153411D01*
X0041250Y0155044D01*
X0041926Y0153411D01*
X0043361Y0151976D01*
X0045236Y0151200D01*
X0047264Y0151200D01*
X0049139Y0151976D01*
X0050574Y0153411D01*
X0051250Y0155044D01*
X0051926Y0153411D01*
X0053361Y0151976D01*
X0055236Y0151200D01*
X0057264Y0151200D01*
X0058412Y0151675D01*
X0067187Y0142900D01*
X0135187Y0142900D01*
X0176687Y0101400D01*
X0175236Y0101400D01*
X0173361Y0100624D01*
X0171926Y0099189D01*
X0171250Y0097556D01*
X0170574Y0099189D01*
X0169139Y0100624D01*
X0167264Y0101400D01*
X0165236Y0101400D01*
X0163361Y0100624D01*
X0161926Y0099189D01*
X0161250Y0097556D01*
X0160574Y0099189D01*
X0159139Y0100624D01*
X0157264Y0101400D01*
X0155236Y0101400D01*
X0153361Y0100624D01*
X0151926Y0099189D01*
X0152193Y0099456D02*
X0150307Y0099456D01*
X0149708Y0100054D02*
X0152792Y0100054D01*
X0153432Y0100653D02*
X0149068Y0100653D01*
X0147623Y0101251D02*
X0154877Y0101251D01*
X0157623Y0101251D02*
X0164877Y0101251D01*
X0163432Y0100653D02*
X0159068Y0100653D01*
X0159708Y0100054D02*
X0162792Y0100054D01*
X0162193Y0099456D02*
X0160307Y0099456D01*
X0160711Y0098857D02*
X0161789Y0098857D01*
X0161541Y0098259D02*
X0160959Y0098259D01*
X0161207Y0097660D02*
X0161293Y0097660D01*
X0161250Y0095044D02*
X0161926Y0093411D01*
X0163361Y0091976D01*
X0163434Y0091946D01*
X0163050Y0091563D01*
X0151687Y0080200D01*
X0147874Y0080200D01*
X0146441Y0079606D01*
X0146250Y0079415D01*
X0146250Y0083837D01*
X0154088Y0091675D01*
X0154088Y0091675D01*
X0155236Y0091200D01*
X0157264Y0091200D01*
X0159139Y0091976D01*
X0160574Y0093411D01*
X0161250Y0095044D01*
X0161094Y0094668D02*
X0161406Y0094668D01*
X0161654Y0094069D02*
X0160846Y0094069D01*
X0160598Y0093471D02*
X0161902Y0093471D01*
X0162465Y0092872D02*
X0160035Y0092872D01*
X0159436Y0092274D02*
X0163064Y0092274D01*
X0163162Y0091675D02*
X0158412Y0091675D01*
X0160768Y0089281D02*
X0151694Y0089281D01*
X0151095Y0088683D02*
X0160170Y0088683D01*
X0159571Y0088084D02*
X0150497Y0088084D01*
X0149898Y0087486D02*
X0158973Y0087486D01*
X0158374Y0086887D02*
X0149300Y0086887D01*
X0148701Y0086289D02*
X0157776Y0086289D01*
X0157177Y0085690D02*
X0148103Y0085690D01*
X0147504Y0085092D02*
X0156579Y0085092D01*
X0155980Y0084493D02*
X0146906Y0084493D01*
X0146307Y0083895D02*
X0155382Y0083895D01*
X0154783Y0083296D02*
X0146250Y0083296D01*
X0146250Y0082698D02*
X0154185Y0082698D01*
X0153586Y0082099D02*
X0146250Y0082099D01*
X0146250Y0081501D02*
X0152988Y0081501D01*
X0152389Y0080902D02*
X0146250Y0080902D01*
X0146250Y0080303D02*
X0151791Y0080303D01*
X0151850Y0078100D02*
X0164650Y0090900D01*
X0178250Y0090900D01*
X0181450Y0094100D01*
X0181450Y0098900D01*
X0135850Y0144500D01*
X0067850Y0144500D01*
X0056650Y0155700D01*
X0056250Y0156300D01*
X0052643Y0159905D02*
X0049857Y0159905D01*
X0050455Y0159307D02*
X0052045Y0159307D01*
X0051727Y0158708D02*
X0050773Y0158708D01*
X0051020Y0158110D02*
X0051480Y0158110D01*
X0053242Y0160504D02*
X0049258Y0160504D01*
X0047983Y0161103D02*
X0054517Y0161103D01*
X0057983Y0161103D02*
X0064517Y0161103D01*
X0063242Y0160504D02*
X0059258Y0160504D01*
X0059857Y0159905D02*
X0062643Y0159905D01*
X0062045Y0159307D02*
X0060455Y0159307D01*
X0060773Y0158708D02*
X0061727Y0158708D01*
X0061480Y0158110D02*
X0061020Y0158110D01*
X0061250Y0155044D02*
X0060758Y0153855D01*
X0068513Y0146100D01*
X0091906Y0146100D01*
X0091886Y0146120D01*
X0091461Y0147145D01*
X0091461Y0148226D01*
X0088129Y0151558D01*
X0087264Y0151200D01*
X0085236Y0151200D01*
X0083361Y0151976D01*
X0081926Y0153411D01*
X0081250Y0155044D01*
X0080574Y0153411D01*
X0079139Y0151976D01*
X0077264Y0151200D01*
X0075236Y0151200D01*
X0073361Y0151976D01*
X0071926Y0153411D01*
X0071250Y0155044D01*
X0070574Y0153411D01*
X0069139Y0151976D01*
X0067264Y0151200D01*
X0065236Y0151200D01*
X0063361Y0151976D01*
X0061926Y0153411D01*
X0061250Y0155044D01*
X0061032Y0154519D02*
X0061468Y0154519D01*
X0061715Y0153920D02*
X0060785Y0153920D01*
X0061291Y0153322D02*
X0062016Y0153322D01*
X0061889Y0152723D02*
X0062614Y0152723D01*
X0062488Y0152125D02*
X0063213Y0152125D01*
X0063086Y0151526D02*
X0064448Y0151526D01*
X0063685Y0150928D02*
X0088759Y0150928D01*
X0088161Y0151526D02*
X0088052Y0151526D01*
X0089358Y0150329D02*
X0064283Y0150329D01*
X0064882Y0149731D02*
X0089956Y0149731D01*
X0090555Y0149132D02*
X0065480Y0149132D01*
X0066079Y0148534D02*
X0091153Y0148534D01*
X0091461Y0147935D02*
X0066677Y0147935D01*
X0067276Y0147337D02*
X0091461Y0147337D01*
X0091630Y0146738D02*
X0067874Y0146738D01*
X0068473Y0146140D02*
X0091877Y0146140D01*
X0094250Y0147700D02*
X0086250Y0155700D01*
X0086250Y0156300D01*
X0082643Y0159905D02*
X0082318Y0159905D01*
X0082045Y0159307D02*
X0081720Y0159307D01*
X0081926Y0159189D02*
X0081250Y0157556D01*
X0080875Y0158462D01*
X0082913Y0160500D01*
X0083238Y0160500D01*
X0081926Y0159189D01*
X0081727Y0158708D02*
X0081121Y0158708D01*
X0081020Y0158110D02*
X0081480Y0158110D01*
X0081468Y0154519D02*
X0081032Y0154519D01*
X0080785Y0153920D02*
X0081715Y0153920D01*
X0082016Y0153322D02*
X0080484Y0153322D01*
X0079886Y0152723D02*
X0082614Y0152723D01*
X0083213Y0152125D02*
X0079287Y0152125D01*
X0078052Y0151526D02*
X0084448Y0151526D01*
X0090640Y0153572D02*
X0093724Y0150489D01*
X0094805Y0150489D01*
X0095830Y0150064D01*
X0096614Y0149280D01*
X0097039Y0148255D01*
X0097039Y0147145D01*
X0096614Y0146120D01*
X0096594Y0146100D01*
X0134387Y0146100D01*
X0131187Y0149300D01*
X0120787Y0149300D01*
X0118412Y0151675D01*
X0117264Y0151200D01*
X0115236Y0151200D01*
X0113361Y0151976D01*
X0111926Y0153411D01*
X0111250Y0155044D01*
X0110574Y0153411D01*
X0109139Y0151976D01*
X0107264Y0151200D01*
X0105236Y0151200D01*
X0103361Y0151976D01*
X0101926Y0153411D01*
X0101250Y0155044D01*
X0100574Y0153411D01*
X0099139Y0151976D01*
X0097264Y0151200D01*
X0095236Y0151200D01*
X0093361Y0151976D01*
X0091926Y0153411D01*
X0091250Y0155044D01*
X0090640Y0153572D01*
X0090891Y0153322D02*
X0092016Y0153322D01*
X0091715Y0153920D02*
X0090785Y0153920D01*
X0091032Y0154519D02*
X0091468Y0154519D01*
X0091489Y0152723D02*
X0092614Y0152723D01*
X0092088Y0152125D02*
X0093213Y0152125D01*
X0092686Y0151526D02*
X0094448Y0151526D01*
X0093285Y0150928D02*
X0119159Y0150928D01*
X0118561Y0151526D02*
X0118052Y0151526D01*
X0119758Y0150329D02*
X0095190Y0150329D01*
X0096163Y0149731D02*
X0120356Y0149731D01*
X0121450Y0150900D02*
X0116650Y0155700D01*
X0116250Y0156300D01*
X0112643Y0159905D02*
X0109857Y0159905D01*
X0109262Y0160500D02*
X0113238Y0160500D01*
X0111926Y0159189D01*
X0111250Y0157556D01*
X0110574Y0159189D01*
X0109262Y0160500D01*
X0110455Y0159307D02*
X0112045Y0159307D01*
X0111727Y0158708D02*
X0110773Y0158708D01*
X0111020Y0158110D02*
X0111480Y0158110D01*
X0111468Y0154519D02*
X0111032Y0154519D01*
X0110785Y0153920D02*
X0111715Y0153920D01*
X0112016Y0153322D02*
X0110484Y0153322D01*
X0109886Y0152723D02*
X0112614Y0152723D01*
X0113213Y0152125D02*
X0109287Y0152125D01*
X0108052Y0151526D02*
X0114448Y0151526D01*
X0120758Y0153855D02*
X0121250Y0155044D01*
X0121926Y0153411D01*
X0122838Y0152500D01*
X0122113Y0152500D01*
X0120758Y0153855D01*
X0120785Y0153920D02*
X0121715Y0153920D01*
X0121468Y0154519D02*
X0121032Y0154519D01*
X0121291Y0153322D02*
X0122016Y0153322D01*
X0121889Y0152723D02*
X0122614Y0152723D01*
X0121450Y0150900D02*
X0131850Y0150900D01*
X0183050Y0099700D01*
X0183050Y0093300D01*
X0171050Y0081300D01*
X0161250Y0081300D01*
X0161213Y0085200D02*
X0165313Y0089300D01*
X0176787Y0089300D01*
X0170387Y0082900D01*
X0165150Y0082900D01*
X0165150Y0082915D01*
X0162865Y0085200D01*
X0161213Y0085200D01*
X0161703Y0085690D02*
X0173177Y0085690D01*
X0172579Y0085092D02*
X0162974Y0085092D01*
X0163572Y0084493D02*
X0171980Y0084493D01*
X0171382Y0083895D02*
X0164171Y0083895D01*
X0164769Y0083296D02*
X0170783Y0083296D01*
X0173776Y0086289D02*
X0162301Y0086289D01*
X0162900Y0086887D02*
X0174374Y0086887D01*
X0174973Y0087486D02*
X0163498Y0087486D01*
X0164097Y0088084D02*
X0175571Y0088084D01*
X0176170Y0088683D02*
X0164695Y0088683D01*
X0165294Y0089281D02*
X0176768Y0089281D01*
X0180103Y0085690D02*
X0186989Y0085690D01*
X0186989Y0085092D02*
X0182974Y0085092D01*
X0182865Y0085200D02*
X0179635Y0085200D01*
X0177350Y0082915D01*
X0177350Y0080263D01*
X0167211Y0070123D01*
X0167026Y0070200D01*
X0165474Y0070200D01*
X0164041Y0069606D01*
X0162944Y0068509D01*
X0162350Y0067076D01*
X0162350Y0065524D01*
X0162944Y0064091D01*
X0164041Y0062994D01*
X0165474Y0062400D01*
X0167026Y0062400D01*
X0168459Y0062994D01*
X0169556Y0064091D01*
X0170150Y0065524D01*
X0170150Y0067076D01*
X0169722Y0068109D01*
X0179324Y0077711D01*
X0179635Y0077400D01*
X0182865Y0077400D01*
X0185150Y0079685D01*
X0185150Y0082915D01*
X0182865Y0085200D01*
X0183572Y0084493D02*
X0186989Y0084493D01*
X0186989Y0083895D02*
X0184171Y0083895D01*
X0184769Y0083296D02*
X0186989Y0083296D01*
X0186989Y0082698D02*
X0185150Y0082698D01*
X0185150Y0082099D02*
X0186989Y0082099D01*
X0186989Y0081501D02*
X0185150Y0081501D01*
X0185150Y0080902D02*
X0186989Y0080902D01*
X0186989Y0080303D02*
X0185150Y0080303D01*
X0185150Y0079705D02*
X0186989Y0079705D01*
X0186989Y0079106D02*
X0184572Y0079106D01*
X0183973Y0078508D02*
X0186989Y0078508D01*
X0186989Y0077909D02*
X0183375Y0077909D01*
X0186989Y0077311D02*
X0178924Y0077311D01*
X0178325Y0076712D02*
X0186989Y0076712D01*
X0186989Y0076114D02*
X0177727Y0076114D01*
X0177128Y0075515D02*
X0186989Y0075515D01*
X0186989Y0074917D02*
X0176530Y0074917D01*
X0175931Y0074318D02*
X0186989Y0074318D01*
X0186989Y0073720D02*
X0175333Y0073720D01*
X0174734Y0073121D02*
X0186989Y0073121D01*
X0186989Y0072523D02*
X0174136Y0072523D01*
X0173537Y0071924D02*
X0186989Y0071924D01*
X0186989Y0071326D02*
X0172939Y0071326D01*
X0172340Y0070727D02*
X0186989Y0070727D01*
X0186989Y0070129D02*
X0177198Y0070129D01*
X0178535Y0069530D02*
X0186989Y0069530D01*
X0186989Y0068932D02*
X0179134Y0068932D01*
X0179629Y0068333D02*
X0186989Y0068333D01*
X0186989Y0067735D02*
X0179877Y0067735D01*
X0180125Y0067136D02*
X0186989Y0067136D01*
X0186989Y0066538D02*
X0180150Y0066538D01*
X0180150Y0065939D02*
X0186989Y0065939D01*
X0186989Y0065341D02*
X0180074Y0065341D01*
X0179826Y0064742D02*
X0186989Y0064742D01*
X0186989Y0064144D02*
X0179578Y0064144D01*
X0179011Y0063545D02*
X0186989Y0063545D01*
X0186989Y0062947D02*
X0178346Y0062947D01*
X0176250Y0066300D02*
X0175850Y0066100D01*
X0136650Y0026900D01*
X0136250Y0026300D01*
X0139910Y0032423D02*
X0118250Y0032423D01*
X0118250Y0033021D02*
X0140508Y0033021D01*
X0141107Y0033620D02*
X0118250Y0033620D01*
X0118250Y0034218D02*
X0141705Y0034218D01*
X0142304Y0034817D02*
X0118250Y0034817D01*
X0118250Y0035415D02*
X0142902Y0035415D01*
X0143501Y0036014D02*
X0118250Y0036014D01*
X0118250Y0036612D02*
X0144099Y0036612D01*
X0144698Y0037211D02*
X0118250Y0037211D01*
X0118250Y0037809D02*
X0145296Y0037809D01*
X0145895Y0038408D02*
X0118250Y0038408D01*
X0118250Y0039006D02*
X0146493Y0039006D01*
X0147092Y0039605D02*
X0118250Y0039605D01*
X0118616Y0040203D02*
X0147691Y0040203D01*
X0148289Y0040802D02*
X0119214Y0040802D01*
X0119813Y0041400D02*
X0148888Y0041400D01*
X0149486Y0041999D02*
X0120412Y0041999D01*
X0121010Y0042597D02*
X0150085Y0042597D01*
X0150683Y0043196D02*
X0121609Y0043196D01*
X0122207Y0043794D02*
X0151282Y0043794D01*
X0151880Y0044393D02*
X0122806Y0044393D01*
X0123404Y0044991D02*
X0152479Y0044991D01*
X0153077Y0045590D02*
X0124003Y0045590D01*
X0124601Y0046188D02*
X0153676Y0046188D01*
X0154274Y0046787D02*
X0125200Y0046787D01*
X0125798Y0047385D02*
X0154873Y0047385D01*
X0155471Y0047984D02*
X0126397Y0047984D01*
X0126995Y0048582D02*
X0156070Y0048582D01*
X0156668Y0049181D02*
X0127594Y0049181D01*
X0128192Y0049779D02*
X0157267Y0049779D01*
X0157865Y0050378D02*
X0128791Y0050378D01*
X0129389Y0050976D02*
X0158464Y0050976D01*
X0159062Y0051575D02*
X0129988Y0051575D01*
X0130586Y0052173D02*
X0159661Y0052173D01*
X0160259Y0052772D02*
X0155524Y0052772D01*
X0156436Y0053370D02*
X0160858Y0053370D01*
X0161456Y0053969D02*
X0157034Y0053969D01*
X0157354Y0054568D02*
X0162055Y0054568D01*
X0162653Y0055166D02*
X0157602Y0055166D01*
X0157750Y0055765D02*
X0163252Y0055765D01*
X0163850Y0056363D02*
X0157750Y0056363D01*
X0157750Y0056962D02*
X0164449Y0056962D01*
X0165047Y0057560D02*
X0157549Y0057560D01*
X0157301Y0058159D02*
X0165646Y0058159D01*
X0166244Y0058757D02*
X0156908Y0058757D01*
X0156310Y0059356D02*
X0166843Y0059356D01*
X0167441Y0059954D02*
X0155219Y0059954D01*
X0154965Y0060553D02*
X0168040Y0060553D01*
X0168638Y0061151D02*
X0155564Y0061151D01*
X0156162Y0061750D02*
X0169237Y0061750D01*
X0169835Y0062348D02*
X0156761Y0062348D01*
X0157359Y0062947D02*
X0164154Y0062947D01*
X0163489Y0063545D02*
X0157958Y0063545D01*
X0158556Y0064144D02*
X0162922Y0064144D01*
X0162674Y0064742D02*
X0159155Y0064742D01*
X0159753Y0065341D02*
X0162426Y0065341D01*
X0162350Y0065939D02*
X0160352Y0065939D01*
X0160950Y0066538D02*
X0162350Y0066538D01*
X0162375Y0067136D02*
X0161549Y0067136D01*
X0162147Y0067735D02*
X0162623Y0067735D01*
X0162746Y0068333D02*
X0162871Y0068333D01*
X0163345Y0068932D02*
X0163366Y0068932D01*
X0163943Y0069530D02*
X0163965Y0069530D01*
X0164542Y0070129D02*
X0165302Y0070129D01*
X0165140Y0070727D02*
X0167815Y0070727D01*
X0168413Y0071326D02*
X0165739Y0071326D01*
X0166337Y0071924D02*
X0169012Y0071924D01*
X0169610Y0072523D02*
X0166936Y0072523D01*
X0167534Y0073121D02*
X0170209Y0073121D01*
X0170807Y0073720D02*
X0168133Y0073720D01*
X0168731Y0074318D02*
X0171406Y0074318D01*
X0172004Y0074917D02*
X0169330Y0074917D01*
X0169928Y0075515D02*
X0172603Y0075515D01*
X0173201Y0076114D02*
X0170527Y0076114D01*
X0171125Y0076712D02*
X0173800Y0076712D01*
X0174398Y0077311D02*
X0171724Y0077311D01*
X0172322Y0077909D02*
X0174997Y0077909D01*
X0175595Y0078508D02*
X0172921Y0078508D01*
X0173519Y0079106D02*
X0176194Y0079106D01*
X0176792Y0079705D02*
X0174118Y0079705D01*
X0174716Y0080303D02*
X0177350Y0080303D01*
X0177350Y0080902D02*
X0175315Y0080902D01*
X0175913Y0081501D02*
X0177350Y0081501D01*
X0177350Y0082099D02*
X0176512Y0082099D01*
X0177110Y0082698D02*
X0177350Y0082698D01*
X0177709Y0083296D02*
X0177731Y0083296D01*
X0178307Y0083895D02*
X0178329Y0083895D01*
X0178906Y0084493D02*
X0178928Y0084493D01*
X0179504Y0085092D02*
X0179526Y0085092D01*
X0180701Y0086289D02*
X0186989Y0086289D01*
X0186989Y0086887D02*
X0181300Y0086887D01*
X0181898Y0087486D02*
X0186989Y0087486D01*
X0186989Y0088084D02*
X0182497Y0088084D01*
X0183095Y0088683D02*
X0186989Y0088683D01*
X0186989Y0089281D02*
X0183694Y0089281D01*
X0184292Y0089880D02*
X0186989Y0089880D01*
X0186989Y0090478D02*
X0184891Y0090478D01*
X0185489Y0091077D02*
X0186989Y0091077D01*
X0186989Y0091675D02*
X0186088Y0091675D01*
X0186250Y0092274D02*
X0186989Y0092274D01*
X0186989Y0092872D02*
X0186250Y0092872D01*
X0186250Y0093471D02*
X0186989Y0093471D01*
X0186989Y0094069D02*
X0186250Y0094069D01*
X0186250Y0094668D02*
X0186989Y0094668D01*
X0186989Y0095266D02*
X0186250Y0095266D01*
X0186250Y0095865D02*
X0186989Y0095865D01*
X0186989Y0096463D02*
X0186250Y0096463D01*
X0186250Y0097062D02*
X0186989Y0097062D01*
X0186989Y0097660D02*
X0186250Y0097660D01*
X0186250Y0098259D02*
X0186989Y0098259D01*
X0186989Y0098857D02*
X0186250Y0098857D01*
X0186250Y0099456D02*
X0186989Y0099456D01*
X0186989Y0100054D02*
X0186250Y0100054D01*
X0186250Y0100653D02*
X0186989Y0100653D01*
X0186989Y0101251D02*
X0186250Y0101251D01*
X0186250Y0101850D02*
X0186989Y0101850D01*
X0186989Y0102448D02*
X0186250Y0102448D01*
X0186250Y0103047D02*
X0186989Y0103047D01*
X0186989Y0103645D02*
X0186250Y0103645D01*
X0186250Y0104244D02*
X0186989Y0104244D01*
X0186989Y0104842D02*
X0186250Y0104842D01*
X0186250Y0105441D02*
X0186989Y0105441D01*
X0186989Y0106039D02*
X0186250Y0106039D01*
X0186250Y0106638D02*
X0186989Y0106638D01*
X0186989Y0107237D02*
X0186250Y0107237D01*
X0186250Y0107835D02*
X0186989Y0107835D01*
X0186989Y0108434D02*
X0186250Y0108434D01*
X0186250Y0109032D02*
X0186989Y0109032D01*
X0186989Y0109631D02*
X0186250Y0109631D01*
X0186250Y0110229D02*
X0186989Y0110229D01*
X0186989Y0110828D02*
X0186250Y0110828D01*
X0186250Y0111426D02*
X0186989Y0111426D01*
X0186989Y0112025D02*
X0186250Y0112025D01*
X0186250Y0112623D02*
X0186989Y0112623D01*
X0186989Y0113222D02*
X0186250Y0113222D01*
X0186250Y0113820D02*
X0186989Y0113820D01*
X0186989Y0114419D02*
X0186250Y0114419D01*
X0186250Y0115017D02*
X0186989Y0115017D01*
X0186989Y0115616D02*
X0186250Y0115616D01*
X0186250Y0116214D02*
X0186989Y0116214D01*
X0186989Y0116813D02*
X0186250Y0116813D01*
X0186250Y0117411D02*
X0186989Y0117411D01*
X0186989Y0118010D02*
X0186250Y0118010D01*
X0186250Y0118608D02*
X0186989Y0118608D01*
X0186989Y0119207D02*
X0186250Y0119207D01*
X0186250Y0119805D02*
X0186989Y0119805D01*
X0186989Y0120404D02*
X0186250Y0120404D01*
X0186250Y0121002D02*
X0186989Y0121002D01*
X0186989Y0121601D02*
X0186250Y0121601D01*
X0186250Y0122199D02*
X0186989Y0122199D01*
X0186989Y0122798D02*
X0186250Y0122798D01*
X0186250Y0123396D02*
X0186989Y0123396D01*
X0186989Y0123995D02*
X0186250Y0123995D01*
X0186250Y0124593D02*
X0186989Y0124593D01*
X0186989Y0125192D02*
X0186250Y0125192D01*
X0186250Y0125790D02*
X0186989Y0125790D01*
X0186989Y0126389D02*
X0186250Y0126389D01*
X0186250Y0126987D02*
X0186989Y0126987D01*
X0186989Y0127586D02*
X0186250Y0127586D01*
X0186250Y0128184D02*
X0186989Y0128184D01*
X0186989Y0128783D02*
X0186250Y0128783D01*
X0186250Y0129381D02*
X0186989Y0129381D01*
X0186989Y0129980D02*
X0186250Y0129980D01*
X0186250Y0130578D02*
X0186989Y0130578D01*
X0186989Y0131177D02*
X0186250Y0131177D01*
X0186250Y0131775D02*
X0186989Y0131775D01*
X0186989Y0132374D02*
X0186250Y0132374D01*
X0186250Y0132972D02*
X0186989Y0132972D01*
X0186989Y0133571D02*
X0186250Y0133571D01*
X0186250Y0134170D02*
X0186989Y0134170D01*
X0186989Y0134768D02*
X0186250Y0134768D01*
X0186250Y0135367D02*
X0186989Y0135367D01*
X0186989Y0135965D02*
X0186250Y0135965D01*
X0186250Y0136564D02*
X0186989Y0136564D01*
X0186989Y0137162D02*
X0186250Y0137162D01*
X0186250Y0137761D02*
X0186989Y0137761D01*
X0186989Y0138359D02*
X0186250Y0138359D01*
X0186250Y0138958D02*
X0186989Y0138958D01*
X0186989Y0139556D02*
X0186250Y0139556D01*
X0186250Y0140155D02*
X0186989Y0140155D01*
X0186989Y0140753D02*
X0186250Y0140753D01*
X0186250Y0141352D02*
X0186989Y0141352D01*
X0186989Y0141950D02*
X0186250Y0141950D01*
X0186250Y0142549D02*
X0186989Y0142549D01*
X0186989Y0143147D02*
X0186250Y0143147D01*
X0186250Y0143746D02*
X0186989Y0143746D01*
X0186989Y0144344D02*
X0186250Y0144344D01*
X0186250Y0144943D02*
X0186989Y0144943D01*
X0186989Y0145541D02*
X0186250Y0145541D01*
X0186250Y0146140D02*
X0186989Y0146140D01*
X0186989Y0146738D02*
X0186250Y0146738D01*
X0186250Y0147337D02*
X0186989Y0147337D01*
X0186989Y0147935D02*
X0186250Y0147935D01*
X0186250Y0148534D02*
X0186989Y0148534D01*
X0186989Y0149132D02*
X0186250Y0149132D01*
X0186250Y0149731D02*
X0186989Y0149731D01*
X0186989Y0150329D02*
X0186250Y0150329D01*
X0186250Y0150928D02*
X0186989Y0150928D01*
X0186989Y0151526D02*
X0186250Y0151526D01*
X0186250Y0152125D02*
X0186989Y0152125D01*
X0186989Y0152723D02*
X0186250Y0152723D01*
X0186250Y0153322D02*
X0186989Y0153322D01*
X0186989Y0153920D02*
X0186250Y0153920D01*
X0186250Y0154519D02*
X0186989Y0154519D01*
X0186989Y0155117D02*
X0186250Y0155117D01*
X0186250Y0155716D02*
X0186989Y0155716D01*
X0186989Y0156314D02*
X0186250Y0156314D01*
X0185700Y0156913D02*
X0186989Y0156913D01*
X0186989Y0157511D02*
X0185101Y0157511D01*
X0184503Y0158110D02*
X0186989Y0158110D01*
X0186989Y0158708D02*
X0183904Y0158708D01*
X0183306Y0159307D02*
X0186989Y0159307D01*
X0186989Y0159905D02*
X0182707Y0159905D01*
X0182109Y0160504D02*
X0186989Y0160504D01*
X0186989Y0161103D02*
X0181510Y0161103D01*
X0180912Y0161701D02*
X0186989Y0161701D01*
X0186989Y0162300D02*
X0180313Y0162300D01*
X0179850Y0162763D02*
X0179850Y0162763D01*
X0179715Y0162898D02*
X0186989Y0162898D01*
X0186989Y0163497D02*
X0179116Y0163497D01*
X0178250Y0162100D02*
X0082250Y0162100D01*
X0076650Y0156500D01*
X0076250Y0156300D01*
X0072643Y0159905D02*
X0069857Y0159905D01*
X0070455Y0159307D02*
X0072045Y0159307D01*
X0071727Y0158708D02*
X0070773Y0158708D01*
X0071020Y0158110D02*
X0071480Y0158110D01*
X0073242Y0160504D02*
X0069258Y0160504D01*
X0067983Y0161103D02*
X0074517Y0161103D01*
X0077983Y0161103D02*
X0078990Y0161103D01*
X0079588Y0161701D02*
X0010550Y0161701D01*
X0010550Y0161103D02*
X0014517Y0161103D01*
X0013242Y0160504D02*
X0010550Y0160504D01*
X0010550Y0159905D02*
X0012643Y0159905D01*
X0012045Y0159307D02*
X0010550Y0159307D01*
X0010550Y0158708D02*
X0011727Y0158708D01*
X0011480Y0158110D02*
X0010550Y0158110D01*
X0010550Y0157511D02*
X0011232Y0157511D01*
X0011150Y0156913D02*
X0010550Y0156913D01*
X0010550Y0156314D02*
X0011150Y0156314D01*
X0011150Y0155716D02*
X0010550Y0155716D01*
X0010550Y0155117D02*
X0011220Y0155117D01*
X0011468Y0154519D02*
X0010550Y0154519D01*
X0010550Y0153920D02*
X0011715Y0153920D01*
X0012016Y0153322D02*
X0010550Y0153322D01*
X0010550Y0152723D02*
X0012614Y0152723D01*
X0013213Y0152125D02*
X0010550Y0152125D01*
X0010550Y0151526D02*
X0014448Y0151526D01*
X0018052Y0151526D02*
X0024448Y0151526D01*
X0023213Y0152125D02*
X0019287Y0152125D01*
X0019886Y0152723D02*
X0022614Y0152723D01*
X0022016Y0153322D02*
X0020484Y0153322D01*
X0020785Y0153920D02*
X0021715Y0153920D01*
X0021468Y0154519D02*
X0021032Y0154519D01*
X0021020Y0158110D02*
X0021480Y0158110D01*
X0021727Y0158708D02*
X0020773Y0158708D01*
X0020455Y0159307D02*
X0022045Y0159307D01*
X0022643Y0159905D02*
X0019857Y0159905D01*
X0019258Y0160504D02*
X0023242Y0160504D01*
X0024517Y0161103D02*
X0017983Y0161103D01*
X0016046Y0164095D02*
X0010550Y0164095D01*
X0010550Y0163497D02*
X0081384Y0163497D01*
X0080785Y0162898D02*
X0010550Y0162898D01*
X0010550Y0162300D02*
X0080187Y0162300D01*
X0071468Y0154519D02*
X0071032Y0154519D01*
X0070785Y0153920D02*
X0071715Y0153920D01*
X0072016Y0153322D02*
X0070484Y0153322D01*
X0069886Y0152723D02*
X0072614Y0152723D01*
X0073213Y0152125D02*
X0069287Y0152125D01*
X0068052Y0151526D02*
X0074448Y0151526D01*
X0066342Y0143746D02*
X0026158Y0143746D01*
X0025560Y0143147D02*
X0066940Y0143147D01*
X0065743Y0144344D02*
X0026757Y0144344D01*
X0027355Y0144943D02*
X0065145Y0144943D01*
X0064546Y0145541D02*
X0027954Y0145541D01*
X0028552Y0146140D02*
X0063948Y0146140D01*
X0063349Y0146738D02*
X0029151Y0146738D01*
X0029749Y0147337D02*
X0062750Y0147337D01*
X0062152Y0147935D02*
X0030348Y0147935D01*
X0030947Y0148534D02*
X0061553Y0148534D01*
X0060955Y0149132D02*
X0031545Y0149132D01*
X0032144Y0149731D02*
X0060356Y0149731D01*
X0059758Y0150329D02*
X0032742Y0150329D01*
X0033341Y0150928D02*
X0059159Y0150928D01*
X0058561Y0151526D02*
X0058052Y0151526D01*
X0054448Y0151526D02*
X0048052Y0151526D01*
X0049287Y0152125D02*
X0053213Y0152125D01*
X0052614Y0152723D02*
X0049886Y0152723D01*
X0050484Y0153322D02*
X0052016Y0153322D01*
X0051715Y0153920D02*
X0050785Y0153920D01*
X0051032Y0154519D02*
X0051468Y0154519D01*
X0044448Y0151526D02*
X0038052Y0151526D01*
X0039287Y0152125D02*
X0043213Y0152125D01*
X0042614Y0152723D02*
X0039886Y0152723D01*
X0040484Y0153322D02*
X0042016Y0153322D01*
X0041715Y0153920D02*
X0040785Y0153920D01*
X0041032Y0154519D02*
X0041468Y0154519D01*
X0041480Y0158110D02*
X0041020Y0158110D01*
X0040773Y0158708D02*
X0041727Y0158708D01*
X0042045Y0159307D02*
X0040455Y0159307D01*
X0039857Y0159905D02*
X0042643Y0159905D01*
X0043242Y0160504D02*
X0039258Y0160504D01*
X0037983Y0161103D02*
X0044517Y0161103D01*
X0036250Y0156300D02*
X0035850Y0155700D01*
X0011050Y0130900D01*
X0011050Y0094100D01*
X0014250Y0090900D01*
X0025450Y0090900D01*
X0044650Y0071700D01*
X0079050Y0071700D01*
X0094250Y0056500D01*
X0106250Y0056500D01*
X0106250Y0056300D01*
X0102874Y0060200D02*
X0101441Y0059606D01*
X0100344Y0058509D01*
X0100174Y0058100D01*
X0094913Y0058100D01*
X0080650Y0072363D01*
X0080324Y0072689D01*
X0081059Y0072994D01*
X0082156Y0074091D01*
X0082160Y0074100D01*
X0088787Y0074100D01*
X0101450Y0061437D01*
X0102387Y0060500D01*
X0131906Y0060500D01*
X0132670Y0059736D01*
X0133344Y0059457D01*
X0125693Y0051806D01*
X0125414Y0052480D01*
X0125240Y0052654D01*
X0126059Y0052994D01*
X0127156Y0054091D01*
X0127750Y0055524D01*
X0127750Y0057076D01*
X0127156Y0058509D01*
X0126059Y0059606D01*
X0124626Y0060200D01*
X0117874Y0060200D01*
X0116441Y0059606D01*
X0115344Y0058509D01*
X0114750Y0057076D01*
X0114750Y0055524D01*
X0115344Y0054091D01*
X0116441Y0052994D01*
X0117633Y0052500D01*
X0109867Y0052500D01*
X0111059Y0052994D01*
X0112156Y0054091D01*
X0112750Y0055524D01*
X0112750Y0057076D01*
X0112156Y0058509D01*
X0111059Y0059606D01*
X0109626Y0060200D01*
X0102874Y0060200D01*
X0102281Y0059954D02*
X0093059Y0059954D01*
X0093657Y0059356D02*
X0101190Y0059356D01*
X0100592Y0058757D02*
X0094256Y0058757D01*
X0094854Y0058159D02*
X0100199Y0058159D01*
X0101736Y0061151D02*
X0091862Y0061151D01*
X0092460Y0060553D02*
X0102335Y0060553D01*
X0101138Y0061750D02*
X0091263Y0061750D01*
X0090665Y0062348D02*
X0100539Y0062348D01*
X0099941Y0062947D02*
X0090066Y0062947D01*
X0089468Y0063545D02*
X0099342Y0063545D01*
X0098744Y0064144D02*
X0088869Y0064144D01*
X0088271Y0064742D02*
X0098145Y0064742D01*
X0097547Y0065341D02*
X0087672Y0065341D01*
X0087073Y0065939D02*
X0096948Y0065939D01*
X0096350Y0066538D02*
X0086475Y0066538D01*
X0085876Y0067136D02*
X0095751Y0067136D01*
X0095152Y0067735D02*
X0085278Y0067735D01*
X0084679Y0068333D02*
X0094554Y0068333D01*
X0093955Y0068932D02*
X0084081Y0068932D01*
X0083482Y0069530D02*
X0093357Y0069530D01*
X0092758Y0070129D02*
X0082884Y0070129D01*
X0082285Y0070727D02*
X0092160Y0070727D01*
X0091561Y0071326D02*
X0081687Y0071326D01*
X0081088Y0071924D02*
X0090963Y0071924D01*
X0090364Y0072523D02*
X0080490Y0072523D01*
X0081187Y0073121D02*
X0089766Y0073121D01*
X0089167Y0073720D02*
X0081785Y0073720D01*
X0082657Y0077300D02*
X0082156Y0078509D01*
X0081059Y0079606D01*
X0080833Y0079700D01*
X0101667Y0079700D01*
X0101441Y0079606D01*
X0100344Y0078509D01*
X0099750Y0077076D01*
X0099750Y0075524D01*
X0100344Y0074091D01*
X0101441Y0072994D01*
X0102874Y0072400D01*
X0109626Y0072400D01*
X0111059Y0072994D01*
X0112156Y0074091D01*
X0112750Y0075524D01*
X0112750Y0077076D01*
X0112156Y0078509D01*
X0111059Y0079606D01*
X0110833Y0079700D01*
X0112513Y0079700D01*
X0124371Y0091558D01*
X0125236Y0091200D01*
X0127264Y0091200D01*
X0129139Y0091976D01*
X0130574Y0093411D01*
X0131250Y0095044D01*
X0131926Y0093411D01*
X0133361Y0091976D01*
X0135236Y0091200D01*
X0137264Y0091200D01*
X0139139Y0091976D01*
X0140574Y0093411D01*
X0141250Y0095044D01*
X0141926Y0093411D01*
X0143361Y0091976D01*
X0143999Y0091712D01*
X0127706Y0075419D01*
X0127750Y0075524D01*
X0127750Y0077076D01*
X0127156Y0078509D01*
X0126059Y0079606D01*
X0124626Y0080200D01*
X0117874Y0080200D01*
X0116441Y0079606D01*
X0115344Y0078509D01*
X0114750Y0077076D01*
X0114750Y0075524D01*
X0115344Y0074091D01*
X0116441Y0072994D01*
X0117874Y0072400D01*
X0124626Y0072400D01*
X0124731Y0072444D01*
X0122487Y0070200D01*
X0117874Y0070200D01*
X0116441Y0069606D01*
X0115344Y0068509D01*
X0115340Y0068500D01*
X0104594Y0068500D01*
X0103830Y0069264D01*
X0102805Y0069689D01*
X0101695Y0069689D01*
X0100670Y0069264D01*
X0099886Y0068480D01*
X0099607Y0067806D01*
X0090113Y0077300D01*
X0082657Y0077300D01*
X0082653Y0077311D02*
X0099847Y0077311D01*
X0099750Y0076712D02*
X0090700Y0076712D01*
X0091299Y0076114D02*
X0099750Y0076114D01*
X0099754Y0075515D02*
X0091897Y0075515D01*
X0092496Y0074917D02*
X0100002Y0074917D01*
X0100249Y0074318D02*
X0093094Y0074318D01*
X0093693Y0073720D02*
X0100715Y0073720D01*
X0101313Y0073121D02*
X0094291Y0073121D01*
X0094890Y0072523D02*
X0102578Y0072523D01*
X0103188Y0069530D02*
X0116365Y0069530D01*
X0115766Y0068932D02*
X0104162Y0068932D01*
X0102250Y0066900D02*
X0120650Y0066900D01*
X0121250Y0066300D01*
X0121450Y0066900D01*
X0146250Y0091700D01*
X0146250Y0096300D01*
X0141541Y0098259D02*
X0140959Y0098259D01*
X0140711Y0098857D02*
X0141789Y0098857D01*
X0142193Y0099456D02*
X0140307Y0099456D01*
X0139708Y0100054D02*
X0142792Y0100054D01*
X0143432Y0100653D02*
X0139068Y0100653D01*
X0137623Y0101251D02*
X0144877Y0101251D01*
X0141293Y0097660D02*
X0141207Y0097660D01*
X0141094Y0094668D02*
X0141406Y0094668D01*
X0141654Y0094069D02*
X0140846Y0094069D01*
X0140598Y0093471D02*
X0141902Y0093471D01*
X0142465Y0092872D02*
X0140035Y0092872D01*
X0139436Y0092274D02*
X0143064Y0092274D01*
X0143962Y0091675D02*
X0138412Y0091675D01*
X0140970Y0088683D02*
X0121495Y0088683D01*
X0120897Y0088084D02*
X0140371Y0088084D01*
X0139773Y0087486D02*
X0120298Y0087486D01*
X0119700Y0086887D02*
X0139174Y0086887D01*
X0138576Y0086289D02*
X0119101Y0086289D01*
X0118503Y0085690D02*
X0137977Y0085690D01*
X0137379Y0085092D02*
X0117904Y0085092D01*
X0117306Y0084493D02*
X0136780Y0084493D01*
X0136182Y0083895D02*
X0116707Y0083895D01*
X0116109Y0083296D02*
X0135583Y0083296D01*
X0134985Y0082698D02*
X0115510Y0082698D01*
X0114912Y0082099D02*
X0134386Y0082099D01*
X0133788Y0081501D02*
X0114313Y0081501D01*
X0113715Y0080902D02*
X0133189Y0080902D01*
X0132591Y0080303D02*
X0113116Y0080303D01*
X0112518Y0079705D02*
X0116679Y0079705D01*
X0115941Y0079106D02*
X0111559Y0079106D01*
X0112157Y0078508D02*
X0115343Y0078508D01*
X0115095Y0077909D02*
X0112405Y0077909D01*
X0112653Y0077311D02*
X0114847Y0077311D01*
X0114750Y0076712D02*
X0112750Y0076712D01*
X0112750Y0076114D02*
X0114750Y0076114D01*
X0114754Y0075515D02*
X0112746Y0075515D01*
X0112498Y0074917D02*
X0115002Y0074917D01*
X0115249Y0074318D02*
X0112251Y0074318D01*
X0111785Y0073720D02*
X0115715Y0073720D01*
X0116313Y0073121D02*
X0111187Y0073121D01*
X0109922Y0072523D02*
X0117578Y0072523D01*
X0117702Y0070129D02*
X0097284Y0070129D01*
X0096685Y0070727D02*
X0123015Y0070727D01*
X0123613Y0071326D02*
X0096087Y0071326D01*
X0095488Y0071924D02*
X0124212Y0071924D01*
X0126343Y0069530D02*
X0143050Y0069530D01*
X0143050Y0069163D02*
X0143050Y0083837D01*
X0143050Y0085163D01*
X0151742Y0093855D01*
X0151250Y0095044D01*
X0150574Y0093411D01*
X0149139Y0091976D01*
X0147850Y0091443D01*
X0147850Y0091037D01*
X0146913Y0090100D01*
X0126239Y0069426D01*
X0127156Y0068509D01*
X0127750Y0067076D01*
X0127750Y0065524D01*
X0127156Y0064091D01*
X0126765Y0063700D01*
X0131906Y0063700D01*
X0132670Y0064464D01*
X0133695Y0064889D01*
X0134805Y0064889D01*
X0135830Y0064464D01*
X0136614Y0063680D01*
X0136893Y0063006D01*
X0143050Y0069163D01*
X0142819Y0068932D02*
X0126734Y0068932D01*
X0127229Y0068333D02*
X0142221Y0068333D01*
X0141622Y0067735D02*
X0127477Y0067735D01*
X0127725Y0067136D02*
X0141024Y0067136D01*
X0140425Y0066538D02*
X0127750Y0066538D01*
X0127750Y0065939D02*
X0139827Y0065939D01*
X0139228Y0065341D02*
X0127674Y0065341D01*
X0127426Y0064742D02*
X0133341Y0064742D01*
X0132349Y0064144D02*
X0127178Y0064144D01*
X0125219Y0059954D02*
X0132452Y0059954D01*
X0133243Y0059356D02*
X0126310Y0059356D01*
X0126908Y0058757D02*
X0132644Y0058757D01*
X0132046Y0058159D02*
X0127301Y0058159D01*
X0127549Y0057560D02*
X0131447Y0057560D01*
X0130849Y0056962D02*
X0127750Y0056962D01*
X0127750Y0056363D02*
X0130250Y0056363D01*
X0129652Y0055765D02*
X0127750Y0055765D01*
X0127602Y0055166D02*
X0129053Y0055166D01*
X0128455Y0054568D02*
X0127354Y0054568D01*
X0127034Y0053969D02*
X0127856Y0053969D01*
X0127258Y0053370D02*
X0126436Y0053370D01*
X0126659Y0052772D02*
X0125524Y0052772D01*
X0125541Y0052173D02*
X0126061Y0052173D01*
X0123050Y0050900D02*
X0097450Y0050900D01*
X0092650Y0055700D01*
X0076650Y0055700D01*
X0076250Y0056300D01*
X0072874Y0060200D02*
X0071441Y0059606D01*
X0070344Y0058509D01*
X0069750Y0057076D01*
X0069750Y0055524D01*
X0070212Y0054409D01*
X0069082Y0055539D01*
X0067245Y0056300D01*
X0065255Y0056300D01*
X0063418Y0055539D01*
X0062011Y0054132D01*
X0061250Y0052295D01*
X0061250Y0050305D01*
X0062011Y0048468D01*
X0063418Y0047061D01*
X0065255Y0046300D01*
X0067245Y0046300D01*
X0068194Y0046693D01*
X0083361Y0031526D01*
X0082944Y0031109D01*
X0082350Y0029676D01*
X0082350Y0022924D01*
X0082944Y0021491D01*
X0083135Y0021300D01*
X0079365Y0021300D01*
X0079556Y0021491D01*
X0080150Y0022924D01*
X0080150Y0029676D01*
X0079556Y0031109D01*
X0078459Y0032206D01*
X0077026Y0032800D01*
X0075474Y0032800D01*
X0074041Y0032206D01*
X0072944Y0031109D01*
X0072350Y0029676D01*
X0072350Y0028500D01*
X0071713Y0028500D01*
X0055700Y0044513D01*
X0055700Y0048143D01*
X0055528Y0048315D01*
X0070824Y0063611D01*
X0071441Y0062994D01*
X0072874Y0062400D01*
X0079626Y0062400D01*
X0081059Y0062994D01*
X0082156Y0064091D01*
X0082750Y0065524D01*
X0082750Y0065737D01*
X0091187Y0057300D01*
X0082657Y0057300D01*
X0082156Y0058509D01*
X0081059Y0059606D01*
X0079626Y0060200D01*
X0072874Y0060200D01*
X0072281Y0059954D02*
X0067167Y0059954D01*
X0067765Y0060553D02*
X0087935Y0060553D01*
X0087336Y0061151D02*
X0068364Y0061151D01*
X0068962Y0061750D02*
X0086738Y0061750D01*
X0086139Y0062348D02*
X0069561Y0062348D01*
X0070159Y0062947D02*
X0071554Y0062947D01*
X0070889Y0063545D02*
X0070758Y0063545D01*
X0068028Y0065341D02*
X0059875Y0065341D01*
X0059627Y0065939D02*
X0068627Y0065939D01*
X0069225Y0066538D02*
X0059128Y0066538D01*
X0058529Y0067136D02*
X0069775Y0067136D01*
X0070023Y0067735D02*
X0057183Y0067735D01*
X0055317Y0067735D02*
X0027183Y0067735D01*
X0028529Y0067136D02*
X0053971Y0067136D01*
X0053372Y0066538D02*
X0029128Y0066538D01*
X0029627Y0065939D02*
X0052873Y0065939D01*
X0052625Y0065341D02*
X0029875Y0065341D01*
X0030122Y0064742D02*
X0044945Y0064742D01*
X0044035Y0064144D02*
X0030150Y0064144D01*
X0030150Y0063545D02*
X0043436Y0063545D01*
X0042838Y0062947D02*
X0030150Y0062947D01*
X0030150Y0062348D02*
X0042239Y0062348D01*
X0041641Y0061750D02*
X0030150Y0061750D01*
X0030150Y0061151D02*
X0041042Y0061151D01*
X0040444Y0060553D02*
X0030150Y0060553D01*
X0030150Y0059954D02*
X0039845Y0059954D01*
X0039247Y0059356D02*
X0030150Y0059356D01*
X0030150Y0058757D02*
X0038648Y0058757D01*
X0038050Y0058159D02*
X0030150Y0058159D01*
X0029999Y0057560D02*
X0037451Y0057560D01*
X0036853Y0056962D02*
X0029751Y0056962D01*
X0029428Y0056363D02*
X0036254Y0056363D01*
X0035655Y0055765D02*
X0028830Y0055765D01*
X0027909Y0055166D02*
X0035057Y0055166D01*
X0034458Y0054568D02*
X0023850Y0054568D01*
X0023850Y0055166D02*
X0024591Y0055166D01*
X0023850Y0053969D02*
X0033860Y0053969D01*
X0033261Y0053370D02*
X0023850Y0053370D01*
X0023850Y0052772D02*
X0032663Y0052772D01*
X0032064Y0052173D02*
X0023850Y0052173D01*
X0023850Y0051575D02*
X0031466Y0051575D01*
X0030867Y0050976D02*
X0023850Y0050976D01*
X0023850Y0050378D02*
X0030269Y0050378D01*
X0029670Y0049779D02*
X0023850Y0049779D01*
X0023850Y0049181D02*
X0029072Y0049181D01*
X0027842Y0048582D02*
X0023850Y0048582D01*
X0023850Y0047984D02*
X0026956Y0047984D01*
X0026358Y0047385D02*
X0023850Y0047385D01*
X0023850Y0046787D02*
X0025959Y0046787D01*
X0025711Y0046188D02*
X0023850Y0046188D01*
X0023850Y0045590D02*
X0025463Y0045590D01*
X0025422Y0044991D02*
X0024021Y0044991D01*
X0024620Y0044393D02*
X0025422Y0044393D01*
X0025422Y0043794D02*
X0025218Y0043794D01*
X0022250Y0044500D02*
X0029450Y0037300D01*
X0029872Y0036733D01*
X0030250Y0037300D01*
X0042250Y0037300D01*
X0051250Y0046300D01*
X0071050Y0066100D01*
X0075850Y0066100D01*
X0076250Y0066300D01*
X0080946Y0062947D02*
X0085541Y0062947D01*
X0084942Y0063545D02*
X0081611Y0063545D01*
X0082178Y0064144D02*
X0084344Y0064144D01*
X0083745Y0064742D02*
X0082426Y0064742D01*
X0082674Y0065341D02*
X0083147Y0065341D01*
X0080219Y0059954D02*
X0088533Y0059954D01*
X0089132Y0059356D02*
X0081310Y0059356D01*
X0081908Y0058757D02*
X0089730Y0058757D01*
X0090329Y0058159D02*
X0082301Y0058159D01*
X0082549Y0057560D02*
X0090927Y0057560D01*
X0091987Y0054100D02*
X0095850Y0050237D01*
X0096787Y0049300D01*
X0120706Y0049300D01*
X0121470Y0048536D01*
X0122144Y0048257D01*
X0115050Y0041163D01*
X0115050Y0039837D01*
X0115050Y0031215D01*
X0113418Y0030539D01*
X0112011Y0029132D01*
X0111250Y0027295D01*
X0111250Y0025305D01*
X0112011Y0023468D01*
X0113418Y0022061D01*
X0115255Y0021300D01*
X0116058Y0021300D01*
X0109858Y0015100D01*
X0055050Y0015100D01*
X0055050Y0033807D01*
X0055700Y0034457D01*
X0055700Y0038143D01*
X0053093Y0040750D01*
X0049407Y0040750D01*
X0046800Y0038143D01*
X0046800Y0034457D01*
X0047450Y0033807D01*
X0047450Y0015100D01*
X0042824Y0015100D01*
X0020050Y0037874D01*
X0020050Y0057683D01*
X0020150Y0057924D01*
X0020150Y0063537D01*
X0020650Y0063037D01*
X0020650Y0043837D01*
X0025846Y0038641D01*
X0025422Y0037618D01*
X0025422Y0035848D01*
X0026100Y0034213D01*
X0027352Y0032961D01*
X0028987Y0032283D01*
X0030757Y0032283D01*
X0032393Y0032961D01*
X0033644Y0034213D01*
X0034260Y0035700D01*
X0042913Y0035700D01*
X0049235Y0042022D01*
X0049407Y0041850D01*
X0053093Y0041850D01*
X0053465Y0042222D01*
X0070387Y0025300D01*
X0072350Y0025300D01*
X0072350Y0022924D01*
X0072360Y0022900D01*
X0070150Y0022900D01*
X0070150Y0022915D01*
X0067865Y0025200D01*
X0064635Y0025200D01*
X0062350Y0022915D01*
X0062350Y0019685D01*
X0064635Y0017400D01*
X0067865Y0017400D01*
X0070150Y0019685D01*
X0070150Y0019700D01*
X0071987Y0019700D01*
X0072650Y0019037D01*
X0073587Y0018100D01*
X0090113Y0018100D01*
X0093224Y0021211D01*
X0094041Y0020394D01*
X0095474Y0019800D01*
X0097026Y0019800D01*
X0098459Y0020394D01*
X0099556Y0021491D01*
X0100150Y0022924D01*
X0100150Y0029676D01*
X0099556Y0031109D01*
X0098459Y0032206D01*
X0097026Y0032800D01*
X0095474Y0032800D01*
X0094041Y0032206D01*
X0092944Y0031109D01*
X0092350Y0029676D01*
X0092350Y0024863D01*
X0089965Y0022478D01*
X0090150Y0022924D01*
X0090150Y0029676D01*
X0089556Y0031109D01*
X0088459Y0032206D01*
X0087026Y0032800D01*
X0086613Y0032800D01*
X0070622Y0048790D01*
X0071250Y0050305D01*
X0071250Y0052295D01*
X0070621Y0053814D01*
X0071441Y0052994D01*
X0072874Y0052400D01*
X0079626Y0052400D01*
X0081059Y0052994D01*
X0082156Y0054091D01*
X0082160Y0054100D01*
X0091987Y0054100D01*
X0092118Y0053969D02*
X0082034Y0053969D01*
X0081436Y0053370D02*
X0092717Y0053370D01*
X0093315Y0052772D02*
X0080524Y0052772D01*
X0071976Y0052772D02*
X0071052Y0052772D01*
X0071064Y0053370D02*
X0070804Y0053370D01*
X0071250Y0052173D02*
X0093914Y0052173D01*
X0094512Y0051575D02*
X0071250Y0051575D01*
X0071250Y0050976D02*
X0095111Y0050976D01*
X0095709Y0050378D02*
X0071250Y0050378D01*
X0071032Y0049779D02*
X0096308Y0049779D01*
X0098113Y0052500D02*
X0095713Y0054900D01*
X0100009Y0054900D01*
X0100344Y0054091D01*
X0101441Y0052994D01*
X0102633Y0052500D01*
X0098113Y0052500D01*
X0097841Y0052772D02*
X0101976Y0052772D01*
X0101064Y0053370D02*
X0097242Y0053370D01*
X0096644Y0053969D02*
X0100466Y0053969D01*
X0100146Y0054568D02*
X0096045Y0054568D01*
X0103050Y0062100D02*
X0134250Y0062100D01*
X0136151Y0064144D02*
X0138031Y0064144D01*
X0138629Y0064742D02*
X0135159Y0064742D01*
X0136670Y0063545D02*
X0137432Y0063545D01*
X0139564Y0061151D02*
X0151038Y0061151D01*
X0150440Y0060553D02*
X0138965Y0060553D01*
X0138367Y0059954D02*
X0147281Y0059954D01*
X0146190Y0059356D02*
X0137768Y0059356D01*
X0137170Y0058757D02*
X0145592Y0058757D01*
X0145199Y0058159D02*
X0136571Y0058159D01*
X0135973Y0057560D02*
X0144951Y0057560D01*
X0144750Y0056962D02*
X0135374Y0056962D01*
X0134776Y0056363D02*
X0144750Y0056363D01*
X0144750Y0055765D02*
X0134177Y0055765D01*
X0133579Y0055166D02*
X0144898Y0055166D01*
X0145146Y0054568D02*
X0132980Y0054568D01*
X0132382Y0053969D02*
X0145466Y0053969D01*
X0146064Y0053370D02*
X0131783Y0053370D01*
X0131185Y0052772D02*
X0146976Y0052772D01*
X0151250Y0056300D02*
X0151850Y0056500D01*
X0151850Y0059700D01*
X0184650Y0092500D01*
X0184650Y0155700D01*
X0178250Y0162100D01*
X0177464Y0164095D02*
X0020076Y0164095D01*
X0022225Y0164694D02*
X0175314Y0164694D01*
X0174278Y0165292D02*
X0023262Y0165292D01*
X0024298Y0165891D02*
X0173241Y0165891D01*
X0172528Y0166489D02*
X0025011Y0166489D01*
X0025610Y0167088D02*
X0171930Y0167088D01*
X0171331Y0167686D02*
X0026208Y0167686D01*
X0026695Y0168285D02*
X0170844Y0168285D01*
X0170499Y0168883D02*
X0027041Y0168883D01*
X0027386Y0169482D02*
X0170153Y0169482D01*
X0169808Y0170080D02*
X0027732Y0170080D01*
X0028003Y0170679D02*
X0169537Y0170679D01*
X0169376Y0171277D02*
X0028163Y0171277D01*
X0028323Y0171876D02*
X0169216Y0171876D01*
X0169056Y0172474D02*
X0028484Y0172474D01*
X0028644Y0173073D02*
X0168895Y0173073D01*
X0168879Y0173671D02*
X0028660Y0173671D01*
X0028660Y0174270D02*
X0168879Y0174270D01*
X0168879Y0174868D02*
X0028660Y0174868D01*
X0028660Y0175467D02*
X0168879Y0175467D01*
X0168917Y0176065D02*
X0028622Y0176065D01*
X0028462Y0176664D02*
X0169077Y0176664D01*
X0169238Y0177262D02*
X0028302Y0177262D01*
X0028141Y0177861D02*
X0169398Y0177861D01*
X0169559Y0178459D02*
X0027981Y0178459D01*
X0027685Y0179058D02*
X0169855Y0179058D01*
X0170200Y0179656D02*
X0027339Y0179656D01*
X0026994Y0180255D02*
X0170546Y0180255D01*
X0170891Y0180853D02*
X0026648Y0180853D01*
X0026127Y0181452D02*
X0171412Y0181452D01*
X0186957Y0182039D02*
X0186989Y0182039D01*
X0186989Y0182007D01*
X0186957Y0182039D01*
X0186989Y0166489D02*
X0186429Y0166489D01*
X0186989Y0165891D02*
X0185716Y0165891D01*
X0184679Y0165292D02*
X0186989Y0165292D01*
X0186989Y0164694D02*
X0183642Y0164694D01*
X0181493Y0164095D02*
X0186989Y0164095D01*
X0181350Y0156737D02*
X0183050Y0155037D01*
X0183050Y0101963D01*
X0133450Y0151563D01*
X0132513Y0152500D01*
X0129662Y0152500D01*
X0130574Y0153411D01*
X0131250Y0155044D01*
X0131926Y0153411D01*
X0133361Y0151976D01*
X0135236Y0151200D01*
X0137264Y0151200D01*
X0139139Y0151976D01*
X0140574Y0153411D01*
X0141250Y0155044D01*
X0141926Y0153411D01*
X0143361Y0151976D01*
X0145236Y0151200D01*
X0147264Y0151200D01*
X0149139Y0151976D01*
X0150574Y0153411D01*
X0151250Y0155044D01*
X0151926Y0153411D01*
X0153361Y0151976D01*
X0155236Y0151200D01*
X0157264Y0151200D01*
X0159139Y0151976D01*
X0160574Y0153411D01*
X0161250Y0155044D01*
X0161926Y0153411D01*
X0163361Y0151976D01*
X0165236Y0151200D01*
X0167264Y0151200D01*
X0169139Y0151976D01*
X0170574Y0153411D01*
X0171250Y0155044D01*
X0171926Y0153411D01*
X0173361Y0151976D01*
X0175236Y0151200D01*
X0177264Y0151200D01*
X0179139Y0151976D01*
X0180574Y0153411D01*
X0181350Y0155286D01*
X0181350Y0156737D01*
X0181350Y0156314D02*
X0181773Y0156314D01*
X0181350Y0155716D02*
X0182371Y0155716D01*
X0182970Y0155117D02*
X0181280Y0155117D01*
X0181032Y0154519D02*
X0183050Y0154519D01*
X0183050Y0153920D02*
X0180785Y0153920D01*
X0180484Y0153322D02*
X0183050Y0153322D01*
X0183050Y0152723D02*
X0179886Y0152723D01*
X0179287Y0152125D02*
X0183050Y0152125D01*
X0183050Y0151526D02*
X0178052Y0151526D01*
X0174448Y0151526D02*
X0168052Y0151526D01*
X0169287Y0152125D02*
X0173213Y0152125D01*
X0172614Y0152723D02*
X0169886Y0152723D01*
X0170484Y0153322D02*
X0172016Y0153322D01*
X0171715Y0153920D02*
X0170785Y0153920D01*
X0171032Y0154519D02*
X0171468Y0154519D01*
X0171250Y0157556D02*
X0170574Y0159189D01*
X0169262Y0160500D01*
X0173238Y0160500D01*
X0171926Y0159189D01*
X0171250Y0157556D01*
X0171020Y0158110D02*
X0171480Y0158110D01*
X0171727Y0158708D02*
X0170773Y0158708D01*
X0170455Y0159307D02*
X0172045Y0159307D01*
X0172643Y0159905D02*
X0169857Y0159905D01*
X0163238Y0160500D02*
X0161926Y0159189D01*
X0161250Y0157556D01*
X0160574Y0159189D01*
X0159262Y0160500D01*
X0163238Y0160500D01*
X0162643Y0159905D02*
X0159857Y0159905D01*
X0160455Y0159307D02*
X0162045Y0159307D01*
X0161727Y0158708D02*
X0160773Y0158708D01*
X0161020Y0158110D02*
X0161480Y0158110D01*
X0161468Y0154519D02*
X0161032Y0154519D01*
X0160785Y0153920D02*
X0161715Y0153920D01*
X0162016Y0153322D02*
X0160484Y0153322D01*
X0159886Y0152723D02*
X0162614Y0152723D01*
X0163213Y0152125D02*
X0159287Y0152125D01*
X0158052Y0151526D02*
X0164448Y0151526D01*
X0154448Y0151526D02*
X0148052Y0151526D01*
X0149287Y0152125D02*
X0153213Y0152125D01*
X0152614Y0152723D02*
X0149886Y0152723D01*
X0150484Y0153322D02*
X0152016Y0153322D01*
X0151715Y0153920D02*
X0150785Y0153920D01*
X0151032Y0154519D02*
X0151468Y0154519D01*
X0151250Y0157556D02*
X0150574Y0159189D01*
X0149262Y0160500D01*
X0153238Y0160500D01*
X0151926Y0159189D01*
X0151250Y0157556D01*
X0151020Y0158110D02*
X0151480Y0158110D01*
X0151727Y0158708D02*
X0150773Y0158708D01*
X0150455Y0159307D02*
X0152045Y0159307D01*
X0152643Y0159905D02*
X0149857Y0159905D01*
X0143238Y0160500D02*
X0141926Y0159189D01*
X0141250Y0157556D01*
X0140574Y0159189D01*
X0139262Y0160500D01*
X0143238Y0160500D01*
X0142643Y0159905D02*
X0139857Y0159905D01*
X0140455Y0159307D02*
X0142045Y0159307D01*
X0141727Y0158708D02*
X0140773Y0158708D01*
X0141020Y0158110D02*
X0141480Y0158110D01*
X0141468Y0154519D02*
X0141032Y0154519D01*
X0140785Y0153920D02*
X0141715Y0153920D01*
X0142016Y0153322D02*
X0140484Y0153322D01*
X0139886Y0152723D02*
X0142614Y0152723D01*
X0143213Y0152125D02*
X0139287Y0152125D01*
X0138052Y0151526D02*
X0144448Y0151526D01*
X0138873Y0146140D02*
X0183050Y0146140D01*
X0183050Y0146738D02*
X0138274Y0146738D01*
X0137676Y0147337D02*
X0183050Y0147337D01*
X0183050Y0147935D02*
X0137077Y0147935D01*
X0136479Y0148534D02*
X0183050Y0148534D01*
X0183050Y0149132D02*
X0135880Y0149132D01*
X0135282Y0149731D02*
X0183050Y0149731D01*
X0183050Y0150329D02*
X0134683Y0150329D01*
X0134085Y0150928D02*
X0183050Y0150928D01*
X0183050Y0145541D02*
X0139471Y0145541D01*
X0140070Y0144943D02*
X0183050Y0144943D01*
X0183050Y0144344D02*
X0140669Y0144344D01*
X0141267Y0143746D02*
X0183050Y0143746D01*
X0183050Y0143147D02*
X0141866Y0143147D01*
X0142464Y0142549D02*
X0183050Y0142549D01*
X0183050Y0141950D02*
X0143063Y0141950D01*
X0143661Y0141352D02*
X0183050Y0141352D01*
X0183050Y0140753D02*
X0144260Y0140753D01*
X0144858Y0140155D02*
X0183050Y0140155D01*
X0183050Y0139556D02*
X0145457Y0139556D01*
X0146055Y0138958D02*
X0183050Y0138958D01*
X0183050Y0138359D02*
X0146654Y0138359D01*
X0147252Y0137761D02*
X0183050Y0137761D01*
X0183050Y0137162D02*
X0147851Y0137162D01*
X0148449Y0136564D02*
X0183050Y0136564D01*
X0183050Y0135965D02*
X0149048Y0135965D01*
X0149646Y0135367D02*
X0183050Y0135367D01*
X0183050Y0134768D02*
X0150245Y0134768D01*
X0150843Y0134170D02*
X0183050Y0134170D01*
X0183050Y0133571D02*
X0151442Y0133571D01*
X0152040Y0132972D02*
X0183050Y0132972D01*
X0183050Y0132374D02*
X0152639Y0132374D01*
X0153237Y0131775D02*
X0183050Y0131775D01*
X0183050Y0131177D02*
X0153836Y0131177D01*
X0154434Y0130578D02*
X0183050Y0130578D01*
X0183050Y0129980D02*
X0155033Y0129980D01*
X0155631Y0129381D02*
X0183050Y0129381D01*
X0183050Y0128783D02*
X0156230Y0128783D01*
X0156828Y0128184D02*
X0183050Y0128184D01*
X0183050Y0127586D02*
X0157427Y0127586D01*
X0158025Y0126987D02*
X0183050Y0126987D01*
X0183050Y0126389D02*
X0158624Y0126389D01*
X0159222Y0125790D02*
X0183050Y0125790D01*
X0183050Y0125192D02*
X0159821Y0125192D01*
X0160419Y0124593D02*
X0183050Y0124593D01*
X0183050Y0123995D02*
X0161018Y0123995D01*
X0161616Y0123396D02*
X0183050Y0123396D01*
X0183050Y0122798D02*
X0162215Y0122798D01*
X0162813Y0122199D02*
X0183050Y0122199D01*
X0183050Y0121601D02*
X0163412Y0121601D01*
X0164010Y0121002D02*
X0183050Y0121002D01*
X0183050Y0120404D02*
X0164609Y0120404D01*
X0165207Y0119805D02*
X0183050Y0119805D01*
X0183050Y0119207D02*
X0165806Y0119207D01*
X0166405Y0118608D02*
X0183050Y0118608D01*
X0183050Y0118010D02*
X0167003Y0118010D01*
X0167602Y0117411D02*
X0183050Y0117411D01*
X0183050Y0116813D02*
X0168200Y0116813D01*
X0168799Y0116214D02*
X0183050Y0116214D01*
X0183050Y0115616D02*
X0169397Y0115616D01*
X0169996Y0115017D02*
X0183050Y0115017D01*
X0183050Y0114419D02*
X0170594Y0114419D01*
X0171193Y0113820D02*
X0183050Y0113820D01*
X0183050Y0113222D02*
X0171791Y0113222D01*
X0172390Y0112623D02*
X0183050Y0112623D01*
X0183050Y0112025D02*
X0172988Y0112025D01*
X0173587Y0111426D02*
X0183050Y0111426D01*
X0183050Y0110828D02*
X0174185Y0110828D01*
X0174784Y0110229D02*
X0183050Y0110229D01*
X0183050Y0109631D02*
X0175382Y0109631D01*
X0175981Y0109032D02*
X0183050Y0109032D01*
X0183050Y0108434D02*
X0176579Y0108434D01*
X0177178Y0107835D02*
X0183050Y0107835D01*
X0183050Y0107237D02*
X0177776Y0107237D01*
X0178375Y0106638D02*
X0183050Y0106638D01*
X0183050Y0106039D02*
X0178973Y0106039D01*
X0179572Y0105441D02*
X0183050Y0105441D01*
X0183050Y0104842D02*
X0180170Y0104842D01*
X0180769Y0104244D02*
X0183050Y0104244D01*
X0183050Y0103645D02*
X0181367Y0103645D01*
X0181966Y0103047D02*
X0183050Y0103047D01*
X0183050Y0102448D02*
X0182564Y0102448D01*
X0176237Y0101850D02*
X0012650Y0101850D01*
X0012650Y0102448D02*
X0175639Y0102448D01*
X0175040Y0103047D02*
X0012650Y0103047D01*
X0012650Y0103645D02*
X0174442Y0103645D01*
X0173843Y0104244D02*
X0012650Y0104244D01*
X0012650Y0104842D02*
X0173245Y0104842D01*
X0172646Y0105441D02*
X0012650Y0105441D01*
X0012650Y0106039D02*
X0172048Y0106039D01*
X0171449Y0106638D02*
X0012650Y0106638D01*
X0012650Y0107237D02*
X0170851Y0107237D01*
X0170252Y0107835D02*
X0012650Y0107835D01*
X0012650Y0108434D02*
X0169654Y0108434D01*
X0169055Y0109032D02*
X0012650Y0109032D01*
X0012650Y0109631D02*
X0168457Y0109631D01*
X0167858Y0110229D02*
X0012650Y0110229D01*
X0012650Y0110828D02*
X0167260Y0110828D01*
X0166661Y0111426D02*
X0012650Y0111426D01*
X0012650Y0112025D02*
X0166063Y0112025D01*
X0165464Y0112623D02*
X0012650Y0112623D01*
X0012650Y0113222D02*
X0164866Y0113222D01*
X0164267Y0113820D02*
X0012650Y0113820D01*
X0012650Y0114419D02*
X0163669Y0114419D01*
X0163070Y0115017D02*
X0012650Y0115017D01*
X0012650Y0115616D02*
X0162472Y0115616D01*
X0161873Y0116214D02*
X0012650Y0116214D01*
X0012650Y0116813D02*
X0161275Y0116813D01*
X0160676Y0117411D02*
X0012650Y0117411D01*
X0012650Y0118010D02*
X0160078Y0118010D01*
X0159479Y0118608D02*
X0012650Y0118608D01*
X0012650Y0119207D02*
X0158881Y0119207D01*
X0158282Y0119805D02*
X0012650Y0119805D01*
X0012650Y0120404D02*
X0157684Y0120404D01*
X0157085Y0121002D02*
X0012650Y0121002D01*
X0012650Y0121601D02*
X0156486Y0121601D01*
X0155888Y0122199D02*
X0012650Y0122199D01*
X0012650Y0122798D02*
X0155289Y0122798D01*
X0154691Y0123396D02*
X0012650Y0123396D01*
X0012650Y0123995D02*
X0154092Y0123995D01*
X0153494Y0124593D02*
X0012650Y0124593D01*
X0012650Y0125192D02*
X0152895Y0125192D01*
X0152297Y0125790D02*
X0012650Y0125790D01*
X0012650Y0126389D02*
X0151698Y0126389D01*
X0151100Y0126987D02*
X0012650Y0126987D01*
X0012650Y0127586D02*
X0150501Y0127586D01*
X0149903Y0128184D02*
X0012650Y0128184D01*
X0012650Y0128783D02*
X0149304Y0128783D01*
X0148706Y0129381D02*
X0012650Y0129381D01*
X0012650Y0129980D02*
X0148107Y0129980D01*
X0147509Y0130578D02*
X0012991Y0130578D01*
X0013590Y0131177D02*
X0146910Y0131177D01*
X0146312Y0131775D02*
X0014188Y0131775D01*
X0014787Y0132374D02*
X0145713Y0132374D01*
X0145115Y0132972D02*
X0015385Y0132972D01*
X0015984Y0133571D02*
X0144516Y0133571D01*
X0143918Y0134170D02*
X0016582Y0134170D01*
X0017181Y0134768D02*
X0143319Y0134768D01*
X0142721Y0135367D02*
X0017779Y0135367D01*
X0018378Y0135965D02*
X0142122Y0135965D01*
X0141524Y0136564D02*
X0018976Y0136564D01*
X0019575Y0137162D02*
X0140925Y0137162D01*
X0140327Y0137761D02*
X0020173Y0137761D01*
X0020772Y0138359D02*
X0139728Y0138359D01*
X0139130Y0138958D02*
X0021370Y0138958D01*
X0021969Y0139556D02*
X0138531Y0139556D01*
X0137933Y0140155D02*
X0022567Y0140155D01*
X0023166Y0140753D02*
X0137334Y0140753D01*
X0136736Y0141352D02*
X0023764Y0141352D01*
X0024363Y0141950D02*
X0136137Y0141950D01*
X0135539Y0142549D02*
X0024961Y0142549D01*
X0022231Y0144344D02*
X0010550Y0144344D01*
X0010550Y0143746D02*
X0021633Y0143746D01*
X0021034Y0143147D02*
X0010550Y0143147D01*
X0010550Y0142549D02*
X0020436Y0142549D01*
X0019837Y0141950D02*
X0010550Y0141950D01*
X0010550Y0141352D02*
X0019239Y0141352D01*
X0018640Y0140753D02*
X0010550Y0140753D01*
X0010550Y0140155D02*
X0018042Y0140155D01*
X0017443Y0139556D02*
X0010550Y0139556D01*
X0010550Y0138958D02*
X0016845Y0138958D01*
X0016246Y0138359D02*
X0010550Y0138359D01*
X0010550Y0137761D02*
X0015648Y0137761D01*
X0015049Y0137162D02*
X0010550Y0137162D01*
X0010550Y0136564D02*
X0014451Y0136564D01*
X0013852Y0135965D02*
X0010550Y0135965D01*
X0010550Y0135367D02*
X0013254Y0135367D01*
X0012655Y0134768D02*
X0010550Y0134768D01*
X0010550Y0134170D02*
X0012057Y0134170D01*
X0011458Y0133571D02*
X0010550Y0133571D01*
X0010550Y0132972D02*
X0010860Y0132972D01*
X0010550Y0144943D02*
X0022830Y0144943D01*
X0023429Y0145541D02*
X0010550Y0145541D01*
X0010550Y0146140D02*
X0024027Y0146140D01*
X0024626Y0146738D02*
X0010550Y0146738D01*
X0010550Y0147337D02*
X0025224Y0147337D01*
X0025823Y0147935D02*
X0010550Y0147935D01*
X0010550Y0148534D02*
X0026421Y0148534D01*
X0027020Y0149132D02*
X0010550Y0149132D01*
X0010550Y0149731D02*
X0027618Y0149731D01*
X0028217Y0150329D02*
X0010550Y0150329D01*
X0010550Y0150928D02*
X0028815Y0150928D01*
X0029414Y0151526D02*
X0028052Y0151526D01*
X0029287Y0152125D02*
X0030012Y0152125D01*
X0029886Y0152723D02*
X0030611Y0152723D01*
X0030484Y0153322D02*
X0031209Y0153322D01*
X0030785Y0153920D02*
X0031715Y0153920D01*
X0031468Y0154519D02*
X0031032Y0154519D01*
X0031020Y0158110D02*
X0031480Y0158110D01*
X0031727Y0158708D02*
X0030773Y0158708D01*
X0030455Y0159307D02*
X0032045Y0159307D01*
X0032643Y0159905D02*
X0029857Y0159905D01*
X0029258Y0160504D02*
X0033242Y0160504D01*
X0034517Y0161103D02*
X0027983Y0161103D01*
X0033939Y0151526D02*
X0034448Y0151526D01*
X0013897Y0164694D02*
X0010550Y0164694D01*
X0010550Y0165292D02*
X0012860Y0165292D01*
X0011824Y0165891D02*
X0010550Y0165891D01*
X0010550Y0166489D02*
X0011111Y0166489D01*
X0010550Y0182007D02*
X0010550Y0182039D01*
X0010583Y0182039D01*
X0010550Y0182007D01*
X0089262Y0160500D02*
X0090574Y0159189D01*
X0091250Y0157556D01*
X0091926Y0159189D01*
X0093238Y0160500D01*
X0089262Y0160500D01*
X0089857Y0159905D02*
X0092643Y0159905D01*
X0092045Y0159307D02*
X0090455Y0159307D01*
X0090773Y0158708D02*
X0091727Y0158708D01*
X0091480Y0158110D02*
X0091020Y0158110D01*
X0099262Y0160500D02*
X0103238Y0160500D01*
X0101926Y0159189D01*
X0101250Y0157556D01*
X0100574Y0159189D01*
X0099262Y0160500D01*
X0099857Y0159905D02*
X0102643Y0159905D01*
X0102045Y0159307D02*
X0100455Y0159307D01*
X0100773Y0158708D02*
X0101727Y0158708D01*
X0101480Y0158110D02*
X0101020Y0158110D01*
X0101032Y0154519D02*
X0101468Y0154519D01*
X0101715Y0153920D02*
X0100785Y0153920D01*
X0100484Y0153322D02*
X0102016Y0153322D01*
X0102614Y0152723D02*
X0099886Y0152723D01*
X0099287Y0152125D02*
X0103213Y0152125D01*
X0104448Y0151526D02*
X0098052Y0151526D01*
X0096675Y0149132D02*
X0131355Y0149132D01*
X0131953Y0148534D02*
X0096923Y0148534D01*
X0097039Y0147935D02*
X0132552Y0147935D01*
X0133150Y0147337D02*
X0097039Y0147337D01*
X0096870Y0146738D02*
X0133749Y0146738D01*
X0134348Y0146140D02*
X0096622Y0146140D01*
X0119262Y0160500D02*
X0123238Y0160500D01*
X0121926Y0159189D01*
X0121250Y0157556D01*
X0120574Y0159189D01*
X0119262Y0160500D01*
X0119857Y0159905D02*
X0122643Y0159905D01*
X0122045Y0159307D02*
X0120455Y0159307D01*
X0120773Y0158708D02*
X0121727Y0158708D01*
X0121480Y0158110D02*
X0121020Y0158110D01*
X0129262Y0160500D02*
X0133238Y0160500D01*
X0131926Y0159189D01*
X0131250Y0157556D01*
X0130574Y0159189D01*
X0129262Y0160500D01*
X0129857Y0159905D02*
X0132643Y0159905D01*
X0132045Y0159307D02*
X0130455Y0159307D01*
X0130773Y0158708D02*
X0131727Y0158708D01*
X0131480Y0158110D02*
X0131020Y0158110D01*
X0131032Y0154519D02*
X0131468Y0154519D01*
X0131715Y0153920D02*
X0130785Y0153920D01*
X0130484Y0153322D02*
X0132016Y0153322D01*
X0132614Y0152723D02*
X0129886Y0152723D01*
X0132888Y0152125D02*
X0133213Y0152125D01*
X0133486Y0151526D02*
X0134448Y0151526D01*
X0134877Y0101251D02*
X0127623Y0101251D01*
X0129068Y0100653D02*
X0133432Y0100653D01*
X0132792Y0100054D02*
X0129708Y0100054D01*
X0130307Y0099456D02*
X0132193Y0099456D01*
X0131789Y0098857D02*
X0130711Y0098857D01*
X0130959Y0098259D02*
X0131541Y0098259D01*
X0131293Y0097660D02*
X0131207Y0097660D01*
X0131094Y0094668D02*
X0131406Y0094668D01*
X0131654Y0094069D02*
X0130846Y0094069D01*
X0130598Y0093471D02*
X0131902Y0093471D01*
X0132465Y0092872D02*
X0130035Y0092872D01*
X0129436Y0092274D02*
X0133064Y0092274D01*
X0134088Y0091675D02*
X0128412Y0091675D01*
X0123889Y0091077D02*
X0143364Y0091077D01*
X0142765Y0090478D02*
X0123291Y0090478D01*
X0122692Y0089880D02*
X0142167Y0089880D01*
X0141568Y0089281D02*
X0122094Y0089281D01*
X0119962Y0091675D02*
X0118412Y0091675D01*
X0119139Y0091976D02*
X0120574Y0093411D01*
X0121250Y0095044D01*
X0121860Y0093572D01*
X0111187Y0082900D01*
X0070999Y0082900D01*
X0070489Y0084132D01*
X0069082Y0085539D01*
X0067245Y0086300D01*
X0065255Y0086300D01*
X0063418Y0085539D01*
X0062011Y0084132D01*
X0061250Y0082295D01*
X0061250Y0080305D01*
X0062011Y0078468D01*
X0063418Y0077061D01*
X0065255Y0076300D01*
X0067245Y0076300D01*
X0069082Y0077061D01*
X0070212Y0078191D01*
X0069750Y0077076D01*
X0069750Y0075524D01*
X0070344Y0074091D01*
X0071135Y0073300D01*
X0045313Y0073300D01*
X0027369Y0091243D01*
X0029139Y0091976D01*
X0030574Y0093411D01*
X0031250Y0095044D01*
X0031926Y0093411D01*
X0033361Y0091976D01*
X0035236Y0091200D01*
X0037264Y0091200D01*
X0039139Y0091976D01*
X0040574Y0093411D01*
X0041250Y0095044D01*
X0041926Y0093411D01*
X0043361Y0091976D01*
X0045236Y0091200D01*
X0047264Y0091200D01*
X0049139Y0091976D01*
X0050574Y0093411D01*
X0051250Y0095044D01*
X0051926Y0093411D01*
X0053361Y0091976D01*
X0055236Y0091200D01*
X0057264Y0091200D01*
X0059139Y0091976D01*
X0060574Y0093411D01*
X0061250Y0095044D01*
X0061926Y0093411D01*
X0063361Y0091976D01*
X0065236Y0091200D01*
X0067264Y0091200D01*
X0069139Y0091976D01*
X0070574Y0093411D01*
X0071250Y0095044D01*
X0071926Y0093411D01*
X0073361Y0091976D01*
X0075236Y0091200D01*
X0077264Y0091200D01*
X0079139Y0091976D01*
X0080574Y0093411D01*
X0081250Y0095044D01*
X0081926Y0093411D01*
X0083361Y0091976D01*
X0085236Y0091200D01*
X0087264Y0091200D01*
X0089139Y0091976D01*
X0090574Y0093411D01*
X0091250Y0095044D01*
X0091926Y0093411D01*
X0093361Y0091976D01*
X0095236Y0091200D01*
X0097264Y0091200D01*
X0099139Y0091976D01*
X0100574Y0093411D01*
X0101250Y0095044D01*
X0101926Y0093411D01*
X0103361Y0091976D01*
X0105236Y0091200D01*
X0107264Y0091200D01*
X0109139Y0091976D01*
X0110574Y0093411D01*
X0111250Y0095044D01*
X0111926Y0093411D01*
X0113361Y0091976D01*
X0115236Y0091200D01*
X0117264Y0091200D01*
X0119139Y0091976D01*
X0119436Y0092274D02*
X0120561Y0092274D01*
X0120035Y0092872D02*
X0121160Y0092872D01*
X0120598Y0093471D02*
X0121758Y0093471D01*
X0121654Y0094069D02*
X0120846Y0094069D01*
X0121094Y0094668D02*
X0121406Y0094668D01*
X0121293Y0097660D02*
X0121207Y0097660D01*
X0120959Y0098259D02*
X0121541Y0098259D01*
X0121789Y0098857D02*
X0120711Y0098857D01*
X0120307Y0099456D02*
X0122193Y0099456D01*
X0122792Y0100054D02*
X0119708Y0100054D01*
X0119068Y0100653D02*
X0123432Y0100653D01*
X0124877Y0101251D02*
X0117623Y0101251D01*
X0114877Y0101251D02*
X0107623Y0101251D01*
X0109068Y0100653D02*
X0113432Y0100653D01*
X0112792Y0100054D02*
X0109708Y0100054D01*
X0110307Y0099456D02*
X0112193Y0099456D01*
X0111789Y0098857D02*
X0110711Y0098857D01*
X0110959Y0098259D02*
X0111541Y0098259D01*
X0111293Y0097660D02*
X0111207Y0097660D01*
X0111094Y0094668D02*
X0111406Y0094668D01*
X0111654Y0094069D02*
X0110846Y0094069D01*
X0110598Y0093471D02*
X0111902Y0093471D01*
X0112465Y0092872D02*
X0110035Y0092872D01*
X0109436Y0092274D02*
X0113064Y0092274D01*
X0114088Y0091675D02*
X0108412Y0091675D01*
X0104088Y0091675D02*
X0098412Y0091675D01*
X0099436Y0092274D02*
X0103064Y0092274D01*
X0102465Y0092872D02*
X0100035Y0092872D01*
X0100598Y0093471D02*
X0101902Y0093471D01*
X0101654Y0094069D02*
X0100846Y0094069D01*
X0101094Y0094668D02*
X0101406Y0094668D01*
X0101293Y0097660D02*
X0101207Y0097660D01*
X0100959Y0098259D02*
X0101541Y0098259D01*
X0101789Y0098857D02*
X0100711Y0098857D01*
X0100307Y0099456D02*
X0102193Y0099456D01*
X0102792Y0100054D02*
X0099708Y0100054D01*
X0099068Y0100653D02*
X0103432Y0100653D01*
X0104877Y0101251D02*
X0097623Y0101251D01*
X0094877Y0101251D02*
X0087623Y0101251D01*
X0089068Y0100653D02*
X0093432Y0100653D01*
X0092792Y0100054D02*
X0089708Y0100054D01*
X0090307Y0099456D02*
X0092193Y0099456D01*
X0091789Y0098857D02*
X0090711Y0098857D01*
X0090959Y0098259D02*
X0091541Y0098259D01*
X0091293Y0097660D02*
X0091207Y0097660D01*
X0091094Y0094668D02*
X0091406Y0094668D01*
X0091654Y0094069D02*
X0090846Y0094069D01*
X0090598Y0093471D02*
X0091902Y0093471D01*
X0092465Y0092872D02*
X0090035Y0092872D01*
X0089436Y0092274D02*
X0093064Y0092274D01*
X0094088Y0091675D02*
X0088412Y0091675D01*
X0084088Y0091675D02*
X0078412Y0091675D01*
X0079436Y0092274D02*
X0083064Y0092274D01*
X0082465Y0092872D02*
X0080035Y0092872D01*
X0080598Y0093471D02*
X0081902Y0093471D01*
X0081654Y0094069D02*
X0080846Y0094069D01*
X0081094Y0094668D02*
X0081406Y0094668D01*
X0081293Y0097660D02*
X0081207Y0097660D01*
X0080959Y0098259D02*
X0081541Y0098259D01*
X0081789Y0098857D02*
X0080711Y0098857D01*
X0080307Y0099456D02*
X0082193Y0099456D01*
X0082792Y0100054D02*
X0079708Y0100054D01*
X0079068Y0100653D02*
X0083432Y0100653D01*
X0084877Y0101251D02*
X0077623Y0101251D01*
X0074877Y0101251D02*
X0067623Y0101251D01*
X0069068Y0100653D02*
X0073432Y0100653D01*
X0072792Y0100054D02*
X0069708Y0100054D01*
X0070307Y0099456D02*
X0072193Y0099456D01*
X0071789Y0098857D02*
X0070711Y0098857D01*
X0070959Y0098259D02*
X0071541Y0098259D01*
X0071293Y0097660D02*
X0071207Y0097660D01*
X0071094Y0094668D02*
X0071406Y0094668D01*
X0071654Y0094069D02*
X0070846Y0094069D01*
X0070598Y0093471D02*
X0071902Y0093471D01*
X0072465Y0092872D02*
X0070035Y0092872D01*
X0069436Y0092274D02*
X0073064Y0092274D01*
X0074088Y0091675D02*
X0068412Y0091675D01*
X0064088Y0091675D02*
X0058412Y0091675D01*
X0059436Y0092274D02*
X0063064Y0092274D01*
X0062465Y0092872D02*
X0060035Y0092872D01*
X0060598Y0093471D02*
X0061902Y0093471D01*
X0061654Y0094069D02*
X0060846Y0094069D01*
X0061094Y0094668D02*
X0061406Y0094668D01*
X0061293Y0097660D02*
X0061207Y0097660D01*
X0060959Y0098259D02*
X0061541Y0098259D01*
X0061789Y0098857D02*
X0060711Y0098857D01*
X0060307Y0099456D02*
X0062193Y0099456D01*
X0062792Y0100054D02*
X0059708Y0100054D01*
X0059068Y0100653D02*
X0063432Y0100653D01*
X0064877Y0101251D02*
X0057623Y0101251D01*
X0054877Y0101251D02*
X0047623Y0101251D01*
X0049068Y0100653D02*
X0053432Y0100653D01*
X0052792Y0100054D02*
X0049708Y0100054D01*
X0050307Y0099456D02*
X0052193Y0099456D01*
X0051789Y0098857D02*
X0050711Y0098857D01*
X0050959Y0098259D02*
X0051541Y0098259D01*
X0051293Y0097660D02*
X0051207Y0097660D01*
X0051094Y0094668D02*
X0051406Y0094668D01*
X0051654Y0094069D02*
X0050846Y0094069D01*
X0050598Y0093471D02*
X0051902Y0093471D01*
X0052465Y0092872D02*
X0050035Y0092872D01*
X0049436Y0092274D02*
X0053064Y0092274D01*
X0054088Y0091675D02*
X0048412Y0091675D01*
X0053722Y0086887D02*
X0031726Y0086887D01*
X0032324Y0086289D02*
X0053123Y0086289D01*
X0052944Y0086109D02*
X0052350Y0084676D01*
X0052350Y0077924D01*
X0052944Y0076491D01*
X0054041Y0075394D01*
X0055474Y0074800D01*
X0057026Y0074800D01*
X0058459Y0075394D01*
X0059556Y0076491D01*
X0060150Y0077924D01*
X0060150Y0084676D01*
X0059556Y0086109D01*
X0058459Y0087206D01*
X0057026Y0087800D01*
X0055474Y0087800D01*
X0054041Y0087206D01*
X0052944Y0086109D01*
X0052770Y0085690D02*
X0032923Y0085690D01*
X0033521Y0085092D02*
X0052522Y0085092D01*
X0052350Y0084493D02*
X0034120Y0084493D01*
X0034718Y0083895D02*
X0052350Y0083895D01*
X0052350Y0083296D02*
X0035317Y0083296D01*
X0035915Y0082698D02*
X0052350Y0082698D01*
X0052350Y0082099D02*
X0036514Y0082099D01*
X0037112Y0081501D02*
X0052350Y0081501D01*
X0052350Y0080902D02*
X0037711Y0080902D01*
X0038309Y0080303D02*
X0052350Y0080303D01*
X0052350Y0079705D02*
X0038908Y0079705D01*
X0039506Y0079106D02*
X0052350Y0079106D01*
X0052350Y0078508D02*
X0040105Y0078508D01*
X0040703Y0077909D02*
X0052356Y0077909D01*
X0052604Y0077311D02*
X0041302Y0077311D01*
X0041900Y0076712D02*
X0052852Y0076712D01*
X0053321Y0076114D02*
X0042499Y0076114D01*
X0043097Y0075515D02*
X0053919Y0075515D01*
X0055192Y0074917D02*
X0043696Y0074917D01*
X0044294Y0074318D02*
X0070249Y0074318D01*
X0070002Y0074917D02*
X0057308Y0074917D01*
X0058581Y0075515D02*
X0069754Y0075515D01*
X0069750Y0076114D02*
X0059179Y0076114D01*
X0059648Y0076712D02*
X0064260Y0076712D01*
X0063168Y0077311D02*
X0059896Y0077311D01*
X0060144Y0077909D02*
X0062569Y0077909D01*
X0061995Y0078508D02*
X0060150Y0078508D01*
X0060150Y0079106D02*
X0061747Y0079106D01*
X0061499Y0079705D02*
X0060150Y0079705D01*
X0060150Y0080303D02*
X0061251Y0080303D01*
X0061250Y0080902D02*
X0060150Y0080902D01*
X0060150Y0081501D02*
X0061250Y0081501D01*
X0061250Y0082099D02*
X0060150Y0082099D01*
X0060150Y0082698D02*
X0061417Y0082698D01*
X0061665Y0083296D02*
X0060150Y0083296D01*
X0060150Y0083895D02*
X0061913Y0083895D01*
X0062372Y0084493D02*
X0060150Y0084493D01*
X0059978Y0085092D02*
X0062971Y0085092D01*
X0063783Y0085690D02*
X0059730Y0085690D01*
X0059377Y0086289D02*
X0065228Y0086289D01*
X0067272Y0086289D02*
X0114576Y0086289D01*
X0115174Y0086887D02*
X0058778Y0086887D01*
X0057785Y0087486D02*
X0115773Y0087486D01*
X0116371Y0088084D02*
X0030529Y0088084D01*
X0031127Y0087486D02*
X0054715Y0087486D01*
X0044088Y0091675D02*
X0038412Y0091675D01*
X0039436Y0092274D02*
X0043064Y0092274D01*
X0042465Y0092872D02*
X0040035Y0092872D01*
X0040598Y0093471D02*
X0041902Y0093471D01*
X0041654Y0094069D02*
X0040846Y0094069D01*
X0041094Y0094668D02*
X0041406Y0094668D01*
X0041293Y0097660D02*
X0041207Y0097660D01*
X0040959Y0098259D02*
X0041541Y0098259D01*
X0041789Y0098857D02*
X0040711Y0098857D01*
X0040307Y0099456D02*
X0042193Y0099456D01*
X0042792Y0100054D02*
X0039708Y0100054D01*
X0039068Y0100653D02*
X0043432Y0100653D01*
X0044877Y0101251D02*
X0037623Y0101251D01*
X0034877Y0101251D02*
X0027623Y0101251D01*
X0029068Y0100653D02*
X0033432Y0100653D01*
X0032792Y0100054D02*
X0029708Y0100054D01*
X0030307Y0099456D02*
X0032193Y0099456D01*
X0031789Y0098857D02*
X0030711Y0098857D01*
X0030959Y0098259D02*
X0031541Y0098259D01*
X0031293Y0097660D02*
X0031207Y0097660D01*
X0031094Y0094668D02*
X0031406Y0094668D01*
X0031654Y0094069D02*
X0030846Y0094069D01*
X0030598Y0093471D02*
X0031902Y0093471D01*
X0032465Y0092872D02*
X0030035Y0092872D01*
X0029436Y0092274D02*
X0033064Y0092274D01*
X0034088Y0091675D02*
X0028412Y0091675D01*
X0027536Y0091077D02*
X0119364Y0091077D01*
X0118765Y0090478D02*
X0028135Y0090478D01*
X0028733Y0089880D02*
X0118167Y0089880D01*
X0117568Y0089281D02*
X0029332Y0089281D01*
X0029930Y0088683D02*
X0116970Y0088683D01*
X0113977Y0085690D02*
X0068717Y0085690D01*
X0069529Y0085092D02*
X0113379Y0085092D01*
X0112780Y0084493D02*
X0070128Y0084493D01*
X0070587Y0083895D02*
X0112182Y0083895D01*
X0111583Y0083296D02*
X0070835Y0083296D01*
X0070999Y0079700D02*
X0071667Y0079700D01*
X0071441Y0079606D01*
X0070621Y0078786D01*
X0070999Y0079700D01*
X0070941Y0079106D02*
X0070753Y0079106D01*
X0070095Y0077909D02*
X0069930Y0077909D01*
X0069847Y0077311D02*
X0069332Y0077311D01*
X0069750Y0076712D02*
X0068240Y0076712D01*
X0070715Y0073720D02*
X0044893Y0073720D01*
X0042761Y0071326D02*
X0018250Y0071326D01*
X0018250Y0071924D02*
X0042163Y0071924D01*
X0041564Y0072523D02*
X0018250Y0072523D01*
X0018250Y0073121D02*
X0040966Y0073121D01*
X0040367Y0073720D02*
X0018250Y0073720D01*
X0018250Y0074318D02*
X0039769Y0074318D01*
X0039170Y0074917D02*
X0027308Y0074917D01*
X0028581Y0075515D02*
X0038572Y0075515D01*
X0037973Y0076114D02*
X0029179Y0076114D01*
X0029648Y0076712D02*
X0037375Y0076712D01*
X0036776Y0077311D02*
X0029896Y0077311D01*
X0030144Y0077909D02*
X0036178Y0077909D01*
X0035579Y0078508D02*
X0030150Y0078508D01*
X0030150Y0079106D02*
X0034981Y0079106D01*
X0034382Y0079705D02*
X0030150Y0079705D01*
X0030150Y0080303D02*
X0033784Y0080303D01*
X0033185Y0080902D02*
X0030150Y0080902D01*
X0030150Y0081501D02*
X0032587Y0081501D01*
X0031988Y0082099D02*
X0030150Y0082099D01*
X0030150Y0082698D02*
X0031390Y0082698D01*
X0030791Y0083296D02*
X0030150Y0083296D01*
X0030150Y0083895D02*
X0030193Y0083895D01*
X0026003Y0088084D02*
X0010550Y0088084D01*
X0010550Y0087486D02*
X0014715Y0087486D01*
X0013722Y0086887D02*
X0010550Y0086887D01*
X0010550Y0086289D02*
X0013123Y0086289D01*
X0012770Y0085690D02*
X0010550Y0085690D01*
X0010550Y0085092D02*
X0012522Y0085092D01*
X0012350Y0084493D02*
X0010550Y0084493D01*
X0010550Y0083895D02*
X0012350Y0083895D01*
X0012350Y0083296D02*
X0010550Y0083296D01*
X0010550Y0082698D02*
X0012350Y0082698D01*
X0012350Y0082099D02*
X0010550Y0082099D01*
X0010550Y0081501D02*
X0012350Y0081501D01*
X0012350Y0080902D02*
X0010550Y0080902D01*
X0010550Y0080303D02*
X0012350Y0080303D01*
X0012350Y0079705D02*
X0010550Y0079705D01*
X0010550Y0079106D02*
X0012350Y0079106D01*
X0012350Y0078508D02*
X0010550Y0078508D01*
X0010550Y0077909D02*
X0012356Y0077909D01*
X0012604Y0077311D02*
X0010550Y0077311D01*
X0010550Y0076712D02*
X0012852Y0076712D01*
X0013321Y0076114D02*
X0010550Y0076114D01*
X0010550Y0075515D02*
X0013919Y0075515D01*
X0015050Y0074917D02*
X0010550Y0074917D01*
X0010550Y0074318D02*
X0015050Y0074318D01*
X0015050Y0073720D02*
X0010550Y0073720D01*
X0010550Y0073121D02*
X0015050Y0073121D01*
X0015050Y0072523D02*
X0010550Y0072523D01*
X0010550Y0071924D02*
X0015050Y0071924D01*
X0015050Y0071326D02*
X0010550Y0071326D01*
X0010550Y0070727D02*
X0015050Y0070727D01*
X0015050Y0070129D02*
X0010550Y0070129D01*
X0010550Y0069530D02*
X0015050Y0069530D01*
X0015050Y0068932D02*
X0010550Y0068932D01*
X0010550Y0068333D02*
X0015354Y0068333D01*
X0015317Y0067735D02*
X0010550Y0067735D01*
X0010550Y0067136D02*
X0013971Y0067136D01*
X0013372Y0066538D02*
X0010550Y0066538D01*
X0010550Y0065939D02*
X0012873Y0065939D01*
X0012625Y0065341D02*
X0010550Y0065341D01*
X0010550Y0064742D02*
X0012378Y0064742D01*
X0012350Y0064144D02*
X0010550Y0064144D01*
X0010550Y0063545D02*
X0012350Y0063545D01*
X0012350Y0062947D02*
X0010550Y0062947D01*
X0010550Y0062348D02*
X0012350Y0062348D01*
X0012350Y0061750D02*
X0010550Y0061750D01*
X0010550Y0061151D02*
X0012350Y0061151D01*
X0012350Y0060553D02*
X0010550Y0060553D01*
X0010550Y0059954D02*
X0012350Y0059954D01*
X0012350Y0059356D02*
X0010550Y0059356D01*
X0010550Y0058757D02*
X0012350Y0058757D01*
X0012350Y0058159D02*
X0010550Y0058159D01*
X0010550Y0057560D02*
X0012450Y0057560D01*
X0012450Y0056962D02*
X0010550Y0056962D01*
X0010550Y0056363D02*
X0012450Y0056363D01*
X0012450Y0055765D02*
X0010550Y0055765D01*
X0010550Y0055166D02*
X0012450Y0055166D01*
X0012450Y0054568D02*
X0010550Y0054568D01*
X0010550Y0053969D02*
X0012450Y0053969D01*
X0012450Y0053370D02*
X0010550Y0053370D01*
X0010550Y0052772D02*
X0012450Y0052772D01*
X0012450Y0052173D02*
X0010550Y0052173D01*
X0010550Y0051575D02*
X0012450Y0051575D01*
X0012450Y0050976D02*
X0010550Y0050976D01*
X0010550Y0050378D02*
X0012450Y0050378D01*
X0012450Y0049779D02*
X0010550Y0049779D01*
X0010550Y0049181D02*
X0012450Y0049181D01*
X0012450Y0048582D02*
X0010550Y0048582D01*
X0010550Y0047984D02*
X0012450Y0047984D01*
X0012450Y0047385D02*
X0010550Y0047385D01*
X0010550Y0046787D02*
X0012450Y0046787D01*
X0012450Y0046188D02*
X0010550Y0046188D01*
X0010550Y0045590D02*
X0012450Y0045590D01*
X0012450Y0044991D02*
X0010550Y0044991D01*
X0010550Y0044393D02*
X0012450Y0044393D01*
X0012450Y0043794D02*
X0010550Y0043794D01*
X0010550Y0043196D02*
X0012450Y0043196D01*
X0012450Y0042597D02*
X0010550Y0042597D01*
X0010550Y0041999D02*
X0012450Y0041999D01*
X0012450Y0041400D02*
X0010550Y0041400D01*
X0010550Y0040802D02*
X0012450Y0040802D01*
X0012450Y0040203D02*
X0010550Y0040203D01*
X0010550Y0039605D02*
X0012450Y0039605D01*
X0012450Y0039006D02*
X0010550Y0039006D01*
X0010550Y0038408D02*
X0012450Y0038408D01*
X0012450Y0037809D02*
X0010550Y0037809D01*
X0010550Y0037211D02*
X0012450Y0037211D01*
X0012450Y0036612D02*
X0010550Y0036612D01*
X0010550Y0036014D02*
X0012450Y0036014D01*
X0012503Y0035415D02*
X0010550Y0035415D01*
X0010550Y0034817D02*
X0012751Y0034817D01*
X0012999Y0034218D02*
X0010550Y0034218D01*
X0010550Y0033620D02*
X0013556Y0033620D01*
X0014155Y0033021D02*
X0010550Y0033021D01*
X0010550Y0032423D02*
X0014753Y0032423D01*
X0015352Y0031824D02*
X0010550Y0031824D01*
X0010550Y0031226D02*
X0015950Y0031226D01*
X0016549Y0030627D02*
X0010550Y0030627D01*
X0010550Y0030029D02*
X0017147Y0030029D01*
X0017746Y0029430D02*
X0010550Y0029430D01*
X0010550Y0028832D02*
X0018344Y0028832D01*
X0018943Y0028233D02*
X0010550Y0028233D01*
X0010550Y0027634D02*
X0019541Y0027634D01*
X0020140Y0027036D02*
X0010550Y0027036D01*
X0010550Y0026437D02*
X0020739Y0026437D01*
X0021337Y0025839D02*
X0010550Y0025839D01*
X0010550Y0025240D02*
X0021936Y0025240D01*
X0022534Y0024642D02*
X0010550Y0024642D01*
X0010550Y0024043D02*
X0023133Y0024043D01*
X0023731Y0023445D02*
X0020447Y0023445D01*
X0022397Y0022846D02*
X0024330Y0022846D01*
X0024928Y0022248D02*
X0023434Y0022248D01*
X0024471Y0021649D02*
X0025527Y0021649D01*
X0025111Y0021051D02*
X0026125Y0021051D01*
X0025709Y0020452D02*
X0026724Y0020452D01*
X0026308Y0019854D02*
X0027322Y0019854D01*
X0026753Y0019255D02*
X0027921Y0019255D01*
X0028519Y0018657D02*
X0027098Y0018657D01*
X0027444Y0018058D02*
X0029118Y0018058D01*
X0029716Y0017460D02*
X0027789Y0017460D01*
X0028029Y0016861D02*
X0030315Y0016861D01*
X0030913Y0016263D02*
X0028190Y0016263D01*
X0028350Y0015664D02*
X0031512Y0015664D01*
X0032110Y0015066D02*
X0028510Y0015066D01*
X0028660Y0014467D02*
X0032709Y0014467D01*
X0033307Y0013869D02*
X0028660Y0013869D01*
X0028660Y0013270D02*
X0033906Y0013270D01*
X0034504Y0012672D02*
X0028660Y0012672D01*
X0028660Y0012073D02*
X0035103Y0012073D01*
X0035701Y0011475D02*
X0028596Y0011475D01*
X0028435Y0010876D02*
X0036300Y0010876D01*
X0036898Y0010278D02*
X0028275Y0010278D01*
X0028115Y0009679D02*
X0037497Y0009679D01*
X0038095Y0009081D02*
X0027954Y0009081D01*
X0027627Y0008482D02*
X0038694Y0008482D01*
X0039568Y0007884D02*
X0027282Y0007884D01*
X0038669Y0019255D02*
X0047450Y0019255D01*
X0047450Y0018657D02*
X0039267Y0018657D01*
X0039866Y0018058D02*
X0047450Y0018058D01*
X0047450Y0017460D02*
X0040464Y0017460D01*
X0041063Y0016861D02*
X0047450Y0016861D01*
X0047450Y0016263D02*
X0041661Y0016263D01*
X0042260Y0015664D02*
X0047450Y0015664D01*
X0047450Y0019854D02*
X0038070Y0019854D01*
X0037472Y0020452D02*
X0047450Y0020452D01*
X0047450Y0021051D02*
X0036873Y0021051D01*
X0036275Y0021649D02*
X0047450Y0021649D01*
X0047450Y0022248D02*
X0035676Y0022248D01*
X0035078Y0022846D02*
X0047450Y0022846D01*
X0047450Y0023445D02*
X0034479Y0023445D01*
X0033881Y0024043D02*
X0047450Y0024043D01*
X0047450Y0024642D02*
X0033282Y0024642D01*
X0032684Y0025240D02*
X0047450Y0025240D01*
X0047450Y0025839D02*
X0032085Y0025839D01*
X0031487Y0026437D02*
X0047450Y0026437D01*
X0047450Y0027036D02*
X0030888Y0027036D01*
X0030289Y0027634D02*
X0047450Y0027634D01*
X0047450Y0028233D02*
X0029691Y0028233D01*
X0029092Y0028832D02*
X0047450Y0028832D01*
X0047450Y0029430D02*
X0028494Y0029430D01*
X0027895Y0030029D02*
X0047450Y0030029D01*
X0047450Y0030627D02*
X0027297Y0030627D01*
X0026698Y0031226D02*
X0047450Y0031226D01*
X0047450Y0031824D02*
X0026100Y0031824D01*
X0025501Y0032423D02*
X0028651Y0032423D01*
X0027291Y0033021D02*
X0024903Y0033021D01*
X0024304Y0033620D02*
X0026693Y0033620D01*
X0026098Y0034218D02*
X0023706Y0034218D01*
X0023107Y0034817D02*
X0025850Y0034817D01*
X0025602Y0035415D02*
X0022509Y0035415D01*
X0021910Y0036014D02*
X0025422Y0036014D01*
X0025422Y0036612D02*
X0021312Y0036612D01*
X0020713Y0037211D02*
X0025422Y0037211D01*
X0025502Y0037809D02*
X0020115Y0037809D01*
X0020050Y0038408D02*
X0025749Y0038408D01*
X0025481Y0039006D02*
X0020050Y0039006D01*
X0020050Y0039605D02*
X0024883Y0039605D01*
X0024284Y0040203D02*
X0020050Y0040203D01*
X0020050Y0040802D02*
X0023686Y0040802D01*
X0023087Y0041400D02*
X0020050Y0041400D01*
X0020050Y0041999D02*
X0022488Y0041999D01*
X0021890Y0042597D02*
X0020050Y0042597D01*
X0020050Y0043196D02*
X0021291Y0043196D01*
X0020693Y0043794D02*
X0020050Y0043794D01*
X0020050Y0044393D02*
X0020650Y0044393D01*
X0020650Y0044991D02*
X0020050Y0044991D01*
X0020050Y0045590D02*
X0020650Y0045590D01*
X0020650Y0046188D02*
X0020050Y0046188D01*
X0020050Y0046787D02*
X0020650Y0046787D01*
X0020650Y0047385D02*
X0020050Y0047385D01*
X0020050Y0047984D02*
X0020650Y0047984D01*
X0020650Y0048582D02*
X0020050Y0048582D01*
X0020050Y0049181D02*
X0020650Y0049181D01*
X0020650Y0049779D02*
X0020050Y0049779D01*
X0020050Y0050378D02*
X0020650Y0050378D01*
X0020650Y0050976D02*
X0020050Y0050976D01*
X0020050Y0051575D02*
X0020650Y0051575D01*
X0020650Y0052173D02*
X0020050Y0052173D01*
X0020050Y0052772D02*
X0020650Y0052772D01*
X0020650Y0053370D02*
X0020050Y0053370D01*
X0020050Y0053969D02*
X0020650Y0053969D01*
X0020650Y0054568D02*
X0020050Y0054568D01*
X0020050Y0055166D02*
X0020650Y0055166D01*
X0020650Y0055765D02*
X0020050Y0055765D01*
X0020050Y0056363D02*
X0020650Y0056363D01*
X0020650Y0056962D02*
X0020050Y0056962D01*
X0020050Y0057560D02*
X0020650Y0057560D01*
X0020650Y0058159D02*
X0020150Y0058159D01*
X0020150Y0058757D02*
X0020650Y0058757D01*
X0020650Y0059356D02*
X0020150Y0059356D01*
X0020150Y0059954D02*
X0020650Y0059954D01*
X0020650Y0060553D02*
X0020150Y0060553D01*
X0020150Y0061151D02*
X0020650Y0061151D01*
X0020650Y0061750D02*
X0020150Y0061750D01*
X0020150Y0062348D02*
X0020650Y0062348D01*
X0020650Y0062947D02*
X0020150Y0062947D01*
X0022250Y0063700D02*
X0022250Y0044500D01*
X0031995Y0040670D02*
X0032393Y0040835D01*
X0033644Y0042087D01*
X0034294Y0043655D01*
X0048139Y0057500D01*
X0052526Y0057500D01*
X0052944Y0056491D01*
X0054041Y0055394D01*
X0055474Y0054800D01*
X0057026Y0054800D01*
X0057814Y0055126D01*
X0053265Y0050578D01*
X0053093Y0050750D01*
X0049407Y0050750D01*
X0046800Y0048143D01*
X0046800Y0044457D01*
X0046972Y0044285D01*
X0041587Y0038900D01*
X0033791Y0038900D01*
X0033644Y0039254D01*
X0032393Y0040505D01*
X0031995Y0040670D01*
X0032313Y0040802D02*
X0043489Y0040802D01*
X0044088Y0041400D02*
X0032958Y0041400D01*
X0033556Y0041999D02*
X0044686Y0041999D01*
X0045285Y0042597D02*
X0033856Y0042597D01*
X0034104Y0043196D02*
X0045883Y0043196D01*
X0046482Y0043794D02*
X0034433Y0043794D01*
X0035032Y0044393D02*
X0046864Y0044393D01*
X0046800Y0044991D02*
X0035630Y0044991D01*
X0036229Y0045590D02*
X0046800Y0045590D01*
X0046800Y0046188D02*
X0036827Y0046188D01*
X0037426Y0046787D02*
X0046800Y0046787D01*
X0046800Y0047385D02*
X0038024Y0047385D01*
X0038623Y0047984D02*
X0046800Y0047984D01*
X0047239Y0048582D02*
X0039221Y0048582D01*
X0039820Y0049181D02*
X0047838Y0049181D01*
X0048436Y0049779D02*
X0040418Y0049779D01*
X0041017Y0050378D02*
X0049035Y0050378D01*
X0051250Y0046300D02*
X0051850Y0046100D01*
X0071050Y0026900D01*
X0075850Y0026900D01*
X0076250Y0026300D01*
X0080150Y0026437D02*
X0082350Y0026437D01*
X0082350Y0025839D02*
X0080150Y0025839D01*
X0080150Y0025240D02*
X0082350Y0025240D01*
X0082350Y0024642D02*
X0080150Y0024642D01*
X0080150Y0024043D02*
X0082350Y0024043D01*
X0082350Y0023445D02*
X0080150Y0023445D01*
X0080118Y0022846D02*
X0082382Y0022846D01*
X0082630Y0022248D02*
X0079870Y0022248D01*
X0079622Y0021649D02*
X0082878Y0021649D01*
X0082350Y0027036D02*
X0080150Y0027036D01*
X0080150Y0027634D02*
X0082350Y0027634D01*
X0082350Y0028233D02*
X0080150Y0028233D01*
X0080150Y0028832D02*
X0082350Y0028832D01*
X0082350Y0029430D02*
X0080150Y0029430D01*
X0080004Y0030029D02*
X0082496Y0030029D01*
X0082744Y0030627D02*
X0079756Y0030627D01*
X0079440Y0031226D02*
X0083060Y0031226D01*
X0083063Y0031824D02*
X0078841Y0031824D01*
X0077937Y0032423D02*
X0082465Y0032423D01*
X0081866Y0033021D02*
X0067192Y0033021D01*
X0067790Y0032423D02*
X0074563Y0032423D01*
X0073659Y0031824D02*
X0068389Y0031824D01*
X0068987Y0031226D02*
X0073060Y0031226D01*
X0072744Y0030627D02*
X0069586Y0030627D01*
X0070184Y0030029D02*
X0072496Y0030029D01*
X0072350Y0029430D02*
X0070783Y0029430D01*
X0071381Y0028832D02*
X0072350Y0028832D01*
X0072350Y0025240D02*
X0055050Y0025240D01*
X0055050Y0024642D02*
X0064077Y0024642D01*
X0063478Y0024043D02*
X0055050Y0024043D01*
X0055050Y0023445D02*
X0062880Y0023445D01*
X0062350Y0022846D02*
X0055050Y0022846D01*
X0055050Y0022248D02*
X0062350Y0022248D01*
X0062350Y0021649D02*
X0055050Y0021649D01*
X0055050Y0021051D02*
X0062350Y0021051D01*
X0062350Y0020452D02*
X0055050Y0020452D01*
X0055050Y0019854D02*
X0062350Y0019854D01*
X0062779Y0019255D02*
X0055050Y0019255D01*
X0055050Y0018657D02*
X0063378Y0018657D01*
X0063976Y0018058D02*
X0055050Y0018058D01*
X0055050Y0017460D02*
X0064575Y0017460D01*
X0067925Y0017460D02*
X0112218Y0017460D01*
X0112817Y0018058D02*
X0068524Y0018058D01*
X0069122Y0018657D02*
X0073030Y0018657D01*
X0072432Y0019255D02*
X0069721Y0019255D01*
X0072650Y0021300D02*
X0074250Y0019700D01*
X0089450Y0019700D01*
X0095850Y0026100D01*
X0096250Y0026300D01*
X0100150Y0026437D02*
X0111250Y0026437D01*
X0111250Y0025839D02*
X0100150Y0025839D01*
X0100150Y0025240D02*
X0111277Y0025240D01*
X0111525Y0024642D02*
X0100150Y0024642D01*
X0100150Y0024043D02*
X0111773Y0024043D01*
X0112034Y0023445D02*
X0100150Y0023445D01*
X0100118Y0022846D02*
X0112633Y0022846D01*
X0113231Y0022248D02*
X0099870Y0022248D01*
X0099622Y0021649D02*
X0114412Y0021649D01*
X0115211Y0020452D02*
X0098518Y0020452D01*
X0099116Y0021051D02*
X0115809Y0021051D01*
X0114612Y0019854D02*
X0097156Y0019854D01*
X0095344Y0019854D02*
X0091867Y0019854D01*
X0092465Y0020452D02*
X0093982Y0020452D01*
X0093384Y0021051D02*
X0093064Y0021051D01*
X0091268Y0019255D02*
X0114014Y0019255D01*
X0113415Y0018657D02*
X0090670Y0018657D01*
X0090334Y0022846D02*
X0090118Y0022846D01*
X0090150Y0023445D02*
X0090932Y0023445D01*
X0091531Y0024043D02*
X0090150Y0024043D01*
X0090150Y0024642D02*
X0092129Y0024642D01*
X0092350Y0025240D02*
X0090150Y0025240D01*
X0090150Y0025839D02*
X0092350Y0025839D01*
X0092350Y0026437D02*
X0090150Y0026437D01*
X0090150Y0027036D02*
X0092350Y0027036D01*
X0092350Y0027634D02*
X0090150Y0027634D01*
X0090150Y0028233D02*
X0092350Y0028233D01*
X0092350Y0028832D02*
X0090150Y0028832D01*
X0090150Y0029430D02*
X0092350Y0029430D01*
X0092496Y0030029D02*
X0090004Y0030029D01*
X0089756Y0030627D02*
X0092744Y0030627D01*
X0093060Y0031226D02*
X0089440Y0031226D01*
X0088841Y0031824D02*
X0093659Y0031824D01*
X0094563Y0032423D02*
X0087937Y0032423D01*
X0086392Y0033021D02*
X0115050Y0033021D01*
X0115050Y0032423D02*
X0097937Y0032423D01*
X0098841Y0031824D02*
X0115050Y0031824D01*
X0115050Y0031226D02*
X0099440Y0031226D01*
X0099756Y0030627D02*
X0113631Y0030627D01*
X0112907Y0030029D02*
X0100004Y0030029D01*
X0100150Y0029430D02*
X0112309Y0029430D01*
X0111887Y0028832D02*
X0100150Y0028832D01*
X0100150Y0028233D02*
X0111639Y0028233D01*
X0111391Y0027634D02*
X0100150Y0027634D01*
X0100150Y0027036D02*
X0111250Y0027036D01*
X0115050Y0033620D02*
X0085793Y0033620D01*
X0085195Y0034218D02*
X0115050Y0034218D01*
X0115050Y0034817D02*
X0084596Y0034817D01*
X0083998Y0035415D02*
X0115050Y0035415D01*
X0115050Y0036014D02*
X0083399Y0036014D01*
X0082801Y0036612D02*
X0115050Y0036612D01*
X0115050Y0037211D02*
X0082202Y0037211D01*
X0081604Y0037809D02*
X0115050Y0037809D01*
X0115050Y0038408D02*
X0081005Y0038408D01*
X0080406Y0039006D02*
X0115050Y0039006D01*
X0115050Y0039605D02*
X0079808Y0039605D01*
X0079209Y0040203D02*
X0115050Y0040203D01*
X0115050Y0040802D02*
X0078611Y0040802D01*
X0078012Y0041400D02*
X0115288Y0041400D01*
X0115886Y0041999D02*
X0077414Y0041999D01*
X0076815Y0042597D02*
X0116485Y0042597D01*
X0117083Y0043196D02*
X0076217Y0043196D01*
X0075618Y0043794D02*
X0117682Y0043794D01*
X0118280Y0044393D02*
X0075020Y0044393D01*
X0074421Y0044991D02*
X0118879Y0044991D01*
X0119477Y0045590D02*
X0073823Y0045590D01*
X0073224Y0046188D02*
X0120076Y0046188D01*
X0120674Y0046787D02*
X0072626Y0046787D01*
X0072027Y0047385D02*
X0121273Y0047385D01*
X0121871Y0047984D02*
X0071429Y0047984D01*
X0070830Y0048582D02*
X0121423Y0048582D01*
X0120825Y0049181D02*
X0070784Y0049181D01*
X0068699Y0046188D02*
X0055700Y0046188D01*
X0055700Y0045590D02*
X0069297Y0045590D01*
X0069896Y0044991D02*
X0068074Y0044991D01*
X0067865Y0045200D02*
X0064635Y0045200D01*
X0062350Y0042915D01*
X0062350Y0039685D01*
X0064635Y0037400D01*
X0067865Y0037400D01*
X0070150Y0039685D01*
X0070150Y0042915D01*
X0067865Y0045200D01*
X0068673Y0044393D02*
X0070494Y0044393D01*
X0071093Y0043794D02*
X0069271Y0043794D01*
X0069870Y0043196D02*
X0071691Y0043196D01*
X0072290Y0042597D02*
X0070150Y0042597D01*
X0070150Y0041999D02*
X0072888Y0041999D01*
X0073487Y0041400D02*
X0070150Y0041400D01*
X0070150Y0040802D02*
X0074086Y0040802D01*
X0074684Y0040203D02*
X0070150Y0040203D01*
X0070070Y0039605D02*
X0075283Y0039605D01*
X0075881Y0039006D02*
X0069472Y0039006D01*
X0068873Y0038408D02*
X0076480Y0038408D01*
X0077078Y0037809D02*
X0068275Y0037809D01*
X0064225Y0037809D02*
X0062404Y0037809D01*
X0063002Y0037211D02*
X0077677Y0037211D01*
X0078275Y0036612D02*
X0063601Y0036612D01*
X0064199Y0036014D02*
X0078874Y0036014D01*
X0079472Y0035415D02*
X0064798Y0035415D01*
X0065396Y0034817D02*
X0080071Y0034817D01*
X0080669Y0034218D02*
X0065995Y0034218D01*
X0066593Y0033620D02*
X0081268Y0033620D01*
X0086250Y0030900D02*
X0066250Y0050900D01*
X0066250Y0051300D01*
X0062495Y0047984D02*
X0055700Y0047984D01*
X0055700Y0047385D02*
X0063094Y0047385D01*
X0064080Y0046787D02*
X0055700Y0046787D01*
X0055700Y0044991D02*
X0064426Y0044991D01*
X0063827Y0044393D02*
X0055820Y0044393D01*
X0056418Y0043794D02*
X0063229Y0043794D01*
X0062630Y0043196D02*
X0057017Y0043196D01*
X0057615Y0042597D02*
X0062350Y0042597D01*
X0062350Y0041999D02*
X0058214Y0041999D01*
X0058812Y0041400D02*
X0062350Y0041400D01*
X0062350Y0040802D02*
X0059411Y0040802D01*
X0060009Y0040203D02*
X0062350Y0040203D01*
X0062430Y0039605D02*
X0060608Y0039605D01*
X0061207Y0039006D02*
X0063028Y0039006D01*
X0063627Y0038408D02*
X0061805Y0038408D01*
X0059674Y0036014D02*
X0055700Y0036014D01*
X0055700Y0036612D02*
X0059075Y0036612D01*
X0058477Y0037211D02*
X0055700Y0037211D01*
X0055700Y0037809D02*
X0057878Y0037809D01*
X0057280Y0038408D02*
X0055436Y0038408D01*
X0054837Y0039006D02*
X0056681Y0039006D01*
X0056083Y0039605D02*
X0054238Y0039605D01*
X0053640Y0040203D02*
X0055484Y0040203D01*
X0054886Y0040802D02*
X0048014Y0040802D01*
X0047416Y0040203D02*
X0048860Y0040203D01*
X0048261Y0039605D02*
X0046817Y0039605D01*
X0046219Y0039006D02*
X0047663Y0039006D01*
X0047064Y0038408D02*
X0045620Y0038408D01*
X0045022Y0037809D02*
X0046800Y0037809D01*
X0046800Y0037211D02*
X0044423Y0037211D01*
X0043825Y0036612D02*
X0046800Y0036612D01*
X0046800Y0036014D02*
X0043226Y0036014D01*
X0041693Y0039006D02*
X0033747Y0039006D01*
X0033293Y0039605D02*
X0042292Y0039605D01*
X0042891Y0040203D02*
X0032695Y0040203D01*
X0034142Y0035415D02*
X0046800Y0035415D01*
X0046800Y0034817D02*
X0033894Y0034817D01*
X0033647Y0034218D02*
X0047039Y0034218D01*
X0047450Y0033620D02*
X0033051Y0033620D01*
X0032453Y0033021D02*
X0047450Y0033021D01*
X0047450Y0032423D02*
X0031093Y0032423D01*
X0015675Y0023445D02*
X0010550Y0023445D01*
X0010550Y0022846D02*
X0013725Y0022846D01*
X0012688Y0022248D02*
X0010550Y0022248D01*
X0010550Y0021649D02*
X0011651Y0021649D01*
X0011011Y0021051D02*
X0010550Y0021051D01*
X0041615Y0050976D02*
X0053664Y0050976D01*
X0054262Y0051575D02*
X0042214Y0051575D01*
X0042812Y0052173D02*
X0054861Y0052173D01*
X0055459Y0052772D02*
X0043411Y0052772D01*
X0044009Y0053370D02*
X0056058Y0053370D01*
X0056656Y0053969D02*
X0044608Y0053969D01*
X0045206Y0054568D02*
X0057255Y0054568D01*
X0054591Y0055166D02*
X0045805Y0055166D01*
X0046403Y0055765D02*
X0053670Y0055765D01*
X0053072Y0056363D02*
X0047002Y0056363D01*
X0047601Y0056962D02*
X0052749Y0056962D01*
X0058189Y0050976D02*
X0061250Y0050976D01*
X0061250Y0050378D02*
X0057591Y0050378D01*
X0056992Y0049779D02*
X0061468Y0049779D01*
X0061716Y0049181D02*
X0056394Y0049181D01*
X0055795Y0048582D02*
X0061964Y0048582D01*
X0061250Y0051575D02*
X0058788Y0051575D01*
X0059386Y0052173D02*
X0061250Y0052173D01*
X0061448Y0052772D02*
X0059985Y0052772D01*
X0060583Y0053370D02*
X0061696Y0053370D01*
X0061944Y0053969D02*
X0061182Y0053969D01*
X0061780Y0054568D02*
X0062446Y0054568D01*
X0062379Y0055166D02*
X0063045Y0055166D01*
X0062977Y0055765D02*
X0063963Y0055765D01*
X0063576Y0056363D02*
X0069750Y0056363D01*
X0069750Y0055765D02*
X0068537Y0055765D01*
X0069455Y0055166D02*
X0069898Y0055166D01*
X0070054Y0054568D02*
X0070146Y0054568D01*
X0069750Y0056962D02*
X0064174Y0056962D01*
X0064773Y0057560D02*
X0069951Y0057560D01*
X0070199Y0058159D02*
X0065371Y0058159D01*
X0065970Y0058757D02*
X0070592Y0058757D01*
X0071190Y0059356D02*
X0066568Y0059356D01*
X0064437Y0061750D02*
X0060150Y0061750D01*
X0060150Y0062348D02*
X0065035Y0062348D01*
X0065634Y0062947D02*
X0060150Y0062947D01*
X0060150Y0063545D02*
X0066232Y0063545D01*
X0066831Y0064144D02*
X0060150Y0064144D01*
X0060122Y0064742D02*
X0067429Y0064742D01*
X0070271Y0068333D02*
X0019879Y0068333D01*
X0019281Y0068932D02*
X0070766Y0068932D01*
X0071365Y0069530D02*
X0018682Y0069530D01*
X0018250Y0070129D02*
X0043958Y0070129D01*
X0043360Y0070727D02*
X0018250Y0070727D01*
X0016650Y0069300D02*
X0022250Y0063700D01*
X0022273Y0065939D02*
X0022873Y0065939D01*
X0023372Y0066538D02*
X0021675Y0066538D01*
X0021076Y0067136D02*
X0023971Y0067136D01*
X0025317Y0067735D02*
X0020478Y0067735D01*
X0016650Y0069300D02*
X0016650Y0081300D01*
X0016250Y0081300D01*
X0020150Y0081501D02*
X0022350Y0081501D01*
X0022350Y0082099D02*
X0020150Y0082099D01*
X0020150Y0082698D02*
X0022350Y0082698D01*
X0022350Y0083296D02*
X0020150Y0083296D01*
X0020150Y0083895D02*
X0022350Y0083895D01*
X0022350Y0084493D02*
X0020150Y0084493D01*
X0019978Y0085092D02*
X0022522Y0085092D01*
X0022770Y0085690D02*
X0019730Y0085690D01*
X0019377Y0086289D02*
X0023123Y0086289D01*
X0023722Y0086887D02*
X0018778Y0086887D01*
X0017785Y0087486D02*
X0024715Y0087486D01*
X0025405Y0088683D02*
X0010550Y0088683D01*
X0010550Y0089281D02*
X0024806Y0089281D01*
X0022838Y0092500D02*
X0019662Y0092500D01*
X0020574Y0093411D01*
X0021250Y0095044D01*
X0021926Y0093411D01*
X0022838Y0092500D01*
X0022465Y0092872D02*
X0020035Y0092872D01*
X0020598Y0093471D02*
X0021902Y0093471D01*
X0021654Y0094069D02*
X0020846Y0094069D01*
X0021094Y0094668D02*
X0021406Y0094668D01*
X0021293Y0097660D02*
X0021207Y0097660D01*
X0020959Y0098259D02*
X0021541Y0098259D01*
X0021789Y0098857D02*
X0020711Y0098857D01*
X0020307Y0099456D02*
X0022193Y0099456D01*
X0022792Y0100054D02*
X0019708Y0100054D01*
X0019068Y0100653D02*
X0023432Y0100653D01*
X0024877Y0101251D02*
X0017623Y0101251D01*
X0014877Y0101251D02*
X0012650Y0101251D01*
X0012650Y0100653D02*
X0013432Y0100653D01*
X0012792Y0100054D02*
X0012650Y0100054D01*
X0010614Y0092274D02*
X0010550Y0092274D01*
X0010550Y0091675D02*
X0011212Y0091675D01*
X0011811Y0091077D02*
X0010550Y0091077D01*
X0010550Y0090478D02*
X0012409Y0090478D01*
X0013008Y0089880D02*
X0010550Y0089880D01*
X0020150Y0080902D02*
X0022350Y0080902D01*
X0022350Y0080303D02*
X0020150Y0080303D01*
X0020150Y0079705D02*
X0022350Y0079705D01*
X0022350Y0079106D02*
X0020150Y0079106D01*
X0020150Y0078508D02*
X0022350Y0078508D01*
X0022356Y0077909D02*
X0020144Y0077909D01*
X0019896Y0077311D02*
X0022604Y0077311D01*
X0022852Y0076712D02*
X0019648Y0076712D01*
X0019179Y0076114D02*
X0023321Y0076114D01*
X0023919Y0075515D02*
X0018581Y0075515D01*
X0018250Y0074917D02*
X0025192Y0074917D01*
X0049211Y0041999D02*
X0049258Y0041999D01*
X0048613Y0041400D02*
X0054287Y0041400D01*
X0053688Y0041999D02*
X0053242Y0041999D01*
X0055700Y0035415D02*
X0060272Y0035415D01*
X0060871Y0034817D02*
X0055700Y0034817D01*
X0055461Y0034218D02*
X0061469Y0034218D01*
X0062068Y0033620D02*
X0055050Y0033620D01*
X0055050Y0033021D02*
X0062666Y0033021D01*
X0063265Y0032423D02*
X0055050Y0032423D01*
X0055050Y0031824D02*
X0063863Y0031824D01*
X0064462Y0031226D02*
X0055050Y0031226D01*
X0055050Y0030627D02*
X0065060Y0030627D01*
X0065659Y0030029D02*
X0055050Y0030029D01*
X0055050Y0029430D02*
X0066257Y0029430D01*
X0066856Y0028832D02*
X0055050Y0028832D01*
X0055050Y0028233D02*
X0067454Y0028233D01*
X0068053Y0027634D02*
X0055050Y0027634D01*
X0055050Y0027036D02*
X0068651Y0027036D01*
X0069250Y0026437D02*
X0055050Y0026437D01*
X0055050Y0025839D02*
X0069848Y0025839D01*
X0068423Y0024642D02*
X0072350Y0024642D01*
X0072350Y0024043D02*
X0069022Y0024043D01*
X0069620Y0023445D02*
X0072350Y0023445D01*
X0072650Y0021300D02*
X0066250Y0021300D01*
X0055050Y0016861D02*
X0111620Y0016861D01*
X0111021Y0016263D02*
X0055050Y0016263D01*
X0055050Y0015664D02*
X0110423Y0015664D01*
X0086250Y0026300D02*
X0086250Y0030900D01*
X0110524Y0052772D02*
X0116976Y0052772D01*
X0116064Y0053370D02*
X0111436Y0053370D01*
X0112034Y0053969D02*
X0115466Y0053969D01*
X0115146Y0054568D02*
X0112354Y0054568D01*
X0112602Y0055166D02*
X0114898Y0055166D01*
X0114750Y0055765D02*
X0112750Y0055765D01*
X0112750Y0056363D02*
X0114750Y0056363D01*
X0114750Y0056962D02*
X0112750Y0056962D01*
X0112549Y0057560D02*
X0114951Y0057560D01*
X0115199Y0058159D02*
X0112301Y0058159D01*
X0111908Y0058757D02*
X0115592Y0058757D01*
X0116190Y0059356D02*
X0111310Y0059356D01*
X0110219Y0059954D02*
X0117281Y0059954D01*
X0115735Y0063700D02*
X0103713Y0063700D01*
X0103156Y0064257D01*
X0103830Y0064536D01*
X0104594Y0065300D01*
X0114843Y0065300D01*
X0115344Y0064091D01*
X0115735Y0063700D01*
X0115322Y0064144D02*
X0103269Y0064144D01*
X0104036Y0064742D02*
X0115074Y0064742D01*
X0103050Y0062100D02*
X0089450Y0075700D01*
X0076650Y0075700D01*
X0076250Y0076300D01*
X0081559Y0079106D02*
X0100941Y0079106D01*
X0100343Y0078508D02*
X0082157Y0078508D01*
X0082405Y0077909D02*
X0100095Y0077909D01*
X0101312Y0069530D02*
X0097882Y0069530D01*
X0098481Y0068932D02*
X0100338Y0068932D01*
X0099825Y0068333D02*
X0099079Y0068333D01*
X0111850Y0081300D02*
X0126250Y0095700D01*
X0126250Y0096300D01*
X0139510Y0082698D02*
X0143050Y0082698D01*
X0143050Y0083296D02*
X0140109Y0083296D01*
X0140707Y0083895D02*
X0143050Y0083895D01*
X0143050Y0084493D02*
X0141306Y0084493D01*
X0141904Y0085092D02*
X0143050Y0085092D01*
X0143577Y0085690D02*
X0142503Y0085690D01*
X0143101Y0086289D02*
X0144176Y0086289D01*
X0143700Y0086887D02*
X0144774Y0086887D01*
X0144298Y0087486D02*
X0145373Y0087486D01*
X0144897Y0088084D02*
X0145971Y0088084D01*
X0145495Y0088683D02*
X0146570Y0088683D01*
X0146094Y0089281D02*
X0147168Y0089281D01*
X0146692Y0089880D02*
X0147767Y0089880D01*
X0147291Y0090478D02*
X0148365Y0090478D01*
X0147850Y0091077D02*
X0148964Y0091077D01*
X0148412Y0091675D02*
X0149562Y0091675D01*
X0149436Y0092274D02*
X0150161Y0092274D01*
X0150035Y0092872D02*
X0150760Y0092872D01*
X0150598Y0093471D02*
X0151358Y0093471D01*
X0151654Y0094069D02*
X0150846Y0094069D01*
X0151094Y0094668D02*
X0151406Y0094668D01*
X0151293Y0097660D02*
X0151207Y0097660D01*
X0153489Y0091077D02*
X0162564Y0091077D01*
X0161965Y0090478D02*
X0152891Y0090478D01*
X0152292Y0089880D02*
X0161367Y0089880D01*
X0169662Y0092500D02*
X0170574Y0093411D01*
X0171250Y0095044D01*
X0171926Y0093411D01*
X0172838Y0092500D01*
X0169662Y0092500D01*
X0170035Y0092872D02*
X0172465Y0092872D01*
X0171902Y0093471D02*
X0170598Y0093471D01*
X0170846Y0094069D02*
X0171654Y0094069D01*
X0171406Y0094668D02*
X0171094Y0094668D01*
X0171207Y0097660D02*
X0171293Y0097660D01*
X0171541Y0098259D02*
X0170959Y0098259D01*
X0170711Y0098857D02*
X0171789Y0098857D01*
X0172193Y0099456D02*
X0170307Y0099456D01*
X0169708Y0100054D02*
X0172792Y0100054D01*
X0173432Y0100653D02*
X0169068Y0100653D01*
X0167623Y0101251D02*
X0174877Y0101251D01*
X0180650Y0081300D02*
X0181250Y0081300D01*
X0180650Y0081300D02*
X0166250Y0066900D01*
X0166250Y0066300D01*
X0169578Y0064144D02*
X0171631Y0064144D01*
X0172229Y0064742D02*
X0169826Y0064742D01*
X0170074Y0065341D02*
X0172426Y0065341D01*
X0172350Y0065939D02*
X0170150Y0065939D01*
X0170150Y0066538D02*
X0172350Y0066538D01*
X0172375Y0067136D02*
X0170125Y0067136D01*
X0169877Y0067735D02*
X0172623Y0067735D01*
X0172871Y0068333D02*
X0169946Y0068333D01*
X0170545Y0068932D02*
X0173366Y0068932D01*
X0173965Y0069530D02*
X0171143Y0069530D01*
X0171742Y0070129D02*
X0175302Y0070129D01*
X0174361Y0062348D02*
X0186989Y0062348D01*
X0186989Y0061750D02*
X0173762Y0061750D01*
X0173164Y0061151D02*
X0186989Y0061151D01*
X0186989Y0060553D02*
X0172565Y0060553D01*
X0171967Y0059954D02*
X0186989Y0059954D01*
X0186989Y0059356D02*
X0171368Y0059356D01*
X0170770Y0058757D02*
X0186989Y0058757D01*
X0186989Y0058159D02*
X0170171Y0058159D01*
X0169573Y0057560D02*
X0186989Y0057560D01*
X0186989Y0056962D02*
X0168974Y0056962D01*
X0168376Y0056363D02*
X0186989Y0056363D01*
X0186989Y0055765D02*
X0167777Y0055765D01*
X0167179Y0055166D02*
X0186989Y0055166D01*
X0186989Y0054568D02*
X0166580Y0054568D01*
X0165982Y0053969D02*
X0186989Y0053969D01*
X0186989Y0053370D02*
X0165383Y0053370D01*
X0164785Y0052772D02*
X0186989Y0052772D01*
X0186989Y0052173D02*
X0164186Y0052173D01*
X0163588Y0051575D02*
X0186989Y0051575D01*
X0186989Y0050976D02*
X0162989Y0050976D01*
X0162391Y0050378D02*
X0186989Y0050378D01*
X0186989Y0049779D02*
X0161792Y0049779D01*
X0161194Y0049181D02*
X0186989Y0049181D01*
X0171032Y0063545D02*
X0169011Y0063545D01*
X0168346Y0062947D02*
X0170434Y0062947D01*
X0167216Y0070129D02*
X0167198Y0070129D01*
X0163607Y0073720D02*
X0156785Y0073720D01*
X0157251Y0074318D02*
X0164206Y0074318D01*
X0164804Y0074917D02*
X0157498Y0074917D01*
X0157746Y0075515D02*
X0165403Y0075515D01*
X0166001Y0076114D02*
X0157750Y0076114D01*
X0157750Y0076712D02*
X0166600Y0076712D01*
X0167198Y0077311D02*
X0157653Y0077311D01*
X0157405Y0077909D02*
X0159125Y0077909D01*
X0158527Y0078508D02*
X0157157Y0078508D01*
X0156559Y0079106D02*
X0157928Y0079106D01*
X0157350Y0079705D02*
X0155821Y0079705D01*
X0156316Y0080303D02*
X0157350Y0080303D01*
X0157350Y0080902D02*
X0156915Y0080902D01*
X0151850Y0078100D02*
X0151850Y0076500D01*
X0151250Y0076300D01*
X0154922Y0072523D02*
X0162410Y0072523D01*
X0163009Y0073121D02*
X0156187Y0073121D01*
X0159418Y0069530D02*
X0146250Y0069530D01*
X0146250Y0068932D02*
X0158819Y0068932D01*
X0158221Y0068333D02*
X0146250Y0068333D01*
X0146147Y0067735D02*
X0157622Y0067735D01*
X0157024Y0067136D02*
X0145549Y0067136D01*
X0144950Y0066538D02*
X0156425Y0066538D01*
X0155827Y0065939D02*
X0144352Y0065939D01*
X0143753Y0065341D02*
X0155228Y0065341D01*
X0154629Y0064742D02*
X0143155Y0064742D01*
X0142556Y0064144D02*
X0154031Y0064144D01*
X0153432Y0063545D02*
X0141958Y0063545D01*
X0141359Y0062947D02*
X0152834Y0062947D01*
X0152235Y0062348D02*
X0140761Y0062348D01*
X0140162Y0061750D02*
X0151637Y0061750D01*
X0146250Y0070129D02*
X0160016Y0070129D01*
X0160615Y0070727D02*
X0146250Y0070727D01*
X0146250Y0071326D02*
X0161213Y0071326D01*
X0161812Y0071924D02*
X0146250Y0071924D01*
X0146250Y0072523D02*
X0147578Y0072523D01*
X0146313Y0073121D02*
X0146250Y0073121D01*
X0143050Y0073121D02*
X0129934Y0073121D01*
X0129336Y0072523D02*
X0143050Y0072523D01*
X0143050Y0071924D02*
X0128737Y0071924D01*
X0128139Y0071326D02*
X0143050Y0071326D01*
X0143050Y0070727D02*
X0127540Y0070727D01*
X0126942Y0070129D02*
X0143050Y0070129D01*
X0143050Y0073720D02*
X0130533Y0073720D01*
X0131131Y0074318D02*
X0143050Y0074318D01*
X0143050Y0074917D02*
X0131730Y0074917D01*
X0132328Y0075515D02*
X0143050Y0075515D01*
X0143050Y0076114D02*
X0132927Y0076114D01*
X0133525Y0076712D02*
X0143050Y0076712D01*
X0143050Y0077311D02*
X0134124Y0077311D01*
X0134722Y0077909D02*
X0143050Y0077909D01*
X0143050Y0078508D02*
X0135321Y0078508D01*
X0135919Y0079106D02*
X0143050Y0079106D01*
X0143050Y0079705D02*
X0136518Y0079705D01*
X0137116Y0080303D02*
X0143050Y0080303D01*
X0143050Y0080902D02*
X0137715Y0080902D01*
X0138313Y0081501D02*
X0143050Y0081501D01*
X0143050Y0082099D02*
X0138912Y0082099D01*
X0131992Y0079705D02*
X0125821Y0079705D01*
X0126559Y0079106D02*
X0131394Y0079106D01*
X0130795Y0078508D02*
X0127157Y0078508D01*
X0127405Y0077909D02*
X0130197Y0077909D01*
X0129598Y0077311D02*
X0127653Y0077311D01*
X0127750Y0076712D02*
X0129000Y0076712D01*
X0128401Y0076114D02*
X0127750Y0076114D01*
X0127746Y0075515D02*
X0127803Y0075515D01*
X0111850Y0081300D02*
X0066250Y0081300D01*
X0063838Y0061151D02*
X0060150Y0061151D01*
X0060150Y0060553D02*
X0063240Y0060553D01*
X0062641Y0059954D02*
X0060150Y0059954D01*
X0060150Y0059356D02*
X0062043Y0059356D01*
X0061444Y0058757D02*
X0060150Y0058757D01*
X0060150Y0058159D02*
X0060846Y0058159D01*
X0060247Y0057560D02*
X0059999Y0057560D01*
X0146250Y0079705D02*
X0146679Y0079705D01*
X0163375Y0077909D02*
X0167797Y0077909D01*
X0168395Y0078508D02*
X0163973Y0078508D01*
X0164572Y0079106D02*
X0168994Y0079106D01*
X0186989Y0005633D02*
X0186989Y0005600D01*
X0186957Y0005600D01*
X0186989Y0005633D01*
D19*
X0134250Y0062100D03*
X0123050Y0050900D03*
X0102250Y0066900D03*
X0094250Y0147700D03*
M02*
