G75*
%MOIN*%
%OFA0B0*%
%FSLAX25Y25*%
%IPPOS*%
%LPD*%
%AMOC8*
5,1,8,0,0,1.08239X$1,22.5*
%
%ADD10C,0.00300*%
%ADD11C,0.00600*%
%ADD12R,0.10000X0.02000*%
%ADD13R,0.03000X0.07500*%
%ADD14C,0.00500*%
%ADD15C,0.00800*%
%ADD16C,0.00400*%
%ADD17C,0.01000*%
%ADD18R,0.02000X0.10000*%
D10*
X0046589Y0011950D02*
X0045623Y0014850D01*
X0047556Y0014850D02*
X0046589Y0011950D01*
X0048571Y0011950D02*
X0049215Y0011950D01*
X0048893Y0011950D02*
X0048893Y0014850D01*
X0048571Y0014850D02*
X0049215Y0014850D01*
X0050488Y0014850D02*
X0052099Y0011950D01*
X0052099Y0014850D01*
X0050488Y0014850D02*
X0050488Y0011950D01*
X0053495Y0012594D02*
X0055428Y0012594D01*
X0055428Y0013561D02*
X0053495Y0013561D01*
X0056728Y0014206D02*
X0057533Y0014850D01*
X0057533Y0011950D01*
X0056728Y0011950D02*
X0058339Y0011950D01*
X0059608Y0011950D02*
X0061219Y0011950D01*
X0059608Y0011950D02*
X0060977Y0013561D01*
X0060494Y0014850D02*
X0060435Y0014848D01*
X0060377Y0014843D01*
X0060319Y0014833D01*
X0060262Y0014821D01*
X0060206Y0014804D01*
X0060151Y0014785D01*
X0060097Y0014761D01*
X0060045Y0014735D01*
X0059995Y0014705D01*
X0059946Y0014672D01*
X0059900Y0014636D01*
X0059856Y0014597D01*
X0059815Y0014556D01*
X0059776Y0014512D01*
X0059740Y0014466D01*
X0059708Y0014417D01*
X0059678Y0014367D01*
X0059651Y0014315D01*
X0059628Y0014261D01*
X0059608Y0014206D01*
X0060977Y0013561D02*
X0061014Y0013598D01*
X0061048Y0013638D01*
X0061080Y0013680D01*
X0061108Y0013725D01*
X0061134Y0013771D01*
X0061156Y0013818D01*
X0061175Y0013867D01*
X0061191Y0013917D01*
X0061203Y0013968D01*
X0061212Y0014020D01*
X0061217Y0014072D01*
X0061219Y0014125D01*
X0061217Y0014177D01*
X0061212Y0014228D01*
X0061202Y0014279D01*
X0061190Y0014329D01*
X0061173Y0014378D01*
X0061153Y0014426D01*
X0061130Y0014472D01*
X0061104Y0014517D01*
X0061074Y0014559D01*
X0061042Y0014600D01*
X0061007Y0014638D01*
X0060969Y0014673D01*
X0060928Y0014705D01*
X0060886Y0014735D01*
X0060841Y0014761D01*
X0060795Y0014784D01*
X0060747Y0014804D01*
X0060698Y0014821D01*
X0060648Y0014833D01*
X0060597Y0014843D01*
X0060546Y0014848D01*
X0060494Y0014850D01*
X0062327Y0014850D02*
X0063293Y0011950D01*
X0064260Y0014850D01*
X0066935Y0013078D02*
X0068868Y0013078D01*
X0070199Y0013883D02*
X0072132Y0013078D01*
X0070199Y0012272D01*
X0074959Y0012594D02*
X0074959Y0014206D01*
X0074961Y0014257D01*
X0074967Y0014307D01*
X0074977Y0014356D01*
X0074991Y0014405D01*
X0075008Y0014452D01*
X0075029Y0014498D01*
X0075054Y0014542D01*
X0075082Y0014585D01*
X0075113Y0014624D01*
X0075148Y0014661D01*
X0075185Y0014696D01*
X0075224Y0014727D01*
X0075267Y0014755D01*
X0075311Y0014780D01*
X0075357Y0014801D01*
X0075404Y0014818D01*
X0075453Y0014832D01*
X0075502Y0014842D01*
X0075552Y0014848D01*
X0075603Y0014850D01*
X0076247Y0014850D01*
X0077337Y0013239D02*
X0077337Y0012594D01*
X0077339Y0012545D01*
X0077345Y0012496D01*
X0077354Y0012447D01*
X0077367Y0012400D01*
X0077384Y0012353D01*
X0077404Y0012308D01*
X0077427Y0012265D01*
X0077454Y0012223D01*
X0077484Y0012184D01*
X0077517Y0012147D01*
X0077553Y0012113D01*
X0077591Y0012082D01*
X0077631Y0012053D01*
X0077673Y0012028D01*
X0077718Y0012006D01*
X0077763Y0011988D01*
X0077810Y0011973D01*
X0077858Y0011962D01*
X0077907Y0011954D01*
X0077956Y0011950D01*
X0078006Y0011950D01*
X0078055Y0011954D01*
X0078104Y0011962D01*
X0078152Y0011973D01*
X0078199Y0011988D01*
X0078244Y0012006D01*
X0078289Y0012028D01*
X0078331Y0012053D01*
X0078371Y0012082D01*
X0078409Y0012113D01*
X0078445Y0012147D01*
X0078478Y0012184D01*
X0078508Y0012223D01*
X0078535Y0012265D01*
X0078558Y0012308D01*
X0078578Y0012353D01*
X0078595Y0012400D01*
X0078608Y0012447D01*
X0078617Y0012496D01*
X0078623Y0012545D01*
X0078625Y0012594D01*
X0078626Y0012594D02*
X0078626Y0013239D01*
X0078625Y0013239D02*
X0078623Y0013288D01*
X0078617Y0013337D01*
X0078608Y0013386D01*
X0078595Y0013433D01*
X0078578Y0013480D01*
X0078558Y0013525D01*
X0078535Y0013568D01*
X0078508Y0013610D01*
X0078478Y0013649D01*
X0078445Y0013686D01*
X0078409Y0013720D01*
X0078371Y0013751D01*
X0078331Y0013780D01*
X0078289Y0013805D01*
X0078244Y0013827D01*
X0078199Y0013845D01*
X0078152Y0013860D01*
X0078104Y0013871D01*
X0078055Y0013879D01*
X0078006Y0013883D01*
X0077956Y0013883D01*
X0077907Y0013879D01*
X0077858Y0013871D01*
X0077810Y0013860D01*
X0077763Y0013845D01*
X0077718Y0013827D01*
X0077673Y0013805D01*
X0077631Y0013780D01*
X0077591Y0013751D01*
X0077553Y0013720D01*
X0077517Y0013686D01*
X0077484Y0013649D01*
X0077454Y0013610D01*
X0077427Y0013568D01*
X0077404Y0013525D01*
X0077384Y0013480D01*
X0077367Y0013433D01*
X0077354Y0013386D01*
X0077345Y0013337D01*
X0077339Y0013288D01*
X0077337Y0013239D01*
X0076247Y0011950D02*
X0075603Y0011950D01*
X0075555Y0011952D01*
X0075507Y0011957D01*
X0075460Y0011966D01*
X0075413Y0011979D01*
X0075368Y0011995D01*
X0075324Y0012014D01*
X0075281Y0012036D01*
X0075240Y0012062D01*
X0075201Y0012091D01*
X0075165Y0012122D01*
X0075131Y0012156D01*
X0075100Y0012192D01*
X0075071Y0012231D01*
X0075045Y0012272D01*
X0075023Y0012315D01*
X0075004Y0012359D01*
X0074988Y0012404D01*
X0074975Y0012451D01*
X0074966Y0012498D01*
X0074961Y0012546D01*
X0074959Y0012594D01*
X0079929Y0011950D02*
X0079929Y0013883D01*
X0080734Y0013883D01*
X0080776Y0013881D01*
X0080818Y0013876D01*
X0080859Y0013867D01*
X0080899Y0013854D01*
X0080938Y0013838D01*
X0080976Y0013818D01*
X0081011Y0013796D01*
X0081044Y0013770D01*
X0081076Y0013742D01*
X0081104Y0013710D01*
X0081130Y0013677D01*
X0081152Y0013642D01*
X0081172Y0013604D01*
X0081188Y0013565D01*
X0081201Y0013525D01*
X0081210Y0013484D01*
X0081215Y0013442D01*
X0081217Y0013400D01*
X0081218Y0013400D02*
X0081218Y0011950D01*
X0082617Y0011950D02*
X0082617Y0013883D01*
X0083422Y0013883D01*
X0083464Y0013881D01*
X0083506Y0013876D01*
X0083547Y0013867D01*
X0083587Y0013854D01*
X0083626Y0013838D01*
X0083664Y0013818D01*
X0083699Y0013796D01*
X0083732Y0013770D01*
X0083764Y0013742D01*
X0083792Y0013710D01*
X0083818Y0013677D01*
X0083840Y0013642D01*
X0083860Y0013604D01*
X0083876Y0013565D01*
X0083889Y0013525D01*
X0083898Y0013484D01*
X0083903Y0013442D01*
X0083905Y0013400D01*
X0083906Y0013400D02*
X0083906Y0011950D01*
X0085209Y0012433D02*
X0085209Y0013239D01*
X0085209Y0012917D02*
X0086498Y0012917D01*
X0086498Y0013239D01*
X0086497Y0013239D02*
X0086495Y0013288D01*
X0086489Y0013337D01*
X0086480Y0013386D01*
X0086467Y0013433D01*
X0086450Y0013480D01*
X0086430Y0013525D01*
X0086407Y0013568D01*
X0086380Y0013610D01*
X0086350Y0013649D01*
X0086317Y0013686D01*
X0086281Y0013720D01*
X0086243Y0013751D01*
X0086203Y0013780D01*
X0086161Y0013805D01*
X0086116Y0013827D01*
X0086071Y0013845D01*
X0086024Y0013860D01*
X0085976Y0013871D01*
X0085927Y0013879D01*
X0085878Y0013883D01*
X0085828Y0013883D01*
X0085779Y0013879D01*
X0085730Y0013871D01*
X0085682Y0013860D01*
X0085635Y0013845D01*
X0085590Y0013827D01*
X0085545Y0013805D01*
X0085503Y0013780D01*
X0085463Y0013751D01*
X0085425Y0013720D01*
X0085389Y0013686D01*
X0085356Y0013649D01*
X0085326Y0013610D01*
X0085299Y0013568D01*
X0085276Y0013525D01*
X0085256Y0013480D01*
X0085239Y0013433D01*
X0085226Y0013386D01*
X0085217Y0013337D01*
X0085211Y0013288D01*
X0085209Y0013239D01*
X0085209Y0012433D02*
X0085211Y0012391D01*
X0085216Y0012349D01*
X0085225Y0012308D01*
X0085238Y0012268D01*
X0085254Y0012229D01*
X0085274Y0012192D01*
X0085296Y0012156D01*
X0085322Y0012123D01*
X0085350Y0012091D01*
X0085382Y0012063D01*
X0085415Y0012037D01*
X0085451Y0012015D01*
X0085488Y0011995D01*
X0085527Y0011979D01*
X0085567Y0011966D01*
X0085608Y0011957D01*
X0085650Y0011952D01*
X0085692Y0011950D01*
X0086498Y0011950D01*
X0087708Y0012433D02*
X0087708Y0013400D01*
X0087709Y0013400D02*
X0087711Y0013442D01*
X0087716Y0013484D01*
X0087725Y0013525D01*
X0087738Y0013565D01*
X0087754Y0013604D01*
X0087774Y0013642D01*
X0087796Y0013677D01*
X0087822Y0013710D01*
X0087850Y0013742D01*
X0087882Y0013770D01*
X0087915Y0013796D01*
X0087951Y0013818D01*
X0087988Y0013838D01*
X0088027Y0013854D01*
X0088067Y0013867D01*
X0088108Y0013876D01*
X0088150Y0013881D01*
X0088192Y0013883D01*
X0088836Y0013883D01*
X0089665Y0013883D02*
X0090631Y0013883D01*
X0089987Y0014850D02*
X0089987Y0012433D01*
X0089989Y0012391D01*
X0089994Y0012349D01*
X0090003Y0012308D01*
X0090016Y0012268D01*
X0090032Y0012229D01*
X0090052Y0012192D01*
X0090074Y0012156D01*
X0090100Y0012123D01*
X0090128Y0012091D01*
X0090160Y0012063D01*
X0090193Y0012037D01*
X0090229Y0012015D01*
X0090266Y0011995D01*
X0090305Y0011979D01*
X0090345Y0011966D01*
X0090386Y0011957D01*
X0090428Y0011952D01*
X0090470Y0011950D01*
X0090631Y0011950D01*
X0088836Y0011950D02*
X0088192Y0011950D01*
X0088150Y0011952D01*
X0088108Y0011957D01*
X0088067Y0011966D01*
X0088027Y0011979D01*
X0087988Y0011995D01*
X0087951Y0012015D01*
X0087915Y0012037D01*
X0087882Y0012063D01*
X0087850Y0012091D01*
X0087822Y0012123D01*
X0087796Y0012156D01*
X0087774Y0012192D01*
X0087754Y0012229D01*
X0087738Y0012268D01*
X0087725Y0012308D01*
X0087716Y0012349D01*
X0087711Y0012391D01*
X0087709Y0012433D01*
X0093406Y0011950D02*
X0094695Y0011950D01*
X0093406Y0011950D02*
X0093406Y0014850D01*
X0096115Y0014125D02*
X0097485Y0011950D01*
X0096598Y0012031D02*
X0097807Y0012917D01*
X0098670Y0012594D02*
X0098670Y0014206D01*
X0098671Y0014206D02*
X0098673Y0014257D01*
X0098679Y0014307D01*
X0098689Y0014356D01*
X0098703Y0014405D01*
X0098720Y0014452D01*
X0098741Y0014498D01*
X0098766Y0014542D01*
X0098794Y0014585D01*
X0098825Y0014624D01*
X0098860Y0014661D01*
X0098897Y0014696D01*
X0098936Y0014727D01*
X0098979Y0014755D01*
X0099023Y0014780D01*
X0099069Y0014801D01*
X0099116Y0014818D01*
X0099165Y0014832D01*
X0099214Y0014842D01*
X0099264Y0014848D01*
X0099315Y0014850D01*
X0099959Y0014850D01*
X0101037Y0013642D02*
X0101198Y0013642D01*
X0101198Y0013481D01*
X0101037Y0013481D01*
X0101037Y0013642D01*
X0101037Y0012111D02*
X0101198Y0012111D01*
X0101198Y0011950D01*
X0101037Y0011306D01*
X0101037Y0011950D02*
X0101037Y0012111D01*
X0101037Y0011950D02*
X0101198Y0011950D01*
X0099959Y0011950D02*
X0099315Y0011950D01*
X0099267Y0011952D01*
X0099219Y0011957D01*
X0099172Y0011966D01*
X0099125Y0011979D01*
X0099080Y0011995D01*
X0099036Y0012014D01*
X0098993Y0012036D01*
X0098952Y0012062D01*
X0098913Y0012091D01*
X0098877Y0012122D01*
X0098843Y0012156D01*
X0098812Y0012192D01*
X0098783Y0012231D01*
X0098757Y0012272D01*
X0098735Y0012315D01*
X0098716Y0012359D01*
X0098700Y0012404D01*
X0098687Y0012451D01*
X0098678Y0012498D01*
X0098673Y0012546D01*
X0098671Y0012594D01*
X0096921Y0014125D02*
X0095954Y0012675D01*
X0095933Y0012644D01*
X0095915Y0012612D01*
X0095900Y0012578D01*
X0095888Y0012543D01*
X0095880Y0012507D01*
X0095875Y0012470D01*
X0095873Y0012433D01*
X0095874Y0012433D02*
X0095876Y0012391D01*
X0095881Y0012349D01*
X0095890Y0012308D01*
X0095903Y0012268D01*
X0095919Y0012229D01*
X0095939Y0012192D01*
X0095961Y0012156D01*
X0095987Y0012123D01*
X0096015Y0012091D01*
X0096047Y0012063D01*
X0096080Y0012037D01*
X0096116Y0012015D01*
X0096153Y0011995D01*
X0096192Y0011979D01*
X0096232Y0011966D01*
X0096273Y0011957D01*
X0096315Y0011952D01*
X0096357Y0011950D01*
X0096394Y0011952D01*
X0096431Y0011957D01*
X0096467Y0011965D01*
X0096502Y0011977D01*
X0096536Y0011992D01*
X0096568Y0012010D01*
X0096599Y0012031D01*
X0096920Y0014126D02*
X0096941Y0014162D01*
X0096958Y0014200D01*
X0096972Y0014240D01*
X0096982Y0014281D01*
X0096989Y0014322D01*
X0096992Y0014364D01*
X0096991Y0014406D01*
X0096986Y0014448D01*
X0096978Y0014489D01*
X0096966Y0014530D01*
X0096951Y0014569D01*
X0096932Y0014606D01*
X0096910Y0014642D01*
X0096885Y0014676D01*
X0096857Y0014707D01*
X0096827Y0014736D01*
X0096794Y0014762D01*
X0096758Y0014785D01*
X0096721Y0014804D01*
X0096683Y0014821D01*
X0096643Y0014833D01*
X0096602Y0014843D01*
X0096560Y0014848D01*
X0096518Y0014850D01*
X0096476Y0014848D01*
X0096434Y0014843D01*
X0096393Y0014833D01*
X0096353Y0014821D01*
X0096315Y0014804D01*
X0096278Y0014785D01*
X0096242Y0014762D01*
X0096209Y0014736D01*
X0096179Y0014707D01*
X0096151Y0014676D01*
X0096126Y0014642D01*
X0096104Y0014606D01*
X0096085Y0014569D01*
X0096070Y0014530D01*
X0096058Y0014489D01*
X0096050Y0014448D01*
X0096045Y0014406D01*
X0096044Y0014364D01*
X0096047Y0014322D01*
X0096054Y0014281D01*
X0096064Y0014240D01*
X0096078Y0014200D01*
X0096095Y0014162D01*
X0096116Y0014126D01*
X0103798Y0014850D02*
X0104765Y0011950D01*
X0105732Y0014850D01*
X0106747Y0014850D02*
X0107391Y0014850D01*
X0107069Y0014850D02*
X0107069Y0011950D01*
X0106747Y0011950D02*
X0107391Y0011950D01*
X0108663Y0011950D02*
X0108663Y0014850D01*
X0110275Y0011950D01*
X0110275Y0014850D01*
X0111670Y0013561D02*
X0113604Y0013561D01*
X0113604Y0012594D02*
X0111670Y0012594D01*
X0114903Y0011950D02*
X0115870Y0011950D01*
X0115918Y0011952D01*
X0115966Y0011957D01*
X0116013Y0011966D01*
X0116060Y0011979D01*
X0116105Y0011995D01*
X0116149Y0012014D01*
X0116192Y0012036D01*
X0116233Y0012062D01*
X0116272Y0012091D01*
X0116308Y0012122D01*
X0116342Y0012156D01*
X0116373Y0012192D01*
X0116402Y0012231D01*
X0116428Y0012272D01*
X0116450Y0012315D01*
X0116469Y0012359D01*
X0116485Y0012404D01*
X0116498Y0012451D01*
X0116507Y0012498D01*
X0116512Y0012546D01*
X0116514Y0012594D01*
X0116515Y0012594D02*
X0116515Y0012917D01*
X0116514Y0012917D02*
X0116512Y0012965D01*
X0116507Y0013013D01*
X0116498Y0013060D01*
X0116485Y0013107D01*
X0116469Y0013152D01*
X0116450Y0013196D01*
X0116428Y0013239D01*
X0116402Y0013280D01*
X0116373Y0013319D01*
X0116342Y0013355D01*
X0116308Y0013389D01*
X0116272Y0013420D01*
X0116233Y0013449D01*
X0116192Y0013475D01*
X0116149Y0013497D01*
X0116105Y0013516D01*
X0116060Y0013532D01*
X0116013Y0013545D01*
X0115966Y0013554D01*
X0115918Y0013559D01*
X0115870Y0013561D01*
X0114903Y0013561D01*
X0114903Y0014850D01*
X0116515Y0014850D01*
X0117622Y0014850D02*
X0118589Y0011950D01*
X0119556Y0014850D01*
X0122230Y0013078D02*
X0124164Y0013078D01*
X0125494Y0013883D02*
X0127428Y0013078D01*
X0125494Y0012272D01*
X0130254Y0012594D02*
X0130254Y0014206D01*
X0130255Y0014206D02*
X0130257Y0014257D01*
X0130263Y0014307D01*
X0130273Y0014356D01*
X0130287Y0014405D01*
X0130304Y0014452D01*
X0130325Y0014498D01*
X0130350Y0014542D01*
X0130378Y0014585D01*
X0130409Y0014624D01*
X0130444Y0014661D01*
X0130481Y0014696D01*
X0130520Y0014727D01*
X0130563Y0014755D01*
X0130607Y0014780D01*
X0130653Y0014801D01*
X0130700Y0014818D01*
X0130749Y0014832D01*
X0130798Y0014842D01*
X0130848Y0014848D01*
X0130899Y0014850D01*
X0131543Y0014850D01*
X0132633Y0013239D02*
X0132633Y0012594D01*
X0132635Y0012545D01*
X0132641Y0012496D01*
X0132650Y0012447D01*
X0132663Y0012400D01*
X0132680Y0012353D01*
X0132700Y0012308D01*
X0132723Y0012265D01*
X0132750Y0012223D01*
X0132780Y0012184D01*
X0132813Y0012147D01*
X0132849Y0012113D01*
X0132887Y0012082D01*
X0132927Y0012053D01*
X0132969Y0012028D01*
X0133014Y0012006D01*
X0133059Y0011988D01*
X0133106Y0011973D01*
X0133154Y0011962D01*
X0133203Y0011954D01*
X0133252Y0011950D01*
X0133302Y0011950D01*
X0133351Y0011954D01*
X0133400Y0011962D01*
X0133448Y0011973D01*
X0133495Y0011988D01*
X0133540Y0012006D01*
X0133585Y0012028D01*
X0133627Y0012053D01*
X0133667Y0012082D01*
X0133705Y0012113D01*
X0133741Y0012147D01*
X0133774Y0012184D01*
X0133804Y0012223D01*
X0133831Y0012265D01*
X0133854Y0012308D01*
X0133874Y0012353D01*
X0133891Y0012400D01*
X0133904Y0012447D01*
X0133913Y0012496D01*
X0133919Y0012545D01*
X0133921Y0012594D01*
X0133921Y0013239D01*
X0133919Y0013288D01*
X0133913Y0013337D01*
X0133904Y0013386D01*
X0133891Y0013433D01*
X0133874Y0013480D01*
X0133854Y0013525D01*
X0133831Y0013568D01*
X0133804Y0013610D01*
X0133774Y0013649D01*
X0133741Y0013686D01*
X0133705Y0013720D01*
X0133667Y0013751D01*
X0133627Y0013780D01*
X0133585Y0013805D01*
X0133540Y0013827D01*
X0133495Y0013845D01*
X0133448Y0013860D01*
X0133400Y0013871D01*
X0133351Y0013879D01*
X0133302Y0013883D01*
X0133252Y0013883D01*
X0133203Y0013879D01*
X0133154Y0013871D01*
X0133106Y0013860D01*
X0133059Y0013845D01*
X0133014Y0013827D01*
X0132969Y0013805D01*
X0132927Y0013780D01*
X0132887Y0013751D01*
X0132849Y0013720D01*
X0132813Y0013686D01*
X0132780Y0013649D01*
X0132750Y0013610D01*
X0132723Y0013568D01*
X0132700Y0013525D01*
X0132680Y0013480D01*
X0132663Y0013433D01*
X0132650Y0013386D01*
X0132641Y0013337D01*
X0132635Y0013288D01*
X0132633Y0013239D01*
X0131543Y0011950D02*
X0130899Y0011950D01*
X0130851Y0011952D01*
X0130803Y0011957D01*
X0130756Y0011966D01*
X0130709Y0011979D01*
X0130664Y0011995D01*
X0130620Y0012014D01*
X0130577Y0012036D01*
X0130536Y0012062D01*
X0130497Y0012091D01*
X0130461Y0012122D01*
X0130427Y0012156D01*
X0130396Y0012192D01*
X0130367Y0012231D01*
X0130341Y0012272D01*
X0130319Y0012315D01*
X0130300Y0012359D01*
X0130284Y0012404D01*
X0130271Y0012451D01*
X0130262Y0012498D01*
X0130257Y0012546D01*
X0130255Y0012594D01*
X0135225Y0011950D02*
X0135225Y0013883D01*
X0136030Y0013883D01*
X0136072Y0013881D01*
X0136114Y0013876D01*
X0136155Y0013867D01*
X0136195Y0013854D01*
X0136234Y0013838D01*
X0136272Y0013818D01*
X0136307Y0013796D01*
X0136340Y0013770D01*
X0136372Y0013742D01*
X0136400Y0013710D01*
X0136426Y0013677D01*
X0136448Y0013642D01*
X0136468Y0013604D01*
X0136484Y0013565D01*
X0136497Y0013525D01*
X0136506Y0013484D01*
X0136511Y0013442D01*
X0136513Y0013400D01*
X0136513Y0011950D01*
X0137913Y0011950D02*
X0137913Y0013883D01*
X0138718Y0013883D01*
X0138760Y0013881D01*
X0138802Y0013876D01*
X0138843Y0013867D01*
X0138883Y0013854D01*
X0138922Y0013838D01*
X0138960Y0013818D01*
X0138995Y0013796D01*
X0139028Y0013770D01*
X0139060Y0013742D01*
X0139088Y0013710D01*
X0139114Y0013677D01*
X0139136Y0013642D01*
X0139156Y0013604D01*
X0139172Y0013565D01*
X0139185Y0013525D01*
X0139194Y0013484D01*
X0139199Y0013442D01*
X0139201Y0013400D01*
X0139201Y0011950D01*
X0140505Y0012433D02*
X0140505Y0013239D01*
X0140505Y0012917D02*
X0141793Y0012917D01*
X0141793Y0013239D01*
X0141791Y0013288D01*
X0141785Y0013337D01*
X0141776Y0013386D01*
X0141763Y0013433D01*
X0141746Y0013480D01*
X0141726Y0013525D01*
X0141703Y0013568D01*
X0141676Y0013610D01*
X0141646Y0013649D01*
X0141613Y0013686D01*
X0141577Y0013720D01*
X0141539Y0013751D01*
X0141499Y0013780D01*
X0141457Y0013805D01*
X0141412Y0013827D01*
X0141367Y0013845D01*
X0141320Y0013860D01*
X0141272Y0013871D01*
X0141223Y0013879D01*
X0141174Y0013883D01*
X0141124Y0013883D01*
X0141075Y0013879D01*
X0141026Y0013871D01*
X0140978Y0013860D01*
X0140931Y0013845D01*
X0140886Y0013827D01*
X0140841Y0013805D01*
X0140799Y0013780D01*
X0140759Y0013751D01*
X0140721Y0013720D01*
X0140685Y0013686D01*
X0140652Y0013649D01*
X0140622Y0013610D01*
X0140595Y0013568D01*
X0140572Y0013525D01*
X0140552Y0013480D01*
X0140535Y0013433D01*
X0140522Y0013386D01*
X0140513Y0013337D01*
X0140507Y0013288D01*
X0140505Y0013239D01*
X0140505Y0012433D02*
X0140507Y0012391D01*
X0140512Y0012349D01*
X0140521Y0012308D01*
X0140534Y0012268D01*
X0140550Y0012229D01*
X0140570Y0012192D01*
X0140592Y0012156D01*
X0140618Y0012123D01*
X0140646Y0012091D01*
X0140678Y0012063D01*
X0140711Y0012037D01*
X0140747Y0012015D01*
X0140784Y0011995D01*
X0140823Y0011979D01*
X0140863Y0011966D01*
X0140904Y0011957D01*
X0140946Y0011952D01*
X0140988Y0011950D01*
X0141793Y0011950D01*
X0143004Y0012433D02*
X0143004Y0013400D01*
X0143006Y0013442D01*
X0143011Y0013484D01*
X0143020Y0013525D01*
X0143033Y0013565D01*
X0143049Y0013604D01*
X0143069Y0013642D01*
X0143091Y0013677D01*
X0143117Y0013710D01*
X0143145Y0013742D01*
X0143177Y0013770D01*
X0143210Y0013796D01*
X0143246Y0013818D01*
X0143283Y0013838D01*
X0143322Y0013854D01*
X0143362Y0013867D01*
X0143403Y0013876D01*
X0143445Y0013881D01*
X0143487Y0013883D01*
X0144132Y0013883D01*
X0144960Y0013883D02*
X0145927Y0013883D01*
X0145283Y0014850D02*
X0145283Y0012433D01*
X0145285Y0012391D01*
X0145290Y0012349D01*
X0145299Y0012308D01*
X0145312Y0012268D01*
X0145328Y0012229D01*
X0145348Y0012192D01*
X0145370Y0012156D01*
X0145396Y0012123D01*
X0145424Y0012091D01*
X0145456Y0012063D01*
X0145489Y0012037D01*
X0145525Y0012015D01*
X0145562Y0011995D01*
X0145601Y0011979D01*
X0145641Y0011966D01*
X0145682Y0011957D01*
X0145724Y0011952D01*
X0145766Y0011950D01*
X0145927Y0011950D01*
X0144132Y0011950D02*
X0143487Y0011950D01*
X0143445Y0011952D01*
X0143403Y0011957D01*
X0143362Y0011966D01*
X0143322Y0011979D01*
X0143283Y0011995D01*
X0143246Y0012015D01*
X0143210Y0012037D01*
X0143177Y0012063D01*
X0143145Y0012091D01*
X0143117Y0012123D01*
X0143091Y0012156D01*
X0143069Y0012192D01*
X0143049Y0012229D01*
X0143033Y0012268D01*
X0143020Y0012308D01*
X0143011Y0012349D01*
X0143006Y0012391D01*
X0143004Y0012433D01*
X0148590Y0012594D02*
X0148590Y0014206D01*
X0148591Y0014206D02*
X0148593Y0014257D01*
X0148599Y0014307D01*
X0148609Y0014356D01*
X0148623Y0014405D01*
X0148640Y0014452D01*
X0148661Y0014498D01*
X0148686Y0014542D01*
X0148714Y0014585D01*
X0148745Y0014624D01*
X0148780Y0014661D01*
X0148817Y0014696D01*
X0148856Y0014727D01*
X0148899Y0014755D01*
X0148943Y0014780D01*
X0148989Y0014801D01*
X0149036Y0014818D01*
X0149085Y0014832D01*
X0149134Y0014842D01*
X0149184Y0014848D01*
X0149235Y0014850D01*
X0149879Y0014850D01*
X0151315Y0014125D02*
X0152684Y0011950D01*
X0151798Y0012031D02*
X0153007Y0012917D01*
X0153995Y0013239D02*
X0154801Y0013239D01*
X0154962Y0013239D02*
X0155607Y0011950D01*
X0156716Y0011950D02*
X0156877Y0011950D01*
X0156877Y0012111D01*
X0156716Y0012111D01*
X0156716Y0011950D01*
X0154801Y0013238D02*
X0154856Y0013240D01*
X0154911Y0013246D01*
X0154965Y0013255D01*
X0155018Y0013268D01*
X0155071Y0013285D01*
X0155122Y0013305D01*
X0155172Y0013328D01*
X0155220Y0013355D01*
X0155266Y0013386D01*
X0155310Y0013419D01*
X0155351Y0013455D01*
X0155390Y0013494D01*
X0155426Y0013535D01*
X0155459Y0013579D01*
X0155490Y0013625D01*
X0155517Y0013673D01*
X0155540Y0013723D01*
X0155560Y0013774D01*
X0155577Y0013827D01*
X0155590Y0013880D01*
X0155599Y0013934D01*
X0155605Y0013989D01*
X0155607Y0014044D01*
X0155605Y0014099D01*
X0155599Y0014154D01*
X0155590Y0014208D01*
X0155577Y0014261D01*
X0155560Y0014314D01*
X0155540Y0014365D01*
X0155517Y0014415D01*
X0155490Y0014463D01*
X0155459Y0014509D01*
X0155426Y0014553D01*
X0155390Y0014594D01*
X0155351Y0014633D01*
X0155310Y0014669D01*
X0155266Y0014702D01*
X0155220Y0014733D01*
X0155172Y0014760D01*
X0155122Y0014783D01*
X0155071Y0014803D01*
X0155018Y0014820D01*
X0154965Y0014833D01*
X0154911Y0014842D01*
X0154856Y0014848D01*
X0154801Y0014850D01*
X0153995Y0014850D01*
X0153995Y0011950D01*
X0151799Y0012031D02*
X0151768Y0012010D01*
X0151736Y0011992D01*
X0151702Y0011977D01*
X0151667Y0011965D01*
X0151631Y0011957D01*
X0151594Y0011952D01*
X0151557Y0011950D01*
X0151515Y0011952D01*
X0151473Y0011957D01*
X0151432Y0011966D01*
X0151392Y0011979D01*
X0151353Y0011995D01*
X0151316Y0012015D01*
X0151280Y0012037D01*
X0151247Y0012063D01*
X0151215Y0012091D01*
X0151187Y0012123D01*
X0151161Y0012156D01*
X0151139Y0012192D01*
X0151119Y0012229D01*
X0151103Y0012268D01*
X0151090Y0012308D01*
X0151081Y0012349D01*
X0151076Y0012391D01*
X0151074Y0012433D01*
X0151154Y0012675D02*
X0152120Y0014125D01*
X0152120Y0014126D02*
X0152141Y0014162D01*
X0152158Y0014200D01*
X0152172Y0014240D01*
X0152182Y0014281D01*
X0152189Y0014322D01*
X0152192Y0014364D01*
X0152191Y0014406D01*
X0152186Y0014448D01*
X0152178Y0014489D01*
X0152166Y0014530D01*
X0152151Y0014569D01*
X0152132Y0014606D01*
X0152110Y0014642D01*
X0152085Y0014676D01*
X0152057Y0014707D01*
X0152027Y0014736D01*
X0151994Y0014762D01*
X0151958Y0014785D01*
X0151921Y0014804D01*
X0151883Y0014821D01*
X0151843Y0014833D01*
X0151802Y0014843D01*
X0151760Y0014848D01*
X0151718Y0014850D01*
X0151676Y0014848D01*
X0151634Y0014843D01*
X0151593Y0014833D01*
X0151553Y0014821D01*
X0151515Y0014804D01*
X0151478Y0014785D01*
X0151442Y0014762D01*
X0151409Y0014736D01*
X0151379Y0014707D01*
X0151351Y0014676D01*
X0151326Y0014642D01*
X0151304Y0014606D01*
X0151285Y0014569D01*
X0151270Y0014530D01*
X0151258Y0014489D01*
X0151250Y0014448D01*
X0151245Y0014406D01*
X0151244Y0014364D01*
X0151247Y0014322D01*
X0151254Y0014281D01*
X0151264Y0014240D01*
X0151278Y0014200D01*
X0151295Y0014162D01*
X0151316Y0014126D01*
X0151154Y0012675D02*
X0151133Y0012644D01*
X0151115Y0012612D01*
X0151100Y0012578D01*
X0151088Y0012543D01*
X0151080Y0012507D01*
X0151075Y0012470D01*
X0151073Y0012433D01*
X0149879Y0011950D02*
X0149235Y0011950D01*
X0149187Y0011952D01*
X0149139Y0011957D01*
X0149092Y0011966D01*
X0149045Y0011979D01*
X0149000Y0011995D01*
X0148956Y0012014D01*
X0148913Y0012036D01*
X0148872Y0012062D01*
X0148833Y0012091D01*
X0148797Y0012122D01*
X0148763Y0012156D01*
X0148732Y0012192D01*
X0148703Y0012231D01*
X0148677Y0012272D01*
X0148655Y0012315D01*
X0148636Y0012359D01*
X0148620Y0012404D01*
X0148607Y0012451D01*
X0148598Y0012498D01*
X0148593Y0012546D01*
X0148591Y0012594D01*
X0100894Y0170983D02*
X0100250Y0170983D01*
X0100894Y0170984D02*
X0100936Y0170986D01*
X0100978Y0170991D01*
X0101019Y0171000D01*
X0101059Y0171013D01*
X0101098Y0171029D01*
X0101136Y0171049D01*
X0101171Y0171071D01*
X0101204Y0171097D01*
X0101236Y0171125D01*
X0101264Y0171157D01*
X0101290Y0171190D01*
X0101312Y0171226D01*
X0101332Y0171263D01*
X0101348Y0171302D01*
X0101361Y0171342D01*
X0101370Y0171383D01*
X0101375Y0171425D01*
X0101377Y0171467D01*
X0101378Y0171467D02*
X0101378Y0173883D01*
X0100572Y0173883D01*
X0100530Y0173881D01*
X0100488Y0173876D01*
X0100447Y0173867D01*
X0100407Y0173854D01*
X0100368Y0173838D01*
X0100331Y0173818D01*
X0100295Y0173796D01*
X0100262Y0173770D01*
X0100230Y0173742D01*
X0100202Y0173710D01*
X0100176Y0173677D01*
X0100154Y0173642D01*
X0100134Y0173604D01*
X0100118Y0173565D01*
X0100105Y0173525D01*
X0100096Y0173484D01*
X0100091Y0173442D01*
X0100089Y0173400D01*
X0100089Y0172433D01*
X0100091Y0172391D01*
X0100096Y0172349D01*
X0100105Y0172308D01*
X0100118Y0172268D01*
X0100134Y0172229D01*
X0100154Y0172192D01*
X0100176Y0172156D01*
X0100202Y0172123D01*
X0100230Y0172091D01*
X0100262Y0172063D01*
X0100295Y0172037D01*
X0100331Y0172015D01*
X0100368Y0171995D01*
X0100407Y0171979D01*
X0100447Y0171966D01*
X0100488Y0171957D01*
X0100530Y0171952D01*
X0100572Y0171950D01*
X0101378Y0171950D01*
X0102793Y0171950D02*
X0102793Y0173883D01*
X0103598Y0173883D01*
X0103640Y0173881D01*
X0103682Y0173876D01*
X0103723Y0173867D01*
X0103763Y0173854D01*
X0103802Y0173838D01*
X0103840Y0173818D01*
X0103875Y0173796D01*
X0103908Y0173770D01*
X0103940Y0173742D01*
X0103968Y0173710D01*
X0103994Y0173677D01*
X0104016Y0173642D01*
X0104036Y0173604D01*
X0104052Y0173565D01*
X0104065Y0173525D01*
X0104074Y0173484D01*
X0104079Y0173442D01*
X0104081Y0173400D01*
X0104082Y0173400D02*
X0104082Y0171950D01*
X0098925Y0171950D02*
X0098925Y0173883D01*
X0098845Y0174689D02*
X0099006Y0174689D01*
X0099006Y0174850D01*
X0098845Y0174850D01*
X0098845Y0174689D01*
X0097343Y0171950D02*
X0097243Y0171954D01*
X0097142Y0171961D01*
X0097042Y0171971D01*
X0096943Y0171986D01*
X0096844Y0172004D01*
X0096746Y0172025D01*
X0096648Y0172050D01*
X0096552Y0172079D01*
X0096457Y0172111D01*
X0096860Y0173884D02*
X0096943Y0173881D01*
X0097026Y0173874D01*
X0097108Y0173863D01*
X0097190Y0173849D01*
X0097271Y0173831D01*
X0097352Y0173809D01*
X0097431Y0173784D01*
X0097509Y0173755D01*
X0097585Y0173723D01*
X0096860Y0173884D02*
X0096820Y0173883D01*
X0096780Y0173877D01*
X0096741Y0173869D01*
X0096703Y0173856D01*
X0096667Y0173840D01*
X0096632Y0173820D01*
X0096599Y0173797D01*
X0096569Y0173771D01*
X0096541Y0173743D01*
X0096516Y0173712D01*
X0096494Y0173678D01*
X0096475Y0173643D01*
X0096460Y0173606D01*
X0096449Y0173567D01*
X0096441Y0173528D01*
X0096437Y0173488D01*
X0096436Y0173449D01*
X0096440Y0173409D01*
X0096447Y0173369D01*
X0096458Y0173331D01*
X0096473Y0173294D01*
X0096491Y0173258D01*
X0096513Y0173224D01*
X0096537Y0173193D01*
X0096565Y0173164D01*
X0096595Y0173138D01*
X0096628Y0173115D01*
X0096662Y0173095D01*
X0096699Y0173078D01*
X0097504Y0172756D01*
X0097541Y0172739D01*
X0097575Y0172719D01*
X0097608Y0172696D01*
X0097638Y0172670D01*
X0097666Y0172641D01*
X0097690Y0172610D01*
X0097712Y0172576D01*
X0097730Y0172540D01*
X0097745Y0172503D01*
X0097756Y0172465D01*
X0097763Y0172425D01*
X0097767Y0172385D01*
X0097766Y0172346D01*
X0097762Y0172306D01*
X0097754Y0172267D01*
X0097743Y0172228D01*
X0097728Y0172191D01*
X0097709Y0172156D01*
X0097687Y0172122D01*
X0097662Y0172091D01*
X0097634Y0172063D01*
X0097604Y0172037D01*
X0097571Y0172014D01*
X0097536Y0171994D01*
X0097500Y0171978D01*
X0097462Y0171965D01*
X0097423Y0171957D01*
X0097383Y0171951D01*
X0097343Y0171950D01*
X0095250Y0171950D02*
X0094444Y0171950D01*
X0094402Y0171952D01*
X0094360Y0171957D01*
X0094319Y0171966D01*
X0094279Y0171979D01*
X0094240Y0171995D01*
X0094203Y0172015D01*
X0094167Y0172037D01*
X0094134Y0172063D01*
X0094102Y0172091D01*
X0094074Y0172123D01*
X0094048Y0172156D01*
X0094026Y0172192D01*
X0094006Y0172229D01*
X0093990Y0172268D01*
X0093977Y0172308D01*
X0093968Y0172349D01*
X0093963Y0172391D01*
X0093961Y0172433D01*
X0093961Y0173239D01*
X0093961Y0172917D02*
X0095250Y0172917D01*
X0095250Y0173239D01*
X0095249Y0173239D02*
X0095247Y0173288D01*
X0095241Y0173337D01*
X0095232Y0173386D01*
X0095219Y0173433D01*
X0095202Y0173480D01*
X0095182Y0173525D01*
X0095159Y0173568D01*
X0095132Y0173610D01*
X0095102Y0173649D01*
X0095069Y0173686D01*
X0095033Y0173720D01*
X0094995Y0173751D01*
X0094955Y0173780D01*
X0094913Y0173805D01*
X0094868Y0173827D01*
X0094823Y0173845D01*
X0094776Y0173860D01*
X0094728Y0173871D01*
X0094679Y0173879D01*
X0094630Y0173883D01*
X0094580Y0173883D01*
X0094531Y0173879D01*
X0094482Y0173871D01*
X0094434Y0173860D01*
X0094387Y0173845D01*
X0094342Y0173827D01*
X0094297Y0173805D01*
X0094255Y0173780D01*
X0094215Y0173751D01*
X0094177Y0173720D01*
X0094141Y0173686D01*
X0094108Y0173649D01*
X0094078Y0173610D01*
X0094051Y0173568D01*
X0094028Y0173525D01*
X0094008Y0173480D01*
X0093991Y0173433D01*
X0093978Y0173386D01*
X0093969Y0173337D01*
X0093963Y0173288D01*
X0093961Y0173239D01*
X0092627Y0172756D02*
X0092627Y0174044D01*
X0092625Y0174099D01*
X0092619Y0174154D01*
X0092610Y0174208D01*
X0092597Y0174261D01*
X0092580Y0174314D01*
X0092560Y0174365D01*
X0092537Y0174415D01*
X0092510Y0174463D01*
X0092479Y0174509D01*
X0092446Y0174553D01*
X0092410Y0174594D01*
X0092371Y0174633D01*
X0092330Y0174669D01*
X0092286Y0174702D01*
X0092240Y0174733D01*
X0092192Y0174760D01*
X0092142Y0174783D01*
X0092091Y0174803D01*
X0092038Y0174820D01*
X0091985Y0174833D01*
X0091931Y0174842D01*
X0091876Y0174848D01*
X0091821Y0174850D01*
X0091016Y0174850D01*
X0091016Y0171950D01*
X0091821Y0171950D01*
X0091876Y0171952D01*
X0091931Y0171958D01*
X0091985Y0171967D01*
X0092038Y0171980D01*
X0092091Y0171997D01*
X0092142Y0172017D01*
X0092192Y0172040D01*
X0092240Y0172067D01*
X0092286Y0172098D01*
X0092330Y0172131D01*
X0092371Y0172167D01*
X0092410Y0172206D01*
X0092446Y0172247D01*
X0092479Y0172291D01*
X0092510Y0172337D01*
X0092537Y0172385D01*
X0092560Y0172435D01*
X0092580Y0172486D01*
X0092597Y0172539D01*
X0092610Y0172592D01*
X0092619Y0172646D01*
X0092625Y0172701D01*
X0092627Y0172756D01*
X0088146Y0172917D02*
X0086857Y0172917D01*
X0086857Y0173239D02*
X0086857Y0172433D01*
X0086859Y0172391D01*
X0086864Y0172349D01*
X0086873Y0172308D01*
X0086886Y0172268D01*
X0086902Y0172229D01*
X0086922Y0172192D01*
X0086944Y0172156D01*
X0086970Y0172123D01*
X0086998Y0172091D01*
X0087030Y0172063D01*
X0087063Y0172037D01*
X0087099Y0172015D01*
X0087136Y0171995D01*
X0087175Y0171979D01*
X0087215Y0171966D01*
X0087256Y0171957D01*
X0087298Y0171952D01*
X0087340Y0171950D01*
X0088146Y0171950D01*
X0088146Y0172917D02*
X0088146Y0173239D01*
X0088145Y0173239D02*
X0088143Y0173288D01*
X0088137Y0173337D01*
X0088128Y0173386D01*
X0088115Y0173433D01*
X0088098Y0173480D01*
X0088078Y0173525D01*
X0088055Y0173568D01*
X0088028Y0173610D01*
X0087998Y0173649D01*
X0087965Y0173686D01*
X0087929Y0173720D01*
X0087891Y0173751D01*
X0087851Y0173780D01*
X0087809Y0173805D01*
X0087764Y0173827D01*
X0087719Y0173845D01*
X0087672Y0173860D01*
X0087624Y0173871D01*
X0087575Y0173879D01*
X0087526Y0173883D01*
X0087476Y0173883D01*
X0087427Y0173879D01*
X0087378Y0173871D01*
X0087330Y0173860D01*
X0087283Y0173845D01*
X0087238Y0173827D01*
X0087193Y0173805D01*
X0087151Y0173780D01*
X0087111Y0173751D01*
X0087073Y0173720D01*
X0087037Y0173686D01*
X0087004Y0173649D01*
X0086974Y0173610D01*
X0086947Y0173568D01*
X0086924Y0173525D01*
X0086904Y0173480D01*
X0086887Y0173433D01*
X0086874Y0173386D01*
X0086865Y0173337D01*
X0086859Y0173288D01*
X0086857Y0173239D01*
X0085837Y0171950D02*
X0085795Y0171952D01*
X0085753Y0171957D01*
X0085712Y0171966D01*
X0085672Y0171979D01*
X0085633Y0171995D01*
X0085596Y0172015D01*
X0085560Y0172037D01*
X0085527Y0172063D01*
X0085495Y0172091D01*
X0085467Y0172123D01*
X0085441Y0172156D01*
X0085419Y0172192D01*
X0085399Y0172229D01*
X0085383Y0172268D01*
X0085370Y0172308D01*
X0085361Y0172349D01*
X0085356Y0172391D01*
X0085354Y0172433D01*
X0085354Y0174850D01*
X0084130Y0173400D02*
X0084130Y0172433D01*
X0084128Y0172391D01*
X0084123Y0172349D01*
X0084114Y0172308D01*
X0084101Y0172268D01*
X0084085Y0172229D01*
X0084065Y0172192D01*
X0084043Y0172156D01*
X0084017Y0172123D01*
X0083989Y0172091D01*
X0083957Y0172063D01*
X0083924Y0172037D01*
X0083889Y0172015D01*
X0083851Y0171995D01*
X0083812Y0171979D01*
X0083772Y0171966D01*
X0083731Y0171957D01*
X0083689Y0171952D01*
X0083647Y0171950D01*
X0082841Y0171950D01*
X0082841Y0170983D02*
X0082841Y0173883D01*
X0083647Y0173883D01*
X0083689Y0173881D01*
X0083731Y0173876D01*
X0083772Y0173867D01*
X0083812Y0173854D01*
X0083851Y0173838D01*
X0083889Y0173818D01*
X0083924Y0173796D01*
X0083957Y0173770D01*
X0083989Y0173742D01*
X0084017Y0173710D01*
X0084043Y0173677D01*
X0084065Y0173642D01*
X0084085Y0173604D01*
X0084101Y0173565D01*
X0084114Y0173525D01*
X0084123Y0173484D01*
X0084128Y0173442D01*
X0084130Y0173400D01*
X0081538Y0173400D02*
X0081538Y0172433D01*
X0081536Y0172391D01*
X0081531Y0172349D01*
X0081522Y0172308D01*
X0081509Y0172268D01*
X0081493Y0172229D01*
X0081473Y0172192D01*
X0081451Y0172156D01*
X0081425Y0172123D01*
X0081397Y0172091D01*
X0081365Y0172063D01*
X0081332Y0172037D01*
X0081297Y0172015D01*
X0081259Y0171995D01*
X0081220Y0171979D01*
X0081180Y0171966D01*
X0081139Y0171957D01*
X0081097Y0171952D01*
X0081055Y0171950D01*
X0080249Y0171950D01*
X0080249Y0170983D02*
X0080249Y0173883D01*
X0081055Y0173883D01*
X0081097Y0173881D01*
X0081139Y0173876D01*
X0081180Y0173867D01*
X0081220Y0173854D01*
X0081259Y0173838D01*
X0081297Y0173818D01*
X0081332Y0173796D01*
X0081365Y0173770D01*
X0081397Y0173742D01*
X0081425Y0173710D01*
X0081451Y0173677D01*
X0081473Y0173642D01*
X0081493Y0173604D01*
X0081509Y0173565D01*
X0081522Y0173525D01*
X0081531Y0173484D01*
X0081536Y0173442D01*
X0081538Y0173400D01*
X0078818Y0173400D02*
X0078818Y0171950D01*
X0078093Y0171950D01*
X0078046Y0171952D01*
X0078000Y0171958D01*
X0077955Y0171967D01*
X0077910Y0171981D01*
X0077866Y0171998D01*
X0077825Y0172018D01*
X0077785Y0172042D01*
X0077747Y0172069D01*
X0077711Y0172099D01*
X0077678Y0172132D01*
X0077648Y0172168D01*
X0077621Y0172206D01*
X0077597Y0172246D01*
X0077577Y0172287D01*
X0077560Y0172331D01*
X0077546Y0172376D01*
X0077537Y0172421D01*
X0077531Y0172467D01*
X0077529Y0172514D01*
X0077531Y0172561D01*
X0077537Y0172607D01*
X0077546Y0172652D01*
X0077560Y0172697D01*
X0077577Y0172741D01*
X0077597Y0172782D01*
X0077621Y0172822D01*
X0077648Y0172860D01*
X0077678Y0172896D01*
X0077711Y0172929D01*
X0077747Y0172959D01*
X0077785Y0172986D01*
X0077825Y0173010D01*
X0077866Y0173030D01*
X0077910Y0173047D01*
X0077955Y0173061D01*
X0078000Y0173070D01*
X0078046Y0173076D01*
X0078093Y0173078D01*
X0078818Y0173078D01*
X0078817Y0173400D02*
X0078815Y0173442D01*
X0078810Y0173484D01*
X0078801Y0173525D01*
X0078788Y0173565D01*
X0078772Y0173604D01*
X0078752Y0173642D01*
X0078730Y0173677D01*
X0078704Y0173710D01*
X0078676Y0173742D01*
X0078644Y0173770D01*
X0078611Y0173796D01*
X0078576Y0173818D01*
X0078538Y0173838D01*
X0078499Y0173854D01*
X0078459Y0173867D01*
X0078418Y0173876D01*
X0078376Y0173881D01*
X0078334Y0173883D01*
X0077690Y0173883D01*
X0076338Y0173239D02*
X0076338Y0172917D01*
X0075049Y0172917D01*
X0075049Y0173239D02*
X0075049Y0172433D01*
X0075051Y0172391D01*
X0075056Y0172349D01*
X0075065Y0172308D01*
X0075078Y0172268D01*
X0075094Y0172229D01*
X0075114Y0172192D01*
X0075136Y0172156D01*
X0075162Y0172123D01*
X0075190Y0172091D01*
X0075222Y0172063D01*
X0075255Y0172037D01*
X0075291Y0172015D01*
X0075328Y0171995D01*
X0075367Y0171979D01*
X0075407Y0171966D01*
X0075448Y0171957D01*
X0075490Y0171952D01*
X0075532Y0171950D01*
X0076338Y0171950D01*
X0076337Y0173239D02*
X0076335Y0173288D01*
X0076329Y0173337D01*
X0076320Y0173386D01*
X0076307Y0173433D01*
X0076290Y0173480D01*
X0076270Y0173525D01*
X0076247Y0173568D01*
X0076220Y0173610D01*
X0076190Y0173649D01*
X0076157Y0173686D01*
X0076121Y0173720D01*
X0076083Y0173751D01*
X0076043Y0173780D01*
X0076001Y0173805D01*
X0075956Y0173827D01*
X0075911Y0173845D01*
X0075864Y0173860D01*
X0075816Y0173871D01*
X0075767Y0173879D01*
X0075718Y0173883D01*
X0075668Y0173883D01*
X0075619Y0173879D01*
X0075570Y0173871D01*
X0075522Y0173860D01*
X0075475Y0173845D01*
X0075430Y0173827D01*
X0075385Y0173805D01*
X0075343Y0173780D01*
X0075303Y0173751D01*
X0075265Y0173720D01*
X0075229Y0173686D01*
X0075196Y0173649D01*
X0075166Y0173610D01*
X0075139Y0173568D01*
X0075116Y0173525D01*
X0075096Y0173480D01*
X0075079Y0173433D01*
X0075066Y0173386D01*
X0075057Y0173337D01*
X0075051Y0173288D01*
X0075049Y0173239D01*
X0073746Y0173400D02*
X0073746Y0171950D01*
X0072457Y0171950D02*
X0072457Y0173883D01*
X0073263Y0173883D01*
X0073305Y0173881D01*
X0073347Y0173876D01*
X0073388Y0173867D01*
X0073428Y0173854D01*
X0073467Y0173838D01*
X0073505Y0173818D01*
X0073540Y0173796D01*
X0073573Y0173770D01*
X0073605Y0173742D01*
X0073633Y0173710D01*
X0073659Y0173677D01*
X0073681Y0173642D01*
X0073701Y0173604D01*
X0073717Y0173565D01*
X0073730Y0173525D01*
X0073739Y0173484D01*
X0073744Y0173442D01*
X0073746Y0173400D01*
X0071181Y0173883D02*
X0071181Y0171950D01*
X0069308Y0173239D02*
X0068502Y0173239D01*
X0069308Y0173238D02*
X0069363Y0173240D01*
X0069418Y0173246D01*
X0069472Y0173255D01*
X0069525Y0173268D01*
X0069578Y0173285D01*
X0069629Y0173305D01*
X0069679Y0173328D01*
X0069727Y0173355D01*
X0069773Y0173386D01*
X0069817Y0173419D01*
X0069858Y0173455D01*
X0069897Y0173494D01*
X0069933Y0173535D01*
X0069966Y0173579D01*
X0069997Y0173625D01*
X0070024Y0173673D01*
X0070047Y0173723D01*
X0070067Y0173774D01*
X0070084Y0173827D01*
X0070097Y0173880D01*
X0070106Y0173934D01*
X0070112Y0173989D01*
X0070114Y0174044D01*
X0070112Y0174099D01*
X0070106Y0174154D01*
X0070097Y0174208D01*
X0070084Y0174261D01*
X0070067Y0174314D01*
X0070047Y0174365D01*
X0070024Y0174415D01*
X0069997Y0174463D01*
X0069966Y0174509D01*
X0069933Y0174553D01*
X0069897Y0174594D01*
X0069858Y0174633D01*
X0069817Y0174669D01*
X0069773Y0174702D01*
X0069727Y0174733D01*
X0069679Y0174760D01*
X0069629Y0174783D01*
X0069578Y0174803D01*
X0069525Y0174820D01*
X0069472Y0174833D01*
X0069418Y0174842D01*
X0069363Y0174848D01*
X0069308Y0174850D01*
X0068502Y0174850D01*
X0068502Y0171950D01*
X0065682Y0173883D02*
X0064715Y0170983D01*
X0064393Y0170983D01*
X0065037Y0171950D02*
X0064393Y0173883D01*
X0063298Y0173400D02*
X0063298Y0172433D01*
X0063296Y0172391D01*
X0063291Y0172349D01*
X0063282Y0172308D01*
X0063269Y0172268D01*
X0063253Y0172229D01*
X0063233Y0172192D01*
X0063211Y0172156D01*
X0063185Y0172123D01*
X0063157Y0172091D01*
X0063125Y0172063D01*
X0063092Y0172037D01*
X0063057Y0172015D01*
X0063019Y0171995D01*
X0062980Y0171979D01*
X0062940Y0171966D01*
X0062899Y0171957D01*
X0062857Y0171952D01*
X0062815Y0171950D01*
X0062009Y0171950D01*
X0062009Y0174850D01*
X0062009Y0173883D02*
X0062815Y0173883D01*
X0062857Y0173881D01*
X0062899Y0173876D01*
X0062940Y0173867D01*
X0062980Y0173854D01*
X0063019Y0173838D01*
X0063057Y0173818D01*
X0063092Y0173796D01*
X0063125Y0173770D01*
X0063157Y0173742D01*
X0063185Y0173710D01*
X0063211Y0173677D01*
X0063233Y0173642D01*
X0063253Y0173604D01*
X0063269Y0173565D01*
X0063282Y0173525D01*
X0063291Y0173484D01*
X0063296Y0173442D01*
X0063298Y0173400D01*
X0057754Y0172353D02*
X0057716Y0172435D01*
X0057681Y0172518D01*
X0057649Y0172603D01*
X0057620Y0172688D01*
X0057595Y0172775D01*
X0057573Y0172863D01*
X0057555Y0172951D01*
X0057539Y0173040D01*
X0057527Y0173130D01*
X0057519Y0173219D01*
X0057514Y0173310D01*
X0057512Y0173400D01*
X0059123Y0173400D02*
X0059121Y0173490D01*
X0059116Y0173581D01*
X0059108Y0173670D01*
X0059096Y0173760D01*
X0059080Y0173849D01*
X0059062Y0173937D01*
X0059040Y0174025D01*
X0059015Y0174112D01*
X0058986Y0174197D01*
X0058954Y0174282D01*
X0058919Y0174365D01*
X0058881Y0174447D01*
X0058962Y0174206D02*
X0057673Y0172594D01*
X0058317Y0171950D02*
X0058363Y0171952D01*
X0058409Y0171957D01*
X0058454Y0171966D01*
X0058499Y0171978D01*
X0058542Y0171994D01*
X0058584Y0172013D01*
X0058625Y0172036D01*
X0058663Y0172061D01*
X0058700Y0172089D01*
X0058734Y0172120D01*
X0058766Y0172154D01*
X0058795Y0172190D01*
X0058821Y0172228D01*
X0058844Y0172268D01*
X0058864Y0172310D01*
X0058881Y0172353D01*
X0058317Y0171950D02*
X0058271Y0171952D01*
X0058225Y0171957D01*
X0058180Y0171966D01*
X0058135Y0171978D01*
X0058092Y0171994D01*
X0058050Y0172013D01*
X0058009Y0172036D01*
X0057971Y0172061D01*
X0057934Y0172089D01*
X0057900Y0172120D01*
X0057868Y0172154D01*
X0057839Y0172190D01*
X0057813Y0172228D01*
X0057790Y0172268D01*
X0057770Y0172310D01*
X0057753Y0172353D01*
X0056382Y0172111D02*
X0056382Y0171950D01*
X0056221Y0171950D01*
X0056221Y0172111D01*
X0056382Y0172111D01*
X0058881Y0172353D02*
X0058919Y0172435D01*
X0058954Y0172518D01*
X0058986Y0172603D01*
X0059015Y0172688D01*
X0059040Y0172775D01*
X0059062Y0172863D01*
X0059080Y0172951D01*
X0059096Y0173040D01*
X0059108Y0173130D01*
X0059116Y0173219D01*
X0059121Y0173310D01*
X0059123Y0173400D01*
X0057512Y0173400D02*
X0057514Y0173490D01*
X0057519Y0173581D01*
X0057527Y0173670D01*
X0057539Y0173760D01*
X0057555Y0173849D01*
X0057573Y0173937D01*
X0057595Y0174025D01*
X0057620Y0174112D01*
X0057649Y0174197D01*
X0057681Y0174282D01*
X0057716Y0174365D01*
X0057754Y0174447D01*
X0058317Y0174850D02*
X0058363Y0174848D01*
X0058409Y0174843D01*
X0058454Y0174834D01*
X0058499Y0174822D01*
X0058542Y0174806D01*
X0058584Y0174787D01*
X0058625Y0174764D01*
X0058663Y0174739D01*
X0058700Y0174711D01*
X0058734Y0174680D01*
X0058766Y0174646D01*
X0058795Y0174610D01*
X0058821Y0174572D01*
X0058844Y0174532D01*
X0058864Y0174490D01*
X0058881Y0174447D01*
X0058317Y0174850D02*
X0058271Y0174848D01*
X0058225Y0174843D01*
X0058180Y0174834D01*
X0058135Y0174822D01*
X0058092Y0174806D01*
X0058050Y0174787D01*
X0058009Y0174764D01*
X0057971Y0174739D01*
X0057934Y0174711D01*
X0057900Y0174680D01*
X0057868Y0174646D01*
X0057839Y0174610D01*
X0057813Y0174572D01*
X0057790Y0174532D01*
X0057770Y0174490D01*
X0057753Y0174447D01*
X0053480Y0173400D02*
X0053482Y0173310D01*
X0053487Y0173219D01*
X0053495Y0173130D01*
X0053507Y0173040D01*
X0053523Y0172951D01*
X0053541Y0172863D01*
X0053563Y0172775D01*
X0053588Y0172688D01*
X0053617Y0172603D01*
X0053649Y0172518D01*
X0053684Y0172435D01*
X0053722Y0172353D01*
X0053641Y0172594D02*
X0054930Y0174206D01*
X0054849Y0174447D02*
X0054832Y0174490D01*
X0054812Y0174532D01*
X0054789Y0174572D01*
X0054763Y0174610D01*
X0054734Y0174646D01*
X0054702Y0174680D01*
X0054668Y0174711D01*
X0054631Y0174739D01*
X0054593Y0174764D01*
X0054552Y0174787D01*
X0054510Y0174806D01*
X0054467Y0174822D01*
X0054422Y0174834D01*
X0054377Y0174843D01*
X0054331Y0174848D01*
X0054285Y0174850D01*
X0054239Y0174848D01*
X0054193Y0174843D01*
X0054148Y0174834D01*
X0054103Y0174822D01*
X0054060Y0174806D01*
X0054018Y0174787D01*
X0053977Y0174764D01*
X0053939Y0174739D01*
X0053902Y0174711D01*
X0053868Y0174680D01*
X0053836Y0174646D01*
X0053807Y0174610D01*
X0053781Y0174572D01*
X0053758Y0174532D01*
X0053738Y0174490D01*
X0053721Y0174447D01*
X0054849Y0174447D02*
X0054887Y0174365D01*
X0054922Y0174282D01*
X0054954Y0174197D01*
X0054983Y0174112D01*
X0055008Y0174025D01*
X0055030Y0173937D01*
X0055048Y0173849D01*
X0055064Y0173760D01*
X0055076Y0173670D01*
X0055084Y0173581D01*
X0055089Y0173490D01*
X0055091Y0173400D01*
X0053480Y0173400D02*
X0053482Y0173490D01*
X0053487Y0173581D01*
X0053495Y0173670D01*
X0053507Y0173760D01*
X0053523Y0173849D01*
X0053541Y0173937D01*
X0053563Y0174025D01*
X0053588Y0174112D01*
X0053617Y0174197D01*
X0053649Y0174282D01*
X0053684Y0174365D01*
X0053722Y0174447D01*
X0055091Y0173400D02*
X0055089Y0173310D01*
X0055084Y0173219D01*
X0055076Y0173130D01*
X0055064Y0173040D01*
X0055048Y0172951D01*
X0055030Y0172863D01*
X0055008Y0172775D01*
X0054983Y0172688D01*
X0054954Y0172603D01*
X0054922Y0172518D01*
X0054887Y0172435D01*
X0054849Y0172353D01*
X0054832Y0172310D01*
X0054812Y0172268D01*
X0054789Y0172228D01*
X0054763Y0172190D01*
X0054734Y0172154D01*
X0054702Y0172120D01*
X0054668Y0172089D01*
X0054631Y0172061D01*
X0054593Y0172036D01*
X0054552Y0172013D01*
X0054510Y0171994D01*
X0054467Y0171978D01*
X0054422Y0171966D01*
X0054377Y0171957D01*
X0054331Y0171952D01*
X0054285Y0171950D01*
X0054239Y0171952D01*
X0054193Y0171957D01*
X0054148Y0171966D01*
X0054103Y0171978D01*
X0054060Y0171994D01*
X0054018Y0172013D01*
X0053977Y0172036D01*
X0053939Y0172061D01*
X0053902Y0172089D01*
X0053868Y0172120D01*
X0053836Y0172154D01*
X0053807Y0172190D01*
X0053781Y0172228D01*
X0053758Y0172268D01*
X0053738Y0172310D01*
X0053721Y0172353D01*
X0052350Y0172111D02*
X0052350Y0171950D01*
X0052189Y0171950D01*
X0052189Y0172111D01*
X0052350Y0172111D01*
X0051059Y0171950D02*
X0049448Y0171950D01*
X0050254Y0171950D02*
X0050254Y0174850D01*
X0049448Y0174206D01*
X0046019Y0173239D02*
X0046663Y0171950D01*
X0045858Y0173239D02*
X0045052Y0173239D01*
X0045858Y0173238D02*
X0045913Y0173240D01*
X0045968Y0173246D01*
X0046022Y0173255D01*
X0046075Y0173268D01*
X0046128Y0173285D01*
X0046179Y0173305D01*
X0046229Y0173328D01*
X0046277Y0173355D01*
X0046323Y0173386D01*
X0046367Y0173419D01*
X0046408Y0173455D01*
X0046447Y0173494D01*
X0046483Y0173535D01*
X0046516Y0173579D01*
X0046547Y0173625D01*
X0046574Y0173673D01*
X0046597Y0173723D01*
X0046617Y0173774D01*
X0046634Y0173827D01*
X0046647Y0173880D01*
X0046656Y0173934D01*
X0046662Y0173989D01*
X0046664Y0174044D01*
X0046662Y0174099D01*
X0046656Y0174154D01*
X0046647Y0174208D01*
X0046634Y0174261D01*
X0046617Y0174314D01*
X0046597Y0174365D01*
X0046574Y0174415D01*
X0046547Y0174463D01*
X0046516Y0174509D01*
X0046483Y0174553D01*
X0046447Y0174594D01*
X0046408Y0174633D01*
X0046367Y0174669D01*
X0046323Y0174702D01*
X0046277Y0174733D01*
X0046229Y0174760D01*
X0046179Y0174783D01*
X0046128Y0174803D01*
X0046075Y0174820D01*
X0046022Y0174833D01*
X0045968Y0174842D01*
X0045913Y0174848D01*
X0045858Y0174850D01*
X0045052Y0174850D01*
X0045052Y0171950D01*
X0043831Y0171950D02*
X0042542Y0171950D01*
X0042542Y0174850D01*
X0043831Y0174850D01*
X0043509Y0173561D02*
X0042542Y0173561D01*
X0040945Y0173158D02*
X0040059Y0173642D01*
X0040381Y0174850D02*
X0040446Y0174848D01*
X0040510Y0174843D01*
X0040575Y0174834D01*
X0040638Y0174822D01*
X0040701Y0174807D01*
X0040763Y0174788D01*
X0040824Y0174766D01*
X0040883Y0174741D01*
X0040942Y0174712D01*
X0040998Y0174680D01*
X0041053Y0174646D01*
X0041106Y0174608D01*
X0040058Y0173642D02*
X0040018Y0173668D01*
X0039979Y0173697D01*
X0039942Y0173729D01*
X0039908Y0173764D01*
X0039877Y0173801D01*
X0039848Y0173840D01*
X0039822Y0173881D01*
X0039800Y0173924D01*
X0039781Y0173969D01*
X0039765Y0174015D01*
X0039752Y0174061D01*
X0039743Y0174109D01*
X0039738Y0174157D01*
X0039736Y0174206D01*
X0039737Y0174206D02*
X0039739Y0174254D01*
X0039744Y0174302D01*
X0039753Y0174349D01*
X0039766Y0174396D01*
X0039782Y0174441D01*
X0039801Y0174485D01*
X0039823Y0174528D01*
X0039849Y0174569D01*
X0039878Y0174608D01*
X0039909Y0174644D01*
X0039943Y0174678D01*
X0039979Y0174710D01*
X0040018Y0174738D01*
X0040059Y0174764D01*
X0040102Y0174786D01*
X0040146Y0174805D01*
X0040191Y0174821D01*
X0040238Y0174834D01*
X0040285Y0174843D01*
X0040333Y0174848D01*
X0040381Y0174850D01*
X0039657Y0172353D02*
X0039708Y0172303D01*
X0039763Y0172256D01*
X0039819Y0172213D01*
X0039878Y0172172D01*
X0039939Y0172134D01*
X0040002Y0172100D01*
X0040067Y0172069D01*
X0040133Y0172041D01*
X0040200Y0172017D01*
X0040269Y0171997D01*
X0040339Y0171980D01*
X0040409Y0171967D01*
X0040480Y0171958D01*
X0040551Y0171952D01*
X0040623Y0171950D01*
X0040671Y0171952D01*
X0040719Y0171957D01*
X0040766Y0171966D01*
X0040813Y0171979D01*
X0040858Y0171995D01*
X0040902Y0172014D01*
X0040945Y0172036D01*
X0040986Y0172062D01*
X0041025Y0172091D01*
X0041061Y0172122D01*
X0041095Y0172156D01*
X0041126Y0172192D01*
X0041155Y0172231D01*
X0041181Y0172272D01*
X0041203Y0172315D01*
X0041222Y0172359D01*
X0041238Y0172404D01*
X0041251Y0172451D01*
X0041260Y0172498D01*
X0041265Y0172546D01*
X0041267Y0172594D01*
X0041268Y0172594D02*
X0041266Y0172643D01*
X0041261Y0172691D01*
X0041252Y0172739D01*
X0041239Y0172785D01*
X0041223Y0172831D01*
X0041204Y0172876D01*
X0041182Y0172919D01*
X0041156Y0172960D01*
X0041127Y0172999D01*
X0041096Y0173036D01*
X0041062Y0173071D01*
X0041025Y0173103D01*
X0040986Y0173132D01*
X0040946Y0173158D01*
X0038644Y0174850D02*
X0037678Y0173481D01*
X0037678Y0171950D01*
X0037678Y0173481D02*
X0036711Y0174850D01*
X0035767Y0174850D02*
X0034478Y0174850D01*
X0034478Y0171950D01*
X0035767Y0171950D01*
X0035445Y0173561D02*
X0034478Y0173561D01*
X0033011Y0173561D02*
X0033011Y0171950D01*
X0032044Y0171950D01*
X0031996Y0171952D01*
X0031948Y0171957D01*
X0031901Y0171966D01*
X0031854Y0171979D01*
X0031809Y0171995D01*
X0031765Y0172014D01*
X0031722Y0172036D01*
X0031681Y0172062D01*
X0031642Y0172091D01*
X0031606Y0172122D01*
X0031572Y0172156D01*
X0031541Y0172192D01*
X0031512Y0172231D01*
X0031486Y0172272D01*
X0031464Y0172315D01*
X0031445Y0172359D01*
X0031429Y0172404D01*
X0031416Y0172451D01*
X0031407Y0172498D01*
X0031402Y0172546D01*
X0031400Y0172594D01*
X0031400Y0174206D01*
X0031402Y0174257D01*
X0031408Y0174307D01*
X0031418Y0174356D01*
X0031432Y0174405D01*
X0031449Y0174452D01*
X0031470Y0174498D01*
X0031495Y0174542D01*
X0031523Y0174585D01*
X0031554Y0174624D01*
X0031589Y0174661D01*
X0031626Y0174696D01*
X0031665Y0174727D01*
X0031708Y0174755D01*
X0031752Y0174780D01*
X0031798Y0174801D01*
X0031845Y0174818D01*
X0031894Y0174832D01*
X0031943Y0174842D01*
X0031993Y0174848D01*
X0032044Y0174850D01*
X0033011Y0174850D01*
X0033011Y0173561D02*
X0032528Y0173561D01*
X0071101Y0174689D02*
X0071262Y0174689D01*
X0071262Y0174850D01*
X0071101Y0174850D01*
X0071101Y0174689D01*
D11*
X0107250Y0086800D02*
X0101250Y0080800D01*
X0101250Y0048800D01*
X0101252Y0048713D01*
X0101258Y0048626D01*
X0101267Y0048539D01*
X0101280Y0048453D01*
X0101297Y0048367D01*
X0101318Y0048282D01*
X0101343Y0048199D01*
X0101371Y0048116D01*
X0101402Y0048035D01*
X0101437Y0047955D01*
X0101476Y0047877D01*
X0101518Y0047800D01*
X0101563Y0047725D01*
X0101612Y0047653D01*
X0101663Y0047582D01*
X0101718Y0047514D01*
X0101775Y0047449D01*
X0101836Y0047386D01*
X0101899Y0047325D01*
X0101964Y0047268D01*
X0102032Y0047213D01*
X0102103Y0047162D01*
X0102175Y0047113D01*
X0102250Y0047068D01*
X0102327Y0047026D01*
X0102405Y0046987D01*
X0102485Y0046952D01*
X0102566Y0046921D01*
X0102649Y0046893D01*
X0102732Y0046868D01*
X0102817Y0046847D01*
X0102903Y0046830D01*
X0102989Y0046817D01*
X0103076Y0046808D01*
X0103163Y0046802D01*
X0103250Y0046800D01*
X0139250Y0046800D01*
X0139337Y0046802D01*
X0139424Y0046808D01*
X0139511Y0046817D01*
X0139597Y0046830D01*
X0139683Y0046847D01*
X0139768Y0046868D01*
X0139851Y0046893D01*
X0139934Y0046921D01*
X0140015Y0046952D01*
X0140095Y0046987D01*
X0140173Y0047026D01*
X0140250Y0047068D01*
X0140325Y0047113D01*
X0140397Y0047162D01*
X0140468Y0047213D01*
X0140536Y0047268D01*
X0140601Y0047325D01*
X0140664Y0047386D01*
X0140725Y0047449D01*
X0140782Y0047514D01*
X0140837Y0047582D01*
X0140888Y0047653D01*
X0140937Y0047725D01*
X0140982Y0047800D01*
X0141024Y0047877D01*
X0141063Y0047955D01*
X0141098Y0048035D01*
X0141129Y0048116D01*
X0141157Y0048199D01*
X0141182Y0048282D01*
X0141203Y0048367D01*
X0141220Y0048453D01*
X0141233Y0048539D01*
X0141242Y0048626D01*
X0141248Y0048713D01*
X0141250Y0048800D01*
X0141250Y0084800D01*
X0141248Y0084887D01*
X0141242Y0084974D01*
X0141233Y0085061D01*
X0141220Y0085147D01*
X0141203Y0085233D01*
X0141182Y0085318D01*
X0141157Y0085401D01*
X0141129Y0085484D01*
X0141098Y0085565D01*
X0141063Y0085645D01*
X0141024Y0085723D01*
X0140982Y0085800D01*
X0140937Y0085875D01*
X0140888Y0085947D01*
X0140837Y0086018D01*
X0140782Y0086086D01*
X0140725Y0086151D01*
X0140664Y0086214D01*
X0140601Y0086275D01*
X0140536Y0086332D01*
X0140468Y0086387D01*
X0140397Y0086438D01*
X0140325Y0086487D01*
X0140250Y0086532D01*
X0140173Y0086574D01*
X0140095Y0086613D01*
X0140015Y0086648D01*
X0139934Y0086679D01*
X0139851Y0086707D01*
X0139768Y0086732D01*
X0139683Y0086753D01*
X0139597Y0086770D01*
X0139511Y0086783D01*
X0139424Y0086792D01*
X0139337Y0086798D01*
X0139250Y0086800D01*
X0107250Y0086800D01*
X0112250Y0077500D02*
X0110550Y0075800D01*
X0111950Y0074400D01*
X0112850Y0075300D01*
X0111950Y0074400D02*
X0113350Y0073000D01*
X0114950Y0074500D01*
X0115150Y0072900D02*
X0116150Y0071900D01*
X0118450Y0073400D02*
X0117850Y0074800D01*
X0116550Y0075600D02*
X0115750Y0077300D01*
X0117150Y0077900D01*
X0115750Y0077300D02*
X0114950Y0079000D01*
X0116850Y0079900D01*
X0120050Y0080000D02*
X0120050Y0077600D01*
X0120650Y0076900D01*
X0121850Y0076900D01*
X0122450Y0077600D01*
X0122450Y0080000D01*
X0121850Y0080600D01*
X0120650Y0080600D01*
X0120050Y0080000D01*
X0121250Y0075500D02*
X0121250Y0074000D01*
X0124250Y0073300D02*
X0124850Y0074600D01*
X0125450Y0075900D02*
X0126950Y0079200D01*
X0125750Y0079000D01*
X0124850Y0076100D02*
X0125950Y0075600D01*
X0127650Y0074600D02*
X0131050Y0074400D01*
X0131650Y0074900D01*
X0131650Y0075800D01*
X0130650Y0076900D01*
X0129550Y0076900D01*
X0127650Y0074600D02*
X0129250Y0072900D01*
X0130450Y0072200D02*
X0130050Y0071500D01*
X0130750Y0069800D01*
X0131650Y0069600D01*
X0132450Y0070000D01*
X0132650Y0070500D01*
X0133250Y0070400D01*
X0134050Y0070800D01*
X0134350Y0071300D01*
X0133650Y0073000D01*
X0132650Y0073200D01*
X0132350Y0071300D02*
X0132650Y0070500D01*
X0133150Y0068000D02*
X0133150Y0065600D01*
X0131350Y0066200D02*
X0135050Y0066200D01*
X0133150Y0068000D01*
X0129850Y0066800D02*
X0128350Y0066800D01*
X0127750Y0069600D02*
X0129250Y0070200D01*
X0127350Y0072800D02*
X0126350Y0071800D01*
X0114150Y0066800D02*
X0114152Y0066974D01*
X0114159Y0067148D01*
X0114169Y0067322D01*
X0114184Y0067496D01*
X0114203Y0067669D01*
X0114227Y0067842D01*
X0114255Y0068014D01*
X0114286Y0068185D01*
X0114323Y0068356D01*
X0114363Y0068525D01*
X0114407Y0068694D01*
X0114456Y0068861D01*
X0114508Y0069027D01*
X0114565Y0069192D01*
X0114626Y0069355D01*
X0114690Y0069517D01*
X0114759Y0069677D01*
X0114832Y0069836D01*
X0114908Y0069992D01*
X0114988Y0070147D01*
X0115072Y0070300D01*
X0115160Y0070450D01*
X0115252Y0070598D01*
X0115347Y0070745D01*
X0115445Y0070888D01*
X0115547Y0071029D01*
X0115653Y0071168D01*
X0115762Y0071304D01*
X0115874Y0071438D01*
X0115989Y0071568D01*
X0116108Y0071696D01*
X0116230Y0071820D01*
X0116354Y0071942D01*
X0116482Y0072061D01*
X0116612Y0072176D01*
X0116746Y0072288D01*
X0116882Y0072397D01*
X0117021Y0072503D01*
X0117162Y0072605D01*
X0117305Y0072703D01*
X0117452Y0072798D01*
X0117600Y0072890D01*
X0117750Y0072978D01*
X0117903Y0073062D01*
X0118058Y0073142D01*
X0118214Y0073218D01*
X0118373Y0073291D01*
X0118533Y0073360D01*
X0118695Y0073424D01*
X0118858Y0073485D01*
X0119023Y0073542D01*
X0119189Y0073594D01*
X0119356Y0073643D01*
X0119525Y0073687D01*
X0119694Y0073727D01*
X0119865Y0073764D01*
X0120036Y0073795D01*
X0120208Y0073823D01*
X0120381Y0073847D01*
X0120554Y0073866D01*
X0120728Y0073881D01*
X0120902Y0073891D01*
X0121076Y0073898D01*
X0121250Y0073900D01*
X0121424Y0073898D01*
X0121598Y0073891D01*
X0121772Y0073881D01*
X0121946Y0073866D01*
X0122119Y0073847D01*
X0122292Y0073823D01*
X0122464Y0073795D01*
X0122635Y0073764D01*
X0122806Y0073727D01*
X0122975Y0073687D01*
X0123144Y0073643D01*
X0123311Y0073594D01*
X0123477Y0073542D01*
X0123642Y0073485D01*
X0123805Y0073424D01*
X0123967Y0073360D01*
X0124127Y0073291D01*
X0124286Y0073218D01*
X0124442Y0073142D01*
X0124597Y0073062D01*
X0124750Y0072978D01*
X0124900Y0072890D01*
X0125048Y0072798D01*
X0125195Y0072703D01*
X0125338Y0072605D01*
X0125479Y0072503D01*
X0125618Y0072397D01*
X0125754Y0072288D01*
X0125888Y0072176D01*
X0126018Y0072061D01*
X0126146Y0071942D01*
X0126270Y0071820D01*
X0126392Y0071696D01*
X0126511Y0071568D01*
X0126626Y0071438D01*
X0126738Y0071304D01*
X0126847Y0071168D01*
X0126953Y0071029D01*
X0127055Y0070888D01*
X0127153Y0070745D01*
X0127248Y0070598D01*
X0127340Y0070450D01*
X0127428Y0070300D01*
X0127512Y0070147D01*
X0127592Y0069992D01*
X0127668Y0069836D01*
X0127741Y0069677D01*
X0127810Y0069517D01*
X0127874Y0069355D01*
X0127935Y0069192D01*
X0127992Y0069027D01*
X0128044Y0068861D01*
X0128093Y0068694D01*
X0128137Y0068525D01*
X0128177Y0068356D01*
X0128214Y0068185D01*
X0128245Y0068014D01*
X0128273Y0067842D01*
X0128297Y0067669D01*
X0128316Y0067496D01*
X0128331Y0067322D01*
X0128341Y0067148D01*
X0128348Y0066974D01*
X0128350Y0066800D01*
X0128348Y0066626D01*
X0128341Y0066452D01*
X0128331Y0066278D01*
X0128316Y0066104D01*
X0128297Y0065931D01*
X0128273Y0065758D01*
X0128245Y0065586D01*
X0128214Y0065415D01*
X0128177Y0065244D01*
X0128137Y0065075D01*
X0128093Y0064906D01*
X0128044Y0064739D01*
X0127992Y0064573D01*
X0127935Y0064408D01*
X0127874Y0064245D01*
X0127810Y0064083D01*
X0127741Y0063923D01*
X0127668Y0063764D01*
X0127592Y0063608D01*
X0127512Y0063453D01*
X0127428Y0063300D01*
X0127340Y0063150D01*
X0127248Y0063002D01*
X0127153Y0062855D01*
X0127055Y0062712D01*
X0126953Y0062571D01*
X0126847Y0062432D01*
X0126738Y0062296D01*
X0126626Y0062162D01*
X0126511Y0062032D01*
X0126392Y0061904D01*
X0126270Y0061780D01*
X0126146Y0061658D01*
X0126018Y0061539D01*
X0125888Y0061424D01*
X0125754Y0061312D01*
X0125618Y0061203D01*
X0125479Y0061097D01*
X0125338Y0060995D01*
X0125195Y0060897D01*
X0125048Y0060802D01*
X0124900Y0060710D01*
X0124750Y0060622D01*
X0124597Y0060538D01*
X0124442Y0060458D01*
X0124286Y0060382D01*
X0124127Y0060309D01*
X0123967Y0060240D01*
X0123805Y0060176D01*
X0123642Y0060115D01*
X0123477Y0060058D01*
X0123311Y0060006D01*
X0123144Y0059957D01*
X0122975Y0059913D01*
X0122806Y0059873D01*
X0122635Y0059836D01*
X0122464Y0059805D01*
X0122292Y0059777D01*
X0122119Y0059753D01*
X0121946Y0059734D01*
X0121772Y0059719D01*
X0121598Y0059709D01*
X0121424Y0059702D01*
X0121250Y0059700D01*
X0121076Y0059702D01*
X0120902Y0059709D01*
X0120728Y0059719D01*
X0120554Y0059734D01*
X0120381Y0059753D01*
X0120208Y0059777D01*
X0120036Y0059805D01*
X0119865Y0059836D01*
X0119694Y0059873D01*
X0119525Y0059913D01*
X0119356Y0059957D01*
X0119189Y0060006D01*
X0119023Y0060058D01*
X0118858Y0060115D01*
X0118695Y0060176D01*
X0118533Y0060240D01*
X0118373Y0060309D01*
X0118214Y0060382D01*
X0118058Y0060458D01*
X0117903Y0060538D01*
X0117750Y0060622D01*
X0117600Y0060710D01*
X0117452Y0060802D01*
X0117305Y0060897D01*
X0117162Y0060995D01*
X0117021Y0061097D01*
X0116882Y0061203D01*
X0116746Y0061312D01*
X0116612Y0061424D01*
X0116482Y0061539D01*
X0116354Y0061658D01*
X0116230Y0061780D01*
X0116108Y0061904D01*
X0115989Y0062032D01*
X0115874Y0062162D01*
X0115762Y0062296D01*
X0115653Y0062432D01*
X0115547Y0062571D01*
X0115445Y0062712D01*
X0115347Y0062855D01*
X0115252Y0063002D01*
X0115160Y0063150D01*
X0115072Y0063300D01*
X0114988Y0063453D01*
X0114908Y0063608D01*
X0114832Y0063764D01*
X0114759Y0063923D01*
X0114690Y0064083D01*
X0114626Y0064245D01*
X0114565Y0064408D01*
X0114508Y0064573D01*
X0114456Y0064739D01*
X0114407Y0064906D01*
X0114363Y0065075D01*
X0114323Y0065244D01*
X0114286Y0065415D01*
X0114255Y0065586D01*
X0114227Y0065758D01*
X0114203Y0065931D01*
X0114184Y0066104D01*
X0114169Y0066278D01*
X0114159Y0066452D01*
X0114152Y0066626D01*
X0114150Y0066800D01*
X0114050Y0066800D02*
X0112550Y0066800D01*
X0111450Y0064200D02*
X0112250Y0062200D01*
X0110450Y0061400D01*
X0108850Y0060600D01*
X0108050Y0062400D01*
X0108250Y0063000D01*
X0109050Y0063400D01*
X0109650Y0063200D01*
X0110050Y0064000D01*
X0110750Y0064300D01*
X0111450Y0064200D01*
X0113150Y0063500D02*
X0114750Y0064200D01*
X0116150Y0061700D02*
X0115150Y0060700D01*
X0113250Y0060800D02*
X0112050Y0059600D01*
X0114050Y0057600D01*
X0113250Y0056800D01*
X0111450Y0057000D01*
X0111250Y0058800D01*
X0112050Y0059600D01*
X0110450Y0061400D02*
X0109650Y0063200D01*
X0115250Y0058800D02*
X0114050Y0057600D01*
X0115250Y0056600D02*
X0116450Y0057400D01*
X0118250Y0057200D01*
X0117050Y0055800D02*
X0115250Y0056600D01*
X0114650Y0055600D01*
X0114850Y0054400D01*
X0116050Y0053800D01*
X0117050Y0054000D01*
X0117450Y0054800D01*
X0117050Y0055800D01*
X0119950Y0055500D02*
X0120550Y0054900D01*
X0121750Y0054900D01*
X0122350Y0055500D01*
X0122350Y0056100D01*
X0121750Y0056700D01*
X0120550Y0056700D01*
X0119950Y0056100D01*
X0119950Y0055500D01*
X0120550Y0054900D02*
X0119950Y0054300D01*
X0119950Y0053700D01*
X0120550Y0053000D01*
X0121750Y0053000D01*
X0122350Y0053700D01*
X0122350Y0054300D01*
X0121750Y0054900D01*
X0121250Y0058200D02*
X0121250Y0059700D01*
X0118250Y0060300D02*
X0117650Y0059000D01*
X0123850Y0060100D02*
X0124450Y0058600D01*
X0125650Y0057800D02*
X0125850Y0057200D01*
X0125050Y0054200D01*
X0125250Y0053600D01*
X0127450Y0054600D01*
X0130050Y0056000D02*
X0130850Y0057400D01*
X0130450Y0059200D01*
X0129650Y0060000D01*
X0128650Y0060000D01*
X0127650Y0059000D01*
X0127650Y0058000D01*
X0128050Y0057600D01*
X0129050Y0057600D01*
X0130450Y0059200D01*
X0131550Y0061000D02*
X0130550Y0061500D01*
X0130250Y0062300D01*
X0130750Y0063300D01*
X0131550Y0063600D01*
X0132650Y0063100D02*
X0132750Y0062200D01*
X0132350Y0061300D01*
X0131550Y0061000D01*
X0133250Y0060100D02*
X0134250Y0062300D01*
X0132650Y0063100D01*
X0129250Y0063300D02*
X0127750Y0063900D01*
X0126250Y0061800D02*
X0127250Y0060800D01*
X0114650Y0069600D02*
X0113350Y0070100D01*
X0112350Y0071400D02*
X0112050Y0072200D01*
X0109550Y0073400D01*
X0108850Y0073100D01*
X0108050Y0071400D01*
X0111650Y0069800D01*
X0112350Y0071400D01*
X0146250Y0080800D02*
X0146250Y0048800D01*
X0146252Y0048713D01*
X0146258Y0048626D01*
X0146267Y0048539D01*
X0146280Y0048453D01*
X0146297Y0048367D01*
X0146318Y0048282D01*
X0146343Y0048199D01*
X0146371Y0048116D01*
X0146402Y0048035D01*
X0146437Y0047955D01*
X0146476Y0047877D01*
X0146518Y0047800D01*
X0146563Y0047725D01*
X0146612Y0047653D01*
X0146663Y0047582D01*
X0146718Y0047514D01*
X0146775Y0047449D01*
X0146836Y0047386D01*
X0146899Y0047325D01*
X0146964Y0047268D01*
X0147032Y0047213D01*
X0147103Y0047162D01*
X0147175Y0047113D01*
X0147250Y0047068D01*
X0147327Y0047026D01*
X0147405Y0046987D01*
X0147485Y0046952D01*
X0147566Y0046921D01*
X0147649Y0046893D01*
X0147732Y0046868D01*
X0147817Y0046847D01*
X0147903Y0046830D01*
X0147989Y0046817D01*
X0148076Y0046808D01*
X0148163Y0046802D01*
X0148250Y0046800D01*
X0184250Y0046800D01*
X0184337Y0046802D01*
X0184424Y0046808D01*
X0184511Y0046817D01*
X0184597Y0046830D01*
X0184683Y0046847D01*
X0184768Y0046868D01*
X0184851Y0046893D01*
X0184934Y0046921D01*
X0185015Y0046952D01*
X0185095Y0046987D01*
X0185173Y0047026D01*
X0185250Y0047068D01*
X0185325Y0047113D01*
X0185397Y0047162D01*
X0185468Y0047213D01*
X0185536Y0047268D01*
X0185601Y0047325D01*
X0185664Y0047386D01*
X0185725Y0047449D01*
X0185782Y0047514D01*
X0185837Y0047582D01*
X0185888Y0047653D01*
X0185937Y0047725D01*
X0185982Y0047800D01*
X0186024Y0047877D01*
X0186063Y0047955D01*
X0186098Y0048035D01*
X0186129Y0048116D01*
X0186157Y0048199D01*
X0186182Y0048282D01*
X0186203Y0048367D01*
X0186220Y0048453D01*
X0186233Y0048539D01*
X0186242Y0048626D01*
X0186248Y0048713D01*
X0186250Y0048800D01*
X0186250Y0084800D01*
X0186248Y0084887D01*
X0186242Y0084974D01*
X0186233Y0085061D01*
X0186220Y0085147D01*
X0186203Y0085233D01*
X0186182Y0085318D01*
X0186157Y0085401D01*
X0186129Y0085484D01*
X0186098Y0085565D01*
X0186063Y0085645D01*
X0186024Y0085723D01*
X0185982Y0085800D01*
X0185937Y0085875D01*
X0185888Y0085947D01*
X0185837Y0086018D01*
X0185782Y0086086D01*
X0185725Y0086151D01*
X0185664Y0086214D01*
X0185601Y0086275D01*
X0185536Y0086332D01*
X0185468Y0086387D01*
X0185397Y0086438D01*
X0185325Y0086487D01*
X0185250Y0086532D01*
X0185173Y0086574D01*
X0185095Y0086613D01*
X0185015Y0086648D01*
X0184934Y0086679D01*
X0184851Y0086707D01*
X0184768Y0086732D01*
X0184683Y0086753D01*
X0184597Y0086770D01*
X0184511Y0086783D01*
X0184424Y0086792D01*
X0184337Y0086798D01*
X0184250Y0086800D01*
X0152250Y0086800D01*
X0146250Y0080800D01*
X0153850Y0073100D02*
X0153050Y0071400D01*
X0156650Y0069800D01*
X0157350Y0071400D01*
X0157050Y0072200D01*
X0154550Y0073400D01*
X0153850Y0073100D01*
X0155550Y0075800D02*
X0156950Y0074400D01*
X0157850Y0075300D01*
X0156950Y0074400D02*
X0158350Y0073000D01*
X0159950Y0074500D01*
X0160150Y0072900D02*
X0161150Y0071900D01*
X0159650Y0069600D02*
X0158350Y0070100D01*
X0159050Y0066800D02*
X0157550Y0066800D01*
X0156450Y0064200D02*
X0155750Y0064300D01*
X0155050Y0064000D01*
X0154650Y0063200D01*
X0155450Y0061400D01*
X0153850Y0060600D01*
X0153050Y0062400D01*
X0153250Y0063000D01*
X0154050Y0063400D01*
X0154650Y0063200D01*
X0155450Y0061400D02*
X0157250Y0062200D01*
X0156450Y0064200D01*
X0158150Y0063500D02*
X0159750Y0064200D01*
X0161150Y0061700D02*
X0160150Y0060700D01*
X0158250Y0060800D02*
X0157050Y0059600D01*
X0159050Y0057600D01*
X0158250Y0056800D01*
X0156450Y0057000D01*
X0156250Y0058800D01*
X0157050Y0059600D01*
X0159050Y0057600D02*
X0160250Y0058800D01*
X0161450Y0057400D02*
X0163250Y0057200D01*
X0161450Y0057400D02*
X0160250Y0056600D01*
X0159650Y0055600D01*
X0159850Y0054400D01*
X0161050Y0053800D01*
X0162050Y0054000D01*
X0162450Y0054800D01*
X0162050Y0055800D01*
X0160250Y0056600D01*
X0162650Y0059000D02*
X0163250Y0060300D01*
X0165550Y0056700D02*
X0164950Y0056100D01*
X0164950Y0055500D01*
X0165550Y0054900D01*
X0166750Y0054900D01*
X0167350Y0055500D01*
X0167350Y0056100D01*
X0166750Y0056700D01*
X0165550Y0056700D01*
X0166250Y0058200D02*
X0166250Y0059700D01*
X0168850Y0060100D02*
X0169450Y0058600D01*
X0170650Y0057800D02*
X0170850Y0057200D01*
X0170050Y0054200D01*
X0170250Y0053600D01*
X0172450Y0054600D01*
X0175050Y0056000D02*
X0175850Y0057400D01*
X0175450Y0059200D01*
X0174650Y0060000D01*
X0173650Y0060000D01*
X0172650Y0059000D01*
X0172650Y0058000D01*
X0173050Y0057600D01*
X0174050Y0057600D01*
X0175450Y0059200D01*
X0176550Y0061000D02*
X0175550Y0061500D01*
X0175250Y0062300D01*
X0175750Y0063300D01*
X0176550Y0063600D01*
X0177650Y0063100D02*
X0177750Y0062200D01*
X0177350Y0061300D01*
X0176550Y0061000D01*
X0178250Y0060100D02*
X0179250Y0062300D01*
X0177650Y0063100D01*
X0178150Y0065600D02*
X0178150Y0068000D01*
X0180050Y0066200D01*
X0176350Y0066200D01*
X0174850Y0066800D02*
X0173350Y0066800D01*
X0172750Y0069600D02*
X0174250Y0070200D01*
X0175050Y0071500D02*
X0175450Y0072200D01*
X0175050Y0071500D02*
X0175750Y0069800D01*
X0176650Y0069600D01*
X0177450Y0070000D01*
X0177650Y0070500D01*
X0178250Y0070400D01*
X0179050Y0070800D01*
X0179350Y0071300D01*
X0178650Y0073000D01*
X0177650Y0073200D01*
X0177350Y0071300D02*
X0177650Y0070500D01*
X0174250Y0072900D02*
X0172650Y0074600D01*
X0176050Y0074400D01*
X0176650Y0074900D01*
X0176650Y0075800D01*
X0175650Y0076900D01*
X0174550Y0076900D01*
X0171950Y0079200D02*
X0170750Y0079000D01*
X0171950Y0079200D02*
X0170450Y0075900D01*
X0170950Y0075600D02*
X0169850Y0076100D01*
X0169850Y0074600D02*
X0169250Y0073300D01*
X0171350Y0071800D02*
X0172350Y0072800D01*
X0166250Y0074000D02*
X0166250Y0075500D01*
X0166850Y0076900D02*
X0167450Y0077600D01*
X0167450Y0080000D01*
X0166850Y0080600D01*
X0165650Y0080600D01*
X0165050Y0080000D01*
X0165050Y0077600D01*
X0165650Y0076900D01*
X0166850Y0076900D01*
X0162850Y0074800D02*
X0163450Y0073400D01*
X0161550Y0075600D02*
X0160750Y0077300D01*
X0162150Y0077900D01*
X0160750Y0077300D02*
X0159950Y0079000D01*
X0161850Y0079900D01*
X0157250Y0077500D02*
X0155550Y0075800D01*
X0159150Y0066800D02*
X0159152Y0066974D01*
X0159159Y0067148D01*
X0159169Y0067322D01*
X0159184Y0067496D01*
X0159203Y0067669D01*
X0159227Y0067842D01*
X0159255Y0068014D01*
X0159286Y0068185D01*
X0159323Y0068356D01*
X0159363Y0068525D01*
X0159407Y0068694D01*
X0159456Y0068861D01*
X0159508Y0069027D01*
X0159565Y0069192D01*
X0159626Y0069355D01*
X0159690Y0069517D01*
X0159759Y0069677D01*
X0159832Y0069836D01*
X0159908Y0069992D01*
X0159988Y0070147D01*
X0160072Y0070300D01*
X0160160Y0070450D01*
X0160252Y0070598D01*
X0160347Y0070745D01*
X0160445Y0070888D01*
X0160547Y0071029D01*
X0160653Y0071168D01*
X0160762Y0071304D01*
X0160874Y0071438D01*
X0160989Y0071568D01*
X0161108Y0071696D01*
X0161230Y0071820D01*
X0161354Y0071942D01*
X0161482Y0072061D01*
X0161612Y0072176D01*
X0161746Y0072288D01*
X0161882Y0072397D01*
X0162021Y0072503D01*
X0162162Y0072605D01*
X0162305Y0072703D01*
X0162452Y0072798D01*
X0162600Y0072890D01*
X0162750Y0072978D01*
X0162903Y0073062D01*
X0163058Y0073142D01*
X0163214Y0073218D01*
X0163373Y0073291D01*
X0163533Y0073360D01*
X0163695Y0073424D01*
X0163858Y0073485D01*
X0164023Y0073542D01*
X0164189Y0073594D01*
X0164356Y0073643D01*
X0164525Y0073687D01*
X0164694Y0073727D01*
X0164865Y0073764D01*
X0165036Y0073795D01*
X0165208Y0073823D01*
X0165381Y0073847D01*
X0165554Y0073866D01*
X0165728Y0073881D01*
X0165902Y0073891D01*
X0166076Y0073898D01*
X0166250Y0073900D01*
X0166424Y0073898D01*
X0166598Y0073891D01*
X0166772Y0073881D01*
X0166946Y0073866D01*
X0167119Y0073847D01*
X0167292Y0073823D01*
X0167464Y0073795D01*
X0167635Y0073764D01*
X0167806Y0073727D01*
X0167975Y0073687D01*
X0168144Y0073643D01*
X0168311Y0073594D01*
X0168477Y0073542D01*
X0168642Y0073485D01*
X0168805Y0073424D01*
X0168967Y0073360D01*
X0169127Y0073291D01*
X0169286Y0073218D01*
X0169442Y0073142D01*
X0169597Y0073062D01*
X0169750Y0072978D01*
X0169900Y0072890D01*
X0170048Y0072798D01*
X0170195Y0072703D01*
X0170338Y0072605D01*
X0170479Y0072503D01*
X0170618Y0072397D01*
X0170754Y0072288D01*
X0170888Y0072176D01*
X0171018Y0072061D01*
X0171146Y0071942D01*
X0171270Y0071820D01*
X0171392Y0071696D01*
X0171511Y0071568D01*
X0171626Y0071438D01*
X0171738Y0071304D01*
X0171847Y0071168D01*
X0171953Y0071029D01*
X0172055Y0070888D01*
X0172153Y0070745D01*
X0172248Y0070598D01*
X0172340Y0070450D01*
X0172428Y0070300D01*
X0172512Y0070147D01*
X0172592Y0069992D01*
X0172668Y0069836D01*
X0172741Y0069677D01*
X0172810Y0069517D01*
X0172874Y0069355D01*
X0172935Y0069192D01*
X0172992Y0069027D01*
X0173044Y0068861D01*
X0173093Y0068694D01*
X0173137Y0068525D01*
X0173177Y0068356D01*
X0173214Y0068185D01*
X0173245Y0068014D01*
X0173273Y0067842D01*
X0173297Y0067669D01*
X0173316Y0067496D01*
X0173331Y0067322D01*
X0173341Y0067148D01*
X0173348Y0066974D01*
X0173350Y0066800D01*
X0173348Y0066626D01*
X0173341Y0066452D01*
X0173331Y0066278D01*
X0173316Y0066104D01*
X0173297Y0065931D01*
X0173273Y0065758D01*
X0173245Y0065586D01*
X0173214Y0065415D01*
X0173177Y0065244D01*
X0173137Y0065075D01*
X0173093Y0064906D01*
X0173044Y0064739D01*
X0172992Y0064573D01*
X0172935Y0064408D01*
X0172874Y0064245D01*
X0172810Y0064083D01*
X0172741Y0063923D01*
X0172668Y0063764D01*
X0172592Y0063608D01*
X0172512Y0063453D01*
X0172428Y0063300D01*
X0172340Y0063150D01*
X0172248Y0063002D01*
X0172153Y0062855D01*
X0172055Y0062712D01*
X0171953Y0062571D01*
X0171847Y0062432D01*
X0171738Y0062296D01*
X0171626Y0062162D01*
X0171511Y0062032D01*
X0171392Y0061904D01*
X0171270Y0061780D01*
X0171146Y0061658D01*
X0171018Y0061539D01*
X0170888Y0061424D01*
X0170754Y0061312D01*
X0170618Y0061203D01*
X0170479Y0061097D01*
X0170338Y0060995D01*
X0170195Y0060897D01*
X0170048Y0060802D01*
X0169900Y0060710D01*
X0169750Y0060622D01*
X0169597Y0060538D01*
X0169442Y0060458D01*
X0169286Y0060382D01*
X0169127Y0060309D01*
X0168967Y0060240D01*
X0168805Y0060176D01*
X0168642Y0060115D01*
X0168477Y0060058D01*
X0168311Y0060006D01*
X0168144Y0059957D01*
X0167975Y0059913D01*
X0167806Y0059873D01*
X0167635Y0059836D01*
X0167464Y0059805D01*
X0167292Y0059777D01*
X0167119Y0059753D01*
X0166946Y0059734D01*
X0166772Y0059719D01*
X0166598Y0059709D01*
X0166424Y0059702D01*
X0166250Y0059700D01*
X0166076Y0059702D01*
X0165902Y0059709D01*
X0165728Y0059719D01*
X0165554Y0059734D01*
X0165381Y0059753D01*
X0165208Y0059777D01*
X0165036Y0059805D01*
X0164865Y0059836D01*
X0164694Y0059873D01*
X0164525Y0059913D01*
X0164356Y0059957D01*
X0164189Y0060006D01*
X0164023Y0060058D01*
X0163858Y0060115D01*
X0163695Y0060176D01*
X0163533Y0060240D01*
X0163373Y0060309D01*
X0163214Y0060382D01*
X0163058Y0060458D01*
X0162903Y0060538D01*
X0162750Y0060622D01*
X0162600Y0060710D01*
X0162452Y0060802D01*
X0162305Y0060897D01*
X0162162Y0060995D01*
X0162021Y0061097D01*
X0161882Y0061203D01*
X0161746Y0061312D01*
X0161612Y0061424D01*
X0161482Y0061539D01*
X0161354Y0061658D01*
X0161230Y0061780D01*
X0161108Y0061904D01*
X0160989Y0062032D01*
X0160874Y0062162D01*
X0160762Y0062296D01*
X0160653Y0062432D01*
X0160547Y0062571D01*
X0160445Y0062712D01*
X0160347Y0062855D01*
X0160252Y0063002D01*
X0160160Y0063150D01*
X0160072Y0063300D01*
X0159988Y0063453D01*
X0159908Y0063608D01*
X0159832Y0063764D01*
X0159759Y0063923D01*
X0159690Y0064083D01*
X0159626Y0064245D01*
X0159565Y0064408D01*
X0159508Y0064573D01*
X0159456Y0064739D01*
X0159407Y0064906D01*
X0159363Y0065075D01*
X0159323Y0065244D01*
X0159286Y0065415D01*
X0159255Y0065586D01*
X0159227Y0065758D01*
X0159203Y0065931D01*
X0159184Y0066104D01*
X0159169Y0066278D01*
X0159159Y0066452D01*
X0159152Y0066626D01*
X0159150Y0066800D01*
X0171250Y0061800D02*
X0172250Y0060800D01*
X0172750Y0063900D02*
X0174250Y0063300D01*
X0166750Y0054900D02*
X0167350Y0054300D01*
X0167350Y0053700D01*
X0166750Y0053000D01*
X0165550Y0053000D01*
X0164950Y0053700D01*
X0164950Y0054300D01*
X0165550Y0054900D01*
X0142250Y0030300D02*
X0141250Y0030300D01*
X0140750Y0029800D01*
X0131750Y0029800D01*
X0131250Y0030300D01*
X0130250Y0030300D01*
X0130190Y0030298D01*
X0130129Y0030293D01*
X0130070Y0030284D01*
X0130011Y0030271D01*
X0129952Y0030255D01*
X0129895Y0030235D01*
X0129840Y0030212D01*
X0129785Y0030185D01*
X0129733Y0030156D01*
X0129682Y0030123D01*
X0129633Y0030087D01*
X0129587Y0030049D01*
X0129543Y0030007D01*
X0129501Y0029963D01*
X0129463Y0029917D01*
X0129427Y0029868D01*
X0129394Y0029817D01*
X0129365Y0029765D01*
X0129338Y0029710D01*
X0129315Y0029655D01*
X0129295Y0029598D01*
X0129279Y0029539D01*
X0129266Y0029480D01*
X0129257Y0029421D01*
X0129252Y0029360D01*
X0129250Y0029300D01*
X0129250Y0024300D02*
X0129252Y0024240D01*
X0129257Y0024179D01*
X0129266Y0024120D01*
X0129279Y0024061D01*
X0129295Y0024002D01*
X0129315Y0023945D01*
X0129338Y0023890D01*
X0129365Y0023835D01*
X0129394Y0023783D01*
X0129427Y0023732D01*
X0129463Y0023683D01*
X0129501Y0023637D01*
X0129543Y0023593D01*
X0129587Y0023551D01*
X0129633Y0023513D01*
X0129682Y0023477D01*
X0129733Y0023444D01*
X0129785Y0023415D01*
X0129840Y0023388D01*
X0129895Y0023365D01*
X0129952Y0023345D01*
X0130011Y0023329D01*
X0130070Y0023316D01*
X0130129Y0023307D01*
X0130190Y0023302D01*
X0130250Y0023300D01*
X0131250Y0023300D01*
X0131750Y0023800D01*
X0140750Y0023800D01*
X0141250Y0023300D01*
X0142250Y0023300D01*
X0142310Y0023302D01*
X0142371Y0023307D01*
X0142430Y0023316D01*
X0142489Y0023329D01*
X0142548Y0023345D01*
X0142605Y0023365D01*
X0142660Y0023388D01*
X0142715Y0023415D01*
X0142767Y0023444D01*
X0142818Y0023477D01*
X0142867Y0023513D01*
X0142913Y0023551D01*
X0142957Y0023593D01*
X0142999Y0023637D01*
X0143037Y0023683D01*
X0143073Y0023732D01*
X0143106Y0023783D01*
X0143135Y0023835D01*
X0143162Y0023890D01*
X0143185Y0023945D01*
X0143205Y0024002D01*
X0143221Y0024061D01*
X0143234Y0024120D01*
X0143243Y0024179D01*
X0143248Y0024240D01*
X0143250Y0024300D01*
X0143250Y0029300D02*
X0143248Y0029360D01*
X0143243Y0029421D01*
X0143234Y0029480D01*
X0143221Y0029539D01*
X0143205Y0029598D01*
X0143185Y0029655D01*
X0143162Y0029710D01*
X0143135Y0029765D01*
X0143106Y0029817D01*
X0143073Y0029868D01*
X0143037Y0029917D01*
X0142999Y0029963D01*
X0142957Y0030007D01*
X0142913Y0030049D01*
X0142867Y0030087D01*
X0142818Y0030123D01*
X0142767Y0030156D01*
X0142715Y0030185D01*
X0142660Y0030212D01*
X0142605Y0030235D01*
X0142548Y0030255D01*
X0142489Y0030271D01*
X0142430Y0030284D01*
X0142371Y0030293D01*
X0142310Y0030298D01*
X0142250Y0030300D01*
X0061250Y0058800D02*
X0051250Y0058800D01*
X0051250Y0074800D01*
X0061250Y0074800D01*
X0061250Y0058800D01*
X0056250Y0064300D02*
X0056250Y0066800D01*
X0058750Y0066800D01*
X0056250Y0066800D02*
X0053750Y0066800D01*
X0056250Y0066800D02*
X0053750Y0070800D01*
X0058750Y0070800D01*
X0056250Y0066800D01*
X0056250Y0072800D01*
X0042250Y0060300D02*
X0042250Y0043300D01*
X0042248Y0043240D01*
X0042243Y0043179D01*
X0042234Y0043120D01*
X0042221Y0043061D01*
X0042205Y0043002D01*
X0042185Y0042945D01*
X0042162Y0042890D01*
X0042135Y0042835D01*
X0042106Y0042783D01*
X0042073Y0042732D01*
X0042037Y0042683D01*
X0041999Y0042637D01*
X0041957Y0042593D01*
X0041913Y0042551D01*
X0041867Y0042513D01*
X0041818Y0042477D01*
X0041767Y0042444D01*
X0041715Y0042415D01*
X0041660Y0042388D01*
X0041605Y0042365D01*
X0041548Y0042345D01*
X0041489Y0042329D01*
X0041430Y0042316D01*
X0041371Y0042307D01*
X0041310Y0042302D01*
X0041250Y0042300D01*
X0031250Y0042300D01*
X0031190Y0042302D01*
X0031129Y0042307D01*
X0031070Y0042316D01*
X0031011Y0042329D01*
X0030952Y0042345D01*
X0030895Y0042365D01*
X0030840Y0042388D01*
X0030785Y0042415D01*
X0030733Y0042444D01*
X0030682Y0042477D01*
X0030633Y0042513D01*
X0030587Y0042551D01*
X0030543Y0042593D01*
X0030501Y0042637D01*
X0030463Y0042683D01*
X0030427Y0042732D01*
X0030394Y0042783D01*
X0030365Y0042835D01*
X0030338Y0042890D01*
X0030315Y0042945D01*
X0030295Y0043002D01*
X0030279Y0043061D01*
X0030266Y0043120D01*
X0030257Y0043179D01*
X0030252Y0043240D01*
X0030250Y0043300D01*
X0030250Y0060300D01*
X0030252Y0060360D01*
X0030257Y0060421D01*
X0030266Y0060480D01*
X0030279Y0060539D01*
X0030295Y0060598D01*
X0030315Y0060655D01*
X0030338Y0060710D01*
X0030365Y0060765D01*
X0030394Y0060817D01*
X0030427Y0060868D01*
X0030463Y0060917D01*
X0030501Y0060963D01*
X0030543Y0061007D01*
X0030587Y0061049D01*
X0030633Y0061087D01*
X0030682Y0061123D01*
X0030733Y0061156D01*
X0030785Y0061185D01*
X0030840Y0061212D01*
X0030895Y0061235D01*
X0030952Y0061255D01*
X0031011Y0061271D01*
X0031070Y0061284D01*
X0031129Y0061293D01*
X0031190Y0061298D01*
X0031250Y0061300D01*
X0041250Y0061300D01*
X0041310Y0061298D01*
X0041371Y0061293D01*
X0041430Y0061284D01*
X0041489Y0061271D01*
X0041548Y0061255D01*
X0041605Y0061235D01*
X0041660Y0061212D01*
X0041715Y0061185D01*
X0041767Y0061156D01*
X0041818Y0061123D01*
X0041867Y0061087D01*
X0041913Y0061049D01*
X0041957Y0061007D01*
X0041999Y0060963D01*
X0042037Y0060917D01*
X0042073Y0060868D01*
X0042106Y0060817D01*
X0042135Y0060765D01*
X0042162Y0060710D01*
X0042185Y0060655D01*
X0042205Y0060598D01*
X0042221Y0060539D01*
X0042234Y0060480D01*
X0042243Y0060421D01*
X0042248Y0060360D01*
X0042250Y0060300D01*
X0036250Y0053300D02*
X0036250Y0052800D01*
X0036250Y0050800D02*
X0036250Y0050300D01*
X0019750Y0070800D02*
X0019750Y0071800D01*
X0019250Y0072300D01*
X0019250Y0081300D01*
X0019750Y0081800D01*
X0019750Y0082800D01*
X0019748Y0082860D01*
X0019743Y0082921D01*
X0019734Y0082980D01*
X0019721Y0083039D01*
X0019705Y0083098D01*
X0019685Y0083155D01*
X0019662Y0083210D01*
X0019635Y0083265D01*
X0019606Y0083317D01*
X0019573Y0083368D01*
X0019537Y0083417D01*
X0019499Y0083463D01*
X0019457Y0083507D01*
X0019413Y0083549D01*
X0019367Y0083587D01*
X0019318Y0083623D01*
X0019267Y0083656D01*
X0019215Y0083685D01*
X0019160Y0083712D01*
X0019105Y0083735D01*
X0019048Y0083755D01*
X0018989Y0083771D01*
X0018930Y0083784D01*
X0018871Y0083793D01*
X0018810Y0083798D01*
X0018750Y0083800D01*
X0013750Y0083800D02*
X0013690Y0083798D01*
X0013629Y0083793D01*
X0013570Y0083784D01*
X0013511Y0083771D01*
X0013452Y0083755D01*
X0013395Y0083735D01*
X0013340Y0083712D01*
X0013285Y0083685D01*
X0013233Y0083656D01*
X0013182Y0083623D01*
X0013133Y0083587D01*
X0013087Y0083549D01*
X0013043Y0083507D01*
X0013001Y0083463D01*
X0012963Y0083417D01*
X0012927Y0083368D01*
X0012894Y0083317D01*
X0012865Y0083265D01*
X0012838Y0083210D01*
X0012815Y0083155D01*
X0012795Y0083098D01*
X0012779Y0083039D01*
X0012766Y0082980D01*
X0012757Y0082921D01*
X0012752Y0082860D01*
X0012750Y0082800D01*
X0012750Y0081800D01*
X0013250Y0081300D01*
X0013250Y0072300D01*
X0012750Y0071800D01*
X0012750Y0070800D01*
X0012752Y0070740D01*
X0012757Y0070679D01*
X0012766Y0070620D01*
X0012779Y0070561D01*
X0012795Y0070502D01*
X0012815Y0070445D01*
X0012838Y0070390D01*
X0012865Y0070335D01*
X0012894Y0070283D01*
X0012927Y0070232D01*
X0012963Y0070183D01*
X0013001Y0070137D01*
X0013043Y0070093D01*
X0013087Y0070051D01*
X0013133Y0070013D01*
X0013182Y0069977D01*
X0013233Y0069944D01*
X0013285Y0069915D01*
X0013340Y0069888D01*
X0013395Y0069865D01*
X0013452Y0069845D01*
X0013511Y0069829D01*
X0013570Y0069816D01*
X0013629Y0069807D01*
X0013690Y0069802D01*
X0013750Y0069800D01*
X0018750Y0069800D02*
X0018810Y0069802D01*
X0018871Y0069807D01*
X0018930Y0069816D01*
X0018989Y0069829D01*
X0019048Y0069845D01*
X0019105Y0069865D01*
X0019160Y0069888D01*
X0019215Y0069915D01*
X0019267Y0069944D01*
X0019318Y0069977D01*
X0019367Y0070013D01*
X0019413Y0070051D01*
X0019457Y0070093D01*
X0019499Y0070137D01*
X0019537Y0070183D01*
X0019573Y0070232D01*
X0019606Y0070283D01*
X0019635Y0070335D01*
X0019662Y0070390D01*
X0019685Y0070445D01*
X0019705Y0070502D01*
X0019721Y0070561D01*
X0019734Y0070620D01*
X0019743Y0070679D01*
X0019748Y0070740D01*
X0019750Y0070800D01*
D12*
X0056250Y0061300D03*
D13*
X0056250Y0055050D03*
X0056250Y0078550D03*
D14*
X0049500Y0078700D02*
X0049500Y0081200D01*
X0049500Y0079950D02*
X0045000Y0079950D01*
X0046000Y0078700D01*
X0046250Y0076550D02*
X0048250Y0076550D01*
X0048318Y0076548D01*
X0048385Y0076543D01*
X0048452Y0076534D01*
X0048519Y0076521D01*
X0048584Y0076504D01*
X0048649Y0076485D01*
X0048713Y0076461D01*
X0048775Y0076434D01*
X0048836Y0076404D01*
X0048894Y0076371D01*
X0048951Y0076335D01*
X0049006Y0076295D01*
X0049059Y0076253D01*
X0049110Y0076207D01*
X0049157Y0076160D01*
X0049203Y0076109D01*
X0049245Y0076056D01*
X0049285Y0076001D01*
X0049321Y0075944D01*
X0049354Y0075886D01*
X0049384Y0075825D01*
X0049411Y0075763D01*
X0049435Y0075699D01*
X0049454Y0075634D01*
X0049471Y0075569D01*
X0049484Y0075502D01*
X0049493Y0075435D01*
X0049498Y0075368D01*
X0049500Y0075300D01*
X0049500Y0074050D01*
X0045000Y0074050D01*
X0045000Y0075300D01*
X0045002Y0075368D01*
X0045007Y0075435D01*
X0045016Y0075502D01*
X0045029Y0075569D01*
X0045046Y0075634D01*
X0045065Y0075699D01*
X0045089Y0075763D01*
X0045116Y0075825D01*
X0045146Y0075886D01*
X0045179Y0075944D01*
X0045215Y0076001D01*
X0045255Y0076056D01*
X0045297Y0076109D01*
X0045343Y0076160D01*
X0045390Y0076207D01*
X0045441Y0076253D01*
X0045494Y0076295D01*
X0045549Y0076335D01*
X0045606Y0076371D01*
X0045664Y0076404D01*
X0045725Y0076434D01*
X0045787Y0076461D01*
X0045851Y0076485D01*
X0045916Y0076504D01*
X0045981Y0076521D01*
X0046048Y0076534D01*
X0046115Y0076543D01*
X0046182Y0076548D01*
X0046250Y0076550D01*
X0042750Y0068552D02*
X0042750Y0085048D01*
X0036750Y0082328D02*
X0036750Y0081272D01*
X0040628Y0086346D02*
X0040853Y0086239D01*
X0041076Y0086127D01*
X0041296Y0086010D01*
X0041513Y0085888D01*
X0041728Y0085760D01*
X0041939Y0085627D01*
X0042147Y0085490D01*
X0042351Y0085347D01*
X0042553Y0085200D01*
X0042750Y0085048D01*
X0031778Y0086300D02*
X0031548Y0086188D01*
X0031321Y0086071D01*
X0031097Y0085949D01*
X0030876Y0085821D01*
X0030659Y0085687D01*
X0030444Y0085549D01*
X0030233Y0085405D01*
X0030026Y0085256D01*
X0029822Y0085102D01*
X0029622Y0084944D01*
X0029426Y0084780D01*
X0029234Y0084612D01*
X0029046Y0084439D01*
X0028862Y0084261D01*
X0028683Y0084080D01*
X0028508Y0083893D01*
X0028338Y0083703D01*
X0028173Y0083509D01*
X0028012Y0083310D01*
X0027856Y0083108D01*
X0027705Y0082902D01*
X0027559Y0082692D01*
X0027419Y0082479D01*
X0027283Y0082263D01*
X0027153Y0082043D01*
X0027028Y0081820D01*
X0026909Y0081595D01*
X0026795Y0081366D01*
X0026687Y0081135D01*
X0026584Y0080901D01*
X0026487Y0080665D01*
X0026396Y0080426D01*
X0026311Y0080186D01*
X0026231Y0079943D01*
X0026158Y0079698D01*
X0026090Y0079452D01*
X0026029Y0079204D01*
X0025974Y0078955D01*
X0025924Y0078705D01*
X0025881Y0078453D01*
X0025844Y0078200D01*
X0025813Y0077947D01*
X0025788Y0077693D01*
X0025769Y0077438D01*
X0025757Y0077183D01*
X0025751Y0076928D01*
X0025751Y0076672D01*
X0025757Y0076417D01*
X0025769Y0076162D01*
X0025788Y0075907D01*
X0025813Y0075653D01*
X0025844Y0075400D01*
X0025881Y0075147D01*
X0025924Y0074895D01*
X0025974Y0074645D01*
X0026029Y0074396D01*
X0026090Y0074148D01*
X0026158Y0073902D01*
X0026231Y0073657D01*
X0026311Y0073414D01*
X0026396Y0073174D01*
X0026487Y0072935D01*
X0026584Y0072699D01*
X0026687Y0072465D01*
X0026795Y0072234D01*
X0026909Y0072005D01*
X0027028Y0071780D01*
X0027153Y0071557D01*
X0027283Y0071337D01*
X0027419Y0071121D01*
X0027559Y0070908D01*
X0027705Y0070698D01*
X0027856Y0070492D01*
X0028012Y0070290D01*
X0028173Y0070091D01*
X0028338Y0069897D01*
X0028508Y0069707D01*
X0028683Y0069520D01*
X0028862Y0069339D01*
X0029046Y0069161D01*
X0029234Y0068988D01*
X0029426Y0068820D01*
X0029622Y0068656D01*
X0029822Y0068498D01*
X0030026Y0068344D01*
X0030233Y0068195D01*
X0030444Y0068051D01*
X0030659Y0067913D01*
X0030876Y0067779D01*
X0031097Y0067651D01*
X0031321Y0067529D01*
X0031548Y0067412D01*
X0031778Y0067300D01*
X0029000Y0067500D02*
X0024500Y0067500D01*
X0025500Y0066250D01*
X0024500Y0064550D02*
X0024500Y0062050D01*
X0024500Y0063300D02*
X0029000Y0063300D01*
X0029000Y0066250D02*
X0029000Y0068750D01*
X0036750Y0071272D02*
X0036750Y0072328D01*
X0040722Y0067298D02*
X0040937Y0067402D01*
X0041150Y0067511D01*
X0041360Y0067625D01*
X0041567Y0067744D01*
X0041772Y0067867D01*
X0041974Y0067995D01*
X0042173Y0068128D01*
X0042368Y0068265D01*
X0042561Y0068406D01*
X0042750Y0068552D01*
X0029000Y0051815D02*
X0029000Y0049315D01*
X0029000Y0050565D02*
X0024500Y0050565D01*
X0025500Y0049315D01*
X0024500Y0047550D02*
X0024500Y0046550D01*
X0024502Y0046490D01*
X0024507Y0046429D01*
X0024516Y0046370D01*
X0024529Y0046311D01*
X0024545Y0046252D01*
X0024565Y0046195D01*
X0024588Y0046140D01*
X0024615Y0046085D01*
X0024644Y0046033D01*
X0024677Y0045982D01*
X0024713Y0045933D01*
X0024751Y0045887D01*
X0024793Y0045843D01*
X0024837Y0045801D01*
X0024883Y0045763D01*
X0024932Y0045727D01*
X0024983Y0045694D01*
X0025035Y0045665D01*
X0025090Y0045638D01*
X0025145Y0045615D01*
X0025202Y0045595D01*
X0025261Y0045579D01*
X0025320Y0045566D01*
X0025379Y0045557D01*
X0025440Y0045552D01*
X0025500Y0045550D01*
X0028000Y0045550D01*
X0028060Y0045552D01*
X0028121Y0045557D01*
X0028180Y0045566D01*
X0028239Y0045579D01*
X0028298Y0045595D01*
X0028355Y0045615D01*
X0028410Y0045638D01*
X0028465Y0045665D01*
X0028517Y0045694D01*
X0028568Y0045727D01*
X0028617Y0045763D01*
X0028663Y0045801D01*
X0028707Y0045843D01*
X0028749Y0045887D01*
X0028787Y0045933D01*
X0028823Y0045982D01*
X0028856Y0046033D01*
X0028885Y0046085D01*
X0028912Y0046140D01*
X0028935Y0046195D01*
X0028955Y0046252D01*
X0028971Y0046311D01*
X0028984Y0046370D01*
X0028993Y0046429D01*
X0028998Y0046490D01*
X0029000Y0046550D01*
X0029000Y0047550D01*
X0026189Y0044450D02*
X0026189Y0042550D01*
X0025134Y0044450D01*
X0025134Y0042550D01*
X0024072Y0042550D02*
X0023650Y0042550D01*
X0023861Y0042550D02*
X0023861Y0044450D01*
X0023650Y0044450D02*
X0024072Y0044450D01*
X0022767Y0044450D02*
X0022133Y0042550D01*
X0021500Y0044450D01*
X0048600Y0029691D02*
X0048600Y0028636D01*
X0048600Y0029163D02*
X0050500Y0029163D01*
X0049972Y0027603D02*
X0048600Y0027603D01*
X0048600Y0026548D02*
X0049972Y0026548D01*
X0049972Y0026547D02*
X0050017Y0026549D01*
X0050061Y0026555D01*
X0050105Y0026564D01*
X0050148Y0026577D01*
X0050189Y0026594D01*
X0050230Y0026614D01*
X0050268Y0026638D01*
X0050304Y0026664D01*
X0050337Y0026694D01*
X0050368Y0026726D01*
X0050397Y0026761D01*
X0050422Y0026798D01*
X0050443Y0026837D01*
X0050462Y0026878D01*
X0050477Y0026920D01*
X0050488Y0026964D01*
X0050496Y0027008D01*
X0050500Y0027053D01*
X0050500Y0027097D01*
X0050496Y0027142D01*
X0050488Y0027186D01*
X0050477Y0027230D01*
X0050462Y0027272D01*
X0050443Y0027313D01*
X0050422Y0027352D01*
X0050397Y0027389D01*
X0050368Y0027424D01*
X0050337Y0027456D01*
X0050304Y0027486D01*
X0050268Y0027512D01*
X0050230Y0027536D01*
X0050189Y0027556D01*
X0050148Y0027573D01*
X0050105Y0027586D01*
X0050061Y0027595D01*
X0050017Y0027601D01*
X0049972Y0027603D01*
X0049972Y0025371D02*
X0049128Y0025371D01*
X0049083Y0025369D01*
X0049039Y0025363D01*
X0048995Y0025354D01*
X0048952Y0025341D01*
X0048911Y0025324D01*
X0048870Y0025304D01*
X0048832Y0025280D01*
X0048796Y0025254D01*
X0048763Y0025224D01*
X0048732Y0025192D01*
X0048703Y0025157D01*
X0048678Y0025120D01*
X0048657Y0025081D01*
X0048638Y0025040D01*
X0048623Y0024998D01*
X0048612Y0024954D01*
X0048604Y0024910D01*
X0048600Y0024865D01*
X0048600Y0024821D01*
X0048604Y0024776D01*
X0048612Y0024732D01*
X0048623Y0024688D01*
X0048638Y0024646D01*
X0048657Y0024605D01*
X0048678Y0024566D01*
X0048703Y0024529D01*
X0048732Y0024494D01*
X0048763Y0024462D01*
X0048796Y0024432D01*
X0048832Y0024406D01*
X0048870Y0024382D01*
X0048911Y0024362D01*
X0048952Y0024345D01*
X0048995Y0024332D01*
X0049039Y0024323D01*
X0049083Y0024317D01*
X0049128Y0024315D01*
X0049128Y0024316D02*
X0049972Y0024316D01*
X0049972Y0024315D02*
X0050017Y0024317D01*
X0050061Y0024323D01*
X0050105Y0024332D01*
X0050148Y0024345D01*
X0050189Y0024362D01*
X0050230Y0024382D01*
X0050268Y0024406D01*
X0050304Y0024432D01*
X0050337Y0024462D01*
X0050368Y0024494D01*
X0050397Y0024529D01*
X0050422Y0024566D01*
X0050443Y0024605D01*
X0050462Y0024646D01*
X0050477Y0024688D01*
X0050488Y0024732D01*
X0050496Y0024776D01*
X0050500Y0024821D01*
X0050500Y0024865D01*
X0050496Y0024910D01*
X0050488Y0024954D01*
X0050477Y0024998D01*
X0050462Y0025040D01*
X0050443Y0025081D01*
X0050422Y0025120D01*
X0050397Y0025157D01*
X0050368Y0025192D01*
X0050337Y0025224D01*
X0050304Y0025254D01*
X0050268Y0025280D01*
X0050230Y0025304D01*
X0050189Y0025324D01*
X0050148Y0025341D01*
X0050105Y0025354D01*
X0050061Y0025363D01*
X0050017Y0025369D01*
X0049972Y0025371D01*
X0048600Y0023317D02*
X0050500Y0022683D01*
X0048600Y0022050D01*
X0082602Y0033450D02*
X0083235Y0031550D01*
X0083868Y0033450D01*
X0084867Y0032922D02*
X0084867Y0032078D01*
X0084869Y0032033D01*
X0084875Y0031989D01*
X0084884Y0031945D01*
X0084897Y0031902D01*
X0084914Y0031861D01*
X0084934Y0031820D01*
X0084958Y0031782D01*
X0084984Y0031746D01*
X0085014Y0031713D01*
X0085046Y0031682D01*
X0085081Y0031653D01*
X0085118Y0031628D01*
X0085157Y0031607D01*
X0085198Y0031588D01*
X0085240Y0031573D01*
X0085284Y0031562D01*
X0085328Y0031554D01*
X0085373Y0031550D01*
X0085417Y0031550D01*
X0085462Y0031554D01*
X0085506Y0031562D01*
X0085550Y0031573D01*
X0085592Y0031588D01*
X0085633Y0031607D01*
X0085672Y0031628D01*
X0085709Y0031653D01*
X0085744Y0031682D01*
X0085776Y0031713D01*
X0085806Y0031746D01*
X0085832Y0031782D01*
X0085856Y0031820D01*
X0085876Y0031861D01*
X0085893Y0031902D01*
X0085906Y0031945D01*
X0085915Y0031989D01*
X0085921Y0032033D01*
X0085923Y0032078D01*
X0085923Y0032922D01*
X0085921Y0032967D01*
X0085915Y0033011D01*
X0085906Y0033055D01*
X0085893Y0033098D01*
X0085876Y0033139D01*
X0085856Y0033180D01*
X0085832Y0033218D01*
X0085806Y0033254D01*
X0085776Y0033287D01*
X0085744Y0033318D01*
X0085709Y0033347D01*
X0085672Y0033372D01*
X0085633Y0033393D01*
X0085592Y0033412D01*
X0085550Y0033427D01*
X0085506Y0033438D01*
X0085462Y0033446D01*
X0085417Y0033450D01*
X0085373Y0033450D01*
X0085328Y0033446D01*
X0085284Y0033438D01*
X0085240Y0033427D01*
X0085198Y0033412D01*
X0085157Y0033393D01*
X0085118Y0033372D01*
X0085081Y0033347D01*
X0085046Y0033318D01*
X0085014Y0033287D01*
X0084984Y0033254D01*
X0084958Y0033218D01*
X0084934Y0033180D01*
X0084914Y0033139D01*
X0084897Y0033098D01*
X0084884Y0033055D01*
X0084875Y0033011D01*
X0084869Y0032967D01*
X0084867Y0032922D01*
X0087107Y0033450D02*
X0087107Y0031550D01*
X0087951Y0031550D01*
X0089283Y0031550D02*
X0089283Y0033450D01*
X0088755Y0033450D02*
X0089811Y0033450D01*
X0091299Y0033450D02*
X0090666Y0031550D01*
X0090824Y0032025D02*
X0091774Y0032025D01*
X0091932Y0031550D02*
X0091299Y0033450D01*
X0093003Y0033028D02*
X0093003Y0031972D01*
X0093005Y0031933D01*
X0093010Y0031894D01*
X0093019Y0031857D01*
X0093031Y0031820D01*
X0093047Y0031784D01*
X0093066Y0031750D01*
X0093088Y0031718D01*
X0093113Y0031688D01*
X0093141Y0031660D01*
X0093171Y0031635D01*
X0093203Y0031613D01*
X0093237Y0031594D01*
X0093273Y0031578D01*
X0093310Y0031566D01*
X0093347Y0031557D01*
X0093386Y0031552D01*
X0093425Y0031550D01*
X0094059Y0031550D01*
X0094059Y0032606D01*
X0093742Y0032606D01*
X0093003Y0033028D02*
X0093005Y0033067D01*
X0093010Y0033106D01*
X0093019Y0033143D01*
X0093031Y0033180D01*
X0093047Y0033216D01*
X0093066Y0033250D01*
X0093088Y0033282D01*
X0093113Y0033312D01*
X0093141Y0033340D01*
X0093171Y0033365D01*
X0093203Y0033387D01*
X0093237Y0033406D01*
X0093273Y0033421D01*
X0093310Y0033434D01*
X0093347Y0033443D01*
X0093386Y0033448D01*
X0093425Y0033450D01*
X0094059Y0033450D01*
X0095315Y0033450D02*
X0095315Y0031550D01*
X0096159Y0031550D01*
X0095948Y0032606D02*
X0095315Y0032606D01*
X0095315Y0033450D02*
X0096159Y0033450D01*
X0097145Y0032289D02*
X0098412Y0032289D01*
X0099747Y0032658D02*
X0100327Y0032342D01*
X0100116Y0031550D02*
X0100057Y0031552D01*
X0099999Y0031558D01*
X0099941Y0031567D01*
X0099884Y0031581D01*
X0099828Y0031598D01*
X0099773Y0031619D01*
X0099720Y0031643D01*
X0099668Y0031671D01*
X0099618Y0031702D01*
X0099571Y0031736D01*
X0099525Y0031774D01*
X0099483Y0031814D01*
X0100328Y0032342D02*
X0100362Y0032319D01*
X0100393Y0032294D01*
X0100422Y0032266D01*
X0100449Y0032235D01*
X0100472Y0032202D01*
X0100492Y0032167D01*
X0100509Y0032130D01*
X0100522Y0032092D01*
X0100531Y0032053D01*
X0100537Y0032012D01*
X0100539Y0031972D01*
X0100538Y0031972D02*
X0100536Y0031933D01*
X0100531Y0031894D01*
X0100522Y0031857D01*
X0100510Y0031820D01*
X0100494Y0031784D01*
X0100475Y0031750D01*
X0100453Y0031718D01*
X0100428Y0031688D01*
X0100400Y0031660D01*
X0100370Y0031635D01*
X0100338Y0031613D01*
X0100304Y0031594D01*
X0100268Y0031578D01*
X0100231Y0031566D01*
X0100194Y0031557D01*
X0100155Y0031552D01*
X0100116Y0031550D01*
X0100433Y0033292D02*
X0100391Y0033321D01*
X0100348Y0033347D01*
X0100303Y0033371D01*
X0100256Y0033392D01*
X0100208Y0033409D01*
X0100160Y0033424D01*
X0100110Y0033435D01*
X0100060Y0033443D01*
X0100009Y0033448D01*
X0099958Y0033450D01*
X0099919Y0033448D01*
X0099880Y0033443D01*
X0099843Y0033434D01*
X0099806Y0033422D01*
X0099770Y0033406D01*
X0099736Y0033387D01*
X0099704Y0033365D01*
X0099674Y0033340D01*
X0099646Y0033312D01*
X0099621Y0033282D01*
X0099599Y0033250D01*
X0099580Y0033216D01*
X0099564Y0033180D01*
X0099552Y0033143D01*
X0099543Y0033106D01*
X0099538Y0033067D01*
X0099536Y0033028D01*
X0099538Y0032988D01*
X0099544Y0032947D01*
X0099553Y0032908D01*
X0099566Y0032870D01*
X0099583Y0032833D01*
X0099603Y0032798D01*
X0099626Y0032765D01*
X0099653Y0032734D01*
X0099682Y0032706D01*
X0099713Y0032681D01*
X0099747Y0032658D01*
X0101651Y0032606D02*
X0102284Y0032606D01*
X0102495Y0033450D02*
X0101651Y0033450D01*
X0101651Y0031550D01*
X0102495Y0031550D01*
X0103523Y0031550D02*
X0104367Y0031550D01*
X0103523Y0031550D02*
X0103523Y0033450D01*
X0105395Y0033450D02*
X0105395Y0031550D01*
X0106239Y0031550D01*
X0107176Y0031972D02*
X0107176Y0033028D01*
X0107178Y0033067D01*
X0107183Y0033106D01*
X0107192Y0033143D01*
X0107204Y0033180D01*
X0107220Y0033216D01*
X0107239Y0033250D01*
X0107261Y0033282D01*
X0107286Y0033312D01*
X0107314Y0033340D01*
X0107344Y0033365D01*
X0107376Y0033387D01*
X0107410Y0033406D01*
X0107446Y0033421D01*
X0107483Y0033434D01*
X0107520Y0033443D01*
X0107559Y0033448D01*
X0107598Y0033450D01*
X0108020Y0033450D01*
X0108843Y0033450D02*
X0109898Y0033450D01*
X0109371Y0033450D02*
X0109371Y0031550D01*
X0108020Y0031550D02*
X0107598Y0031550D01*
X0107559Y0031552D01*
X0107520Y0031557D01*
X0107483Y0031566D01*
X0107446Y0031578D01*
X0107410Y0031594D01*
X0107376Y0031613D01*
X0107344Y0031635D01*
X0107314Y0031660D01*
X0107286Y0031688D01*
X0107261Y0031718D01*
X0107239Y0031750D01*
X0107220Y0031784D01*
X0107204Y0031820D01*
X0107192Y0031857D01*
X0107183Y0031894D01*
X0107178Y0031933D01*
X0107176Y0031972D01*
X0106028Y0032606D02*
X0105395Y0032606D01*
X0105395Y0033450D02*
X0106239Y0033450D01*
X0116900Y0041800D02*
X0116900Y0043800D01*
X0116902Y0043869D01*
X0116908Y0043938D01*
X0116917Y0044006D01*
X0116930Y0044073D01*
X0116947Y0044140D01*
X0116968Y0044206D01*
X0116992Y0044270D01*
X0117020Y0044333D01*
X0117051Y0044395D01*
X0117085Y0044455D01*
X0117123Y0044512D01*
X0117164Y0044568D01*
X0117207Y0044621D01*
X0117254Y0044672D01*
X0117303Y0044720D01*
X0117355Y0044765D01*
X0117410Y0044807D01*
X0117466Y0044846D01*
X0117525Y0044883D01*
X0117586Y0044915D01*
X0117648Y0044945D01*
X0117712Y0044971D01*
X0117777Y0044993D01*
X0117843Y0045012D01*
X0117910Y0045027D01*
X0117978Y0045038D01*
X0118047Y0045046D01*
X0118116Y0045050D01*
X0118184Y0045050D01*
X0118253Y0045046D01*
X0118322Y0045038D01*
X0118390Y0045027D01*
X0118457Y0045012D01*
X0118523Y0044993D01*
X0118588Y0044971D01*
X0118652Y0044945D01*
X0118714Y0044915D01*
X0118775Y0044883D01*
X0118834Y0044846D01*
X0118890Y0044807D01*
X0118945Y0044765D01*
X0118997Y0044720D01*
X0119046Y0044672D01*
X0119093Y0044621D01*
X0119136Y0044568D01*
X0119177Y0044512D01*
X0119215Y0044455D01*
X0119249Y0044395D01*
X0119280Y0044333D01*
X0119308Y0044270D01*
X0119332Y0044206D01*
X0119353Y0044140D01*
X0119370Y0044073D01*
X0119383Y0044006D01*
X0119392Y0043938D01*
X0119398Y0043869D01*
X0119400Y0043800D01*
X0119400Y0041800D01*
X0119398Y0041731D01*
X0119392Y0041662D01*
X0119383Y0041594D01*
X0119370Y0041527D01*
X0119353Y0041460D01*
X0119332Y0041394D01*
X0119308Y0041330D01*
X0119280Y0041267D01*
X0119249Y0041205D01*
X0119215Y0041145D01*
X0119177Y0041088D01*
X0119136Y0041032D01*
X0119093Y0040979D01*
X0119046Y0040928D01*
X0118997Y0040880D01*
X0118945Y0040835D01*
X0118890Y0040793D01*
X0118834Y0040754D01*
X0118775Y0040717D01*
X0118714Y0040685D01*
X0118652Y0040655D01*
X0118588Y0040629D01*
X0118523Y0040607D01*
X0118457Y0040588D01*
X0118390Y0040573D01*
X0118322Y0040562D01*
X0118253Y0040554D01*
X0118184Y0040550D01*
X0118116Y0040550D01*
X0118047Y0040554D01*
X0117978Y0040562D01*
X0117910Y0040573D01*
X0117843Y0040588D01*
X0117777Y0040607D01*
X0117712Y0040629D01*
X0117648Y0040655D01*
X0117586Y0040685D01*
X0117525Y0040717D01*
X0117466Y0040754D01*
X0117410Y0040793D01*
X0117355Y0040835D01*
X0117303Y0040880D01*
X0117254Y0040928D01*
X0117207Y0040979D01*
X0117164Y0041032D01*
X0117123Y0041088D01*
X0117085Y0041145D01*
X0117051Y0041205D01*
X0117020Y0041267D01*
X0116992Y0041330D01*
X0116968Y0041394D01*
X0116947Y0041460D01*
X0116930Y0041527D01*
X0116917Y0041594D01*
X0116908Y0041662D01*
X0116902Y0041731D01*
X0116900Y0041800D01*
X0121550Y0040550D02*
X0121550Y0045050D01*
X0124050Y0040550D01*
X0124050Y0045050D01*
X0126250Y0042300D02*
X0129250Y0042300D01*
X0131150Y0040550D02*
X0132150Y0040550D01*
X0131650Y0040550D02*
X0131650Y0045050D01*
X0131150Y0045050D02*
X0132150Y0045050D01*
X0134150Y0045050D02*
X0136650Y0040550D01*
X0136650Y0045050D01*
X0138500Y0045050D02*
X0141000Y0045050D01*
X0139750Y0045050D02*
X0139750Y0040550D01*
X0134150Y0040550D02*
X0134150Y0045050D01*
X0158900Y0043800D02*
X0158900Y0041800D01*
X0158902Y0041731D01*
X0158908Y0041662D01*
X0158917Y0041594D01*
X0158930Y0041527D01*
X0158947Y0041460D01*
X0158968Y0041394D01*
X0158992Y0041330D01*
X0159020Y0041267D01*
X0159051Y0041205D01*
X0159085Y0041145D01*
X0159123Y0041088D01*
X0159164Y0041032D01*
X0159207Y0040979D01*
X0159254Y0040928D01*
X0159303Y0040880D01*
X0159355Y0040835D01*
X0159410Y0040793D01*
X0159466Y0040754D01*
X0159525Y0040717D01*
X0159586Y0040685D01*
X0159648Y0040655D01*
X0159712Y0040629D01*
X0159777Y0040607D01*
X0159843Y0040588D01*
X0159910Y0040573D01*
X0159978Y0040562D01*
X0160047Y0040554D01*
X0160116Y0040550D01*
X0160184Y0040550D01*
X0160253Y0040554D01*
X0160322Y0040562D01*
X0160390Y0040573D01*
X0160457Y0040588D01*
X0160523Y0040607D01*
X0160588Y0040629D01*
X0160652Y0040655D01*
X0160714Y0040685D01*
X0160775Y0040717D01*
X0160834Y0040754D01*
X0160890Y0040793D01*
X0160945Y0040835D01*
X0160997Y0040880D01*
X0161046Y0040928D01*
X0161093Y0040979D01*
X0161136Y0041032D01*
X0161177Y0041088D01*
X0161215Y0041145D01*
X0161249Y0041205D01*
X0161280Y0041267D01*
X0161308Y0041330D01*
X0161332Y0041394D01*
X0161353Y0041460D01*
X0161370Y0041527D01*
X0161383Y0041594D01*
X0161392Y0041662D01*
X0161398Y0041731D01*
X0161400Y0041800D01*
X0161400Y0043800D01*
X0161398Y0043869D01*
X0161392Y0043938D01*
X0161383Y0044006D01*
X0161370Y0044073D01*
X0161353Y0044140D01*
X0161332Y0044206D01*
X0161308Y0044270D01*
X0161280Y0044333D01*
X0161249Y0044395D01*
X0161215Y0044455D01*
X0161177Y0044512D01*
X0161136Y0044568D01*
X0161093Y0044621D01*
X0161046Y0044672D01*
X0160997Y0044720D01*
X0160945Y0044765D01*
X0160890Y0044807D01*
X0160834Y0044846D01*
X0160775Y0044883D01*
X0160714Y0044915D01*
X0160652Y0044945D01*
X0160588Y0044971D01*
X0160523Y0044993D01*
X0160457Y0045012D01*
X0160390Y0045027D01*
X0160322Y0045038D01*
X0160253Y0045046D01*
X0160184Y0045050D01*
X0160116Y0045050D01*
X0160047Y0045046D01*
X0159978Y0045038D01*
X0159910Y0045027D01*
X0159843Y0045012D01*
X0159777Y0044993D01*
X0159712Y0044971D01*
X0159648Y0044945D01*
X0159586Y0044915D01*
X0159525Y0044883D01*
X0159466Y0044846D01*
X0159410Y0044807D01*
X0159355Y0044765D01*
X0159303Y0044720D01*
X0159254Y0044672D01*
X0159207Y0044621D01*
X0159164Y0044568D01*
X0159123Y0044512D01*
X0159085Y0044455D01*
X0159051Y0044395D01*
X0159020Y0044333D01*
X0158992Y0044270D01*
X0158968Y0044206D01*
X0158947Y0044140D01*
X0158930Y0044073D01*
X0158917Y0044006D01*
X0158908Y0043938D01*
X0158902Y0043869D01*
X0158900Y0043800D01*
X0163560Y0043050D02*
X0165560Y0043050D01*
X0167460Y0043050D02*
X0169460Y0043050D01*
X0171250Y0042300D02*
X0174250Y0042300D01*
X0176150Y0040550D02*
X0177150Y0040550D01*
X0176650Y0040550D02*
X0176650Y0045050D01*
X0176150Y0045050D02*
X0177150Y0045050D01*
X0179150Y0045050D02*
X0181650Y0040550D01*
X0181650Y0045050D01*
X0183500Y0045050D02*
X0186000Y0045050D01*
X0184750Y0045050D02*
X0184750Y0040550D01*
X0179150Y0040550D02*
X0179150Y0045050D01*
X0169460Y0045050D02*
X0167460Y0045050D01*
X0167460Y0040550D01*
X0163560Y0040550D02*
X0163560Y0045050D01*
X0165560Y0045050D01*
X0163118Y0017550D02*
X0162590Y0017550D01*
X0162590Y0015650D01*
X0163118Y0015650D01*
X0163162Y0015652D01*
X0163205Y0015657D01*
X0163248Y0015666D01*
X0163289Y0015679D01*
X0163330Y0015694D01*
X0163369Y0015714D01*
X0163407Y0015736D01*
X0163442Y0015761D01*
X0163476Y0015790D01*
X0163506Y0015820D01*
X0163535Y0015854D01*
X0163560Y0015889D01*
X0163582Y0015927D01*
X0163602Y0015966D01*
X0163617Y0016007D01*
X0163630Y0016048D01*
X0163639Y0016091D01*
X0163644Y0016134D01*
X0163646Y0016178D01*
X0163646Y0017022D01*
X0163644Y0017066D01*
X0163639Y0017109D01*
X0163630Y0017152D01*
X0163617Y0017193D01*
X0163602Y0017234D01*
X0163582Y0017273D01*
X0163560Y0017311D01*
X0163535Y0017346D01*
X0163506Y0017380D01*
X0163476Y0017410D01*
X0163442Y0017439D01*
X0163407Y0017464D01*
X0163369Y0017486D01*
X0163330Y0017506D01*
X0163289Y0017521D01*
X0163248Y0017534D01*
X0163205Y0017543D01*
X0163162Y0017548D01*
X0163118Y0017550D01*
X0161570Y0017550D02*
X0160726Y0017550D01*
X0160726Y0015650D01*
X0161570Y0015650D01*
X0161359Y0016706D02*
X0160726Y0016706D01*
X0159699Y0015650D02*
X0158854Y0015650D01*
X0158854Y0017550D01*
X0191250Y0090800D02*
X0191250Y0162800D01*
X0001250Y0162800D01*
X0001250Y0090800D01*
X0191250Y0090800D01*
D15*
X0028750Y0031800D02*
X0023750Y0031800D01*
X0021250Y0034300D01*
X0021250Y0039300D01*
X0023750Y0041800D01*
X0028750Y0041800D01*
X0031250Y0039300D01*
X0033750Y0041800D01*
X0038750Y0041800D01*
X0041250Y0039300D01*
X0041250Y0034300D01*
X0038750Y0031800D01*
X0033750Y0031800D01*
X0031250Y0034300D01*
X0028750Y0031800D01*
X0051250Y0029300D02*
X0051250Y0024300D01*
X0053750Y0021800D01*
X0058750Y0021800D01*
X0061250Y0024300D01*
X0061250Y0029300D01*
X0058750Y0031800D01*
X0061250Y0034300D01*
X0061250Y0039300D01*
X0058750Y0041800D01*
X0053750Y0041800D01*
X0051250Y0039300D01*
X0051250Y0034300D01*
X0053750Y0031800D01*
X0051250Y0029300D01*
X0067274Y0037981D02*
X0095069Y0037981D01*
X0095069Y0085619D01*
X0067274Y0085619D01*
X0067274Y0037981D01*
X0073356Y0035363D02*
X0073356Y0018237D01*
X0119144Y0018237D01*
X0119144Y0035363D01*
X0073356Y0035363D01*
D16*
X0078950Y0052018D02*
X0078950Y0053296D01*
X0078952Y0053366D01*
X0078958Y0053437D01*
X0078967Y0053506D01*
X0078981Y0053575D01*
X0078998Y0053644D01*
X0079019Y0053711D01*
X0079044Y0053777D01*
X0079072Y0053841D01*
X0079104Y0053904D01*
X0079139Y0053965D01*
X0079178Y0054024D01*
X0079219Y0054081D01*
X0079264Y0054135D01*
X0079312Y0054187D01*
X0079362Y0054236D01*
X0079416Y0054283D01*
X0079471Y0054326D01*
X0079529Y0054366D01*
X0079589Y0054403D01*
X0079651Y0054436D01*
X0079715Y0054466D01*
X0079780Y0054493D01*
X0079846Y0054516D01*
X0079914Y0054535D01*
X0079983Y0054550D01*
X0080052Y0054562D01*
X0080122Y0054570D01*
X0080193Y0054574D01*
X0080263Y0054574D01*
X0080334Y0054570D01*
X0080404Y0054562D01*
X0080473Y0054550D01*
X0080542Y0054535D01*
X0080610Y0054516D01*
X0080676Y0054493D01*
X0080741Y0054466D01*
X0080805Y0054436D01*
X0080867Y0054403D01*
X0080927Y0054366D01*
X0080985Y0054326D01*
X0081040Y0054283D01*
X0081094Y0054236D01*
X0081144Y0054187D01*
X0081192Y0054135D01*
X0081237Y0054081D01*
X0081278Y0054024D01*
X0081317Y0053965D01*
X0081352Y0053904D01*
X0081384Y0053841D01*
X0081412Y0053777D01*
X0081437Y0053711D01*
X0081458Y0053644D01*
X0081475Y0053575D01*
X0081489Y0053506D01*
X0081498Y0053437D01*
X0081504Y0053366D01*
X0081506Y0053296D01*
X0081506Y0052018D01*
X0081506Y0053551D02*
X0083550Y0054573D01*
X0083550Y0052018D02*
X0078950Y0052018D01*
X0078950Y0056648D02*
X0078950Y0058692D01*
X0078950Y0060548D02*
X0083550Y0060548D01*
X0083550Y0062592D01*
X0083550Y0064033D02*
X0078950Y0065567D01*
X0083550Y0067100D01*
X0082400Y0066717D02*
X0082400Y0064417D01*
X0078950Y0068533D02*
X0081122Y0070067D01*
X0083550Y0070067D01*
X0081122Y0070067D02*
X0078950Y0071600D01*
X0083550Y0058692D02*
X0083550Y0056648D01*
X0078950Y0056648D01*
X0080994Y0056648D02*
X0080994Y0058181D01*
X0138550Y0035100D02*
X0138550Y0031600D01*
X0138550Y0033156D02*
X0139522Y0033156D01*
X0139717Y0033156D02*
X0140494Y0031600D01*
X0142034Y0031600D02*
X0143979Y0031600D01*
X0142034Y0031600D02*
X0143687Y0033544D01*
X0143104Y0035100D02*
X0143040Y0035098D01*
X0142976Y0035093D01*
X0142912Y0035084D01*
X0142849Y0035071D01*
X0142787Y0035054D01*
X0142726Y0035035D01*
X0142666Y0035011D01*
X0142608Y0034985D01*
X0142551Y0034955D01*
X0142496Y0034921D01*
X0142443Y0034885D01*
X0142392Y0034846D01*
X0142344Y0034804D01*
X0142297Y0034759D01*
X0142254Y0034712D01*
X0142213Y0034662D01*
X0142176Y0034610D01*
X0142141Y0034556D01*
X0142109Y0034500D01*
X0142081Y0034442D01*
X0142056Y0034383D01*
X0142035Y0034322D01*
X0143687Y0033544D02*
X0143728Y0033586D01*
X0143767Y0033630D01*
X0143802Y0033677D01*
X0143835Y0033725D01*
X0143865Y0033776D01*
X0143891Y0033828D01*
X0143914Y0033882D01*
X0143934Y0033937D01*
X0143950Y0033993D01*
X0143963Y0034050D01*
X0143972Y0034108D01*
X0143977Y0034166D01*
X0143979Y0034225D01*
X0143977Y0034282D01*
X0143972Y0034339D01*
X0143962Y0034396D01*
X0143949Y0034451D01*
X0143933Y0034506D01*
X0143912Y0034560D01*
X0143889Y0034612D01*
X0143862Y0034663D01*
X0143832Y0034711D01*
X0143798Y0034758D01*
X0143762Y0034802D01*
X0143723Y0034844D01*
X0143681Y0034883D01*
X0143637Y0034919D01*
X0143590Y0034953D01*
X0143542Y0034983D01*
X0143491Y0035010D01*
X0143439Y0035033D01*
X0143385Y0035054D01*
X0143330Y0035070D01*
X0143275Y0035083D01*
X0143218Y0035093D01*
X0143161Y0035098D01*
X0143104Y0035100D01*
X0139522Y0035100D02*
X0138550Y0035100D01*
X0139522Y0035100D02*
X0139583Y0035098D01*
X0139644Y0035092D01*
X0139704Y0035083D01*
X0139764Y0035069D01*
X0139822Y0035052D01*
X0139880Y0035032D01*
X0139936Y0035007D01*
X0139990Y0034980D01*
X0140043Y0034949D01*
X0140093Y0034914D01*
X0140142Y0034877D01*
X0140187Y0034837D01*
X0140231Y0034793D01*
X0140271Y0034748D01*
X0140308Y0034699D01*
X0140343Y0034649D01*
X0140374Y0034596D01*
X0140401Y0034542D01*
X0140426Y0034486D01*
X0140446Y0034428D01*
X0140463Y0034370D01*
X0140477Y0034310D01*
X0140486Y0034250D01*
X0140492Y0034189D01*
X0140494Y0034128D01*
X0140492Y0034067D01*
X0140486Y0034006D01*
X0140477Y0033946D01*
X0140463Y0033886D01*
X0140446Y0033828D01*
X0140426Y0033770D01*
X0140401Y0033714D01*
X0140374Y0033660D01*
X0140343Y0033607D01*
X0140308Y0033557D01*
X0140271Y0033508D01*
X0140231Y0033463D01*
X0140187Y0033419D01*
X0140142Y0033379D01*
X0140093Y0033342D01*
X0140043Y0033307D01*
X0139990Y0033276D01*
X0139936Y0033249D01*
X0139880Y0033224D01*
X0139822Y0033204D01*
X0139764Y0033187D01*
X0139704Y0033173D01*
X0139644Y0033164D01*
X0139583Y0033158D01*
X0139522Y0033156D01*
X0016450Y0054100D02*
X0012950Y0054100D01*
X0012950Y0055072D01*
X0012952Y0055133D01*
X0012958Y0055194D01*
X0012967Y0055254D01*
X0012981Y0055314D01*
X0012998Y0055372D01*
X0013018Y0055430D01*
X0013043Y0055486D01*
X0013070Y0055540D01*
X0013101Y0055593D01*
X0013136Y0055643D01*
X0013173Y0055692D01*
X0013213Y0055737D01*
X0013257Y0055781D01*
X0013302Y0055821D01*
X0013351Y0055858D01*
X0013401Y0055893D01*
X0013454Y0055924D01*
X0013508Y0055951D01*
X0013564Y0055976D01*
X0013622Y0055996D01*
X0013680Y0056013D01*
X0013740Y0056027D01*
X0013800Y0056036D01*
X0013861Y0056042D01*
X0013922Y0056044D01*
X0013983Y0056042D01*
X0014044Y0056036D01*
X0014104Y0056027D01*
X0014164Y0056013D01*
X0014222Y0055996D01*
X0014280Y0055976D01*
X0014336Y0055951D01*
X0014390Y0055924D01*
X0014443Y0055893D01*
X0014493Y0055858D01*
X0014542Y0055821D01*
X0014587Y0055781D01*
X0014631Y0055737D01*
X0014671Y0055692D01*
X0014708Y0055643D01*
X0014743Y0055593D01*
X0014774Y0055540D01*
X0014801Y0055486D01*
X0014826Y0055430D01*
X0014846Y0055372D01*
X0014863Y0055314D01*
X0014877Y0055254D01*
X0014886Y0055194D01*
X0014892Y0055133D01*
X0014894Y0055072D01*
X0014894Y0054100D01*
X0014894Y0055267D02*
X0016450Y0056044D01*
X0016450Y0057584D02*
X0016450Y0059529D01*
X0016450Y0058556D02*
X0012950Y0058556D01*
X0013728Y0057584D01*
D17*
X0033250Y0052800D02*
X0036250Y0052800D01*
X0039250Y0052800D01*
X0039250Y0050800D02*
X0036250Y0050800D01*
X0033250Y0050800D01*
X0119250Y0071100D02*
X0123250Y0071100D01*
X0121250Y0073100D01*
X0119250Y0071100D01*
X0120250Y0071600D02*
X0122250Y0071600D01*
X0121250Y0072100D02*
X0121250Y0072600D01*
X0153800Y0031900D02*
X0153800Y0030100D01*
X0153800Y0023700D02*
X0153800Y0021700D01*
X0164250Y0071100D02*
X0168250Y0071100D01*
X0166250Y0073100D01*
X0164250Y0071100D01*
X0165250Y0071600D02*
X0167250Y0071600D01*
X0166250Y0072100D02*
X0166250Y0072600D01*
D18*
X0166250Y0065800D03*
X0121250Y0065800D03*
M02*
