G75*
%MOIN*%
%OFA0B0*%
%FSLAX25Y25*%
%IPPOS*%
%LPD*%
%AMOC8*
5,1,8,0,0,1.08239X$1,22.5*
%
%ADD10C,0.00300*%
%ADD11C,0.00800*%
%ADD12C,0.00500*%
%ADD13C,0.00400*%
%ADD14C,0.00600*%
%ADD15C,0.01000*%
%ADD16R,0.02000X0.10000*%
D10*
X0044109Y0011650D02*
X0045076Y0014550D01*
X0046091Y0014550D02*
X0046735Y0014550D01*
X0046413Y0014550D02*
X0046413Y0011650D01*
X0046091Y0011650D02*
X0046735Y0011650D01*
X0048007Y0011650D02*
X0048007Y0014550D01*
X0049618Y0011650D01*
X0049618Y0014550D01*
X0051014Y0013261D02*
X0052948Y0013261D01*
X0052948Y0012294D02*
X0051014Y0012294D01*
X0054247Y0011650D02*
X0055858Y0011650D01*
X0055053Y0011650D02*
X0055053Y0014550D01*
X0054247Y0013906D01*
X0057127Y0011650D02*
X0058738Y0011650D01*
X0057127Y0011650D02*
X0058497Y0013261D01*
X0058013Y0014550D02*
X0057954Y0014548D01*
X0057896Y0014543D01*
X0057838Y0014533D01*
X0057781Y0014521D01*
X0057725Y0014504D01*
X0057670Y0014485D01*
X0057616Y0014461D01*
X0057564Y0014435D01*
X0057514Y0014405D01*
X0057465Y0014372D01*
X0057419Y0014336D01*
X0057375Y0014297D01*
X0057334Y0014256D01*
X0057295Y0014212D01*
X0057259Y0014166D01*
X0057227Y0014117D01*
X0057197Y0014067D01*
X0057170Y0014015D01*
X0057147Y0013961D01*
X0057127Y0013906D01*
X0058497Y0013261D02*
X0058534Y0013298D01*
X0058568Y0013338D01*
X0058600Y0013380D01*
X0058628Y0013425D01*
X0058654Y0013471D01*
X0058676Y0013518D01*
X0058695Y0013567D01*
X0058711Y0013617D01*
X0058723Y0013668D01*
X0058732Y0013720D01*
X0058737Y0013772D01*
X0058739Y0013825D01*
X0058738Y0013825D02*
X0058736Y0013877D01*
X0058731Y0013928D01*
X0058721Y0013979D01*
X0058709Y0014029D01*
X0058692Y0014078D01*
X0058672Y0014126D01*
X0058649Y0014172D01*
X0058623Y0014217D01*
X0058593Y0014259D01*
X0058561Y0014300D01*
X0058526Y0014338D01*
X0058488Y0014373D01*
X0058447Y0014405D01*
X0058405Y0014435D01*
X0058360Y0014461D01*
X0058314Y0014484D01*
X0058266Y0014504D01*
X0058217Y0014521D01*
X0058167Y0014533D01*
X0058116Y0014543D01*
X0058065Y0014548D01*
X0058013Y0014550D01*
X0059846Y0014550D02*
X0060813Y0011650D01*
X0061780Y0014550D01*
X0064454Y0012778D02*
X0066388Y0012778D01*
X0067718Y0013583D02*
X0069652Y0012778D01*
X0067718Y0011972D01*
X0072478Y0012294D02*
X0072478Y0013906D01*
X0072479Y0013906D02*
X0072481Y0013957D01*
X0072487Y0014007D01*
X0072497Y0014056D01*
X0072511Y0014105D01*
X0072528Y0014152D01*
X0072549Y0014198D01*
X0072574Y0014242D01*
X0072602Y0014285D01*
X0072633Y0014324D01*
X0072668Y0014361D01*
X0072705Y0014396D01*
X0072744Y0014427D01*
X0072787Y0014455D01*
X0072831Y0014480D01*
X0072877Y0014501D01*
X0072924Y0014518D01*
X0072973Y0014532D01*
X0073022Y0014542D01*
X0073072Y0014548D01*
X0073123Y0014550D01*
X0073767Y0014550D01*
X0074856Y0012939D02*
X0074856Y0012294D01*
X0074857Y0012294D02*
X0074859Y0012245D01*
X0074865Y0012196D01*
X0074874Y0012147D01*
X0074887Y0012100D01*
X0074904Y0012053D01*
X0074924Y0012008D01*
X0074947Y0011965D01*
X0074974Y0011923D01*
X0075004Y0011884D01*
X0075037Y0011847D01*
X0075073Y0011813D01*
X0075111Y0011782D01*
X0075151Y0011753D01*
X0075193Y0011728D01*
X0075238Y0011706D01*
X0075283Y0011688D01*
X0075330Y0011673D01*
X0075378Y0011662D01*
X0075427Y0011654D01*
X0075476Y0011650D01*
X0075526Y0011650D01*
X0075575Y0011654D01*
X0075624Y0011662D01*
X0075672Y0011673D01*
X0075719Y0011688D01*
X0075764Y0011706D01*
X0075809Y0011728D01*
X0075851Y0011753D01*
X0075891Y0011782D01*
X0075929Y0011813D01*
X0075965Y0011847D01*
X0075998Y0011884D01*
X0076028Y0011923D01*
X0076055Y0011965D01*
X0076078Y0012008D01*
X0076098Y0012053D01*
X0076115Y0012100D01*
X0076128Y0012147D01*
X0076137Y0012196D01*
X0076143Y0012245D01*
X0076145Y0012294D01*
X0076145Y0012939D01*
X0076143Y0012988D01*
X0076137Y0013037D01*
X0076128Y0013086D01*
X0076115Y0013133D01*
X0076098Y0013180D01*
X0076078Y0013225D01*
X0076055Y0013268D01*
X0076028Y0013310D01*
X0075998Y0013349D01*
X0075965Y0013386D01*
X0075929Y0013420D01*
X0075891Y0013451D01*
X0075851Y0013480D01*
X0075809Y0013505D01*
X0075764Y0013527D01*
X0075719Y0013545D01*
X0075672Y0013560D01*
X0075624Y0013571D01*
X0075575Y0013579D01*
X0075526Y0013583D01*
X0075476Y0013583D01*
X0075427Y0013579D01*
X0075378Y0013571D01*
X0075330Y0013560D01*
X0075283Y0013545D01*
X0075238Y0013527D01*
X0075193Y0013505D01*
X0075151Y0013480D01*
X0075111Y0013451D01*
X0075073Y0013420D01*
X0075037Y0013386D01*
X0075004Y0013349D01*
X0074974Y0013310D01*
X0074947Y0013268D01*
X0074924Y0013225D01*
X0074904Y0013180D01*
X0074887Y0013133D01*
X0074874Y0013086D01*
X0074865Y0013037D01*
X0074859Y0012988D01*
X0074857Y0012939D01*
X0073767Y0011650D02*
X0073123Y0011650D01*
X0073075Y0011652D01*
X0073027Y0011657D01*
X0072980Y0011666D01*
X0072933Y0011679D01*
X0072888Y0011695D01*
X0072844Y0011714D01*
X0072801Y0011736D01*
X0072760Y0011762D01*
X0072721Y0011791D01*
X0072685Y0011822D01*
X0072651Y0011856D01*
X0072620Y0011892D01*
X0072591Y0011931D01*
X0072565Y0011972D01*
X0072543Y0012015D01*
X0072524Y0012059D01*
X0072508Y0012104D01*
X0072495Y0012151D01*
X0072486Y0012198D01*
X0072481Y0012246D01*
X0072479Y0012294D01*
X0077448Y0011650D02*
X0077448Y0013583D01*
X0078254Y0013583D01*
X0078296Y0013581D01*
X0078338Y0013576D01*
X0078379Y0013567D01*
X0078419Y0013554D01*
X0078458Y0013538D01*
X0078496Y0013518D01*
X0078531Y0013496D01*
X0078564Y0013470D01*
X0078596Y0013442D01*
X0078624Y0013410D01*
X0078650Y0013377D01*
X0078672Y0013342D01*
X0078692Y0013304D01*
X0078708Y0013265D01*
X0078721Y0013225D01*
X0078730Y0013184D01*
X0078735Y0013142D01*
X0078737Y0013100D01*
X0078737Y0011650D01*
X0080136Y0011650D02*
X0080136Y0013583D01*
X0080942Y0013583D01*
X0080984Y0013581D01*
X0081026Y0013576D01*
X0081067Y0013567D01*
X0081107Y0013554D01*
X0081146Y0013538D01*
X0081184Y0013518D01*
X0081219Y0013496D01*
X0081252Y0013470D01*
X0081284Y0013442D01*
X0081312Y0013410D01*
X0081338Y0013377D01*
X0081360Y0013342D01*
X0081380Y0013304D01*
X0081396Y0013265D01*
X0081409Y0013225D01*
X0081418Y0013184D01*
X0081423Y0013142D01*
X0081425Y0013100D01*
X0081425Y0011650D01*
X0082728Y0012133D02*
X0082728Y0012939D01*
X0082728Y0012617D02*
X0084017Y0012617D01*
X0084017Y0012939D01*
X0084015Y0012988D01*
X0084009Y0013037D01*
X0084000Y0013086D01*
X0083987Y0013133D01*
X0083970Y0013180D01*
X0083950Y0013225D01*
X0083927Y0013268D01*
X0083900Y0013310D01*
X0083870Y0013349D01*
X0083837Y0013386D01*
X0083801Y0013420D01*
X0083763Y0013451D01*
X0083723Y0013480D01*
X0083681Y0013505D01*
X0083636Y0013527D01*
X0083591Y0013545D01*
X0083544Y0013560D01*
X0083496Y0013571D01*
X0083447Y0013579D01*
X0083398Y0013583D01*
X0083348Y0013583D01*
X0083299Y0013579D01*
X0083250Y0013571D01*
X0083202Y0013560D01*
X0083155Y0013545D01*
X0083110Y0013527D01*
X0083065Y0013505D01*
X0083023Y0013480D01*
X0082983Y0013451D01*
X0082945Y0013420D01*
X0082909Y0013386D01*
X0082876Y0013349D01*
X0082846Y0013310D01*
X0082819Y0013268D01*
X0082796Y0013225D01*
X0082776Y0013180D01*
X0082759Y0013133D01*
X0082746Y0013086D01*
X0082737Y0013037D01*
X0082731Y0012988D01*
X0082729Y0012939D01*
X0082729Y0012133D02*
X0082731Y0012091D01*
X0082736Y0012049D01*
X0082745Y0012008D01*
X0082758Y0011968D01*
X0082774Y0011929D01*
X0082794Y0011892D01*
X0082816Y0011856D01*
X0082842Y0011823D01*
X0082870Y0011791D01*
X0082902Y0011763D01*
X0082935Y0011737D01*
X0082971Y0011715D01*
X0083008Y0011695D01*
X0083047Y0011679D01*
X0083087Y0011666D01*
X0083128Y0011657D01*
X0083170Y0011652D01*
X0083212Y0011650D01*
X0084017Y0011650D01*
X0085228Y0012133D02*
X0085228Y0013100D01*
X0085230Y0013142D01*
X0085235Y0013184D01*
X0085244Y0013225D01*
X0085257Y0013265D01*
X0085273Y0013304D01*
X0085293Y0013342D01*
X0085315Y0013377D01*
X0085341Y0013410D01*
X0085369Y0013442D01*
X0085401Y0013470D01*
X0085434Y0013496D01*
X0085470Y0013518D01*
X0085507Y0013538D01*
X0085546Y0013554D01*
X0085586Y0013567D01*
X0085627Y0013576D01*
X0085669Y0013581D01*
X0085711Y0013583D01*
X0086356Y0013583D01*
X0087184Y0013583D02*
X0088151Y0013583D01*
X0087506Y0014550D02*
X0087506Y0012133D01*
X0087507Y0012133D02*
X0087509Y0012091D01*
X0087514Y0012049D01*
X0087523Y0012008D01*
X0087536Y0011968D01*
X0087552Y0011929D01*
X0087572Y0011892D01*
X0087594Y0011856D01*
X0087620Y0011823D01*
X0087648Y0011791D01*
X0087680Y0011763D01*
X0087713Y0011737D01*
X0087749Y0011715D01*
X0087786Y0011695D01*
X0087825Y0011679D01*
X0087865Y0011666D01*
X0087906Y0011657D01*
X0087948Y0011652D01*
X0087990Y0011650D01*
X0088151Y0011650D01*
X0086356Y0011650D02*
X0085711Y0011650D01*
X0085669Y0011652D01*
X0085627Y0011657D01*
X0085586Y0011666D01*
X0085546Y0011679D01*
X0085507Y0011695D01*
X0085470Y0011715D01*
X0085434Y0011737D01*
X0085401Y0011763D01*
X0085369Y0011791D01*
X0085341Y0011823D01*
X0085315Y0011856D01*
X0085293Y0011892D01*
X0085273Y0011929D01*
X0085257Y0011968D01*
X0085244Y0012008D01*
X0085235Y0012049D01*
X0085230Y0012091D01*
X0085228Y0012133D01*
X0090925Y0011650D02*
X0092214Y0011650D01*
X0090925Y0011650D02*
X0090925Y0014550D01*
X0093635Y0013825D02*
X0095004Y0011650D01*
X0094118Y0011731D02*
X0095326Y0012617D01*
X0096190Y0012294D02*
X0096190Y0013906D01*
X0096191Y0013906D02*
X0096193Y0013957D01*
X0096199Y0014007D01*
X0096209Y0014056D01*
X0096223Y0014105D01*
X0096240Y0014152D01*
X0096261Y0014198D01*
X0096286Y0014242D01*
X0096314Y0014285D01*
X0096345Y0014324D01*
X0096380Y0014361D01*
X0096417Y0014396D01*
X0096456Y0014427D01*
X0096499Y0014455D01*
X0096543Y0014480D01*
X0096589Y0014501D01*
X0096636Y0014518D01*
X0096685Y0014532D01*
X0096734Y0014542D01*
X0096784Y0014548D01*
X0096835Y0014550D01*
X0097479Y0014550D01*
X0098556Y0013342D02*
X0098717Y0013342D01*
X0098717Y0013181D01*
X0098556Y0013181D01*
X0098556Y0013342D01*
X0098556Y0011811D02*
X0098717Y0011811D01*
X0098717Y0011650D01*
X0098556Y0011006D01*
X0098556Y0011650D02*
X0098556Y0011811D01*
X0098556Y0011650D02*
X0098717Y0011650D01*
X0097479Y0011650D02*
X0096835Y0011650D01*
X0096787Y0011652D01*
X0096739Y0011657D01*
X0096692Y0011666D01*
X0096645Y0011679D01*
X0096600Y0011695D01*
X0096556Y0011714D01*
X0096513Y0011736D01*
X0096472Y0011762D01*
X0096433Y0011791D01*
X0096397Y0011822D01*
X0096363Y0011856D01*
X0096332Y0011892D01*
X0096303Y0011931D01*
X0096277Y0011972D01*
X0096255Y0012015D01*
X0096236Y0012059D01*
X0096220Y0012104D01*
X0096207Y0012151D01*
X0096198Y0012198D01*
X0096193Y0012246D01*
X0096191Y0012294D01*
X0093876Y0011650D02*
X0093834Y0011652D01*
X0093792Y0011657D01*
X0093751Y0011666D01*
X0093711Y0011679D01*
X0093672Y0011695D01*
X0093635Y0011715D01*
X0093599Y0011737D01*
X0093566Y0011763D01*
X0093534Y0011791D01*
X0093506Y0011823D01*
X0093480Y0011856D01*
X0093458Y0011892D01*
X0093438Y0011929D01*
X0093422Y0011968D01*
X0093409Y0012008D01*
X0093400Y0012049D01*
X0093395Y0012091D01*
X0093393Y0012133D01*
X0093474Y0012375D02*
X0094440Y0013825D01*
X0094440Y0013826D02*
X0094461Y0013862D01*
X0094478Y0013900D01*
X0094492Y0013940D01*
X0094502Y0013981D01*
X0094509Y0014022D01*
X0094512Y0014064D01*
X0094511Y0014106D01*
X0094506Y0014148D01*
X0094498Y0014189D01*
X0094486Y0014230D01*
X0094471Y0014269D01*
X0094452Y0014306D01*
X0094430Y0014342D01*
X0094405Y0014376D01*
X0094377Y0014407D01*
X0094347Y0014436D01*
X0094314Y0014462D01*
X0094278Y0014485D01*
X0094241Y0014504D01*
X0094203Y0014521D01*
X0094163Y0014533D01*
X0094122Y0014543D01*
X0094080Y0014548D01*
X0094038Y0014550D01*
X0093996Y0014548D01*
X0093954Y0014543D01*
X0093913Y0014533D01*
X0093873Y0014521D01*
X0093835Y0014504D01*
X0093798Y0014485D01*
X0093762Y0014462D01*
X0093729Y0014436D01*
X0093699Y0014407D01*
X0093671Y0014376D01*
X0093646Y0014342D01*
X0093624Y0014306D01*
X0093605Y0014269D01*
X0093590Y0014230D01*
X0093578Y0014189D01*
X0093570Y0014148D01*
X0093565Y0014106D01*
X0093564Y0014064D01*
X0093567Y0014022D01*
X0093574Y0013981D01*
X0093584Y0013940D01*
X0093598Y0013900D01*
X0093615Y0013862D01*
X0093636Y0013826D01*
X0093474Y0012375D02*
X0093453Y0012344D01*
X0093435Y0012312D01*
X0093420Y0012278D01*
X0093408Y0012243D01*
X0093400Y0012207D01*
X0093395Y0012170D01*
X0093393Y0012133D01*
X0093876Y0011650D02*
X0093913Y0011652D01*
X0093950Y0011657D01*
X0093986Y0011665D01*
X0094021Y0011677D01*
X0094055Y0011692D01*
X0094087Y0011710D01*
X0094118Y0011731D01*
X0101318Y0014550D02*
X0102285Y0011650D01*
X0103251Y0014550D01*
X0104267Y0014550D02*
X0104911Y0014550D01*
X0104589Y0014550D02*
X0104589Y0011650D01*
X0104267Y0011650D02*
X0104911Y0011650D01*
X0106183Y0011650D02*
X0106183Y0014550D01*
X0107794Y0011650D01*
X0107794Y0014550D01*
X0109190Y0013261D02*
X0111123Y0013261D01*
X0111123Y0012294D02*
X0109190Y0012294D01*
X0112423Y0011650D02*
X0113390Y0011650D01*
X0113438Y0011652D01*
X0113486Y0011657D01*
X0113533Y0011666D01*
X0113580Y0011679D01*
X0113625Y0011695D01*
X0113669Y0011714D01*
X0113712Y0011736D01*
X0113753Y0011762D01*
X0113792Y0011791D01*
X0113828Y0011822D01*
X0113862Y0011856D01*
X0113893Y0011892D01*
X0113922Y0011931D01*
X0113948Y0011972D01*
X0113970Y0012015D01*
X0113989Y0012059D01*
X0114005Y0012104D01*
X0114018Y0012151D01*
X0114027Y0012198D01*
X0114032Y0012246D01*
X0114034Y0012294D01*
X0114034Y0012617D01*
X0114032Y0012665D01*
X0114027Y0012713D01*
X0114018Y0012760D01*
X0114005Y0012807D01*
X0113989Y0012852D01*
X0113970Y0012896D01*
X0113948Y0012939D01*
X0113922Y0012980D01*
X0113893Y0013019D01*
X0113862Y0013055D01*
X0113828Y0013089D01*
X0113792Y0013120D01*
X0113753Y0013149D01*
X0113712Y0013175D01*
X0113669Y0013197D01*
X0113625Y0013216D01*
X0113580Y0013232D01*
X0113533Y0013245D01*
X0113486Y0013254D01*
X0113438Y0013259D01*
X0113390Y0013261D01*
X0112423Y0013261D01*
X0112423Y0014550D01*
X0114034Y0014550D01*
X0115142Y0014550D02*
X0116109Y0011650D01*
X0117075Y0014550D01*
X0119750Y0012778D02*
X0121683Y0012778D01*
X0123014Y0013583D02*
X0124947Y0012778D01*
X0123014Y0011972D01*
X0127774Y0012294D02*
X0127774Y0013906D01*
X0127776Y0013957D01*
X0127782Y0014007D01*
X0127792Y0014056D01*
X0127806Y0014105D01*
X0127823Y0014152D01*
X0127844Y0014198D01*
X0127869Y0014242D01*
X0127897Y0014285D01*
X0127928Y0014324D01*
X0127963Y0014361D01*
X0128000Y0014396D01*
X0128039Y0014427D01*
X0128082Y0014455D01*
X0128126Y0014480D01*
X0128172Y0014501D01*
X0128219Y0014518D01*
X0128268Y0014532D01*
X0128317Y0014542D01*
X0128367Y0014548D01*
X0128418Y0014550D01*
X0129063Y0014550D01*
X0130152Y0012939D02*
X0130152Y0012294D01*
X0130153Y0012294D02*
X0130155Y0012245D01*
X0130161Y0012196D01*
X0130170Y0012147D01*
X0130183Y0012100D01*
X0130200Y0012053D01*
X0130220Y0012008D01*
X0130243Y0011965D01*
X0130270Y0011923D01*
X0130300Y0011884D01*
X0130333Y0011847D01*
X0130369Y0011813D01*
X0130407Y0011782D01*
X0130447Y0011753D01*
X0130489Y0011728D01*
X0130534Y0011706D01*
X0130579Y0011688D01*
X0130626Y0011673D01*
X0130674Y0011662D01*
X0130723Y0011654D01*
X0130772Y0011650D01*
X0130822Y0011650D01*
X0130871Y0011654D01*
X0130920Y0011662D01*
X0130968Y0011673D01*
X0131015Y0011688D01*
X0131060Y0011706D01*
X0131105Y0011728D01*
X0131147Y0011753D01*
X0131187Y0011782D01*
X0131225Y0011813D01*
X0131261Y0011847D01*
X0131294Y0011884D01*
X0131324Y0011923D01*
X0131351Y0011965D01*
X0131374Y0012008D01*
X0131394Y0012053D01*
X0131411Y0012100D01*
X0131424Y0012147D01*
X0131433Y0012196D01*
X0131439Y0012245D01*
X0131441Y0012294D01*
X0131441Y0012939D01*
X0131439Y0012988D01*
X0131433Y0013037D01*
X0131424Y0013086D01*
X0131411Y0013133D01*
X0131394Y0013180D01*
X0131374Y0013225D01*
X0131351Y0013268D01*
X0131324Y0013310D01*
X0131294Y0013349D01*
X0131261Y0013386D01*
X0131225Y0013420D01*
X0131187Y0013451D01*
X0131147Y0013480D01*
X0131105Y0013505D01*
X0131060Y0013527D01*
X0131015Y0013545D01*
X0130968Y0013560D01*
X0130920Y0013571D01*
X0130871Y0013579D01*
X0130822Y0013583D01*
X0130772Y0013583D01*
X0130723Y0013579D01*
X0130674Y0013571D01*
X0130626Y0013560D01*
X0130579Y0013545D01*
X0130534Y0013527D01*
X0130489Y0013505D01*
X0130447Y0013480D01*
X0130407Y0013451D01*
X0130369Y0013420D01*
X0130333Y0013386D01*
X0130300Y0013349D01*
X0130270Y0013310D01*
X0130243Y0013268D01*
X0130220Y0013225D01*
X0130200Y0013180D01*
X0130183Y0013133D01*
X0130170Y0013086D01*
X0130161Y0013037D01*
X0130155Y0012988D01*
X0130153Y0012939D01*
X0129063Y0011650D02*
X0128418Y0011650D01*
X0128370Y0011652D01*
X0128322Y0011657D01*
X0128275Y0011666D01*
X0128228Y0011679D01*
X0128183Y0011695D01*
X0128139Y0011714D01*
X0128096Y0011736D01*
X0128055Y0011762D01*
X0128016Y0011791D01*
X0127980Y0011822D01*
X0127946Y0011856D01*
X0127915Y0011892D01*
X0127886Y0011931D01*
X0127860Y0011972D01*
X0127838Y0012015D01*
X0127819Y0012059D01*
X0127803Y0012104D01*
X0127790Y0012151D01*
X0127781Y0012198D01*
X0127776Y0012246D01*
X0127774Y0012294D01*
X0132744Y0011650D02*
X0132744Y0013583D01*
X0133550Y0013583D01*
X0133592Y0013581D01*
X0133634Y0013576D01*
X0133675Y0013567D01*
X0133715Y0013554D01*
X0133754Y0013538D01*
X0133792Y0013518D01*
X0133827Y0013496D01*
X0133860Y0013470D01*
X0133892Y0013442D01*
X0133920Y0013410D01*
X0133946Y0013377D01*
X0133968Y0013342D01*
X0133988Y0013304D01*
X0134004Y0013265D01*
X0134017Y0013225D01*
X0134026Y0013184D01*
X0134031Y0013142D01*
X0134033Y0013100D01*
X0134033Y0011650D01*
X0135432Y0011650D02*
X0135432Y0013583D01*
X0136238Y0013583D01*
X0136280Y0013581D01*
X0136322Y0013576D01*
X0136363Y0013567D01*
X0136403Y0013554D01*
X0136442Y0013538D01*
X0136480Y0013518D01*
X0136515Y0013496D01*
X0136548Y0013470D01*
X0136580Y0013442D01*
X0136608Y0013410D01*
X0136634Y0013377D01*
X0136656Y0013342D01*
X0136676Y0013304D01*
X0136692Y0013265D01*
X0136705Y0013225D01*
X0136714Y0013184D01*
X0136719Y0013142D01*
X0136721Y0013100D01*
X0136721Y0011650D01*
X0138024Y0012133D02*
X0138024Y0012939D01*
X0138024Y0012617D02*
X0139313Y0012617D01*
X0139313Y0012939D01*
X0139311Y0012988D01*
X0139305Y0013037D01*
X0139296Y0013086D01*
X0139283Y0013133D01*
X0139266Y0013180D01*
X0139246Y0013225D01*
X0139223Y0013268D01*
X0139196Y0013310D01*
X0139166Y0013349D01*
X0139133Y0013386D01*
X0139097Y0013420D01*
X0139059Y0013451D01*
X0139019Y0013480D01*
X0138977Y0013505D01*
X0138932Y0013527D01*
X0138887Y0013545D01*
X0138840Y0013560D01*
X0138792Y0013571D01*
X0138743Y0013579D01*
X0138694Y0013583D01*
X0138644Y0013583D01*
X0138595Y0013579D01*
X0138546Y0013571D01*
X0138498Y0013560D01*
X0138451Y0013545D01*
X0138406Y0013527D01*
X0138361Y0013505D01*
X0138319Y0013480D01*
X0138279Y0013451D01*
X0138241Y0013420D01*
X0138205Y0013386D01*
X0138172Y0013349D01*
X0138142Y0013310D01*
X0138115Y0013268D01*
X0138092Y0013225D01*
X0138072Y0013180D01*
X0138055Y0013133D01*
X0138042Y0013086D01*
X0138033Y0013037D01*
X0138027Y0012988D01*
X0138025Y0012939D01*
X0138025Y0012133D02*
X0138027Y0012091D01*
X0138032Y0012049D01*
X0138041Y0012008D01*
X0138054Y0011968D01*
X0138070Y0011929D01*
X0138090Y0011892D01*
X0138112Y0011856D01*
X0138138Y0011823D01*
X0138166Y0011791D01*
X0138198Y0011763D01*
X0138231Y0011737D01*
X0138267Y0011715D01*
X0138304Y0011695D01*
X0138343Y0011679D01*
X0138383Y0011666D01*
X0138424Y0011657D01*
X0138466Y0011652D01*
X0138508Y0011650D01*
X0139313Y0011650D01*
X0140524Y0012133D02*
X0140524Y0013100D01*
X0140526Y0013142D01*
X0140531Y0013184D01*
X0140540Y0013225D01*
X0140553Y0013265D01*
X0140569Y0013304D01*
X0140589Y0013342D01*
X0140611Y0013377D01*
X0140637Y0013410D01*
X0140665Y0013442D01*
X0140697Y0013470D01*
X0140730Y0013496D01*
X0140766Y0013518D01*
X0140803Y0013538D01*
X0140842Y0013554D01*
X0140882Y0013567D01*
X0140923Y0013576D01*
X0140965Y0013581D01*
X0141007Y0013583D01*
X0141652Y0013583D01*
X0142480Y0013583D02*
X0143447Y0013583D01*
X0142802Y0014550D02*
X0142802Y0012133D01*
X0142803Y0012133D02*
X0142805Y0012091D01*
X0142810Y0012049D01*
X0142819Y0012008D01*
X0142832Y0011968D01*
X0142848Y0011929D01*
X0142868Y0011892D01*
X0142890Y0011856D01*
X0142916Y0011823D01*
X0142944Y0011791D01*
X0142976Y0011763D01*
X0143009Y0011737D01*
X0143045Y0011715D01*
X0143082Y0011695D01*
X0143121Y0011679D01*
X0143161Y0011666D01*
X0143202Y0011657D01*
X0143244Y0011652D01*
X0143286Y0011650D01*
X0143447Y0011650D01*
X0141652Y0011650D02*
X0141007Y0011650D01*
X0140965Y0011652D01*
X0140923Y0011657D01*
X0140882Y0011666D01*
X0140842Y0011679D01*
X0140803Y0011695D01*
X0140766Y0011715D01*
X0140730Y0011737D01*
X0140697Y0011763D01*
X0140665Y0011791D01*
X0140637Y0011823D01*
X0140611Y0011856D01*
X0140589Y0011892D01*
X0140569Y0011929D01*
X0140553Y0011968D01*
X0140540Y0012008D01*
X0140531Y0012049D01*
X0140526Y0012091D01*
X0140524Y0012133D01*
X0146110Y0012294D02*
X0146110Y0013906D01*
X0146112Y0013957D01*
X0146118Y0014007D01*
X0146128Y0014056D01*
X0146142Y0014105D01*
X0146159Y0014152D01*
X0146180Y0014198D01*
X0146205Y0014242D01*
X0146233Y0014285D01*
X0146264Y0014324D01*
X0146299Y0014361D01*
X0146336Y0014396D01*
X0146375Y0014427D01*
X0146418Y0014455D01*
X0146462Y0014480D01*
X0146508Y0014501D01*
X0146555Y0014518D01*
X0146604Y0014532D01*
X0146653Y0014542D01*
X0146703Y0014548D01*
X0146754Y0014550D01*
X0147399Y0014550D01*
X0148835Y0013825D02*
X0150204Y0011650D01*
X0149318Y0011731D02*
X0150526Y0012617D01*
X0151515Y0012939D02*
X0152321Y0012939D01*
X0152482Y0012939D02*
X0153126Y0011650D01*
X0154236Y0011650D02*
X0154397Y0011650D01*
X0154397Y0011811D01*
X0154236Y0011811D01*
X0154236Y0011650D01*
X0152321Y0012938D02*
X0152376Y0012940D01*
X0152431Y0012946D01*
X0152485Y0012955D01*
X0152538Y0012968D01*
X0152591Y0012985D01*
X0152642Y0013005D01*
X0152692Y0013028D01*
X0152740Y0013055D01*
X0152786Y0013086D01*
X0152830Y0013119D01*
X0152871Y0013155D01*
X0152910Y0013194D01*
X0152946Y0013235D01*
X0152979Y0013279D01*
X0153010Y0013325D01*
X0153037Y0013373D01*
X0153060Y0013423D01*
X0153080Y0013474D01*
X0153097Y0013527D01*
X0153110Y0013580D01*
X0153119Y0013634D01*
X0153125Y0013689D01*
X0153127Y0013744D01*
X0153125Y0013799D01*
X0153119Y0013854D01*
X0153110Y0013908D01*
X0153097Y0013961D01*
X0153080Y0014014D01*
X0153060Y0014065D01*
X0153037Y0014115D01*
X0153010Y0014163D01*
X0152979Y0014209D01*
X0152946Y0014253D01*
X0152910Y0014294D01*
X0152871Y0014333D01*
X0152830Y0014369D01*
X0152786Y0014402D01*
X0152740Y0014433D01*
X0152692Y0014460D01*
X0152642Y0014483D01*
X0152591Y0014503D01*
X0152538Y0014520D01*
X0152485Y0014533D01*
X0152431Y0014542D01*
X0152376Y0014548D01*
X0152321Y0014550D01*
X0151515Y0014550D01*
X0151515Y0011650D01*
X0149318Y0011731D02*
X0149287Y0011710D01*
X0149255Y0011692D01*
X0149221Y0011677D01*
X0149186Y0011665D01*
X0149150Y0011657D01*
X0149113Y0011652D01*
X0149076Y0011650D01*
X0149034Y0011652D01*
X0148992Y0011657D01*
X0148951Y0011666D01*
X0148911Y0011679D01*
X0148872Y0011695D01*
X0148835Y0011715D01*
X0148799Y0011737D01*
X0148766Y0011763D01*
X0148734Y0011791D01*
X0148706Y0011823D01*
X0148680Y0011856D01*
X0148658Y0011892D01*
X0148638Y0011929D01*
X0148622Y0011968D01*
X0148609Y0012008D01*
X0148600Y0012049D01*
X0148595Y0012091D01*
X0148593Y0012133D01*
X0148673Y0012375D02*
X0149640Y0013825D01*
X0149639Y0013826D02*
X0149660Y0013862D01*
X0149677Y0013900D01*
X0149691Y0013940D01*
X0149701Y0013981D01*
X0149708Y0014022D01*
X0149711Y0014064D01*
X0149710Y0014106D01*
X0149705Y0014148D01*
X0149697Y0014189D01*
X0149685Y0014230D01*
X0149670Y0014269D01*
X0149651Y0014306D01*
X0149629Y0014342D01*
X0149604Y0014376D01*
X0149576Y0014407D01*
X0149546Y0014436D01*
X0149513Y0014462D01*
X0149477Y0014485D01*
X0149440Y0014504D01*
X0149402Y0014521D01*
X0149362Y0014533D01*
X0149321Y0014543D01*
X0149279Y0014548D01*
X0149237Y0014550D01*
X0149195Y0014548D01*
X0149153Y0014543D01*
X0149112Y0014533D01*
X0149072Y0014521D01*
X0149034Y0014504D01*
X0148997Y0014485D01*
X0148961Y0014462D01*
X0148928Y0014436D01*
X0148898Y0014407D01*
X0148870Y0014376D01*
X0148845Y0014342D01*
X0148823Y0014306D01*
X0148804Y0014269D01*
X0148789Y0014230D01*
X0148777Y0014189D01*
X0148769Y0014148D01*
X0148764Y0014106D01*
X0148763Y0014064D01*
X0148766Y0014022D01*
X0148773Y0013981D01*
X0148783Y0013940D01*
X0148797Y0013900D01*
X0148814Y0013862D01*
X0148835Y0013826D01*
X0148674Y0012375D02*
X0148653Y0012344D01*
X0148635Y0012312D01*
X0148620Y0012278D01*
X0148608Y0012243D01*
X0148600Y0012207D01*
X0148595Y0012170D01*
X0148593Y0012133D01*
X0147399Y0011650D02*
X0146754Y0011650D01*
X0146706Y0011652D01*
X0146658Y0011657D01*
X0146611Y0011666D01*
X0146564Y0011679D01*
X0146519Y0011695D01*
X0146475Y0011714D01*
X0146432Y0011736D01*
X0146391Y0011762D01*
X0146352Y0011791D01*
X0146316Y0011822D01*
X0146282Y0011856D01*
X0146251Y0011892D01*
X0146222Y0011931D01*
X0146196Y0011972D01*
X0146174Y0012015D01*
X0146155Y0012059D01*
X0146139Y0012104D01*
X0146126Y0012151D01*
X0146117Y0012198D01*
X0146112Y0012246D01*
X0146110Y0012294D01*
X0044109Y0011650D02*
X0043142Y0014550D01*
X0064393Y0170683D02*
X0064715Y0170683D01*
X0065682Y0173583D01*
X0064393Y0173583D02*
X0065037Y0171650D01*
X0063298Y0172133D02*
X0063298Y0173100D01*
X0063296Y0173142D01*
X0063291Y0173184D01*
X0063282Y0173225D01*
X0063269Y0173265D01*
X0063253Y0173304D01*
X0063233Y0173342D01*
X0063211Y0173377D01*
X0063185Y0173410D01*
X0063157Y0173442D01*
X0063125Y0173470D01*
X0063092Y0173496D01*
X0063057Y0173518D01*
X0063019Y0173538D01*
X0062980Y0173554D01*
X0062940Y0173567D01*
X0062899Y0173576D01*
X0062857Y0173581D01*
X0062815Y0173583D01*
X0062009Y0173583D01*
X0062009Y0174550D02*
X0062009Y0171650D01*
X0062815Y0171650D01*
X0062857Y0171652D01*
X0062899Y0171657D01*
X0062940Y0171666D01*
X0062980Y0171679D01*
X0063019Y0171695D01*
X0063057Y0171715D01*
X0063092Y0171737D01*
X0063125Y0171763D01*
X0063157Y0171791D01*
X0063185Y0171823D01*
X0063211Y0171856D01*
X0063233Y0171892D01*
X0063253Y0171929D01*
X0063269Y0171968D01*
X0063282Y0172008D01*
X0063291Y0172049D01*
X0063296Y0172091D01*
X0063298Y0172133D01*
X0057754Y0172053D02*
X0057716Y0172135D01*
X0057681Y0172218D01*
X0057649Y0172303D01*
X0057620Y0172388D01*
X0057595Y0172475D01*
X0057573Y0172563D01*
X0057555Y0172651D01*
X0057539Y0172740D01*
X0057527Y0172830D01*
X0057519Y0172919D01*
X0057514Y0173010D01*
X0057512Y0173100D01*
X0059123Y0173100D02*
X0059121Y0173190D01*
X0059116Y0173281D01*
X0059108Y0173370D01*
X0059096Y0173460D01*
X0059080Y0173549D01*
X0059062Y0173637D01*
X0059040Y0173725D01*
X0059015Y0173812D01*
X0058986Y0173897D01*
X0058954Y0173982D01*
X0058919Y0174065D01*
X0058881Y0174147D01*
X0058962Y0173906D02*
X0057673Y0172294D01*
X0058317Y0171650D02*
X0058363Y0171652D01*
X0058409Y0171657D01*
X0058454Y0171666D01*
X0058499Y0171678D01*
X0058542Y0171694D01*
X0058584Y0171713D01*
X0058625Y0171736D01*
X0058663Y0171761D01*
X0058700Y0171789D01*
X0058734Y0171820D01*
X0058766Y0171854D01*
X0058795Y0171890D01*
X0058821Y0171928D01*
X0058844Y0171968D01*
X0058864Y0172010D01*
X0058881Y0172053D01*
X0058317Y0171650D02*
X0058271Y0171652D01*
X0058225Y0171657D01*
X0058180Y0171666D01*
X0058135Y0171678D01*
X0058092Y0171694D01*
X0058050Y0171713D01*
X0058009Y0171736D01*
X0057971Y0171761D01*
X0057934Y0171789D01*
X0057900Y0171820D01*
X0057868Y0171854D01*
X0057839Y0171890D01*
X0057813Y0171928D01*
X0057790Y0171968D01*
X0057770Y0172010D01*
X0057753Y0172053D01*
X0056382Y0171811D02*
X0056382Y0171650D01*
X0056221Y0171650D01*
X0056221Y0171811D01*
X0056382Y0171811D01*
X0058881Y0172053D02*
X0058919Y0172135D01*
X0058954Y0172218D01*
X0058986Y0172303D01*
X0059015Y0172388D01*
X0059040Y0172475D01*
X0059062Y0172563D01*
X0059080Y0172651D01*
X0059096Y0172740D01*
X0059108Y0172830D01*
X0059116Y0172919D01*
X0059121Y0173010D01*
X0059123Y0173100D01*
X0057512Y0173100D02*
X0057514Y0173190D01*
X0057519Y0173281D01*
X0057527Y0173370D01*
X0057539Y0173460D01*
X0057555Y0173549D01*
X0057573Y0173637D01*
X0057595Y0173725D01*
X0057620Y0173812D01*
X0057649Y0173897D01*
X0057681Y0173982D01*
X0057716Y0174065D01*
X0057754Y0174147D01*
X0058317Y0174550D02*
X0058363Y0174548D01*
X0058409Y0174543D01*
X0058454Y0174534D01*
X0058499Y0174522D01*
X0058542Y0174506D01*
X0058584Y0174487D01*
X0058625Y0174464D01*
X0058663Y0174439D01*
X0058700Y0174411D01*
X0058734Y0174380D01*
X0058766Y0174346D01*
X0058795Y0174310D01*
X0058821Y0174272D01*
X0058844Y0174232D01*
X0058864Y0174190D01*
X0058881Y0174147D01*
X0058317Y0174550D02*
X0058271Y0174548D01*
X0058225Y0174543D01*
X0058180Y0174534D01*
X0058135Y0174522D01*
X0058092Y0174506D01*
X0058050Y0174487D01*
X0058009Y0174464D01*
X0057971Y0174439D01*
X0057934Y0174411D01*
X0057900Y0174380D01*
X0057868Y0174346D01*
X0057839Y0174310D01*
X0057813Y0174272D01*
X0057790Y0174232D01*
X0057770Y0174190D01*
X0057753Y0174147D01*
X0053480Y0173100D02*
X0053482Y0173010D01*
X0053487Y0172919D01*
X0053495Y0172830D01*
X0053507Y0172740D01*
X0053523Y0172651D01*
X0053541Y0172563D01*
X0053563Y0172475D01*
X0053588Y0172388D01*
X0053617Y0172303D01*
X0053649Y0172218D01*
X0053684Y0172135D01*
X0053722Y0172053D01*
X0053641Y0172294D02*
X0054930Y0173906D01*
X0054849Y0174147D02*
X0054832Y0174190D01*
X0054812Y0174232D01*
X0054789Y0174272D01*
X0054763Y0174310D01*
X0054734Y0174346D01*
X0054702Y0174380D01*
X0054668Y0174411D01*
X0054631Y0174439D01*
X0054593Y0174464D01*
X0054552Y0174487D01*
X0054510Y0174506D01*
X0054467Y0174522D01*
X0054422Y0174534D01*
X0054377Y0174543D01*
X0054331Y0174548D01*
X0054285Y0174550D01*
X0054239Y0174548D01*
X0054193Y0174543D01*
X0054148Y0174534D01*
X0054103Y0174522D01*
X0054060Y0174506D01*
X0054018Y0174487D01*
X0053977Y0174464D01*
X0053939Y0174439D01*
X0053902Y0174411D01*
X0053868Y0174380D01*
X0053836Y0174346D01*
X0053807Y0174310D01*
X0053781Y0174272D01*
X0053758Y0174232D01*
X0053738Y0174190D01*
X0053721Y0174147D01*
X0054849Y0174147D02*
X0054887Y0174065D01*
X0054922Y0173982D01*
X0054954Y0173897D01*
X0054983Y0173812D01*
X0055008Y0173725D01*
X0055030Y0173637D01*
X0055048Y0173549D01*
X0055064Y0173460D01*
X0055076Y0173370D01*
X0055084Y0173281D01*
X0055089Y0173190D01*
X0055091Y0173100D01*
X0053480Y0173100D02*
X0053482Y0173190D01*
X0053487Y0173281D01*
X0053495Y0173370D01*
X0053507Y0173460D01*
X0053523Y0173549D01*
X0053541Y0173637D01*
X0053563Y0173725D01*
X0053588Y0173812D01*
X0053617Y0173897D01*
X0053649Y0173982D01*
X0053684Y0174065D01*
X0053722Y0174147D01*
X0055091Y0173100D02*
X0055089Y0173010D01*
X0055084Y0172919D01*
X0055076Y0172830D01*
X0055064Y0172740D01*
X0055048Y0172651D01*
X0055030Y0172563D01*
X0055008Y0172475D01*
X0054983Y0172388D01*
X0054954Y0172303D01*
X0054922Y0172218D01*
X0054887Y0172135D01*
X0054849Y0172053D01*
X0054832Y0172010D01*
X0054812Y0171968D01*
X0054789Y0171928D01*
X0054763Y0171890D01*
X0054734Y0171854D01*
X0054702Y0171820D01*
X0054668Y0171789D01*
X0054631Y0171761D01*
X0054593Y0171736D01*
X0054552Y0171713D01*
X0054510Y0171694D01*
X0054467Y0171678D01*
X0054422Y0171666D01*
X0054377Y0171657D01*
X0054331Y0171652D01*
X0054285Y0171650D01*
X0054239Y0171652D01*
X0054193Y0171657D01*
X0054148Y0171666D01*
X0054103Y0171678D01*
X0054060Y0171694D01*
X0054018Y0171713D01*
X0053977Y0171736D01*
X0053939Y0171761D01*
X0053902Y0171789D01*
X0053868Y0171820D01*
X0053836Y0171854D01*
X0053807Y0171890D01*
X0053781Y0171928D01*
X0053758Y0171968D01*
X0053738Y0172010D01*
X0053721Y0172053D01*
X0052350Y0171811D02*
X0052350Y0171650D01*
X0052189Y0171650D01*
X0052189Y0171811D01*
X0052350Y0171811D01*
X0051059Y0171650D02*
X0049448Y0171650D01*
X0050254Y0171650D02*
X0050254Y0174550D01*
X0049448Y0173906D01*
X0046019Y0172939D02*
X0046663Y0171650D01*
X0045858Y0172939D02*
X0045052Y0172939D01*
X0045858Y0172938D02*
X0045913Y0172940D01*
X0045968Y0172946D01*
X0046022Y0172955D01*
X0046075Y0172968D01*
X0046128Y0172985D01*
X0046179Y0173005D01*
X0046229Y0173028D01*
X0046277Y0173055D01*
X0046323Y0173086D01*
X0046367Y0173119D01*
X0046408Y0173155D01*
X0046447Y0173194D01*
X0046483Y0173235D01*
X0046516Y0173279D01*
X0046547Y0173325D01*
X0046574Y0173373D01*
X0046597Y0173423D01*
X0046617Y0173474D01*
X0046634Y0173527D01*
X0046647Y0173580D01*
X0046656Y0173634D01*
X0046662Y0173689D01*
X0046664Y0173744D01*
X0046662Y0173799D01*
X0046656Y0173854D01*
X0046647Y0173908D01*
X0046634Y0173961D01*
X0046617Y0174014D01*
X0046597Y0174065D01*
X0046574Y0174115D01*
X0046547Y0174163D01*
X0046516Y0174209D01*
X0046483Y0174253D01*
X0046447Y0174294D01*
X0046408Y0174333D01*
X0046367Y0174369D01*
X0046323Y0174402D01*
X0046277Y0174433D01*
X0046229Y0174460D01*
X0046179Y0174483D01*
X0046128Y0174503D01*
X0046075Y0174520D01*
X0046022Y0174533D01*
X0045968Y0174542D01*
X0045913Y0174548D01*
X0045858Y0174550D01*
X0045052Y0174550D01*
X0045052Y0171650D01*
X0043831Y0171650D02*
X0042542Y0171650D01*
X0042542Y0174550D01*
X0043831Y0174550D01*
X0043509Y0173261D02*
X0042542Y0173261D01*
X0040945Y0172858D02*
X0040059Y0173342D01*
X0040381Y0174550D02*
X0040446Y0174548D01*
X0040510Y0174543D01*
X0040575Y0174534D01*
X0040638Y0174522D01*
X0040701Y0174507D01*
X0040763Y0174488D01*
X0040824Y0174466D01*
X0040883Y0174441D01*
X0040942Y0174412D01*
X0040998Y0174380D01*
X0041053Y0174346D01*
X0041106Y0174308D01*
X0040058Y0173342D02*
X0040018Y0173368D01*
X0039979Y0173397D01*
X0039942Y0173429D01*
X0039908Y0173464D01*
X0039877Y0173501D01*
X0039848Y0173540D01*
X0039822Y0173581D01*
X0039800Y0173624D01*
X0039781Y0173669D01*
X0039765Y0173715D01*
X0039752Y0173761D01*
X0039743Y0173809D01*
X0039738Y0173857D01*
X0039736Y0173906D01*
X0039737Y0173906D02*
X0039739Y0173954D01*
X0039744Y0174002D01*
X0039753Y0174049D01*
X0039766Y0174096D01*
X0039782Y0174141D01*
X0039801Y0174185D01*
X0039823Y0174228D01*
X0039849Y0174269D01*
X0039878Y0174308D01*
X0039909Y0174344D01*
X0039943Y0174378D01*
X0039979Y0174410D01*
X0040018Y0174438D01*
X0040059Y0174464D01*
X0040102Y0174486D01*
X0040146Y0174505D01*
X0040191Y0174521D01*
X0040238Y0174534D01*
X0040285Y0174543D01*
X0040333Y0174548D01*
X0040381Y0174550D01*
X0039657Y0172053D02*
X0039708Y0172003D01*
X0039763Y0171956D01*
X0039819Y0171913D01*
X0039878Y0171872D01*
X0039939Y0171834D01*
X0040002Y0171800D01*
X0040067Y0171769D01*
X0040133Y0171741D01*
X0040200Y0171717D01*
X0040269Y0171697D01*
X0040339Y0171680D01*
X0040409Y0171667D01*
X0040480Y0171658D01*
X0040551Y0171652D01*
X0040623Y0171650D01*
X0040671Y0171652D01*
X0040719Y0171657D01*
X0040766Y0171666D01*
X0040813Y0171679D01*
X0040858Y0171695D01*
X0040902Y0171714D01*
X0040945Y0171736D01*
X0040986Y0171762D01*
X0041025Y0171791D01*
X0041061Y0171822D01*
X0041095Y0171856D01*
X0041126Y0171892D01*
X0041155Y0171931D01*
X0041181Y0171972D01*
X0041203Y0172015D01*
X0041222Y0172059D01*
X0041238Y0172104D01*
X0041251Y0172151D01*
X0041260Y0172198D01*
X0041265Y0172246D01*
X0041267Y0172294D01*
X0041268Y0172294D02*
X0041266Y0172343D01*
X0041261Y0172391D01*
X0041252Y0172439D01*
X0041239Y0172485D01*
X0041223Y0172531D01*
X0041204Y0172576D01*
X0041182Y0172619D01*
X0041156Y0172660D01*
X0041127Y0172699D01*
X0041096Y0172736D01*
X0041062Y0172771D01*
X0041025Y0172803D01*
X0040986Y0172832D01*
X0040946Y0172858D01*
X0038644Y0174550D02*
X0037678Y0173181D01*
X0037678Y0171650D01*
X0037678Y0173181D02*
X0036711Y0174550D01*
X0035767Y0174550D02*
X0034478Y0174550D01*
X0034478Y0171650D01*
X0035767Y0171650D01*
X0035445Y0173261D02*
X0034478Y0173261D01*
X0033011Y0173261D02*
X0033011Y0171650D01*
X0032044Y0171650D01*
X0031996Y0171652D01*
X0031948Y0171657D01*
X0031901Y0171666D01*
X0031854Y0171679D01*
X0031809Y0171695D01*
X0031765Y0171714D01*
X0031722Y0171736D01*
X0031681Y0171762D01*
X0031642Y0171791D01*
X0031606Y0171822D01*
X0031572Y0171856D01*
X0031541Y0171892D01*
X0031512Y0171931D01*
X0031486Y0171972D01*
X0031464Y0172015D01*
X0031445Y0172059D01*
X0031429Y0172104D01*
X0031416Y0172151D01*
X0031407Y0172198D01*
X0031402Y0172246D01*
X0031400Y0172294D01*
X0031400Y0173906D01*
X0031402Y0173957D01*
X0031408Y0174007D01*
X0031418Y0174056D01*
X0031432Y0174105D01*
X0031449Y0174152D01*
X0031470Y0174198D01*
X0031495Y0174242D01*
X0031523Y0174285D01*
X0031554Y0174324D01*
X0031589Y0174361D01*
X0031626Y0174396D01*
X0031665Y0174427D01*
X0031708Y0174455D01*
X0031752Y0174480D01*
X0031798Y0174501D01*
X0031845Y0174518D01*
X0031894Y0174532D01*
X0031943Y0174542D01*
X0031993Y0174548D01*
X0032044Y0174550D01*
X0033011Y0174550D01*
X0033011Y0173261D02*
X0032528Y0173261D01*
X0068502Y0172939D02*
X0069308Y0172939D01*
X0069308Y0172938D02*
X0069363Y0172940D01*
X0069418Y0172946D01*
X0069472Y0172955D01*
X0069525Y0172968D01*
X0069578Y0172985D01*
X0069629Y0173005D01*
X0069679Y0173028D01*
X0069727Y0173055D01*
X0069773Y0173086D01*
X0069817Y0173119D01*
X0069858Y0173155D01*
X0069897Y0173194D01*
X0069933Y0173235D01*
X0069966Y0173279D01*
X0069997Y0173325D01*
X0070024Y0173373D01*
X0070047Y0173423D01*
X0070067Y0173474D01*
X0070084Y0173527D01*
X0070097Y0173580D01*
X0070106Y0173634D01*
X0070112Y0173689D01*
X0070114Y0173744D01*
X0070112Y0173799D01*
X0070106Y0173854D01*
X0070097Y0173908D01*
X0070084Y0173961D01*
X0070067Y0174014D01*
X0070047Y0174065D01*
X0070024Y0174115D01*
X0069997Y0174163D01*
X0069966Y0174209D01*
X0069933Y0174253D01*
X0069897Y0174294D01*
X0069858Y0174333D01*
X0069817Y0174369D01*
X0069773Y0174402D01*
X0069727Y0174433D01*
X0069679Y0174460D01*
X0069629Y0174483D01*
X0069578Y0174503D01*
X0069525Y0174520D01*
X0069472Y0174533D01*
X0069418Y0174542D01*
X0069363Y0174548D01*
X0069308Y0174550D01*
X0068502Y0174550D01*
X0068502Y0171650D01*
X0071181Y0171650D02*
X0071181Y0173583D01*
X0071101Y0174389D02*
X0071262Y0174389D01*
X0071262Y0174550D01*
X0071101Y0174550D01*
X0071101Y0174389D01*
X0072457Y0173583D02*
X0072457Y0171650D01*
X0073746Y0171650D02*
X0073746Y0173100D01*
X0073744Y0173142D01*
X0073739Y0173184D01*
X0073730Y0173225D01*
X0073717Y0173265D01*
X0073701Y0173304D01*
X0073681Y0173342D01*
X0073659Y0173377D01*
X0073633Y0173410D01*
X0073605Y0173442D01*
X0073573Y0173470D01*
X0073540Y0173496D01*
X0073505Y0173518D01*
X0073467Y0173538D01*
X0073428Y0173554D01*
X0073388Y0173567D01*
X0073347Y0173576D01*
X0073305Y0173581D01*
X0073263Y0173583D01*
X0072457Y0173583D01*
X0075049Y0172939D02*
X0075049Y0172133D01*
X0075051Y0172091D01*
X0075056Y0172049D01*
X0075065Y0172008D01*
X0075078Y0171968D01*
X0075094Y0171929D01*
X0075114Y0171892D01*
X0075136Y0171856D01*
X0075162Y0171823D01*
X0075190Y0171791D01*
X0075222Y0171763D01*
X0075255Y0171737D01*
X0075291Y0171715D01*
X0075328Y0171695D01*
X0075367Y0171679D01*
X0075407Y0171666D01*
X0075448Y0171657D01*
X0075490Y0171652D01*
X0075532Y0171650D01*
X0076338Y0171650D01*
X0076338Y0172617D02*
X0075049Y0172617D01*
X0075049Y0172939D02*
X0075051Y0172988D01*
X0075057Y0173037D01*
X0075066Y0173086D01*
X0075079Y0173133D01*
X0075096Y0173180D01*
X0075116Y0173225D01*
X0075139Y0173268D01*
X0075166Y0173310D01*
X0075196Y0173349D01*
X0075229Y0173386D01*
X0075265Y0173420D01*
X0075303Y0173451D01*
X0075343Y0173480D01*
X0075385Y0173505D01*
X0075430Y0173527D01*
X0075475Y0173545D01*
X0075522Y0173560D01*
X0075570Y0173571D01*
X0075619Y0173579D01*
X0075668Y0173583D01*
X0075718Y0173583D01*
X0075767Y0173579D01*
X0075816Y0173571D01*
X0075864Y0173560D01*
X0075911Y0173545D01*
X0075956Y0173527D01*
X0076001Y0173505D01*
X0076043Y0173480D01*
X0076083Y0173451D01*
X0076121Y0173420D01*
X0076157Y0173386D01*
X0076190Y0173349D01*
X0076220Y0173310D01*
X0076247Y0173268D01*
X0076270Y0173225D01*
X0076290Y0173180D01*
X0076307Y0173133D01*
X0076320Y0173086D01*
X0076329Y0173037D01*
X0076335Y0172988D01*
X0076337Y0172939D01*
X0076338Y0172939D02*
X0076338Y0172617D01*
X0077690Y0173583D02*
X0078334Y0173583D01*
X0078376Y0173581D01*
X0078418Y0173576D01*
X0078459Y0173567D01*
X0078499Y0173554D01*
X0078538Y0173538D01*
X0078576Y0173518D01*
X0078611Y0173496D01*
X0078644Y0173470D01*
X0078676Y0173442D01*
X0078704Y0173410D01*
X0078730Y0173377D01*
X0078752Y0173342D01*
X0078772Y0173304D01*
X0078788Y0173265D01*
X0078801Y0173225D01*
X0078810Y0173184D01*
X0078815Y0173142D01*
X0078817Y0173100D01*
X0078818Y0173100D02*
X0078818Y0171650D01*
X0078093Y0171650D01*
X0078046Y0171652D01*
X0078000Y0171658D01*
X0077955Y0171667D01*
X0077910Y0171681D01*
X0077866Y0171698D01*
X0077825Y0171718D01*
X0077785Y0171742D01*
X0077747Y0171769D01*
X0077711Y0171799D01*
X0077678Y0171832D01*
X0077648Y0171868D01*
X0077621Y0171906D01*
X0077597Y0171946D01*
X0077577Y0171987D01*
X0077560Y0172031D01*
X0077546Y0172076D01*
X0077537Y0172121D01*
X0077531Y0172167D01*
X0077529Y0172214D01*
X0077531Y0172261D01*
X0077537Y0172307D01*
X0077546Y0172352D01*
X0077560Y0172397D01*
X0077577Y0172441D01*
X0077597Y0172482D01*
X0077621Y0172522D01*
X0077648Y0172560D01*
X0077678Y0172596D01*
X0077711Y0172629D01*
X0077747Y0172659D01*
X0077785Y0172686D01*
X0077825Y0172710D01*
X0077866Y0172730D01*
X0077910Y0172747D01*
X0077955Y0172761D01*
X0078000Y0172770D01*
X0078046Y0172776D01*
X0078093Y0172778D01*
X0078818Y0172778D01*
X0080249Y0173583D02*
X0080249Y0170683D01*
X0080249Y0171650D02*
X0081055Y0171650D01*
X0081097Y0171652D01*
X0081139Y0171657D01*
X0081180Y0171666D01*
X0081220Y0171679D01*
X0081259Y0171695D01*
X0081297Y0171715D01*
X0081332Y0171737D01*
X0081365Y0171763D01*
X0081397Y0171791D01*
X0081425Y0171823D01*
X0081451Y0171856D01*
X0081473Y0171892D01*
X0081493Y0171929D01*
X0081509Y0171968D01*
X0081522Y0172008D01*
X0081531Y0172049D01*
X0081536Y0172091D01*
X0081538Y0172133D01*
X0081538Y0173100D01*
X0081536Y0173142D01*
X0081531Y0173184D01*
X0081522Y0173225D01*
X0081509Y0173265D01*
X0081493Y0173304D01*
X0081473Y0173342D01*
X0081451Y0173377D01*
X0081425Y0173410D01*
X0081397Y0173442D01*
X0081365Y0173470D01*
X0081332Y0173496D01*
X0081297Y0173518D01*
X0081259Y0173538D01*
X0081220Y0173554D01*
X0081180Y0173567D01*
X0081139Y0173576D01*
X0081097Y0173581D01*
X0081055Y0173583D01*
X0080249Y0173583D01*
X0082841Y0173583D02*
X0083647Y0173583D01*
X0083689Y0173581D01*
X0083731Y0173576D01*
X0083772Y0173567D01*
X0083812Y0173554D01*
X0083851Y0173538D01*
X0083889Y0173518D01*
X0083924Y0173496D01*
X0083957Y0173470D01*
X0083989Y0173442D01*
X0084017Y0173410D01*
X0084043Y0173377D01*
X0084065Y0173342D01*
X0084085Y0173304D01*
X0084101Y0173265D01*
X0084114Y0173225D01*
X0084123Y0173184D01*
X0084128Y0173142D01*
X0084130Y0173100D01*
X0084130Y0172133D01*
X0084128Y0172091D01*
X0084123Y0172049D01*
X0084114Y0172008D01*
X0084101Y0171968D01*
X0084085Y0171929D01*
X0084065Y0171892D01*
X0084043Y0171856D01*
X0084017Y0171823D01*
X0083989Y0171791D01*
X0083957Y0171763D01*
X0083924Y0171737D01*
X0083889Y0171715D01*
X0083851Y0171695D01*
X0083812Y0171679D01*
X0083772Y0171666D01*
X0083731Y0171657D01*
X0083689Y0171652D01*
X0083647Y0171650D01*
X0082841Y0171650D01*
X0082841Y0170683D02*
X0082841Y0173583D01*
X0085354Y0174550D02*
X0085354Y0172133D01*
X0085356Y0172091D01*
X0085361Y0172049D01*
X0085370Y0172008D01*
X0085383Y0171968D01*
X0085399Y0171929D01*
X0085419Y0171892D01*
X0085441Y0171856D01*
X0085467Y0171823D01*
X0085495Y0171791D01*
X0085527Y0171763D01*
X0085560Y0171737D01*
X0085596Y0171715D01*
X0085633Y0171695D01*
X0085672Y0171679D01*
X0085712Y0171666D01*
X0085753Y0171657D01*
X0085795Y0171652D01*
X0085837Y0171650D01*
X0086857Y0172133D02*
X0086857Y0172939D01*
X0086857Y0172617D02*
X0088146Y0172617D01*
X0088146Y0172939D01*
X0088145Y0172939D02*
X0088143Y0172988D01*
X0088137Y0173037D01*
X0088128Y0173086D01*
X0088115Y0173133D01*
X0088098Y0173180D01*
X0088078Y0173225D01*
X0088055Y0173268D01*
X0088028Y0173310D01*
X0087998Y0173349D01*
X0087965Y0173386D01*
X0087929Y0173420D01*
X0087891Y0173451D01*
X0087851Y0173480D01*
X0087809Y0173505D01*
X0087764Y0173527D01*
X0087719Y0173545D01*
X0087672Y0173560D01*
X0087624Y0173571D01*
X0087575Y0173579D01*
X0087526Y0173583D01*
X0087476Y0173583D01*
X0087427Y0173579D01*
X0087378Y0173571D01*
X0087330Y0173560D01*
X0087283Y0173545D01*
X0087238Y0173527D01*
X0087193Y0173505D01*
X0087151Y0173480D01*
X0087111Y0173451D01*
X0087073Y0173420D01*
X0087037Y0173386D01*
X0087004Y0173349D01*
X0086974Y0173310D01*
X0086947Y0173268D01*
X0086924Y0173225D01*
X0086904Y0173180D01*
X0086887Y0173133D01*
X0086874Y0173086D01*
X0086865Y0173037D01*
X0086859Y0172988D01*
X0086857Y0172939D01*
X0086857Y0172133D02*
X0086859Y0172091D01*
X0086864Y0172049D01*
X0086873Y0172008D01*
X0086886Y0171968D01*
X0086902Y0171929D01*
X0086922Y0171892D01*
X0086944Y0171856D01*
X0086970Y0171823D01*
X0086998Y0171791D01*
X0087030Y0171763D01*
X0087063Y0171737D01*
X0087099Y0171715D01*
X0087136Y0171695D01*
X0087175Y0171679D01*
X0087215Y0171666D01*
X0087256Y0171657D01*
X0087298Y0171652D01*
X0087340Y0171650D01*
X0088146Y0171650D01*
X0091016Y0171650D02*
X0091821Y0171650D01*
X0091016Y0171650D02*
X0091016Y0174550D01*
X0091821Y0174550D01*
X0091876Y0174548D01*
X0091931Y0174542D01*
X0091985Y0174533D01*
X0092038Y0174520D01*
X0092091Y0174503D01*
X0092142Y0174483D01*
X0092192Y0174460D01*
X0092240Y0174433D01*
X0092286Y0174402D01*
X0092330Y0174369D01*
X0092371Y0174333D01*
X0092410Y0174294D01*
X0092446Y0174253D01*
X0092479Y0174209D01*
X0092510Y0174163D01*
X0092537Y0174115D01*
X0092560Y0174065D01*
X0092580Y0174014D01*
X0092597Y0173961D01*
X0092610Y0173908D01*
X0092619Y0173854D01*
X0092625Y0173799D01*
X0092627Y0173744D01*
X0092627Y0172456D01*
X0092625Y0172401D01*
X0092619Y0172346D01*
X0092610Y0172292D01*
X0092597Y0172239D01*
X0092580Y0172186D01*
X0092560Y0172135D01*
X0092537Y0172085D01*
X0092510Y0172037D01*
X0092479Y0171991D01*
X0092446Y0171947D01*
X0092410Y0171906D01*
X0092371Y0171867D01*
X0092330Y0171831D01*
X0092286Y0171798D01*
X0092240Y0171767D01*
X0092192Y0171740D01*
X0092142Y0171717D01*
X0092091Y0171697D01*
X0092038Y0171680D01*
X0091985Y0171667D01*
X0091931Y0171658D01*
X0091876Y0171652D01*
X0091821Y0171650D01*
X0093961Y0172133D02*
X0093961Y0172939D01*
X0093961Y0172617D02*
X0095250Y0172617D01*
X0095250Y0172939D01*
X0095249Y0172939D02*
X0095247Y0172988D01*
X0095241Y0173037D01*
X0095232Y0173086D01*
X0095219Y0173133D01*
X0095202Y0173180D01*
X0095182Y0173225D01*
X0095159Y0173268D01*
X0095132Y0173310D01*
X0095102Y0173349D01*
X0095069Y0173386D01*
X0095033Y0173420D01*
X0094995Y0173451D01*
X0094955Y0173480D01*
X0094913Y0173505D01*
X0094868Y0173527D01*
X0094823Y0173545D01*
X0094776Y0173560D01*
X0094728Y0173571D01*
X0094679Y0173579D01*
X0094630Y0173583D01*
X0094580Y0173583D01*
X0094531Y0173579D01*
X0094482Y0173571D01*
X0094434Y0173560D01*
X0094387Y0173545D01*
X0094342Y0173527D01*
X0094297Y0173505D01*
X0094255Y0173480D01*
X0094215Y0173451D01*
X0094177Y0173420D01*
X0094141Y0173386D01*
X0094108Y0173349D01*
X0094078Y0173310D01*
X0094051Y0173268D01*
X0094028Y0173225D01*
X0094008Y0173180D01*
X0093991Y0173133D01*
X0093978Y0173086D01*
X0093969Y0173037D01*
X0093963Y0172988D01*
X0093961Y0172939D01*
X0093961Y0172133D02*
X0093963Y0172091D01*
X0093968Y0172049D01*
X0093977Y0172008D01*
X0093990Y0171968D01*
X0094006Y0171929D01*
X0094026Y0171892D01*
X0094048Y0171856D01*
X0094074Y0171823D01*
X0094102Y0171791D01*
X0094134Y0171763D01*
X0094167Y0171737D01*
X0094203Y0171715D01*
X0094240Y0171695D01*
X0094279Y0171679D01*
X0094319Y0171666D01*
X0094360Y0171657D01*
X0094402Y0171652D01*
X0094444Y0171650D01*
X0095250Y0171650D01*
X0096860Y0173584D02*
X0096943Y0173581D01*
X0097026Y0173574D01*
X0097108Y0173563D01*
X0097190Y0173549D01*
X0097271Y0173531D01*
X0097352Y0173509D01*
X0097431Y0173484D01*
X0097509Y0173455D01*
X0097585Y0173423D01*
X0096860Y0173584D02*
X0096820Y0173583D01*
X0096780Y0173577D01*
X0096741Y0173569D01*
X0096703Y0173556D01*
X0096667Y0173540D01*
X0096632Y0173520D01*
X0096599Y0173497D01*
X0096569Y0173471D01*
X0096541Y0173443D01*
X0096516Y0173412D01*
X0096494Y0173378D01*
X0096475Y0173343D01*
X0096460Y0173306D01*
X0096449Y0173267D01*
X0096441Y0173228D01*
X0096437Y0173188D01*
X0096436Y0173149D01*
X0096440Y0173109D01*
X0096447Y0173069D01*
X0096458Y0173031D01*
X0096473Y0172994D01*
X0096491Y0172958D01*
X0096513Y0172924D01*
X0096537Y0172893D01*
X0096565Y0172864D01*
X0096595Y0172838D01*
X0096628Y0172815D01*
X0096662Y0172795D01*
X0096699Y0172778D01*
X0097504Y0172456D01*
X0097541Y0172439D01*
X0097575Y0172419D01*
X0097608Y0172396D01*
X0097638Y0172370D01*
X0097666Y0172341D01*
X0097690Y0172310D01*
X0097712Y0172276D01*
X0097730Y0172240D01*
X0097745Y0172203D01*
X0097756Y0172165D01*
X0097763Y0172125D01*
X0097767Y0172085D01*
X0097766Y0172046D01*
X0097762Y0172006D01*
X0097754Y0171967D01*
X0097743Y0171928D01*
X0097728Y0171891D01*
X0097709Y0171856D01*
X0097687Y0171822D01*
X0097662Y0171791D01*
X0097634Y0171763D01*
X0097604Y0171737D01*
X0097571Y0171714D01*
X0097536Y0171694D01*
X0097500Y0171678D01*
X0097462Y0171665D01*
X0097423Y0171657D01*
X0097383Y0171651D01*
X0097343Y0171650D01*
X0098925Y0171650D02*
X0098925Y0173583D01*
X0098845Y0174389D02*
X0099006Y0174389D01*
X0099006Y0174550D01*
X0098845Y0174550D01*
X0098845Y0174389D01*
X0097343Y0171650D02*
X0097243Y0171654D01*
X0097142Y0171661D01*
X0097042Y0171671D01*
X0096943Y0171686D01*
X0096844Y0171704D01*
X0096746Y0171725D01*
X0096648Y0171750D01*
X0096552Y0171779D01*
X0096457Y0171811D01*
X0100089Y0172133D02*
X0100089Y0173100D01*
X0100091Y0173142D01*
X0100096Y0173184D01*
X0100105Y0173225D01*
X0100118Y0173265D01*
X0100134Y0173304D01*
X0100154Y0173342D01*
X0100176Y0173377D01*
X0100202Y0173410D01*
X0100230Y0173442D01*
X0100262Y0173470D01*
X0100295Y0173496D01*
X0100331Y0173518D01*
X0100368Y0173538D01*
X0100407Y0173554D01*
X0100447Y0173567D01*
X0100488Y0173576D01*
X0100530Y0173581D01*
X0100572Y0173583D01*
X0101378Y0173583D01*
X0101378Y0171167D01*
X0101378Y0171650D02*
X0100572Y0171650D01*
X0100530Y0171652D01*
X0100488Y0171657D01*
X0100447Y0171666D01*
X0100407Y0171679D01*
X0100368Y0171695D01*
X0100331Y0171715D01*
X0100295Y0171737D01*
X0100262Y0171763D01*
X0100230Y0171791D01*
X0100202Y0171823D01*
X0100176Y0171856D01*
X0100154Y0171892D01*
X0100134Y0171929D01*
X0100118Y0171968D01*
X0100105Y0172008D01*
X0100096Y0172049D01*
X0100091Y0172091D01*
X0100089Y0172133D01*
X0101377Y0171167D02*
X0101375Y0171125D01*
X0101370Y0171083D01*
X0101361Y0171042D01*
X0101348Y0171002D01*
X0101332Y0170963D01*
X0101312Y0170926D01*
X0101290Y0170890D01*
X0101264Y0170857D01*
X0101236Y0170825D01*
X0101204Y0170797D01*
X0101171Y0170771D01*
X0101136Y0170749D01*
X0101098Y0170729D01*
X0101059Y0170713D01*
X0101019Y0170700D01*
X0100978Y0170691D01*
X0100936Y0170686D01*
X0100894Y0170684D01*
X0100894Y0170683D02*
X0100250Y0170683D01*
X0102793Y0171650D02*
X0102793Y0173583D01*
X0103598Y0173583D01*
X0103640Y0173581D01*
X0103682Y0173576D01*
X0103723Y0173567D01*
X0103763Y0173554D01*
X0103802Y0173538D01*
X0103840Y0173518D01*
X0103875Y0173496D01*
X0103908Y0173470D01*
X0103940Y0173442D01*
X0103968Y0173410D01*
X0103994Y0173377D01*
X0104016Y0173342D01*
X0104036Y0173304D01*
X0104052Y0173265D01*
X0104065Y0173225D01*
X0104074Y0173184D01*
X0104079Y0173142D01*
X0104081Y0173100D01*
X0104082Y0173100D02*
X0104082Y0171650D01*
D11*
X0060069Y0085319D02*
X0060069Y0057524D01*
X0012431Y0057524D01*
X0012431Y0085319D01*
X0060069Y0085319D01*
X0066250Y0077500D02*
X0066250Y0076500D01*
X0069250Y0076500D01*
X0069250Y0056500D01*
X0066250Y0056500D01*
X0066250Y0055500D01*
X0066250Y0056500D02*
X0063250Y0056500D01*
X0063250Y0076500D01*
X0066250Y0076500D01*
X0063750Y0074000D02*
X0068750Y0074000D01*
X0103356Y0035063D02*
X0103356Y0017937D01*
X0149144Y0017937D01*
X0149144Y0035063D01*
X0103356Y0035063D01*
D12*
X0028992Y0021750D02*
X0028359Y0023650D01*
X0029626Y0023650D02*
X0028992Y0021750D01*
X0030624Y0022278D02*
X0030624Y0023122D01*
X0030626Y0023167D01*
X0030632Y0023211D01*
X0030641Y0023255D01*
X0030654Y0023298D01*
X0030671Y0023339D01*
X0030691Y0023380D01*
X0030715Y0023418D01*
X0030741Y0023454D01*
X0030771Y0023487D01*
X0030803Y0023518D01*
X0030838Y0023547D01*
X0030875Y0023572D01*
X0030914Y0023593D01*
X0030955Y0023612D01*
X0030997Y0023627D01*
X0031041Y0023638D01*
X0031085Y0023646D01*
X0031130Y0023650D01*
X0031174Y0023650D01*
X0031219Y0023646D01*
X0031263Y0023638D01*
X0031307Y0023627D01*
X0031349Y0023612D01*
X0031390Y0023593D01*
X0031429Y0023572D01*
X0031466Y0023547D01*
X0031501Y0023518D01*
X0031533Y0023487D01*
X0031563Y0023454D01*
X0031589Y0023418D01*
X0031613Y0023380D01*
X0031633Y0023339D01*
X0031650Y0023298D01*
X0031663Y0023255D01*
X0031672Y0023211D01*
X0031678Y0023167D01*
X0031680Y0023122D01*
X0031680Y0022278D01*
X0031678Y0022233D01*
X0031672Y0022189D01*
X0031663Y0022145D01*
X0031650Y0022102D01*
X0031633Y0022061D01*
X0031613Y0022020D01*
X0031589Y0021982D01*
X0031563Y0021946D01*
X0031533Y0021913D01*
X0031501Y0021882D01*
X0031466Y0021853D01*
X0031429Y0021828D01*
X0031390Y0021807D01*
X0031349Y0021788D01*
X0031307Y0021773D01*
X0031263Y0021762D01*
X0031219Y0021754D01*
X0031174Y0021750D01*
X0031130Y0021750D01*
X0031085Y0021754D01*
X0031041Y0021762D01*
X0030997Y0021773D01*
X0030955Y0021788D01*
X0030914Y0021807D01*
X0030875Y0021828D01*
X0030838Y0021853D01*
X0030803Y0021882D01*
X0030771Y0021913D01*
X0030741Y0021946D01*
X0030715Y0021982D01*
X0030691Y0022020D01*
X0030671Y0022061D01*
X0030654Y0022102D01*
X0030641Y0022145D01*
X0030632Y0022189D01*
X0030626Y0022233D01*
X0030624Y0022278D01*
X0032856Y0022278D02*
X0032856Y0023650D01*
X0033912Y0023650D02*
X0033912Y0022278D01*
X0033910Y0022233D01*
X0033904Y0022189D01*
X0033895Y0022145D01*
X0033882Y0022102D01*
X0033865Y0022061D01*
X0033845Y0022020D01*
X0033821Y0021982D01*
X0033795Y0021946D01*
X0033765Y0021913D01*
X0033733Y0021882D01*
X0033698Y0021853D01*
X0033661Y0021828D01*
X0033622Y0021807D01*
X0033581Y0021788D01*
X0033539Y0021773D01*
X0033495Y0021762D01*
X0033451Y0021754D01*
X0033406Y0021750D01*
X0033362Y0021750D01*
X0033317Y0021754D01*
X0033273Y0021762D01*
X0033229Y0021773D01*
X0033187Y0021788D01*
X0033146Y0021807D01*
X0033107Y0021828D01*
X0033070Y0021853D01*
X0033035Y0021882D01*
X0033003Y0021913D01*
X0032973Y0021946D01*
X0032947Y0021982D01*
X0032923Y0022020D01*
X0032903Y0022061D01*
X0032886Y0022102D01*
X0032873Y0022145D01*
X0032864Y0022189D01*
X0032858Y0022233D01*
X0032856Y0022278D01*
X0034944Y0023650D02*
X0036000Y0023650D01*
X0035472Y0023650D02*
X0035472Y0021750D01*
X0040500Y0030250D02*
X0043000Y0030250D01*
X0043060Y0030252D01*
X0043121Y0030257D01*
X0043180Y0030266D01*
X0043239Y0030279D01*
X0043298Y0030295D01*
X0043355Y0030315D01*
X0043410Y0030338D01*
X0043465Y0030365D01*
X0043517Y0030394D01*
X0043568Y0030427D01*
X0043617Y0030463D01*
X0043663Y0030501D01*
X0043707Y0030543D01*
X0043749Y0030587D01*
X0043787Y0030633D01*
X0043823Y0030682D01*
X0043856Y0030733D01*
X0043885Y0030785D01*
X0043912Y0030840D01*
X0043935Y0030895D01*
X0043955Y0030952D01*
X0043971Y0031011D01*
X0043984Y0031070D01*
X0043993Y0031129D01*
X0043998Y0031190D01*
X0044000Y0031250D01*
X0044000Y0032250D01*
X0044000Y0034015D02*
X0044000Y0036515D01*
X0044000Y0035265D02*
X0039500Y0035265D01*
X0040500Y0034015D01*
X0039500Y0032250D02*
X0039500Y0031250D01*
X0039502Y0031190D01*
X0039507Y0031129D01*
X0039516Y0031070D01*
X0039529Y0031011D01*
X0039545Y0030952D01*
X0039565Y0030895D01*
X0039588Y0030840D01*
X0039615Y0030785D01*
X0039644Y0030733D01*
X0039677Y0030682D01*
X0039713Y0030633D01*
X0039751Y0030587D01*
X0039793Y0030543D01*
X0039837Y0030501D01*
X0039883Y0030463D01*
X0039932Y0030427D01*
X0039983Y0030394D01*
X0040035Y0030365D01*
X0040090Y0030338D01*
X0040145Y0030315D01*
X0040202Y0030295D01*
X0040261Y0030279D01*
X0040320Y0030266D01*
X0040379Y0030257D01*
X0040440Y0030252D01*
X0040500Y0030250D01*
X0065000Y0058750D02*
X0065000Y0060000D01*
X0065000Y0058750D02*
X0069500Y0058750D01*
X0069500Y0060000D01*
X0069498Y0060068D01*
X0069493Y0060135D01*
X0069484Y0060202D01*
X0069471Y0060269D01*
X0069454Y0060334D01*
X0069435Y0060399D01*
X0069411Y0060463D01*
X0069384Y0060525D01*
X0069354Y0060586D01*
X0069321Y0060644D01*
X0069285Y0060701D01*
X0069245Y0060756D01*
X0069203Y0060809D01*
X0069157Y0060860D01*
X0069110Y0060907D01*
X0069059Y0060953D01*
X0069006Y0060995D01*
X0068951Y0061035D01*
X0068894Y0061071D01*
X0068836Y0061104D01*
X0068775Y0061134D01*
X0068713Y0061161D01*
X0068649Y0061185D01*
X0068584Y0061204D01*
X0068519Y0061221D01*
X0068452Y0061234D01*
X0068385Y0061243D01*
X0068318Y0061248D01*
X0068250Y0061250D01*
X0066250Y0061250D01*
X0066182Y0061248D01*
X0066115Y0061243D01*
X0066048Y0061234D01*
X0065981Y0061221D01*
X0065916Y0061204D01*
X0065851Y0061185D01*
X0065787Y0061161D01*
X0065725Y0061134D01*
X0065664Y0061104D01*
X0065606Y0061071D01*
X0065549Y0061035D01*
X0065494Y0060995D01*
X0065441Y0060953D01*
X0065390Y0060907D01*
X0065343Y0060860D01*
X0065297Y0060809D01*
X0065255Y0060756D01*
X0065215Y0060701D01*
X0065179Y0060644D01*
X0065146Y0060586D01*
X0065116Y0060525D01*
X0065089Y0060463D01*
X0065065Y0060399D01*
X0065046Y0060334D01*
X0065029Y0060269D01*
X0065016Y0060202D01*
X0065007Y0060135D01*
X0065002Y0060068D01*
X0065000Y0060000D01*
X0066000Y0063400D02*
X0065000Y0064650D01*
X0069500Y0064650D01*
X0069500Y0063400D02*
X0069500Y0065900D01*
X0076500Y0043250D02*
X0079000Y0043250D01*
X0077750Y0043250D02*
X0077750Y0038750D01*
X0080700Y0038750D02*
X0083200Y0038750D01*
X0081950Y0038750D02*
X0081950Y0043250D01*
X0080700Y0042250D01*
X0086900Y0041500D02*
X0086900Y0043500D01*
X0086902Y0043569D01*
X0086908Y0043638D01*
X0086917Y0043706D01*
X0086930Y0043773D01*
X0086947Y0043840D01*
X0086968Y0043906D01*
X0086992Y0043970D01*
X0087020Y0044033D01*
X0087051Y0044095D01*
X0087085Y0044155D01*
X0087123Y0044212D01*
X0087164Y0044268D01*
X0087207Y0044321D01*
X0087254Y0044372D01*
X0087303Y0044420D01*
X0087355Y0044465D01*
X0087410Y0044507D01*
X0087466Y0044546D01*
X0087525Y0044583D01*
X0087586Y0044615D01*
X0087648Y0044645D01*
X0087712Y0044671D01*
X0087777Y0044693D01*
X0087843Y0044712D01*
X0087910Y0044727D01*
X0087978Y0044738D01*
X0088047Y0044746D01*
X0088116Y0044750D01*
X0088184Y0044750D01*
X0088253Y0044746D01*
X0088322Y0044738D01*
X0088390Y0044727D01*
X0088457Y0044712D01*
X0088523Y0044693D01*
X0088588Y0044671D01*
X0088652Y0044645D01*
X0088714Y0044615D01*
X0088775Y0044583D01*
X0088834Y0044546D01*
X0088890Y0044507D01*
X0088945Y0044465D01*
X0088997Y0044420D01*
X0089046Y0044372D01*
X0089093Y0044321D01*
X0089136Y0044268D01*
X0089177Y0044212D01*
X0089215Y0044155D01*
X0089249Y0044095D01*
X0089280Y0044033D01*
X0089308Y0043970D01*
X0089332Y0043906D01*
X0089353Y0043840D01*
X0089370Y0043773D01*
X0089383Y0043706D01*
X0089392Y0043638D01*
X0089398Y0043569D01*
X0089400Y0043500D01*
X0089400Y0041500D01*
X0089398Y0041431D01*
X0089392Y0041362D01*
X0089383Y0041294D01*
X0089370Y0041227D01*
X0089353Y0041160D01*
X0089332Y0041094D01*
X0089308Y0041030D01*
X0089280Y0040967D01*
X0089249Y0040905D01*
X0089215Y0040845D01*
X0089177Y0040788D01*
X0089136Y0040732D01*
X0089093Y0040679D01*
X0089046Y0040628D01*
X0088997Y0040580D01*
X0088945Y0040535D01*
X0088890Y0040493D01*
X0088834Y0040454D01*
X0088775Y0040417D01*
X0088714Y0040385D01*
X0088652Y0040355D01*
X0088588Y0040329D01*
X0088523Y0040307D01*
X0088457Y0040288D01*
X0088390Y0040273D01*
X0088322Y0040262D01*
X0088253Y0040254D01*
X0088184Y0040250D01*
X0088116Y0040250D01*
X0088047Y0040254D01*
X0087978Y0040262D01*
X0087910Y0040273D01*
X0087843Y0040288D01*
X0087777Y0040307D01*
X0087712Y0040329D01*
X0087648Y0040355D01*
X0087586Y0040385D01*
X0087525Y0040417D01*
X0087466Y0040454D01*
X0087410Y0040493D01*
X0087355Y0040535D01*
X0087303Y0040580D01*
X0087254Y0040628D01*
X0087207Y0040679D01*
X0087164Y0040732D01*
X0087123Y0040788D01*
X0087085Y0040845D01*
X0087051Y0040905D01*
X0087020Y0040967D01*
X0086992Y0041030D01*
X0086968Y0041094D01*
X0086947Y0041160D01*
X0086930Y0041227D01*
X0086917Y0041294D01*
X0086908Y0041362D01*
X0086902Y0041431D01*
X0086900Y0041500D01*
X0091550Y0040250D02*
X0091550Y0044750D01*
X0094050Y0040250D01*
X0094050Y0044750D01*
X0096250Y0042000D02*
X0099250Y0042000D01*
X0101150Y0040250D02*
X0102150Y0040250D01*
X0101650Y0040250D02*
X0101650Y0044750D01*
X0101150Y0044750D02*
X0102150Y0044750D01*
X0104150Y0044750D02*
X0104150Y0040250D01*
X0106650Y0040250D02*
X0106650Y0044750D01*
X0108500Y0044750D02*
X0111000Y0044750D01*
X0109750Y0044750D02*
X0109750Y0040250D01*
X0106650Y0040250D02*
X0104150Y0044750D01*
X0112602Y0038150D02*
X0113235Y0036250D01*
X0113868Y0038150D01*
X0114867Y0037622D02*
X0114867Y0036778D01*
X0114869Y0036733D01*
X0114875Y0036689D01*
X0114884Y0036645D01*
X0114897Y0036602D01*
X0114914Y0036561D01*
X0114934Y0036520D01*
X0114958Y0036482D01*
X0114984Y0036446D01*
X0115014Y0036413D01*
X0115046Y0036382D01*
X0115081Y0036353D01*
X0115118Y0036328D01*
X0115157Y0036307D01*
X0115198Y0036288D01*
X0115240Y0036273D01*
X0115284Y0036262D01*
X0115328Y0036254D01*
X0115373Y0036250D01*
X0115417Y0036250D01*
X0115462Y0036254D01*
X0115506Y0036262D01*
X0115550Y0036273D01*
X0115592Y0036288D01*
X0115633Y0036307D01*
X0115672Y0036328D01*
X0115709Y0036353D01*
X0115744Y0036382D01*
X0115776Y0036413D01*
X0115806Y0036446D01*
X0115832Y0036482D01*
X0115856Y0036520D01*
X0115876Y0036561D01*
X0115893Y0036602D01*
X0115906Y0036645D01*
X0115915Y0036689D01*
X0115921Y0036733D01*
X0115923Y0036778D01*
X0115923Y0037622D01*
X0115921Y0037667D01*
X0115915Y0037711D01*
X0115906Y0037755D01*
X0115893Y0037798D01*
X0115876Y0037839D01*
X0115856Y0037880D01*
X0115832Y0037918D01*
X0115806Y0037954D01*
X0115776Y0037987D01*
X0115744Y0038018D01*
X0115709Y0038047D01*
X0115672Y0038072D01*
X0115633Y0038093D01*
X0115592Y0038112D01*
X0115550Y0038127D01*
X0115506Y0038138D01*
X0115462Y0038146D01*
X0115417Y0038150D01*
X0115373Y0038150D01*
X0115328Y0038146D01*
X0115284Y0038138D01*
X0115240Y0038127D01*
X0115198Y0038112D01*
X0115157Y0038093D01*
X0115118Y0038072D01*
X0115081Y0038047D01*
X0115046Y0038018D01*
X0115014Y0037987D01*
X0114984Y0037954D01*
X0114958Y0037918D01*
X0114934Y0037880D01*
X0114914Y0037839D01*
X0114897Y0037798D01*
X0114884Y0037755D01*
X0114875Y0037711D01*
X0114869Y0037667D01*
X0114867Y0037622D01*
X0117107Y0038150D02*
X0117107Y0036250D01*
X0117951Y0036250D01*
X0119283Y0036250D02*
X0119283Y0038150D01*
X0118755Y0038150D02*
X0119811Y0038150D01*
X0121299Y0038150D02*
X0121932Y0036250D01*
X0121774Y0036725D02*
X0120824Y0036725D01*
X0120666Y0036250D02*
X0121299Y0038150D01*
X0123003Y0037728D02*
X0123003Y0036672D01*
X0123005Y0036633D01*
X0123010Y0036594D01*
X0123019Y0036557D01*
X0123031Y0036520D01*
X0123047Y0036484D01*
X0123066Y0036450D01*
X0123088Y0036418D01*
X0123113Y0036388D01*
X0123141Y0036360D01*
X0123171Y0036335D01*
X0123203Y0036313D01*
X0123237Y0036294D01*
X0123273Y0036278D01*
X0123310Y0036266D01*
X0123347Y0036257D01*
X0123386Y0036252D01*
X0123425Y0036250D01*
X0124059Y0036250D01*
X0124059Y0037306D01*
X0123742Y0037306D01*
X0123003Y0037728D02*
X0123005Y0037767D01*
X0123010Y0037806D01*
X0123019Y0037843D01*
X0123031Y0037880D01*
X0123047Y0037916D01*
X0123066Y0037950D01*
X0123088Y0037982D01*
X0123113Y0038012D01*
X0123141Y0038040D01*
X0123171Y0038065D01*
X0123203Y0038087D01*
X0123237Y0038106D01*
X0123273Y0038121D01*
X0123310Y0038134D01*
X0123347Y0038143D01*
X0123386Y0038148D01*
X0123425Y0038150D01*
X0124059Y0038150D01*
X0125315Y0038150D02*
X0125315Y0036250D01*
X0126159Y0036250D01*
X0125948Y0037306D02*
X0125315Y0037306D01*
X0125315Y0038150D02*
X0126159Y0038150D01*
X0127145Y0036989D02*
X0128412Y0036989D01*
X0129747Y0037358D02*
X0130327Y0037042D01*
X0130116Y0036250D02*
X0130057Y0036252D01*
X0129999Y0036258D01*
X0129941Y0036267D01*
X0129884Y0036281D01*
X0129828Y0036298D01*
X0129773Y0036319D01*
X0129720Y0036343D01*
X0129668Y0036371D01*
X0129618Y0036402D01*
X0129571Y0036436D01*
X0129525Y0036474D01*
X0129483Y0036514D01*
X0130328Y0037042D02*
X0130362Y0037019D01*
X0130393Y0036994D01*
X0130422Y0036966D01*
X0130449Y0036935D01*
X0130472Y0036902D01*
X0130492Y0036867D01*
X0130509Y0036830D01*
X0130522Y0036792D01*
X0130531Y0036753D01*
X0130537Y0036712D01*
X0130539Y0036672D01*
X0130538Y0036672D02*
X0130536Y0036633D01*
X0130531Y0036594D01*
X0130522Y0036557D01*
X0130510Y0036520D01*
X0130494Y0036484D01*
X0130475Y0036450D01*
X0130453Y0036418D01*
X0130428Y0036388D01*
X0130400Y0036360D01*
X0130370Y0036335D01*
X0130338Y0036313D01*
X0130304Y0036294D01*
X0130268Y0036278D01*
X0130231Y0036266D01*
X0130194Y0036257D01*
X0130155Y0036252D01*
X0130116Y0036250D01*
X0130433Y0037992D02*
X0130391Y0038021D01*
X0130348Y0038047D01*
X0130303Y0038071D01*
X0130256Y0038092D01*
X0130208Y0038109D01*
X0130160Y0038124D01*
X0130110Y0038135D01*
X0130060Y0038143D01*
X0130009Y0038148D01*
X0129958Y0038150D01*
X0129919Y0038148D01*
X0129880Y0038143D01*
X0129843Y0038134D01*
X0129806Y0038122D01*
X0129770Y0038106D01*
X0129736Y0038087D01*
X0129704Y0038065D01*
X0129674Y0038040D01*
X0129646Y0038012D01*
X0129621Y0037982D01*
X0129599Y0037950D01*
X0129580Y0037916D01*
X0129564Y0037880D01*
X0129552Y0037843D01*
X0129543Y0037806D01*
X0129538Y0037767D01*
X0129536Y0037728D01*
X0129538Y0037688D01*
X0129544Y0037647D01*
X0129553Y0037608D01*
X0129566Y0037570D01*
X0129583Y0037533D01*
X0129603Y0037498D01*
X0129626Y0037465D01*
X0129653Y0037434D01*
X0129682Y0037406D01*
X0129713Y0037381D01*
X0129747Y0037358D01*
X0131651Y0037306D02*
X0132284Y0037306D01*
X0132495Y0038150D02*
X0131651Y0038150D01*
X0131651Y0036250D01*
X0132495Y0036250D01*
X0133523Y0036250D02*
X0133523Y0038150D01*
X0135395Y0038150D02*
X0135395Y0036250D01*
X0136239Y0036250D01*
X0137176Y0036672D02*
X0137176Y0037728D01*
X0137178Y0037767D01*
X0137183Y0037806D01*
X0137192Y0037843D01*
X0137204Y0037880D01*
X0137220Y0037916D01*
X0137239Y0037950D01*
X0137261Y0037982D01*
X0137286Y0038012D01*
X0137314Y0038040D01*
X0137344Y0038065D01*
X0137376Y0038087D01*
X0137410Y0038106D01*
X0137446Y0038121D01*
X0137483Y0038134D01*
X0137520Y0038143D01*
X0137559Y0038148D01*
X0137598Y0038150D01*
X0138020Y0038150D01*
X0138843Y0038150D02*
X0139898Y0038150D01*
X0139371Y0038150D02*
X0139371Y0036250D01*
X0138020Y0036250D02*
X0137598Y0036250D01*
X0137559Y0036252D01*
X0137520Y0036257D01*
X0137483Y0036266D01*
X0137446Y0036278D01*
X0137410Y0036294D01*
X0137376Y0036313D01*
X0137344Y0036335D01*
X0137314Y0036360D01*
X0137286Y0036388D01*
X0137261Y0036418D01*
X0137239Y0036450D01*
X0137220Y0036484D01*
X0137204Y0036520D01*
X0137192Y0036557D01*
X0137183Y0036594D01*
X0137178Y0036633D01*
X0137176Y0036672D01*
X0136028Y0037306D02*
X0135395Y0037306D01*
X0135395Y0038150D02*
X0136239Y0038150D01*
X0137460Y0040250D02*
X0137460Y0044750D01*
X0139460Y0044750D01*
X0139460Y0042750D02*
X0137460Y0042750D01*
X0135560Y0042750D02*
X0133560Y0042750D01*
X0133560Y0044750D02*
X0133560Y0040250D01*
X0131400Y0041500D02*
X0131400Y0043500D01*
X0131398Y0043569D01*
X0131392Y0043638D01*
X0131383Y0043706D01*
X0131370Y0043773D01*
X0131353Y0043840D01*
X0131332Y0043906D01*
X0131308Y0043970D01*
X0131280Y0044033D01*
X0131249Y0044095D01*
X0131215Y0044155D01*
X0131177Y0044212D01*
X0131136Y0044268D01*
X0131093Y0044321D01*
X0131046Y0044372D01*
X0130997Y0044420D01*
X0130945Y0044465D01*
X0130890Y0044507D01*
X0130834Y0044546D01*
X0130775Y0044583D01*
X0130714Y0044615D01*
X0130652Y0044645D01*
X0130588Y0044671D01*
X0130523Y0044693D01*
X0130457Y0044712D01*
X0130390Y0044727D01*
X0130322Y0044738D01*
X0130253Y0044746D01*
X0130184Y0044750D01*
X0130116Y0044750D01*
X0130047Y0044746D01*
X0129978Y0044738D01*
X0129910Y0044727D01*
X0129843Y0044712D01*
X0129777Y0044693D01*
X0129712Y0044671D01*
X0129648Y0044645D01*
X0129586Y0044615D01*
X0129525Y0044583D01*
X0129466Y0044546D01*
X0129410Y0044507D01*
X0129355Y0044465D01*
X0129303Y0044420D01*
X0129254Y0044372D01*
X0129207Y0044321D01*
X0129164Y0044268D01*
X0129123Y0044212D01*
X0129085Y0044155D01*
X0129051Y0044095D01*
X0129020Y0044033D01*
X0128992Y0043970D01*
X0128968Y0043906D01*
X0128947Y0043840D01*
X0128930Y0043773D01*
X0128917Y0043706D01*
X0128908Y0043638D01*
X0128902Y0043569D01*
X0128900Y0043500D01*
X0128900Y0041500D01*
X0128902Y0041431D01*
X0128908Y0041362D01*
X0128917Y0041294D01*
X0128930Y0041227D01*
X0128947Y0041160D01*
X0128968Y0041094D01*
X0128992Y0041030D01*
X0129020Y0040967D01*
X0129051Y0040905D01*
X0129085Y0040845D01*
X0129123Y0040788D01*
X0129164Y0040732D01*
X0129207Y0040679D01*
X0129254Y0040628D01*
X0129303Y0040580D01*
X0129355Y0040535D01*
X0129410Y0040493D01*
X0129466Y0040454D01*
X0129525Y0040417D01*
X0129586Y0040385D01*
X0129648Y0040355D01*
X0129712Y0040329D01*
X0129777Y0040307D01*
X0129843Y0040288D01*
X0129910Y0040273D01*
X0129978Y0040262D01*
X0130047Y0040254D01*
X0130116Y0040250D01*
X0130184Y0040250D01*
X0130253Y0040254D01*
X0130322Y0040262D01*
X0130390Y0040273D01*
X0130457Y0040288D01*
X0130523Y0040307D01*
X0130588Y0040329D01*
X0130652Y0040355D01*
X0130714Y0040385D01*
X0130775Y0040417D01*
X0130834Y0040454D01*
X0130890Y0040493D01*
X0130945Y0040535D01*
X0130997Y0040580D01*
X0131046Y0040628D01*
X0131093Y0040679D01*
X0131136Y0040732D01*
X0131177Y0040788D01*
X0131215Y0040845D01*
X0131249Y0040905D01*
X0131280Y0040967D01*
X0131308Y0041030D01*
X0131332Y0041094D01*
X0131353Y0041160D01*
X0131370Y0041227D01*
X0131383Y0041294D01*
X0131392Y0041362D01*
X0131398Y0041431D01*
X0131400Y0041500D01*
X0133560Y0044750D02*
X0135560Y0044750D01*
X0141250Y0042000D02*
X0144250Y0042000D01*
X0146150Y0040250D02*
X0147150Y0040250D01*
X0146650Y0040250D02*
X0146650Y0044750D01*
X0146150Y0044750D02*
X0147150Y0044750D01*
X0149150Y0044750D02*
X0151650Y0040250D01*
X0151650Y0044750D01*
X0153500Y0044750D02*
X0156000Y0044750D01*
X0154750Y0044750D02*
X0154750Y0040250D01*
X0149150Y0040250D02*
X0149150Y0044750D01*
X0134367Y0036250D02*
X0133523Y0036250D01*
X0166500Y0023650D02*
X0167133Y0021750D01*
X0167767Y0023650D01*
X0168650Y0023650D02*
X0169072Y0023650D01*
X0168861Y0023650D02*
X0168861Y0021750D01*
X0168650Y0021750D02*
X0169072Y0021750D01*
X0170134Y0021750D02*
X0170134Y0023650D01*
X0171189Y0021750D01*
X0171189Y0023650D01*
X0171570Y0055350D02*
X0170726Y0055350D01*
X0170726Y0057250D01*
X0171570Y0057250D01*
X0171359Y0056406D02*
X0170726Y0056406D01*
X0169699Y0055350D02*
X0168854Y0055350D01*
X0168854Y0057250D01*
X0172590Y0057250D02*
X0172590Y0055350D01*
X0173118Y0055350D01*
X0173162Y0055352D01*
X0173205Y0055357D01*
X0173248Y0055366D01*
X0173289Y0055379D01*
X0173330Y0055394D01*
X0173369Y0055414D01*
X0173407Y0055436D01*
X0173442Y0055461D01*
X0173476Y0055490D01*
X0173506Y0055520D01*
X0173535Y0055554D01*
X0173560Y0055589D01*
X0173582Y0055627D01*
X0173602Y0055666D01*
X0173617Y0055707D01*
X0173630Y0055748D01*
X0173639Y0055791D01*
X0173644Y0055834D01*
X0173646Y0055878D01*
X0173646Y0056722D01*
X0173644Y0056766D01*
X0173639Y0056809D01*
X0173630Y0056852D01*
X0173617Y0056893D01*
X0173602Y0056934D01*
X0173582Y0056973D01*
X0173560Y0057011D01*
X0173535Y0057046D01*
X0173506Y0057080D01*
X0173476Y0057110D01*
X0173442Y0057139D01*
X0173407Y0057164D01*
X0173369Y0057186D01*
X0173330Y0057206D01*
X0173289Y0057221D01*
X0173248Y0057234D01*
X0173205Y0057243D01*
X0173162Y0057248D01*
X0173118Y0057250D01*
X0172590Y0057250D01*
X0191250Y0090500D02*
X0191250Y0162500D01*
X0001250Y0162500D01*
X0001250Y0090500D01*
X0191250Y0090500D01*
X0094498Y0020000D02*
X0078002Y0020000D01*
X0080722Y0026000D02*
X0081778Y0026000D01*
X0076748Y0022028D02*
X0076852Y0021813D01*
X0076961Y0021600D01*
X0077075Y0021390D01*
X0077194Y0021183D01*
X0077317Y0020978D01*
X0077445Y0020776D01*
X0077578Y0020577D01*
X0077715Y0020382D01*
X0077856Y0020189D01*
X0078002Y0020000D01*
X0076750Y0030972D02*
X0076862Y0031202D01*
X0076979Y0031429D01*
X0077101Y0031653D01*
X0077229Y0031874D01*
X0077363Y0032091D01*
X0077501Y0032306D01*
X0077645Y0032517D01*
X0077794Y0032724D01*
X0077948Y0032928D01*
X0078106Y0033128D01*
X0078270Y0033324D01*
X0078438Y0033516D01*
X0078611Y0033704D01*
X0078789Y0033888D01*
X0078970Y0034067D01*
X0079157Y0034242D01*
X0079347Y0034412D01*
X0079541Y0034577D01*
X0079740Y0034738D01*
X0079942Y0034894D01*
X0080148Y0035045D01*
X0080358Y0035191D01*
X0080571Y0035331D01*
X0080787Y0035467D01*
X0081007Y0035597D01*
X0081230Y0035722D01*
X0081455Y0035841D01*
X0081684Y0035955D01*
X0081915Y0036063D01*
X0082149Y0036166D01*
X0082385Y0036263D01*
X0082624Y0036354D01*
X0082864Y0036439D01*
X0083107Y0036519D01*
X0083352Y0036592D01*
X0083598Y0036660D01*
X0083846Y0036721D01*
X0084095Y0036776D01*
X0084345Y0036826D01*
X0084597Y0036869D01*
X0084850Y0036906D01*
X0085103Y0036937D01*
X0085357Y0036962D01*
X0085612Y0036981D01*
X0085867Y0036993D01*
X0086122Y0036999D01*
X0086378Y0036999D01*
X0086633Y0036993D01*
X0086888Y0036981D01*
X0087143Y0036962D01*
X0087397Y0036937D01*
X0087650Y0036906D01*
X0087903Y0036869D01*
X0088155Y0036826D01*
X0088405Y0036776D01*
X0088654Y0036721D01*
X0088902Y0036660D01*
X0089148Y0036592D01*
X0089393Y0036519D01*
X0089636Y0036439D01*
X0089876Y0036354D01*
X0090115Y0036263D01*
X0090351Y0036166D01*
X0090585Y0036063D01*
X0090816Y0035955D01*
X0091045Y0035841D01*
X0091270Y0035722D01*
X0091493Y0035597D01*
X0091713Y0035467D01*
X0091929Y0035331D01*
X0092142Y0035191D01*
X0092352Y0035045D01*
X0092558Y0034894D01*
X0092760Y0034738D01*
X0092959Y0034577D01*
X0093153Y0034412D01*
X0093343Y0034242D01*
X0093530Y0034067D01*
X0093711Y0033888D01*
X0093889Y0033704D01*
X0094062Y0033516D01*
X0094230Y0033324D01*
X0094394Y0033128D01*
X0094552Y0032928D01*
X0094706Y0032724D01*
X0094855Y0032517D01*
X0094999Y0032306D01*
X0095137Y0032091D01*
X0095271Y0031874D01*
X0095399Y0031653D01*
X0095521Y0031429D01*
X0095638Y0031202D01*
X0095750Y0030972D01*
X0091778Y0026000D02*
X0090722Y0026000D01*
X0095796Y0022122D02*
X0095689Y0021897D01*
X0095577Y0021674D01*
X0095460Y0021454D01*
X0095338Y0021237D01*
X0095210Y0021022D01*
X0095077Y0020811D01*
X0094940Y0020603D01*
X0094797Y0020399D01*
X0094650Y0020197D01*
X0094498Y0020000D01*
D13*
X0061450Y0023800D02*
X0057950Y0023800D01*
X0057950Y0024772D01*
X0057952Y0024833D01*
X0057958Y0024894D01*
X0057967Y0024954D01*
X0057981Y0025014D01*
X0057998Y0025072D01*
X0058018Y0025130D01*
X0058043Y0025186D01*
X0058070Y0025240D01*
X0058101Y0025293D01*
X0058136Y0025343D01*
X0058173Y0025392D01*
X0058213Y0025437D01*
X0058257Y0025481D01*
X0058302Y0025521D01*
X0058351Y0025558D01*
X0058401Y0025593D01*
X0058454Y0025624D01*
X0058508Y0025651D01*
X0058564Y0025676D01*
X0058622Y0025696D01*
X0058680Y0025713D01*
X0058740Y0025727D01*
X0058800Y0025736D01*
X0058861Y0025742D01*
X0058922Y0025744D01*
X0058983Y0025742D01*
X0059044Y0025736D01*
X0059104Y0025727D01*
X0059164Y0025713D01*
X0059222Y0025696D01*
X0059280Y0025676D01*
X0059336Y0025651D01*
X0059390Y0025624D01*
X0059443Y0025593D01*
X0059493Y0025558D01*
X0059542Y0025521D01*
X0059587Y0025481D01*
X0059631Y0025437D01*
X0059671Y0025392D01*
X0059708Y0025343D01*
X0059743Y0025293D01*
X0059774Y0025240D01*
X0059801Y0025186D01*
X0059826Y0025130D01*
X0059846Y0025072D01*
X0059863Y0025014D01*
X0059877Y0024954D01*
X0059886Y0024894D01*
X0059892Y0024833D01*
X0059894Y0024772D01*
X0059894Y0023800D01*
X0059894Y0024967D02*
X0061450Y0025744D01*
X0061450Y0027284D02*
X0061450Y0029229D01*
X0061450Y0028256D02*
X0057950Y0028256D01*
X0058728Y0027284D01*
X0049499Y0069200D02*
X0049499Y0071628D01*
X0051032Y0073800D01*
X0049499Y0071628D02*
X0047965Y0073800D01*
X0044999Y0073800D02*
X0046532Y0069200D01*
X0046149Y0070350D02*
X0043849Y0070350D01*
X0043465Y0069200D02*
X0044999Y0073800D01*
X0039980Y0073800D02*
X0039980Y0069200D01*
X0042024Y0069200D01*
X0038124Y0069200D02*
X0036080Y0069200D01*
X0036080Y0073800D01*
X0038124Y0073800D01*
X0037613Y0071756D02*
X0036080Y0071756D01*
X0032983Y0071244D02*
X0034006Y0069200D01*
X0032728Y0071244D02*
X0031450Y0071244D01*
X0032728Y0071244D02*
X0032798Y0071246D01*
X0032869Y0071252D01*
X0032938Y0071261D01*
X0033007Y0071275D01*
X0033076Y0071292D01*
X0033143Y0071313D01*
X0033209Y0071338D01*
X0033273Y0071366D01*
X0033336Y0071398D01*
X0033397Y0071433D01*
X0033456Y0071472D01*
X0033513Y0071513D01*
X0033567Y0071558D01*
X0033619Y0071606D01*
X0033668Y0071656D01*
X0033715Y0071710D01*
X0033758Y0071765D01*
X0033798Y0071823D01*
X0033835Y0071883D01*
X0033868Y0071945D01*
X0033898Y0072009D01*
X0033925Y0072074D01*
X0033948Y0072140D01*
X0033967Y0072208D01*
X0033982Y0072277D01*
X0033994Y0072346D01*
X0034002Y0072416D01*
X0034006Y0072487D01*
X0034006Y0072557D01*
X0034002Y0072628D01*
X0033994Y0072698D01*
X0033982Y0072767D01*
X0033967Y0072836D01*
X0033948Y0072904D01*
X0033925Y0072970D01*
X0033898Y0073035D01*
X0033868Y0073099D01*
X0033835Y0073161D01*
X0033798Y0073221D01*
X0033758Y0073279D01*
X0033715Y0073334D01*
X0033668Y0073388D01*
X0033619Y0073438D01*
X0033567Y0073486D01*
X0033513Y0073531D01*
X0033456Y0073572D01*
X0033397Y0073611D01*
X0033336Y0073646D01*
X0033273Y0073678D01*
X0033209Y0073706D01*
X0033143Y0073731D01*
X0033076Y0073752D01*
X0033007Y0073769D01*
X0032938Y0073783D01*
X0032869Y0073792D01*
X0032798Y0073798D01*
X0032728Y0073800D01*
X0031450Y0073800D01*
X0031450Y0069200D01*
X0178550Y0071300D02*
X0178550Y0074800D01*
X0179522Y0074800D01*
X0179583Y0074798D01*
X0179644Y0074792D01*
X0179704Y0074783D01*
X0179764Y0074769D01*
X0179822Y0074752D01*
X0179880Y0074732D01*
X0179936Y0074707D01*
X0179990Y0074680D01*
X0180043Y0074649D01*
X0180093Y0074614D01*
X0180142Y0074577D01*
X0180187Y0074537D01*
X0180231Y0074493D01*
X0180271Y0074448D01*
X0180308Y0074399D01*
X0180343Y0074349D01*
X0180374Y0074296D01*
X0180401Y0074242D01*
X0180426Y0074186D01*
X0180446Y0074128D01*
X0180463Y0074070D01*
X0180477Y0074010D01*
X0180486Y0073950D01*
X0180492Y0073889D01*
X0180494Y0073828D01*
X0180492Y0073767D01*
X0180486Y0073706D01*
X0180477Y0073646D01*
X0180463Y0073586D01*
X0180446Y0073528D01*
X0180426Y0073470D01*
X0180401Y0073414D01*
X0180374Y0073360D01*
X0180343Y0073307D01*
X0180308Y0073257D01*
X0180271Y0073208D01*
X0180231Y0073163D01*
X0180187Y0073119D01*
X0180142Y0073079D01*
X0180093Y0073042D01*
X0180043Y0073007D01*
X0179990Y0072976D01*
X0179936Y0072949D01*
X0179880Y0072924D01*
X0179822Y0072904D01*
X0179764Y0072887D01*
X0179704Y0072873D01*
X0179644Y0072864D01*
X0179583Y0072858D01*
X0179522Y0072856D01*
X0178550Y0072856D01*
X0179717Y0072856D02*
X0180494Y0071300D01*
X0182034Y0071300D02*
X0183979Y0071300D01*
X0182034Y0071300D02*
X0183687Y0073244D01*
X0183104Y0074800D02*
X0183040Y0074798D01*
X0182976Y0074793D01*
X0182912Y0074784D01*
X0182849Y0074771D01*
X0182787Y0074754D01*
X0182726Y0074735D01*
X0182666Y0074711D01*
X0182608Y0074685D01*
X0182551Y0074655D01*
X0182496Y0074621D01*
X0182443Y0074585D01*
X0182392Y0074546D01*
X0182344Y0074504D01*
X0182297Y0074459D01*
X0182254Y0074412D01*
X0182213Y0074362D01*
X0182176Y0074310D01*
X0182141Y0074256D01*
X0182109Y0074200D01*
X0182081Y0074142D01*
X0182056Y0074083D01*
X0182035Y0074022D01*
X0183687Y0073244D02*
X0183728Y0073286D01*
X0183767Y0073330D01*
X0183802Y0073377D01*
X0183835Y0073425D01*
X0183865Y0073476D01*
X0183891Y0073528D01*
X0183914Y0073582D01*
X0183934Y0073637D01*
X0183950Y0073693D01*
X0183963Y0073750D01*
X0183972Y0073808D01*
X0183977Y0073866D01*
X0183979Y0073925D01*
X0183977Y0073982D01*
X0183972Y0074039D01*
X0183962Y0074096D01*
X0183949Y0074151D01*
X0183933Y0074206D01*
X0183912Y0074260D01*
X0183889Y0074312D01*
X0183862Y0074363D01*
X0183832Y0074411D01*
X0183798Y0074458D01*
X0183762Y0074502D01*
X0183723Y0074544D01*
X0183681Y0074583D01*
X0183637Y0074619D01*
X0183590Y0074653D01*
X0183542Y0074683D01*
X0183491Y0074710D01*
X0183439Y0074733D01*
X0183385Y0074754D01*
X0183330Y0074770D01*
X0183275Y0074783D01*
X0183218Y0074793D01*
X0183161Y0074798D01*
X0183104Y0074800D01*
D14*
X0177250Y0078000D02*
X0176250Y0078000D01*
X0175750Y0078500D01*
X0166750Y0078500D01*
X0166250Y0078000D01*
X0165250Y0078000D01*
X0165190Y0078002D01*
X0165129Y0078007D01*
X0165070Y0078016D01*
X0165011Y0078029D01*
X0164952Y0078045D01*
X0164895Y0078065D01*
X0164840Y0078088D01*
X0164785Y0078115D01*
X0164733Y0078144D01*
X0164682Y0078177D01*
X0164633Y0078213D01*
X0164587Y0078251D01*
X0164543Y0078293D01*
X0164501Y0078337D01*
X0164463Y0078383D01*
X0164427Y0078432D01*
X0164394Y0078483D01*
X0164365Y0078535D01*
X0164338Y0078590D01*
X0164315Y0078645D01*
X0164295Y0078702D01*
X0164279Y0078761D01*
X0164266Y0078820D01*
X0164257Y0078879D01*
X0164252Y0078940D01*
X0164250Y0079000D01*
X0164250Y0084000D02*
X0164252Y0084060D01*
X0164257Y0084121D01*
X0164266Y0084180D01*
X0164279Y0084239D01*
X0164295Y0084298D01*
X0164315Y0084355D01*
X0164338Y0084410D01*
X0164365Y0084465D01*
X0164394Y0084517D01*
X0164427Y0084568D01*
X0164463Y0084617D01*
X0164501Y0084663D01*
X0164543Y0084707D01*
X0164587Y0084749D01*
X0164633Y0084787D01*
X0164682Y0084823D01*
X0164733Y0084856D01*
X0164785Y0084885D01*
X0164840Y0084912D01*
X0164895Y0084935D01*
X0164952Y0084955D01*
X0165011Y0084971D01*
X0165070Y0084984D01*
X0165129Y0084993D01*
X0165190Y0084998D01*
X0165250Y0085000D01*
X0166250Y0085000D01*
X0166750Y0084500D01*
X0175750Y0084500D01*
X0176250Y0085000D01*
X0177250Y0085000D01*
X0177310Y0084998D01*
X0177371Y0084993D01*
X0177430Y0084984D01*
X0177489Y0084971D01*
X0177548Y0084955D01*
X0177605Y0084935D01*
X0177660Y0084912D01*
X0177715Y0084885D01*
X0177767Y0084856D01*
X0177818Y0084823D01*
X0177867Y0084787D01*
X0177913Y0084749D01*
X0177957Y0084707D01*
X0177999Y0084663D01*
X0178037Y0084617D01*
X0178073Y0084568D01*
X0178106Y0084517D01*
X0178135Y0084465D01*
X0178162Y0084410D01*
X0178185Y0084355D01*
X0178205Y0084298D01*
X0178221Y0084239D01*
X0178234Y0084180D01*
X0178243Y0084121D01*
X0178248Y0084060D01*
X0178250Y0084000D01*
X0178250Y0079000D02*
X0178248Y0078940D01*
X0178243Y0078879D01*
X0178234Y0078820D01*
X0178221Y0078761D01*
X0178205Y0078702D01*
X0178185Y0078645D01*
X0178162Y0078590D01*
X0178135Y0078535D01*
X0178106Y0078483D01*
X0178073Y0078432D01*
X0178037Y0078383D01*
X0177999Y0078337D01*
X0177957Y0078293D01*
X0177913Y0078251D01*
X0177867Y0078213D01*
X0177818Y0078177D01*
X0177767Y0078144D01*
X0177715Y0078115D01*
X0177660Y0078088D01*
X0177605Y0078065D01*
X0177548Y0078045D01*
X0177489Y0078029D01*
X0177430Y0078016D01*
X0177371Y0078007D01*
X0177310Y0078002D01*
X0177250Y0078000D01*
X0156250Y0084500D02*
X0156250Y0048500D01*
X0156248Y0048413D01*
X0156242Y0048326D01*
X0156233Y0048239D01*
X0156220Y0048153D01*
X0156203Y0048067D01*
X0156182Y0047982D01*
X0156157Y0047899D01*
X0156129Y0047816D01*
X0156098Y0047735D01*
X0156063Y0047655D01*
X0156024Y0047577D01*
X0155982Y0047500D01*
X0155937Y0047425D01*
X0155888Y0047353D01*
X0155837Y0047282D01*
X0155782Y0047214D01*
X0155725Y0047149D01*
X0155664Y0047086D01*
X0155601Y0047025D01*
X0155536Y0046968D01*
X0155468Y0046913D01*
X0155397Y0046862D01*
X0155325Y0046813D01*
X0155250Y0046768D01*
X0155173Y0046726D01*
X0155095Y0046687D01*
X0155015Y0046652D01*
X0154934Y0046621D01*
X0154851Y0046593D01*
X0154768Y0046568D01*
X0154683Y0046547D01*
X0154597Y0046530D01*
X0154511Y0046517D01*
X0154424Y0046508D01*
X0154337Y0046502D01*
X0154250Y0046500D01*
X0118250Y0046500D01*
X0118163Y0046502D01*
X0118076Y0046508D01*
X0117989Y0046517D01*
X0117903Y0046530D01*
X0117817Y0046547D01*
X0117732Y0046568D01*
X0117649Y0046593D01*
X0117566Y0046621D01*
X0117485Y0046652D01*
X0117405Y0046687D01*
X0117327Y0046726D01*
X0117250Y0046768D01*
X0117175Y0046813D01*
X0117103Y0046862D01*
X0117032Y0046913D01*
X0116964Y0046968D01*
X0116899Y0047025D01*
X0116836Y0047086D01*
X0116775Y0047149D01*
X0116718Y0047214D01*
X0116663Y0047282D01*
X0116612Y0047353D01*
X0116563Y0047425D01*
X0116518Y0047500D01*
X0116476Y0047577D01*
X0116437Y0047655D01*
X0116402Y0047735D01*
X0116371Y0047816D01*
X0116343Y0047899D01*
X0116318Y0047982D01*
X0116297Y0048067D01*
X0116280Y0048153D01*
X0116267Y0048239D01*
X0116258Y0048326D01*
X0116252Y0048413D01*
X0116250Y0048500D01*
X0116250Y0080500D01*
X0122250Y0086500D01*
X0154250Y0086500D01*
X0154337Y0086498D01*
X0154424Y0086492D01*
X0154511Y0086483D01*
X0154597Y0086470D01*
X0154683Y0086453D01*
X0154768Y0086432D01*
X0154851Y0086407D01*
X0154934Y0086379D01*
X0155015Y0086348D01*
X0155095Y0086313D01*
X0155173Y0086274D01*
X0155250Y0086232D01*
X0155325Y0086187D01*
X0155397Y0086138D01*
X0155468Y0086087D01*
X0155536Y0086032D01*
X0155601Y0085975D01*
X0155664Y0085914D01*
X0155725Y0085851D01*
X0155782Y0085786D01*
X0155837Y0085718D01*
X0155888Y0085647D01*
X0155937Y0085575D01*
X0155982Y0085500D01*
X0156024Y0085423D01*
X0156063Y0085345D01*
X0156098Y0085265D01*
X0156129Y0085184D01*
X0156157Y0085101D01*
X0156182Y0085018D01*
X0156203Y0084933D01*
X0156220Y0084847D01*
X0156233Y0084761D01*
X0156242Y0084674D01*
X0156248Y0084587D01*
X0156250Y0084500D01*
X0146650Y0075500D02*
X0146650Y0074600D01*
X0146050Y0074100D01*
X0142650Y0074300D01*
X0144250Y0072600D01*
X0145450Y0071900D02*
X0145050Y0071200D01*
X0145750Y0069500D01*
X0146650Y0069300D01*
X0147450Y0069700D01*
X0147650Y0070200D01*
X0148250Y0070100D01*
X0149050Y0070500D01*
X0149350Y0071000D01*
X0148650Y0072700D01*
X0147650Y0072900D01*
X0147350Y0071000D02*
X0147650Y0070200D01*
X0148150Y0067700D02*
X0148150Y0065300D01*
X0146350Y0065900D02*
X0150050Y0065900D01*
X0148150Y0067700D01*
X0144850Y0066500D02*
X0143350Y0066500D01*
X0142750Y0069300D02*
X0144250Y0069900D01*
X0142350Y0072500D02*
X0141350Y0071500D01*
X0139250Y0073000D02*
X0139850Y0074300D01*
X0140450Y0075600D02*
X0141950Y0078900D01*
X0140750Y0078700D01*
X0139850Y0075800D02*
X0140950Y0075300D01*
X0144550Y0076600D02*
X0145650Y0076600D01*
X0146650Y0075500D01*
X0137450Y0077300D02*
X0137450Y0079700D01*
X0136850Y0080300D01*
X0135650Y0080300D01*
X0135050Y0079700D01*
X0135050Y0077300D01*
X0135650Y0076600D01*
X0136850Y0076600D01*
X0137450Y0077300D01*
X0136250Y0075200D02*
X0136250Y0073700D01*
X0133450Y0073100D02*
X0132850Y0074500D01*
X0131550Y0075300D02*
X0130750Y0077000D01*
X0132150Y0077600D01*
X0130750Y0077000D02*
X0129950Y0078700D01*
X0131850Y0079600D01*
X0127250Y0077200D02*
X0125550Y0075500D01*
X0126950Y0074100D01*
X0127850Y0075000D01*
X0126950Y0074100D02*
X0128350Y0072700D01*
X0129950Y0074200D01*
X0130150Y0072600D02*
X0131150Y0071600D01*
X0129650Y0069300D02*
X0128350Y0069800D01*
X0127350Y0071100D02*
X0127050Y0071900D01*
X0124550Y0073100D01*
X0123850Y0072800D01*
X0123050Y0071100D01*
X0126650Y0069500D01*
X0127350Y0071100D01*
X0127550Y0066500D02*
X0129050Y0066500D01*
X0126450Y0063900D02*
X0125750Y0064000D01*
X0125050Y0063700D01*
X0124650Y0062900D01*
X0125450Y0061100D01*
X0123850Y0060300D01*
X0123050Y0062100D01*
X0123250Y0062700D01*
X0124050Y0063100D01*
X0124650Y0062900D01*
X0125450Y0061100D02*
X0127250Y0061900D01*
X0126450Y0063900D01*
X0128150Y0063200D02*
X0129750Y0063900D01*
X0131150Y0061400D02*
X0130150Y0060400D01*
X0130250Y0058500D02*
X0129050Y0057300D01*
X0128250Y0056500D01*
X0126450Y0056700D01*
X0126250Y0058500D01*
X0127050Y0059300D01*
X0128250Y0060500D01*
X0127050Y0059300D02*
X0129050Y0057300D01*
X0130250Y0056300D02*
X0131450Y0057100D01*
X0133250Y0056900D01*
X0132050Y0055500D02*
X0130250Y0056300D01*
X0129650Y0055300D01*
X0129850Y0054100D01*
X0131050Y0053500D01*
X0132050Y0053700D01*
X0132450Y0054500D01*
X0132050Y0055500D01*
X0134950Y0055200D02*
X0135550Y0054600D01*
X0136750Y0054600D01*
X0137350Y0055200D01*
X0137350Y0055800D01*
X0136750Y0056400D01*
X0135550Y0056400D01*
X0134950Y0055800D01*
X0134950Y0055200D01*
X0135550Y0054600D02*
X0134950Y0054000D01*
X0134950Y0053400D01*
X0135550Y0052700D01*
X0136750Y0052700D01*
X0137350Y0053400D01*
X0137350Y0054000D01*
X0136750Y0054600D01*
X0136250Y0057900D02*
X0136250Y0059400D01*
X0133250Y0060000D02*
X0132650Y0058700D01*
X0138850Y0059800D02*
X0139450Y0058300D01*
X0140650Y0057500D02*
X0140850Y0056900D01*
X0140050Y0053900D01*
X0140250Y0053300D01*
X0142450Y0054300D01*
X0145050Y0055700D02*
X0145850Y0057100D01*
X0145450Y0058900D01*
X0144650Y0059700D01*
X0143650Y0059700D01*
X0142650Y0058700D01*
X0142650Y0057700D01*
X0143050Y0057300D01*
X0144050Y0057300D01*
X0145450Y0058900D01*
X0146550Y0060700D02*
X0145550Y0061200D01*
X0145250Y0062000D01*
X0145750Y0063000D01*
X0146550Y0063300D01*
X0147650Y0062800D02*
X0147750Y0061900D01*
X0147350Y0061000D01*
X0146550Y0060700D01*
X0148250Y0059800D02*
X0149250Y0062000D01*
X0147650Y0062800D01*
X0144250Y0063000D02*
X0142750Y0063600D01*
X0141250Y0061500D02*
X0142250Y0060500D01*
X0129150Y0066500D02*
X0129152Y0066674D01*
X0129159Y0066848D01*
X0129169Y0067022D01*
X0129184Y0067196D01*
X0129203Y0067369D01*
X0129227Y0067542D01*
X0129255Y0067714D01*
X0129286Y0067885D01*
X0129323Y0068056D01*
X0129363Y0068225D01*
X0129407Y0068394D01*
X0129456Y0068561D01*
X0129508Y0068727D01*
X0129565Y0068892D01*
X0129626Y0069055D01*
X0129690Y0069217D01*
X0129759Y0069377D01*
X0129832Y0069536D01*
X0129908Y0069692D01*
X0129988Y0069847D01*
X0130072Y0070000D01*
X0130160Y0070150D01*
X0130252Y0070298D01*
X0130347Y0070445D01*
X0130445Y0070588D01*
X0130547Y0070729D01*
X0130653Y0070868D01*
X0130762Y0071004D01*
X0130874Y0071138D01*
X0130989Y0071268D01*
X0131108Y0071396D01*
X0131230Y0071520D01*
X0131354Y0071642D01*
X0131482Y0071761D01*
X0131612Y0071876D01*
X0131746Y0071988D01*
X0131882Y0072097D01*
X0132021Y0072203D01*
X0132162Y0072305D01*
X0132305Y0072403D01*
X0132452Y0072498D01*
X0132600Y0072590D01*
X0132750Y0072678D01*
X0132903Y0072762D01*
X0133058Y0072842D01*
X0133214Y0072918D01*
X0133373Y0072991D01*
X0133533Y0073060D01*
X0133695Y0073124D01*
X0133858Y0073185D01*
X0134023Y0073242D01*
X0134189Y0073294D01*
X0134356Y0073343D01*
X0134525Y0073387D01*
X0134694Y0073427D01*
X0134865Y0073464D01*
X0135036Y0073495D01*
X0135208Y0073523D01*
X0135381Y0073547D01*
X0135554Y0073566D01*
X0135728Y0073581D01*
X0135902Y0073591D01*
X0136076Y0073598D01*
X0136250Y0073600D01*
X0136424Y0073598D01*
X0136598Y0073591D01*
X0136772Y0073581D01*
X0136946Y0073566D01*
X0137119Y0073547D01*
X0137292Y0073523D01*
X0137464Y0073495D01*
X0137635Y0073464D01*
X0137806Y0073427D01*
X0137975Y0073387D01*
X0138144Y0073343D01*
X0138311Y0073294D01*
X0138477Y0073242D01*
X0138642Y0073185D01*
X0138805Y0073124D01*
X0138967Y0073060D01*
X0139127Y0072991D01*
X0139286Y0072918D01*
X0139442Y0072842D01*
X0139597Y0072762D01*
X0139750Y0072678D01*
X0139900Y0072590D01*
X0140048Y0072498D01*
X0140195Y0072403D01*
X0140338Y0072305D01*
X0140479Y0072203D01*
X0140618Y0072097D01*
X0140754Y0071988D01*
X0140888Y0071876D01*
X0141018Y0071761D01*
X0141146Y0071642D01*
X0141270Y0071520D01*
X0141392Y0071396D01*
X0141511Y0071268D01*
X0141626Y0071138D01*
X0141738Y0071004D01*
X0141847Y0070868D01*
X0141953Y0070729D01*
X0142055Y0070588D01*
X0142153Y0070445D01*
X0142248Y0070298D01*
X0142340Y0070150D01*
X0142428Y0070000D01*
X0142512Y0069847D01*
X0142592Y0069692D01*
X0142668Y0069536D01*
X0142741Y0069377D01*
X0142810Y0069217D01*
X0142874Y0069055D01*
X0142935Y0068892D01*
X0142992Y0068727D01*
X0143044Y0068561D01*
X0143093Y0068394D01*
X0143137Y0068225D01*
X0143177Y0068056D01*
X0143214Y0067885D01*
X0143245Y0067714D01*
X0143273Y0067542D01*
X0143297Y0067369D01*
X0143316Y0067196D01*
X0143331Y0067022D01*
X0143341Y0066848D01*
X0143348Y0066674D01*
X0143350Y0066500D01*
X0143348Y0066326D01*
X0143341Y0066152D01*
X0143331Y0065978D01*
X0143316Y0065804D01*
X0143297Y0065631D01*
X0143273Y0065458D01*
X0143245Y0065286D01*
X0143214Y0065115D01*
X0143177Y0064944D01*
X0143137Y0064775D01*
X0143093Y0064606D01*
X0143044Y0064439D01*
X0142992Y0064273D01*
X0142935Y0064108D01*
X0142874Y0063945D01*
X0142810Y0063783D01*
X0142741Y0063623D01*
X0142668Y0063464D01*
X0142592Y0063308D01*
X0142512Y0063153D01*
X0142428Y0063000D01*
X0142340Y0062850D01*
X0142248Y0062702D01*
X0142153Y0062555D01*
X0142055Y0062412D01*
X0141953Y0062271D01*
X0141847Y0062132D01*
X0141738Y0061996D01*
X0141626Y0061862D01*
X0141511Y0061732D01*
X0141392Y0061604D01*
X0141270Y0061480D01*
X0141146Y0061358D01*
X0141018Y0061239D01*
X0140888Y0061124D01*
X0140754Y0061012D01*
X0140618Y0060903D01*
X0140479Y0060797D01*
X0140338Y0060695D01*
X0140195Y0060597D01*
X0140048Y0060502D01*
X0139900Y0060410D01*
X0139750Y0060322D01*
X0139597Y0060238D01*
X0139442Y0060158D01*
X0139286Y0060082D01*
X0139127Y0060009D01*
X0138967Y0059940D01*
X0138805Y0059876D01*
X0138642Y0059815D01*
X0138477Y0059758D01*
X0138311Y0059706D01*
X0138144Y0059657D01*
X0137975Y0059613D01*
X0137806Y0059573D01*
X0137635Y0059536D01*
X0137464Y0059505D01*
X0137292Y0059477D01*
X0137119Y0059453D01*
X0136946Y0059434D01*
X0136772Y0059419D01*
X0136598Y0059409D01*
X0136424Y0059402D01*
X0136250Y0059400D01*
X0136076Y0059402D01*
X0135902Y0059409D01*
X0135728Y0059419D01*
X0135554Y0059434D01*
X0135381Y0059453D01*
X0135208Y0059477D01*
X0135036Y0059505D01*
X0134865Y0059536D01*
X0134694Y0059573D01*
X0134525Y0059613D01*
X0134356Y0059657D01*
X0134189Y0059706D01*
X0134023Y0059758D01*
X0133858Y0059815D01*
X0133695Y0059876D01*
X0133533Y0059940D01*
X0133373Y0060009D01*
X0133214Y0060082D01*
X0133058Y0060158D01*
X0132903Y0060238D01*
X0132750Y0060322D01*
X0132600Y0060410D01*
X0132452Y0060502D01*
X0132305Y0060597D01*
X0132162Y0060695D01*
X0132021Y0060797D01*
X0131882Y0060903D01*
X0131746Y0061012D01*
X0131612Y0061124D01*
X0131482Y0061239D01*
X0131354Y0061358D01*
X0131230Y0061480D01*
X0131108Y0061604D01*
X0130989Y0061732D01*
X0130874Y0061862D01*
X0130762Y0061996D01*
X0130653Y0062132D01*
X0130547Y0062271D01*
X0130445Y0062412D01*
X0130347Y0062555D01*
X0130252Y0062702D01*
X0130160Y0062850D01*
X0130072Y0063000D01*
X0129988Y0063153D01*
X0129908Y0063308D01*
X0129832Y0063464D01*
X0129759Y0063623D01*
X0129690Y0063783D01*
X0129626Y0063945D01*
X0129565Y0064108D01*
X0129508Y0064273D01*
X0129456Y0064439D01*
X0129407Y0064606D01*
X0129363Y0064775D01*
X0129323Y0064944D01*
X0129286Y0065115D01*
X0129255Y0065286D01*
X0129227Y0065458D01*
X0129203Y0065631D01*
X0129184Y0065804D01*
X0129169Y0065978D01*
X0129159Y0066152D01*
X0129152Y0066326D01*
X0129150Y0066500D01*
X0111250Y0084500D02*
X0111250Y0048500D01*
X0111248Y0048413D01*
X0111242Y0048326D01*
X0111233Y0048239D01*
X0111220Y0048153D01*
X0111203Y0048067D01*
X0111182Y0047982D01*
X0111157Y0047899D01*
X0111129Y0047816D01*
X0111098Y0047735D01*
X0111063Y0047655D01*
X0111024Y0047577D01*
X0110982Y0047500D01*
X0110937Y0047425D01*
X0110888Y0047353D01*
X0110837Y0047282D01*
X0110782Y0047214D01*
X0110725Y0047149D01*
X0110664Y0047086D01*
X0110601Y0047025D01*
X0110536Y0046968D01*
X0110468Y0046913D01*
X0110397Y0046862D01*
X0110325Y0046813D01*
X0110250Y0046768D01*
X0110173Y0046726D01*
X0110095Y0046687D01*
X0110015Y0046652D01*
X0109934Y0046621D01*
X0109851Y0046593D01*
X0109768Y0046568D01*
X0109683Y0046547D01*
X0109597Y0046530D01*
X0109511Y0046517D01*
X0109424Y0046508D01*
X0109337Y0046502D01*
X0109250Y0046500D01*
X0073250Y0046500D01*
X0073163Y0046502D01*
X0073076Y0046508D01*
X0072989Y0046517D01*
X0072903Y0046530D01*
X0072817Y0046547D01*
X0072732Y0046568D01*
X0072649Y0046593D01*
X0072566Y0046621D01*
X0072485Y0046652D01*
X0072405Y0046687D01*
X0072327Y0046726D01*
X0072250Y0046768D01*
X0072175Y0046813D01*
X0072103Y0046862D01*
X0072032Y0046913D01*
X0071964Y0046968D01*
X0071899Y0047025D01*
X0071836Y0047086D01*
X0071775Y0047149D01*
X0071718Y0047214D01*
X0071663Y0047282D01*
X0071612Y0047353D01*
X0071563Y0047425D01*
X0071518Y0047500D01*
X0071476Y0047577D01*
X0071437Y0047655D01*
X0071402Y0047735D01*
X0071371Y0047816D01*
X0071343Y0047899D01*
X0071318Y0047982D01*
X0071297Y0048067D01*
X0071280Y0048153D01*
X0071267Y0048239D01*
X0071258Y0048326D01*
X0071252Y0048413D01*
X0071250Y0048500D01*
X0071250Y0080500D01*
X0077250Y0086500D01*
X0109250Y0086500D01*
X0109337Y0086498D01*
X0109424Y0086492D01*
X0109511Y0086483D01*
X0109597Y0086470D01*
X0109683Y0086453D01*
X0109768Y0086432D01*
X0109851Y0086407D01*
X0109934Y0086379D01*
X0110015Y0086348D01*
X0110095Y0086313D01*
X0110173Y0086274D01*
X0110250Y0086232D01*
X0110325Y0086187D01*
X0110397Y0086138D01*
X0110468Y0086087D01*
X0110536Y0086032D01*
X0110601Y0085975D01*
X0110664Y0085914D01*
X0110725Y0085851D01*
X0110782Y0085786D01*
X0110837Y0085718D01*
X0110888Y0085647D01*
X0110937Y0085575D01*
X0110982Y0085500D01*
X0111024Y0085423D01*
X0111063Y0085345D01*
X0111098Y0085265D01*
X0111129Y0085184D01*
X0111157Y0085101D01*
X0111182Y0085018D01*
X0111203Y0084933D01*
X0111220Y0084847D01*
X0111233Y0084761D01*
X0111242Y0084674D01*
X0111248Y0084587D01*
X0111250Y0084500D01*
X0101650Y0075500D02*
X0101650Y0074600D01*
X0101050Y0074100D01*
X0097650Y0074300D01*
X0099250Y0072600D01*
X0100450Y0071900D02*
X0100050Y0071200D01*
X0100750Y0069500D01*
X0101650Y0069300D01*
X0102450Y0069700D01*
X0102650Y0070200D01*
X0103250Y0070100D01*
X0104050Y0070500D01*
X0104350Y0071000D01*
X0103650Y0072700D01*
X0102650Y0072900D01*
X0102350Y0071000D02*
X0102650Y0070200D01*
X0103150Y0067700D02*
X0103150Y0065300D01*
X0101350Y0065900D02*
X0105050Y0065900D01*
X0103150Y0067700D01*
X0099850Y0066500D02*
X0098350Y0066500D01*
X0097750Y0069300D02*
X0099250Y0069900D01*
X0097350Y0072500D02*
X0096350Y0071500D01*
X0094250Y0073000D02*
X0094850Y0074300D01*
X0095450Y0075600D02*
X0096950Y0078900D01*
X0095750Y0078700D01*
X0094850Y0075800D02*
X0095950Y0075300D01*
X0099550Y0076600D02*
X0100650Y0076600D01*
X0101650Y0075500D01*
X0092450Y0077300D02*
X0091850Y0076600D01*
X0090650Y0076600D01*
X0090050Y0077300D01*
X0090050Y0079700D01*
X0090650Y0080300D01*
X0091850Y0080300D01*
X0092450Y0079700D01*
X0092450Y0077300D01*
X0091250Y0075200D02*
X0091250Y0073700D01*
X0088450Y0073100D02*
X0087850Y0074500D01*
X0086550Y0075300D02*
X0085750Y0077000D01*
X0087150Y0077600D01*
X0085750Y0077000D02*
X0084950Y0078700D01*
X0086850Y0079600D01*
X0082250Y0077200D02*
X0080550Y0075500D01*
X0081950Y0074100D01*
X0082850Y0075000D01*
X0081950Y0074100D02*
X0083350Y0072700D01*
X0084950Y0074200D01*
X0085150Y0072600D02*
X0086150Y0071600D01*
X0084650Y0069300D02*
X0083350Y0069800D01*
X0082350Y0071100D02*
X0081650Y0069500D01*
X0078050Y0071100D01*
X0078850Y0072800D01*
X0079550Y0073100D01*
X0082050Y0071900D01*
X0082350Y0071100D01*
X0082550Y0066500D02*
X0084050Y0066500D01*
X0084750Y0063900D02*
X0083150Y0063200D01*
X0082250Y0061900D02*
X0081450Y0063900D01*
X0080750Y0064000D01*
X0080050Y0063700D01*
X0079650Y0062900D01*
X0080450Y0061100D01*
X0078850Y0060300D01*
X0078050Y0062100D01*
X0078250Y0062700D01*
X0079050Y0063100D01*
X0079650Y0062900D01*
X0080450Y0061100D02*
X0082250Y0061900D01*
X0083250Y0060500D02*
X0082050Y0059300D01*
X0084050Y0057300D01*
X0083250Y0056500D01*
X0081450Y0056700D01*
X0081250Y0058500D01*
X0082050Y0059300D01*
X0084050Y0057300D02*
X0085250Y0058500D01*
X0086450Y0057100D02*
X0088250Y0056900D01*
X0086450Y0057100D02*
X0085250Y0056300D01*
X0084650Y0055300D01*
X0084850Y0054100D01*
X0086050Y0053500D01*
X0087050Y0053700D01*
X0087450Y0054500D01*
X0087050Y0055500D01*
X0085250Y0056300D01*
X0087650Y0058700D02*
X0088250Y0060000D01*
X0086150Y0061400D02*
X0085150Y0060400D01*
X0091250Y0059400D02*
X0091250Y0057900D01*
X0091750Y0056400D02*
X0090550Y0056400D01*
X0089950Y0055800D01*
X0089950Y0055200D01*
X0090550Y0054600D01*
X0091750Y0054600D01*
X0092350Y0055200D01*
X0092350Y0055800D01*
X0091750Y0056400D01*
X0091750Y0054600D02*
X0092350Y0054000D01*
X0092350Y0053400D01*
X0091750Y0052700D01*
X0090550Y0052700D01*
X0089950Y0053400D01*
X0089950Y0054000D01*
X0090550Y0054600D01*
X0094450Y0058300D02*
X0093850Y0059800D01*
X0095650Y0057500D02*
X0095850Y0056900D01*
X0095050Y0053900D01*
X0095250Y0053300D01*
X0097450Y0054300D01*
X0100050Y0055700D02*
X0100850Y0057100D01*
X0100450Y0058900D01*
X0099650Y0059700D01*
X0098650Y0059700D01*
X0097650Y0058700D01*
X0097650Y0057700D01*
X0098050Y0057300D01*
X0099050Y0057300D01*
X0100450Y0058900D01*
X0101550Y0060700D02*
X0100550Y0061200D01*
X0100250Y0062000D01*
X0100750Y0063000D01*
X0101550Y0063300D01*
X0102650Y0062800D02*
X0102750Y0061900D01*
X0102350Y0061000D01*
X0101550Y0060700D01*
X0103250Y0059800D02*
X0104250Y0062000D01*
X0102650Y0062800D01*
X0099250Y0063000D02*
X0097750Y0063600D01*
X0096250Y0061500D02*
X0097250Y0060500D01*
X0084150Y0066500D02*
X0084152Y0066674D01*
X0084159Y0066848D01*
X0084169Y0067022D01*
X0084184Y0067196D01*
X0084203Y0067369D01*
X0084227Y0067542D01*
X0084255Y0067714D01*
X0084286Y0067885D01*
X0084323Y0068056D01*
X0084363Y0068225D01*
X0084407Y0068394D01*
X0084456Y0068561D01*
X0084508Y0068727D01*
X0084565Y0068892D01*
X0084626Y0069055D01*
X0084690Y0069217D01*
X0084759Y0069377D01*
X0084832Y0069536D01*
X0084908Y0069692D01*
X0084988Y0069847D01*
X0085072Y0070000D01*
X0085160Y0070150D01*
X0085252Y0070298D01*
X0085347Y0070445D01*
X0085445Y0070588D01*
X0085547Y0070729D01*
X0085653Y0070868D01*
X0085762Y0071004D01*
X0085874Y0071138D01*
X0085989Y0071268D01*
X0086108Y0071396D01*
X0086230Y0071520D01*
X0086354Y0071642D01*
X0086482Y0071761D01*
X0086612Y0071876D01*
X0086746Y0071988D01*
X0086882Y0072097D01*
X0087021Y0072203D01*
X0087162Y0072305D01*
X0087305Y0072403D01*
X0087452Y0072498D01*
X0087600Y0072590D01*
X0087750Y0072678D01*
X0087903Y0072762D01*
X0088058Y0072842D01*
X0088214Y0072918D01*
X0088373Y0072991D01*
X0088533Y0073060D01*
X0088695Y0073124D01*
X0088858Y0073185D01*
X0089023Y0073242D01*
X0089189Y0073294D01*
X0089356Y0073343D01*
X0089525Y0073387D01*
X0089694Y0073427D01*
X0089865Y0073464D01*
X0090036Y0073495D01*
X0090208Y0073523D01*
X0090381Y0073547D01*
X0090554Y0073566D01*
X0090728Y0073581D01*
X0090902Y0073591D01*
X0091076Y0073598D01*
X0091250Y0073600D01*
X0091424Y0073598D01*
X0091598Y0073591D01*
X0091772Y0073581D01*
X0091946Y0073566D01*
X0092119Y0073547D01*
X0092292Y0073523D01*
X0092464Y0073495D01*
X0092635Y0073464D01*
X0092806Y0073427D01*
X0092975Y0073387D01*
X0093144Y0073343D01*
X0093311Y0073294D01*
X0093477Y0073242D01*
X0093642Y0073185D01*
X0093805Y0073124D01*
X0093967Y0073060D01*
X0094127Y0072991D01*
X0094286Y0072918D01*
X0094442Y0072842D01*
X0094597Y0072762D01*
X0094750Y0072678D01*
X0094900Y0072590D01*
X0095048Y0072498D01*
X0095195Y0072403D01*
X0095338Y0072305D01*
X0095479Y0072203D01*
X0095618Y0072097D01*
X0095754Y0071988D01*
X0095888Y0071876D01*
X0096018Y0071761D01*
X0096146Y0071642D01*
X0096270Y0071520D01*
X0096392Y0071396D01*
X0096511Y0071268D01*
X0096626Y0071138D01*
X0096738Y0071004D01*
X0096847Y0070868D01*
X0096953Y0070729D01*
X0097055Y0070588D01*
X0097153Y0070445D01*
X0097248Y0070298D01*
X0097340Y0070150D01*
X0097428Y0070000D01*
X0097512Y0069847D01*
X0097592Y0069692D01*
X0097668Y0069536D01*
X0097741Y0069377D01*
X0097810Y0069217D01*
X0097874Y0069055D01*
X0097935Y0068892D01*
X0097992Y0068727D01*
X0098044Y0068561D01*
X0098093Y0068394D01*
X0098137Y0068225D01*
X0098177Y0068056D01*
X0098214Y0067885D01*
X0098245Y0067714D01*
X0098273Y0067542D01*
X0098297Y0067369D01*
X0098316Y0067196D01*
X0098331Y0067022D01*
X0098341Y0066848D01*
X0098348Y0066674D01*
X0098350Y0066500D01*
X0098348Y0066326D01*
X0098341Y0066152D01*
X0098331Y0065978D01*
X0098316Y0065804D01*
X0098297Y0065631D01*
X0098273Y0065458D01*
X0098245Y0065286D01*
X0098214Y0065115D01*
X0098177Y0064944D01*
X0098137Y0064775D01*
X0098093Y0064606D01*
X0098044Y0064439D01*
X0097992Y0064273D01*
X0097935Y0064108D01*
X0097874Y0063945D01*
X0097810Y0063783D01*
X0097741Y0063623D01*
X0097668Y0063464D01*
X0097592Y0063308D01*
X0097512Y0063153D01*
X0097428Y0063000D01*
X0097340Y0062850D01*
X0097248Y0062702D01*
X0097153Y0062555D01*
X0097055Y0062412D01*
X0096953Y0062271D01*
X0096847Y0062132D01*
X0096738Y0061996D01*
X0096626Y0061862D01*
X0096511Y0061732D01*
X0096392Y0061604D01*
X0096270Y0061480D01*
X0096146Y0061358D01*
X0096018Y0061239D01*
X0095888Y0061124D01*
X0095754Y0061012D01*
X0095618Y0060903D01*
X0095479Y0060797D01*
X0095338Y0060695D01*
X0095195Y0060597D01*
X0095048Y0060502D01*
X0094900Y0060410D01*
X0094750Y0060322D01*
X0094597Y0060238D01*
X0094442Y0060158D01*
X0094286Y0060082D01*
X0094127Y0060009D01*
X0093967Y0059940D01*
X0093805Y0059876D01*
X0093642Y0059815D01*
X0093477Y0059758D01*
X0093311Y0059706D01*
X0093144Y0059657D01*
X0092975Y0059613D01*
X0092806Y0059573D01*
X0092635Y0059536D01*
X0092464Y0059505D01*
X0092292Y0059477D01*
X0092119Y0059453D01*
X0091946Y0059434D01*
X0091772Y0059419D01*
X0091598Y0059409D01*
X0091424Y0059402D01*
X0091250Y0059400D01*
X0091076Y0059402D01*
X0090902Y0059409D01*
X0090728Y0059419D01*
X0090554Y0059434D01*
X0090381Y0059453D01*
X0090208Y0059477D01*
X0090036Y0059505D01*
X0089865Y0059536D01*
X0089694Y0059573D01*
X0089525Y0059613D01*
X0089356Y0059657D01*
X0089189Y0059706D01*
X0089023Y0059758D01*
X0088858Y0059815D01*
X0088695Y0059876D01*
X0088533Y0059940D01*
X0088373Y0060009D01*
X0088214Y0060082D01*
X0088058Y0060158D01*
X0087903Y0060238D01*
X0087750Y0060322D01*
X0087600Y0060410D01*
X0087452Y0060502D01*
X0087305Y0060597D01*
X0087162Y0060695D01*
X0087021Y0060797D01*
X0086882Y0060903D01*
X0086746Y0061012D01*
X0086612Y0061124D01*
X0086482Y0061239D01*
X0086354Y0061358D01*
X0086230Y0061480D01*
X0086108Y0061604D01*
X0085989Y0061732D01*
X0085874Y0061862D01*
X0085762Y0061996D01*
X0085653Y0062132D01*
X0085547Y0062271D01*
X0085445Y0062412D01*
X0085347Y0062555D01*
X0085252Y0062702D01*
X0085160Y0062850D01*
X0085072Y0063000D01*
X0084988Y0063153D01*
X0084908Y0063308D01*
X0084832Y0063464D01*
X0084759Y0063623D01*
X0084690Y0063783D01*
X0084626Y0063945D01*
X0084565Y0064108D01*
X0084508Y0064273D01*
X0084456Y0064439D01*
X0084407Y0064606D01*
X0084363Y0064775D01*
X0084323Y0064944D01*
X0084286Y0065115D01*
X0084255Y0065286D01*
X0084227Y0065458D01*
X0084203Y0065631D01*
X0084184Y0065804D01*
X0084169Y0065978D01*
X0084159Y0066152D01*
X0084152Y0066326D01*
X0084150Y0066500D01*
X0057250Y0050000D02*
X0057250Y0033000D01*
X0057248Y0032940D01*
X0057243Y0032879D01*
X0057234Y0032820D01*
X0057221Y0032761D01*
X0057205Y0032702D01*
X0057185Y0032645D01*
X0057162Y0032590D01*
X0057135Y0032535D01*
X0057106Y0032483D01*
X0057073Y0032432D01*
X0057037Y0032383D01*
X0056999Y0032337D01*
X0056957Y0032293D01*
X0056913Y0032251D01*
X0056867Y0032213D01*
X0056818Y0032177D01*
X0056767Y0032144D01*
X0056715Y0032115D01*
X0056660Y0032088D01*
X0056605Y0032065D01*
X0056548Y0032045D01*
X0056489Y0032029D01*
X0056430Y0032016D01*
X0056371Y0032007D01*
X0056310Y0032002D01*
X0056250Y0032000D01*
X0046250Y0032000D01*
X0046190Y0032002D01*
X0046129Y0032007D01*
X0046070Y0032016D01*
X0046011Y0032029D01*
X0045952Y0032045D01*
X0045895Y0032065D01*
X0045840Y0032088D01*
X0045785Y0032115D01*
X0045733Y0032144D01*
X0045682Y0032177D01*
X0045633Y0032213D01*
X0045587Y0032251D01*
X0045543Y0032293D01*
X0045501Y0032337D01*
X0045463Y0032383D01*
X0045427Y0032432D01*
X0045394Y0032483D01*
X0045365Y0032535D01*
X0045338Y0032590D01*
X0045315Y0032645D01*
X0045295Y0032702D01*
X0045279Y0032761D01*
X0045266Y0032820D01*
X0045257Y0032879D01*
X0045252Y0032940D01*
X0045250Y0033000D01*
X0045250Y0050000D01*
X0045252Y0050060D01*
X0045257Y0050121D01*
X0045266Y0050180D01*
X0045279Y0050239D01*
X0045295Y0050298D01*
X0045315Y0050355D01*
X0045338Y0050410D01*
X0045365Y0050465D01*
X0045394Y0050517D01*
X0045427Y0050568D01*
X0045463Y0050617D01*
X0045501Y0050663D01*
X0045543Y0050707D01*
X0045587Y0050749D01*
X0045633Y0050787D01*
X0045682Y0050823D01*
X0045733Y0050856D01*
X0045785Y0050885D01*
X0045840Y0050912D01*
X0045895Y0050935D01*
X0045952Y0050955D01*
X0046011Y0050971D01*
X0046070Y0050984D01*
X0046129Y0050993D01*
X0046190Y0050998D01*
X0046250Y0051000D01*
X0056250Y0051000D01*
X0056310Y0050998D01*
X0056371Y0050993D01*
X0056430Y0050984D01*
X0056489Y0050971D01*
X0056548Y0050955D01*
X0056605Y0050935D01*
X0056660Y0050912D01*
X0056715Y0050885D01*
X0056767Y0050856D01*
X0056818Y0050823D01*
X0056867Y0050787D01*
X0056913Y0050749D01*
X0056957Y0050707D01*
X0056999Y0050663D01*
X0057037Y0050617D01*
X0057073Y0050568D01*
X0057106Y0050517D01*
X0057135Y0050465D01*
X0057162Y0050410D01*
X0057185Y0050355D01*
X0057205Y0050298D01*
X0057221Y0050239D01*
X0057234Y0050180D01*
X0057243Y0050121D01*
X0057248Y0050060D01*
X0057250Y0050000D01*
X0051250Y0043000D02*
X0051250Y0042500D01*
X0051250Y0040500D02*
X0051250Y0040000D01*
X0062750Y0037500D02*
X0062750Y0036500D01*
X0063250Y0036000D01*
X0063250Y0027000D01*
X0062750Y0026500D01*
X0062750Y0025500D01*
X0062752Y0025440D01*
X0062757Y0025379D01*
X0062766Y0025320D01*
X0062779Y0025261D01*
X0062795Y0025202D01*
X0062815Y0025145D01*
X0062838Y0025090D01*
X0062865Y0025035D01*
X0062894Y0024983D01*
X0062927Y0024932D01*
X0062963Y0024883D01*
X0063001Y0024837D01*
X0063043Y0024793D01*
X0063087Y0024751D01*
X0063133Y0024713D01*
X0063182Y0024677D01*
X0063233Y0024644D01*
X0063285Y0024615D01*
X0063340Y0024588D01*
X0063395Y0024565D01*
X0063452Y0024545D01*
X0063511Y0024529D01*
X0063570Y0024516D01*
X0063629Y0024507D01*
X0063690Y0024502D01*
X0063750Y0024500D01*
X0068750Y0024500D02*
X0068810Y0024502D01*
X0068871Y0024507D01*
X0068930Y0024516D01*
X0068989Y0024529D01*
X0069048Y0024545D01*
X0069105Y0024565D01*
X0069160Y0024588D01*
X0069215Y0024615D01*
X0069267Y0024644D01*
X0069318Y0024677D01*
X0069367Y0024713D01*
X0069413Y0024751D01*
X0069457Y0024793D01*
X0069499Y0024837D01*
X0069537Y0024883D01*
X0069573Y0024932D01*
X0069606Y0024983D01*
X0069635Y0025035D01*
X0069662Y0025090D01*
X0069685Y0025145D01*
X0069705Y0025202D01*
X0069721Y0025261D01*
X0069734Y0025320D01*
X0069743Y0025379D01*
X0069748Y0025440D01*
X0069750Y0025500D01*
X0069750Y0026500D01*
X0069250Y0027000D01*
X0069250Y0036000D01*
X0069750Y0036500D01*
X0069750Y0037500D01*
X0069748Y0037560D01*
X0069743Y0037621D01*
X0069734Y0037680D01*
X0069721Y0037739D01*
X0069705Y0037798D01*
X0069685Y0037855D01*
X0069662Y0037910D01*
X0069635Y0037965D01*
X0069606Y0038017D01*
X0069573Y0038068D01*
X0069537Y0038117D01*
X0069499Y0038163D01*
X0069457Y0038207D01*
X0069413Y0038249D01*
X0069367Y0038287D01*
X0069318Y0038323D01*
X0069267Y0038356D01*
X0069215Y0038385D01*
X0069160Y0038412D01*
X0069105Y0038435D01*
X0069048Y0038455D01*
X0068989Y0038471D01*
X0068930Y0038484D01*
X0068871Y0038493D01*
X0068810Y0038498D01*
X0068750Y0038500D01*
X0063750Y0038500D02*
X0063690Y0038498D01*
X0063629Y0038493D01*
X0063570Y0038484D01*
X0063511Y0038471D01*
X0063452Y0038455D01*
X0063395Y0038435D01*
X0063340Y0038412D01*
X0063285Y0038385D01*
X0063233Y0038356D01*
X0063182Y0038323D01*
X0063133Y0038287D01*
X0063087Y0038249D01*
X0063043Y0038207D01*
X0063001Y0038163D01*
X0062963Y0038117D01*
X0062927Y0038068D01*
X0062894Y0038017D01*
X0062865Y0037965D01*
X0062838Y0037910D01*
X0062815Y0037855D01*
X0062795Y0037798D01*
X0062779Y0037739D01*
X0062766Y0037680D01*
X0062757Y0037621D01*
X0062752Y0037560D01*
X0062750Y0037500D01*
D15*
X0054250Y0040500D02*
X0051250Y0040500D01*
X0048250Y0040500D01*
X0048250Y0042500D02*
X0051250Y0042500D01*
X0054250Y0042500D01*
X0089250Y0070800D02*
X0093250Y0070800D01*
X0091250Y0072800D01*
X0089250Y0070800D01*
X0090250Y0071300D02*
X0092250Y0071300D01*
X0091250Y0071800D02*
X0091250Y0072300D01*
X0134250Y0070800D02*
X0138250Y0070800D01*
X0136250Y0072800D01*
X0134250Y0070800D01*
X0135250Y0071300D02*
X0137250Y0071300D01*
X0136250Y0071800D02*
X0136250Y0072300D01*
X0163800Y0071600D02*
X0163800Y0069800D01*
X0163800Y0063400D02*
X0163800Y0061400D01*
D16*
X0136250Y0065500D03*
X0091250Y0065500D03*
M02*
