G75*
%MOIN*%
%OFA0B0*%
%FSLAX25Y25*%
%IPPOS*%
%LPD*%
%AMOC8*
5,1,8,0,0,1.08239X$1,22.5*
%
%ADD10C,0.07400*%
%ADD11C,0.04800*%
%ADD12OC8,0.04800*%
%ADD13C,0.07600*%
%ADD14C,0.04800*%
%ADD15OC8,0.06300*%
%ADD16C,0.06299*%
%ADD17C,0.05000*%
%ADD18C,0.00600*%
%ADD19C,0.01000*%
%ADD20C,0.02559*%
D10*
X0066250Y0051500D03*
X0066250Y0081500D03*
X0116250Y0026500D03*
X0126250Y0026500D03*
X0136250Y0026500D03*
D11*
X0123650Y0056500D02*
X0118850Y0056500D01*
X0118850Y0066500D02*
X0123650Y0066500D01*
X0123650Y0076500D02*
X0118850Y0076500D01*
X0108650Y0076500D02*
X0103850Y0076500D01*
X0103850Y0056500D02*
X0108650Y0056500D01*
X0096250Y0028900D02*
X0096250Y0024100D01*
X0086250Y0024100D02*
X0086250Y0028900D01*
X0076250Y0028900D02*
X0076250Y0024100D01*
X0078650Y0056500D02*
X0073850Y0056500D01*
X0073850Y0066500D02*
X0078650Y0066500D01*
X0078650Y0076500D02*
X0073850Y0076500D01*
X0056250Y0079100D02*
X0056250Y0083900D01*
X0056250Y0063900D02*
X0056250Y0059100D01*
X0026250Y0059100D02*
X0026250Y0063900D01*
X0016250Y0063900D02*
X0016250Y0059100D01*
X0016250Y0079100D02*
X0016250Y0083900D01*
X0026250Y0083900D02*
X0026250Y0079100D01*
X0148850Y0076500D02*
X0153650Y0076500D01*
X0153650Y0056500D02*
X0148850Y0056500D01*
D12*
X0161250Y0081500D03*
X0181250Y0081500D03*
X0066250Y0041500D03*
X0066250Y0021500D03*
D13*
X0066250Y0096500D03*
X0056250Y0096500D03*
X0046250Y0096500D03*
X0036250Y0096500D03*
X0026250Y0096500D03*
X0016250Y0096500D03*
X0076250Y0096500D03*
X0086250Y0096500D03*
X0096250Y0096500D03*
X0106250Y0096500D03*
X0116250Y0096500D03*
X0126250Y0096500D03*
X0136250Y0096500D03*
X0146250Y0096500D03*
X0156250Y0096500D03*
X0166250Y0096500D03*
X0176250Y0096500D03*
X0176250Y0156500D03*
X0166250Y0156500D03*
X0156250Y0156500D03*
X0146250Y0156500D03*
X0136250Y0156500D03*
X0126250Y0156500D03*
X0116250Y0156500D03*
X0106250Y0156500D03*
X0096250Y0156500D03*
X0086250Y0156500D03*
X0076250Y0156500D03*
X0066250Y0156500D03*
X0056250Y0156500D03*
X0046250Y0156500D03*
X0036250Y0156500D03*
X0026250Y0156500D03*
X0016250Y0156500D03*
D14*
X0166250Y0066500D03*
X0176250Y0066500D03*
D15*
X0051250Y0046500D03*
X0051250Y0036500D03*
D16*
X0029872Y0036933D03*
X0029872Y0044807D03*
X0167667Y0044807D03*
X0167667Y0036933D03*
D17*
X0167234Y0036500D01*
X0126250Y0036500D01*
X0126250Y0026500D01*
X0126250Y0011500D01*
X0051250Y0011500D01*
X0051250Y0026500D01*
X0016250Y0026500D01*
X0016250Y0061500D01*
X0041250Y0061500D02*
X0041250Y0036500D01*
X0040817Y0036933D01*
X0029872Y0036933D01*
X0051250Y0036500D02*
X0051250Y0026500D01*
X0056250Y0061500D02*
X0041250Y0061500D01*
D18*
X0035850Y0061500D02*
X0044650Y0070300D01*
X0055850Y0070300D01*
X0058250Y0071900D02*
X0055850Y0074300D01*
X0042250Y0074300D01*
X0025450Y0091100D01*
X0014250Y0091100D01*
X0011050Y0094300D01*
X0011050Y0131100D01*
X0035850Y0155900D01*
X0036250Y0156500D01*
X0031850Y0162300D02*
X0026250Y0156700D01*
X0026250Y0156500D01*
X0031850Y0162300D02*
X0178250Y0162300D01*
X0186250Y0154300D01*
X0186250Y0048700D01*
X0157450Y0019900D01*
X0167667Y0044807D02*
X0167050Y0045500D01*
X0142250Y0045500D01*
X0121250Y0066500D01*
X0120650Y0066300D01*
X0120650Y0064700D01*
X0113450Y0057500D01*
X0113450Y0055100D01*
X0110250Y0051900D01*
X0091050Y0051900D01*
X0076650Y0066300D01*
X0076250Y0066500D01*
X0075850Y0066300D01*
X0071050Y0066300D01*
X0051250Y0046500D01*
X0049450Y0041500D02*
X0056650Y0041500D01*
X0066250Y0051100D01*
X0066250Y0051500D01*
X0066250Y0051100D02*
X0086250Y0031100D01*
X0086250Y0026500D01*
X0089450Y0019900D02*
X0095850Y0026300D01*
X0096250Y0026500D01*
X0089450Y0019900D02*
X0074250Y0019900D01*
X0072650Y0021500D01*
X0066250Y0021500D01*
X0046250Y0035900D02*
X0046250Y0038300D01*
X0049450Y0041500D01*
X0046250Y0035900D02*
X0042250Y0031900D01*
X0027850Y0031900D01*
X0022250Y0037500D01*
X0022250Y0066300D01*
X0026250Y0070300D01*
X0026250Y0081500D01*
X0026250Y0061500D02*
X0035850Y0061500D01*
X0058250Y0071900D02*
X0079050Y0071900D01*
X0094250Y0056700D01*
X0106250Y0056700D01*
X0106250Y0056500D01*
X0117450Y0071900D02*
X0113450Y0075900D01*
X0113450Y0078300D01*
X0109450Y0082300D01*
X0123050Y0095900D01*
X0126250Y0095900D01*
X0126250Y0096500D01*
X0109450Y0082300D02*
X0108650Y0081500D01*
X0066250Y0081500D01*
X0117450Y0071900D02*
X0132650Y0071900D01*
X0142250Y0062300D01*
X0167850Y0062300D01*
X0171850Y0066300D01*
X0175850Y0066300D01*
X0176250Y0066500D01*
X0166250Y0066500D02*
X0166250Y0067100D01*
X0180650Y0081500D01*
X0181250Y0081500D01*
X0179850Y0087900D02*
X0184650Y0092700D01*
X0184650Y0100700D01*
X0134250Y0151100D01*
X0121450Y0151100D01*
X0116650Y0155900D01*
X0116250Y0156500D01*
X0132650Y0147900D02*
X0084650Y0147900D01*
X0076650Y0155900D01*
X0076250Y0156500D01*
X0074250Y0147900D02*
X0066250Y0155900D01*
X0066250Y0156500D01*
X0086250Y0156500D02*
X0086250Y0155900D01*
X0092650Y0149500D01*
X0133450Y0149500D01*
X0183050Y0099900D01*
X0183050Y0093500D01*
X0179050Y0089500D01*
X0155850Y0089500D01*
X0143050Y0076700D01*
X0121450Y0076700D01*
X0121250Y0076500D01*
X0136650Y0071900D02*
X0158250Y0071900D01*
X0171050Y0084700D01*
X0170250Y0087900D02*
X0179850Y0087900D01*
X0178250Y0091100D02*
X0181450Y0094300D01*
X0181450Y0099100D01*
X0132650Y0147900D01*
X0155050Y0091100D02*
X0178250Y0091100D01*
X0170250Y0087900D02*
X0163850Y0081500D01*
X0161250Y0081500D01*
X0155050Y0091100D02*
X0143850Y0079900D01*
X0141450Y0079900D01*
X0135050Y0065500D02*
X0143850Y0056700D01*
X0151050Y0056700D01*
X0151250Y0056500D01*
D19*
X0008718Y0003968D02*
X0008718Y0184071D01*
X0188821Y0184071D01*
X0188821Y0003968D01*
X0008718Y0003968D01*
X0008718Y0004496D02*
X0188821Y0004496D01*
X0188821Y0005494D02*
X0183518Y0005494D01*
X0184445Y0005878D02*
X0186911Y0008345D01*
X0188246Y0011567D01*
X0188246Y0015055D01*
X0186911Y0018278D01*
X0184445Y0020744D01*
X0181222Y0022079D01*
X0177734Y0022079D01*
X0174512Y0020744D01*
X0172045Y0018278D01*
X0170711Y0015055D01*
X0170711Y0011567D01*
X0172045Y0008345D01*
X0174512Y0005878D01*
X0177734Y0004543D01*
X0181222Y0004543D01*
X0184445Y0005878D01*
X0185059Y0006493D02*
X0188821Y0006493D01*
X0188821Y0007491D02*
X0186058Y0007491D01*
X0186971Y0008490D02*
X0188821Y0008490D01*
X0188821Y0009488D02*
X0187385Y0009488D01*
X0187799Y0010487D02*
X0188821Y0010487D01*
X0188821Y0011485D02*
X0188212Y0011485D01*
X0188246Y0012484D02*
X0188821Y0012484D01*
X0188821Y0013482D02*
X0188246Y0013482D01*
X0188246Y0014481D02*
X0188821Y0014481D01*
X0188821Y0015479D02*
X0188070Y0015479D01*
X0187657Y0016478D02*
X0188821Y0016478D01*
X0188821Y0017476D02*
X0187243Y0017476D01*
X0186714Y0018475D02*
X0188821Y0018475D01*
X0188821Y0019473D02*
X0185716Y0019473D01*
X0184717Y0020472D02*
X0188821Y0020472D01*
X0188821Y0021470D02*
X0182691Y0021470D01*
X0188821Y0022469D02*
X0162564Y0022469D01*
X0161566Y0021470D02*
X0176265Y0021470D01*
X0174240Y0020472D02*
X0160567Y0020472D01*
X0160230Y0020134D02*
X0186996Y0046900D01*
X0188050Y0047954D01*
X0188050Y0155046D01*
X0180050Y0163046D01*
X0178996Y0164100D01*
X0031104Y0164100D01*
X0028365Y0161361D01*
X0027304Y0161800D01*
X0025196Y0161800D01*
X0023248Y0160993D01*
X0021757Y0159502D01*
X0021250Y0158278D01*
X0020743Y0159502D01*
X0019252Y0160993D01*
X0017304Y0161800D01*
X0015196Y0161800D01*
X0013248Y0160993D01*
X0011757Y0159502D01*
X0010950Y0157554D01*
X0010950Y0155446D01*
X0011757Y0153498D01*
X0013248Y0152007D01*
X0015196Y0151200D01*
X0017304Y0151200D01*
X0019252Y0152007D01*
X0020743Y0153498D01*
X0021250Y0154722D01*
X0021757Y0153498D01*
X0023248Y0152007D01*
X0025196Y0151200D01*
X0027304Y0151200D01*
X0029252Y0152007D01*
X0030743Y0153498D01*
X0031250Y0154722D01*
X0031507Y0154102D01*
X0009250Y0131846D01*
X0009250Y0130354D01*
X0009250Y0093554D01*
X0010304Y0092500D01*
X0013504Y0089300D01*
X0024704Y0089300D01*
X0026204Y0087800D01*
X0025474Y0087800D01*
X0024041Y0087206D01*
X0022944Y0086109D01*
X0022350Y0084676D01*
X0022350Y0078324D01*
X0022944Y0076891D01*
X0024041Y0075794D01*
X0024450Y0075624D01*
X0024450Y0071046D01*
X0021504Y0068100D01*
X0020450Y0067046D01*
X0020450Y0036754D01*
X0026050Y0031154D01*
X0026704Y0030500D01*
X0020250Y0030500D01*
X0020250Y0062296D01*
X0020150Y0062537D01*
X0020150Y0064676D01*
X0019556Y0066109D01*
X0018459Y0067206D01*
X0017026Y0067800D01*
X0015474Y0067800D01*
X0014041Y0067206D01*
X0012944Y0066109D01*
X0012350Y0064676D01*
X0012350Y0062537D01*
X0012250Y0062296D01*
X0012250Y0025704D01*
X0012859Y0024234D01*
X0013984Y0023109D01*
X0015454Y0022500D01*
X0047250Y0022500D01*
X0047250Y0010704D01*
X0047859Y0009234D01*
X0048984Y0008109D01*
X0050454Y0007500D01*
X0127046Y0007500D01*
X0128516Y0008109D01*
X0129641Y0009234D01*
X0130250Y0010704D01*
X0130250Y0023146D01*
X0130658Y0023554D01*
X0131250Y0024983D01*
X0131842Y0023554D01*
X0133304Y0022092D01*
X0135216Y0021300D01*
X0137284Y0021300D01*
X0139196Y0022092D01*
X0140658Y0023554D01*
X0141450Y0025466D01*
X0141450Y0027534D01*
X0140658Y0029446D01*
X0139196Y0030908D01*
X0137284Y0031700D01*
X0135216Y0031700D01*
X0133304Y0030908D01*
X0131842Y0029446D01*
X0131250Y0028017D01*
X0130658Y0029446D01*
X0130250Y0029854D01*
X0130250Y0032500D01*
X0166220Y0032500D01*
X0166742Y0032283D01*
X0167288Y0032283D01*
X0157684Y0022680D01*
X0156897Y0022680D01*
X0155876Y0022256D01*
X0155094Y0021474D01*
X0154670Y0020453D01*
X0154670Y0019347D01*
X0155094Y0018326D01*
X0155876Y0017544D01*
X0156897Y0017120D01*
X0158003Y0017120D01*
X0159024Y0017544D01*
X0159806Y0018326D01*
X0160230Y0019347D01*
X0160230Y0020134D01*
X0160230Y0019473D02*
X0173241Y0019473D01*
X0172243Y0018475D02*
X0159868Y0018475D01*
X0158862Y0017476D02*
X0171714Y0017476D01*
X0171300Y0016478D02*
X0130250Y0016478D01*
X0130250Y0017476D02*
X0156038Y0017476D01*
X0155032Y0018475D02*
X0130250Y0018475D01*
X0130250Y0019473D02*
X0154670Y0019473D01*
X0154678Y0020472D02*
X0130250Y0020472D01*
X0130250Y0021470D02*
X0134805Y0021470D01*
X0132927Y0022469D02*
X0130250Y0022469D01*
X0130571Y0023467D02*
X0131929Y0023467D01*
X0131464Y0024466D02*
X0131036Y0024466D01*
X0131067Y0028460D02*
X0131433Y0028460D01*
X0131854Y0029458D02*
X0130646Y0029458D01*
X0130250Y0030457D02*
X0132853Y0030457D01*
X0134625Y0031455D02*
X0130250Y0031455D01*
X0130250Y0032454D02*
X0166331Y0032454D01*
X0166460Y0031455D02*
X0137875Y0031455D01*
X0139647Y0030457D02*
X0165461Y0030457D01*
X0164463Y0029458D02*
X0140646Y0029458D01*
X0141067Y0028460D02*
X0163464Y0028460D01*
X0162466Y0027461D02*
X0141450Y0027461D01*
X0141450Y0026463D02*
X0161467Y0026463D01*
X0160469Y0025464D02*
X0141449Y0025464D01*
X0141036Y0024466D02*
X0159470Y0024466D01*
X0158472Y0023467D02*
X0140571Y0023467D01*
X0139573Y0022469D02*
X0156388Y0022469D01*
X0155092Y0021470D02*
X0137695Y0021470D01*
X0130250Y0015479D02*
X0170886Y0015479D01*
X0170711Y0014481D02*
X0130250Y0014481D01*
X0130250Y0013482D02*
X0170711Y0013482D01*
X0170711Y0012484D02*
X0130250Y0012484D01*
X0130250Y0011485D02*
X0170745Y0011485D01*
X0171158Y0010487D02*
X0130160Y0010487D01*
X0129746Y0009488D02*
X0171572Y0009488D01*
X0171985Y0008490D02*
X0128896Y0008490D01*
X0122250Y0015500D02*
X0055250Y0015500D01*
X0055250Y0033924D01*
X0055900Y0034574D01*
X0055900Y0038426D01*
X0054626Y0039700D01*
X0057396Y0039700D01*
X0064353Y0046657D01*
X0065216Y0046300D01*
X0067284Y0046300D01*
X0068147Y0046657D01*
X0083320Y0031485D01*
X0082944Y0031109D01*
X0082350Y0029676D01*
X0082350Y0023324D01*
X0082944Y0021891D01*
X0083135Y0021700D01*
X0079337Y0021700D01*
X0079706Y0022253D01*
X0080000Y0022962D01*
X0080150Y0023716D01*
X0080150Y0026200D01*
X0076550Y0026200D01*
X0076550Y0026800D01*
X0075950Y0026800D01*
X0075950Y0032800D01*
X0075866Y0032800D01*
X0075112Y0032650D01*
X0074403Y0032356D01*
X0073764Y0031929D01*
X0073221Y0031386D01*
X0072794Y0030747D01*
X0072500Y0030038D01*
X0072350Y0029284D01*
X0072350Y0026800D01*
X0075950Y0026800D01*
X0075950Y0026200D01*
X0072350Y0026200D01*
X0072350Y0023716D01*
X0072433Y0023300D01*
X0069965Y0023300D01*
X0067865Y0025400D01*
X0064635Y0025400D01*
X0062350Y0023115D01*
X0062350Y0019885D01*
X0064635Y0017600D01*
X0067865Y0017600D01*
X0069965Y0019700D01*
X0071904Y0019700D01*
X0072450Y0019154D01*
X0073504Y0018100D01*
X0090196Y0018100D01*
X0093465Y0021370D01*
X0094041Y0020794D01*
X0095474Y0020200D01*
X0097026Y0020200D01*
X0098459Y0020794D01*
X0099556Y0021891D01*
X0100150Y0023324D01*
X0100150Y0029676D01*
X0099556Y0031109D01*
X0098459Y0032206D01*
X0097026Y0032800D01*
X0095474Y0032800D01*
X0094041Y0032206D01*
X0092944Y0031109D01*
X0092350Y0029676D01*
X0092350Y0025346D01*
X0090024Y0023019D01*
X0090150Y0023324D01*
X0090150Y0029676D01*
X0089556Y0031109D01*
X0088459Y0032206D01*
X0087145Y0032751D01*
X0070858Y0049037D01*
X0071450Y0050466D01*
X0071450Y0052534D01*
X0070849Y0053986D01*
X0071641Y0053194D01*
X0073074Y0052600D01*
X0079426Y0052600D01*
X0080859Y0053194D01*
X0081956Y0054291D01*
X0082550Y0055724D01*
X0082550Y0057276D01*
X0081956Y0058709D01*
X0080859Y0059806D01*
X0079426Y0060400D01*
X0073074Y0060400D01*
X0071641Y0059806D01*
X0070544Y0058709D01*
X0069950Y0057276D01*
X0069950Y0055724D01*
X0070353Y0054751D01*
X0069196Y0055908D01*
X0067284Y0056700D01*
X0065216Y0056700D01*
X0063304Y0055908D01*
X0061842Y0054446D01*
X0061050Y0052534D01*
X0061050Y0050466D01*
X0061642Y0049037D01*
X0055904Y0043300D01*
X0054626Y0043300D01*
X0055900Y0044574D01*
X0055900Y0046200D01*
X0051550Y0046200D01*
X0051550Y0046800D01*
X0050950Y0046800D01*
X0050950Y0051150D01*
X0049324Y0051150D01*
X0046600Y0048426D01*
X0046600Y0046800D01*
X0050950Y0046800D01*
X0050950Y0046200D01*
X0046600Y0046200D01*
X0046600Y0044574D01*
X0048289Y0042885D01*
X0047650Y0042246D01*
X0045250Y0039846D01*
X0045250Y0057500D01*
X0052691Y0057500D01*
X0052944Y0056891D01*
X0054041Y0055794D01*
X0055474Y0055200D01*
X0057026Y0055200D01*
X0058459Y0055794D01*
X0059556Y0056891D01*
X0060150Y0058324D01*
X0060150Y0060463D01*
X0060250Y0060704D01*
X0060250Y0062296D01*
X0060150Y0062537D01*
X0060150Y0064676D01*
X0059556Y0066109D01*
X0058459Y0067206D01*
X0057052Y0067789D01*
X0057424Y0067944D01*
X0058206Y0068726D01*
X0058630Y0069747D01*
X0058630Y0070100D01*
X0072350Y0070100D01*
X0072003Y0069956D01*
X0071364Y0069529D01*
X0070821Y0068986D01*
X0070394Y0068347D01*
X0070100Y0067638D01*
X0069950Y0066884D01*
X0069950Y0066800D01*
X0075950Y0066800D01*
X0075950Y0066200D01*
X0076550Y0066200D01*
X0082204Y0066200D01*
X0081604Y0066800D01*
X0076550Y0066800D01*
X0076550Y0066200D01*
X0076550Y0062600D01*
X0079034Y0062600D01*
X0079788Y0062750D01*
X0080497Y0063044D01*
X0081136Y0063471D01*
X0081679Y0064014D01*
X0082106Y0064653D01*
X0082400Y0065362D01*
X0082507Y0065898D01*
X0093504Y0054900D01*
X0100291Y0054900D01*
X0100544Y0054291D01*
X0101641Y0053194D01*
X0103074Y0052600D01*
X0109426Y0052600D01*
X0110859Y0053194D01*
X0111956Y0054291D01*
X0112550Y0055724D01*
X0112550Y0057276D01*
X0111956Y0058709D01*
X0110859Y0059806D01*
X0109426Y0060400D01*
X0103074Y0060400D01*
X0101641Y0059806D01*
X0100544Y0058709D01*
X0100457Y0058500D01*
X0094996Y0058500D01*
X0080850Y0072646D01*
X0080465Y0073030D01*
X0080859Y0073194D01*
X0081956Y0074291D01*
X0082550Y0075724D01*
X0082550Y0077276D01*
X0081956Y0078709D01*
X0080965Y0079700D01*
X0101535Y0079700D01*
X0100544Y0078709D01*
X0099950Y0077276D01*
X0099950Y0075724D01*
X0100544Y0074291D01*
X0101641Y0073194D01*
X0103074Y0072600D01*
X0109426Y0072600D01*
X0110859Y0073194D01*
X0111956Y0074291D01*
X0112119Y0074685D01*
X0112704Y0074100D01*
X0116704Y0070100D01*
X0117350Y0070100D01*
X0117003Y0069956D01*
X0116364Y0069529D01*
X0115821Y0068986D01*
X0115394Y0068347D01*
X0115100Y0067638D01*
X0114950Y0066884D01*
X0114950Y0066800D01*
X0120950Y0066800D01*
X0120950Y0066200D01*
X0121550Y0066200D01*
X0121550Y0066800D01*
X0127550Y0066800D01*
X0127550Y0066884D01*
X0127400Y0067638D01*
X0127106Y0068347D01*
X0126679Y0068986D01*
X0126136Y0069529D01*
X0125497Y0069956D01*
X0125150Y0070100D01*
X0131904Y0070100D01*
X0133951Y0068053D01*
X0133476Y0067856D01*
X0132694Y0067074D01*
X0132270Y0066053D01*
X0132270Y0064947D01*
X0132694Y0063926D01*
X0133476Y0063144D01*
X0134497Y0062720D01*
X0135284Y0062720D01*
X0143104Y0054900D01*
X0145291Y0054900D01*
X0145544Y0054291D01*
X0146641Y0053194D01*
X0148074Y0052600D01*
X0154426Y0052600D01*
X0155859Y0053194D01*
X0156956Y0054291D01*
X0157550Y0055724D01*
X0157550Y0057276D01*
X0156956Y0058709D01*
X0155859Y0059806D01*
X0154426Y0060400D01*
X0148074Y0060400D01*
X0146641Y0059806D01*
X0145544Y0058709D01*
X0145457Y0058500D01*
X0144596Y0058500D01*
X0142596Y0060500D01*
X0168596Y0060500D01*
X0169650Y0061554D01*
X0169650Y0061554D01*
X0172596Y0064500D01*
X0172857Y0064500D01*
X0172944Y0064291D01*
X0174041Y0063194D01*
X0175474Y0062600D01*
X0177026Y0062600D01*
X0178459Y0063194D01*
X0179556Y0064291D01*
X0180150Y0065724D01*
X0180150Y0067276D01*
X0179556Y0068709D01*
X0178459Y0069806D01*
X0177026Y0070400D01*
X0175474Y0070400D01*
X0174041Y0069806D01*
X0172944Y0068709D01*
X0172691Y0068100D01*
X0171104Y0068100D01*
X0170150Y0067146D01*
X0170150Y0067276D01*
X0169805Y0068109D01*
X0179465Y0077770D01*
X0179635Y0077600D01*
X0182865Y0077600D01*
X0184450Y0079185D01*
X0184450Y0049446D01*
X0172317Y0037312D01*
X0172317Y0037858D01*
X0171609Y0039567D01*
X0170301Y0040875D01*
X0170215Y0040911D01*
X0170696Y0041261D01*
X0171214Y0041778D01*
X0171644Y0042370D01*
X0171976Y0043022D01*
X0172202Y0043718D01*
X0172317Y0044441D01*
X0172317Y0044618D01*
X0167856Y0044618D01*
X0167856Y0044996D01*
X0167478Y0044996D01*
X0167478Y0044618D01*
X0163018Y0044618D01*
X0163018Y0044441D01*
X0163132Y0043718D01*
X0163358Y0043022D01*
X0163691Y0042370D01*
X0164121Y0041778D01*
X0164638Y0041261D01*
X0165120Y0040911D01*
X0165034Y0040875D01*
X0164659Y0040500D01*
X0125454Y0040500D01*
X0123984Y0039891D01*
X0122859Y0038766D01*
X0122250Y0037296D01*
X0122250Y0029854D01*
X0121842Y0029446D01*
X0121250Y0028017D01*
X0120658Y0029446D01*
X0119196Y0030908D01*
X0117284Y0031700D01*
X0115216Y0031700D01*
X0113304Y0030908D01*
X0111842Y0029446D01*
X0111050Y0027534D01*
X0111050Y0025466D01*
X0111842Y0023554D01*
X0113304Y0022092D01*
X0115216Y0021300D01*
X0117284Y0021300D01*
X0119196Y0022092D01*
X0120658Y0023554D01*
X0121250Y0024983D01*
X0121842Y0023554D01*
X0122250Y0023146D01*
X0122250Y0015500D01*
X0122250Y0016478D02*
X0055250Y0016478D01*
X0055250Y0017476D02*
X0122250Y0017476D01*
X0122250Y0018475D02*
X0090570Y0018475D01*
X0091569Y0019473D02*
X0122250Y0019473D01*
X0122250Y0020472D02*
X0097682Y0020472D01*
X0099136Y0021470D02*
X0114805Y0021470D01*
X0112927Y0022469D02*
X0099796Y0022469D01*
X0100150Y0023467D02*
X0111929Y0023467D01*
X0111464Y0024466D02*
X0100150Y0024466D01*
X0100150Y0025464D02*
X0111051Y0025464D01*
X0111050Y0026463D02*
X0100150Y0026463D01*
X0100150Y0027461D02*
X0111050Y0027461D01*
X0111433Y0028460D02*
X0100150Y0028460D01*
X0100150Y0029458D02*
X0111854Y0029458D01*
X0112853Y0030457D02*
X0099826Y0030457D01*
X0099210Y0031455D02*
X0114625Y0031455D01*
X0117875Y0031455D02*
X0122250Y0031455D01*
X0122250Y0030457D02*
X0119647Y0030457D01*
X0120646Y0029458D02*
X0121854Y0029458D01*
X0121433Y0028460D02*
X0121067Y0028460D01*
X0121036Y0024466D02*
X0121464Y0024466D01*
X0121929Y0023467D02*
X0120571Y0023467D01*
X0119573Y0022469D02*
X0122250Y0022469D01*
X0122250Y0021470D02*
X0117695Y0021470D01*
X0122250Y0032454D02*
X0097861Y0032454D01*
X0094639Y0032454D02*
X0087861Y0032454D01*
X0089210Y0031455D02*
X0093290Y0031455D01*
X0092674Y0030457D02*
X0089826Y0030457D01*
X0090150Y0029458D02*
X0092350Y0029458D01*
X0092350Y0028460D02*
X0090150Y0028460D01*
X0090150Y0027461D02*
X0092350Y0027461D01*
X0092350Y0026463D02*
X0090150Y0026463D01*
X0090150Y0025464D02*
X0092350Y0025464D01*
X0091470Y0024466D02*
X0090150Y0024466D01*
X0090150Y0023467D02*
X0090472Y0023467D01*
X0092567Y0020472D02*
X0094818Y0020472D01*
X0083290Y0031455D02*
X0079210Y0031455D01*
X0079279Y0031386D02*
X0078736Y0031929D01*
X0078097Y0032356D01*
X0077388Y0032650D01*
X0076634Y0032800D01*
X0076550Y0032800D01*
X0076550Y0026800D01*
X0080150Y0026800D01*
X0080150Y0029284D01*
X0080000Y0030038D01*
X0079706Y0030747D01*
X0079279Y0031386D01*
X0079826Y0030457D02*
X0082674Y0030457D01*
X0082350Y0029458D02*
X0080115Y0029458D01*
X0080150Y0028460D02*
X0082350Y0028460D01*
X0082350Y0027461D02*
X0080150Y0027461D01*
X0080150Y0025464D02*
X0082350Y0025464D01*
X0082350Y0024466D02*
X0080150Y0024466D01*
X0080101Y0023467D02*
X0082350Y0023467D01*
X0082704Y0022469D02*
X0079796Y0022469D01*
X0082350Y0026463D02*
X0076550Y0026463D01*
X0075950Y0026463D02*
X0055250Y0026463D01*
X0055250Y0027461D02*
X0072350Y0027461D01*
X0072350Y0028460D02*
X0055250Y0028460D01*
X0055250Y0029458D02*
X0072385Y0029458D01*
X0072674Y0030457D02*
X0055250Y0030457D01*
X0055250Y0031455D02*
X0073290Y0031455D01*
X0074639Y0032454D02*
X0055250Y0032454D01*
X0055250Y0033452D02*
X0081352Y0033452D01*
X0082351Y0032454D02*
X0077861Y0032454D01*
X0076550Y0032454D02*
X0075950Y0032454D01*
X0075950Y0031455D02*
X0076550Y0031455D01*
X0076550Y0030457D02*
X0075950Y0030457D01*
X0075950Y0029458D02*
X0076550Y0029458D01*
X0076550Y0028460D02*
X0075950Y0028460D01*
X0075950Y0027461D02*
X0076550Y0027461D01*
X0072350Y0025464D02*
X0055250Y0025464D01*
X0055250Y0024466D02*
X0063700Y0024466D01*
X0062702Y0023467D02*
X0055250Y0023467D01*
X0055250Y0022469D02*
X0062350Y0022469D01*
X0062350Y0021470D02*
X0055250Y0021470D01*
X0055250Y0020472D02*
X0062350Y0020472D01*
X0062761Y0019473D02*
X0055250Y0019473D01*
X0055250Y0018475D02*
X0063760Y0018475D01*
X0068740Y0018475D02*
X0073130Y0018475D01*
X0072131Y0019473D02*
X0069739Y0019473D01*
X0069798Y0023467D02*
X0072399Y0023467D01*
X0072350Y0024466D02*
X0068800Y0024466D01*
X0067865Y0037600D02*
X0064635Y0037600D01*
X0062350Y0039885D01*
X0062350Y0043115D01*
X0064635Y0045400D01*
X0067865Y0045400D01*
X0070150Y0043115D01*
X0070150Y0039885D01*
X0067865Y0037600D01*
X0068710Y0038445D02*
X0076359Y0038445D01*
X0075361Y0039443D02*
X0069709Y0039443D01*
X0070150Y0040442D02*
X0074362Y0040442D01*
X0073364Y0041440D02*
X0070150Y0041440D01*
X0070150Y0042439D02*
X0072365Y0042439D01*
X0071367Y0043437D02*
X0069828Y0043437D01*
X0070368Y0044436D02*
X0068829Y0044436D01*
X0069370Y0045434D02*
X0063130Y0045434D01*
X0063671Y0044436D02*
X0062132Y0044436D01*
X0062672Y0043437D02*
X0061133Y0043437D01*
X0060135Y0042439D02*
X0062350Y0042439D01*
X0062350Y0041440D02*
X0059136Y0041440D01*
X0058138Y0040442D02*
X0062350Y0040442D01*
X0062791Y0039443D02*
X0054883Y0039443D01*
X0055881Y0038445D02*
X0063790Y0038445D01*
X0064129Y0046433D02*
X0064895Y0046433D01*
X0067605Y0046433D02*
X0068371Y0046433D01*
X0071466Y0048430D02*
X0164744Y0048430D01*
X0164638Y0048354D02*
X0164121Y0047836D01*
X0163691Y0047244D01*
X0163358Y0046592D01*
X0163132Y0045896D01*
X0163018Y0045173D01*
X0163018Y0044996D01*
X0167478Y0044996D01*
X0167478Y0049457D01*
X0167301Y0049457D01*
X0166579Y0049342D01*
X0165882Y0049116D01*
X0165230Y0048784D01*
X0164638Y0048354D01*
X0163827Y0047432D02*
X0072464Y0047432D01*
X0073463Y0046433D02*
X0163307Y0046433D01*
X0163059Y0045434D02*
X0074461Y0045434D01*
X0075460Y0044436D02*
X0163019Y0044436D01*
X0163223Y0043437D02*
X0076458Y0043437D01*
X0077457Y0042439D02*
X0163656Y0042439D01*
X0164458Y0041440D02*
X0078455Y0041440D01*
X0079454Y0040442D02*
X0125314Y0040442D01*
X0123537Y0039443D02*
X0080452Y0039443D01*
X0081451Y0038445D02*
X0122726Y0038445D01*
X0122312Y0037446D02*
X0082449Y0037446D01*
X0083448Y0036448D02*
X0122250Y0036448D01*
X0122250Y0035449D02*
X0084446Y0035449D01*
X0085445Y0034451D02*
X0122250Y0034451D01*
X0122250Y0033452D02*
X0086443Y0033452D01*
X0080354Y0034451D02*
X0055777Y0034451D01*
X0055900Y0035449D02*
X0079355Y0035449D01*
X0078357Y0036448D02*
X0055900Y0036448D01*
X0055900Y0037446D02*
X0077358Y0037446D01*
X0071020Y0049429D02*
X0167124Y0049429D01*
X0167478Y0049429D02*
X0167856Y0049429D01*
X0167856Y0049457D02*
X0167856Y0044996D01*
X0172317Y0044996D01*
X0172317Y0045173D01*
X0172202Y0045896D01*
X0171976Y0046592D01*
X0171644Y0047244D01*
X0171214Y0047836D01*
X0170696Y0048354D01*
X0170104Y0048784D01*
X0169452Y0049116D01*
X0168756Y0049342D01*
X0168033Y0049457D01*
X0167856Y0049457D01*
X0168211Y0049429D02*
X0184433Y0049429D01*
X0184450Y0050427D02*
X0071434Y0050427D01*
X0071450Y0051426D02*
X0184450Y0051426D01*
X0184450Y0052424D02*
X0071450Y0052424D01*
X0071412Y0053423D02*
X0071082Y0053423D01*
X0070076Y0055420D02*
X0069684Y0055420D01*
X0069950Y0056418D02*
X0067965Y0056418D01*
X0070008Y0057417D02*
X0059774Y0057417D01*
X0060150Y0058415D02*
X0070422Y0058415D01*
X0071248Y0059414D02*
X0060150Y0059414D01*
X0060150Y0060412D02*
X0087992Y0060412D01*
X0086994Y0061411D02*
X0060250Y0061411D01*
X0060203Y0062409D02*
X0085995Y0062409D01*
X0084997Y0063408D02*
X0081042Y0063408D01*
X0081941Y0064406D02*
X0083998Y0064406D01*
X0083000Y0065405D02*
X0082409Y0065405D01*
X0082001Y0066403D02*
X0076550Y0066403D01*
X0075950Y0066403D02*
X0059262Y0066403D01*
X0059848Y0065405D02*
X0070091Y0065405D01*
X0070100Y0065362D02*
X0070394Y0064653D01*
X0070821Y0064014D01*
X0071364Y0063471D01*
X0072003Y0063044D01*
X0072712Y0062750D01*
X0073466Y0062600D01*
X0075950Y0062600D01*
X0075950Y0066200D01*
X0069950Y0066200D01*
X0069950Y0066116D01*
X0070100Y0065362D01*
X0070559Y0064406D02*
X0060150Y0064406D01*
X0060150Y0063408D02*
X0071458Y0063408D01*
X0070053Y0067402D02*
X0057987Y0067402D01*
X0057881Y0068400D02*
X0070429Y0068400D01*
X0071233Y0069399D02*
X0058485Y0069399D01*
X0059084Y0056418D02*
X0064535Y0056418D01*
X0062816Y0055420D02*
X0057556Y0055420D01*
X0054944Y0055420D02*
X0045250Y0055420D01*
X0045250Y0056418D02*
X0053416Y0056418D01*
X0052726Y0057417D02*
X0045250Y0057417D01*
X0045250Y0054421D02*
X0061832Y0054421D01*
X0061418Y0053423D02*
X0045250Y0053423D01*
X0045250Y0052424D02*
X0061050Y0052424D01*
X0061050Y0051426D02*
X0045250Y0051426D01*
X0045250Y0050427D02*
X0048601Y0050427D01*
X0047602Y0049429D02*
X0045250Y0049429D01*
X0045250Y0048430D02*
X0046604Y0048430D01*
X0046600Y0047432D02*
X0045250Y0047432D01*
X0045250Y0046433D02*
X0050950Y0046433D01*
X0051550Y0046433D02*
X0059037Y0046433D01*
X0058039Y0045434D02*
X0055900Y0045434D01*
X0055762Y0044436D02*
X0057040Y0044436D01*
X0056042Y0043437D02*
X0054764Y0043437D01*
X0055900Y0046800D02*
X0055900Y0048426D01*
X0053176Y0051150D01*
X0051550Y0051150D01*
X0051550Y0046800D01*
X0055900Y0046800D01*
X0055900Y0047432D02*
X0060036Y0047432D01*
X0061034Y0048430D02*
X0055896Y0048430D01*
X0054898Y0049429D02*
X0061480Y0049429D01*
X0061066Y0050427D02*
X0053899Y0050427D01*
X0051550Y0050427D02*
X0050950Y0050427D01*
X0050950Y0049429D02*
X0051550Y0049429D01*
X0051550Y0048430D02*
X0050950Y0048430D01*
X0050950Y0047432D02*
X0051550Y0047432D01*
X0046600Y0045434D02*
X0045250Y0045434D01*
X0045250Y0044436D02*
X0046738Y0044436D01*
X0047736Y0043437D02*
X0045250Y0043437D01*
X0045250Y0042439D02*
X0047843Y0042439D01*
X0046845Y0041440D02*
X0045250Y0041440D01*
X0045250Y0040442D02*
X0045846Y0040442D01*
X0037250Y0040933D02*
X0032450Y0040933D01*
X0032901Y0041261D01*
X0033419Y0041778D01*
X0033849Y0042370D01*
X0034181Y0043022D01*
X0034407Y0043718D01*
X0034522Y0044441D01*
X0034522Y0044618D01*
X0030061Y0044618D01*
X0030061Y0044996D01*
X0034522Y0044996D01*
X0034522Y0045173D01*
X0034407Y0045896D01*
X0034181Y0046592D01*
X0033849Y0047244D01*
X0033419Y0047836D01*
X0032901Y0048354D01*
X0032309Y0048784D01*
X0031657Y0049116D01*
X0030961Y0049342D01*
X0030238Y0049457D01*
X0030061Y0049457D01*
X0030061Y0044996D01*
X0029683Y0044996D01*
X0029683Y0044618D01*
X0025222Y0044618D01*
X0025222Y0044441D01*
X0025337Y0043718D01*
X0025563Y0043022D01*
X0025895Y0042370D01*
X0026326Y0041778D01*
X0026843Y0041261D01*
X0027325Y0040911D01*
X0027238Y0040875D01*
X0025930Y0039567D01*
X0025222Y0037858D01*
X0025222Y0037073D01*
X0024050Y0038246D01*
X0024050Y0055790D01*
X0025474Y0055200D01*
X0027026Y0055200D01*
X0028459Y0055794D01*
X0029556Y0056891D01*
X0030150Y0058324D01*
X0030150Y0059700D01*
X0036596Y0059700D01*
X0037250Y0060354D01*
X0037250Y0040933D01*
X0037250Y0041440D02*
X0033081Y0041440D01*
X0033884Y0042439D02*
X0037250Y0042439D01*
X0037250Y0043437D02*
X0034316Y0043437D01*
X0034521Y0044436D02*
X0037250Y0044436D01*
X0037250Y0045434D02*
X0034480Y0045434D01*
X0034233Y0046433D02*
X0037250Y0046433D01*
X0037250Y0047432D02*
X0033713Y0047432D01*
X0032796Y0048430D02*
X0037250Y0048430D01*
X0037250Y0049429D02*
X0030416Y0049429D01*
X0030061Y0049429D02*
X0029683Y0049429D01*
X0029683Y0049457D02*
X0029506Y0049457D01*
X0028783Y0049342D01*
X0028087Y0049116D01*
X0027435Y0048784D01*
X0026843Y0048354D01*
X0026326Y0047836D01*
X0025895Y0047244D01*
X0025563Y0046592D01*
X0025337Y0045896D01*
X0025222Y0045173D01*
X0025222Y0044996D01*
X0029683Y0044996D01*
X0029683Y0049457D01*
X0029328Y0049429D02*
X0024050Y0049429D01*
X0024050Y0050427D02*
X0037250Y0050427D01*
X0037250Y0051426D02*
X0024050Y0051426D01*
X0024050Y0052424D02*
X0037250Y0052424D01*
X0037250Y0053423D02*
X0024050Y0053423D01*
X0024050Y0054421D02*
X0037250Y0054421D01*
X0037250Y0055420D02*
X0027556Y0055420D01*
X0029084Y0056418D02*
X0037250Y0056418D01*
X0037250Y0057417D02*
X0029774Y0057417D01*
X0030150Y0058415D02*
X0037250Y0058415D01*
X0037250Y0059414D02*
X0030150Y0059414D01*
X0024944Y0055420D02*
X0024050Y0055420D01*
X0020450Y0055420D02*
X0020250Y0055420D01*
X0020250Y0056418D02*
X0020450Y0056418D01*
X0020450Y0057417D02*
X0020250Y0057417D01*
X0020250Y0058415D02*
X0020450Y0058415D01*
X0020450Y0059414D02*
X0020250Y0059414D01*
X0020250Y0060412D02*
X0020450Y0060412D01*
X0020450Y0061411D02*
X0020250Y0061411D01*
X0020203Y0062409D02*
X0020450Y0062409D01*
X0020450Y0063408D02*
X0020150Y0063408D01*
X0020150Y0064406D02*
X0020450Y0064406D01*
X0020450Y0065405D02*
X0019848Y0065405D01*
X0019262Y0066403D02*
X0020450Y0066403D01*
X0020806Y0067402D02*
X0017987Y0067402D01*
X0014513Y0067402D02*
X0008718Y0067402D01*
X0008718Y0068400D02*
X0021805Y0068400D01*
X0022803Y0069399D02*
X0008718Y0069399D01*
X0008718Y0070397D02*
X0023802Y0070397D01*
X0024450Y0071396D02*
X0008718Y0071396D01*
X0008718Y0072394D02*
X0024450Y0072394D01*
X0024450Y0073393D02*
X0008718Y0073393D01*
X0008718Y0074391D02*
X0024450Y0074391D01*
X0024450Y0075390D02*
X0017484Y0075390D01*
X0017388Y0075350D02*
X0018097Y0075644D01*
X0018736Y0076071D01*
X0019279Y0076614D01*
X0019706Y0077253D01*
X0020000Y0077962D01*
X0020150Y0078716D01*
X0020150Y0081200D01*
X0016550Y0081200D01*
X0016550Y0081800D01*
X0020150Y0081800D01*
X0020150Y0084284D01*
X0020000Y0085038D01*
X0019706Y0085747D01*
X0019279Y0086386D01*
X0018736Y0086929D01*
X0018097Y0087356D01*
X0017388Y0087650D01*
X0016634Y0087800D01*
X0016550Y0087800D01*
X0016550Y0081800D01*
X0015950Y0081800D01*
X0015950Y0087800D01*
X0015866Y0087800D01*
X0015112Y0087650D01*
X0014403Y0087356D01*
X0013764Y0086929D01*
X0013221Y0086386D01*
X0012794Y0085747D01*
X0012500Y0085038D01*
X0012350Y0084284D01*
X0012350Y0081800D01*
X0015950Y0081800D01*
X0015950Y0081200D01*
X0016550Y0081200D01*
X0016550Y0075200D01*
X0016634Y0075200D01*
X0017388Y0075350D01*
X0016550Y0075390D02*
X0015950Y0075390D01*
X0015950Y0075200D02*
X0015950Y0081200D01*
X0012350Y0081200D01*
X0012350Y0078716D01*
X0012500Y0077962D01*
X0012794Y0077253D01*
X0013221Y0076614D01*
X0013764Y0076071D01*
X0014403Y0075644D01*
X0015112Y0075350D01*
X0015866Y0075200D01*
X0015950Y0075200D01*
X0015016Y0075390D02*
X0008718Y0075390D01*
X0008718Y0076388D02*
X0013446Y0076388D01*
X0012738Y0077387D02*
X0008718Y0077387D01*
X0008718Y0078385D02*
X0012416Y0078385D01*
X0012350Y0079384D02*
X0008718Y0079384D01*
X0008718Y0080382D02*
X0012350Y0080382D01*
X0012350Y0082379D02*
X0008718Y0082379D01*
X0008718Y0081381D02*
X0015950Y0081381D01*
X0016550Y0081381D02*
X0022350Y0081381D01*
X0022350Y0082379D02*
X0020150Y0082379D01*
X0020150Y0083378D02*
X0022350Y0083378D01*
X0022350Y0084376D02*
X0020132Y0084376D01*
X0019860Y0085375D02*
X0022640Y0085375D01*
X0023208Y0086373D02*
X0019288Y0086373D01*
X0018059Y0087372D02*
X0024441Y0087372D01*
X0025634Y0088370D02*
X0008718Y0088370D01*
X0008718Y0087372D02*
X0014441Y0087372D01*
X0015950Y0087372D02*
X0016550Y0087372D01*
X0016550Y0086373D02*
X0015950Y0086373D01*
X0015950Y0085375D02*
X0016550Y0085375D01*
X0016550Y0084376D02*
X0015950Y0084376D01*
X0015950Y0083378D02*
X0016550Y0083378D01*
X0016550Y0082379D02*
X0015950Y0082379D01*
X0015950Y0080382D02*
X0016550Y0080382D01*
X0016550Y0079384D02*
X0015950Y0079384D01*
X0015950Y0078385D02*
X0016550Y0078385D01*
X0016550Y0077387D02*
X0015950Y0077387D01*
X0015950Y0076388D02*
X0016550Y0076388D01*
X0019054Y0076388D02*
X0023446Y0076388D01*
X0022738Y0077387D02*
X0019762Y0077387D01*
X0020084Y0078385D02*
X0022350Y0078385D01*
X0022350Y0079384D02*
X0020150Y0079384D01*
X0020150Y0080382D02*
X0022350Y0080382D01*
X0012350Y0083378D02*
X0008718Y0083378D01*
X0008718Y0084376D02*
X0012368Y0084376D01*
X0012640Y0085375D02*
X0008718Y0085375D01*
X0008718Y0086373D02*
X0013212Y0086373D01*
X0013435Y0089369D02*
X0008718Y0089369D01*
X0008718Y0090368D02*
X0012437Y0090368D01*
X0011438Y0091366D02*
X0008718Y0091366D01*
X0008718Y0092365D02*
X0010440Y0092365D01*
X0009441Y0093363D02*
X0008718Y0093363D01*
X0008718Y0094362D02*
X0009250Y0094362D01*
X0009250Y0095360D02*
X0008718Y0095360D01*
X0008718Y0096359D02*
X0009250Y0096359D01*
X0009250Y0097357D02*
X0008718Y0097357D01*
X0008718Y0098356D02*
X0009250Y0098356D01*
X0009250Y0099354D02*
X0008718Y0099354D01*
X0008718Y0100353D02*
X0009250Y0100353D01*
X0009250Y0101351D02*
X0008718Y0101351D01*
X0008718Y0102350D02*
X0009250Y0102350D01*
X0009250Y0103348D02*
X0008718Y0103348D01*
X0008718Y0104347D02*
X0009250Y0104347D01*
X0009250Y0105345D02*
X0008718Y0105345D01*
X0008718Y0106344D02*
X0009250Y0106344D01*
X0009250Y0107342D02*
X0008718Y0107342D01*
X0008718Y0108341D02*
X0009250Y0108341D01*
X0009250Y0109339D02*
X0008718Y0109339D01*
X0008718Y0110338D02*
X0009250Y0110338D01*
X0009250Y0111336D02*
X0008718Y0111336D01*
X0008718Y0112335D02*
X0009250Y0112335D01*
X0009250Y0113333D02*
X0008718Y0113333D01*
X0008718Y0114332D02*
X0009250Y0114332D01*
X0009250Y0115330D02*
X0008718Y0115330D01*
X0008718Y0116329D02*
X0009250Y0116329D01*
X0009250Y0117327D02*
X0008718Y0117327D01*
X0008718Y0118326D02*
X0009250Y0118326D01*
X0009250Y0119324D02*
X0008718Y0119324D01*
X0008718Y0120323D02*
X0009250Y0120323D01*
X0009250Y0121321D02*
X0008718Y0121321D01*
X0008718Y0122320D02*
X0009250Y0122320D01*
X0009250Y0123318D02*
X0008718Y0123318D01*
X0008718Y0124317D02*
X0009250Y0124317D01*
X0009250Y0125315D02*
X0008718Y0125315D01*
X0008718Y0126314D02*
X0009250Y0126314D01*
X0009250Y0127312D02*
X0008718Y0127312D01*
X0008718Y0128311D02*
X0009250Y0128311D01*
X0009250Y0129309D02*
X0008718Y0129309D01*
X0008718Y0130308D02*
X0009250Y0130308D01*
X0009250Y0131306D02*
X0008718Y0131306D01*
X0008718Y0132305D02*
X0009709Y0132305D01*
X0008718Y0133303D02*
X0010708Y0133303D01*
X0011706Y0134302D02*
X0008718Y0134302D01*
X0008718Y0135301D02*
X0012705Y0135301D01*
X0013703Y0136299D02*
X0008718Y0136299D01*
X0008718Y0137298D02*
X0014702Y0137298D01*
X0015700Y0138296D02*
X0008718Y0138296D01*
X0008718Y0139295D02*
X0016699Y0139295D01*
X0017698Y0140293D02*
X0008718Y0140293D01*
X0008718Y0141292D02*
X0018696Y0141292D01*
X0019695Y0142290D02*
X0008718Y0142290D01*
X0008718Y0143289D02*
X0020693Y0143289D01*
X0021692Y0144287D02*
X0008718Y0144287D01*
X0008718Y0145286D02*
X0022690Y0145286D01*
X0023689Y0146284D02*
X0008718Y0146284D01*
X0008718Y0147283D02*
X0024687Y0147283D01*
X0025686Y0148281D02*
X0008718Y0148281D01*
X0008718Y0149280D02*
X0026684Y0149280D01*
X0027683Y0150278D02*
X0008718Y0150278D01*
X0008718Y0151277D02*
X0015011Y0151277D01*
X0012979Y0152275D02*
X0008718Y0152275D01*
X0008718Y0153274D02*
X0011981Y0153274D01*
X0011436Y0154272D02*
X0008718Y0154272D01*
X0008718Y0155271D02*
X0011022Y0155271D01*
X0010950Y0156269D02*
X0008718Y0156269D01*
X0008718Y0157268D02*
X0010950Y0157268D01*
X0011245Y0158266D02*
X0008718Y0158266D01*
X0008718Y0159265D02*
X0011659Y0159265D01*
X0012518Y0160263D02*
X0008718Y0160263D01*
X0008718Y0161262D02*
X0013896Y0161262D01*
X0018604Y0161262D02*
X0023896Y0161262D01*
X0022518Y0160263D02*
X0019982Y0160263D01*
X0020841Y0159265D02*
X0021659Y0159265D01*
X0021436Y0154272D02*
X0021064Y0154272D01*
X0020519Y0153274D02*
X0021981Y0153274D01*
X0022979Y0152275D02*
X0019521Y0152275D01*
X0017489Y0151277D02*
X0025011Y0151277D01*
X0027489Y0151277D02*
X0028681Y0151277D01*
X0029521Y0152275D02*
X0029680Y0152275D01*
X0030519Y0153274D02*
X0030678Y0153274D01*
X0031064Y0154272D02*
X0031436Y0154272D01*
X0034135Y0151639D02*
X0035196Y0151200D01*
X0037304Y0151200D01*
X0039252Y0152007D01*
X0040743Y0153498D01*
X0041250Y0154722D01*
X0041757Y0153498D01*
X0043248Y0152007D01*
X0045196Y0151200D01*
X0047304Y0151200D01*
X0049252Y0152007D01*
X0050743Y0153498D01*
X0051250Y0154722D01*
X0051757Y0153498D01*
X0053248Y0152007D01*
X0055196Y0151200D01*
X0057304Y0151200D01*
X0059252Y0152007D01*
X0060743Y0153498D01*
X0061250Y0154722D01*
X0061757Y0153498D01*
X0063248Y0152007D01*
X0065196Y0151200D01*
X0067304Y0151200D01*
X0068082Y0151522D01*
X0071470Y0148134D01*
X0071470Y0147347D01*
X0071894Y0146326D01*
X0072676Y0145544D01*
X0073697Y0145120D01*
X0074803Y0145120D01*
X0075824Y0145544D01*
X0076606Y0146326D01*
X0077030Y0147347D01*
X0077030Y0148453D01*
X0076606Y0149474D01*
X0075824Y0150256D01*
X0074803Y0150680D01*
X0074016Y0150680D01*
X0070876Y0153819D01*
X0071250Y0154722D01*
X0071757Y0153498D01*
X0073248Y0152007D01*
X0075196Y0151200D01*
X0077304Y0151200D01*
X0078365Y0151639D01*
X0083904Y0146100D01*
X0131904Y0146100D01*
X0176204Y0101800D01*
X0175196Y0101800D01*
X0173248Y0100993D01*
X0171757Y0099502D01*
X0171250Y0098278D01*
X0170743Y0099502D01*
X0169252Y0100993D01*
X0167304Y0101800D01*
X0165196Y0101800D01*
X0163248Y0100993D01*
X0161757Y0099502D01*
X0161250Y0098278D01*
X0160743Y0099502D01*
X0159252Y0100993D01*
X0157304Y0101800D01*
X0155196Y0101800D01*
X0153248Y0100993D01*
X0151757Y0099502D01*
X0151247Y0098272D01*
X0151162Y0098534D01*
X0150783Y0099278D01*
X0150293Y0099953D01*
X0149703Y0100543D01*
X0149028Y0101033D01*
X0148284Y0101412D01*
X0147491Y0101669D01*
X0146750Y0101787D01*
X0146750Y0097000D01*
X0145750Y0097000D01*
X0145750Y0101787D01*
X0145009Y0101669D01*
X0144216Y0101412D01*
X0143472Y0101033D01*
X0142797Y0100543D01*
X0142207Y0099953D01*
X0141717Y0099278D01*
X0141338Y0098534D01*
X0141253Y0098272D01*
X0140743Y0099502D01*
X0139252Y0100993D01*
X0137304Y0101800D01*
X0135196Y0101800D01*
X0133248Y0100993D01*
X0131757Y0099502D01*
X0131250Y0098278D01*
X0130743Y0099502D01*
X0129252Y0100993D01*
X0127304Y0101800D01*
X0125196Y0101800D01*
X0123248Y0100993D01*
X0121757Y0099502D01*
X0121250Y0098278D01*
X0120743Y0099502D01*
X0119252Y0100993D01*
X0117304Y0101800D01*
X0115196Y0101800D01*
X0113248Y0100993D01*
X0111757Y0099502D01*
X0111250Y0098278D01*
X0110743Y0099502D01*
X0109252Y0100993D01*
X0107304Y0101800D01*
X0105196Y0101800D01*
X0103248Y0100993D01*
X0101757Y0099502D01*
X0101250Y0098278D01*
X0100743Y0099502D01*
X0099252Y0100993D01*
X0097304Y0101800D01*
X0095196Y0101800D01*
X0093248Y0100993D01*
X0091757Y0099502D01*
X0091250Y0098278D01*
X0090743Y0099502D01*
X0089252Y0100993D01*
X0087304Y0101800D01*
X0085196Y0101800D01*
X0083248Y0100993D01*
X0081757Y0099502D01*
X0081250Y0098278D01*
X0080743Y0099502D01*
X0079252Y0100993D01*
X0077304Y0101800D01*
X0075196Y0101800D01*
X0073248Y0100993D01*
X0071757Y0099502D01*
X0071250Y0098278D01*
X0070743Y0099502D01*
X0069252Y0100993D01*
X0067304Y0101800D01*
X0065196Y0101800D01*
X0063248Y0100993D01*
X0061757Y0099502D01*
X0061250Y0098278D01*
X0060743Y0099502D01*
X0059252Y0100993D01*
X0057304Y0101800D01*
X0055196Y0101800D01*
X0053248Y0100993D01*
X0051757Y0099502D01*
X0051250Y0098278D01*
X0050743Y0099502D01*
X0049252Y0100993D01*
X0047304Y0101800D01*
X0045196Y0101800D01*
X0043248Y0100993D01*
X0041757Y0099502D01*
X0041250Y0098278D01*
X0040743Y0099502D01*
X0039252Y0100993D01*
X0037304Y0101800D01*
X0035196Y0101800D01*
X0033248Y0100993D01*
X0031757Y0099502D01*
X0031250Y0098278D01*
X0030743Y0099502D01*
X0029252Y0100993D01*
X0027304Y0101800D01*
X0025196Y0101800D01*
X0023248Y0100993D01*
X0021757Y0099502D01*
X0021250Y0098278D01*
X0020743Y0099502D01*
X0019252Y0100993D01*
X0017304Y0101800D01*
X0015196Y0101800D01*
X0013248Y0100993D01*
X0012850Y0100595D01*
X0012850Y0130354D01*
X0034135Y0151639D01*
X0033772Y0151277D02*
X0035011Y0151277D01*
X0037489Y0151277D02*
X0045011Y0151277D01*
X0042979Y0152275D02*
X0039521Y0152275D01*
X0040519Y0153274D02*
X0041981Y0153274D01*
X0041436Y0154272D02*
X0041064Y0154272D01*
X0047489Y0151277D02*
X0055011Y0151277D01*
X0052979Y0152275D02*
X0049521Y0152275D01*
X0050519Y0153274D02*
X0051981Y0153274D01*
X0051436Y0154272D02*
X0051064Y0154272D01*
X0057489Y0151277D02*
X0065011Y0151277D01*
X0062979Y0152275D02*
X0059521Y0152275D01*
X0060519Y0153274D02*
X0061981Y0153274D01*
X0061436Y0154272D02*
X0061064Y0154272D01*
X0067489Y0151277D02*
X0068328Y0151277D01*
X0069326Y0150278D02*
X0032774Y0150278D01*
X0031775Y0149280D02*
X0070325Y0149280D01*
X0071323Y0148281D02*
X0030777Y0148281D01*
X0029778Y0147283D02*
X0071497Y0147283D01*
X0071935Y0146284D02*
X0028780Y0146284D01*
X0027781Y0145286D02*
X0073298Y0145286D01*
X0075202Y0145286D02*
X0132719Y0145286D01*
X0133717Y0144287D02*
X0026783Y0144287D01*
X0025784Y0143289D02*
X0134716Y0143289D01*
X0135714Y0142290D02*
X0024786Y0142290D01*
X0023787Y0141292D02*
X0136713Y0141292D01*
X0137711Y0140293D02*
X0022789Y0140293D01*
X0021790Y0139295D02*
X0138710Y0139295D01*
X0139708Y0138296D02*
X0020792Y0138296D01*
X0019793Y0137298D02*
X0140707Y0137298D01*
X0141705Y0136299D02*
X0018795Y0136299D01*
X0017796Y0135301D02*
X0142704Y0135301D01*
X0143702Y0134302D02*
X0016798Y0134302D01*
X0015799Y0133303D02*
X0144701Y0133303D01*
X0145699Y0132305D02*
X0014801Y0132305D01*
X0013802Y0131306D02*
X0146698Y0131306D01*
X0147696Y0130308D02*
X0012850Y0130308D01*
X0012850Y0129309D02*
X0148695Y0129309D01*
X0149693Y0128311D02*
X0012850Y0128311D01*
X0012850Y0127312D02*
X0150692Y0127312D01*
X0151690Y0126314D02*
X0012850Y0126314D01*
X0012850Y0125315D02*
X0152689Y0125315D01*
X0153688Y0124317D02*
X0012850Y0124317D01*
X0012850Y0123318D02*
X0154686Y0123318D01*
X0155685Y0122320D02*
X0012850Y0122320D01*
X0012850Y0121321D02*
X0156683Y0121321D01*
X0157682Y0120323D02*
X0012850Y0120323D01*
X0012850Y0119324D02*
X0158680Y0119324D01*
X0159679Y0118326D02*
X0012850Y0118326D01*
X0012850Y0117327D02*
X0160677Y0117327D01*
X0161676Y0116329D02*
X0012850Y0116329D01*
X0012850Y0115330D02*
X0162674Y0115330D01*
X0163673Y0114332D02*
X0012850Y0114332D01*
X0012850Y0113333D02*
X0164671Y0113333D01*
X0165670Y0112335D02*
X0012850Y0112335D01*
X0012850Y0111336D02*
X0166668Y0111336D01*
X0167667Y0110338D02*
X0012850Y0110338D01*
X0012850Y0109339D02*
X0168665Y0109339D01*
X0169664Y0108341D02*
X0012850Y0108341D01*
X0012850Y0107342D02*
X0170662Y0107342D01*
X0171661Y0106344D02*
X0012850Y0106344D01*
X0012850Y0105345D02*
X0172659Y0105345D01*
X0173658Y0104347D02*
X0012850Y0104347D01*
X0012850Y0103348D02*
X0174656Y0103348D01*
X0175655Y0102350D02*
X0012850Y0102350D01*
X0012850Y0101351D02*
X0014112Y0101351D01*
X0018388Y0101351D02*
X0024112Y0101351D01*
X0022607Y0100353D02*
X0019893Y0100353D01*
X0020804Y0099354D02*
X0021696Y0099354D01*
X0021282Y0098356D02*
X0021218Y0098356D01*
X0028388Y0101351D02*
X0034112Y0101351D01*
X0032607Y0100353D02*
X0029893Y0100353D01*
X0030804Y0099354D02*
X0031696Y0099354D01*
X0031282Y0098356D02*
X0031218Y0098356D01*
X0038388Y0101351D02*
X0044112Y0101351D01*
X0042607Y0100353D02*
X0039893Y0100353D01*
X0040804Y0099354D02*
X0041696Y0099354D01*
X0041282Y0098356D02*
X0041218Y0098356D01*
X0048388Y0101351D02*
X0054112Y0101351D01*
X0052607Y0100353D02*
X0049893Y0100353D01*
X0050804Y0099354D02*
X0051696Y0099354D01*
X0051282Y0098356D02*
X0051218Y0098356D01*
X0058388Y0101351D02*
X0064112Y0101351D01*
X0062607Y0100353D02*
X0059893Y0100353D01*
X0060804Y0099354D02*
X0061696Y0099354D01*
X0061282Y0098356D02*
X0061218Y0098356D01*
X0068388Y0101351D02*
X0074112Y0101351D01*
X0072607Y0100353D02*
X0069893Y0100353D01*
X0070804Y0099354D02*
X0071696Y0099354D01*
X0071282Y0098356D02*
X0071218Y0098356D01*
X0078388Y0101351D02*
X0084112Y0101351D01*
X0082607Y0100353D02*
X0079893Y0100353D01*
X0080804Y0099354D02*
X0081696Y0099354D01*
X0081282Y0098356D02*
X0081218Y0098356D01*
X0088388Y0101351D02*
X0094112Y0101351D01*
X0092607Y0100353D02*
X0089893Y0100353D01*
X0090804Y0099354D02*
X0091696Y0099354D01*
X0091282Y0098356D02*
X0091218Y0098356D01*
X0098388Y0101351D02*
X0104112Y0101351D01*
X0102607Y0100353D02*
X0099893Y0100353D01*
X0100804Y0099354D02*
X0101696Y0099354D01*
X0101282Y0098356D02*
X0101218Y0098356D01*
X0108388Y0101351D02*
X0114112Y0101351D01*
X0112607Y0100353D02*
X0109893Y0100353D01*
X0110804Y0099354D02*
X0111696Y0099354D01*
X0111282Y0098356D02*
X0111218Y0098356D01*
X0118388Y0101351D02*
X0124112Y0101351D01*
X0122607Y0100353D02*
X0119893Y0100353D01*
X0120804Y0099354D02*
X0121696Y0099354D01*
X0121282Y0098356D02*
X0121218Y0098356D01*
X0122475Y0092780D02*
X0123248Y0092007D01*
X0125196Y0091200D01*
X0127304Y0091200D01*
X0129252Y0092007D01*
X0130743Y0093498D01*
X0131250Y0094722D01*
X0131757Y0093498D01*
X0133248Y0092007D01*
X0135196Y0091200D01*
X0137304Y0091200D01*
X0139252Y0092007D01*
X0140743Y0093498D01*
X0141253Y0094728D01*
X0141338Y0094466D01*
X0141717Y0093722D01*
X0142207Y0093047D01*
X0142797Y0092457D01*
X0143472Y0091967D01*
X0144216Y0091588D01*
X0145009Y0091330D01*
X0145750Y0091213D01*
X0145750Y0096000D01*
X0146750Y0096000D01*
X0146750Y0091213D01*
X0147491Y0091330D01*
X0148284Y0091588D01*
X0149028Y0091967D01*
X0149703Y0092457D01*
X0150293Y0093047D01*
X0150783Y0093722D01*
X0151162Y0094466D01*
X0151247Y0094728D01*
X0151757Y0093498D01*
X0153248Y0092007D01*
X0153363Y0091959D01*
X0153250Y0091846D01*
X0143343Y0081938D01*
X0143024Y0082256D01*
X0142003Y0082680D01*
X0140897Y0082680D01*
X0139876Y0082256D01*
X0139094Y0081474D01*
X0138670Y0080453D01*
X0138670Y0079347D01*
X0139021Y0078500D01*
X0127043Y0078500D01*
X0126956Y0078709D01*
X0125859Y0079806D01*
X0124426Y0080400D01*
X0118074Y0080400D01*
X0116641Y0079806D01*
X0115544Y0078709D01*
X0115250Y0078000D01*
X0115250Y0079046D01*
X0111996Y0082300D01*
X0122475Y0092780D01*
X0122060Y0092365D02*
X0122890Y0092365D01*
X0121062Y0091366D02*
X0124795Y0091366D01*
X0127705Y0091366D02*
X0134795Y0091366D01*
X0132890Y0092365D02*
X0129610Y0092365D01*
X0130608Y0093363D02*
X0131892Y0093363D01*
X0131399Y0094362D02*
X0131101Y0094362D01*
X0131218Y0098356D02*
X0131282Y0098356D01*
X0131696Y0099354D02*
X0130804Y0099354D01*
X0129893Y0100353D02*
X0132607Y0100353D01*
X0134112Y0101351D02*
X0128388Y0101351D01*
X0138388Y0101351D02*
X0144097Y0101351D01*
X0145750Y0101351D02*
X0146750Y0101351D01*
X0146750Y0100353D02*
X0145750Y0100353D01*
X0145750Y0099354D02*
X0146750Y0099354D01*
X0146750Y0098356D02*
X0145750Y0098356D01*
X0145750Y0097357D02*
X0146750Y0097357D01*
X0146750Y0095360D02*
X0145750Y0095360D01*
X0145750Y0094362D02*
X0146750Y0094362D01*
X0146750Y0093363D02*
X0145750Y0093363D01*
X0145750Y0092365D02*
X0146750Y0092365D01*
X0146750Y0091366D02*
X0145750Y0091366D01*
X0144900Y0091366D02*
X0137705Y0091366D01*
X0139610Y0092365D02*
X0142925Y0092365D01*
X0141978Y0093363D02*
X0140608Y0093363D01*
X0141101Y0094362D02*
X0141391Y0094362D01*
X0141280Y0098356D02*
X0141218Y0098356D01*
X0140804Y0099354D02*
X0141772Y0099354D01*
X0142607Y0100353D02*
X0139893Y0100353D01*
X0148403Y0101351D02*
X0154112Y0101351D01*
X0152607Y0100353D02*
X0149893Y0100353D01*
X0150728Y0099354D02*
X0151696Y0099354D01*
X0151282Y0098356D02*
X0151220Y0098356D01*
X0151109Y0094362D02*
X0151399Y0094362D01*
X0151892Y0093363D02*
X0150522Y0093363D01*
X0149575Y0092365D02*
X0152890Y0092365D01*
X0152770Y0091366D02*
X0147600Y0091366D01*
X0149775Y0088370D02*
X0118066Y0088370D01*
X0117068Y0087372D02*
X0148776Y0087372D01*
X0147778Y0086373D02*
X0116069Y0086373D01*
X0115071Y0085375D02*
X0146779Y0085375D01*
X0145781Y0084376D02*
X0114072Y0084376D01*
X0113073Y0083378D02*
X0144782Y0083378D01*
X0143784Y0082379D02*
X0142727Y0082379D01*
X0140173Y0082379D02*
X0112075Y0082379D01*
X0112915Y0081381D02*
X0139055Y0081381D01*
X0138670Y0080382D02*
X0124468Y0080382D01*
X0126282Y0079384D02*
X0138670Y0079384D01*
X0132606Y0069399D02*
X0126267Y0069399D01*
X0127071Y0068400D02*
X0133604Y0068400D01*
X0133021Y0067402D02*
X0127447Y0067402D01*
X0127550Y0066200D02*
X0121550Y0066200D01*
X0121550Y0062600D01*
X0124034Y0062600D01*
X0124788Y0062750D01*
X0125497Y0063044D01*
X0126136Y0063471D01*
X0126679Y0064014D01*
X0127106Y0064653D01*
X0127400Y0065362D01*
X0127550Y0066116D01*
X0127550Y0066200D01*
X0127409Y0065405D02*
X0132270Y0065405D01*
X0132416Y0066403D02*
X0121550Y0066403D01*
X0120950Y0066403D02*
X0087092Y0066403D01*
X0086094Y0067402D02*
X0115053Y0067402D01*
X0115429Y0068400D02*
X0085095Y0068400D01*
X0084097Y0069399D02*
X0116233Y0069399D01*
X0116407Y0070397D02*
X0083098Y0070397D01*
X0082100Y0071396D02*
X0115409Y0071396D01*
X0114410Y0072394D02*
X0081101Y0072394D01*
X0081058Y0073393D02*
X0101442Y0073393D01*
X0100502Y0074391D02*
X0081998Y0074391D01*
X0082411Y0075390D02*
X0100089Y0075390D01*
X0099950Y0076388D02*
X0082550Y0076388D01*
X0082504Y0077387D02*
X0099996Y0077387D01*
X0100410Y0078385D02*
X0082090Y0078385D01*
X0081282Y0079384D02*
X0101218Y0079384D01*
X0111058Y0073393D02*
X0113412Y0073393D01*
X0112413Y0074391D02*
X0111998Y0074391D01*
X0115250Y0078385D02*
X0115410Y0078385D01*
X0114912Y0079384D02*
X0116218Y0079384D01*
X0118032Y0080382D02*
X0113913Y0080382D01*
X0119065Y0089369D02*
X0150773Y0089369D01*
X0151772Y0090368D02*
X0120063Y0090368D01*
X0120950Y0066200D02*
X0114950Y0066200D01*
X0114950Y0066116D01*
X0115100Y0065362D01*
X0115394Y0064653D01*
X0115821Y0064014D01*
X0116364Y0063471D01*
X0117003Y0063044D01*
X0117712Y0062750D01*
X0118466Y0062600D01*
X0120950Y0062600D01*
X0120950Y0066200D01*
X0120950Y0065405D02*
X0121550Y0065405D01*
X0121550Y0064406D02*
X0120950Y0064406D01*
X0120950Y0063408D02*
X0121550Y0063408D01*
X0124426Y0060400D02*
X0118074Y0060400D01*
X0116641Y0059806D01*
X0115544Y0058709D01*
X0114950Y0057276D01*
X0114950Y0055724D01*
X0115544Y0054291D01*
X0116641Y0053194D01*
X0118074Y0052600D01*
X0124426Y0052600D01*
X0125859Y0053194D01*
X0126956Y0054291D01*
X0127550Y0055724D01*
X0127550Y0057276D01*
X0126956Y0058709D01*
X0125859Y0059806D01*
X0124426Y0060400D01*
X0126252Y0059414D02*
X0138591Y0059414D01*
X0137592Y0060412D02*
X0093083Y0060412D01*
X0092085Y0061411D02*
X0136594Y0061411D01*
X0135595Y0062409D02*
X0091086Y0062409D01*
X0090088Y0063408D02*
X0116458Y0063408D01*
X0115559Y0064406D02*
X0089089Y0064406D01*
X0088091Y0065405D02*
X0115091Y0065405D01*
X0116248Y0059414D02*
X0111252Y0059414D01*
X0112078Y0058415D02*
X0115422Y0058415D01*
X0115008Y0057417D02*
X0112492Y0057417D01*
X0112550Y0056418D02*
X0114950Y0056418D01*
X0115076Y0055420D02*
X0112424Y0055420D01*
X0112010Y0054421D02*
X0115490Y0054421D01*
X0116412Y0053423D02*
X0111088Y0053423D01*
X0101412Y0053423D02*
X0081088Y0053423D01*
X0082010Y0054421D02*
X0100490Y0054421D01*
X0101248Y0059414D02*
X0094082Y0059414D01*
X0091986Y0056418D02*
X0082550Y0056418D01*
X0082492Y0057417D02*
X0090988Y0057417D01*
X0089989Y0058415D02*
X0082078Y0058415D01*
X0081252Y0059414D02*
X0088991Y0059414D01*
X0092985Y0055420D02*
X0082424Y0055420D01*
X0076550Y0063408D02*
X0075950Y0063408D01*
X0075950Y0064406D02*
X0076550Y0064406D01*
X0076550Y0065405D02*
X0075950Y0065405D01*
X0047250Y0022469D02*
X0008718Y0022469D01*
X0008718Y0023467D02*
X0013626Y0023467D01*
X0012763Y0024466D02*
X0008718Y0024466D01*
X0008718Y0025464D02*
X0012349Y0025464D01*
X0012250Y0026463D02*
X0008718Y0026463D01*
X0008718Y0027461D02*
X0012250Y0027461D01*
X0012250Y0028460D02*
X0008718Y0028460D01*
X0008718Y0029458D02*
X0012250Y0029458D01*
X0012250Y0030457D02*
X0008718Y0030457D01*
X0008718Y0031455D02*
X0012250Y0031455D01*
X0012250Y0032454D02*
X0008718Y0032454D01*
X0008718Y0033452D02*
X0012250Y0033452D01*
X0012250Y0034451D02*
X0008718Y0034451D01*
X0008718Y0035449D02*
X0012250Y0035449D01*
X0012250Y0036448D02*
X0008718Y0036448D01*
X0008718Y0037446D02*
X0012250Y0037446D01*
X0012250Y0038445D02*
X0008718Y0038445D01*
X0008718Y0039443D02*
X0012250Y0039443D01*
X0012250Y0040442D02*
X0008718Y0040442D01*
X0008718Y0041440D02*
X0012250Y0041440D01*
X0012250Y0042439D02*
X0008718Y0042439D01*
X0008718Y0043437D02*
X0012250Y0043437D01*
X0012250Y0044436D02*
X0008718Y0044436D01*
X0008718Y0045434D02*
X0012250Y0045434D01*
X0012250Y0046433D02*
X0008718Y0046433D01*
X0008718Y0047432D02*
X0012250Y0047432D01*
X0012250Y0048430D02*
X0008718Y0048430D01*
X0008718Y0049429D02*
X0012250Y0049429D01*
X0012250Y0050427D02*
X0008718Y0050427D01*
X0008718Y0051426D02*
X0012250Y0051426D01*
X0012250Y0052424D02*
X0008718Y0052424D01*
X0008718Y0053423D02*
X0012250Y0053423D01*
X0012250Y0054421D02*
X0008718Y0054421D01*
X0008718Y0055420D02*
X0012250Y0055420D01*
X0012250Y0056418D02*
X0008718Y0056418D01*
X0008718Y0057417D02*
X0012250Y0057417D01*
X0012250Y0058415D02*
X0008718Y0058415D01*
X0008718Y0059414D02*
X0012250Y0059414D01*
X0012250Y0060412D02*
X0008718Y0060412D01*
X0008718Y0061411D02*
X0012250Y0061411D01*
X0012297Y0062409D02*
X0008718Y0062409D01*
X0008718Y0063408D02*
X0012350Y0063408D01*
X0012350Y0064406D02*
X0008718Y0064406D01*
X0008718Y0065405D02*
X0012652Y0065405D01*
X0013238Y0066403D02*
X0008718Y0066403D01*
X0020250Y0054421D02*
X0020450Y0054421D01*
X0020450Y0053423D02*
X0020250Y0053423D01*
X0020250Y0052424D02*
X0020450Y0052424D01*
X0020450Y0051426D02*
X0020250Y0051426D01*
X0020250Y0050427D02*
X0020450Y0050427D01*
X0020450Y0049429D02*
X0020250Y0049429D01*
X0020250Y0048430D02*
X0020450Y0048430D01*
X0020450Y0047432D02*
X0020250Y0047432D01*
X0020250Y0046433D02*
X0020450Y0046433D01*
X0020450Y0045434D02*
X0020250Y0045434D01*
X0020250Y0044436D02*
X0020450Y0044436D01*
X0020450Y0043437D02*
X0020250Y0043437D01*
X0020250Y0042439D02*
X0020450Y0042439D01*
X0020450Y0041440D02*
X0020250Y0041440D01*
X0020250Y0040442D02*
X0020450Y0040442D01*
X0020450Y0039443D02*
X0020250Y0039443D01*
X0020250Y0038445D02*
X0020450Y0038445D01*
X0020450Y0037446D02*
X0020250Y0037446D01*
X0020250Y0036448D02*
X0020757Y0036448D01*
X0020250Y0035449D02*
X0021755Y0035449D01*
X0022754Y0034451D02*
X0020250Y0034451D01*
X0020250Y0033452D02*
X0023752Y0033452D01*
X0024751Y0032454D02*
X0020250Y0032454D01*
X0020250Y0031455D02*
X0025749Y0031455D01*
X0025222Y0037446D02*
X0024849Y0037446D01*
X0025466Y0038445D02*
X0024050Y0038445D01*
X0024050Y0039443D02*
X0025879Y0039443D01*
X0026805Y0040442D02*
X0024050Y0040442D01*
X0024050Y0041440D02*
X0026663Y0041440D01*
X0025860Y0042439D02*
X0024050Y0042439D01*
X0024050Y0043437D02*
X0025428Y0043437D01*
X0025223Y0044436D02*
X0024050Y0044436D01*
X0024050Y0045434D02*
X0025264Y0045434D01*
X0025511Y0046433D02*
X0024050Y0046433D01*
X0024050Y0047432D02*
X0026032Y0047432D01*
X0026948Y0048430D02*
X0024050Y0048430D01*
X0029683Y0048430D02*
X0030061Y0048430D01*
X0030061Y0047432D02*
X0029683Y0047432D01*
X0029683Y0046433D02*
X0030061Y0046433D01*
X0030061Y0045434D02*
X0029683Y0045434D01*
X0019805Y0022079D02*
X0016317Y0022079D01*
X0013095Y0020744D01*
X0010628Y0018278D01*
X0009293Y0015055D01*
X0009293Y0011567D01*
X0010628Y0008345D01*
X0013095Y0005878D01*
X0016317Y0004543D01*
X0019805Y0004543D01*
X0023028Y0005878D01*
X0025494Y0008345D01*
X0026829Y0011567D01*
X0026829Y0015055D01*
X0025494Y0018278D01*
X0023028Y0020744D01*
X0019805Y0022079D01*
X0021274Y0021470D02*
X0047250Y0021470D01*
X0047250Y0020472D02*
X0023300Y0020472D01*
X0024298Y0019473D02*
X0047250Y0019473D01*
X0047250Y0018475D02*
X0025297Y0018475D01*
X0025826Y0017476D02*
X0047250Y0017476D01*
X0047250Y0016478D02*
X0026239Y0016478D01*
X0026653Y0015479D02*
X0047250Y0015479D01*
X0047250Y0014481D02*
X0026829Y0014481D01*
X0026829Y0013482D02*
X0047250Y0013482D01*
X0047250Y0012484D02*
X0026829Y0012484D01*
X0026795Y0011485D02*
X0047250Y0011485D01*
X0047340Y0010487D02*
X0026381Y0010487D01*
X0025968Y0009488D02*
X0047754Y0009488D01*
X0048604Y0008490D02*
X0025554Y0008490D01*
X0024640Y0007491D02*
X0172899Y0007491D01*
X0173897Y0006493D02*
X0023642Y0006493D01*
X0022100Y0005494D02*
X0175439Y0005494D01*
X0163563Y0023467D02*
X0188821Y0023467D01*
X0188821Y0024466D02*
X0164561Y0024466D01*
X0165560Y0025464D02*
X0188821Y0025464D01*
X0188821Y0026463D02*
X0166558Y0026463D01*
X0167557Y0027461D02*
X0188821Y0027461D01*
X0188821Y0028460D02*
X0168555Y0028460D01*
X0169554Y0029458D02*
X0188821Y0029458D01*
X0188821Y0030457D02*
X0170552Y0030457D01*
X0171551Y0031455D02*
X0188821Y0031455D01*
X0188821Y0032454D02*
X0172549Y0032454D01*
X0173548Y0033452D02*
X0188821Y0033452D01*
X0188821Y0034451D02*
X0174546Y0034451D01*
X0175545Y0035449D02*
X0188821Y0035449D01*
X0188821Y0036448D02*
X0176543Y0036448D01*
X0177542Y0037446D02*
X0188821Y0037446D01*
X0188821Y0038445D02*
X0178540Y0038445D01*
X0179539Y0039443D02*
X0188821Y0039443D01*
X0188821Y0040442D02*
X0180538Y0040442D01*
X0181536Y0041440D02*
X0188821Y0041440D01*
X0188821Y0042439D02*
X0182535Y0042439D01*
X0183533Y0043437D02*
X0188821Y0043437D01*
X0188821Y0044436D02*
X0184532Y0044436D01*
X0185530Y0045434D02*
X0188821Y0045434D01*
X0188821Y0046433D02*
X0186529Y0046433D01*
X0187527Y0047432D02*
X0188821Y0047432D01*
X0188821Y0048430D02*
X0188050Y0048430D01*
X0188050Y0049429D02*
X0188821Y0049429D01*
X0188821Y0050427D02*
X0188050Y0050427D01*
X0188050Y0051426D02*
X0188821Y0051426D01*
X0188821Y0052424D02*
X0188050Y0052424D01*
X0188050Y0053423D02*
X0188821Y0053423D01*
X0188821Y0054421D02*
X0188050Y0054421D01*
X0188050Y0055420D02*
X0188821Y0055420D01*
X0188821Y0056418D02*
X0188050Y0056418D01*
X0188050Y0057417D02*
X0188821Y0057417D01*
X0188821Y0058415D02*
X0188050Y0058415D01*
X0188050Y0059414D02*
X0188821Y0059414D01*
X0188821Y0060412D02*
X0188050Y0060412D01*
X0188050Y0061411D02*
X0188821Y0061411D01*
X0188821Y0062409D02*
X0188050Y0062409D01*
X0188050Y0063408D02*
X0188821Y0063408D01*
X0188821Y0064406D02*
X0188050Y0064406D01*
X0188050Y0065405D02*
X0188821Y0065405D01*
X0188821Y0066403D02*
X0188050Y0066403D01*
X0188050Y0067402D02*
X0188821Y0067402D01*
X0188821Y0068400D02*
X0188050Y0068400D01*
X0188050Y0069399D02*
X0188821Y0069399D01*
X0188821Y0070397D02*
X0188050Y0070397D01*
X0188050Y0071396D02*
X0188821Y0071396D01*
X0188821Y0072394D02*
X0188050Y0072394D01*
X0188050Y0073393D02*
X0188821Y0073393D01*
X0188821Y0074391D02*
X0188050Y0074391D01*
X0188050Y0075390D02*
X0188821Y0075390D01*
X0188821Y0076388D02*
X0188050Y0076388D01*
X0188050Y0077387D02*
X0188821Y0077387D01*
X0188821Y0078385D02*
X0188050Y0078385D01*
X0188050Y0079384D02*
X0188821Y0079384D01*
X0188821Y0080382D02*
X0188050Y0080382D01*
X0188050Y0081381D02*
X0188821Y0081381D01*
X0188821Y0082379D02*
X0188050Y0082379D01*
X0188050Y0083378D02*
X0188821Y0083378D01*
X0188821Y0084376D02*
X0188050Y0084376D01*
X0188050Y0085375D02*
X0188821Y0085375D01*
X0188821Y0086373D02*
X0188050Y0086373D01*
X0188050Y0087372D02*
X0188821Y0087372D01*
X0188821Y0088370D02*
X0188050Y0088370D01*
X0188050Y0089369D02*
X0188821Y0089369D01*
X0188821Y0090368D02*
X0188050Y0090368D01*
X0188050Y0091366D02*
X0188821Y0091366D01*
X0188821Y0092365D02*
X0188050Y0092365D01*
X0188050Y0093363D02*
X0188821Y0093363D01*
X0188821Y0094362D02*
X0188050Y0094362D01*
X0188050Y0095360D02*
X0188821Y0095360D01*
X0188821Y0096359D02*
X0188050Y0096359D01*
X0188050Y0097357D02*
X0188821Y0097357D01*
X0188821Y0098356D02*
X0188050Y0098356D01*
X0188050Y0099354D02*
X0188821Y0099354D01*
X0188821Y0100353D02*
X0188050Y0100353D01*
X0188050Y0101351D02*
X0188821Y0101351D01*
X0188821Y0102350D02*
X0188050Y0102350D01*
X0188050Y0103348D02*
X0188821Y0103348D01*
X0188821Y0104347D02*
X0188050Y0104347D01*
X0188050Y0105345D02*
X0188821Y0105345D01*
X0188821Y0106344D02*
X0188050Y0106344D01*
X0188050Y0107342D02*
X0188821Y0107342D01*
X0188821Y0108341D02*
X0188050Y0108341D01*
X0188050Y0109339D02*
X0188821Y0109339D01*
X0188821Y0110338D02*
X0188050Y0110338D01*
X0188050Y0111336D02*
X0188821Y0111336D01*
X0188821Y0112335D02*
X0188050Y0112335D01*
X0188050Y0113333D02*
X0188821Y0113333D01*
X0188821Y0114332D02*
X0188050Y0114332D01*
X0188050Y0115330D02*
X0188821Y0115330D01*
X0188821Y0116329D02*
X0188050Y0116329D01*
X0188050Y0117327D02*
X0188821Y0117327D01*
X0188821Y0118326D02*
X0188050Y0118326D01*
X0188050Y0119324D02*
X0188821Y0119324D01*
X0188821Y0120323D02*
X0188050Y0120323D01*
X0188050Y0121321D02*
X0188821Y0121321D01*
X0188821Y0122320D02*
X0188050Y0122320D01*
X0188050Y0123318D02*
X0188821Y0123318D01*
X0188821Y0124317D02*
X0188050Y0124317D01*
X0188050Y0125315D02*
X0188821Y0125315D01*
X0188821Y0126314D02*
X0188050Y0126314D01*
X0188050Y0127312D02*
X0188821Y0127312D01*
X0188821Y0128311D02*
X0188050Y0128311D01*
X0188050Y0129309D02*
X0188821Y0129309D01*
X0188821Y0130308D02*
X0188050Y0130308D01*
X0188050Y0131306D02*
X0188821Y0131306D01*
X0188821Y0132305D02*
X0188050Y0132305D01*
X0188050Y0133303D02*
X0188821Y0133303D01*
X0188821Y0134302D02*
X0188050Y0134302D01*
X0188050Y0135301D02*
X0188821Y0135301D01*
X0188821Y0136299D02*
X0188050Y0136299D01*
X0188050Y0137298D02*
X0188821Y0137298D01*
X0188821Y0138296D02*
X0188050Y0138296D01*
X0188050Y0139295D02*
X0188821Y0139295D01*
X0188821Y0140293D02*
X0188050Y0140293D01*
X0188050Y0141292D02*
X0188821Y0141292D01*
X0188821Y0142290D02*
X0188050Y0142290D01*
X0188050Y0143289D02*
X0188821Y0143289D01*
X0188821Y0144287D02*
X0188050Y0144287D01*
X0188050Y0145286D02*
X0188821Y0145286D01*
X0188821Y0146284D02*
X0188050Y0146284D01*
X0188050Y0147283D02*
X0188821Y0147283D01*
X0188821Y0148281D02*
X0188050Y0148281D01*
X0188050Y0149280D02*
X0188821Y0149280D01*
X0188821Y0150278D02*
X0188050Y0150278D01*
X0188050Y0151277D02*
X0188821Y0151277D01*
X0188821Y0152275D02*
X0188050Y0152275D01*
X0188050Y0153274D02*
X0188821Y0153274D01*
X0188821Y0154272D02*
X0188050Y0154272D01*
X0187825Y0155271D02*
X0188821Y0155271D01*
X0188821Y0156269D02*
X0186826Y0156269D01*
X0185828Y0157268D02*
X0188821Y0157268D01*
X0188821Y0158266D02*
X0184829Y0158266D01*
X0183831Y0159265D02*
X0188821Y0159265D01*
X0188821Y0160263D02*
X0182832Y0160263D01*
X0181834Y0161262D02*
X0188821Y0161262D01*
X0188821Y0162260D02*
X0180835Y0162260D01*
X0179837Y0163259D02*
X0188821Y0163259D01*
X0188821Y0164257D02*
X0008718Y0164257D01*
X0008718Y0163259D02*
X0030263Y0163259D01*
X0029265Y0162260D02*
X0008718Y0162260D01*
X0008718Y0165256D02*
X0188821Y0165256D01*
X0188821Y0166254D02*
X0181931Y0166254D01*
X0181222Y0165961D02*
X0184445Y0167295D01*
X0186911Y0169762D01*
X0188246Y0172984D01*
X0188246Y0176472D01*
X0186911Y0179695D01*
X0184445Y0182161D01*
X0181222Y0183496D01*
X0177734Y0183496D01*
X0174512Y0182161D01*
X0172045Y0179695D01*
X0170711Y0176472D01*
X0170711Y0172984D01*
X0172045Y0169762D01*
X0174512Y0167295D01*
X0177734Y0165961D01*
X0181222Y0165961D01*
X0184342Y0167253D02*
X0188821Y0167253D01*
X0188821Y0168251D02*
X0185401Y0168251D01*
X0186399Y0169250D02*
X0188821Y0169250D01*
X0188821Y0170248D02*
X0187113Y0170248D01*
X0187526Y0171247D02*
X0188821Y0171247D01*
X0188821Y0172245D02*
X0187940Y0172245D01*
X0188246Y0173244D02*
X0188821Y0173244D01*
X0188821Y0174242D02*
X0188246Y0174242D01*
X0188246Y0175241D02*
X0188821Y0175241D01*
X0188821Y0176239D02*
X0188246Y0176239D01*
X0187929Y0177238D02*
X0188821Y0177238D01*
X0188821Y0178237D02*
X0187515Y0178237D01*
X0187102Y0179235D02*
X0188821Y0179235D01*
X0188821Y0180234D02*
X0186373Y0180234D01*
X0185374Y0181232D02*
X0188821Y0181232D01*
X0188821Y0182231D02*
X0184278Y0182231D01*
X0181867Y0183229D02*
X0188821Y0183229D01*
X0177090Y0183229D02*
X0020450Y0183229D01*
X0019805Y0183496D02*
X0016317Y0183496D01*
X0013095Y0182161D01*
X0010628Y0179695D01*
X0009293Y0176472D01*
X0009293Y0172984D01*
X0010628Y0169762D01*
X0013095Y0167295D01*
X0016317Y0165961D01*
X0019805Y0165961D01*
X0023028Y0167295D01*
X0025494Y0169762D01*
X0026829Y0172984D01*
X0026829Y0176472D01*
X0025494Y0179695D01*
X0023028Y0182161D01*
X0019805Y0183496D01*
X0022860Y0182231D02*
X0174679Y0182231D01*
X0173583Y0181232D02*
X0023957Y0181232D01*
X0024955Y0180234D02*
X0172584Y0180234D01*
X0171855Y0179235D02*
X0025684Y0179235D01*
X0026098Y0178237D02*
X0171441Y0178237D01*
X0171028Y0177238D02*
X0026512Y0177238D01*
X0026829Y0176239D02*
X0170711Y0176239D01*
X0170711Y0175241D02*
X0026829Y0175241D01*
X0026829Y0174242D02*
X0170711Y0174242D01*
X0170711Y0173244D02*
X0026829Y0173244D01*
X0026523Y0172245D02*
X0171017Y0172245D01*
X0171430Y0171247D02*
X0026109Y0171247D01*
X0025695Y0170248D02*
X0171844Y0170248D01*
X0172557Y0169250D02*
X0024982Y0169250D01*
X0023983Y0168251D02*
X0173556Y0168251D01*
X0174615Y0167253D02*
X0022925Y0167253D01*
X0020514Y0166254D02*
X0177025Y0166254D01*
X0174112Y0101351D02*
X0168388Y0101351D01*
X0169893Y0100353D02*
X0172607Y0100353D01*
X0171696Y0099354D02*
X0170804Y0099354D01*
X0171218Y0098356D02*
X0171282Y0098356D01*
X0164112Y0101351D02*
X0158388Y0101351D01*
X0159893Y0100353D02*
X0162607Y0100353D01*
X0161696Y0099354D02*
X0160804Y0099354D01*
X0161218Y0098356D02*
X0161282Y0098356D01*
X0179082Y0077387D02*
X0184450Y0077387D01*
X0184450Y0078385D02*
X0183651Y0078385D01*
X0184450Y0076388D02*
X0178084Y0076388D01*
X0177085Y0075390D02*
X0184450Y0075390D01*
X0184450Y0074391D02*
X0176087Y0074391D01*
X0175088Y0073393D02*
X0184450Y0073393D01*
X0184450Y0072394D02*
X0174090Y0072394D01*
X0173091Y0071396D02*
X0184450Y0071396D01*
X0184450Y0070397D02*
X0177032Y0070397D01*
X0175468Y0070397D02*
X0172093Y0070397D01*
X0171094Y0069399D02*
X0173633Y0069399D01*
X0172816Y0068400D02*
X0170096Y0068400D01*
X0170098Y0067402D02*
X0170406Y0067402D01*
X0172502Y0064406D02*
X0172896Y0064406D01*
X0173827Y0063408D02*
X0171503Y0063408D01*
X0170505Y0062409D02*
X0184450Y0062409D01*
X0184450Y0061411D02*
X0169506Y0061411D01*
X0178673Y0063408D02*
X0184450Y0063408D01*
X0184450Y0064406D02*
X0179604Y0064406D01*
X0180018Y0065405D02*
X0184450Y0065405D01*
X0184450Y0066403D02*
X0180150Y0066403D01*
X0180098Y0067402D02*
X0184450Y0067402D01*
X0184450Y0068400D02*
X0179684Y0068400D01*
X0178867Y0069399D02*
X0184450Y0069399D01*
X0184450Y0060412D02*
X0142683Y0060412D01*
X0143682Y0059414D02*
X0146248Y0059414D01*
X0142585Y0055420D02*
X0127424Y0055420D01*
X0127550Y0056418D02*
X0141586Y0056418D01*
X0140588Y0057417D02*
X0127492Y0057417D01*
X0127078Y0058415D02*
X0139589Y0058415D01*
X0145490Y0054421D02*
X0127010Y0054421D01*
X0126088Y0053423D02*
X0146412Y0053423D01*
X0156088Y0053423D02*
X0184450Y0053423D01*
X0184450Y0054421D02*
X0157010Y0054421D01*
X0157424Y0055420D02*
X0184450Y0055420D01*
X0184450Y0056418D02*
X0157550Y0056418D01*
X0157492Y0057417D02*
X0184450Y0057417D01*
X0184450Y0058415D02*
X0157078Y0058415D01*
X0156252Y0059414D02*
X0184450Y0059414D01*
X0183434Y0048430D02*
X0170591Y0048430D01*
X0171508Y0047432D02*
X0182436Y0047432D01*
X0181437Y0046433D02*
X0172028Y0046433D01*
X0172276Y0045434D02*
X0180439Y0045434D01*
X0179440Y0044436D02*
X0172316Y0044436D01*
X0172111Y0043437D02*
X0178442Y0043437D01*
X0177443Y0042439D02*
X0171679Y0042439D01*
X0170876Y0041440D02*
X0176445Y0041440D01*
X0175446Y0040442D02*
X0170734Y0040442D01*
X0171660Y0039443D02*
X0174448Y0039443D01*
X0173449Y0038445D02*
X0172074Y0038445D01*
X0172317Y0037446D02*
X0172451Y0037446D01*
X0167856Y0045434D02*
X0167478Y0045434D01*
X0167478Y0046433D02*
X0167856Y0046433D01*
X0167856Y0047432D02*
X0167478Y0047432D01*
X0167478Y0048430D02*
X0167856Y0048430D01*
X0133211Y0063408D02*
X0126042Y0063408D01*
X0126941Y0064406D02*
X0132495Y0064406D01*
X0083720Y0146284D02*
X0076565Y0146284D01*
X0077003Y0147283D02*
X0082722Y0147283D01*
X0081723Y0148281D02*
X0077030Y0148281D01*
X0076687Y0149280D02*
X0080725Y0149280D01*
X0079726Y0150278D02*
X0075772Y0150278D01*
X0075011Y0151277D02*
X0073419Y0151277D01*
X0072979Y0152275D02*
X0072420Y0152275D01*
X0071981Y0153274D02*
X0071422Y0153274D01*
X0071436Y0154272D02*
X0071064Y0154272D01*
X0077489Y0151277D02*
X0078728Y0151277D01*
X0015608Y0166254D02*
X0008718Y0166254D01*
X0008718Y0167253D02*
X0013197Y0167253D01*
X0012139Y0168251D02*
X0008718Y0168251D01*
X0008718Y0169250D02*
X0011140Y0169250D01*
X0010427Y0170248D02*
X0008718Y0170248D01*
X0008718Y0171247D02*
X0010013Y0171247D01*
X0009599Y0172245D02*
X0008718Y0172245D01*
X0008718Y0173244D02*
X0009293Y0173244D01*
X0009293Y0174242D02*
X0008718Y0174242D01*
X0008718Y0175241D02*
X0009293Y0175241D01*
X0009293Y0176239D02*
X0008718Y0176239D01*
X0008718Y0177238D02*
X0009610Y0177238D01*
X0010024Y0178237D02*
X0008718Y0178237D01*
X0008718Y0179235D02*
X0010438Y0179235D01*
X0011167Y0180234D02*
X0008718Y0180234D01*
X0008718Y0181232D02*
X0012165Y0181232D01*
X0013262Y0182231D02*
X0008718Y0182231D01*
X0008718Y0183229D02*
X0015672Y0183229D01*
X0014848Y0021470D02*
X0008718Y0021470D01*
X0008718Y0020472D02*
X0012822Y0020472D01*
X0011824Y0019473D02*
X0008718Y0019473D01*
X0008718Y0018475D02*
X0010825Y0018475D01*
X0010296Y0017476D02*
X0008718Y0017476D01*
X0008718Y0016478D02*
X0009883Y0016478D01*
X0009469Y0015479D02*
X0008718Y0015479D01*
X0008718Y0014481D02*
X0009293Y0014481D01*
X0009293Y0013482D02*
X0008718Y0013482D01*
X0008718Y0012484D02*
X0009293Y0012484D01*
X0009327Y0011485D02*
X0008718Y0011485D01*
X0008718Y0010487D02*
X0009741Y0010487D01*
X0010154Y0009488D02*
X0008718Y0009488D01*
X0008718Y0008490D02*
X0010568Y0008490D01*
X0011482Y0007491D02*
X0008718Y0007491D01*
X0008718Y0006493D02*
X0012480Y0006493D01*
X0014022Y0005494D02*
X0008718Y0005494D01*
D20*
X0055850Y0070300D03*
X0074250Y0147900D03*
X0141450Y0079900D03*
X0136650Y0071900D03*
X0135050Y0065500D03*
X0171050Y0084700D03*
X0157450Y0019900D03*
M02*
