G75*
%MOIN*%
%OFA0B0*%
%FSLAX25Y25*%
%IPPOS*%
%LPD*%
%AMOC8*
5,1,8,0,0,1.08239X$1,22.5*
%
%ADD10C,0.00300*%
%ADD11C,0.00800*%
%ADD12C,0.00500*%
%ADD13C,0.00400*%
%ADD14C,0.00600*%
%ADD15C,0.01000*%
%ADD16R,0.02000X0.10000*%
D10*
X0044109Y0011450D02*
X0045076Y0014350D01*
X0046091Y0014350D02*
X0046735Y0014350D01*
X0046413Y0014350D02*
X0046413Y0011450D01*
X0046091Y0011450D02*
X0046735Y0011450D01*
X0048007Y0011450D02*
X0048007Y0014350D01*
X0049618Y0011450D01*
X0049618Y0014350D01*
X0051014Y0013061D02*
X0052948Y0013061D01*
X0052948Y0012094D02*
X0051014Y0012094D01*
X0054247Y0011450D02*
X0055858Y0011450D01*
X0055053Y0011450D02*
X0055053Y0014350D01*
X0054247Y0013706D01*
X0057127Y0011450D02*
X0058738Y0011450D01*
X0057127Y0011450D02*
X0058497Y0013061D01*
X0058013Y0014350D02*
X0057954Y0014348D01*
X0057896Y0014343D01*
X0057838Y0014333D01*
X0057781Y0014321D01*
X0057725Y0014304D01*
X0057670Y0014285D01*
X0057616Y0014261D01*
X0057564Y0014235D01*
X0057514Y0014205D01*
X0057465Y0014172D01*
X0057419Y0014136D01*
X0057375Y0014097D01*
X0057334Y0014056D01*
X0057295Y0014012D01*
X0057259Y0013966D01*
X0057227Y0013917D01*
X0057197Y0013867D01*
X0057170Y0013815D01*
X0057147Y0013761D01*
X0057127Y0013706D01*
X0058497Y0013061D02*
X0058534Y0013098D01*
X0058568Y0013138D01*
X0058600Y0013180D01*
X0058628Y0013225D01*
X0058654Y0013271D01*
X0058676Y0013318D01*
X0058695Y0013367D01*
X0058711Y0013417D01*
X0058723Y0013468D01*
X0058732Y0013520D01*
X0058737Y0013572D01*
X0058739Y0013625D01*
X0058738Y0013625D02*
X0058736Y0013677D01*
X0058731Y0013728D01*
X0058721Y0013779D01*
X0058709Y0013829D01*
X0058692Y0013878D01*
X0058672Y0013926D01*
X0058649Y0013972D01*
X0058623Y0014017D01*
X0058593Y0014059D01*
X0058561Y0014100D01*
X0058526Y0014138D01*
X0058488Y0014173D01*
X0058447Y0014205D01*
X0058405Y0014235D01*
X0058360Y0014261D01*
X0058314Y0014284D01*
X0058266Y0014304D01*
X0058217Y0014321D01*
X0058167Y0014333D01*
X0058116Y0014343D01*
X0058065Y0014348D01*
X0058013Y0014350D01*
X0059846Y0014350D02*
X0060813Y0011450D01*
X0061780Y0014350D01*
X0064454Y0012578D02*
X0066388Y0012578D01*
X0067718Y0013383D02*
X0069652Y0012578D01*
X0067718Y0011772D01*
X0072478Y0012094D02*
X0072478Y0013706D01*
X0072479Y0013706D02*
X0072481Y0013757D01*
X0072487Y0013807D01*
X0072497Y0013856D01*
X0072511Y0013905D01*
X0072528Y0013952D01*
X0072549Y0013998D01*
X0072574Y0014042D01*
X0072602Y0014085D01*
X0072633Y0014124D01*
X0072668Y0014161D01*
X0072705Y0014196D01*
X0072744Y0014227D01*
X0072787Y0014255D01*
X0072831Y0014280D01*
X0072877Y0014301D01*
X0072924Y0014318D01*
X0072973Y0014332D01*
X0073022Y0014342D01*
X0073072Y0014348D01*
X0073123Y0014350D01*
X0073767Y0014350D01*
X0074856Y0012739D02*
X0074856Y0012094D01*
X0074857Y0012094D02*
X0074859Y0012045D01*
X0074865Y0011996D01*
X0074874Y0011947D01*
X0074887Y0011900D01*
X0074904Y0011853D01*
X0074924Y0011808D01*
X0074947Y0011765D01*
X0074974Y0011723D01*
X0075004Y0011684D01*
X0075037Y0011647D01*
X0075073Y0011613D01*
X0075111Y0011582D01*
X0075151Y0011553D01*
X0075193Y0011528D01*
X0075238Y0011506D01*
X0075283Y0011488D01*
X0075330Y0011473D01*
X0075378Y0011462D01*
X0075427Y0011454D01*
X0075476Y0011450D01*
X0075526Y0011450D01*
X0075575Y0011454D01*
X0075624Y0011462D01*
X0075672Y0011473D01*
X0075719Y0011488D01*
X0075764Y0011506D01*
X0075809Y0011528D01*
X0075851Y0011553D01*
X0075891Y0011582D01*
X0075929Y0011613D01*
X0075965Y0011647D01*
X0075998Y0011684D01*
X0076028Y0011723D01*
X0076055Y0011765D01*
X0076078Y0011808D01*
X0076098Y0011853D01*
X0076115Y0011900D01*
X0076128Y0011947D01*
X0076137Y0011996D01*
X0076143Y0012045D01*
X0076145Y0012094D01*
X0076145Y0012739D01*
X0076143Y0012788D01*
X0076137Y0012837D01*
X0076128Y0012886D01*
X0076115Y0012933D01*
X0076098Y0012980D01*
X0076078Y0013025D01*
X0076055Y0013068D01*
X0076028Y0013110D01*
X0075998Y0013149D01*
X0075965Y0013186D01*
X0075929Y0013220D01*
X0075891Y0013251D01*
X0075851Y0013280D01*
X0075809Y0013305D01*
X0075764Y0013327D01*
X0075719Y0013345D01*
X0075672Y0013360D01*
X0075624Y0013371D01*
X0075575Y0013379D01*
X0075526Y0013383D01*
X0075476Y0013383D01*
X0075427Y0013379D01*
X0075378Y0013371D01*
X0075330Y0013360D01*
X0075283Y0013345D01*
X0075238Y0013327D01*
X0075193Y0013305D01*
X0075151Y0013280D01*
X0075111Y0013251D01*
X0075073Y0013220D01*
X0075037Y0013186D01*
X0075004Y0013149D01*
X0074974Y0013110D01*
X0074947Y0013068D01*
X0074924Y0013025D01*
X0074904Y0012980D01*
X0074887Y0012933D01*
X0074874Y0012886D01*
X0074865Y0012837D01*
X0074859Y0012788D01*
X0074857Y0012739D01*
X0073767Y0011450D02*
X0073123Y0011450D01*
X0073075Y0011452D01*
X0073027Y0011457D01*
X0072980Y0011466D01*
X0072933Y0011479D01*
X0072888Y0011495D01*
X0072844Y0011514D01*
X0072801Y0011536D01*
X0072760Y0011562D01*
X0072721Y0011591D01*
X0072685Y0011622D01*
X0072651Y0011656D01*
X0072620Y0011692D01*
X0072591Y0011731D01*
X0072565Y0011772D01*
X0072543Y0011815D01*
X0072524Y0011859D01*
X0072508Y0011904D01*
X0072495Y0011951D01*
X0072486Y0011998D01*
X0072481Y0012046D01*
X0072479Y0012094D01*
X0077448Y0011450D02*
X0077448Y0013383D01*
X0078254Y0013383D01*
X0078296Y0013381D01*
X0078338Y0013376D01*
X0078379Y0013367D01*
X0078419Y0013354D01*
X0078458Y0013338D01*
X0078496Y0013318D01*
X0078531Y0013296D01*
X0078564Y0013270D01*
X0078596Y0013242D01*
X0078624Y0013210D01*
X0078650Y0013177D01*
X0078672Y0013142D01*
X0078692Y0013104D01*
X0078708Y0013065D01*
X0078721Y0013025D01*
X0078730Y0012984D01*
X0078735Y0012942D01*
X0078737Y0012900D01*
X0078737Y0011450D01*
X0080136Y0011450D02*
X0080136Y0013383D01*
X0080942Y0013383D01*
X0080984Y0013381D01*
X0081026Y0013376D01*
X0081067Y0013367D01*
X0081107Y0013354D01*
X0081146Y0013338D01*
X0081184Y0013318D01*
X0081219Y0013296D01*
X0081252Y0013270D01*
X0081284Y0013242D01*
X0081312Y0013210D01*
X0081338Y0013177D01*
X0081360Y0013142D01*
X0081380Y0013104D01*
X0081396Y0013065D01*
X0081409Y0013025D01*
X0081418Y0012984D01*
X0081423Y0012942D01*
X0081425Y0012900D01*
X0081425Y0011450D01*
X0082728Y0011933D02*
X0082728Y0012739D01*
X0082728Y0012417D02*
X0084017Y0012417D01*
X0084017Y0012739D01*
X0084015Y0012788D01*
X0084009Y0012837D01*
X0084000Y0012886D01*
X0083987Y0012933D01*
X0083970Y0012980D01*
X0083950Y0013025D01*
X0083927Y0013068D01*
X0083900Y0013110D01*
X0083870Y0013149D01*
X0083837Y0013186D01*
X0083801Y0013220D01*
X0083763Y0013251D01*
X0083723Y0013280D01*
X0083681Y0013305D01*
X0083636Y0013327D01*
X0083591Y0013345D01*
X0083544Y0013360D01*
X0083496Y0013371D01*
X0083447Y0013379D01*
X0083398Y0013383D01*
X0083348Y0013383D01*
X0083299Y0013379D01*
X0083250Y0013371D01*
X0083202Y0013360D01*
X0083155Y0013345D01*
X0083110Y0013327D01*
X0083065Y0013305D01*
X0083023Y0013280D01*
X0082983Y0013251D01*
X0082945Y0013220D01*
X0082909Y0013186D01*
X0082876Y0013149D01*
X0082846Y0013110D01*
X0082819Y0013068D01*
X0082796Y0013025D01*
X0082776Y0012980D01*
X0082759Y0012933D01*
X0082746Y0012886D01*
X0082737Y0012837D01*
X0082731Y0012788D01*
X0082729Y0012739D01*
X0082729Y0011933D02*
X0082731Y0011891D01*
X0082736Y0011849D01*
X0082745Y0011808D01*
X0082758Y0011768D01*
X0082774Y0011729D01*
X0082794Y0011692D01*
X0082816Y0011656D01*
X0082842Y0011623D01*
X0082870Y0011591D01*
X0082902Y0011563D01*
X0082935Y0011537D01*
X0082971Y0011515D01*
X0083008Y0011495D01*
X0083047Y0011479D01*
X0083087Y0011466D01*
X0083128Y0011457D01*
X0083170Y0011452D01*
X0083212Y0011450D01*
X0084017Y0011450D01*
X0085228Y0011933D02*
X0085228Y0012900D01*
X0085230Y0012942D01*
X0085235Y0012984D01*
X0085244Y0013025D01*
X0085257Y0013065D01*
X0085273Y0013104D01*
X0085293Y0013142D01*
X0085315Y0013177D01*
X0085341Y0013210D01*
X0085369Y0013242D01*
X0085401Y0013270D01*
X0085434Y0013296D01*
X0085470Y0013318D01*
X0085507Y0013338D01*
X0085546Y0013354D01*
X0085586Y0013367D01*
X0085627Y0013376D01*
X0085669Y0013381D01*
X0085711Y0013383D01*
X0086356Y0013383D01*
X0087184Y0013383D02*
X0088151Y0013383D01*
X0087506Y0014350D02*
X0087506Y0011933D01*
X0087507Y0011933D02*
X0087509Y0011891D01*
X0087514Y0011849D01*
X0087523Y0011808D01*
X0087536Y0011768D01*
X0087552Y0011729D01*
X0087572Y0011692D01*
X0087594Y0011656D01*
X0087620Y0011623D01*
X0087648Y0011591D01*
X0087680Y0011563D01*
X0087713Y0011537D01*
X0087749Y0011515D01*
X0087786Y0011495D01*
X0087825Y0011479D01*
X0087865Y0011466D01*
X0087906Y0011457D01*
X0087948Y0011452D01*
X0087990Y0011450D01*
X0088151Y0011450D01*
X0086356Y0011450D02*
X0085711Y0011450D01*
X0085669Y0011452D01*
X0085627Y0011457D01*
X0085586Y0011466D01*
X0085546Y0011479D01*
X0085507Y0011495D01*
X0085470Y0011515D01*
X0085434Y0011537D01*
X0085401Y0011563D01*
X0085369Y0011591D01*
X0085341Y0011623D01*
X0085315Y0011656D01*
X0085293Y0011692D01*
X0085273Y0011729D01*
X0085257Y0011768D01*
X0085244Y0011808D01*
X0085235Y0011849D01*
X0085230Y0011891D01*
X0085228Y0011933D01*
X0090925Y0011450D02*
X0092214Y0011450D01*
X0090925Y0011450D02*
X0090925Y0014350D01*
X0093635Y0013625D02*
X0095004Y0011450D01*
X0094118Y0011531D02*
X0095326Y0012417D01*
X0096190Y0012094D02*
X0096190Y0013706D01*
X0096191Y0013706D02*
X0096193Y0013757D01*
X0096199Y0013807D01*
X0096209Y0013856D01*
X0096223Y0013905D01*
X0096240Y0013952D01*
X0096261Y0013998D01*
X0096286Y0014042D01*
X0096314Y0014085D01*
X0096345Y0014124D01*
X0096380Y0014161D01*
X0096417Y0014196D01*
X0096456Y0014227D01*
X0096499Y0014255D01*
X0096543Y0014280D01*
X0096589Y0014301D01*
X0096636Y0014318D01*
X0096685Y0014332D01*
X0096734Y0014342D01*
X0096784Y0014348D01*
X0096835Y0014350D01*
X0097479Y0014350D01*
X0098556Y0013142D02*
X0098556Y0012981D01*
X0098717Y0012981D01*
X0098717Y0013142D01*
X0098556Y0013142D01*
X0098556Y0011611D02*
X0098717Y0011611D01*
X0098717Y0011450D01*
X0098556Y0010806D01*
X0098556Y0011450D02*
X0098556Y0011611D01*
X0098556Y0011450D02*
X0098717Y0011450D01*
X0097479Y0011450D02*
X0096835Y0011450D01*
X0096787Y0011452D01*
X0096739Y0011457D01*
X0096692Y0011466D01*
X0096645Y0011479D01*
X0096600Y0011495D01*
X0096556Y0011514D01*
X0096513Y0011536D01*
X0096472Y0011562D01*
X0096433Y0011591D01*
X0096397Y0011622D01*
X0096363Y0011656D01*
X0096332Y0011692D01*
X0096303Y0011731D01*
X0096277Y0011772D01*
X0096255Y0011815D01*
X0096236Y0011859D01*
X0096220Y0011904D01*
X0096207Y0011951D01*
X0096198Y0011998D01*
X0096193Y0012046D01*
X0096191Y0012094D01*
X0093876Y0011450D02*
X0093834Y0011452D01*
X0093792Y0011457D01*
X0093751Y0011466D01*
X0093711Y0011479D01*
X0093672Y0011495D01*
X0093635Y0011515D01*
X0093599Y0011537D01*
X0093566Y0011563D01*
X0093534Y0011591D01*
X0093506Y0011623D01*
X0093480Y0011656D01*
X0093458Y0011692D01*
X0093438Y0011729D01*
X0093422Y0011768D01*
X0093409Y0011808D01*
X0093400Y0011849D01*
X0093395Y0011891D01*
X0093393Y0011933D01*
X0093474Y0012175D02*
X0094440Y0013625D01*
X0094440Y0013626D02*
X0094461Y0013662D01*
X0094478Y0013700D01*
X0094492Y0013740D01*
X0094502Y0013781D01*
X0094509Y0013822D01*
X0094512Y0013864D01*
X0094511Y0013906D01*
X0094506Y0013948D01*
X0094498Y0013989D01*
X0094486Y0014030D01*
X0094471Y0014069D01*
X0094452Y0014106D01*
X0094430Y0014142D01*
X0094405Y0014176D01*
X0094377Y0014207D01*
X0094347Y0014236D01*
X0094314Y0014262D01*
X0094278Y0014285D01*
X0094241Y0014304D01*
X0094203Y0014321D01*
X0094163Y0014333D01*
X0094122Y0014343D01*
X0094080Y0014348D01*
X0094038Y0014350D01*
X0093996Y0014348D01*
X0093954Y0014343D01*
X0093913Y0014333D01*
X0093873Y0014321D01*
X0093835Y0014304D01*
X0093798Y0014285D01*
X0093762Y0014262D01*
X0093729Y0014236D01*
X0093699Y0014207D01*
X0093671Y0014176D01*
X0093646Y0014142D01*
X0093624Y0014106D01*
X0093605Y0014069D01*
X0093590Y0014030D01*
X0093578Y0013989D01*
X0093570Y0013948D01*
X0093565Y0013906D01*
X0093564Y0013864D01*
X0093567Y0013822D01*
X0093574Y0013781D01*
X0093584Y0013740D01*
X0093598Y0013700D01*
X0093615Y0013662D01*
X0093636Y0013626D01*
X0093474Y0012175D02*
X0093453Y0012144D01*
X0093435Y0012112D01*
X0093420Y0012078D01*
X0093408Y0012043D01*
X0093400Y0012007D01*
X0093395Y0011970D01*
X0093393Y0011933D01*
X0093876Y0011450D02*
X0093913Y0011452D01*
X0093950Y0011457D01*
X0093986Y0011465D01*
X0094021Y0011477D01*
X0094055Y0011492D01*
X0094087Y0011510D01*
X0094118Y0011531D01*
X0101318Y0014350D02*
X0102285Y0011450D01*
X0103251Y0014350D01*
X0104267Y0014350D02*
X0104911Y0014350D01*
X0104589Y0014350D02*
X0104589Y0011450D01*
X0104267Y0011450D02*
X0104911Y0011450D01*
X0106183Y0011450D02*
X0106183Y0014350D01*
X0107794Y0011450D01*
X0107794Y0014350D01*
X0109190Y0013061D02*
X0111123Y0013061D01*
X0111123Y0012094D02*
X0109190Y0012094D01*
X0112423Y0011450D02*
X0113390Y0011450D01*
X0113438Y0011452D01*
X0113486Y0011457D01*
X0113533Y0011466D01*
X0113580Y0011479D01*
X0113625Y0011495D01*
X0113669Y0011514D01*
X0113712Y0011536D01*
X0113753Y0011562D01*
X0113792Y0011591D01*
X0113828Y0011622D01*
X0113862Y0011656D01*
X0113893Y0011692D01*
X0113922Y0011731D01*
X0113948Y0011772D01*
X0113970Y0011815D01*
X0113989Y0011859D01*
X0114005Y0011904D01*
X0114018Y0011951D01*
X0114027Y0011998D01*
X0114032Y0012046D01*
X0114034Y0012094D01*
X0114034Y0012417D01*
X0114032Y0012465D01*
X0114027Y0012513D01*
X0114018Y0012560D01*
X0114005Y0012607D01*
X0113989Y0012652D01*
X0113970Y0012696D01*
X0113948Y0012739D01*
X0113922Y0012780D01*
X0113893Y0012819D01*
X0113862Y0012855D01*
X0113828Y0012889D01*
X0113792Y0012920D01*
X0113753Y0012949D01*
X0113712Y0012975D01*
X0113669Y0012997D01*
X0113625Y0013016D01*
X0113580Y0013032D01*
X0113533Y0013045D01*
X0113486Y0013054D01*
X0113438Y0013059D01*
X0113390Y0013061D01*
X0112423Y0013061D01*
X0112423Y0014350D01*
X0114034Y0014350D01*
X0115142Y0014350D02*
X0116109Y0011450D01*
X0117075Y0014350D01*
X0119750Y0012578D02*
X0121683Y0012578D01*
X0123014Y0013383D02*
X0124947Y0012578D01*
X0123014Y0011772D01*
X0127774Y0012094D02*
X0127774Y0013706D01*
X0127776Y0013757D01*
X0127782Y0013807D01*
X0127792Y0013856D01*
X0127806Y0013905D01*
X0127823Y0013952D01*
X0127844Y0013998D01*
X0127869Y0014042D01*
X0127897Y0014085D01*
X0127928Y0014124D01*
X0127963Y0014161D01*
X0128000Y0014196D01*
X0128039Y0014227D01*
X0128082Y0014255D01*
X0128126Y0014280D01*
X0128172Y0014301D01*
X0128219Y0014318D01*
X0128268Y0014332D01*
X0128317Y0014342D01*
X0128367Y0014348D01*
X0128418Y0014350D01*
X0129063Y0014350D01*
X0130152Y0012739D02*
X0130152Y0012094D01*
X0130153Y0012094D02*
X0130155Y0012045D01*
X0130161Y0011996D01*
X0130170Y0011947D01*
X0130183Y0011900D01*
X0130200Y0011853D01*
X0130220Y0011808D01*
X0130243Y0011765D01*
X0130270Y0011723D01*
X0130300Y0011684D01*
X0130333Y0011647D01*
X0130369Y0011613D01*
X0130407Y0011582D01*
X0130447Y0011553D01*
X0130489Y0011528D01*
X0130534Y0011506D01*
X0130579Y0011488D01*
X0130626Y0011473D01*
X0130674Y0011462D01*
X0130723Y0011454D01*
X0130772Y0011450D01*
X0130822Y0011450D01*
X0130871Y0011454D01*
X0130920Y0011462D01*
X0130968Y0011473D01*
X0131015Y0011488D01*
X0131060Y0011506D01*
X0131105Y0011528D01*
X0131147Y0011553D01*
X0131187Y0011582D01*
X0131225Y0011613D01*
X0131261Y0011647D01*
X0131294Y0011684D01*
X0131324Y0011723D01*
X0131351Y0011765D01*
X0131374Y0011808D01*
X0131394Y0011853D01*
X0131411Y0011900D01*
X0131424Y0011947D01*
X0131433Y0011996D01*
X0131439Y0012045D01*
X0131441Y0012094D01*
X0131441Y0012739D01*
X0131439Y0012788D01*
X0131433Y0012837D01*
X0131424Y0012886D01*
X0131411Y0012933D01*
X0131394Y0012980D01*
X0131374Y0013025D01*
X0131351Y0013068D01*
X0131324Y0013110D01*
X0131294Y0013149D01*
X0131261Y0013186D01*
X0131225Y0013220D01*
X0131187Y0013251D01*
X0131147Y0013280D01*
X0131105Y0013305D01*
X0131060Y0013327D01*
X0131015Y0013345D01*
X0130968Y0013360D01*
X0130920Y0013371D01*
X0130871Y0013379D01*
X0130822Y0013383D01*
X0130772Y0013383D01*
X0130723Y0013379D01*
X0130674Y0013371D01*
X0130626Y0013360D01*
X0130579Y0013345D01*
X0130534Y0013327D01*
X0130489Y0013305D01*
X0130447Y0013280D01*
X0130407Y0013251D01*
X0130369Y0013220D01*
X0130333Y0013186D01*
X0130300Y0013149D01*
X0130270Y0013110D01*
X0130243Y0013068D01*
X0130220Y0013025D01*
X0130200Y0012980D01*
X0130183Y0012933D01*
X0130170Y0012886D01*
X0130161Y0012837D01*
X0130155Y0012788D01*
X0130153Y0012739D01*
X0129063Y0011450D02*
X0128418Y0011450D01*
X0128370Y0011452D01*
X0128322Y0011457D01*
X0128275Y0011466D01*
X0128228Y0011479D01*
X0128183Y0011495D01*
X0128139Y0011514D01*
X0128096Y0011536D01*
X0128055Y0011562D01*
X0128016Y0011591D01*
X0127980Y0011622D01*
X0127946Y0011656D01*
X0127915Y0011692D01*
X0127886Y0011731D01*
X0127860Y0011772D01*
X0127838Y0011815D01*
X0127819Y0011859D01*
X0127803Y0011904D01*
X0127790Y0011951D01*
X0127781Y0011998D01*
X0127776Y0012046D01*
X0127774Y0012094D01*
X0132744Y0011450D02*
X0132744Y0013383D01*
X0133550Y0013383D01*
X0133592Y0013381D01*
X0133634Y0013376D01*
X0133675Y0013367D01*
X0133715Y0013354D01*
X0133754Y0013338D01*
X0133792Y0013318D01*
X0133827Y0013296D01*
X0133860Y0013270D01*
X0133892Y0013242D01*
X0133920Y0013210D01*
X0133946Y0013177D01*
X0133968Y0013142D01*
X0133988Y0013104D01*
X0134004Y0013065D01*
X0134017Y0013025D01*
X0134026Y0012984D01*
X0134031Y0012942D01*
X0134033Y0012900D01*
X0134033Y0011450D01*
X0135432Y0011450D02*
X0135432Y0013383D01*
X0136238Y0013383D01*
X0136280Y0013381D01*
X0136322Y0013376D01*
X0136363Y0013367D01*
X0136403Y0013354D01*
X0136442Y0013338D01*
X0136480Y0013318D01*
X0136515Y0013296D01*
X0136548Y0013270D01*
X0136580Y0013242D01*
X0136608Y0013210D01*
X0136634Y0013177D01*
X0136656Y0013142D01*
X0136676Y0013104D01*
X0136692Y0013065D01*
X0136705Y0013025D01*
X0136714Y0012984D01*
X0136719Y0012942D01*
X0136721Y0012900D01*
X0136721Y0011450D01*
X0138024Y0011933D02*
X0138024Y0012739D01*
X0138024Y0012417D02*
X0139313Y0012417D01*
X0139313Y0012739D01*
X0139311Y0012788D01*
X0139305Y0012837D01*
X0139296Y0012886D01*
X0139283Y0012933D01*
X0139266Y0012980D01*
X0139246Y0013025D01*
X0139223Y0013068D01*
X0139196Y0013110D01*
X0139166Y0013149D01*
X0139133Y0013186D01*
X0139097Y0013220D01*
X0139059Y0013251D01*
X0139019Y0013280D01*
X0138977Y0013305D01*
X0138932Y0013327D01*
X0138887Y0013345D01*
X0138840Y0013360D01*
X0138792Y0013371D01*
X0138743Y0013379D01*
X0138694Y0013383D01*
X0138644Y0013383D01*
X0138595Y0013379D01*
X0138546Y0013371D01*
X0138498Y0013360D01*
X0138451Y0013345D01*
X0138406Y0013327D01*
X0138361Y0013305D01*
X0138319Y0013280D01*
X0138279Y0013251D01*
X0138241Y0013220D01*
X0138205Y0013186D01*
X0138172Y0013149D01*
X0138142Y0013110D01*
X0138115Y0013068D01*
X0138092Y0013025D01*
X0138072Y0012980D01*
X0138055Y0012933D01*
X0138042Y0012886D01*
X0138033Y0012837D01*
X0138027Y0012788D01*
X0138025Y0012739D01*
X0138025Y0011933D02*
X0138027Y0011891D01*
X0138032Y0011849D01*
X0138041Y0011808D01*
X0138054Y0011768D01*
X0138070Y0011729D01*
X0138090Y0011692D01*
X0138112Y0011656D01*
X0138138Y0011623D01*
X0138166Y0011591D01*
X0138198Y0011563D01*
X0138231Y0011537D01*
X0138267Y0011515D01*
X0138304Y0011495D01*
X0138343Y0011479D01*
X0138383Y0011466D01*
X0138424Y0011457D01*
X0138466Y0011452D01*
X0138508Y0011450D01*
X0139313Y0011450D01*
X0140524Y0011933D02*
X0140524Y0012900D01*
X0140526Y0012942D01*
X0140531Y0012984D01*
X0140540Y0013025D01*
X0140553Y0013065D01*
X0140569Y0013104D01*
X0140589Y0013142D01*
X0140611Y0013177D01*
X0140637Y0013210D01*
X0140665Y0013242D01*
X0140697Y0013270D01*
X0140730Y0013296D01*
X0140766Y0013318D01*
X0140803Y0013338D01*
X0140842Y0013354D01*
X0140882Y0013367D01*
X0140923Y0013376D01*
X0140965Y0013381D01*
X0141007Y0013383D01*
X0141652Y0013383D01*
X0142480Y0013383D02*
X0143447Y0013383D01*
X0142802Y0014350D02*
X0142802Y0011933D01*
X0142803Y0011933D02*
X0142805Y0011891D01*
X0142810Y0011849D01*
X0142819Y0011808D01*
X0142832Y0011768D01*
X0142848Y0011729D01*
X0142868Y0011692D01*
X0142890Y0011656D01*
X0142916Y0011623D01*
X0142944Y0011591D01*
X0142976Y0011563D01*
X0143009Y0011537D01*
X0143045Y0011515D01*
X0143082Y0011495D01*
X0143121Y0011479D01*
X0143161Y0011466D01*
X0143202Y0011457D01*
X0143244Y0011452D01*
X0143286Y0011450D01*
X0143447Y0011450D01*
X0141652Y0011450D02*
X0141007Y0011450D01*
X0140965Y0011452D01*
X0140923Y0011457D01*
X0140882Y0011466D01*
X0140842Y0011479D01*
X0140803Y0011495D01*
X0140766Y0011515D01*
X0140730Y0011537D01*
X0140697Y0011563D01*
X0140665Y0011591D01*
X0140637Y0011623D01*
X0140611Y0011656D01*
X0140589Y0011692D01*
X0140569Y0011729D01*
X0140553Y0011768D01*
X0140540Y0011808D01*
X0140531Y0011849D01*
X0140526Y0011891D01*
X0140524Y0011933D01*
X0146110Y0012094D02*
X0146110Y0013706D01*
X0146112Y0013757D01*
X0146118Y0013807D01*
X0146128Y0013856D01*
X0146142Y0013905D01*
X0146159Y0013952D01*
X0146180Y0013998D01*
X0146205Y0014042D01*
X0146233Y0014085D01*
X0146264Y0014124D01*
X0146299Y0014161D01*
X0146336Y0014196D01*
X0146375Y0014227D01*
X0146418Y0014255D01*
X0146462Y0014280D01*
X0146508Y0014301D01*
X0146555Y0014318D01*
X0146604Y0014332D01*
X0146653Y0014342D01*
X0146703Y0014348D01*
X0146754Y0014350D01*
X0147399Y0014350D01*
X0148835Y0013625D02*
X0150204Y0011450D01*
X0149318Y0011531D02*
X0150526Y0012417D01*
X0151515Y0012739D02*
X0152321Y0012739D01*
X0152482Y0012739D02*
X0153126Y0011450D01*
X0154236Y0011450D02*
X0154397Y0011450D01*
X0154397Y0011611D01*
X0154236Y0011611D01*
X0154236Y0011450D01*
X0151515Y0011450D02*
X0151515Y0014350D01*
X0152321Y0014350D01*
X0152376Y0014348D01*
X0152431Y0014342D01*
X0152485Y0014333D01*
X0152538Y0014320D01*
X0152591Y0014303D01*
X0152642Y0014283D01*
X0152692Y0014260D01*
X0152740Y0014233D01*
X0152786Y0014202D01*
X0152830Y0014169D01*
X0152871Y0014133D01*
X0152910Y0014094D01*
X0152946Y0014053D01*
X0152979Y0014009D01*
X0153010Y0013963D01*
X0153037Y0013915D01*
X0153060Y0013865D01*
X0153080Y0013814D01*
X0153097Y0013761D01*
X0153110Y0013708D01*
X0153119Y0013654D01*
X0153125Y0013599D01*
X0153127Y0013544D01*
X0153125Y0013489D01*
X0153119Y0013434D01*
X0153110Y0013380D01*
X0153097Y0013327D01*
X0153080Y0013274D01*
X0153060Y0013223D01*
X0153037Y0013173D01*
X0153010Y0013125D01*
X0152979Y0013079D01*
X0152946Y0013035D01*
X0152910Y0012994D01*
X0152871Y0012955D01*
X0152830Y0012919D01*
X0152786Y0012886D01*
X0152740Y0012855D01*
X0152692Y0012828D01*
X0152642Y0012805D01*
X0152591Y0012785D01*
X0152538Y0012768D01*
X0152485Y0012755D01*
X0152431Y0012746D01*
X0152376Y0012740D01*
X0152321Y0012738D01*
X0149640Y0013625D02*
X0148673Y0012175D01*
X0148674Y0012175D02*
X0148653Y0012144D01*
X0148635Y0012112D01*
X0148620Y0012078D01*
X0148608Y0012043D01*
X0148600Y0012007D01*
X0148595Y0011970D01*
X0148593Y0011933D01*
X0148595Y0011891D01*
X0148600Y0011849D01*
X0148609Y0011808D01*
X0148622Y0011768D01*
X0148638Y0011729D01*
X0148658Y0011692D01*
X0148680Y0011656D01*
X0148706Y0011623D01*
X0148734Y0011591D01*
X0148766Y0011563D01*
X0148799Y0011537D01*
X0148835Y0011515D01*
X0148872Y0011495D01*
X0148911Y0011479D01*
X0148951Y0011466D01*
X0148992Y0011457D01*
X0149034Y0011452D01*
X0149076Y0011450D01*
X0149113Y0011452D01*
X0149150Y0011457D01*
X0149186Y0011465D01*
X0149221Y0011477D01*
X0149255Y0011492D01*
X0149287Y0011510D01*
X0149318Y0011531D01*
X0147399Y0011450D02*
X0146754Y0011450D01*
X0146706Y0011452D01*
X0146658Y0011457D01*
X0146611Y0011466D01*
X0146564Y0011479D01*
X0146519Y0011495D01*
X0146475Y0011514D01*
X0146432Y0011536D01*
X0146391Y0011562D01*
X0146352Y0011591D01*
X0146316Y0011622D01*
X0146282Y0011656D01*
X0146251Y0011692D01*
X0146222Y0011731D01*
X0146196Y0011772D01*
X0146174Y0011815D01*
X0146155Y0011859D01*
X0146139Y0011904D01*
X0146126Y0011951D01*
X0146117Y0011998D01*
X0146112Y0012046D01*
X0146110Y0012094D01*
X0149639Y0013626D02*
X0149660Y0013662D01*
X0149677Y0013700D01*
X0149691Y0013740D01*
X0149701Y0013781D01*
X0149708Y0013822D01*
X0149711Y0013864D01*
X0149710Y0013906D01*
X0149705Y0013948D01*
X0149697Y0013989D01*
X0149685Y0014030D01*
X0149670Y0014069D01*
X0149651Y0014106D01*
X0149629Y0014142D01*
X0149604Y0014176D01*
X0149576Y0014207D01*
X0149546Y0014236D01*
X0149513Y0014262D01*
X0149477Y0014285D01*
X0149440Y0014304D01*
X0149402Y0014321D01*
X0149362Y0014333D01*
X0149321Y0014343D01*
X0149279Y0014348D01*
X0149237Y0014350D01*
X0149195Y0014348D01*
X0149153Y0014343D01*
X0149112Y0014333D01*
X0149072Y0014321D01*
X0149034Y0014304D01*
X0148997Y0014285D01*
X0148961Y0014262D01*
X0148928Y0014236D01*
X0148898Y0014207D01*
X0148870Y0014176D01*
X0148845Y0014142D01*
X0148823Y0014106D01*
X0148804Y0014069D01*
X0148789Y0014030D01*
X0148777Y0013989D01*
X0148769Y0013948D01*
X0148764Y0013906D01*
X0148763Y0013864D01*
X0148766Y0013822D01*
X0148773Y0013781D01*
X0148783Y0013740D01*
X0148797Y0013700D01*
X0148814Y0013662D01*
X0148835Y0013626D01*
X0044109Y0011450D02*
X0043142Y0014350D01*
X0064393Y0170483D02*
X0064715Y0170483D01*
X0065682Y0173383D01*
X0064393Y0173383D02*
X0065037Y0171450D01*
X0063298Y0171933D02*
X0063298Y0172900D01*
X0063296Y0172942D01*
X0063291Y0172984D01*
X0063282Y0173025D01*
X0063269Y0173065D01*
X0063253Y0173104D01*
X0063233Y0173142D01*
X0063211Y0173177D01*
X0063185Y0173210D01*
X0063157Y0173242D01*
X0063125Y0173270D01*
X0063092Y0173296D01*
X0063057Y0173318D01*
X0063019Y0173338D01*
X0062980Y0173354D01*
X0062940Y0173367D01*
X0062899Y0173376D01*
X0062857Y0173381D01*
X0062815Y0173383D01*
X0062009Y0173383D01*
X0062009Y0174350D02*
X0062009Y0171450D01*
X0062815Y0171450D01*
X0062857Y0171452D01*
X0062899Y0171457D01*
X0062940Y0171466D01*
X0062980Y0171479D01*
X0063019Y0171495D01*
X0063057Y0171515D01*
X0063092Y0171537D01*
X0063125Y0171563D01*
X0063157Y0171591D01*
X0063185Y0171623D01*
X0063211Y0171656D01*
X0063233Y0171692D01*
X0063253Y0171729D01*
X0063269Y0171768D01*
X0063282Y0171808D01*
X0063291Y0171849D01*
X0063296Y0171891D01*
X0063298Y0171933D01*
X0057754Y0171853D02*
X0057716Y0171935D01*
X0057681Y0172018D01*
X0057649Y0172103D01*
X0057620Y0172188D01*
X0057595Y0172275D01*
X0057573Y0172363D01*
X0057555Y0172451D01*
X0057539Y0172540D01*
X0057527Y0172630D01*
X0057519Y0172719D01*
X0057514Y0172810D01*
X0057512Y0172900D01*
X0059123Y0172900D02*
X0059121Y0172990D01*
X0059116Y0173081D01*
X0059108Y0173170D01*
X0059096Y0173260D01*
X0059080Y0173349D01*
X0059062Y0173437D01*
X0059040Y0173525D01*
X0059015Y0173612D01*
X0058986Y0173697D01*
X0058954Y0173782D01*
X0058919Y0173865D01*
X0058881Y0173947D01*
X0058962Y0173706D02*
X0057673Y0172094D01*
X0058317Y0171450D02*
X0058363Y0171452D01*
X0058409Y0171457D01*
X0058454Y0171466D01*
X0058499Y0171478D01*
X0058542Y0171494D01*
X0058584Y0171513D01*
X0058625Y0171536D01*
X0058663Y0171561D01*
X0058700Y0171589D01*
X0058734Y0171620D01*
X0058766Y0171654D01*
X0058795Y0171690D01*
X0058821Y0171728D01*
X0058844Y0171768D01*
X0058864Y0171810D01*
X0058881Y0171853D01*
X0058317Y0171450D02*
X0058271Y0171452D01*
X0058225Y0171457D01*
X0058180Y0171466D01*
X0058135Y0171478D01*
X0058092Y0171494D01*
X0058050Y0171513D01*
X0058009Y0171536D01*
X0057971Y0171561D01*
X0057934Y0171589D01*
X0057900Y0171620D01*
X0057868Y0171654D01*
X0057839Y0171690D01*
X0057813Y0171728D01*
X0057790Y0171768D01*
X0057770Y0171810D01*
X0057753Y0171853D01*
X0056382Y0171611D02*
X0056382Y0171450D01*
X0056221Y0171450D01*
X0056221Y0171611D01*
X0056382Y0171611D01*
X0058881Y0171853D02*
X0058919Y0171935D01*
X0058954Y0172018D01*
X0058986Y0172103D01*
X0059015Y0172188D01*
X0059040Y0172275D01*
X0059062Y0172363D01*
X0059080Y0172451D01*
X0059096Y0172540D01*
X0059108Y0172630D01*
X0059116Y0172719D01*
X0059121Y0172810D01*
X0059123Y0172900D01*
X0057512Y0172900D02*
X0057514Y0172990D01*
X0057519Y0173081D01*
X0057527Y0173170D01*
X0057539Y0173260D01*
X0057555Y0173349D01*
X0057573Y0173437D01*
X0057595Y0173525D01*
X0057620Y0173612D01*
X0057649Y0173697D01*
X0057681Y0173782D01*
X0057716Y0173865D01*
X0057754Y0173947D01*
X0058317Y0174350D02*
X0058363Y0174348D01*
X0058409Y0174343D01*
X0058454Y0174334D01*
X0058499Y0174322D01*
X0058542Y0174306D01*
X0058584Y0174287D01*
X0058625Y0174264D01*
X0058663Y0174239D01*
X0058700Y0174211D01*
X0058734Y0174180D01*
X0058766Y0174146D01*
X0058795Y0174110D01*
X0058821Y0174072D01*
X0058844Y0174032D01*
X0058864Y0173990D01*
X0058881Y0173947D01*
X0058317Y0174350D02*
X0058271Y0174348D01*
X0058225Y0174343D01*
X0058180Y0174334D01*
X0058135Y0174322D01*
X0058092Y0174306D01*
X0058050Y0174287D01*
X0058009Y0174264D01*
X0057971Y0174239D01*
X0057934Y0174211D01*
X0057900Y0174180D01*
X0057868Y0174146D01*
X0057839Y0174110D01*
X0057813Y0174072D01*
X0057790Y0174032D01*
X0057770Y0173990D01*
X0057753Y0173947D01*
X0053480Y0172900D02*
X0053482Y0172810D01*
X0053487Y0172719D01*
X0053495Y0172630D01*
X0053507Y0172540D01*
X0053523Y0172451D01*
X0053541Y0172363D01*
X0053563Y0172275D01*
X0053588Y0172188D01*
X0053617Y0172103D01*
X0053649Y0172018D01*
X0053684Y0171935D01*
X0053722Y0171853D01*
X0053641Y0172094D02*
X0054930Y0173706D01*
X0054849Y0173947D02*
X0054832Y0173990D01*
X0054812Y0174032D01*
X0054789Y0174072D01*
X0054763Y0174110D01*
X0054734Y0174146D01*
X0054702Y0174180D01*
X0054668Y0174211D01*
X0054631Y0174239D01*
X0054593Y0174264D01*
X0054552Y0174287D01*
X0054510Y0174306D01*
X0054467Y0174322D01*
X0054422Y0174334D01*
X0054377Y0174343D01*
X0054331Y0174348D01*
X0054285Y0174350D01*
X0054239Y0174348D01*
X0054193Y0174343D01*
X0054148Y0174334D01*
X0054103Y0174322D01*
X0054060Y0174306D01*
X0054018Y0174287D01*
X0053977Y0174264D01*
X0053939Y0174239D01*
X0053902Y0174211D01*
X0053868Y0174180D01*
X0053836Y0174146D01*
X0053807Y0174110D01*
X0053781Y0174072D01*
X0053758Y0174032D01*
X0053738Y0173990D01*
X0053721Y0173947D01*
X0054849Y0173947D02*
X0054887Y0173865D01*
X0054922Y0173782D01*
X0054954Y0173697D01*
X0054983Y0173612D01*
X0055008Y0173525D01*
X0055030Y0173437D01*
X0055048Y0173349D01*
X0055064Y0173260D01*
X0055076Y0173170D01*
X0055084Y0173081D01*
X0055089Y0172990D01*
X0055091Y0172900D01*
X0053480Y0172900D02*
X0053482Y0172990D01*
X0053487Y0173081D01*
X0053495Y0173170D01*
X0053507Y0173260D01*
X0053523Y0173349D01*
X0053541Y0173437D01*
X0053563Y0173525D01*
X0053588Y0173612D01*
X0053617Y0173697D01*
X0053649Y0173782D01*
X0053684Y0173865D01*
X0053722Y0173947D01*
X0055091Y0172900D02*
X0055089Y0172810D01*
X0055084Y0172719D01*
X0055076Y0172630D01*
X0055064Y0172540D01*
X0055048Y0172451D01*
X0055030Y0172363D01*
X0055008Y0172275D01*
X0054983Y0172188D01*
X0054954Y0172103D01*
X0054922Y0172018D01*
X0054887Y0171935D01*
X0054849Y0171853D01*
X0054832Y0171810D01*
X0054812Y0171768D01*
X0054789Y0171728D01*
X0054763Y0171690D01*
X0054734Y0171654D01*
X0054702Y0171620D01*
X0054668Y0171589D01*
X0054631Y0171561D01*
X0054593Y0171536D01*
X0054552Y0171513D01*
X0054510Y0171494D01*
X0054467Y0171478D01*
X0054422Y0171466D01*
X0054377Y0171457D01*
X0054331Y0171452D01*
X0054285Y0171450D01*
X0054239Y0171452D01*
X0054193Y0171457D01*
X0054148Y0171466D01*
X0054103Y0171478D01*
X0054060Y0171494D01*
X0054018Y0171513D01*
X0053977Y0171536D01*
X0053939Y0171561D01*
X0053902Y0171589D01*
X0053868Y0171620D01*
X0053836Y0171654D01*
X0053807Y0171690D01*
X0053781Y0171728D01*
X0053758Y0171768D01*
X0053738Y0171810D01*
X0053721Y0171853D01*
X0052350Y0171611D02*
X0052350Y0171450D01*
X0052189Y0171450D01*
X0052189Y0171611D01*
X0052350Y0171611D01*
X0051059Y0171450D02*
X0049448Y0171450D01*
X0050254Y0171450D02*
X0050254Y0174350D01*
X0049448Y0173706D01*
X0046019Y0172739D02*
X0046663Y0171450D01*
X0045858Y0172739D02*
X0045052Y0172739D01*
X0045858Y0172738D02*
X0045913Y0172740D01*
X0045968Y0172746D01*
X0046022Y0172755D01*
X0046075Y0172768D01*
X0046128Y0172785D01*
X0046179Y0172805D01*
X0046229Y0172828D01*
X0046277Y0172855D01*
X0046323Y0172886D01*
X0046367Y0172919D01*
X0046408Y0172955D01*
X0046447Y0172994D01*
X0046483Y0173035D01*
X0046516Y0173079D01*
X0046547Y0173125D01*
X0046574Y0173173D01*
X0046597Y0173223D01*
X0046617Y0173274D01*
X0046634Y0173327D01*
X0046647Y0173380D01*
X0046656Y0173434D01*
X0046662Y0173489D01*
X0046664Y0173544D01*
X0046662Y0173599D01*
X0046656Y0173654D01*
X0046647Y0173708D01*
X0046634Y0173761D01*
X0046617Y0173814D01*
X0046597Y0173865D01*
X0046574Y0173915D01*
X0046547Y0173963D01*
X0046516Y0174009D01*
X0046483Y0174053D01*
X0046447Y0174094D01*
X0046408Y0174133D01*
X0046367Y0174169D01*
X0046323Y0174202D01*
X0046277Y0174233D01*
X0046229Y0174260D01*
X0046179Y0174283D01*
X0046128Y0174303D01*
X0046075Y0174320D01*
X0046022Y0174333D01*
X0045968Y0174342D01*
X0045913Y0174348D01*
X0045858Y0174350D01*
X0045052Y0174350D01*
X0045052Y0171450D01*
X0043831Y0171450D02*
X0042542Y0171450D01*
X0042542Y0174350D01*
X0043831Y0174350D01*
X0043509Y0173061D02*
X0042542Y0173061D01*
X0040945Y0172658D02*
X0040059Y0173142D01*
X0040381Y0174350D02*
X0040446Y0174348D01*
X0040510Y0174343D01*
X0040575Y0174334D01*
X0040638Y0174322D01*
X0040701Y0174307D01*
X0040763Y0174288D01*
X0040824Y0174266D01*
X0040883Y0174241D01*
X0040942Y0174212D01*
X0040998Y0174180D01*
X0041053Y0174146D01*
X0041106Y0174108D01*
X0040058Y0173142D02*
X0040018Y0173168D01*
X0039979Y0173197D01*
X0039942Y0173229D01*
X0039908Y0173264D01*
X0039877Y0173301D01*
X0039848Y0173340D01*
X0039822Y0173381D01*
X0039800Y0173424D01*
X0039781Y0173469D01*
X0039765Y0173515D01*
X0039752Y0173561D01*
X0039743Y0173609D01*
X0039738Y0173657D01*
X0039736Y0173706D01*
X0039737Y0173706D02*
X0039739Y0173754D01*
X0039744Y0173802D01*
X0039753Y0173849D01*
X0039766Y0173896D01*
X0039782Y0173941D01*
X0039801Y0173985D01*
X0039823Y0174028D01*
X0039849Y0174069D01*
X0039878Y0174108D01*
X0039909Y0174144D01*
X0039943Y0174178D01*
X0039979Y0174210D01*
X0040018Y0174238D01*
X0040059Y0174264D01*
X0040102Y0174286D01*
X0040146Y0174305D01*
X0040191Y0174321D01*
X0040238Y0174334D01*
X0040285Y0174343D01*
X0040333Y0174348D01*
X0040381Y0174350D01*
X0039657Y0171853D02*
X0039708Y0171803D01*
X0039763Y0171756D01*
X0039819Y0171713D01*
X0039878Y0171672D01*
X0039939Y0171634D01*
X0040002Y0171600D01*
X0040067Y0171569D01*
X0040133Y0171541D01*
X0040200Y0171517D01*
X0040269Y0171497D01*
X0040339Y0171480D01*
X0040409Y0171467D01*
X0040480Y0171458D01*
X0040551Y0171452D01*
X0040623Y0171450D01*
X0040671Y0171452D01*
X0040719Y0171457D01*
X0040766Y0171466D01*
X0040813Y0171479D01*
X0040858Y0171495D01*
X0040902Y0171514D01*
X0040945Y0171536D01*
X0040986Y0171562D01*
X0041025Y0171591D01*
X0041061Y0171622D01*
X0041095Y0171656D01*
X0041126Y0171692D01*
X0041155Y0171731D01*
X0041181Y0171772D01*
X0041203Y0171815D01*
X0041222Y0171859D01*
X0041238Y0171904D01*
X0041251Y0171951D01*
X0041260Y0171998D01*
X0041265Y0172046D01*
X0041267Y0172094D01*
X0041268Y0172094D02*
X0041266Y0172143D01*
X0041261Y0172191D01*
X0041252Y0172239D01*
X0041239Y0172285D01*
X0041223Y0172331D01*
X0041204Y0172376D01*
X0041182Y0172419D01*
X0041156Y0172460D01*
X0041127Y0172499D01*
X0041096Y0172536D01*
X0041062Y0172571D01*
X0041025Y0172603D01*
X0040986Y0172632D01*
X0040946Y0172658D01*
X0038644Y0174350D02*
X0037678Y0172981D01*
X0037678Y0171450D01*
X0037678Y0172981D02*
X0036711Y0174350D01*
X0035767Y0174350D02*
X0034478Y0174350D01*
X0034478Y0171450D01*
X0035767Y0171450D01*
X0035445Y0173061D02*
X0034478Y0173061D01*
X0033011Y0173061D02*
X0033011Y0171450D01*
X0032044Y0171450D01*
X0031996Y0171452D01*
X0031948Y0171457D01*
X0031901Y0171466D01*
X0031854Y0171479D01*
X0031809Y0171495D01*
X0031765Y0171514D01*
X0031722Y0171536D01*
X0031681Y0171562D01*
X0031642Y0171591D01*
X0031606Y0171622D01*
X0031572Y0171656D01*
X0031541Y0171692D01*
X0031512Y0171731D01*
X0031486Y0171772D01*
X0031464Y0171815D01*
X0031445Y0171859D01*
X0031429Y0171904D01*
X0031416Y0171951D01*
X0031407Y0171998D01*
X0031402Y0172046D01*
X0031400Y0172094D01*
X0031400Y0173706D01*
X0031402Y0173757D01*
X0031408Y0173807D01*
X0031418Y0173856D01*
X0031432Y0173905D01*
X0031449Y0173952D01*
X0031470Y0173998D01*
X0031495Y0174042D01*
X0031523Y0174085D01*
X0031554Y0174124D01*
X0031589Y0174161D01*
X0031626Y0174196D01*
X0031665Y0174227D01*
X0031708Y0174255D01*
X0031752Y0174280D01*
X0031798Y0174301D01*
X0031845Y0174318D01*
X0031894Y0174332D01*
X0031943Y0174342D01*
X0031993Y0174348D01*
X0032044Y0174350D01*
X0033011Y0174350D01*
X0033011Y0173061D02*
X0032528Y0173061D01*
X0068502Y0172739D02*
X0069308Y0172739D01*
X0069308Y0172738D02*
X0069363Y0172740D01*
X0069418Y0172746D01*
X0069472Y0172755D01*
X0069525Y0172768D01*
X0069578Y0172785D01*
X0069629Y0172805D01*
X0069679Y0172828D01*
X0069727Y0172855D01*
X0069773Y0172886D01*
X0069817Y0172919D01*
X0069858Y0172955D01*
X0069897Y0172994D01*
X0069933Y0173035D01*
X0069966Y0173079D01*
X0069997Y0173125D01*
X0070024Y0173173D01*
X0070047Y0173223D01*
X0070067Y0173274D01*
X0070084Y0173327D01*
X0070097Y0173380D01*
X0070106Y0173434D01*
X0070112Y0173489D01*
X0070114Y0173544D01*
X0070112Y0173599D01*
X0070106Y0173654D01*
X0070097Y0173708D01*
X0070084Y0173761D01*
X0070067Y0173814D01*
X0070047Y0173865D01*
X0070024Y0173915D01*
X0069997Y0173963D01*
X0069966Y0174009D01*
X0069933Y0174053D01*
X0069897Y0174094D01*
X0069858Y0174133D01*
X0069817Y0174169D01*
X0069773Y0174202D01*
X0069727Y0174233D01*
X0069679Y0174260D01*
X0069629Y0174283D01*
X0069578Y0174303D01*
X0069525Y0174320D01*
X0069472Y0174333D01*
X0069418Y0174342D01*
X0069363Y0174348D01*
X0069308Y0174350D01*
X0068502Y0174350D01*
X0068502Y0171450D01*
X0071181Y0171450D02*
X0071181Y0173383D01*
X0071101Y0174189D02*
X0071262Y0174189D01*
X0071262Y0174350D01*
X0071101Y0174350D01*
X0071101Y0174189D01*
X0072457Y0173383D02*
X0072457Y0171450D01*
X0073746Y0171450D02*
X0073746Y0172900D01*
X0073744Y0172942D01*
X0073739Y0172984D01*
X0073730Y0173025D01*
X0073717Y0173065D01*
X0073701Y0173104D01*
X0073681Y0173142D01*
X0073659Y0173177D01*
X0073633Y0173210D01*
X0073605Y0173242D01*
X0073573Y0173270D01*
X0073540Y0173296D01*
X0073505Y0173318D01*
X0073467Y0173338D01*
X0073428Y0173354D01*
X0073388Y0173367D01*
X0073347Y0173376D01*
X0073305Y0173381D01*
X0073263Y0173383D01*
X0072457Y0173383D01*
X0075049Y0172739D02*
X0075049Y0171933D01*
X0075051Y0171891D01*
X0075056Y0171849D01*
X0075065Y0171808D01*
X0075078Y0171768D01*
X0075094Y0171729D01*
X0075114Y0171692D01*
X0075136Y0171656D01*
X0075162Y0171623D01*
X0075190Y0171591D01*
X0075222Y0171563D01*
X0075255Y0171537D01*
X0075291Y0171515D01*
X0075328Y0171495D01*
X0075367Y0171479D01*
X0075407Y0171466D01*
X0075448Y0171457D01*
X0075490Y0171452D01*
X0075532Y0171450D01*
X0076338Y0171450D01*
X0076338Y0172417D02*
X0075049Y0172417D01*
X0075049Y0172739D02*
X0075051Y0172788D01*
X0075057Y0172837D01*
X0075066Y0172886D01*
X0075079Y0172933D01*
X0075096Y0172980D01*
X0075116Y0173025D01*
X0075139Y0173068D01*
X0075166Y0173110D01*
X0075196Y0173149D01*
X0075229Y0173186D01*
X0075265Y0173220D01*
X0075303Y0173251D01*
X0075343Y0173280D01*
X0075385Y0173305D01*
X0075430Y0173327D01*
X0075475Y0173345D01*
X0075522Y0173360D01*
X0075570Y0173371D01*
X0075619Y0173379D01*
X0075668Y0173383D01*
X0075718Y0173383D01*
X0075767Y0173379D01*
X0075816Y0173371D01*
X0075864Y0173360D01*
X0075911Y0173345D01*
X0075956Y0173327D01*
X0076001Y0173305D01*
X0076043Y0173280D01*
X0076083Y0173251D01*
X0076121Y0173220D01*
X0076157Y0173186D01*
X0076190Y0173149D01*
X0076220Y0173110D01*
X0076247Y0173068D01*
X0076270Y0173025D01*
X0076290Y0172980D01*
X0076307Y0172933D01*
X0076320Y0172886D01*
X0076329Y0172837D01*
X0076335Y0172788D01*
X0076337Y0172739D01*
X0076338Y0172739D02*
X0076338Y0172417D01*
X0077690Y0173383D02*
X0078334Y0173383D01*
X0078376Y0173381D01*
X0078418Y0173376D01*
X0078459Y0173367D01*
X0078499Y0173354D01*
X0078538Y0173338D01*
X0078576Y0173318D01*
X0078611Y0173296D01*
X0078644Y0173270D01*
X0078676Y0173242D01*
X0078704Y0173210D01*
X0078730Y0173177D01*
X0078752Y0173142D01*
X0078772Y0173104D01*
X0078788Y0173065D01*
X0078801Y0173025D01*
X0078810Y0172984D01*
X0078815Y0172942D01*
X0078817Y0172900D01*
X0078818Y0172900D02*
X0078818Y0171450D01*
X0078093Y0171450D01*
X0078046Y0171452D01*
X0078000Y0171458D01*
X0077955Y0171467D01*
X0077910Y0171481D01*
X0077866Y0171498D01*
X0077825Y0171518D01*
X0077785Y0171542D01*
X0077747Y0171569D01*
X0077711Y0171599D01*
X0077678Y0171632D01*
X0077648Y0171668D01*
X0077621Y0171706D01*
X0077597Y0171746D01*
X0077577Y0171787D01*
X0077560Y0171831D01*
X0077546Y0171876D01*
X0077537Y0171921D01*
X0077531Y0171967D01*
X0077529Y0172014D01*
X0077531Y0172061D01*
X0077537Y0172107D01*
X0077546Y0172152D01*
X0077560Y0172197D01*
X0077577Y0172241D01*
X0077597Y0172282D01*
X0077621Y0172322D01*
X0077648Y0172360D01*
X0077678Y0172396D01*
X0077711Y0172429D01*
X0077747Y0172459D01*
X0077785Y0172486D01*
X0077825Y0172510D01*
X0077866Y0172530D01*
X0077910Y0172547D01*
X0077955Y0172561D01*
X0078000Y0172570D01*
X0078046Y0172576D01*
X0078093Y0172578D01*
X0078818Y0172578D01*
X0080249Y0173383D02*
X0080249Y0170483D01*
X0080249Y0171450D02*
X0081055Y0171450D01*
X0081097Y0171452D01*
X0081139Y0171457D01*
X0081180Y0171466D01*
X0081220Y0171479D01*
X0081259Y0171495D01*
X0081297Y0171515D01*
X0081332Y0171537D01*
X0081365Y0171563D01*
X0081397Y0171591D01*
X0081425Y0171623D01*
X0081451Y0171656D01*
X0081473Y0171692D01*
X0081493Y0171729D01*
X0081509Y0171768D01*
X0081522Y0171808D01*
X0081531Y0171849D01*
X0081536Y0171891D01*
X0081538Y0171933D01*
X0081538Y0172900D01*
X0081536Y0172942D01*
X0081531Y0172984D01*
X0081522Y0173025D01*
X0081509Y0173065D01*
X0081493Y0173104D01*
X0081473Y0173142D01*
X0081451Y0173177D01*
X0081425Y0173210D01*
X0081397Y0173242D01*
X0081365Y0173270D01*
X0081332Y0173296D01*
X0081297Y0173318D01*
X0081259Y0173338D01*
X0081220Y0173354D01*
X0081180Y0173367D01*
X0081139Y0173376D01*
X0081097Y0173381D01*
X0081055Y0173383D01*
X0080249Y0173383D01*
X0082841Y0173383D02*
X0083647Y0173383D01*
X0083689Y0173381D01*
X0083731Y0173376D01*
X0083772Y0173367D01*
X0083812Y0173354D01*
X0083851Y0173338D01*
X0083889Y0173318D01*
X0083924Y0173296D01*
X0083957Y0173270D01*
X0083989Y0173242D01*
X0084017Y0173210D01*
X0084043Y0173177D01*
X0084065Y0173142D01*
X0084085Y0173104D01*
X0084101Y0173065D01*
X0084114Y0173025D01*
X0084123Y0172984D01*
X0084128Y0172942D01*
X0084130Y0172900D01*
X0084130Y0171933D01*
X0084128Y0171891D01*
X0084123Y0171849D01*
X0084114Y0171808D01*
X0084101Y0171768D01*
X0084085Y0171729D01*
X0084065Y0171692D01*
X0084043Y0171656D01*
X0084017Y0171623D01*
X0083989Y0171591D01*
X0083957Y0171563D01*
X0083924Y0171537D01*
X0083889Y0171515D01*
X0083851Y0171495D01*
X0083812Y0171479D01*
X0083772Y0171466D01*
X0083731Y0171457D01*
X0083689Y0171452D01*
X0083647Y0171450D01*
X0082841Y0171450D01*
X0082841Y0170483D02*
X0082841Y0173383D01*
X0085354Y0174350D02*
X0085354Y0171933D01*
X0085356Y0171891D01*
X0085361Y0171849D01*
X0085370Y0171808D01*
X0085383Y0171768D01*
X0085399Y0171729D01*
X0085419Y0171692D01*
X0085441Y0171656D01*
X0085467Y0171623D01*
X0085495Y0171591D01*
X0085527Y0171563D01*
X0085560Y0171537D01*
X0085596Y0171515D01*
X0085633Y0171495D01*
X0085672Y0171479D01*
X0085712Y0171466D01*
X0085753Y0171457D01*
X0085795Y0171452D01*
X0085837Y0171450D01*
X0086857Y0171933D02*
X0086857Y0172739D01*
X0086857Y0172417D02*
X0088146Y0172417D01*
X0088146Y0172739D01*
X0088145Y0172739D02*
X0088143Y0172788D01*
X0088137Y0172837D01*
X0088128Y0172886D01*
X0088115Y0172933D01*
X0088098Y0172980D01*
X0088078Y0173025D01*
X0088055Y0173068D01*
X0088028Y0173110D01*
X0087998Y0173149D01*
X0087965Y0173186D01*
X0087929Y0173220D01*
X0087891Y0173251D01*
X0087851Y0173280D01*
X0087809Y0173305D01*
X0087764Y0173327D01*
X0087719Y0173345D01*
X0087672Y0173360D01*
X0087624Y0173371D01*
X0087575Y0173379D01*
X0087526Y0173383D01*
X0087476Y0173383D01*
X0087427Y0173379D01*
X0087378Y0173371D01*
X0087330Y0173360D01*
X0087283Y0173345D01*
X0087238Y0173327D01*
X0087193Y0173305D01*
X0087151Y0173280D01*
X0087111Y0173251D01*
X0087073Y0173220D01*
X0087037Y0173186D01*
X0087004Y0173149D01*
X0086974Y0173110D01*
X0086947Y0173068D01*
X0086924Y0173025D01*
X0086904Y0172980D01*
X0086887Y0172933D01*
X0086874Y0172886D01*
X0086865Y0172837D01*
X0086859Y0172788D01*
X0086857Y0172739D01*
X0086857Y0171933D02*
X0086859Y0171891D01*
X0086864Y0171849D01*
X0086873Y0171808D01*
X0086886Y0171768D01*
X0086902Y0171729D01*
X0086922Y0171692D01*
X0086944Y0171656D01*
X0086970Y0171623D01*
X0086998Y0171591D01*
X0087030Y0171563D01*
X0087063Y0171537D01*
X0087099Y0171515D01*
X0087136Y0171495D01*
X0087175Y0171479D01*
X0087215Y0171466D01*
X0087256Y0171457D01*
X0087298Y0171452D01*
X0087340Y0171450D01*
X0088146Y0171450D01*
X0091016Y0171450D02*
X0091821Y0171450D01*
X0091016Y0171450D02*
X0091016Y0174350D01*
X0091821Y0174350D01*
X0091876Y0174348D01*
X0091931Y0174342D01*
X0091985Y0174333D01*
X0092038Y0174320D01*
X0092091Y0174303D01*
X0092142Y0174283D01*
X0092192Y0174260D01*
X0092240Y0174233D01*
X0092286Y0174202D01*
X0092330Y0174169D01*
X0092371Y0174133D01*
X0092410Y0174094D01*
X0092446Y0174053D01*
X0092479Y0174009D01*
X0092510Y0173963D01*
X0092537Y0173915D01*
X0092560Y0173865D01*
X0092580Y0173814D01*
X0092597Y0173761D01*
X0092610Y0173708D01*
X0092619Y0173654D01*
X0092625Y0173599D01*
X0092627Y0173544D01*
X0092627Y0172256D01*
X0092625Y0172201D01*
X0092619Y0172146D01*
X0092610Y0172092D01*
X0092597Y0172039D01*
X0092580Y0171986D01*
X0092560Y0171935D01*
X0092537Y0171885D01*
X0092510Y0171837D01*
X0092479Y0171791D01*
X0092446Y0171747D01*
X0092410Y0171706D01*
X0092371Y0171667D01*
X0092330Y0171631D01*
X0092286Y0171598D01*
X0092240Y0171567D01*
X0092192Y0171540D01*
X0092142Y0171517D01*
X0092091Y0171497D01*
X0092038Y0171480D01*
X0091985Y0171467D01*
X0091931Y0171458D01*
X0091876Y0171452D01*
X0091821Y0171450D01*
X0093961Y0171933D02*
X0093961Y0172739D01*
X0093961Y0172417D02*
X0095250Y0172417D01*
X0095250Y0172739D01*
X0095249Y0172739D02*
X0095247Y0172788D01*
X0095241Y0172837D01*
X0095232Y0172886D01*
X0095219Y0172933D01*
X0095202Y0172980D01*
X0095182Y0173025D01*
X0095159Y0173068D01*
X0095132Y0173110D01*
X0095102Y0173149D01*
X0095069Y0173186D01*
X0095033Y0173220D01*
X0094995Y0173251D01*
X0094955Y0173280D01*
X0094913Y0173305D01*
X0094868Y0173327D01*
X0094823Y0173345D01*
X0094776Y0173360D01*
X0094728Y0173371D01*
X0094679Y0173379D01*
X0094630Y0173383D01*
X0094580Y0173383D01*
X0094531Y0173379D01*
X0094482Y0173371D01*
X0094434Y0173360D01*
X0094387Y0173345D01*
X0094342Y0173327D01*
X0094297Y0173305D01*
X0094255Y0173280D01*
X0094215Y0173251D01*
X0094177Y0173220D01*
X0094141Y0173186D01*
X0094108Y0173149D01*
X0094078Y0173110D01*
X0094051Y0173068D01*
X0094028Y0173025D01*
X0094008Y0172980D01*
X0093991Y0172933D01*
X0093978Y0172886D01*
X0093969Y0172837D01*
X0093963Y0172788D01*
X0093961Y0172739D01*
X0093961Y0171933D02*
X0093963Y0171891D01*
X0093968Y0171849D01*
X0093977Y0171808D01*
X0093990Y0171768D01*
X0094006Y0171729D01*
X0094026Y0171692D01*
X0094048Y0171656D01*
X0094074Y0171623D01*
X0094102Y0171591D01*
X0094134Y0171563D01*
X0094167Y0171537D01*
X0094203Y0171515D01*
X0094240Y0171495D01*
X0094279Y0171479D01*
X0094319Y0171466D01*
X0094360Y0171457D01*
X0094402Y0171452D01*
X0094444Y0171450D01*
X0095250Y0171450D01*
X0096860Y0173384D02*
X0096943Y0173381D01*
X0097026Y0173374D01*
X0097108Y0173363D01*
X0097190Y0173349D01*
X0097271Y0173331D01*
X0097352Y0173309D01*
X0097431Y0173284D01*
X0097509Y0173255D01*
X0097585Y0173223D01*
X0096860Y0173384D02*
X0096820Y0173383D01*
X0096780Y0173377D01*
X0096741Y0173369D01*
X0096703Y0173356D01*
X0096667Y0173340D01*
X0096632Y0173320D01*
X0096599Y0173297D01*
X0096569Y0173271D01*
X0096541Y0173243D01*
X0096516Y0173212D01*
X0096494Y0173178D01*
X0096475Y0173143D01*
X0096460Y0173106D01*
X0096449Y0173067D01*
X0096441Y0173028D01*
X0096437Y0172988D01*
X0096436Y0172949D01*
X0096440Y0172909D01*
X0096447Y0172869D01*
X0096458Y0172831D01*
X0096473Y0172794D01*
X0096491Y0172758D01*
X0096513Y0172724D01*
X0096537Y0172693D01*
X0096565Y0172664D01*
X0096595Y0172638D01*
X0096628Y0172615D01*
X0096662Y0172595D01*
X0096699Y0172578D01*
X0097504Y0172256D01*
X0097541Y0172239D01*
X0097575Y0172219D01*
X0097608Y0172196D01*
X0097638Y0172170D01*
X0097666Y0172141D01*
X0097690Y0172110D01*
X0097712Y0172076D01*
X0097730Y0172040D01*
X0097745Y0172003D01*
X0097756Y0171965D01*
X0097763Y0171925D01*
X0097767Y0171885D01*
X0097766Y0171846D01*
X0097762Y0171806D01*
X0097754Y0171767D01*
X0097743Y0171728D01*
X0097728Y0171691D01*
X0097709Y0171656D01*
X0097687Y0171622D01*
X0097662Y0171591D01*
X0097634Y0171563D01*
X0097604Y0171537D01*
X0097571Y0171514D01*
X0097536Y0171494D01*
X0097500Y0171478D01*
X0097462Y0171465D01*
X0097423Y0171457D01*
X0097383Y0171451D01*
X0097343Y0171450D01*
X0098925Y0171450D02*
X0098925Y0173383D01*
X0098845Y0174189D02*
X0099006Y0174189D01*
X0099006Y0174350D01*
X0098845Y0174350D01*
X0098845Y0174189D01*
X0097343Y0171450D02*
X0097243Y0171454D01*
X0097142Y0171461D01*
X0097042Y0171471D01*
X0096943Y0171486D01*
X0096844Y0171504D01*
X0096746Y0171525D01*
X0096648Y0171550D01*
X0096552Y0171579D01*
X0096457Y0171611D01*
X0100089Y0171933D02*
X0100089Y0172900D01*
X0100091Y0172942D01*
X0100096Y0172984D01*
X0100105Y0173025D01*
X0100118Y0173065D01*
X0100134Y0173104D01*
X0100154Y0173142D01*
X0100176Y0173177D01*
X0100202Y0173210D01*
X0100230Y0173242D01*
X0100262Y0173270D01*
X0100295Y0173296D01*
X0100331Y0173318D01*
X0100368Y0173338D01*
X0100407Y0173354D01*
X0100447Y0173367D01*
X0100488Y0173376D01*
X0100530Y0173381D01*
X0100572Y0173383D01*
X0101378Y0173383D01*
X0101378Y0170967D01*
X0101378Y0171450D02*
X0100572Y0171450D01*
X0100530Y0171452D01*
X0100488Y0171457D01*
X0100447Y0171466D01*
X0100407Y0171479D01*
X0100368Y0171495D01*
X0100331Y0171515D01*
X0100295Y0171537D01*
X0100262Y0171563D01*
X0100230Y0171591D01*
X0100202Y0171623D01*
X0100176Y0171656D01*
X0100154Y0171692D01*
X0100134Y0171729D01*
X0100118Y0171768D01*
X0100105Y0171808D01*
X0100096Y0171849D01*
X0100091Y0171891D01*
X0100089Y0171933D01*
X0101377Y0170967D02*
X0101375Y0170925D01*
X0101370Y0170883D01*
X0101361Y0170842D01*
X0101348Y0170802D01*
X0101332Y0170763D01*
X0101312Y0170726D01*
X0101290Y0170690D01*
X0101264Y0170657D01*
X0101236Y0170625D01*
X0101204Y0170597D01*
X0101171Y0170571D01*
X0101136Y0170549D01*
X0101098Y0170529D01*
X0101059Y0170513D01*
X0101019Y0170500D01*
X0100978Y0170491D01*
X0100936Y0170486D01*
X0100894Y0170484D01*
X0100894Y0170483D02*
X0100250Y0170483D01*
X0102793Y0171450D02*
X0102793Y0173383D01*
X0103598Y0173383D01*
X0103640Y0173381D01*
X0103682Y0173376D01*
X0103723Y0173367D01*
X0103763Y0173354D01*
X0103802Y0173338D01*
X0103840Y0173318D01*
X0103875Y0173296D01*
X0103908Y0173270D01*
X0103940Y0173242D01*
X0103968Y0173210D01*
X0103994Y0173177D01*
X0104016Y0173142D01*
X0104036Y0173104D01*
X0104052Y0173065D01*
X0104065Y0173025D01*
X0104074Y0172984D01*
X0104079Y0172942D01*
X0104081Y0172900D01*
X0104082Y0172900D02*
X0104082Y0171450D01*
D11*
X0060069Y0085119D02*
X0060069Y0057324D01*
X0012431Y0057324D01*
X0012431Y0085119D01*
X0060069Y0085119D01*
X0066250Y0077300D02*
X0066250Y0076300D01*
X0069250Y0076300D01*
X0069250Y0056300D01*
X0066250Y0056300D01*
X0066250Y0055300D01*
X0066250Y0056300D02*
X0063250Y0056300D01*
X0063250Y0076300D01*
X0066250Y0076300D01*
X0063750Y0073800D02*
X0068750Y0073800D01*
X0103356Y0034863D02*
X0103356Y0017737D01*
X0149144Y0017737D01*
X0149144Y0034863D01*
X0103356Y0034863D01*
D12*
X0008874Y0036553D02*
X0006974Y0035920D01*
X0006974Y0037187D02*
X0008874Y0036553D01*
X0008346Y0038186D02*
X0007502Y0038186D01*
X0007502Y0038185D02*
X0007457Y0038187D01*
X0007413Y0038193D01*
X0007369Y0038202D01*
X0007326Y0038215D01*
X0007285Y0038232D01*
X0007244Y0038252D01*
X0007206Y0038276D01*
X0007170Y0038302D01*
X0007137Y0038332D01*
X0007106Y0038364D01*
X0007077Y0038399D01*
X0007052Y0038436D01*
X0007031Y0038475D01*
X0007012Y0038516D01*
X0006997Y0038558D01*
X0006986Y0038602D01*
X0006978Y0038646D01*
X0006974Y0038691D01*
X0006974Y0038735D01*
X0006978Y0038780D01*
X0006986Y0038824D01*
X0006997Y0038868D01*
X0007012Y0038910D01*
X0007031Y0038951D01*
X0007052Y0038990D01*
X0007077Y0039027D01*
X0007106Y0039062D01*
X0007137Y0039094D01*
X0007170Y0039124D01*
X0007206Y0039150D01*
X0007244Y0039174D01*
X0007285Y0039194D01*
X0007326Y0039211D01*
X0007369Y0039224D01*
X0007413Y0039233D01*
X0007457Y0039239D01*
X0007502Y0039241D01*
X0008346Y0039241D01*
X0008391Y0039239D01*
X0008435Y0039233D01*
X0008479Y0039224D01*
X0008522Y0039211D01*
X0008563Y0039194D01*
X0008604Y0039174D01*
X0008642Y0039150D01*
X0008678Y0039124D01*
X0008711Y0039094D01*
X0008742Y0039062D01*
X0008771Y0039027D01*
X0008796Y0038990D01*
X0008817Y0038951D01*
X0008836Y0038910D01*
X0008851Y0038868D01*
X0008862Y0038824D01*
X0008870Y0038780D01*
X0008874Y0038735D01*
X0008874Y0038691D01*
X0008870Y0038646D01*
X0008862Y0038602D01*
X0008851Y0038558D01*
X0008836Y0038516D01*
X0008817Y0038475D01*
X0008796Y0038436D01*
X0008771Y0038399D01*
X0008742Y0038364D01*
X0008711Y0038332D01*
X0008678Y0038302D01*
X0008642Y0038276D01*
X0008604Y0038252D01*
X0008563Y0038232D01*
X0008522Y0038215D01*
X0008479Y0038202D01*
X0008435Y0038193D01*
X0008391Y0038187D01*
X0008346Y0038185D01*
X0008346Y0040418D02*
X0006974Y0040418D01*
X0006974Y0041473D02*
X0008346Y0041473D01*
X0008391Y0041471D01*
X0008435Y0041465D01*
X0008479Y0041456D01*
X0008522Y0041443D01*
X0008563Y0041426D01*
X0008604Y0041406D01*
X0008642Y0041382D01*
X0008678Y0041356D01*
X0008711Y0041326D01*
X0008742Y0041294D01*
X0008771Y0041259D01*
X0008796Y0041222D01*
X0008817Y0041183D01*
X0008836Y0041142D01*
X0008851Y0041100D01*
X0008862Y0041056D01*
X0008870Y0041012D01*
X0008874Y0040967D01*
X0008874Y0040923D01*
X0008870Y0040878D01*
X0008862Y0040834D01*
X0008851Y0040790D01*
X0008836Y0040748D01*
X0008817Y0040707D01*
X0008796Y0040668D01*
X0008771Y0040631D01*
X0008742Y0040596D01*
X0008711Y0040564D01*
X0008678Y0040534D01*
X0008642Y0040508D01*
X0008604Y0040484D01*
X0008563Y0040464D01*
X0008522Y0040447D01*
X0008479Y0040434D01*
X0008435Y0040425D01*
X0008391Y0040419D01*
X0008346Y0040417D01*
X0006974Y0042506D02*
X0006974Y0043561D01*
X0006974Y0043033D02*
X0008874Y0043033D01*
X0039500Y0035065D02*
X0044000Y0035065D01*
X0044000Y0033815D02*
X0044000Y0036315D01*
X0044000Y0032050D02*
X0044000Y0031050D01*
X0043998Y0030990D01*
X0043993Y0030929D01*
X0043984Y0030870D01*
X0043971Y0030811D01*
X0043955Y0030752D01*
X0043935Y0030695D01*
X0043912Y0030640D01*
X0043885Y0030585D01*
X0043856Y0030533D01*
X0043823Y0030482D01*
X0043787Y0030433D01*
X0043749Y0030387D01*
X0043707Y0030343D01*
X0043663Y0030301D01*
X0043617Y0030263D01*
X0043568Y0030227D01*
X0043517Y0030194D01*
X0043465Y0030165D01*
X0043410Y0030138D01*
X0043355Y0030115D01*
X0043298Y0030095D01*
X0043239Y0030079D01*
X0043180Y0030066D01*
X0043121Y0030057D01*
X0043060Y0030052D01*
X0043000Y0030050D01*
X0040500Y0030050D01*
X0040440Y0030052D01*
X0040379Y0030057D01*
X0040320Y0030066D01*
X0040261Y0030079D01*
X0040202Y0030095D01*
X0040145Y0030115D01*
X0040090Y0030138D01*
X0040035Y0030165D01*
X0039983Y0030194D01*
X0039932Y0030227D01*
X0039883Y0030263D01*
X0039837Y0030301D01*
X0039793Y0030343D01*
X0039751Y0030387D01*
X0039713Y0030433D01*
X0039677Y0030482D01*
X0039644Y0030533D01*
X0039615Y0030585D01*
X0039588Y0030640D01*
X0039565Y0030695D01*
X0039545Y0030752D01*
X0039529Y0030811D01*
X0039516Y0030870D01*
X0039507Y0030929D01*
X0039502Y0030990D01*
X0039500Y0031050D01*
X0039500Y0032050D01*
X0040500Y0033815D02*
X0039500Y0035065D01*
X0065000Y0058550D02*
X0065000Y0059800D01*
X0065000Y0058550D02*
X0069500Y0058550D01*
X0069500Y0059800D01*
X0069498Y0059868D01*
X0069493Y0059935D01*
X0069484Y0060002D01*
X0069471Y0060069D01*
X0069454Y0060134D01*
X0069435Y0060199D01*
X0069411Y0060263D01*
X0069384Y0060325D01*
X0069354Y0060386D01*
X0069321Y0060444D01*
X0069285Y0060501D01*
X0069245Y0060556D01*
X0069203Y0060609D01*
X0069157Y0060660D01*
X0069110Y0060707D01*
X0069059Y0060753D01*
X0069006Y0060795D01*
X0068951Y0060835D01*
X0068894Y0060871D01*
X0068836Y0060904D01*
X0068775Y0060934D01*
X0068713Y0060961D01*
X0068649Y0060985D01*
X0068584Y0061004D01*
X0068519Y0061021D01*
X0068452Y0061034D01*
X0068385Y0061043D01*
X0068318Y0061048D01*
X0068250Y0061050D01*
X0066250Y0061050D01*
X0066182Y0061048D01*
X0066115Y0061043D01*
X0066048Y0061034D01*
X0065981Y0061021D01*
X0065916Y0061004D01*
X0065851Y0060985D01*
X0065787Y0060961D01*
X0065725Y0060934D01*
X0065664Y0060904D01*
X0065606Y0060871D01*
X0065549Y0060835D01*
X0065494Y0060795D01*
X0065441Y0060753D01*
X0065390Y0060707D01*
X0065343Y0060660D01*
X0065297Y0060609D01*
X0065255Y0060556D01*
X0065215Y0060501D01*
X0065179Y0060444D01*
X0065146Y0060386D01*
X0065116Y0060325D01*
X0065089Y0060263D01*
X0065065Y0060199D01*
X0065046Y0060134D01*
X0065029Y0060069D01*
X0065016Y0060002D01*
X0065007Y0059935D01*
X0065002Y0059868D01*
X0065000Y0059800D01*
X0066000Y0063200D02*
X0065000Y0064450D01*
X0069500Y0064450D01*
X0069500Y0063200D02*
X0069500Y0065700D01*
X0086900Y0043300D02*
X0086900Y0041300D01*
X0086902Y0041231D01*
X0086908Y0041162D01*
X0086917Y0041094D01*
X0086930Y0041027D01*
X0086947Y0040960D01*
X0086968Y0040894D01*
X0086992Y0040830D01*
X0087020Y0040767D01*
X0087051Y0040705D01*
X0087085Y0040645D01*
X0087123Y0040588D01*
X0087164Y0040532D01*
X0087207Y0040479D01*
X0087254Y0040428D01*
X0087303Y0040380D01*
X0087355Y0040335D01*
X0087410Y0040293D01*
X0087466Y0040254D01*
X0087525Y0040217D01*
X0087586Y0040185D01*
X0087648Y0040155D01*
X0087712Y0040129D01*
X0087777Y0040107D01*
X0087843Y0040088D01*
X0087910Y0040073D01*
X0087978Y0040062D01*
X0088047Y0040054D01*
X0088116Y0040050D01*
X0088184Y0040050D01*
X0088253Y0040054D01*
X0088322Y0040062D01*
X0088390Y0040073D01*
X0088457Y0040088D01*
X0088523Y0040107D01*
X0088588Y0040129D01*
X0088652Y0040155D01*
X0088714Y0040185D01*
X0088775Y0040217D01*
X0088834Y0040254D01*
X0088890Y0040293D01*
X0088945Y0040335D01*
X0088997Y0040380D01*
X0089046Y0040428D01*
X0089093Y0040479D01*
X0089136Y0040532D01*
X0089177Y0040588D01*
X0089215Y0040645D01*
X0089249Y0040705D01*
X0089280Y0040767D01*
X0089308Y0040830D01*
X0089332Y0040894D01*
X0089353Y0040960D01*
X0089370Y0041027D01*
X0089383Y0041094D01*
X0089392Y0041162D01*
X0089398Y0041231D01*
X0089400Y0041300D01*
X0089400Y0043300D01*
X0089398Y0043369D01*
X0089392Y0043438D01*
X0089383Y0043506D01*
X0089370Y0043573D01*
X0089353Y0043640D01*
X0089332Y0043706D01*
X0089308Y0043770D01*
X0089280Y0043833D01*
X0089249Y0043895D01*
X0089215Y0043955D01*
X0089177Y0044012D01*
X0089136Y0044068D01*
X0089093Y0044121D01*
X0089046Y0044172D01*
X0088997Y0044220D01*
X0088945Y0044265D01*
X0088890Y0044307D01*
X0088834Y0044346D01*
X0088775Y0044383D01*
X0088714Y0044415D01*
X0088652Y0044445D01*
X0088588Y0044471D01*
X0088523Y0044493D01*
X0088457Y0044512D01*
X0088390Y0044527D01*
X0088322Y0044538D01*
X0088253Y0044546D01*
X0088184Y0044550D01*
X0088116Y0044550D01*
X0088047Y0044546D01*
X0087978Y0044538D01*
X0087910Y0044527D01*
X0087843Y0044512D01*
X0087777Y0044493D01*
X0087712Y0044471D01*
X0087648Y0044445D01*
X0087586Y0044415D01*
X0087525Y0044383D01*
X0087466Y0044346D01*
X0087410Y0044307D01*
X0087355Y0044265D01*
X0087303Y0044220D01*
X0087254Y0044172D01*
X0087207Y0044121D01*
X0087164Y0044068D01*
X0087123Y0044012D01*
X0087085Y0043955D01*
X0087051Y0043895D01*
X0087020Y0043833D01*
X0086992Y0043770D01*
X0086968Y0043706D01*
X0086947Y0043640D01*
X0086930Y0043573D01*
X0086917Y0043506D01*
X0086908Y0043438D01*
X0086902Y0043369D01*
X0086900Y0043300D01*
X0091550Y0044550D02*
X0091550Y0040050D01*
X0094050Y0040050D02*
X0094050Y0044550D01*
X0091550Y0044550D02*
X0094050Y0040050D01*
X0096250Y0041800D02*
X0099250Y0041800D01*
X0101150Y0040050D02*
X0102150Y0040050D01*
X0101650Y0040050D02*
X0101650Y0044550D01*
X0101150Y0044550D02*
X0102150Y0044550D01*
X0104150Y0044550D02*
X0106650Y0040050D01*
X0106650Y0044550D01*
X0108500Y0044550D02*
X0111000Y0044550D01*
X0109750Y0044550D02*
X0109750Y0040050D01*
X0104150Y0040050D02*
X0104150Y0044550D01*
X0112602Y0032950D02*
X0113235Y0031050D01*
X0113868Y0032950D01*
X0114867Y0032422D02*
X0114867Y0031578D01*
X0114869Y0031533D01*
X0114875Y0031489D01*
X0114884Y0031445D01*
X0114897Y0031402D01*
X0114914Y0031361D01*
X0114934Y0031320D01*
X0114958Y0031282D01*
X0114984Y0031246D01*
X0115014Y0031213D01*
X0115046Y0031182D01*
X0115081Y0031153D01*
X0115118Y0031128D01*
X0115157Y0031107D01*
X0115198Y0031088D01*
X0115240Y0031073D01*
X0115284Y0031062D01*
X0115328Y0031054D01*
X0115373Y0031050D01*
X0115417Y0031050D01*
X0115462Y0031054D01*
X0115506Y0031062D01*
X0115550Y0031073D01*
X0115592Y0031088D01*
X0115633Y0031107D01*
X0115672Y0031128D01*
X0115709Y0031153D01*
X0115744Y0031182D01*
X0115776Y0031213D01*
X0115806Y0031246D01*
X0115832Y0031282D01*
X0115856Y0031320D01*
X0115876Y0031361D01*
X0115893Y0031402D01*
X0115906Y0031445D01*
X0115915Y0031489D01*
X0115921Y0031533D01*
X0115923Y0031578D01*
X0115923Y0032422D01*
X0115921Y0032467D01*
X0115915Y0032511D01*
X0115906Y0032555D01*
X0115893Y0032598D01*
X0115876Y0032639D01*
X0115856Y0032680D01*
X0115832Y0032718D01*
X0115806Y0032754D01*
X0115776Y0032787D01*
X0115744Y0032818D01*
X0115709Y0032847D01*
X0115672Y0032872D01*
X0115633Y0032893D01*
X0115592Y0032912D01*
X0115550Y0032927D01*
X0115506Y0032938D01*
X0115462Y0032946D01*
X0115417Y0032950D01*
X0115373Y0032950D01*
X0115328Y0032946D01*
X0115284Y0032938D01*
X0115240Y0032927D01*
X0115198Y0032912D01*
X0115157Y0032893D01*
X0115118Y0032872D01*
X0115081Y0032847D01*
X0115046Y0032818D01*
X0115014Y0032787D01*
X0114984Y0032754D01*
X0114958Y0032718D01*
X0114934Y0032680D01*
X0114914Y0032639D01*
X0114897Y0032598D01*
X0114884Y0032555D01*
X0114875Y0032511D01*
X0114869Y0032467D01*
X0114867Y0032422D01*
X0117107Y0032950D02*
X0117107Y0031050D01*
X0117951Y0031050D01*
X0119283Y0031050D02*
X0119283Y0032950D01*
X0118755Y0032950D02*
X0119811Y0032950D01*
X0121299Y0032950D02*
X0121932Y0031050D01*
X0121774Y0031525D02*
X0120824Y0031525D01*
X0120666Y0031050D02*
X0121299Y0032950D01*
X0123003Y0032528D02*
X0123003Y0031472D01*
X0123005Y0031433D01*
X0123010Y0031394D01*
X0123019Y0031357D01*
X0123031Y0031320D01*
X0123047Y0031284D01*
X0123066Y0031250D01*
X0123088Y0031218D01*
X0123113Y0031188D01*
X0123141Y0031160D01*
X0123171Y0031135D01*
X0123203Y0031113D01*
X0123237Y0031094D01*
X0123273Y0031078D01*
X0123310Y0031066D01*
X0123347Y0031057D01*
X0123386Y0031052D01*
X0123425Y0031050D01*
X0124059Y0031050D01*
X0124059Y0032106D01*
X0123742Y0032106D01*
X0123003Y0032528D02*
X0123005Y0032567D01*
X0123010Y0032606D01*
X0123019Y0032643D01*
X0123031Y0032680D01*
X0123047Y0032716D01*
X0123066Y0032750D01*
X0123088Y0032782D01*
X0123113Y0032812D01*
X0123141Y0032840D01*
X0123171Y0032865D01*
X0123203Y0032887D01*
X0123237Y0032906D01*
X0123273Y0032921D01*
X0123310Y0032934D01*
X0123347Y0032943D01*
X0123386Y0032948D01*
X0123425Y0032950D01*
X0124059Y0032950D01*
X0125315Y0032950D02*
X0126159Y0032950D01*
X0125315Y0032950D02*
X0125315Y0031050D01*
X0126159Y0031050D01*
X0125948Y0032106D02*
X0125315Y0032106D01*
X0127145Y0031789D02*
X0128412Y0031789D01*
X0129747Y0032158D02*
X0130327Y0031842D01*
X0130116Y0031050D02*
X0130057Y0031052D01*
X0129999Y0031058D01*
X0129941Y0031067D01*
X0129884Y0031081D01*
X0129828Y0031098D01*
X0129773Y0031119D01*
X0129720Y0031143D01*
X0129668Y0031171D01*
X0129618Y0031202D01*
X0129571Y0031236D01*
X0129525Y0031274D01*
X0129483Y0031314D01*
X0130328Y0031842D02*
X0130362Y0031819D01*
X0130393Y0031794D01*
X0130422Y0031766D01*
X0130449Y0031735D01*
X0130472Y0031702D01*
X0130492Y0031667D01*
X0130509Y0031630D01*
X0130522Y0031592D01*
X0130531Y0031553D01*
X0130537Y0031512D01*
X0130539Y0031472D01*
X0130538Y0031472D02*
X0130536Y0031433D01*
X0130531Y0031394D01*
X0130522Y0031357D01*
X0130510Y0031320D01*
X0130494Y0031284D01*
X0130475Y0031250D01*
X0130453Y0031218D01*
X0130428Y0031188D01*
X0130400Y0031160D01*
X0130370Y0031135D01*
X0130338Y0031113D01*
X0130304Y0031094D01*
X0130268Y0031078D01*
X0130231Y0031066D01*
X0130194Y0031057D01*
X0130155Y0031052D01*
X0130116Y0031050D01*
X0130433Y0032792D02*
X0130391Y0032821D01*
X0130348Y0032847D01*
X0130303Y0032871D01*
X0130256Y0032892D01*
X0130208Y0032909D01*
X0130160Y0032924D01*
X0130110Y0032935D01*
X0130060Y0032943D01*
X0130009Y0032948D01*
X0129958Y0032950D01*
X0129919Y0032948D01*
X0129880Y0032943D01*
X0129843Y0032934D01*
X0129806Y0032922D01*
X0129770Y0032906D01*
X0129736Y0032887D01*
X0129704Y0032865D01*
X0129674Y0032840D01*
X0129646Y0032812D01*
X0129621Y0032782D01*
X0129599Y0032750D01*
X0129580Y0032716D01*
X0129564Y0032680D01*
X0129552Y0032643D01*
X0129543Y0032606D01*
X0129538Y0032567D01*
X0129536Y0032528D01*
X0129538Y0032488D01*
X0129544Y0032447D01*
X0129553Y0032408D01*
X0129566Y0032370D01*
X0129583Y0032333D01*
X0129603Y0032298D01*
X0129626Y0032265D01*
X0129653Y0032234D01*
X0129682Y0032206D01*
X0129713Y0032181D01*
X0129747Y0032158D01*
X0131651Y0032106D02*
X0132284Y0032106D01*
X0132495Y0032950D02*
X0131651Y0032950D01*
X0131651Y0031050D01*
X0132495Y0031050D01*
X0133523Y0031050D02*
X0133523Y0032950D01*
X0135395Y0032950D02*
X0135395Y0031050D01*
X0136239Y0031050D01*
X0137176Y0031472D02*
X0137176Y0032528D01*
X0137178Y0032567D01*
X0137183Y0032606D01*
X0137192Y0032643D01*
X0137204Y0032680D01*
X0137220Y0032716D01*
X0137239Y0032750D01*
X0137261Y0032782D01*
X0137286Y0032812D01*
X0137314Y0032840D01*
X0137344Y0032865D01*
X0137376Y0032887D01*
X0137410Y0032906D01*
X0137446Y0032921D01*
X0137483Y0032934D01*
X0137520Y0032943D01*
X0137559Y0032948D01*
X0137598Y0032950D01*
X0138020Y0032950D01*
X0138843Y0032950D02*
X0139898Y0032950D01*
X0139371Y0032950D02*
X0139371Y0031050D01*
X0138020Y0031050D02*
X0137598Y0031050D01*
X0137559Y0031052D01*
X0137520Y0031057D01*
X0137483Y0031066D01*
X0137446Y0031078D01*
X0137410Y0031094D01*
X0137376Y0031113D01*
X0137344Y0031135D01*
X0137314Y0031160D01*
X0137286Y0031188D01*
X0137261Y0031218D01*
X0137239Y0031250D01*
X0137220Y0031284D01*
X0137204Y0031320D01*
X0137192Y0031357D01*
X0137183Y0031394D01*
X0137178Y0031433D01*
X0137176Y0031472D01*
X0136028Y0032106D02*
X0135395Y0032106D01*
X0135395Y0032950D02*
X0136239Y0032950D01*
X0134367Y0031050D02*
X0133523Y0031050D01*
X0133560Y0040050D02*
X0133560Y0044550D01*
X0135560Y0044550D01*
X0137460Y0044550D02*
X0139460Y0044550D01*
X0139460Y0042550D02*
X0137460Y0042550D01*
X0135560Y0042550D02*
X0133560Y0042550D01*
X0131400Y0043300D02*
X0131400Y0041300D01*
X0131398Y0041231D01*
X0131392Y0041162D01*
X0131383Y0041094D01*
X0131370Y0041027D01*
X0131353Y0040960D01*
X0131332Y0040894D01*
X0131308Y0040830D01*
X0131280Y0040767D01*
X0131249Y0040705D01*
X0131215Y0040645D01*
X0131177Y0040588D01*
X0131136Y0040532D01*
X0131093Y0040479D01*
X0131046Y0040428D01*
X0130997Y0040380D01*
X0130945Y0040335D01*
X0130890Y0040293D01*
X0130834Y0040254D01*
X0130775Y0040217D01*
X0130714Y0040185D01*
X0130652Y0040155D01*
X0130588Y0040129D01*
X0130523Y0040107D01*
X0130457Y0040088D01*
X0130390Y0040073D01*
X0130322Y0040062D01*
X0130253Y0040054D01*
X0130184Y0040050D01*
X0130116Y0040050D01*
X0130047Y0040054D01*
X0129978Y0040062D01*
X0129910Y0040073D01*
X0129843Y0040088D01*
X0129777Y0040107D01*
X0129712Y0040129D01*
X0129648Y0040155D01*
X0129586Y0040185D01*
X0129525Y0040217D01*
X0129466Y0040254D01*
X0129410Y0040293D01*
X0129355Y0040335D01*
X0129303Y0040380D01*
X0129254Y0040428D01*
X0129207Y0040479D01*
X0129164Y0040532D01*
X0129123Y0040588D01*
X0129085Y0040645D01*
X0129051Y0040705D01*
X0129020Y0040767D01*
X0128992Y0040830D01*
X0128968Y0040894D01*
X0128947Y0040960D01*
X0128930Y0041027D01*
X0128917Y0041094D01*
X0128908Y0041162D01*
X0128902Y0041231D01*
X0128900Y0041300D01*
X0128900Y0043300D01*
X0128902Y0043369D01*
X0128908Y0043438D01*
X0128917Y0043506D01*
X0128930Y0043573D01*
X0128947Y0043640D01*
X0128968Y0043706D01*
X0128992Y0043770D01*
X0129020Y0043833D01*
X0129051Y0043895D01*
X0129085Y0043955D01*
X0129123Y0044012D01*
X0129164Y0044068D01*
X0129207Y0044121D01*
X0129254Y0044172D01*
X0129303Y0044220D01*
X0129355Y0044265D01*
X0129410Y0044307D01*
X0129466Y0044346D01*
X0129525Y0044383D01*
X0129586Y0044415D01*
X0129648Y0044445D01*
X0129712Y0044471D01*
X0129777Y0044493D01*
X0129843Y0044512D01*
X0129910Y0044527D01*
X0129978Y0044538D01*
X0130047Y0044546D01*
X0130116Y0044550D01*
X0130184Y0044550D01*
X0130253Y0044546D01*
X0130322Y0044538D01*
X0130390Y0044527D01*
X0130457Y0044512D01*
X0130523Y0044493D01*
X0130588Y0044471D01*
X0130652Y0044445D01*
X0130714Y0044415D01*
X0130775Y0044383D01*
X0130834Y0044346D01*
X0130890Y0044307D01*
X0130945Y0044265D01*
X0130997Y0044220D01*
X0131046Y0044172D01*
X0131093Y0044121D01*
X0131136Y0044068D01*
X0131177Y0044012D01*
X0131215Y0043955D01*
X0131249Y0043895D01*
X0131280Y0043833D01*
X0131308Y0043770D01*
X0131332Y0043706D01*
X0131353Y0043640D01*
X0131370Y0043573D01*
X0131383Y0043506D01*
X0131392Y0043438D01*
X0131398Y0043369D01*
X0131400Y0043300D01*
X0137460Y0044550D02*
X0137460Y0040050D01*
X0141250Y0041800D02*
X0144250Y0041800D01*
X0146150Y0040050D02*
X0147150Y0040050D01*
X0146650Y0040050D02*
X0146650Y0044550D01*
X0146150Y0044550D02*
X0147150Y0044550D01*
X0149150Y0044550D02*
X0151650Y0040050D01*
X0151650Y0044550D01*
X0153500Y0044550D02*
X0156000Y0044550D01*
X0154750Y0044550D02*
X0154750Y0040050D01*
X0149150Y0040050D02*
X0149150Y0044550D01*
X0168854Y0055150D02*
X0169699Y0055150D01*
X0168854Y0055150D02*
X0168854Y0057050D01*
X0170726Y0057050D02*
X0170726Y0055150D01*
X0171570Y0055150D01*
X0172590Y0055150D02*
X0172590Y0057050D01*
X0173118Y0057050D01*
X0173162Y0057048D01*
X0173205Y0057043D01*
X0173248Y0057034D01*
X0173289Y0057021D01*
X0173330Y0057006D01*
X0173369Y0056986D01*
X0173407Y0056964D01*
X0173442Y0056939D01*
X0173476Y0056910D01*
X0173506Y0056880D01*
X0173535Y0056846D01*
X0173560Y0056811D01*
X0173582Y0056773D01*
X0173602Y0056734D01*
X0173617Y0056693D01*
X0173630Y0056652D01*
X0173639Y0056609D01*
X0173644Y0056566D01*
X0173646Y0056522D01*
X0173646Y0055678D01*
X0173644Y0055634D01*
X0173639Y0055591D01*
X0173630Y0055548D01*
X0173617Y0055507D01*
X0173602Y0055466D01*
X0173582Y0055427D01*
X0173560Y0055389D01*
X0173535Y0055354D01*
X0173506Y0055320D01*
X0173476Y0055290D01*
X0173442Y0055261D01*
X0173407Y0055236D01*
X0173369Y0055214D01*
X0173330Y0055194D01*
X0173289Y0055179D01*
X0173248Y0055166D01*
X0173205Y0055157D01*
X0173162Y0055152D01*
X0173118Y0055150D01*
X0172590Y0055150D01*
X0171359Y0056206D02*
X0170726Y0056206D01*
X0170726Y0057050D02*
X0171570Y0057050D01*
X0188665Y0045420D02*
X0190565Y0045420D01*
X0188665Y0044365D01*
X0190565Y0044365D01*
X0190565Y0043303D02*
X0190565Y0042881D01*
X0190565Y0043092D02*
X0188665Y0043092D01*
X0188665Y0042881D02*
X0188665Y0043303D01*
X0188665Y0041998D02*
X0190565Y0041364D01*
X0188665Y0040731D01*
X0191250Y0090300D02*
X0191250Y0162300D01*
X0001250Y0162300D01*
X0001250Y0090300D01*
X0191250Y0090300D01*
X0094498Y0019800D02*
X0078002Y0019800D01*
X0080722Y0025800D02*
X0081778Y0025800D01*
X0076748Y0021828D02*
X0076852Y0021613D01*
X0076961Y0021400D01*
X0077075Y0021190D01*
X0077194Y0020983D01*
X0077317Y0020778D01*
X0077445Y0020576D01*
X0077578Y0020377D01*
X0077715Y0020182D01*
X0077856Y0019989D01*
X0078002Y0019800D01*
X0076750Y0030772D02*
X0076862Y0031002D01*
X0076979Y0031229D01*
X0077101Y0031453D01*
X0077229Y0031674D01*
X0077363Y0031891D01*
X0077501Y0032106D01*
X0077645Y0032317D01*
X0077794Y0032524D01*
X0077948Y0032728D01*
X0078106Y0032928D01*
X0078270Y0033124D01*
X0078438Y0033316D01*
X0078611Y0033504D01*
X0078789Y0033688D01*
X0078970Y0033867D01*
X0079157Y0034042D01*
X0079347Y0034212D01*
X0079541Y0034377D01*
X0079740Y0034538D01*
X0079942Y0034694D01*
X0080148Y0034845D01*
X0080358Y0034991D01*
X0080571Y0035131D01*
X0080787Y0035267D01*
X0081007Y0035397D01*
X0081230Y0035522D01*
X0081455Y0035641D01*
X0081684Y0035755D01*
X0081915Y0035863D01*
X0082149Y0035966D01*
X0082385Y0036063D01*
X0082624Y0036154D01*
X0082864Y0036239D01*
X0083107Y0036319D01*
X0083352Y0036392D01*
X0083598Y0036460D01*
X0083846Y0036521D01*
X0084095Y0036576D01*
X0084345Y0036626D01*
X0084597Y0036669D01*
X0084850Y0036706D01*
X0085103Y0036737D01*
X0085357Y0036762D01*
X0085612Y0036781D01*
X0085867Y0036793D01*
X0086122Y0036799D01*
X0086378Y0036799D01*
X0086633Y0036793D01*
X0086888Y0036781D01*
X0087143Y0036762D01*
X0087397Y0036737D01*
X0087650Y0036706D01*
X0087903Y0036669D01*
X0088155Y0036626D01*
X0088405Y0036576D01*
X0088654Y0036521D01*
X0088902Y0036460D01*
X0089148Y0036392D01*
X0089393Y0036319D01*
X0089636Y0036239D01*
X0089876Y0036154D01*
X0090115Y0036063D01*
X0090351Y0035966D01*
X0090585Y0035863D01*
X0090816Y0035755D01*
X0091045Y0035641D01*
X0091270Y0035522D01*
X0091493Y0035397D01*
X0091713Y0035267D01*
X0091929Y0035131D01*
X0092142Y0034991D01*
X0092352Y0034845D01*
X0092558Y0034694D01*
X0092760Y0034538D01*
X0092959Y0034377D01*
X0093153Y0034212D01*
X0093343Y0034042D01*
X0093530Y0033867D01*
X0093711Y0033688D01*
X0093889Y0033504D01*
X0094062Y0033316D01*
X0094230Y0033124D01*
X0094394Y0032928D01*
X0094552Y0032728D01*
X0094706Y0032524D01*
X0094855Y0032317D01*
X0094999Y0032106D01*
X0095137Y0031891D01*
X0095271Y0031674D01*
X0095399Y0031453D01*
X0095521Y0031229D01*
X0095638Y0031002D01*
X0095750Y0030772D01*
X0091778Y0025800D02*
X0090722Y0025800D01*
X0095796Y0021922D02*
X0095689Y0021697D01*
X0095577Y0021474D01*
X0095460Y0021254D01*
X0095338Y0021037D01*
X0095210Y0020822D01*
X0095077Y0020611D01*
X0094940Y0020403D01*
X0094797Y0020199D01*
X0094650Y0019997D01*
X0094498Y0019800D01*
X0083200Y0038550D02*
X0080700Y0038550D01*
X0081950Y0038550D02*
X0081950Y0043050D01*
X0080700Y0042050D01*
X0079000Y0043050D02*
X0076500Y0043050D01*
X0077750Y0043050D02*
X0077750Y0038550D01*
D13*
X0061450Y0029029D02*
X0061450Y0027084D01*
X0061450Y0028056D02*
X0057950Y0028056D01*
X0058728Y0027084D01*
X0057950Y0024572D02*
X0057952Y0024633D01*
X0057958Y0024694D01*
X0057967Y0024754D01*
X0057981Y0024814D01*
X0057998Y0024872D01*
X0058018Y0024930D01*
X0058043Y0024986D01*
X0058070Y0025040D01*
X0058101Y0025093D01*
X0058136Y0025143D01*
X0058173Y0025192D01*
X0058213Y0025237D01*
X0058257Y0025281D01*
X0058302Y0025321D01*
X0058351Y0025358D01*
X0058401Y0025393D01*
X0058454Y0025424D01*
X0058508Y0025451D01*
X0058564Y0025476D01*
X0058622Y0025496D01*
X0058680Y0025513D01*
X0058740Y0025527D01*
X0058800Y0025536D01*
X0058861Y0025542D01*
X0058922Y0025544D01*
X0058983Y0025542D01*
X0059044Y0025536D01*
X0059104Y0025527D01*
X0059164Y0025513D01*
X0059222Y0025496D01*
X0059280Y0025476D01*
X0059336Y0025451D01*
X0059390Y0025424D01*
X0059443Y0025393D01*
X0059493Y0025358D01*
X0059542Y0025321D01*
X0059587Y0025281D01*
X0059631Y0025237D01*
X0059671Y0025192D01*
X0059708Y0025143D01*
X0059743Y0025093D01*
X0059774Y0025040D01*
X0059801Y0024986D01*
X0059826Y0024930D01*
X0059846Y0024872D01*
X0059863Y0024814D01*
X0059877Y0024754D01*
X0059886Y0024694D01*
X0059892Y0024633D01*
X0059894Y0024572D01*
X0059894Y0023600D01*
X0059894Y0024767D02*
X0061450Y0025544D01*
X0061450Y0023600D02*
X0057950Y0023600D01*
X0057950Y0024572D01*
X0049499Y0069000D02*
X0049499Y0071428D01*
X0051032Y0073600D01*
X0049499Y0071428D02*
X0047965Y0073600D01*
X0044999Y0073600D02*
X0046532Y0069000D01*
X0046149Y0070150D02*
X0043849Y0070150D01*
X0043465Y0069000D02*
X0044999Y0073600D01*
X0039980Y0073600D02*
X0039980Y0069000D01*
X0042024Y0069000D01*
X0038124Y0069000D02*
X0036080Y0069000D01*
X0036080Y0073600D01*
X0038124Y0073600D01*
X0037613Y0071556D02*
X0036080Y0071556D01*
X0032983Y0071044D02*
X0034006Y0069000D01*
X0032728Y0071044D02*
X0031450Y0071044D01*
X0032728Y0071044D02*
X0032798Y0071046D01*
X0032869Y0071052D01*
X0032938Y0071061D01*
X0033007Y0071075D01*
X0033076Y0071092D01*
X0033143Y0071113D01*
X0033209Y0071138D01*
X0033273Y0071166D01*
X0033336Y0071198D01*
X0033397Y0071233D01*
X0033456Y0071272D01*
X0033513Y0071313D01*
X0033567Y0071358D01*
X0033619Y0071406D01*
X0033668Y0071456D01*
X0033715Y0071510D01*
X0033758Y0071565D01*
X0033798Y0071623D01*
X0033835Y0071683D01*
X0033868Y0071745D01*
X0033898Y0071809D01*
X0033925Y0071874D01*
X0033948Y0071940D01*
X0033967Y0072008D01*
X0033982Y0072077D01*
X0033994Y0072146D01*
X0034002Y0072216D01*
X0034006Y0072287D01*
X0034006Y0072357D01*
X0034002Y0072428D01*
X0033994Y0072498D01*
X0033982Y0072567D01*
X0033967Y0072636D01*
X0033948Y0072704D01*
X0033925Y0072770D01*
X0033898Y0072835D01*
X0033868Y0072899D01*
X0033835Y0072961D01*
X0033798Y0073021D01*
X0033758Y0073079D01*
X0033715Y0073134D01*
X0033668Y0073188D01*
X0033619Y0073238D01*
X0033567Y0073286D01*
X0033513Y0073331D01*
X0033456Y0073372D01*
X0033397Y0073411D01*
X0033336Y0073446D01*
X0033273Y0073478D01*
X0033209Y0073506D01*
X0033143Y0073531D01*
X0033076Y0073552D01*
X0033007Y0073569D01*
X0032938Y0073583D01*
X0032869Y0073592D01*
X0032798Y0073598D01*
X0032728Y0073600D01*
X0031450Y0073600D01*
X0031450Y0069000D01*
X0178550Y0071100D02*
X0178550Y0074600D01*
X0179522Y0074600D01*
X0179583Y0074598D01*
X0179644Y0074592D01*
X0179704Y0074583D01*
X0179764Y0074569D01*
X0179822Y0074552D01*
X0179880Y0074532D01*
X0179936Y0074507D01*
X0179990Y0074480D01*
X0180043Y0074449D01*
X0180093Y0074414D01*
X0180142Y0074377D01*
X0180187Y0074337D01*
X0180231Y0074293D01*
X0180271Y0074248D01*
X0180308Y0074199D01*
X0180343Y0074149D01*
X0180374Y0074096D01*
X0180401Y0074042D01*
X0180426Y0073986D01*
X0180446Y0073928D01*
X0180463Y0073870D01*
X0180477Y0073810D01*
X0180486Y0073750D01*
X0180492Y0073689D01*
X0180494Y0073628D01*
X0180492Y0073567D01*
X0180486Y0073506D01*
X0180477Y0073446D01*
X0180463Y0073386D01*
X0180446Y0073328D01*
X0180426Y0073270D01*
X0180401Y0073214D01*
X0180374Y0073160D01*
X0180343Y0073107D01*
X0180308Y0073057D01*
X0180271Y0073008D01*
X0180231Y0072963D01*
X0180187Y0072919D01*
X0180142Y0072879D01*
X0180093Y0072842D01*
X0180043Y0072807D01*
X0179990Y0072776D01*
X0179936Y0072749D01*
X0179880Y0072724D01*
X0179822Y0072704D01*
X0179764Y0072687D01*
X0179704Y0072673D01*
X0179644Y0072664D01*
X0179583Y0072658D01*
X0179522Y0072656D01*
X0178550Y0072656D01*
X0179717Y0072656D02*
X0180494Y0071100D01*
X0182034Y0071100D02*
X0183979Y0071100D01*
X0182034Y0071100D02*
X0183687Y0073044D01*
X0183104Y0074600D02*
X0183040Y0074598D01*
X0182976Y0074593D01*
X0182912Y0074584D01*
X0182849Y0074571D01*
X0182787Y0074554D01*
X0182726Y0074535D01*
X0182666Y0074511D01*
X0182608Y0074485D01*
X0182551Y0074455D01*
X0182496Y0074421D01*
X0182443Y0074385D01*
X0182392Y0074346D01*
X0182344Y0074304D01*
X0182297Y0074259D01*
X0182254Y0074212D01*
X0182213Y0074162D01*
X0182176Y0074110D01*
X0182141Y0074056D01*
X0182109Y0074000D01*
X0182081Y0073942D01*
X0182056Y0073883D01*
X0182035Y0073822D01*
X0183687Y0073044D02*
X0183728Y0073086D01*
X0183767Y0073130D01*
X0183802Y0073177D01*
X0183835Y0073225D01*
X0183865Y0073276D01*
X0183891Y0073328D01*
X0183914Y0073382D01*
X0183934Y0073437D01*
X0183950Y0073493D01*
X0183963Y0073550D01*
X0183972Y0073608D01*
X0183977Y0073666D01*
X0183979Y0073725D01*
X0183977Y0073782D01*
X0183972Y0073839D01*
X0183962Y0073896D01*
X0183949Y0073951D01*
X0183933Y0074006D01*
X0183912Y0074060D01*
X0183889Y0074112D01*
X0183862Y0074163D01*
X0183832Y0074211D01*
X0183798Y0074258D01*
X0183762Y0074302D01*
X0183723Y0074344D01*
X0183681Y0074383D01*
X0183637Y0074419D01*
X0183590Y0074453D01*
X0183542Y0074483D01*
X0183491Y0074510D01*
X0183439Y0074533D01*
X0183385Y0074554D01*
X0183330Y0074570D01*
X0183275Y0074583D01*
X0183218Y0074593D01*
X0183161Y0074598D01*
X0183104Y0074600D01*
D14*
X0177250Y0077800D02*
X0176250Y0077800D01*
X0175750Y0078300D01*
X0166750Y0078300D01*
X0166250Y0077800D01*
X0165250Y0077800D01*
X0165190Y0077802D01*
X0165129Y0077807D01*
X0165070Y0077816D01*
X0165011Y0077829D01*
X0164952Y0077845D01*
X0164895Y0077865D01*
X0164840Y0077888D01*
X0164785Y0077915D01*
X0164733Y0077944D01*
X0164682Y0077977D01*
X0164633Y0078013D01*
X0164587Y0078051D01*
X0164543Y0078093D01*
X0164501Y0078137D01*
X0164463Y0078183D01*
X0164427Y0078232D01*
X0164394Y0078283D01*
X0164365Y0078335D01*
X0164338Y0078390D01*
X0164315Y0078445D01*
X0164295Y0078502D01*
X0164279Y0078561D01*
X0164266Y0078620D01*
X0164257Y0078679D01*
X0164252Y0078740D01*
X0164250Y0078800D01*
X0164250Y0083800D02*
X0164252Y0083860D01*
X0164257Y0083921D01*
X0164266Y0083980D01*
X0164279Y0084039D01*
X0164295Y0084098D01*
X0164315Y0084155D01*
X0164338Y0084210D01*
X0164365Y0084265D01*
X0164394Y0084317D01*
X0164427Y0084368D01*
X0164463Y0084417D01*
X0164501Y0084463D01*
X0164543Y0084507D01*
X0164587Y0084549D01*
X0164633Y0084587D01*
X0164682Y0084623D01*
X0164733Y0084656D01*
X0164785Y0084685D01*
X0164840Y0084712D01*
X0164895Y0084735D01*
X0164952Y0084755D01*
X0165011Y0084771D01*
X0165070Y0084784D01*
X0165129Y0084793D01*
X0165190Y0084798D01*
X0165250Y0084800D01*
X0166250Y0084800D01*
X0166750Y0084300D01*
X0175750Y0084300D01*
X0176250Y0084800D01*
X0177250Y0084800D01*
X0177310Y0084798D01*
X0177371Y0084793D01*
X0177430Y0084784D01*
X0177489Y0084771D01*
X0177548Y0084755D01*
X0177605Y0084735D01*
X0177660Y0084712D01*
X0177715Y0084685D01*
X0177767Y0084656D01*
X0177818Y0084623D01*
X0177867Y0084587D01*
X0177913Y0084549D01*
X0177957Y0084507D01*
X0177999Y0084463D01*
X0178037Y0084417D01*
X0178073Y0084368D01*
X0178106Y0084317D01*
X0178135Y0084265D01*
X0178162Y0084210D01*
X0178185Y0084155D01*
X0178205Y0084098D01*
X0178221Y0084039D01*
X0178234Y0083980D01*
X0178243Y0083921D01*
X0178248Y0083860D01*
X0178250Y0083800D01*
X0178250Y0078800D02*
X0178248Y0078740D01*
X0178243Y0078679D01*
X0178234Y0078620D01*
X0178221Y0078561D01*
X0178205Y0078502D01*
X0178185Y0078445D01*
X0178162Y0078390D01*
X0178135Y0078335D01*
X0178106Y0078283D01*
X0178073Y0078232D01*
X0178037Y0078183D01*
X0177999Y0078137D01*
X0177957Y0078093D01*
X0177913Y0078051D01*
X0177867Y0078013D01*
X0177818Y0077977D01*
X0177767Y0077944D01*
X0177715Y0077915D01*
X0177660Y0077888D01*
X0177605Y0077865D01*
X0177548Y0077845D01*
X0177489Y0077829D01*
X0177430Y0077816D01*
X0177371Y0077807D01*
X0177310Y0077802D01*
X0177250Y0077800D01*
X0156250Y0084300D02*
X0156250Y0048300D01*
X0156248Y0048213D01*
X0156242Y0048126D01*
X0156233Y0048039D01*
X0156220Y0047953D01*
X0156203Y0047867D01*
X0156182Y0047782D01*
X0156157Y0047699D01*
X0156129Y0047616D01*
X0156098Y0047535D01*
X0156063Y0047455D01*
X0156024Y0047377D01*
X0155982Y0047300D01*
X0155937Y0047225D01*
X0155888Y0047153D01*
X0155837Y0047082D01*
X0155782Y0047014D01*
X0155725Y0046949D01*
X0155664Y0046886D01*
X0155601Y0046825D01*
X0155536Y0046768D01*
X0155468Y0046713D01*
X0155397Y0046662D01*
X0155325Y0046613D01*
X0155250Y0046568D01*
X0155173Y0046526D01*
X0155095Y0046487D01*
X0155015Y0046452D01*
X0154934Y0046421D01*
X0154851Y0046393D01*
X0154768Y0046368D01*
X0154683Y0046347D01*
X0154597Y0046330D01*
X0154511Y0046317D01*
X0154424Y0046308D01*
X0154337Y0046302D01*
X0154250Y0046300D01*
X0118250Y0046300D01*
X0118163Y0046302D01*
X0118076Y0046308D01*
X0117989Y0046317D01*
X0117903Y0046330D01*
X0117817Y0046347D01*
X0117732Y0046368D01*
X0117649Y0046393D01*
X0117566Y0046421D01*
X0117485Y0046452D01*
X0117405Y0046487D01*
X0117327Y0046526D01*
X0117250Y0046568D01*
X0117175Y0046613D01*
X0117103Y0046662D01*
X0117032Y0046713D01*
X0116964Y0046768D01*
X0116899Y0046825D01*
X0116836Y0046886D01*
X0116775Y0046949D01*
X0116718Y0047014D01*
X0116663Y0047082D01*
X0116612Y0047153D01*
X0116563Y0047225D01*
X0116518Y0047300D01*
X0116476Y0047377D01*
X0116437Y0047455D01*
X0116402Y0047535D01*
X0116371Y0047616D01*
X0116343Y0047699D01*
X0116318Y0047782D01*
X0116297Y0047867D01*
X0116280Y0047953D01*
X0116267Y0048039D01*
X0116258Y0048126D01*
X0116252Y0048213D01*
X0116250Y0048300D01*
X0116250Y0080300D01*
X0122250Y0086300D01*
X0154250Y0086300D01*
X0154337Y0086298D01*
X0154424Y0086292D01*
X0154511Y0086283D01*
X0154597Y0086270D01*
X0154683Y0086253D01*
X0154768Y0086232D01*
X0154851Y0086207D01*
X0154934Y0086179D01*
X0155015Y0086148D01*
X0155095Y0086113D01*
X0155173Y0086074D01*
X0155250Y0086032D01*
X0155325Y0085987D01*
X0155397Y0085938D01*
X0155468Y0085887D01*
X0155536Y0085832D01*
X0155601Y0085775D01*
X0155664Y0085714D01*
X0155725Y0085651D01*
X0155782Y0085586D01*
X0155837Y0085518D01*
X0155888Y0085447D01*
X0155937Y0085375D01*
X0155982Y0085300D01*
X0156024Y0085223D01*
X0156063Y0085145D01*
X0156098Y0085065D01*
X0156129Y0084984D01*
X0156157Y0084901D01*
X0156182Y0084818D01*
X0156203Y0084733D01*
X0156220Y0084647D01*
X0156233Y0084561D01*
X0156242Y0084474D01*
X0156248Y0084387D01*
X0156250Y0084300D01*
X0146650Y0075300D02*
X0146650Y0074400D01*
X0146050Y0073900D01*
X0142650Y0074100D01*
X0144250Y0072400D01*
X0145450Y0071700D02*
X0145050Y0071000D01*
X0145750Y0069300D01*
X0146650Y0069100D01*
X0147450Y0069500D01*
X0147650Y0070000D01*
X0148250Y0069900D01*
X0149050Y0070300D01*
X0149350Y0070800D01*
X0148650Y0072500D01*
X0147650Y0072700D01*
X0147350Y0070800D02*
X0147650Y0070000D01*
X0148150Y0067500D02*
X0148150Y0065100D01*
X0146350Y0065700D02*
X0150050Y0065700D01*
X0148150Y0067500D01*
X0144850Y0066300D02*
X0143350Y0066300D01*
X0142750Y0069100D02*
X0144250Y0069700D01*
X0142350Y0072300D02*
X0141350Y0071300D01*
X0139250Y0072800D02*
X0139850Y0074100D01*
X0140450Y0075400D02*
X0141950Y0078700D01*
X0140750Y0078500D01*
X0139850Y0075600D02*
X0140950Y0075100D01*
X0144550Y0076400D02*
X0145650Y0076400D01*
X0146650Y0075300D01*
X0137450Y0077100D02*
X0137450Y0079500D01*
X0136850Y0080100D01*
X0135650Y0080100D01*
X0135050Y0079500D01*
X0135050Y0077100D01*
X0135650Y0076400D01*
X0136850Y0076400D01*
X0137450Y0077100D01*
X0136250Y0075000D02*
X0136250Y0073500D01*
X0133450Y0072900D02*
X0132850Y0074300D01*
X0131550Y0075100D02*
X0130750Y0076800D01*
X0132150Y0077400D01*
X0130750Y0076800D02*
X0129950Y0078500D01*
X0131850Y0079400D01*
X0127250Y0077000D02*
X0125550Y0075300D01*
X0126950Y0073900D01*
X0127850Y0074800D01*
X0126950Y0073900D02*
X0128350Y0072500D01*
X0129950Y0074000D01*
X0130150Y0072400D02*
X0131150Y0071400D01*
X0129650Y0069100D02*
X0128350Y0069600D01*
X0127350Y0070900D02*
X0126650Y0069300D01*
X0123050Y0070900D01*
X0123850Y0072600D01*
X0124550Y0072900D01*
X0127050Y0071700D01*
X0127350Y0070900D01*
X0127550Y0066300D02*
X0129050Y0066300D01*
X0126450Y0063700D02*
X0125750Y0063800D01*
X0125050Y0063500D01*
X0124650Y0062700D01*
X0125450Y0060900D01*
X0123850Y0060100D01*
X0123050Y0061900D01*
X0123250Y0062500D01*
X0124050Y0062900D01*
X0124650Y0062700D01*
X0125450Y0060900D02*
X0127250Y0061700D01*
X0126450Y0063700D01*
X0128150Y0063000D02*
X0129750Y0063700D01*
X0131150Y0061200D02*
X0130150Y0060200D01*
X0130250Y0058300D02*
X0129050Y0057100D01*
X0128250Y0056300D01*
X0126450Y0056500D01*
X0126250Y0058300D01*
X0127050Y0059100D01*
X0128250Y0060300D01*
X0127050Y0059100D02*
X0129050Y0057100D01*
X0130250Y0056100D02*
X0131450Y0056900D01*
X0133250Y0056700D01*
X0132050Y0055300D02*
X0130250Y0056100D01*
X0129650Y0055100D01*
X0129850Y0053900D01*
X0131050Y0053300D01*
X0132050Y0053500D01*
X0132450Y0054300D01*
X0132050Y0055300D01*
X0134950Y0055000D02*
X0135550Y0054400D01*
X0136750Y0054400D01*
X0137350Y0055000D01*
X0137350Y0055600D01*
X0136750Y0056200D01*
X0135550Y0056200D01*
X0134950Y0055600D01*
X0134950Y0055000D01*
X0135550Y0054400D02*
X0134950Y0053800D01*
X0134950Y0053200D01*
X0135550Y0052500D01*
X0136750Y0052500D01*
X0137350Y0053200D01*
X0137350Y0053800D01*
X0136750Y0054400D01*
X0136250Y0057700D02*
X0136250Y0059200D01*
X0138850Y0059600D02*
X0139450Y0058100D01*
X0140650Y0057300D02*
X0140850Y0056700D01*
X0140050Y0053700D01*
X0140250Y0053100D01*
X0142450Y0054100D01*
X0145050Y0055500D02*
X0145850Y0056900D01*
X0145450Y0058700D01*
X0144650Y0059500D01*
X0143650Y0059500D01*
X0142650Y0058500D01*
X0142650Y0057500D01*
X0143050Y0057100D01*
X0144050Y0057100D01*
X0145450Y0058700D01*
X0146550Y0060500D02*
X0145550Y0061000D01*
X0145250Y0061800D01*
X0145750Y0062800D01*
X0146550Y0063100D01*
X0147650Y0062600D02*
X0147750Y0061700D01*
X0147350Y0060800D01*
X0146550Y0060500D01*
X0148250Y0059600D02*
X0149250Y0061800D01*
X0147650Y0062600D01*
X0144250Y0062800D02*
X0142750Y0063400D01*
X0141250Y0061300D02*
X0142250Y0060300D01*
X0129150Y0066300D02*
X0129152Y0066474D01*
X0129159Y0066648D01*
X0129169Y0066822D01*
X0129184Y0066996D01*
X0129203Y0067169D01*
X0129227Y0067342D01*
X0129255Y0067514D01*
X0129286Y0067685D01*
X0129323Y0067856D01*
X0129363Y0068025D01*
X0129407Y0068194D01*
X0129456Y0068361D01*
X0129508Y0068527D01*
X0129565Y0068692D01*
X0129626Y0068855D01*
X0129690Y0069017D01*
X0129759Y0069177D01*
X0129832Y0069336D01*
X0129908Y0069492D01*
X0129988Y0069647D01*
X0130072Y0069800D01*
X0130160Y0069950D01*
X0130252Y0070098D01*
X0130347Y0070245D01*
X0130445Y0070388D01*
X0130547Y0070529D01*
X0130653Y0070668D01*
X0130762Y0070804D01*
X0130874Y0070938D01*
X0130989Y0071068D01*
X0131108Y0071196D01*
X0131230Y0071320D01*
X0131354Y0071442D01*
X0131482Y0071561D01*
X0131612Y0071676D01*
X0131746Y0071788D01*
X0131882Y0071897D01*
X0132021Y0072003D01*
X0132162Y0072105D01*
X0132305Y0072203D01*
X0132452Y0072298D01*
X0132600Y0072390D01*
X0132750Y0072478D01*
X0132903Y0072562D01*
X0133058Y0072642D01*
X0133214Y0072718D01*
X0133373Y0072791D01*
X0133533Y0072860D01*
X0133695Y0072924D01*
X0133858Y0072985D01*
X0134023Y0073042D01*
X0134189Y0073094D01*
X0134356Y0073143D01*
X0134525Y0073187D01*
X0134694Y0073227D01*
X0134865Y0073264D01*
X0135036Y0073295D01*
X0135208Y0073323D01*
X0135381Y0073347D01*
X0135554Y0073366D01*
X0135728Y0073381D01*
X0135902Y0073391D01*
X0136076Y0073398D01*
X0136250Y0073400D01*
X0136424Y0073398D01*
X0136598Y0073391D01*
X0136772Y0073381D01*
X0136946Y0073366D01*
X0137119Y0073347D01*
X0137292Y0073323D01*
X0137464Y0073295D01*
X0137635Y0073264D01*
X0137806Y0073227D01*
X0137975Y0073187D01*
X0138144Y0073143D01*
X0138311Y0073094D01*
X0138477Y0073042D01*
X0138642Y0072985D01*
X0138805Y0072924D01*
X0138967Y0072860D01*
X0139127Y0072791D01*
X0139286Y0072718D01*
X0139442Y0072642D01*
X0139597Y0072562D01*
X0139750Y0072478D01*
X0139900Y0072390D01*
X0140048Y0072298D01*
X0140195Y0072203D01*
X0140338Y0072105D01*
X0140479Y0072003D01*
X0140618Y0071897D01*
X0140754Y0071788D01*
X0140888Y0071676D01*
X0141018Y0071561D01*
X0141146Y0071442D01*
X0141270Y0071320D01*
X0141392Y0071196D01*
X0141511Y0071068D01*
X0141626Y0070938D01*
X0141738Y0070804D01*
X0141847Y0070668D01*
X0141953Y0070529D01*
X0142055Y0070388D01*
X0142153Y0070245D01*
X0142248Y0070098D01*
X0142340Y0069950D01*
X0142428Y0069800D01*
X0142512Y0069647D01*
X0142592Y0069492D01*
X0142668Y0069336D01*
X0142741Y0069177D01*
X0142810Y0069017D01*
X0142874Y0068855D01*
X0142935Y0068692D01*
X0142992Y0068527D01*
X0143044Y0068361D01*
X0143093Y0068194D01*
X0143137Y0068025D01*
X0143177Y0067856D01*
X0143214Y0067685D01*
X0143245Y0067514D01*
X0143273Y0067342D01*
X0143297Y0067169D01*
X0143316Y0066996D01*
X0143331Y0066822D01*
X0143341Y0066648D01*
X0143348Y0066474D01*
X0143350Y0066300D01*
X0143348Y0066126D01*
X0143341Y0065952D01*
X0143331Y0065778D01*
X0143316Y0065604D01*
X0143297Y0065431D01*
X0143273Y0065258D01*
X0143245Y0065086D01*
X0143214Y0064915D01*
X0143177Y0064744D01*
X0143137Y0064575D01*
X0143093Y0064406D01*
X0143044Y0064239D01*
X0142992Y0064073D01*
X0142935Y0063908D01*
X0142874Y0063745D01*
X0142810Y0063583D01*
X0142741Y0063423D01*
X0142668Y0063264D01*
X0142592Y0063108D01*
X0142512Y0062953D01*
X0142428Y0062800D01*
X0142340Y0062650D01*
X0142248Y0062502D01*
X0142153Y0062355D01*
X0142055Y0062212D01*
X0141953Y0062071D01*
X0141847Y0061932D01*
X0141738Y0061796D01*
X0141626Y0061662D01*
X0141511Y0061532D01*
X0141392Y0061404D01*
X0141270Y0061280D01*
X0141146Y0061158D01*
X0141018Y0061039D01*
X0140888Y0060924D01*
X0140754Y0060812D01*
X0140618Y0060703D01*
X0140479Y0060597D01*
X0140338Y0060495D01*
X0140195Y0060397D01*
X0140048Y0060302D01*
X0139900Y0060210D01*
X0139750Y0060122D01*
X0139597Y0060038D01*
X0139442Y0059958D01*
X0139286Y0059882D01*
X0139127Y0059809D01*
X0138967Y0059740D01*
X0138805Y0059676D01*
X0138642Y0059615D01*
X0138477Y0059558D01*
X0138311Y0059506D01*
X0138144Y0059457D01*
X0137975Y0059413D01*
X0137806Y0059373D01*
X0137635Y0059336D01*
X0137464Y0059305D01*
X0137292Y0059277D01*
X0137119Y0059253D01*
X0136946Y0059234D01*
X0136772Y0059219D01*
X0136598Y0059209D01*
X0136424Y0059202D01*
X0136250Y0059200D01*
X0136076Y0059202D01*
X0135902Y0059209D01*
X0135728Y0059219D01*
X0135554Y0059234D01*
X0135381Y0059253D01*
X0135208Y0059277D01*
X0135036Y0059305D01*
X0134865Y0059336D01*
X0134694Y0059373D01*
X0134525Y0059413D01*
X0134356Y0059457D01*
X0134189Y0059506D01*
X0134023Y0059558D01*
X0133858Y0059615D01*
X0133695Y0059676D01*
X0133533Y0059740D01*
X0133373Y0059809D01*
X0133214Y0059882D01*
X0133058Y0059958D01*
X0132903Y0060038D01*
X0132750Y0060122D01*
X0132600Y0060210D01*
X0132452Y0060302D01*
X0132305Y0060397D01*
X0132162Y0060495D01*
X0132021Y0060597D01*
X0131882Y0060703D01*
X0131746Y0060812D01*
X0131612Y0060924D01*
X0131482Y0061039D01*
X0131354Y0061158D01*
X0131230Y0061280D01*
X0131108Y0061404D01*
X0130989Y0061532D01*
X0130874Y0061662D01*
X0130762Y0061796D01*
X0130653Y0061932D01*
X0130547Y0062071D01*
X0130445Y0062212D01*
X0130347Y0062355D01*
X0130252Y0062502D01*
X0130160Y0062650D01*
X0130072Y0062800D01*
X0129988Y0062953D01*
X0129908Y0063108D01*
X0129832Y0063264D01*
X0129759Y0063423D01*
X0129690Y0063583D01*
X0129626Y0063745D01*
X0129565Y0063908D01*
X0129508Y0064073D01*
X0129456Y0064239D01*
X0129407Y0064406D01*
X0129363Y0064575D01*
X0129323Y0064744D01*
X0129286Y0064915D01*
X0129255Y0065086D01*
X0129227Y0065258D01*
X0129203Y0065431D01*
X0129184Y0065604D01*
X0129169Y0065778D01*
X0129159Y0065952D01*
X0129152Y0066126D01*
X0129150Y0066300D01*
X0133250Y0059800D02*
X0132650Y0058500D01*
X0111250Y0048300D02*
X0111250Y0084300D01*
X0111248Y0084387D01*
X0111242Y0084474D01*
X0111233Y0084561D01*
X0111220Y0084647D01*
X0111203Y0084733D01*
X0111182Y0084818D01*
X0111157Y0084901D01*
X0111129Y0084984D01*
X0111098Y0085065D01*
X0111063Y0085145D01*
X0111024Y0085223D01*
X0110982Y0085300D01*
X0110937Y0085375D01*
X0110888Y0085447D01*
X0110837Y0085518D01*
X0110782Y0085586D01*
X0110725Y0085651D01*
X0110664Y0085714D01*
X0110601Y0085775D01*
X0110536Y0085832D01*
X0110468Y0085887D01*
X0110397Y0085938D01*
X0110325Y0085987D01*
X0110250Y0086032D01*
X0110173Y0086074D01*
X0110095Y0086113D01*
X0110015Y0086148D01*
X0109934Y0086179D01*
X0109851Y0086207D01*
X0109768Y0086232D01*
X0109683Y0086253D01*
X0109597Y0086270D01*
X0109511Y0086283D01*
X0109424Y0086292D01*
X0109337Y0086298D01*
X0109250Y0086300D01*
X0077250Y0086300D01*
X0071250Y0080300D01*
X0071250Y0048300D01*
X0071252Y0048213D01*
X0071258Y0048126D01*
X0071267Y0048039D01*
X0071280Y0047953D01*
X0071297Y0047867D01*
X0071318Y0047782D01*
X0071343Y0047699D01*
X0071371Y0047616D01*
X0071402Y0047535D01*
X0071437Y0047455D01*
X0071476Y0047377D01*
X0071518Y0047300D01*
X0071563Y0047225D01*
X0071612Y0047153D01*
X0071663Y0047082D01*
X0071718Y0047014D01*
X0071775Y0046949D01*
X0071836Y0046886D01*
X0071899Y0046825D01*
X0071964Y0046768D01*
X0072032Y0046713D01*
X0072103Y0046662D01*
X0072175Y0046613D01*
X0072250Y0046568D01*
X0072327Y0046526D01*
X0072405Y0046487D01*
X0072485Y0046452D01*
X0072566Y0046421D01*
X0072649Y0046393D01*
X0072732Y0046368D01*
X0072817Y0046347D01*
X0072903Y0046330D01*
X0072989Y0046317D01*
X0073076Y0046308D01*
X0073163Y0046302D01*
X0073250Y0046300D01*
X0109250Y0046300D01*
X0109337Y0046302D01*
X0109424Y0046308D01*
X0109511Y0046317D01*
X0109597Y0046330D01*
X0109683Y0046347D01*
X0109768Y0046368D01*
X0109851Y0046393D01*
X0109934Y0046421D01*
X0110015Y0046452D01*
X0110095Y0046487D01*
X0110173Y0046526D01*
X0110250Y0046568D01*
X0110325Y0046613D01*
X0110397Y0046662D01*
X0110468Y0046713D01*
X0110536Y0046768D01*
X0110601Y0046825D01*
X0110664Y0046886D01*
X0110725Y0046949D01*
X0110782Y0047014D01*
X0110837Y0047082D01*
X0110888Y0047153D01*
X0110937Y0047225D01*
X0110982Y0047300D01*
X0111024Y0047377D01*
X0111063Y0047455D01*
X0111098Y0047535D01*
X0111129Y0047616D01*
X0111157Y0047699D01*
X0111182Y0047782D01*
X0111203Y0047867D01*
X0111220Y0047953D01*
X0111233Y0048039D01*
X0111242Y0048126D01*
X0111248Y0048213D01*
X0111250Y0048300D01*
X0100050Y0055500D02*
X0100850Y0056900D01*
X0100450Y0058700D01*
X0099650Y0059500D01*
X0098650Y0059500D01*
X0097650Y0058500D01*
X0097650Y0057500D01*
X0098050Y0057100D01*
X0099050Y0057100D01*
X0100450Y0058700D01*
X0101550Y0060500D02*
X0100550Y0061000D01*
X0100250Y0061800D01*
X0100750Y0062800D01*
X0101550Y0063100D01*
X0102650Y0062600D02*
X0102750Y0061700D01*
X0102350Y0060800D01*
X0101550Y0060500D01*
X0103250Y0059600D02*
X0104250Y0061800D01*
X0102650Y0062600D01*
X0103150Y0065100D02*
X0103150Y0067500D01*
X0105050Y0065700D01*
X0101350Y0065700D01*
X0099850Y0066300D02*
X0098350Y0066300D01*
X0097750Y0069100D02*
X0099250Y0069700D01*
X0100050Y0071000D02*
X0100450Y0071700D01*
X0100050Y0071000D02*
X0100750Y0069300D01*
X0101650Y0069100D01*
X0102450Y0069500D01*
X0102650Y0070000D01*
X0103250Y0069900D01*
X0104050Y0070300D01*
X0104350Y0070800D01*
X0103650Y0072500D01*
X0102650Y0072700D01*
X0102350Y0070800D02*
X0102650Y0070000D01*
X0099250Y0072400D02*
X0097650Y0074100D01*
X0101050Y0073900D01*
X0101650Y0074400D01*
X0101650Y0075300D01*
X0100650Y0076400D01*
X0099550Y0076400D01*
X0096950Y0078700D02*
X0095750Y0078500D01*
X0096950Y0078700D02*
X0095450Y0075400D01*
X0095950Y0075100D02*
X0094850Y0075600D01*
X0094850Y0074100D02*
X0094250Y0072800D01*
X0096350Y0071300D02*
X0097350Y0072300D01*
X0091250Y0073500D02*
X0091250Y0075000D01*
X0090650Y0076400D02*
X0091850Y0076400D01*
X0092450Y0077100D01*
X0092450Y0079500D01*
X0091850Y0080100D01*
X0090650Y0080100D01*
X0090050Y0079500D01*
X0090050Y0077100D01*
X0090650Y0076400D01*
X0087850Y0074300D02*
X0088450Y0072900D01*
X0086150Y0071400D02*
X0085150Y0072400D01*
X0084950Y0074000D02*
X0083350Y0072500D01*
X0081950Y0073900D01*
X0080550Y0075300D01*
X0082250Y0077000D01*
X0082850Y0074800D02*
X0081950Y0073900D01*
X0082050Y0071700D02*
X0079550Y0072900D01*
X0078850Y0072600D01*
X0078050Y0070900D01*
X0081650Y0069300D01*
X0082350Y0070900D01*
X0082050Y0071700D01*
X0083350Y0069600D02*
X0084650Y0069100D01*
X0084050Y0066300D02*
X0082550Y0066300D01*
X0081450Y0063700D02*
X0080750Y0063800D01*
X0080050Y0063500D01*
X0079650Y0062700D01*
X0080450Y0060900D01*
X0078850Y0060100D01*
X0078050Y0061900D01*
X0078250Y0062500D01*
X0079050Y0062900D01*
X0079650Y0062700D01*
X0080450Y0060900D02*
X0082250Y0061700D01*
X0081450Y0063700D01*
X0083150Y0063000D02*
X0084750Y0063700D01*
X0086150Y0061200D02*
X0085150Y0060200D01*
X0085250Y0058300D02*
X0084050Y0057100D01*
X0083250Y0056300D01*
X0081450Y0056500D01*
X0081250Y0058300D01*
X0082050Y0059100D01*
X0083250Y0060300D01*
X0082050Y0059100D02*
X0084050Y0057100D01*
X0085250Y0056100D02*
X0084650Y0055100D01*
X0084850Y0053900D01*
X0086050Y0053300D01*
X0087050Y0053500D01*
X0087450Y0054300D01*
X0087050Y0055300D01*
X0085250Y0056100D01*
X0086450Y0056900D01*
X0088250Y0056700D01*
X0087650Y0058500D02*
X0088250Y0059800D01*
X0091250Y0059200D02*
X0091250Y0057700D01*
X0091750Y0056200D02*
X0090550Y0056200D01*
X0089950Y0055600D01*
X0089950Y0055000D01*
X0090550Y0054400D01*
X0091750Y0054400D01*
X0092350Y0055000D01*
X0092350Y0055600D01*
X0091750Y0056200D01*
X0091750Y0054400D02*
X0092350Y0053800D01*
X0092350Y0053200D01*
X0091750Y0052500D01*
X0090550Y0052500D01*
X0089950Y0053200D01*
X0089950Y0053800D01*
X0090550Y0054400D01*
X0094450Y0058100D02*
X0093850Y0059600D01*
X0095650Y0057300D02*
X0095850Y0056700D01*
X0095050Y0053700D01*
X0095250Y0053100D01*
X0097450Y0054100D01*
X0097250Y0060300D02*
X0096250Y0061300D01*
X0097750Y0063400D02*
X0099250Y0062800D01*
X0084150Y0066300D02*
X0084152Y0066474D01*
X0084159Y0066648D01*
X0084169Y0066822D01*
X0084184Y0066996D01*
X0084203Y0067169D01*
X0084227Y0067342D01*
X0084255Y0067514D01*
X0084286Y0067685D01*
X0084323Y0067856D01*
X0084363Y0068025D01*
X0084407Y0068194D01*
X0084456Y0068361D01*
X0084508Y0068527D01*
X0084565Y0068692D01*
X0084626Y0068855D01*
X0084690Y0069017D01*
X0084759Y0069177D01*
X0084832Y0069336D01*
X0084908Y0069492D01*
X0084988Y0069647D01*
X0085072Y0069800D01*
X0085160Y0069950D01*
X0085252Y0070098D01*
X0085347Y0070245D01*
X0085445Y0070388D01*
X0085547Y0070529D01*
X0085653Y0070668D01*
X0085762Y0070804D01*
X0085874Y0070938D01*
X0085989Y0071068D01*
X0086108Y0071196D01*
X0086230Y0071320D01*
X0086354Y0071442D01*
X0086482Y0071561D01*
X0086612Y0071676D01*
X0086746Y0071788D01*
X0086882Y0071897D01*
X0087021Y0072003D01*
X0087162Y0072105D01*
X0087305Y0072203D01*
X0087452Y0072298D01*
X0087600Y0072390D01*
X0087750Y0072478D01*
X0087903Y0072562D01*
X0088058Y0072642D01*
X0088214Y0072718D01*
X0088373Y0072791D01*
X0088533Y0072860D01*
X0088695Y0072924D01*
X0088858Y0072985D01*
X0089023Y0073042D01*
X0089189Y0073094D01*
X0089356Y0073143D01*
X0089525Y0073187D01*
X0089694Y0073227D01*
X0089865Y0073264D01*
X0090036Y0073295D01*
X0090208Y0073323D01*
X0090381Y0073347D01*
X0090554Y0073366D01*
X0090728Y0073381D01*
X0090902Y0073391D01*
X0091076Y0073398D01*
X0091250Y0073400D01*
X0091424Y0073398D01*
X0091598Y0073391D01*
X0091772Y0073381D01*
X0091946Y0073366D01*
X0092119Y0073347D01*
X0092292Y0073323D01*
X0092464Y0073295D01*
X0092635Y0073264D01*
X0092806Y0073227D01*
X0092975Y0073187D01*
X0093144Y0073143D01*
X0093311Y0073094D01*
X0093477Y0073042D01*
X0093642Y0072985D01*
X0093805Y0072924D01*
X0093967Y0072860D01*
X0094127Y0072791D01*
X0094286Y0072718D01*
X0094442Y0072642D01*
X0094597Y0072562D01*
X0094750Y0072478D01*
X0094900Y0072390D01*
X0095048Y0072298D01*
X0095195Y0072203D01*
X0095338Y0072105D01*
X0095479Y0072003D01*
X0095618Y0071897D01*
X0095754Y0071788D01*
X0095888Y0071676D01*
X0096018Y0071561D01*
X0096146Y0071442D01*
X0096270Y0071320D01*
X0096392Y0071196D01*
X0096511Y0071068D01*
X0096626Y0070938D01*
X0096738Y0070804D01*
X0096847Y0070668D01*
X0096953Y0070529D01*
X0097055Y0070388D01*
X0097153Y0070245D01*
X0097248Y0070098D01*
X0097340Y0069950D01*
X0097428Y0069800D01*
X0097512Y0069647D01*
X0097592Y0069492D01*
X0097668Y0069336D01*
X0097741Y0069177D01*
X0097810Y0069017D01*
X0097874Y0068855D01*
X0097935Y0068692D01*
X0097992Y0068527D01*
X0098044Y0068361D01*
X0098093Y0068194D01*
X0098137Y0068025D01*
X0098177Y0067856D01*
X0098214Y0067685D01*
X0098245Y0067514D01*
X0098273Y0067342D01*
X0098297Y0067169D01*
X0098316Y0066996D01*
X0098331Y0066822D01*
X0098341Y0066648D01*
X0098348Y0066474D01*
X0098350Y0066300D01*
X0098348Y0066126D01*
X0098341Y0065952D01*
X0098331Y0065778D01*
X0098316Y0065604D01*
X0098297Y0065431D01*
X0098273Y0065258D01*
X0098245Y0065086D01*
X0098214Y0064915D01*
X0098177Y0064744D01*
X0098137Y0064575D01*
X0098093Y0064406D01*
X0098044Y0064239D01*
X0097992Y0064073D01*
X0097935Y0063908D01*
X0097874Y0063745D01*
X0097810Y0063583D01*
X0097741Y0063423D01*
X0097668Y0063264D01*
X0097592Y0063108D01*
X0097512Y0062953D01*
X0097428Y0062800D01*
X0097340Y0062650D01*
X0097248Y0062502D01*
X0097153Y0062355D01*
X0097055Y0062212D01*
X0096953Y0062071D01*
X0096847Y0061932D01*
X0096738Y0061796D01*
X0096626Y0061662D01*
X0096511Y0061532D01*
X0096392Y0061404D01*
X0096270Y0061280D01*
X0096146Y0061158D01*
X0096018Y0061039D01*
X0095888Y0060924D01*
X0095754Y0060812D01*
X0095618Y0060703D01*
X0095479Y0060597D01*
X0095338Y0060495D01*
X0095195Y0060397D01*
X0095048Y0060302D01*
X0094900Y0060210D01*
X0094750Y0060122D01*
X0094597Y0060038D01*
X0094442Y0059958D01*
X0094286Y0059882D01*
X0094127Y0059809D01*
X0093967Y0059740D01*
X0093805Y0059676D01*
X0093642Y0059615D01*
X0093477Y0059558D01*
X0093311Y0059506D01*
X0093144Y0059457D01*
X0092975Y0059413D01*
X0092806Y0059373D01*
X0092635Y0059336D01*
X0092464Y0059305D01*
X0092292Y0059277D01*
X0092119Y0059253D01*
X0091946Y0059234D01*
X0091772Y0059219D01*
X0091598Y0059209D01*
X0091424Y0059202D01*
X0091250Y0059200D01*
X0091076Y0059202D01*
X0090902Y0059209D01*
X0090728Y0059219D01*
X0090554Y0059234D01*
X0090381Y0059253D01*
X0090208Y0059277D01*
X0090036Y0059305D01*
X0089865Y0059336D01*
X0089694Y0059373D01*
X0089525Y0059413D01*
X0089356Y0059457D01*
X0089189Y0059506D01*
X0089023Y0059558D01*
X0088858Y0059615D01*
X0088695Y0059676D01*
X0088533Y0059740D01*
X0088373Y0059809D01*
X0088214Y0059882D01*
X0088058Y0059958D01*
X0087903Y0060038D01*
X0087750Y0060122D01*
X0087600Y0060210D01*
X0087452Y0060302D01*
X0087305Y0060397D01*
X0087162Y0060495D01*
X0087021Y0060597D01*
X0086882Y0060703D01*
X0086746Y0060812D01*
X0086612Y0060924D01*
X0086482Y0061039D01*
X0086354Y0061158D01*
X0086230Y0061280D01*
X0086108Y0061404D01*
X0085989Y0061532D01*
X0085874Y0061662D01*
X0085762Y0061796D01*
X0085653Y0061932D01*
X0085547Y0062071D01*
X0085445Y0062212D01*
X0085347Y0062355D01*
X0085252Y0062502D01*
X0085160Y0062650D01*
X0085072Y0062800D01*
X0084988Y0062953D01*
X0084908Y0063108D01*
X0084832Y0063264D01*
X0084759Y0063423D01*
X0084690Y0063583D01*
X0084626Y0063745D01*
X0084565Y0063908D01*
X0084508Y0064073D01*
X0084456Y0064239D01*
X0084407Y0064406D01*
X0084363Y0064575D01*
X0084323Y0064744D01*
X0084286Y0064915D01*
X0084255Y0065086D01*
X0084227Y0065258D01*
X0084203Y0065431D01*
X0084184Y0065604D01*
X0084169Y0065778D01*
X0084159Y0065952D01*
X0084152Y0066126D01*
X0084150Y0066300D01*
X0086550Y0075100D02*
X0085750Y0076800D01*
X0087150Y0077400D01*
X0085750Y0076800D02*
X0084950Y0078500D01*
X0086850Y0079400D01*
X0057250Y0049800D02*
X0057250Y0032800D01*
X0057248Y0032740D01*
X0057243Y0032679D01*
X0057234Y0032620D01*
X0057221Y0032561D01*
X0057205Y0032502D01*
X0057185Y0032445D01*
X0057162Y0032390D01*
X0057135Y0032335D01*
X0057106Y0032283D01*
X0057073Y0032232D01*
X0057037Y0032183D01*
X0056999Y0032137D01*
X0056957Y0032093D01*
X0056913Y0032051D01*
X0056867Y0032013D01*
X0056818Y0031977D01*
X0056767Y0031944D01*
X0056715Y0031915D01*
X0056660Y0031888D01*
X0056605Y0031865D01*
X0056548Y0031845D01*
X0056489Y0031829D01*
X0056430Y0031816D01*
X0056371Y0031807D01*
X0056310Y0031802D01*
X0056250Y0031800D01*
X0046250Y0031800D01*
X0046190Y0031802D01*
X0046129Y0031807D01*
X0046070Y0031816D01*
X0046011Y0031829D01*
X0045952Y0031845D01*
X0045895Y0031865D01*
X0045840Y0031888D01*
X0045785Y0031915D01*
X0045733Y0031944D01*
X0045682Y0031977D01*
X0045633Y0032013D01*
X0045587Y0032051D01*
X0045543Y0032093D01*
X0045501Y0032137D01*
X0045463Y0032183D01*
X0045427Y0032232D01*
X0045394Y0032283D01*
X0045365Y0032335D01*
X0045338Y0032390D01*
X0045315Y0032445D01*
X0045295Y0032502D01*
X0045279Y0032561D01*
X0045266Y0032620D01*
X0045257Y0032679D01*
X0045252Y0032740D01*
X0045250Y0032800D01*
X0045250Y0049800D01*
X0045252Y0049860D01*
X0045257Y0049921D01*
X0045266Y0049980D01*
X0045279Y0050039D01*
X0045295Y0050098D01*
X0045315Y0050155D01*
X0045338Y0050210D01*
X0045365Y0050265D01*
X0045394Y0050317D01*
X0045427Y0050368D01*
X0045463Y0050417D01*
X0045501Y0050463D01*
X0045543Y0050507D01*
X0045587Y0050549D01*
X0045633Y0050587D01*
X0045682Y0050623D01*
X0045733Y0050656D01*
X0045785Y0050685D01*
X0045840Y0050712D01*
X0045895Y0050735D01*
X0045952Y0050755D01*
X0046011Y0050771D01*
X0046070Y0050784D01*
X0046129Y0050793D01*
X0046190Y0050798D01*
X0046250Y0050800D01*
X0056250Y0050800D01*
X0056310Y0050798D01*
X0056371Y0050793D01*
X0056430Y0050784D01*
X0056489Y0050771D01*
X0056548Y0050755D01*
X0056605Y0050735D01*
X0056660Y0050712D01*
X0056715Y0050685D01*
X0056767Y0050656D01*
X0056818Y0050623D01*
X0056867Y0050587D01*
X0056913Y0050549D01*
X0056957Y0050507D01*
X0056999Y0050463D01*
X0057037Y0050417D01*
X0057073Y0050368D01*
X0057106Y0050317D01*
X0057135Y0050265D01*
X0057162Y0050210D01*
X0057185Y0050155D01*
X0057205Y0050098D01*
X0057221Y0050039D01*
X0057234Y0049980D01*
X0057243Y0049921D01*
X0057248Y0049860D01*
X0057250Y0049800D01*
X0051250Y0042800D02*
X0051250Y0042300D01*
X0051250Y0040300D02*
X0051250Y0039800D01*
X0062750Y0037300D02*
X0062750Y0036300D01*
X0063250Y0035800D01*
X0063250Y0026800D01*
X0062750Y0026300D01*
X0062750Y0025300D01*
X0062752Y0025240D01*
X0062757Y0025179D01*
X0062766Y0025120D01*
X0062779Y0025061D01*
X0062795Y0025002D01*
X0062815Y0024945D01*
X0062838Y0024890D01*
X0062865Y0024835D01*
X0062894Y0024783D01*
X0062927Y0024732D01*
X0062963Y0024683D01*
X0063001Y0024637D01*
X0063043Y0024593D01*
X0063087Y0024551D01*
X0063133Y0024513D01*
X0063182Y0024477D01*
X0063233Y0024444D01*
X0063285Y0024415D01*
X0063340Y0024388D01*
X0063395Y0024365D01*
X0063452Y0024345D01*
X0063511Y0024329D01*
X0063570Y0024316D01*
X0063629Y0024307D01*
X0063690Y0024302D01*
X0063750Y0024300D01*
X0068750Y0024300D02*
X0068810Y0024302D01*
X0068871Y0024307D01*
X0068930Y0024316D01*
X0068989Y0024329D01*
X0069048Y0024345D01*
X0069105Y0024365D01*
X0069160Y0024388D01*
X0069215Y0024415D01*
X0069267Y0024444D01*
X0069318Y0024477D01*
X0069367Y0024513D01*
X0069413Y0024551D01*
X0069457Y0024593D01*
X0069499Y0024637D01*
X0069537Y0024683D01*
X0069573Y0024732D01*
X0069606Y0024783D01*
X0069635Y0024835D01*
X0069662Y0024890D01*
X0069685Y0024945D01*
X0069705Y0025002D01*
X0069721Y0025061D01*
X0069734Y0025120D01*
X0069743Y0025179D01*
X0069748Y0025240D01*
X0069750Y0025300D01*
X0069750Y0026300D01*
X0069250Y0026800D01*
X0069250Y0035800D01*
X0069750Y0036300D01*
X0069750Y0037300D01*
X0069748Y0037360D01*
X0069743Y0037421D01*
X0069734Y0037480D01*
X0069721Y0037539D01*
X0069705Y0037598D01*
X0069685Y0037655D01*
X0069662Y0037710D01*
X0069635Y0037765D01*
X0069606Y0037817D01*
X0069573Y0037868D01*
X0069537Y0037917D01*
X0069499Y0037963D01*
X0069457Y0038007D01*
X0069413Y0038049D01*
X0069367Y0038087D01*
X0069318Y0038123D01*
X0069267Y0038156D01*
X0069215Y0038185D01*
X0069160Y0038212D01*
X0069105Y0038235D01*
X0069048Y0038255D01*
X0068989Y0038271D01*
X0068930Y0038284D01*
X0068871Y0038293D01*
X0068810Y0038298D01*
X0068750Y0038300D01*
X0063750Y0038300D02*
X0063690Y0038298D01*
X0063629Y0038293D01*
X0063570Y0038284D01*
X0063511Y0038271D01*
X0063452Y0038255D01*
X0063395Y0038235D01*
X0063340Y0038212D01*
X0063285Y0038185D01*
X0063233Y0038156D01*
X0063182Y0038123D01*
X0063133Y0038087D01*
X0063087Y0038049D01*
X0063043Y0038007D01*
X0063001Y0037963D01*
X0062963Y0037917D01*
X0062927Y0037868D01*
X0062894Y0037817D01*
X0062865Y0037765D01*
X0062838Y0037710D01*
X0062815Y0037655D01*
X0062795Y0037598D01*
X0062779Y0037539D01*
X0062766Y0037480D01*
X0062757Y0037421D01*
X0062752Y0037360D01*
X0062750Y0037300D01*
D15*
X0054250Y0040300D02*
X0051250Y0040300D01*
X0048250Y0040300D01*
X0048250Y0042300D02*
X0051250Y0042300D01*
X0054250Y0042300D01*
X0089250Y0070600D02*
X0093250Y0070600D01*
X0091250Y0072600D01*
X0089250Y0070600D01*
X0090250Y0071100D02*
X0092250Y0071100D01*
X0091250Y0071600D02*
X0091250Y0072100D01*
X0134250Y0070600D02*
X0138250Y0070600D01*
X0136250Y0072600D01*
X0134250Y0070600D01*
X0135250Y0071100D02*
X0137250Y0071100D01*
X0136250Y0071600D02*
X0136250Y0072100D01*
X0163800Y0071400D02*
X0163800Y0069600D01*
X0163800Y0063200D02*
X0163800Y0061200D01*
D16*
X0136250Y0065300D03*
X0091250Y0065300D03*
M02*
