G75*
%MOIN*%
%OFA0B0*%
%FSLAX25Y25*%
%IPPOS*%
%LPD*%
%AMOC8*
5,1,8,0,0,1.08239X$1,22.5*
%
%ADD10C,0.07400*%
%ADD11C,0.04800*%
%ADD12OC8,0.04800*%
%ADD13C,0.07600*%
%ADD14C,0.04800*%
%ADD15OC8,0.06300*%
%ADD16C,0.06299*%
%ADD17C,0.05000*%
%ADD18C,0.01000*%
%ADD19C,0.02362*%
D10*
X0066250Y0051500D03*
X0066250Y0081500D03*
X0116250Y0026500D03*
X0126250Y0026500D03*
X0136250Y0026500D03*
D11*
X0123650Y0056500D02*
X0118850Y0056500D01*
X0118850Y0066500D02*
X0123650Y0066500D01*
X0123650Y0076500D02*
X0118850Y0076500D01*
X0108650Y0076500D02*
X0103850Y0076500D01*
X0103850Y0056500D02*
X0108650Y0056500D01*
X0096250Y0028900D02*
X0096250Y0024100D01*
X0086250Y0024100D02*
X0086250Y0028900D01*
X0076250Y0028900D02*
X0076250Y0024100D01*
X0078650Y0056500D02*
X0073850Y0056500D01*
X0073850Y0066500D02*
X0078650Y0066500D01*
X0078650Y0076500D02*
X0073850Y0076500D01*
X0056250Y0079100D02*
X0056250Y0083900D01*
X0056250Y0063900D02*
X0056250Y0059100D01*
X0026250Y0059100D02*
X0026250Y0063900D01*
X0016250Y0063900D02*
X0016250Y0059100D01*
X0016250Y0079100D02*
X0016250Y0083900D01*
X0026250Y0083900D02*
X0026250Y0079100D01*
X0148850Y0076500D02*
X0153650Y0076500D01*
X0153650Y0056500D02*
X0148850Y0056500D01*
D12*
X0161250Y0081500D03*
X0181250Y0081500D03*
X0066250Y0041500D03*
X0066250Y0021500D03*
D13*
X0066250Y0096500D03*
X0056250Y0096500D03*
X0046250Y0096500D03*
X0036250Y0096500D03*
X0026250Y0096500D03*
X0016250Y0096500D03*
X0076250Y0096500D03*
X0086250Y0096500D03*
X0096250Y0096500D03*
X0106250Y0096500D03*
X0116250Y0096500D03*
X0126250Y0096500D03*
X0136250Y0096500D03*
X0146250Y0096500D03*
X0156250Y0096500D03*
X0166250Y0096500D03*
X0176250Y0096500D03*
X0176250Y0156500D03*
X0166250Y0156500D03*
X0156250Y0156500D03*
X0146250Y0156500D03*
X0136250Y0156500D03*
X0126250Y0156500D03*
X0116250Y0156500D03*
X0106250Y0156500D03*
X0096250Y0156500D03*
X0086250Y0156500D03*
X0076250Y0156500D03*
X0066250Y0156500D03*
X0056250Y0156500D03*
X0046250Y0156500D03*
X0036250Y0156500D03*
X0026250Y0156500D03*
X0016250Y0156500D03*
D14*
X0166250Y0066500D03*
X0176250Y0066500D03*
D15*
X0051250Y0046500D03*
X0051250Y0036500D03*
D16*
X0029872Y0036933D03*
X0029872Y0044807D03*
X0167667Y0044807D03*
X0167667Y0036933D03*
D17*
X0167234Y0036500D01*
X0126250Y0036500D01*
X0126250Y0026500D01*
X0126250Y0011500D01*
X0051250Y0011500D01*
X0051250Y0026500D01*
X0016250Y0026500D01*
X0016250Y0061500D01*
X0041250Y0061500D02*
X0041250Y0036500D01*
X0040817Y0036933D01*
X0029872Y0036933D01*
X0051250Y0036500D02*
X0051250Y0026500D01*
X0056250Y0061500D02*
X0041250Y0061500D01*
D18*
X0008718Y0093203D02*
X0008718Y0003968D01*
X0188821Y0003968D01*
X0188821Y0184071D01*
X0008718Y0184071D01*
X0008718Y0141797D01*
X0018700Y0151778D01*
X0017304Y0151200D01*
X0015196Y0151200D01*
X0013248Y0152007D01*
X0011757Y0153498D01*
X0010950Y0155446D01*
X0010950Y0157554D01*
X0011757Y0159502D01*
X0013248Y0160993D01*
X0015196Y0161800D01*
X0017304Y0161800D01*
X0019252Y0160993D01*
X0020743Y0159502D01*
X0021250Y0158278D01*
X0021757Y0159502D01*
X0023248Y0160993D01*
X0025196Y0161800D01*
X0027304Y0161800D01*
X0029252Y0160993D01*
X0030743Y0159502D01*
X0031250Y0158278D01*
X0031757Y0159502D01*
X0033248Y0160993D01*
X0035196Y0161800D01*
X0037304Y0161800D01*
X0039252Y0160993D01*
X0040743Y0159502D01*
X0041250Y0158278D01*
X0041757Y0159502D01*
X0043248Y0160993D01*
X0045196Y0161800D01*
X0047304Y0161800D01*
X0048306Y0161385D01*
X0051422Y0164500D01*
X0179078Y0164500D01*
X0180250Y0163328D01*
X0188250Y0155328D01*
X0188250Y0091672D01*
X0187078Y0090500D01*
X0181978Y0085400D01*
X0182865Y0085400D01*
X0185150Y0083115D01*
X0185150Y0079885D01*
X0182865Y0077600D01*
X0180178Y0077600D01*
X0170063Y0067485D01*
X0170150Y0067276D01*
X0170150Y0067228D01*
X0171422Y0068500D01*
X0172857Y0068500D01*
X0172944Y0068709D01*
X0174041Y0069806D01*
X0175474Y0070400D01*
X0177026Y0070400D01*
X0178459Y0069806D01*
X0179556Y0068709D01*
X0180150Y0067276D01*
X0180150Y0065724D01*
X0179556Y0064291D01*
X0178459Y0063194D01*
X0177026Y0062600D01*
X0175474Y0062600D01*
X0174041Y0063194D01*
X0172944Y0064291D01*
X0172922Y0064344D01*
X0170250Y0061672D01*
X0169078Y0060500D01*
X0139422Y0060500D01*
X0131422Y0068500D01*
X0127004Y0068500D01*
X0127106Y0068347D01*
X0127400Y0067638D01*
X0127550Y0066884D01*
X0127550Y0066800D01*
X0121550Y0066800D01*
X0121550Y0066200D01*
X0127550Y0066200D01*
X0127550Y0066116D01*
X0127400Y0065362D01*
X0127106Y0064653D01*
X0127004Y0064500D01*
X0128422Y0064500D01*
X0128569Y0064647D01*
X0128569Y0065033D01*
X0128977Y0066019D01*
X0129731Y0066773D01*
X0130717Y0067181D01*
X0131783Y0067181D01*
X0132769Y0066773D01*
X0133523Y0066019D01*
X0133931Y0065033D01*
X0133931Y0063967D01*
X0133523Y0062981D01*
X0132769Y0062227D01*
X0131783Y0061819D01*
X0131397Y0061819D01*
X0130078Y0060500D01*
X0120078Y0060500D01*
X0119978Y0060400D01*
X0124426Y0060400D01*
X0125859Y0059806D01*
X0126956Y0058709D01*
X0127550Y0057276D01*
X0127550Y0055724D01*
X0126956Y0054291D01*
X0125859Y0053194D01*
X0124426Y0052600D01*
X0118074Y0052600D01*
X0116641Y0053194D01*
X0115544Y0054291D01*
X0115053Y0055475D01*
X0114078Y0054500D01*
X0112043Y0054500D01*
X0111956Y0054291D01*
X0110859Y0053194D01*
X0109426Y0052600D01*
X0103074Y0052600D01*
X0101641Y0053194D01*
X0100544Y0054291D01*
X0099950Y0055724D01*
X0099950Y0057276D01*
X0100544Y0058709D01*
X0101641Y0059806D01*
X0103074Y0060400D01*
X0109426Y0060400D01*
X0110859Y0059806D01*
X0111956Y0058709D01*
X0112043Y0058500D01*
X0112422Y0058500D01*
X0116980Y0063059D01*
X0116364Y0063471D01*
X0115821Y0064014D01*
X0115394Y0064653D01*
X0115100Y0065362D01*
X0114950Y0066116D01*
X0114950Y0066200D01*
X0120950Y0066200D01*
X0120950Y0066800D01*
X0114950Y0066800D01*
X0114950Y0066884D01*
X0115100Y0067638D01*
X0115394Y0068347D01*
X0115496Y0068500D01*
X0082004Y0068500D01*
X0082106Y0068347D01*
X0082400Y0067638D01*
X0082550Y0066884D01*
X0082550Y0066800D01*
X0076550Y0066800D01*
X0076550Y0066200D01*
X0082550Y0066200D01*
X0082550Y0066116D01*
X0082400Y0065362D01*
X0082106Y0064653D01*
X0081679Y0064014D01*
X0081136Y0063471D01*
X0080497Y0063044D01*
X0079788Y0062750D01*
X0079034Y0062600D01*
X0076550Y0062600D01*
X0076550Y0066200D01*
X0075950Y0066200D01*
X0075950Y0062600D01*
X0073466Y0062600D01*
X0072712Y0062750D01*
X0072003Y0063044D01*
X0071364Y0063471D01*
X0070821Y0064014D01*
X0070394Y0064653D01*
X0070100Y0065362D01*
X0069950Y0066116D01*
X0069950Y0066200D01*
X0075950Y0066200D01*
X0075950Y0066800D01*
X0069950Y0066800D01*
X0069950Y0066884D01*
X0070100Y0067638D01*
X0070394Y0068347D01*
X0070821Y0068986D01*
X0071364Y0069529D01*
X0071980Y0069941D01*
X0068422Y0073500D01*
X0067250Y0074672D01*
X0067250Y0076300D01*
X0065216Y0076300D01*
X0063304Y0077092D01*
X0061842Y0078554D01*
X0061050Y0080466D01*
X0061050Y0082534D01*
X0061842Y0084446D01*
X0063304Y0085908D01*
X0065216Y0086700D01*
X0067284Y0086700D01*
X0069196Y0085908D01*
X0070658Y0084446D01*
X0071050Y0083500D01*
X0108422Y0083500D01*
X0116122Y0091200D01*
X0115196Y0091200D01*
X0113248Y0092007D01*
X0111757Y0093498D01*
X0111250Y0094722D01*
X0110743Y0093498D01*
X0109252Y0092007D01*
X0107304Y0091200D01*
X0105196Y0091200D01*
X0103248Y0092007D01*
X0101757Y0093498D01*
X0101250Y0094722D01*
X0100743Y0093498D01*
X0099252Y0092007D01*
X0097304Y0091200D01*
X0095196Y0091200D01*
X0093248Y0092007D01*
X0091757Y0093498D01*
X0091250Y0094722D01*
X0090743Y0093498D01*
X0089252Y0092007D01*
X0087304Y0091200D01*
X0085196Y0091200D01*
X0083248Y0092007D01*
X0081757Y0093498D01*
X0081250Y0094722D01*
X0080743Y0093498D01*
X0079252Y0092007D01*
X0077304Y0091200D01*
X0075196Y0091200D01*
X0073248Y0092007D01*
X0071757Y0093498D01*
X0071250Y0094722D01*
X0070743Y0093498D01*
X0069252Y0092007D01*
X0067304Y0091200D01*
X0065196Y0091200D01*
X0063248Y0092007D01*
X0061757Y0093498D01*
X0061250Y0094722D01*
X0060743Y0093498D01*
X0059252Y0092007D01*
X0057304Y0091200D01*
X0055196Y0091200D01*
X0053248Y0092007D01*
X0051757Y0093498D01*
X0051250Y0094722D01*
X0050743Y0093498D01*
X0049252Y0092007D01*
X0047304Y0091200D01*
X0045196Y0091200D01*
X0043248Y0092007D01*
X0041757Y0093498D01*
X0041250Y0094722D01*
X0040743Y0093498D01*
X0039412Y0092167D01*
X0040250Y0091328D01*
X0052350Y0079228D01*
X0052350Y0084676D01*
X0052944Y0086109D01*
X0054041Y0087206D01*
X0055474Y0087800D01*
X0057026Y0087800D01*
X0058459Y0087206D01*
X0059556Y0086109D01*
X0060150Y0084676D01*
X0060150Y0078324D01*
X0059556Y0076891D01*
X0058459Y0075794D01*
X0057026Y0075200D01*
X0056378Y0075200D01*
X0071734Y0059845D01*
X0073074Y0060400D01*
X0079426Y0060400D01*
X0080859Y0059806D01*
X0081956Y0058709D01*
X0082550Y0057276D01*
X0082550Y0055724D01*
X0081956Y0054291D01*
X0080859Y0053194D01*
X0079426Y0052600D01*
X0073074Y0052600D01*
X0071641Y0053194D01*
X0070849Y0053986D01*
X0071450Y0052534D01*
X0071450Y0050466D01*
X0070658Y0048554D01*
X0069196Y0047092D01*
X0067284Y0046300D01*
X0065216Y0046300D01*
X0063304Y0047092D01*
X0061842Y0048554D01*
X0061050Y0050466D01*
X0061050Y0052534D01*
X0061842Y0054446D01*
X0063304Y0055908D01*
X0064250Y0056300D01*
X0064250Y0058672D01*
X0060150Y0062772D01*
X0060150Y0062537D01*
X0060250Y0062296D01*
X0060250Y0060704D01*
X0060150Y0060463D01*
X0060150Y0058324D01*
X0059556Y0056891D01*
X0058459Y0055794D01*
X0057026Y0055200D01*
X0055474Y0055200D01*
X0054041Y0055794D01*
X0052944Y0056891D01*
X0052691Y0057500D01*
X0045250Y0057500D01*
X0045250Y0035704D01*
X0044641Y0034234D01*
X0043516Y0033109D01*
X0042046Y0032500D01*
X0040454Y0032500D01*
X0039409Y0032933D01*
X0032365Y0032933D01*
X0030797Y0032283D01*
X0028947Y0032283D01*
X0027238Y0032991D01*
X0025930Y0034299D01*
X0025222Y0036008D01*
X0025222Y0037858D01*
X0025930Y0039567D01*
X0027238Y0040875D01*
X0027325Y0040911D01*
X0026843Y0041261D01*
X0026326Y0041778D01*
X0025895Y0042370D01*
X0025563Y0043022D01*
X0025337Y0043718D01*
X0025222Y0044441D01*
X0025222Y0044618D01*
X0029683Y0044618D01*
X0029683Y0044996D01*
X0025222Y0044996D01*
X0025222Y0045173D01*
X0025337Y0045896D01*
X0025563Y0046592D01*
X0025895Y0047244D01*
X0026326Y0047836D01*
X0026843Y0048354D01*
X0027435Y0048784D01*
X0028087Y0049116D01*
X0028783Y0049342D01*
X0029506Y0049457D01*
X0029683Y0049457D01*
X0029683Y0044996D01*
X0030061Y0044996D01*
X0034522Y0044996D01*
X0034522Y0045173D01*
X0034407Y0045896D01*
X0034181Y0046592D01*
X0033849Y0047244D01*
X0033419Y0047836D01*
X0032901Y0048354D01*
X0032309Y0048784D01*
X0031657Y0049116D01*
X0030961Y0049342D01*
X0030238Y0049457D01*
X0030061Y0049457D01*
X0030061Y0044996D01*
X0030061Y0044618D01*
X0034522Y0044618D01*
X0034522Y0044441D01*
X0034407Y0043718D01*
X0034181Y0043022D01*
X0033849Y0042370D01*
X0033419Y0041778D01*
X0032901Y0041261D01*
X0032450Y0040933D01*
X0037250Y0040933D01*
X0037250Y0062296D01*
X0037859Y0063766D01*
X0038984Y0064891D01*
X0040454Y0065500D01*
X0052691Y0065500D01*
X0052944Y0066109D01*
X0054041Y0067206D01*
X0055225Y0067697D01*
X0043422Y0079500D01*
X0030150Y0079500D01*
X0030150Y0078324D01*
X0029556Y0076891D01*
X0028459Y0075794D01*
X0027026Y0075200D01*
X0025474Y0075200D01*
X0024041Y0075794D01*
X0022944Y0076891D01*
X0022350Y0078324D01*
X0022350Y0084676D01*
X0022944Y0086109D01*
X0024041Y0087206D01*
X0025474Y0087800D01*
X0027026Y0087800D01*
X0028459Y0087206D01*
X0029556Y0086109D01*
X0030150Y0084676D01*
X0030150Y0083500D01*
X0042422Y0083500D01*
X0037422Y0088500D01*
X0013422Y0088500D01*
X0009422Y0092500D01*
X0008718Y0093203D01*
X0008718Y0092365D02*
X0009557Y0092365D01*
X0008718Y0091366D02*
X0010556Y0091366D01*
X0011554Y0090368D02*
X0008718Y0090368D01*
X0008718Y0089369D02*
X0012553Y0089369D01*
X0014250Y0090500D02*
X0010250Y0094500D01*
X0010250Y0140500D01*
X0026250Y0156500D01*
X0029982Y0160263D02*
X0032518Y0160263D01*
X0031659Y0159265D02*
X0030841Y0159265D01*
X0028604Y0161262D02*
X0033896Y0161262D01*
X0038604Y0161262D02*
X0043896Y0161262D01*
X0042518Y0160263D02*
X0039982Y0160263D01*
X0040841Y0159265D02*
X0041659Y0159265D01*
X0041250Y0154722D02*
X0041757Y0153498D01*
X0043248Y0152007D01*
X0045196Y0151200D01*
X0047304Y0151200D01*
X0049252Y0152007D01*
X0050743Y0153498D01*
X0051250Y0154722D01*
X0051757Y0153498D01*
X0053248Y0152007D01*
X0055196Y0151200D01*
X0057304Y0151200D01*
X0059252Y0152007D01*
X0060743Y0153498D01*
X0061250Y0154722D01*
X0061757Y0153498D01*
X0063248Y0152007D01*
X0065196Y0151200D01*
X0067304Y0151200D01*
X0069252Y0152007D01*
X0070743Y0153498D01*
X0071250Y0154722D01*
X0071757Y0153498D01*
X0073248Y0152007D01*
X0075196Y0151200D01*
X0077304Y0151200D01*
X0079252Y0152007D01*
X0080743Y0153498D01*
X0081250Y0154722D01*
X0081757Y0153498D01*
X0083248Y0152007D01*
X0085196Y0151200D01*
X0087304Y0151200D01*
X0088306Y0151615D01*
X0093422Y0146500D01*
X0131422Y0146500D01*
X0176122Y0101800D01*
X0175196Y0101800D01*
X0173248Y0100993D01*
X0171757Y0099502D01*
X0171250Y0098278D01*
X0170743Y0099502D01*
X0169252Y0100993D01*
X0167304Y0101800D01*
X0165196Y0101800D01*
X0163248Y0100993D01*
X0161757Y0099502D01*
X0161250Y0098278D01*
X0160743Y0099502D01*
X0159252Y0100993D01*
X0157304Y0101800D01*
X0155196Y0101800D01*
X0153248Y0100993D01*
X0151757Y0099502D01*
X0151247Y0098272D01*
X0151162Y0098534D01*
X0150783Y0099278D01*
X0150293Y0099953D01*
X0149703Y0100543D01*
X0149028Y0101033D01*
X0148284Y0101412D01*
X0147491Y0101669D01*
X0146750Y0101787D01*
X0146750Y0097000D01*
X0145750Y0097000D01*
X0145750Y0101787D01*
X0145009Y0101669D01*
X0144216Y0101412D01*
X0143472Y0101033D01*
X0142797Y0100543D01*
X0142207Y0099953D01*
X0141717Y0099278D01*
X0141338Y0098534D01*
X0141253Y0098272D01*
X0140743Y0099502D01*
X0139252Y0100993D01*
X0137304Y0101800D01*
X0135196Y0101800D01*
X0133248Y0100993D01*
X0131757Y0099502D01*
X0131250Y0098278D01*
X0130743Y0099502D01*
X0129252Y0100993D01*
X0127304Y0101800D01*
X0125196Y0101800D01*
X0123248Y0100993D01*
X0121757Y0099502D01*
X0121250Y0098278D01*
X0120743Y0099502D01*
X0119252Y0100993D01*
X0117304Y0101800D01*
X0115196Y0101800D01*
X0113248Y0100993D01*
X0111757Y0099502D01*
X0111250Y0098278D01*
X0110743Y0099502D01*
X0109252Y0100993D01*
X0107304Y0101800D01*
X0105196Y0101800D01*
X0103248Y0100993D01*
X0101757Y0099502D01*
X0101250Y0098278D01*
X0100743Y0099502D01*
X0099252Y0100993D01*
X0097304Y0101800D01*
X0095196Y0101800D01*
X0093248Y0100993D01*
X0091757Y0099502D01*
X0091250Y0098278D01*
X0090743Y0099502D01*
X0089252Y0100993D01*
X0087304Y0101800D01*
X0085196Y0101800D01*
X0083248Y0100993D01*
X0081757Y0099502D01*
X0081250Y0098278D01*
X0080743Y0099502D01*
X0079252Y0100993D01*
X0077304Y0101800D01*
X0075196Y0101800D01*
X0073248Y0100993D01*
X0071757Y0099502D01*
X0071250Y0098278D01*
X0070743Y0099502D01*
X0069252Y0100993D01*
X0067304Y0101800D01*
X0065196Y0101800D01*
X0063248Y0100993D01*
X0061757Y0099502D01*
X0061250Y0098278D01*
X0060743Y0099502D01*
X0059252Y0100993D01*
X0057304Y0101800D01*
X0055196Y0101800D01*
X0053248Y0100993D01*
X0051757Y0099502D01*
X0051250Y0098278D01*
X0050743Y0099502D01*
X0049252Y0100993D01*
X0047304Y0101800D01*
X0045196Y0101800D01*
X0043248Y0100993D01*
X0041757Y0099502D01*
X0041250Y0098278D01*
X0040743Y0099502D01*
X0039252Y0100993D01*
X0037304Y0101800D01*
X0035196Y0101800D01*
X0033248Y0100993D01*
X0031757Y0099502D01*
X0031250Y0098278D01*
X0030743Y0099502D01*
X0029252Y0100993D01*
X0027304Y0101800D01*
X0025196Y0101800D01*
X0023248Y0100993D01*
X0021757Y0099502D01*
X0021250Y0098278D01*
X0020743Y0099502D01*
X0019252Y0100993D01*
X0017304Y0101800D01*
X0015196Y0101800D01*
X0013248Y0100993D01*
X0012250Y0099995D01*
X0012250Y0139672D01*
X0024194Y0151615D01*
X0025196Y0151200D01*
X0027304Y0151200D01*
X0029252Y0152007D01*
X0030743Y0153498D01*
X0031250Y0154722D01*
X0031757Y0153498D01*
X0033248Y0152007D01*
X0035196Y0151200D01*
X0037304Y0151200D01*
X0039252Y0152007D01*
X0040743Y0153498D01*
X0041250Y0154722D01*
X0041064Y0154272D02*
X0041436Y0154272D01*
X0041981Y0153274D02*
X0040519Y0153274D01*
X0039521Y0152275D02*
X0042979Y0152275D01*
X0045011Y0151277D02*
X0037489Y0151277D01*
X0035011Y0151277D02*
X0027489Y0151277D01*
X0029521Y0152275D02*
X0032979Y0152275D01*
X0031981Y0153274D02*
X0030519Y0153274D01*
X0031064Y0154272D02*
X0031436Y0154272D01*
X0025011Y0151277D02*
X0023855Y0151277D01*
X0022857Y0150278D02*
X0089643Y0150278D01*
X0088645Y0151277D02*
X0087489Y0151277D01*
X0085011Y0151277D02*
X0077489Y0151277D01*
X0079521Y0152275D02*
X0082979Y0152275D01*
X0081981Y0153274D02*
X0080519Y0153274D01*
X0081064Y0154272D02*
X0081436Y0154272D01*
X0086250Y0156500D02*
X0094250Y0148500D01*
X0132250Y0148500D01*
X0182250Y0098500D01*
X0182250Y0094500D01*
X0178250Y0090500D01*
X0157250Y0090500D01*
X0143250Y0076500D01*
X0121250Y0076500D01*
X0118074Y0080400D02*
X0116641Y0079806D01*
X0115544Y0078709D01*
X0114950Y0077276D01*
X0114950Y0075724D01*
X0115457Y0074500D01*
X0112043Y0074500D01*
X0112550Y0075724D01*
X0112550Y0077276D01*
X0111956Y0078709D01*
X0110859Y0079806D01*
X0110524Y0079945D01*
X0111250Y0080672D01*
X0122917Y0092338D01*
X0123248Y0092007D01*
X0125196Y0091200D01*
X0127304Y0091200D01*
X0129252Y0092007D01*
X0130743Y0093498D01*
X0131250Y0094722D01*
X0131757Y0093498D01*
X0133248Y0092007D01*
X0135196Y0091200D01*
X0137304Y0091200D01*
X0139252Y0092007D01*
X0140743Y0093498D01*
X0141253Y0094728D01*
X0141338Y0094466D01*
X0141717Y0093722D01*
X0142207Y0093047D01*
X0142797Y0092457D01*
X0143472Y0091967D01*
X0144216Y0091588D01*
X0145009Y0091330D01*
X0145750Y0091213D01*
X0145750Y0096000D01*
X0146750Y0096000D01*
X0146750Y0091213D01*
X0147491Y0091330D01*
X0148284Y0091588D01*
X0149028Y0091967D01*
X0149703Y0092457D01*
X0150293Y0093047D01*
X0150783Y0093722D01*
X0151162Y0094466D01*
X0151247Y0094728D01*
X0151757Y0093498D01*
X0153248Y0092007D01*
X0155143Y0091222D01*
X0142422Y0078500D01*
X0127043Y0078500D01*
X0126956Y0078709D01*
X0125859Y0079806D01*
X0124426Y0080400D01*
X0118074Y0080400D01*
X0118032Y0080382D02*
X0110961Y0080382D01*
X0111282Y0079384D02*
X0116218Y0079384D01*
X0115410Y0078385D02*
X0112090Y0078385D01*
X0112504Y0077387D02*
X0114996Y0077387D01*
X0114950Y0076388D02*
X0112550Y0076388D01*
X0112411Y0075390D02*
X0115089Y0075390D01*
X0111959Y0081381D02*
X0145302Y0081381D01*
X0144304Y0080382D02*
X0124468Y0080382D01*
X0126282Y0079384D02*
X0143305Y0079384D01*
X0146301Y0082379D02*
X0112958Y0082379D01*
X0113956Y0083378D02*
X0147300Y0083378D01*
X0148298Y0084376D02*
X0114955Y0084376D01*
X0115953Y0085375D02*
X0149297Y0085375D01*
X0150295Y0086373D02*
X0116952Y0086373D01*
X0117950Y0087372D02*
X0151294Y0087372D01*
X0152292Y0088370D02*
X0118949Y0088370D01*
X0119947Y0089369D02*
X0153291Y0089369D01*
X0154289Y0090368D02*
X0120946Y0090368D01*
X0121944Y0091366D02*
X0124795Y0091366D01*
X0127705Y0091366D02*
X0134795Y0091366D01*
X0132890Y0092365D02*
X0129610Y0092365D01*
X0130608Y0093363D02*
X0131892Y0093363D01*
X0131399Y0094362D02*
X0131101Y0094362D01*
X0131218Y0098356D02*
X0131282Y0098356D01*
X0131696Y0099354D02*
X0130804Y0099354D01*
X0129893Y0100353D02*
X0132607Y0100353D01*
X0134112Y0101351D02*
X0128388Y0101351D01*
X0124112Y0101351D02*
X0118388Y0101351D01*
X0119893Y0100353D02*
X0122607Y0100353D01*
X0121696Y0099354D02*
X0120804Y0099354D01*
X0121218Y0098356D02*
X0121282Y0098356D01*
X0124250Y0096500D02*
X0109250Y0081500D01*
X0069250Y0081500D01*
X0066250Y0081500D01*
X0069250Y0081500D02*
X0069250Y0075500D01*
X0074250Y0070500D01*
X0132250Y0070500D01*
X0140250Y0062500D01*
X0168250Y0062500D01*
X0172250Y0066500D01*
X0176250Y0066500D01*
X0178867Y0069399D02*
X0188821Y0069399D01*
X0188821Y0070397D02*
X0177032Y0070397D01*
X0175468Y0070397D02*
X0172976Y0070397D01*
X0173633Y0069399D02*
X0171977Y0069399D01*
X0171322Y0068400D02*
X0170979Y0068400D01*
X0170323Y0067402D02*
X0170098Y0067402D01*
X0166250Y0066500D02*
X0181250Y0081500D01*
X0183889Y0084376D02*
X0188821Y0084376D01*
X0188821Y0083378D02*
X0184887Y0083378D01*
X0185150Y0082379D02*
X0188821Y0082379D01*
X0188821Y0081381D02*
X0185150Y0081381D01*
X0185150Y0080382D02*
X0188821Y0080382D01*
X0188821Y0079384D02*
X0184649Y0079384D01*
X0183651Y0078385D02*
X0188821Y0078385D01*
X0188821Y0077387D02*
X0179965Y0077387D01*
X0178967Y0076388D02*
X0188821Y0076388D01*
X0188821Y0075390D02*
X0177968Y0075390D01*
X0176970Y0074391D02*
X0188821Y0074391D01*
X0188821Y0073393D02*
X0175971Y0073393D01*
X0174973Y0072394D02*
X0188821Y0072394D01*
X0188821Y0071396D02*
X0173974Y0071396D01*
X0179684Y0068400D02*
X0188821Y0068400D01*
X0188821Y0067402D02*
X0180098Y0067402D01*
X0180150Y0066403D02*
X0188821Y0066403D01*
X0188821Y0065405D02*
X0180018Y0065405D01*
X0179604Y0064406D02*
X0188821Y0064406D01*
X0188821Y0063408D02*
X0178673Y0063408D01*
X0176783Y0059181D02*
X0175717Y0059181D01*
X0174731Y0058773D01*
X0174458Y0058500D01*
X0157043Y0058500D01*
X0156956Y0058709D01*
X0155859Y0059806D01*
X0154426Y0060400D01*
X0148074Y0060400D01*
X0146641Y0059806D01*
X0145544Y0058709D01*
X0144950Y0057276D01*
X0144950Y0055724D01*
X0145544Y0054291D01*
X0146641Y0053194D01*
X0148074Y0052600D01*
X0154426Y0052600D01*
X0155859Y0053194D01*
X0156956Y0054291D01*
X0157043Y0054500D01*
X0174458Y0054500D01*
X0174731Y0054227D01*
X0175717Y0053819D01*
X0176783Y0053819D01*
X0177769Y0054227D01*
X0178523Y0054981D01*
X0178931Y0055967D01*
X0178931Y0057033D01*
X0178523Y0058019D01*
X0177769Y0058773D01*
X0176783Y0059181D01*
X0178126Y0058415D02*
X0188821Y0058415D01*
X0188821Y0057417D02*
X0178772Y0057417D01*
X0178931Y0056418D02*
X0188821Y0056418D01*
X0188821Y0055420D02*
X0178704Y0055420D01*
X0177963Y0054421D02*
X0188821Y0054421D01*
X0188821Y0053423D02*
X0156088Y0053423D01*
X0157010Y0054421D02*
X0174537Y0054421D01*
X0176250Y0056500D02*
X0151250Y0056500D01*
X0146412Y0053423D02*
X0126088Y0053423D01*
X0127010Y0054421D02*
X0145490Y0054421D01*
X0145076Y0055420D02*
X0127424Y0055420D01*
X0127550Y0056418D02*
X0144950Y0056418D01*
X0145008Y0057417D02*
X0127492Y0057417D01*
X0127078Y0058415D02*
X0145422Y0058415D01*
X0146248Y0059414D02*
X0126252Y0059414D01*
X0129250Y0062500D02*
X0131250Y0064500D01*
X0133138Y0066403D02*
X0133518Y0066403D01*
X0133777Y0065405D02*
X0134517Y0065405D01*
X0133931Y0064406D02*
X0135515Y0064406D01*
X0136514Y0063408D02*
X0133700Y0063408D01*
X0132951Y0062409D02*
X0137512Y0062409D01*
X0138511Y0061411D02*
X0130989Y0061411D01*
X0129250Y0062500D02*
X0119250Y0062500D01*
X0113250Y0056500D01*
X0106250Y0056500D01*
X0111088Y0053423D02*
X0116412Y0053423D01*
X0115490Y0054421D02*
X0112010Y0054421D01*
X0114998Y0055420D02*
X0115076Y0055420D01*
X0113335Y0059414D02*
X0111252Y0059414D01*
X0114334Y0060412D02*
X0071166Y0060412D01*
X0070168Y0061411D02*
X0115332Y0061411D01*
X0116331Y0062409D02*
X0069169Y0062409D01*
X0068171Y0063408D02*
X0071458Y0063408D01*
X0070559Y0064406D02*
X0067172Y0064406D01*
X0066174Y0065405D02*
X0070091Y0065405D01*
X0070053Y0067402D02*
X0064177Y0067402D01*
X0065175Y0066403D02*
X0075950Y0066403D01*
X0076250Y0066500D02*
X0083250Y0066500D01*
X0083250Y0052500D01*
X0064250Y0033500D01*
X0071250Y0026500D01*
X0076250Y0026500D01*
X0076550Y0026463D02*
X0082350Y0026463D01*
X0082350Y0027461D02*
X0080150Y0027461D01*
X0080150Y0026800D02*
X0080150Y0029284D01*
X0080000Y0030038D01*
X0079706Y0030747D01*
X0079279Y0031386D01*
X0078736Y0031929D01*
X0078097Y0032356D01*
X0077388Y0032650D01*
X0076634Y0032800D01*
X0076550Y0032800D01*
X0076550Y0026800D01*
X0075950Y0026800D01*
X0075950Y0032800D01*
X0075866Y0032800D01*
X0075112Y0032650D01*
X0074403Y0032356D01*
X0073764Y0031929D01*
X0073221Y0031386D01*
X0072794Y0030747D01*
X0072500Y0030038D01*
X0072350Y0029284D01*
X0072350Y0026800D01*
X0075950Y0026800D01*
X0075950Y0026200D01*
X0072350Y0026200D01*
X0072350Y0023716D01*
X0072393Y0023500D01*
X0069765Y0023500D01*
X0067865Y0025400D01*
X0064635Y0025400D01*
X0062350Y0023115D01*
X0062350Y0019885D01*
X0064635Y0017600D01*
X0067865Y0017600D01*
X0069765Y0019500D01*
X0072422Y0019500D01*
X0073250Y0018672D01*
X0074422Y0017500D01*
X0090078Y0017500D01*
X0093706Y0021128D01*
X0094041Y0020794D01*
X0095474Y0020200D01*
X0097026Y0020200D01*
X0098459Y0020794D01*
X0099556Y0021891D01*
X0100150Y0023324D01*
X0100150Y0029676D01*
X0099556Y0031109D01*
X0098459Y0032206D01*
X0097026Y0032800D01*
X0095474Y0032800D01*
X0094041Y0032206D01*
X0092944Y0031109D01*
X0092350Y0029676D01*
X0092350Y0025428D01*
X0090082Y0023161D01*
X0090150Y0023324D01*
X0090150Y0029676D01*
X0089556Y0031109D01*
X0088459Y0032206D01*
X0087026Y0032800D01*
X0085474Y0032800D01*
X0084041Y0032206D01*
X0082944Y0031109D01*
X0082350Y0029676D01*
X0082350Y0023324D01*
X0082944Y0021891D01*
X0083335Y0021500D01*
X0079165Y0021500D01*
X0079279Y0021614D01*
X0079706Y0022253D01*
X0080000Y0022962D01*
X0080150Y0023716D01*
X0080150Y0026200D01*
X0076550Y0026200D01*
X0076550Y0026800D01*
X0080150Y0026800D01*
X0080150Y0025464D02*
X0082350Y0025464D01*
X0082350Y0024466D02*
X0080150Y0024466D01*
X0080101Y0023467D02*
X0082350Y0023467D01*
X0082704Y0022469D02*
X0079796Y0022469D01*
X0075250Y0019500D02*
X0089250Y0019500D01*
X0096250Y0026500D01*
X0100150Y0026463D02*
X0111050Y0026463D01*
X0111050Y0025466D02*
X0111050Y0027534D01*
X0111842Y0029446D01*
X0113304Y0030908D01*
X0115216Y0031700D01*
X0117284Y0031700D01*
X0119196Y0030908D01*
X0120658Y0029446D01*
X0121250Y0028017D01*
X0121842Y0029446D01*
X0122250Y0029854D01*
X0122250Y0037296D01*
X0122859Y0038766D01*
X0123984Y0039891D01*
X0125454Y0040500D01*
X0164659Y0040500D01*
X0165034Y0040875D01*
X0165120Y0040911D01*
X0164638Y0041261D01*
X0164121Y0041778D01*
X0163691Y0042370D01*
X0163358Y0043022D01*
X0163132Y0043718D01*
X0163018Y0044441D01*
X0163018Y0044618D01*
X0167478Y0044618D01*
X0167478Y0044996D01*
X0163018Y0044996D01*
X0163018Y0045173D01*
X0163132Y0045896D01*
X0163358Y0046592D01*
X0163691Y0047244D01*
X0164121Y0047836D01*
X0164638Y0048354D01*
X0165230Y0048784D01*
X0165882Y0049116D01*
X0166579Y0049342D01*
X0167301Y0049457D01*
X0167478Y0049457D01*
X0167478Y0044996D01*
X0167856Y0044996D01*
X0167856Y0049457D01*
X0168033Y0049457D01*
X0168756Y0049342D01*
X0169452Y0049116D01*
X0170104Y0048784D01*
X0170696Y0048354D01*
X0171214Y0047836D01*
X0171644Y0047244D01*
X0171976Y0046592D01*
X0172202Y0045896D01*
X0172317Y0045173D01*
X0172317Y0044996D01*
X0167856Y0044996D01*
X0167856Y0044618D01*
X0172317Y0044618D01*
X0172317Y0044441D01*
X0172202Y0043718D01*
X0171976Y0043022D01*
X0171644Y0042370D01*
X0171214Y0041778D01*
X0170696Y0041261D01*
X0170215Y0040911D01*
X0170301Y0040875D01*
X0171609Y0039567D01*
X0172317Y0037858D01*
X0172317Y0036008D01*
X0171609Y0034299D01*
X0170301Y0032991D01*
X0168592Y0032283D01*
X0166742Y0032283D01*
X0166220Y0032500D01*
X0130250Y0032500D01*
X0130250Y0029854D01*
X0130658Y0029446D01*
X0131250Y0028017D01*
X0131842Y0029446D01*
X0133304Y0030908D01*
X0135216Y0031700D01*
X0137284Y0031700D01*
X0139196Y0030908D01*
X0140658Y0029446D01*
X0141450Y0027534D01*
X0141450Y0025466D01*
X0140658Y0023554D01*
X0139196Y0022092D01*
X0137284Y0021300D01*
X0135216Y0021300D01*
X0133304Y0022092D01*
X0131842Y0023554D01*
X0131250Y0024983D01*
X0130658Y0023554D01*
X0130250Y0023146D01*
X0130250Y0010704D01*
X0129641Y0009234D01*
X0128516Y0008109D01*
X0127046Y0007500D01*
X0050454Y0007500D01*
X0048984Y0008109D01*
X0047859Y0009234D01*
X0047250Y0010704D01*
X0047250Y0022500D01*
X0015454Y0022500D01*
X0013984Y0023109D01*
X0012859Y0024234D01*
X0012250Y0025704D01*
X0012250Y0062296D01*
X0012350Y0062537D01*
X0012350Y0064676D01*
X0012944Y0066109D01*
X0014041Y0067206D01*
X0015474Y0067800D01*
X0017026Y0067800D01*
X0018459Y0067206D01*
X0019556Y0066109D01*
X0020150Y0064676D01*
X0020150Y0062537D01*
X0020250Y0062296D01*
X0020250Y0030500D01*
X0047250Y0030500D01*
X0047250Y0033924D01*
X0046600Y0034574D01*
X0046600Y0038426D01*
X0049324Y0041150D01*
X0053176Y0041150D01*
X0055900Y0038426D01*
X0055900Y0034574D01*
X0055250Y0033924D01*
X0055250Y0015500D01*
X0122250Y0015500D01*
X0122250Y0023146D01*
X0121842Y0023554D01*
X0121250Y0024983D01*
X0120658Y0023554D01*
X0119196Y0022092D01*
X0117284Y0021300D01*
X0115216Y0021300D01*
X0113304Y0022092D01*
X0111842Y0023554D01*
X0111050Y0025466D01*
X0111051Y0025464D02*
X0100150Y0025464D01*
X0100150Y0024466D02*
X0111464Y0024466D01*
X0111929Y0023467D02*
X0100150Y0023467D01*
X0099796Y0022469D02*
X0112927Y0022469D01*
X0114805Y0021470D02*
X0099136Y0021470D01*
X0097682Y0020472D02*
X0122250Y0020472D01*
X0122250Y0021470D02*
X0117695Y0021470D01*
X0119573Y0022469D02*
X0122250Y0022469D01*
X0121929Y0023467D02*
X0120571Y0023467D01*
X0121036Y0024466D02*
X0121464Y0024466D01*
X0121433Y0028460D02*
X0121067Y0028460D01*
X0120646Y0029458D02*
X0121854Y0029458D01*
X0122250Y0030457D02*
X0119647Y0030457D01*
X0117875Y0031455D02*
X0122250Y0031455D01*
X0122250Y0032454D02*
X0097861Y0032454D01*
X0099210Y0031455D02*
X0114625Y0031455D01*
X0112853Y0030457D02*
X0099826Y0030457D01*
X0100150Y0029458D02*
X0111854Y0029458D01*
X0111433Y0028460D02*
X0100150Y0028460D01*
X0100150Y0027461D02*
X0111050Y0027461D01*
X0122250Y0033452D02*
X0055250Y0033452D01*
X0055250Y0032454D02*
X0074639Y0032454D01*
X0075950Y0032454D02*
X0076550Y0032454D01*
X0076550Y0031455D02*
X0075950Y0031455D01*
X0075950Y0030457D02*
X0076550Y0030457D01*
X0076550Y0029458D02*
X0075950Y0029458D01*
X0075950Y0028460D02*
X0076550Y0028460D01*
X0076550Y0027461D02*
X0075950Y0027461D01*
X0075950Y0026463D02*
X0055250Y0026463D01*
X0055250Y0027461D02*
X0072350Y0027461D01*
X0072350Y0028460D02*
X0055250Y0028460D01*
X0055250Y0029458D02*
X0072385Y0029458D01*
X0072674Y0030457D02*
X0055250Y0030457D01*
X0055250Y0031455D02*
X0073290Y0031455D01*
X0077861Y0032454D02*
X0084639Y0032454D01*
X0083290Y0031455D02*
X0079210Y0031455D01*
X0079826Y0030457D02*
X0082674Y0030457D01*
X0082350Y0029458D02*
X0080115Y0029458D01*
X0080150Y0028460D02*
X0082350Y0028460D01*
X0087861Y0032454D02*
X0094639Y0032454D01*
X0093290Y0031455D02*
X0089210Y0031455D01*
X0089826Y0030457D02*
X0092674Y0030457D01*
X0092350Y0029458D02*
X0090150Y0029458D01*
X0090150Y0028460D02*
X0092350Y0028460D01*
X0092350Y0027461D02*
X0090150Y0027461D01*
X0090150Y0026463D02*
X0092350Y0026463D01*
X0092350Y0025464D02*
X0090150Y0025464D01*
X0090150Y0024466D02*
X0091387Y0024466D01*
X0090389Y0023467D02*
X0090150Y0023467D01*
X0093050Y0020472D02*
X0094818Y0020472D01*
X0092052Y0019473D02*
X0122250Y0019473D01*
X0122250Y0018475D02*
X0091053Y0018475D01*
X0075250Y0019500D02*
X0073250Y0021500D01*
X0066250Y0021500D01*
X0062350Y0021470D02*
X0055250Y0021470D01*
X0055250Y0020472D02*
X0062350Y0020472D01*
X0062761Y0019473D02*
X0055250Y0019473D01*
X0055250Y0018475D02*
X0063760Y0018475D01*
X0062350Y0022469D02*
X0055250Y0022469D01*
X0055250Y0023467D02*
X0062702Y0023467D01*
X0063700Y0024466D02*
X0055250Y0024466D01*
X0055250Y0025464D02*
X0072350Y0025464D01*
X0072350Y0024466D02*
X0068800Y0024466D01*
X0069739Y0019473D02*
X0072448Y0019473D01*
X0073447Y0018475D02*
X0068740Y0018475D01*
X0055250Y0017476D02*
X0122250Y0017476D01*
X0122250Y0016478D02*
X0055250Y0016478D01*
X0047250Y0016478D02*
X0026239Y0016478D01*
X0025826Y0017476D02*
X0047250Y0017476D01*
X0047250Y0018475D02*
X0025297Y0018475D01*
X0025494Y0018278D02*
X0023028Y0020744D01*
X0019805Y0022079D01*
X0016317Y0022079D01*
X0013095Y0020744D01*
X0010628Y0018278D01*
X0009293Y0015055D01*
X0009293Y0011567D01*
X0010628Y0008345D01*
X0013095Y0005878D01*
X0016317Y0004543D01*
X0019805Y0004543D01*
X0023028Y0005878D01*
X0025494Y0008345D01*
X0026829Y0011567D01*
X0026829Y0015055D01*
X0025494Y0018278D01*
X0024298Y0019473D02*
X0047250Y0019473D01*
X0047250Y0020472D02*
X0023300Y0020472D01*
X0021274Y0021470D02*
X0047250Y0021470D01*
X0047250Y0022469D02*
X0008718Y0022469D01*
X0008718Y0023467D02*
X0013626Y0023467D01*
X0012763Y0024466D02*
X0008718Y0024466D01*
X0008718Y0025464D02*
X0012349Y0025464D01*
X0012250Y0026463D02*
X0008718Y0026463D01*
X0008718Y0027461D02*
X0012250Y0027461D01*
X0012250Y0028460D02*
X0008718Y0028460D01*
X0008718Y0029458D02*
X0012250Y0029458D01*
X0012250Y0030457D02*
X0008718Y0030457D01*
X0008718Y0031455D02*
X0012250Y0031455D01*
X0012250Y0032454D02*
X0008718Y0032454D01*
X0008718Y0033452D02*
X0012250Y0033452D01*
X0012250Y0034451D02*
X0008718Y0034451D01*
X0008718Y0035449D02*
X0012250Y0035449D01*
X0012250Y0036448D02*
X0008718Y0036448D01*
X0008718Y0037446D02*
X0012250Y0037446D01*
X0012250Y0038445D02*
X0008718Y0038445D01*
X0008718Y0039443D02*
X0012250Y0039443D01*
X0012250Y0040442D02*
X0008718Y0040442D01*
X0008718Y0041440D02*
X0012250Y0041440D01*
X0012250Y0042439D02*
X0008718Y0042439D01*
X0008718Y0043437D02*
X0012250Y0043437D01*
X0012250Y0044436D02*
X0008718Y0044436D01*
X0008718Y0045434D02*
X0012250Y0045434D01*
X0012250Y0046433D02*
X0008718Y0046433D01*
X0008718Y0047432D02*
X0012250Y0047432D01*
X0012250Y0048430D02*
X0008718Y0048430D01*
X0008718Y0049429D02*
X0012250Y0049429D01*
X0012250Y0050427D02*
X0008718Y0050427D01*
X0008718Y0051426D02*
X0012250Y0051426D01*
X0012250Y0052424D02*
X0008718Y0052424D01*
X0008718Y0053423D02*
X0012250Y0053423D01*
X0012250Y0054421D02*
X0008718Y0054421D01*
X0008718Y0055420D02*
X0012250Y0055420D01*
X0012250Y0056418D02*
X0008718Y0056418D01*
X0008718Y0057417D02*
X0012250Y0057417D01*
X0012250Y0058415D02*
X0008718Y0058415D01*
X0008718Y0059414D02*
X0012250Y0059414D01*
X0012250Y0060412D02*
X0008718Y0060412D01*
X0008718Y0061411D02*
X0012250Y0061411D01*
X0012297Y0062409D02*
X0008718Y0062409D01*
X0008718Y0063408D02*
X0012350Y0063408D01*
X0012350Y0064406D02*
X0008718Y0064406D01*
X0008718Y0065405D02*
X0012652Y0065405D01*
X0013238Y0066403D02*
X0008718Y0066403D01*
X0008718Y0067402D02*
X0014513Y0067402D01*
X0017987Y0067402D02*
X0024513Y0067402D01*
X0024041Y0067206D02*
X0022944Y0066109D01*
X0022350Y0064676D01*
X0022350Y0058324D01*
X0022944Y0056891D01*
X0024041Y0055794D01*
X0025474Y0055200D01*
X0027026Y0055200D01*
X0028459Y0055794D01*
X0029556Y0056891D01*
X0030150Y0058324D01*
X0030150Y0062572D01*
X0039397Y0071819D01*
X0039783Y0071819D01*
X0040769Y0072227D01*
X0041523Y0072981D01*
X0041931Y0073967D01*
X0041931Y0075033D01*
X0041523Y0076019D01*
X0040769Y0076773D01*
X0039783Y0077181D01*
X0038717Y0077181D01*
X0037731Y0076773D01*
X0036977Y0076019D01*
X0036569Y0075033D01*
X0036569Y0074647D01*
X0028793Y0066872D01*
X0028459Y0067206D01*
X0027026Y0067800D01*
X0025474Y0067800D01*
X0024041Y0067206D01*
X0023238Y0066403D02*
X0019262Y0066403D01*
X0019848Y0065405D02*
X0022652Y0065405D01*
X0022350Y0064406D02*
X0020150Y0064406D01*
X0020150Y0063408D02*
X0022350Y0063408D01*
X0022350Y0062409D02*
X0020203Y0062409D01*
X0020250Y0061411D02*
X0022350Y0061411D01*
X0022350Y0060412D02*
X0020250Y0060412D01*
X0020250Y0059414D02*
X0022350Y0059414D01*
X0022350Y0058415D02*
X0020250Y0058415D01*
X0020250Y0057417D02*
X0022726Y0057417D01*
X0023416Y0056418D02*
X0020250Y0056418D01*
X0020250Y0055420D02*
X0024944Y0055420D01*
X0027556Y0055420D02*
X0037250Y0055420D01*
X0037250Y0056418D02*
X0029084Y0056418D01*
X0029774Y0057417D02*
X0037250Y0057417D01*
X0037250Y0058415D02*
X0030150Y0058415D01*
X0030150Y0059414D02*
X0037250Y0059414D01*
X0037250Y0060412D02*
X0030150Y0060412D01*
X0030150Y0061411D02*
X0037250Y0061411D01*
X0037297Y0062409D02*
X0030150Y0062409D01*
X0030986Y0063408D02*
X0037711Y0063408D01*
X0038499Y0064406D02*
X0031985Y0064406D01*
X0032983Y0065405D02*
X0040224Y0065405D01*
X0036977Y0069399D02*
X0053523Y0069399D01*
X0052524Y0070397D02*
X0037976Y0070397D01*
X0038974Y0071396D02*
X0051526Y0071396D01*
X0050527Y0072394D02*
X0040936Y0072394D01*
X0041693Y0073393D02*
X0049529Y0073393D01*
X0048530Y0074391D02*
X0041931Y0074391D01*
X0041783Y0075390D02*
X0047532Y0075390D01*
X0046533Y0076388D02*
X0041153Y0076388D01*
X0039250Y0074500D02*
X0026250Y0061500D01*
X0027987Y0067402D02*
X0029323Y0067402D01*
X0030322Y0068400D02*
X0008718Y0068400D01*
X0008718Y0069399D02*
X0031320Y0069399D01*
X0032319Y0070397D02*
X0008718Y0070397D01*
X0008718Y0071396D02*
X0033317Y0071396D01*
X0034316Y0072394D02*
X0008718Y0072394D01*
X0008718Y0073393D02*
X0035314Y0073393D01*
X0036313Y0074391D02*
X0008718Y0074391D01*
X0008718Y0075390D02*
X0015016Y0075390D01*
X0015112Y0075350D02*
X0015866Y0075200D01*
X0015950Y0075200D01*
X0015950Y0081200D01*
X0016550Y0081200D01*
X0016550Y0081800D01*
X0020150Y0081800D01*
X0020150Y0084284D01*
X0020000Y0085038D01*
X0019706Y0085747D01*
X0019279Y0086386D01*
X0018736Y0086929D01*
X0018097Y0087356D01*
X0017388Y0087650D01*
X0016634Y0087800D01*
X0016550Y0087800D01*
X0016550Y0081800D01*
X0015950Y0081800D01*
X0015950Y0087800D01*
X0015866Y0087800D01*
X0015112Y0087650D01*
X0014403Y0087356D01*
X0013764Y0086929D01*
X0013221Y0086386D01*
X0012794Y0085747D01*
X0012500Y0085038D01*
X0012350Y0084284D01*
X0012350Y0081800D01*
X0015950Y0081800D01*
X0015950Y0081200D01*
X0012350Y0081200D01*
X0012350Y0078716D01*
X0012500Y0077962D01*
X0012794Y0077253D01*
X0013221Y0076614D01*
X0013764Y0076071D01*
X0014403Y0075644D01*
X0015112Y0075350D01*
X0015950Y0075390D02*
X0016550Y0075390D01*
X0016550Y0075200D02*
X0016634Y0075200D01*
X0017388Y0075350D01*
X0018097Y0075644D01*
X0018736Y0076071D01*
X0019279Y0076614D01*
X0019706Y0077253D01*
X0020000Y0077962D01*
X0020150Y0078716D01*
X0020150Y0081200D01*
X0016550Y0081200D01*
X0016550Y0075200D01*
X0017484Y0075390D02*
X0025016Y0075390D01*
X0023446Y0076388D02*
X0019054Y0076388D01*
X0019762Y0077387D02*
X0022738Y0077387D01*
X0022350Y0078385D02*
X0020084Y0078385D01*
X0020150Y0079384D02*
X0022350Y0079384D01*
X0022350Y0080382D02*
X0020150Y0080382D01*
X0020150Y0082379D02*
X0022350Y0082379D01*
X0022350Y0081381D02*
X0016550Y0081381D01*
X0015950Y0081381D02*
X0008718Y0081381D01*
X0008718Y0082379D02*
X0012350Y0082379D01*
X0012350Y0083378D02*
X0008718Y0083378D01*
X0008718Y0084376D02*
X0012368Y0084376D01*
X0012640Y0085375D02*
X0008718Y0085375D01*
X0008718Y0086373D02*
X0013212Y0086373D01*
X0014441Y0087372D02*
X0008718Y0087372D01*
X0008718Y0088370D02*
X0037551Y0088370D01*
X0038550Y0087372D02*
X0028059Y0087372D01*
X0029292Y0086373D02*
X0039548Y0086373D01*
X0040547Y0085375D02*
X0029860Y0085375D01*
X0030150Y0084376D02*
X0041545Y0084376D01*
X0044250Y0081500D02*
X0066250Y0059500D01*
X0066250Y0051500D01*
X0071082Y0053423D02*
X0071412Y0053423D01*
X0071450Y0052424D02*
X0188821Y0052424D01*
X0188821Y0051426D02*
X0071450Y0051426D01*
X0071434Y0050427D02*
X0188821Y0050427D01*
X0188821Y0049429D02*
X0168211Y0049429D01*
X0167856Y0049429D02*
X0167478Y0049429D01*
X0167124Y0049429D02*
X0071020Y0049429D01*
X0070534Y0048430D02*
X0164744Y0048430D01*
X0163827Y0047432D02*
X0069535Y0047432D01*
X0067605Y0046433D02*
X0163307Y0046433D01*
X0163059Y0045434D02*
X0055900Y0045434D01*
X0055900Y0046200D02*
X0051550Y0046200D01*
X0051550Y0046800D01*
X0050950Y0046800D01*
X0050950Y0051150D01*
X0049324Y0051150D01*
X0046600Y0048426D01*
X0046600Y0046800D01*
X0050950Y0046800D01*
X0050950Y0046200D01*
X0046600Y0046200D01*
X0046600Y0044574D01*
X0049324Y0041850D01*
X0050950Y0041850D01*
X0050950Y0046200D01*
X0051550Y0046200D01*
X0051550Y0041850D01*
X0053176Y0041850D01*
X0055900Y0044574D01*
X0055900Y0046200D01*
X0055900Y0046800D02*
X0055900Y0048426D01*
X0053176Y0051150D01*
X0051550Y0051150D01*
X0051550Y0046800D01*
X0055900Y0046800D01*
X0055900Y0047432D02*
X0062965Y0047432D01*
X0061966Y0048430D02*
X0055896Y0048430D01*
X0054898Y0049429D02*
X0061480Y0049429D01*
X0061066Y0050427D02*
X0053899Y0050427D01*
X0051550Y0050427D02*
X0050950Y0050427D01*
X0050950Y0049429D02*
X0051550Y0049429D01*
X0051550Y0048430D02*
X0050950Y0048430D01*
X0050950Y0047432D02*
X0051550Y0047432D01*
X0051250Y0046500D02*
X0064250Y0033500D01*
X0064635Y0037600D02*
X0067865Y0037600D01*
X0070150Y0039885D01*
X0070150Y0043115D01*
X0067865Y0045400D01*
X0064635Y0045400D01*
X0062350Y0043115D01*
X0062350Y0039885D01*
X0064635Y0037600D01*
X0063790Y0038445D02*
X0055881Y0038445D01*
X0055900Y0037446D02*
X0122312Y0037446D01*
X0122250Y0036448D02*
X0055900Y0036448D01*
X0055900Y0035449D02*
X0122250Y0035449D01*
X0122250Y0034451D02*
X0055777Y0034451D01*
X0054883Y0039443D02*
X0062791Y0039443D01*
X0062350Y0040442D02*
X0053884Y0040442D01*
X0053765Y0042439D02*
X0062350Y0042439D01*
X0062350Y0041440D02*
X0045250Y0041440D01*
X0045250Y0040442D02*
X0048616Y0040442D01*
X0047617Y0039443D02*
X0045250Y0039443D01*
X0045250Y0038445D02*
X0046619Y0038445D01*
X0046600Y0037446D02*
X0045250Y0037446D01*
X0045250Y0036448D02*
X0046600Y0036448D01*
X0046600Y0035449D02*
X0045144Y0035449D01*
X0044731Y0034451D02*
X0046723Y0034451D01*
X0047250Y0033452D02*
X0043859Y0033452D01*
X0047250Y0032454D02*
X0031208Y0032454D01*
X0028536Y0032454D02*
X0020250Y0032454D01*
X0020250Y0033452D02*
X0026777Y0033452D01*
X0025868Y0034451D02*
X0020250Y0034451D01*
X0020250Y0035449D02*
X0025454Y0035449D01*
X0025222Y0036448D02*
X0020250Y0036448D01*
X0020250Y0037446D02*
X0025222Y0037446D01*
X0025466Y0038445D02*
X0020250Y0038445D01*
X0020250Y0039443D02*
X0025879Y0039443D01*
X0026805Y0040442D02*
X0020250Y0040442D01*
X0020250Y0041440D02*
X0026663Y0041440D01*
X0025860Y0042439D02*
X0020250Y0042439D01*
X0020250Y0043437D02*
X0025428Y0043437D01*
X0025223Y0044436D02*
X0020250Y0044436D01*
X0020250Y0045434D02*
X0025264Y0045434D01*
X0025511Y0046433D02*
X0020250Y0046433D01*
X0020250Y0047432D02*
X0026032Y0047432D01*
X0026948Y0048430D02*
X0020250Y0048430D01*
X0020250Y0049429D02*
X0029328Y0049429D01*
X0029683Y0049429D02*
X0030061Y0049429D01*
X0030416Y0049429D02*
X0037250Y0049429D01*
X0037250Y0050427D02*
X0020250Y0050427D01*
X0020250Y0051426D02*
X0037250Y0051426D01*
X0037250Y0052424D02*
X0020250Y0052424D01*
X0020250Y0053423D02*
X0037250Y0053423D01*
X0037250Y0054421D02*
X0020250Y0054421D01*
X0029683Y0048430D02*
X0030061Y0048430D01*
X0030061Y0047432D02*
X0029683Y0047432D01*
X0029683Y0046433D02*
X0030061Y0046433D01*
X0030061Y0045434D02*
X0029683Y0045434D01*
X0032796Y0048430D02*
X0037250Y0048430D01*
X0037250Y0047432D02*
X0033713Y0047432D01*
X0034233Y0046433D02*
X0037250Y0046433D01*
X0037250Y0045434D02*
X0034480Y0045434D01*
X0034521Y0044436D02*
X0037250Y0044436D01*
X0037250Y0043437D02*
X0034316Y0043437D01*
X0033884Y0042439D02*
X0037250Y0042439D01*
X0037250Y0041440D02*
X0033081Y0041440D01*
X0045250Y0042439D02*
X0048735Y0042439D01*
X0047736Y0043437D02*
X0045250Y0043437D01*
X0045250Y0044436D02*
X0046738Y0044436D01*
X0046600Y0045434D02*
X0045250Y0045434D01*
X0045250Y0046433D02*
X0050950Y0046433D01*
X0051550Y0046433D02*
X0064895Y0046433D01*
X0063671Y0044436D02*
X0055762Y0044436D01*
X0054764Y0043437D02*
X0062672Y0043437D01*
X0068829Y0044436D02*
X0163019Y0044436D01*
X0163223Y0043437D02*
X0069828Y0043437D01*
X0070150Y0042439D02*
X0163656Y0042439D01*
X0164458Y0041440D02*
X0070150Y0041440D01*
X0070150Y0040442D02*
X0125314Y0040442D01*
X0123537Y0039443D02*
X0069709Y0039443D01*
X0068710Y0038445D02*
X0122726Y0038445D01*
X0130250Y0032454D02*
X0166331Y0032454D01*
X0169004Y0032454D02*
X0188821Y0032454D01*
X0188821Y0033452D02*
X0170762Y0033452D01*
X0171672Y0034451D02*
X0188821Y0034451D01*
X0188821Y0035449D02*
X0172085Y0035449D01*
X0172317Y0036448D02*
X0188821Y0036448D01*
X0188821Y0037446D02*
X0172317Y0037446D01*
X0172074Y0038445D02*
X0188821Y0038445D01*
X0188821Y0039443D02*
X0171660Y0039443D01*
X0170734Y0040442D02*
X0188821Y0040442D01*
X0188821Y0041440D02*
X0170876Y0041440D01*
X0171679Y0042439D02*
X0188821Y0042439D01*
X0188821Y0043437D02*
X0172111Y0043437D01*
X0172316Y0044436D02*
X0188821Y0044436D01*
X0188821Y0045434D02*
X0172276Y0045434D01*
X0172028Y0046433D02*
X0188821Y0046433D01*
X0188821Y0047432D02*
X0171508Y0047432D01*
X0170591Y0048430D02*
X0188821Y0048430D01*
X0188821Y0059414D02*
X0156252Y0059414D01*
X0167478Y0048430D02*
X0167856Y0048430D01*
X0167856Y0047432D02*
X0167478Y0047432D01*
X0167478Y0046433D02*
X0167856Y0046433D01*
X0167856Y0045434D02*
X0167478Y0045434D01*
X0167250Y0045500D02*
X0167667Y0044807D01*
X0167250Y0045500D02*
X0154250Y0045500D01*
X0132250Y0067500D01*
X0122250Y0067500D01*
X0121250Y0066500D01*
X0083250Y0066500D01*
X0082447Y0067402D02*
X0115053Y0067402D01*
X0115429Y0068400D02*
X0082071Y0068400D01*
X0082409Y0065405D02*
X0115091Y0065405D01*
X0115559Y0064406D02*
X0081941Y0064406D01*
X0081042Y0063408D02*
X0116458Y0063408D01*
X0119991Y0060412D02*
X0188821Y0060412D01*
X0188821Y0061411D02*
X0169989Y0061411D01*
X0170988Y0062409D02*
X0188821Y0062409D01*
X0173827Y0063408D02*
X0171986Y0063408D01*
X0166250Y0072500D02*
X0186250Y0092500D01*
X0186250Y0154500D01*
X0178250Y0162500D01*
X0052250Y0162500D01*
X0046250Y0156500D01*
X0051064Y0154272D02*
X0051436Y0154272D01*
X0051981Y0153274D02*
X0050519Y0153274D01*
X0049521Y0152275D02*
X0052979Y0152275D01*
X0055011Y0151277D02*
X0047489Y0151277D01*
X0057489Y0151277D02*
X0065011Y0151277D01*
X0062979Y0152275D02*
X0059521Y0152275D01*
X0060519Y0153274D02*
X0061981Y0153274D01*
X0061436Y0154272D02*
X0061064Y0154272D01*
X0067489Y0151277D02*
X0075011Y0151277D01*
X0072979Y0152275D02*
X0069521Y0152275D01*
X0070519Y0153274D02*
X0071981Y0153274D01*
X0071436Y0154272D02*
X0071064Y0154272D01*
X0051179Y0164257D02*
X0008718Y0164257D01*
X0008718Y0163259D02*
X0050180Y0163259D01*
X0049182Y0162260D02*
X0008718Y0162260D01*
X0008718Y0161262D02*
X0013896Y0161262D01*
X0012518Y0160263D02*
X0008718Y0160263D01*
X0008718Y0159265D02*
X0011659Y0159265D01*
X0011245Y0158266D02*
X0008718Y0158266D01*
X0008718Y0157268D02*
X0010950Y0157268D01*
X0010950Y0156269D02*
X0008718Y0156269D01*
X0008718Y0155271D02*
X0011022Y0155271D01*
X0011436Y0154272D02*
X0008718Y0154272D01*
X0008718Y0153274D02*
X0011981Y0153274D01*
X0012979Y0152275D02*
X0008718Y0152275D01*
X0008718Y0151277D02*
X0015011Y0151277D01*
X0016201Y0149280D02*
X0008718Y0149280D01*
X0008718Y0150278D02*
X0017200Y0150278D01*
X0017489Y0151277D02*
X0018198Y0151277D01*
X0020860Y0148281D02*
X0091640Y0148281D01*
X0090642Y0149280D02*
X0021858Y0149280D01*
X0019861Y0147283D02*
X0092639Y0147283D01*
X0116250Y0156500D02*
X0122250Y0150500D01*
X0133250Y0150500D01*
X0184250Y0099500D01*
X0184250Y0093500D01*
X0172250Y0081500D01*
X0161250Y0081500D01*
X0166250Y0072500D02*
X0102250Y0072500D01*
X0098250Y0076500D01*
X0076250Y0076500D01*
X0070526Y0071396D02*
X0060183Y0071396D01*
X0061181Y0070397D02*
X0071524Y0070397D01*
X0071233Y0069399D02*
X0062180Y0069399D01*
X0063178Y0068400D02*
X0070429Y0068400D01*
X0069527Y0072394D02*
X0059184Y0072394D01*
X0058186Y0073393D02*
X0068529Y0073393D01*
X0067530Y0074391D02*
X0057187Y0074391D01*
X0057484Y0075390D02*
X0067250Y0075390D01*
X0065002Y0076388D02*
X0059054Y0076388D01*
X0059762Y0077387D02*
X0063009Y0077387D01*
X0062011Y0078385D02*
X0060150Y0078385D01*
X0060150Y0079384D02*
X0061498Y0079384D01*
X0061084Y0080382D02*
X0060150Y0080382D01*
X0060150Y0081381D02*
X0061050Y0081381D01*
X0061050Y0082379D02*
X0060150Y0082379D01*
X0060150Y0083378D02*
X0061399Y0083378D01*
X0061813Y0084376D02*
X0060150Y0084376D01*
X0059860Y0085375D02*
X0062771Y0085375D01*
X0064427Y0086373D02*
X0059292Y0086373D01*
X0058059Y0087372D02*
X0112294Y0087372D01*
X0113292Y0088370D02*
X0043208Y0088370D01*
X0044206Y0087372D02*
X0054441Y0087372D01*
X0053208Y0086373D02*
X0045205Y0086373D01*
X0046203Y0085375D02*
X0052640Y0085375D01*
X0052350Y0084376D02*
X0047202Y0084376D01*
X0048200Y0083378D02*
X0052350Y0083378D01*
X0052350Y0082379D02*
X0049199Y0082379D01*
X0050198Y0081381D02*
X0052350Y0081381D01*
X0052350Y0080382D02*
X0051196Y0080382D01*
X0052195Y0079384D02*
X0052350Y0079384D01*
X0045535Y0077387D02*
X0029762Y0077387D01*
X0030150Y0078385D02*
X0044536Y0078385D01*
X0043538Y0079384D02*
X0030150Y0079384D01*
X0029054Y0076388D02*
X0037347Y0076388D01*
X0036717Y0075390D02*
X0027484Y0075390D01*
X0026250Y0081500D02*
X0044250Y0081500D01*
X0042209Y0089369D02*
X0114291Y0089369D01*
X0115289Y0090368D02*
X0041211Y0090368D01*
X0040212Y0091366D02*
X0044795Y0091366D01*
X0042890Y0092365D02*
X0039610Y0092365D01*
X0040608Y0093363D02*
X0041892Y0093363D01*
X0041399Y0094362D02*
X0041101Y0094362D01*
X0041218Y0098356D02*
X0041282Y0098356D01*
X0041696Y0099354D02*
X0040804Y0099354D01*
X0039893Y0100353D02*
X0042607Y0100353D01*
X0044112Y0101351D02*
X0038388Y0101351D01*
X0034112Y0101351D02*
X0028388Y0101351D01*
X0029893Y0100353D02*
X0032607Y0100353D01*
X0031696Y0099354D02*
X0030804Y0099354D01*
X0031218Y0098356D02*
X0031282Y0098356D01*
X0024112Y0101351D02*
X0018388Y0101351D01*
X0019893Y0100353D02*
X0022607Y0100353D01*
X0021696Y0099354D02*
X0020804Y0099354D01*
X0021218Y0098356D02*
X0021282Y0098356D01*
X0014112Y0101351D02*
X0012250Y0101351D01*
X0012250Y0100353D02*
X0012607Y0100353D01*
X0012250Y0102350D02*
X0175572Y0102350D01*
X0174573Y0103348D02*
X0012250Y0103348D01*
X0012250Y0104347D02*
X0173575Y0104347D01*
X0172576Y0105345D02*
X0012250Y0105345D01*
X0012250Y0106344D02*
X0171578Y0106344D01*
X0170579Y0107342D02*
X0012250Y0107342D01*
X0012250Y0108341D02*
X0169581Y0108341D01*
X0168582Y0109339D02*
X0012250Y0109339D01*
X0012250Y0110338D02*
X0167584Y0110338D01*
X0166585Y0111336D02*
X0012250Y0111336D01*
X0012250Y0112335D02*
X0165587Y0112335D01*
X0164588Y0113333D02*
X0012250Y0113333D01*
X0012250Y0114332D02*
X0163590Y0114332D01*
X0162591Y0115330D02*
X0012250Y0115330D01*
X0012250Y0116329D02*
X0161593Y0116329D01*
X0160594Y0117327D02*
X0012250Y0117327D01*
X0012250Y0118326D02*
X0159596Y0118326D01*
X0158597Y0119324D02*
X0012250Y0119324D01*
X0012250Y0120323D02*
X0157599Y0120323D01*
X0156600Y0121321D02*
X0012250Y0121321D01*
X0012250Y0122320D02*
X0155602Y0122320D01*
X0154603Y0123318D02*
X0012250Y0123318D01*
X0012250Y0124317D02*
X0153605Y0124317D01*
X0152606Y0125315D02*
X0012250Y0125315D01*
X0012250Y0126314D02*
X0151608Y0126314D01*
X0150609Y0127312D02*
X0012250Y0127312D01*
X0012250Y0128311D02*
X0149611Y0128311D01*
X0148612Y0129309D02*
X0012250Y0129309D01*
X0012250Y0130308D02*
X0147614Y0130308D01*
X0146615Y0131306D02*
X0012250Y0131306D01*
X0012250Y0132305D02*
X0145617Y0132305D01*
X0144618Y0133303D02*
X0012250Y0133303D01*
X0012250Y0134302D02*
X0143620Y0134302D01*
X0142621Y0135301D02*
X0012250Y0135301D01*
X0012250Y0136299D02*
X0141623Y0136299D01*
X0140624Y0137298D02*
X0012250Y0137298D01*
X0012250Y0138296D02*
X0139626Y0138296D01*
X0138627Y0139295D02*
X0012250Y0139295D01*
X0012871Y0140293D02*
X0137628Y0140293D01*
X0136630Y0141292D02*
X0013870Y0141292D01*
X0014869Y0142290D02*
X0135631Y0142290D01*
X0134633Y0143289D02*
X0015867Y0143289D01*
X0016866Y0144287D02*
X0133634Y0144287D01*
X0132636Y0145286D02*
X0017864Y0145286D01*
X0018863Y0146284D02*
X0131637Y0146284D01*
X0172045Y0169762D02*
X0170711Y0172984D01*
X0170711Y0176472D01*
X0172045Y0179695D01*
X0174512Y0182161D01*
X0177734Y0183496D01*
X0181222Y0183496D01*
X0184445Y0182161D01*
X0186911Y0179695D01*
X0188246Y0176472D01*
X0188246Y0172984D01*
X0186911Y0169762D01*
X0184445Y0167295D01*
X0181222Y0165961D01*
X0177734Y0165961D01*
X0174512Y0167295D01*
X0172045Y0169762D01*
X0171844Y0170248D02*
X0025695Y0170248D01*
X0025494Y0169762D02*
X0026829Y0172984D01*
X0026829Y0176472D01*
X0025494Y0179695D01*
X0023028Y0182161D01*
X0019805Y0183496D01*
X0016317Y0183496D01*
X0013095Y0182161D01*
X0010628Y0179695D01*
X0009293Y0176472D01*
X0009293Y0172984D01*
X0010628Y0169762D01*
X0013095Y0167295D01*
X0016317Y0165961D01*
X0019805Y0165961D01*
X0023028Y0167295D01*
X0025494Y0169762D01*
X0024982Y0169250D02*
X0172557Y0169250D01*
X0173556Y0168251D02*
X0023983Y0168251D01*
X0022925Y0167253D02*
X0174615Y0167253D01*
X0177025Y0166254D02*
X0020514Y0166254D01*
X0015608Y0166254D02*
X0008718Y0166254D01*
X0008718Y0165256D02*
X0188821Y0165256D01*
X0188821Y0166254D02*
X0181931Y0166254D01*
X0184342Y0167253D02*
X0188821Y0167253D01*
X0188821Y0168251D02*
X0185401Y0168251D01*
X0186399Y0169250D02*
X0188821Y0169250D01*
X0188821Y0170248D02*
X0187113Y0170248D01*
X0187526Y0171247D02*
X0188821Y0171247D01*
X0188821Y0172245D02*
X0187940Y0172245D01*
X0188246Y0173244D02*
X0188821Y0173244D01*
X0188821Y0174242D02*
X0188246Y0174242D01*
X0188246Y0175241D02*
X0188821Y0175241D01*
X0188821Y0176239D02*
X0188246Y0176239D01*
X0187929Y0177238D02*
X0188821Y0177238D01*
X0188821Y0178237D02*
X0187515Y0178237D01*
X0187102Y0179235D02*
X0188821Y0179235D01*
X0188821Y0180234D02*
X0186373Y0180234D01*
X0185374Y0181232D02*
X0188821Y0181232D01*
X0188821Y0182231D02*
X0184278Y0182231D01*
X0181867Y0183229D02*
X0188821Y0183229D01*
X0177090Y0183229D02*
X0020450Y0183229D01*
X0022860Y0182231D02*
X0174679Y0182231D01*
X0173583Y0181232D02*
X0023957Y0181232D01*
X0024955Y0180234D02*
X0172584Y0180234D01*
X0171855Y0179235D02*
X0025684Y0179235D01*
X0026098Y0178237D02*
X0171441Y0178237D01*
X0171028Y0177238D02*
X0026512Y0177238D01*
X0026829Y0176239D02*
X0170711Y0176239D01*
X0170711Y0175241D02*
X0026829Y0175241D01*
X0026829Y0174242D02*
X0170711Y0174242D01*
X0170711Y0173244D02*
X0026829Y0173244D01*
X0026523Y0172245D02*
X0171017Y0172245D01*
X0171430Y0171247D02*
X0026109Y0171247D01*
X0023896Y0161262D02*
X0018604Y0161262D01*
X0019982Y0160263D02*
X0022518Y0160263D01*
X0021659Y0159265D02*
X0020841Y0159265D01*
X0013197Y0167253D02*
X0008718Y0167253D01*
X0008718Y0168251D02*
X0012139Y0168251D01*
X0011140Y0169250D02*
X0008718Y0169250D01*
X0008718Y0170248D02*
X0010427Y0170248D01*
X0010013Y0171247D02*
X0008718Y0171247D01*
X0008718Y0172245D02*
X0009599Y0172245D01*
X0009293Y0173244D02*
X0008718Y0173244D01*
X0008718Y0174242D02*
X0009293Y0174242D01*
X0009293Y0175241D02*
X0008718Y0175241D01*
X0008718Y0176239D02*
X0009293Y0176239D01*
X0009610Y0177238D02*
X0008718Y0177238D01*
X0008718Y0178237D02*
X0010024Y0178237D01*
X0010438Y0179235D02*
X0008718Y0179235D01*
X0008718Y0180234D02*
X0011167Y0180234D01*
X0012165Y0181232D02*
X0008718Y0181232D01*
X0008718Y0182231D02*
X0013262Y0182231D01*
X0015672Y0183229D02*
X0008718Y0183229D01*
X0008718Y0148281D02*
X0015203Y0148281D01*
X0014204Y0147283D02*
X0008718Y0147283D01*
X0008718Y0146284D02*
X0013206Y0146284D01*
X0012207Y0145286D02*
X0008718Y0145286D01*
X0008718Y0144287D02*
X0011209Y0144287D01*
X0010210Y0143289D02*
X0008718Y0143289D01*
X0008718Y0142290D02*
X0009212Y0142290D01*
X0048388Y0101351D02*
X0054112Y0101351D01*
X0052607Y0100353D02*
X0049893Y0100353D01*
X0050804Y0099354D02*
X0051696Y0099354D01*
X0051282Y0098356D02*
X0051218Y0098356D01*
X0051101Y0094362D02*
X0051399Y0094362D01*
X0051892Y0093363D02*
X0050608Y0093363D01*
X0049610Y0092365D02*
X0052890Y0092365D01*
X0054795Y0091366D02*
X0047705Y0091366D01*
X0038250Y0090500D02*
X0014250Y0090500D01*
X0015950Y0087372D02*
X0016550Y0087372D01*
X0016550Y0086373D02*
X0015950Y0086373D01*
X0015950Y0085375D02*
X0016550Y0085375D01*
X0016550Y0084376D02*
X0015950Y0084376D01*
X0015950Y0083378D02*
X0016550Y0083378D01*
X0016550Y0082379D02*
X0015950Y0082379D01*
X0015950Y0080382D02*
X0016550Y0080382D01*
X0016550Y0079384D02*
X0015950Y0079384D01*
X0015950Y0078385D02*
X0016550Y0078385D01*
X0016550Y0077387D02*
X0015950Y0077387D01*
X0015950Y0076388D02*
X0016550Y0076388D01*
X0013446Y0076388D02*
X0008718Y0076388D01*
X0008718Y0077387D02*
X0012738Y0077387D01*
X0012416Y0078385D02*
X0008718Y0078385D01*
X0008718Y0079384D02*
X0012350Y0079384D01*
X0012350Y0080382D02*
X0008718Y0080382D01*
X0018059Y0087372D02*
X0024441Y0087372D01*
X0023208Y0086373D02*
X0019288Y0086373D01*
X0019860Y0085375D02*
X0022640Y0085375D01*
X0022350Y0084376D02*
X0020132Y0084376D01*
X0020150Y0083378D02*
X0022350Y0083378D01*
X0038250Y0090500D02*
X0072250Y0056500D01*
X0076250Y0056500D01*
X0081088Y0053423D02*
X0101412Y0053423D01*
X0100490Y0054421D02*
X0082010Y0054421D01*
X0082424Y0055420D02*
X0100076Y0055420D01*
X0099950Y0056418D02*
X0082550Y0056418D01*
X0082492Y0057417D02*
X0100008Y0057417D01*
X0100422Y0058415D02*
X0082078Y0058415D01*
X0081252Y0059414D02*
X0101248Y0059414D01*
X0120950Y0066403D02*
X0076550Y0066403D01*
X0076550Y0065405D02*
X0075950Y0065405D01*
X0075950Y0064406D02*
X0076550Y0064406D01*
X0076550Y0063408D02*
X0075950Y0063408D01*
X0064250Y0058415D02*
X0060150Y0058415D01*
X0060150Y0059414D02*
X0063508Y0059414D01*
X0062509Y0060412D02*
X0060150Y0060412D01*
X0060250Y0061411D02*
X0061511Y0061411D01*
X0060512Y0062409D02*
X0060203Y0062409D01*
X0059774Y0057417D02*
X0064250Y0057417D01*
X0064250Y0056418D02*
X0059084Y0056418D01*
X0057556Y0055420D02*
X0062816Y0055420D01*
X0061832Y0054421D02*
X0045250Y0054421D01*
X0045250Y0053423D02*
X0061418Y0053423D01*
X0061050Y0052424D02*
X0045250Y0052424D01*
X0045250Y0051426D02*
X0061050Y0051426D01*
X0054944Y0055420D02*
X0045250Y0055420D01*
X0045250Y0056418D02*
X0053416Y0056418D01*
X0052726Y0057417D02*
X0045250Y0057417D01*
X0045250Y0050427D02*
X0048601Y0050427D01*
X0047602Y0049429D02*
X0045250Y0049429D01*
X0045250Y0048430D02*
X0046604Y0048430D01*
X0046600Y0047432D02*
X0045250Y0047432D01*
X0050950Y0045434D02*
X0051550Y0045434D01*
X0051550Y0044436D02*
X0050950Y0044436D01*
X0050950Y0043437D02*
X0051550Y0043437D01*
X0051550Y0042439D02*
X0050950Y0042439D01*
X0047250Y0031455D02*
X0020250Y0031455D01*
X0014848Y0021470D02*
X0008718Y0021470D01*
X0008718Y0020472D02*
X0012822Y0020472D01*
X0011824Y0019473D02*
X0008718Y0019473D01*
X0008718Y0018475D02*
X0010825Y0018475D01*
X0010296Y0017476D02*
X0008718Y0017476D01*
X0008718Y0016478D02*
X0009883Y0016478D01*
X0009469Y0015479D02*
X0008718Y0015479D01*
X0008718Y0014481D02*
X0009293Y0014481D01*
X0009293Y0013482D02*
X0008718Y0013482D01*
X0008718Y0012484D02*
X0009293Y0012484D01*
X0009327Y0011485D02*
X0008718Y0011485D01*
X0008718Y0010487D02*
X0009741Y0010487D01*
X0010154Y0009488D02*
X0008718Y0009488D01*
X0008718Y0008490D02*
X0010568Y0008490D01*
X0011482Y0007491D02*
X0008718Y0007491D01*
X0008718Y0006493D02*
X0012480Y0006493D01*
X0014022Y0005494D02*
X0008718Y0005494D01*
X0008718Y0004496D02*
X0188821Y0004496D01*
X0188821Y0005494D02*
X0183518Y0005494D01*
X0184445Y0005878D02*
X0186911Y0008345D01*
X0188246Y0011567D01*
X0188246Y0015055D01*
X0186911Y0018278D01*
X0184445Y0020744D01*
X0181222Y0022079D01*
X0177734Y0022079D01*
X0174512Y0020744D01*
X0172045Y0018278D01*
X0170711Y0015055D01*
X0170711Y0011567D01*
X0172045Y0008345D01*
X0174512Y0005878D01*
X0177734Y0004543D01*
X0181222Y0004543D01*
X0184445Y0005878D01*
X0185059Y0006493D02*
X0188821Y0006493D01*
X0188821Y0007491D02*
X0186058Y0007491D01*
X0186971Y0008490D02*
X0188821Y0008490D01*
X0188821Y0009488D02*
X0187385Y0009488D01*
X0187799Y0010487D02*
X0188821Y0010487D01*
X0188821Y0011485D02*
X0188212Y0011485D01*
X0188246Y0012484D02*
X0188821Y0012484D01*
X0188821Y0013482D02*
X0188246Y0013482D01*
X0188246Y0014481D02*
X0188821Y0014481D01*
X0188821Y0015479D02*
X0188070Y0015479D01*
X0187657Y0016478D02*
X0188821Y0016478D01*
X0188821Y0017476D02*
X0187243Y0017476D01*
X0186714Y0018475D02*
X0188821Y0018475D01*
X0188821Y0019473D02*
X0185716Y0019473D01*
X0184717Y0020472D02*
X0188821Y0020472D01*
X0188821Y0021470D02*
X0182691Y0021470D01*
X0188821Y0022469D02*
X0139573Y0022469D01*
X0140571Y0023467D02*
X0188821Y0023467D01*
X0188821Y0024466D02*
X0141036Y0024466D01*
X0141449Y0025464D02*
X0188821Y0025464D01*
X0188821Y0026463D02*
X0141450Y0026463D01*
X0141450Y0027461D02*
X0188821Y0027461D01*
X0188821Y0028460D02*
X0141067Y0028460D01*
X0140646Y0029458D02*
X0188821Y0029458D01*
X0188821Y0030457D02*
X0139647Y0030457D01*
X0137875Y0031455D02*
X0188821Y0031455D01*
X0176265Y0021470D02*
X0137695Y0021470D01*
X0134805Y0021470D02*
X0130250Y0021470D01*
X0130250Y0020472D02*
X0174240Y0020472D01*
X0173241Y0019473D02*
X0130250Y0019473D01*
X0130250Y0018475D02*
X0172243Y0018475D01*
X0171714Y0017476D02*
X0130250Y0017476D01*
X0130250Y0016478D02*
X0171300Y0016478D01*
X0170886Y0015479D02*
X0130250Y0015479D01*
X0130250Y0014481D02*
X0170711Y0014481D01*
X0170711Y0013482D02*
X0130250Y0013482D01*
X0130250Y0012484D02*
X0170711Y0012484D01*
X0170745Y0011485D02*
X0130250Y0011485D01*
X0130160Y0010487D02*
X0171158Y0010487D01*
X0171572Y0009488D02*
X0129746Y0009488D01*
X0128896Y0008490D02*
X0171985Y0008490D01*
X0172899Y0007491D02*
X0024640Y0007491D01*
X0025554Y0008490D02*
X0048604Y0008490D01*
X0047754Y0009488D02*
X0025968Y0009488D01*
X0026381Y0010487D02*
X0047340Y0010487D01*
X0047250Y0011485D02*
X0026795Y0011485D01*
X0026829Y0012484D02*
X0047250Y0012484D01*
X0047250Y0013482D02*
X0026829Y0013482D01*
X0026829Y0014481D02*
X0047250Y0014481D01*
X0047250Y0015479D02*
X0026653Y0015479D01*
X0023642Y0006493D02*
X0173897Y0006493D01*
X0175439Y0005494D02*
X0022100Y0005494D01*
X0033982Y0066403D02*
X0053238Y0066403D01*
X0054513Y0067402D02*
X0034980Y0067402D01*
X0035979Y0068400D02*
X0054521Y0068400D01*
X0070687Y0084376D02*
X0109298Y0084376D01*
X0110297Y0085375D02*
X0069729Y0085375D01*
X0068073Y0086373D02*
X0111295Y0086373D01*
X0114795Y0091366D02*
X0107705Y0091366D01*
X0109610Y0092365D02*
X0112890Y0092365D01*
X0111892Y0093363D02*
X0110608Y0093363D01*
X0111101Y0094362D02*
X0111399Y0094362D01*
X0111282Y0098356D02*
X0111218Y0098356D01*
X0110804Y0099354D02*
X0111696Y0099354D01*
X0112607Y0100353D02*
X0109893Y0100353D01*
X0108388Y0101351D02*
X0114112Y0101351D01*
X0104112Y0101351D02*
X0098388Y0101351D01*
X0099893Y0100353D02*
X0102607Y0100353D01*
X0101696Y0099354D02*
X0100804Y0099354D01*
X0101218Y0098356D02*
X0101282Y0098356D01*
X0101399Y0094362D02*
X0101101Y0094362D01*
X0100608Y0093363D02*
X0101892Y0093363D01*
X0102890Y0092365D02*
X0099610Y0092365D01*
X0097705Y0091366D02*
X0104795Y0091366D01*
X0094795Y0091366D02*
X0087705Y0091366D01*
X0089610Y0092365D02*
X0092890Y0092365D01*
X0091892Y0093363D02*
X0090608Y0093363D01*
X0091101Y0094362D02*
X0091399Y0094362D01*
X0091282Y0098356D02*
X0091218Y0098356D01*
X0090804Y0099354D02*
X0091696Y0099354D01*
X0092607Y0100353D02*
X0089893Y0100353D01*
X0088388Y0101351D02*
X0094112Y0101351D01*
X0084112Y0101351D02*
X0078388Y0101351D01*
X0079893Y0100353D02*
X0082607Y0100353D01*
X0081696Y0099354D02*
X0080804Y0099354D01*
X0081218Y0098356D02*
X0081282Y0098356D01*
X0081399Y0094362D02*
X0081101Y0094362D01*
X0080608Y0093363D02*
X0081892Y0093363D01*
X0082890Y0092365D02*
X0079610Y0092365D01*
X0077705Y0091366D02*
X0084795Y0091366D01*
X0074795Y0091366D02*
X0067705Y0091366D01*
X0069610Y0092365D02*
X0072890Y0092365D01*
X0071892Y0093363D02*
X0070608Y0093363D01*
X0071101Y0094362D02*
X0071399Y0094362D01*
X0071282Y0098356D02*
X0071218Y0098356D01*
X0070804Y0099354D02*
X0071696Y0099354D01*
X0072607Y0100353D02*
X0069893Y0100353D01*
X0068388Y0101351D02*
X0074112Y0101351D01*
X0064112Y0101351D02*
X0058388Y0101351D01*
X0059893Y0100353D02*
X0062607Y0100353D01*
X0061696Y0099354D02*
X0060804Y0099354D01*
X0061218Y0098356D02*
X0061282Y0098356D01*
X0061399Y0094362D02*
X0061101Y0094362D01*
X0060608Y0093363D02*
X0061892Y0093363D01*
X0062890Y0092365D02*
X0059610Y0092365D01*
X0057705Y0091366D02*
X0064795Y0091366D01*
X0121550Y0066403D02*
X0129362Y0066403D01*
X0128723Y0065405D02*
X0127409Y0065405D01*
X0127447Y0067402D02*
X0132520Y0067402D01*
X0131521Y0068400D02*
X0127071Y0068400D01*
X0137705Y0091366D02*
X0144900Y0091366D01*
X0145750Y0091366D02*
X0146750Y0091366D01*
X0147600Y0091366D02*
X0154795Y0091366D01*
X0152890Y0092365D02*
X0149575Y0092365D01*
X0150522Y0093363D02*
X0151892Y0093363D01*
X0151399Y0094362D02*
X0151109Y0094362D01*
X0151220Y0098356D02*
X0151282Y0098356D01*
X0151696Y0099354D02*
X0150728Y0099354D01*
X0149893Y0100353D02*
X0152607Y0100353D01*
X0154112Y0101351D02*
X0148403Y0101351D01*
X0146750Y0101351D02*
X0145750Y0101351D01*
X0145750Y0100353D02*
X0146750Y0100353D01*
X0146750Y0099354D02*
X0145750Y0099354D01*
X0145750Y0098356D02*
X0146750Y0098356D01*
X0146750Y0097357D02*
X0145750Y0097357D01*
X0145750Y0095360D02*
X0146750Y0095360D01*
X0146750Y0094362D02*
X0145750Y0094362D01*
X0145750Y0093363D02*
X0146750Y0093363D01*
X0146750Y0092365D02*
X0145750Y0092365D01*
X0142925Y0092365D02*
X0139610Y0092365D01*
X0140608Y0093363D02*
X0141978Y0093363D01*
X0141391Y0094362D02*
X0141101Y0094362D01*
X0141218Y0098356D02*
X0141280Y0098356D01*
X0140804Y0099354D02*
X0141772Y0099354D01*
X0142607Y0100353D02*
X0139893Y0100353D01*
X0138388Y0101351D02*
X0144097Y0101351D01*
X0158388Y0101351D02*
X0164112Y0101351D01*
X0162607Y0100353D02*
X0159893Y0100353D01*
X0160804Y0099354D02*
X0161696Y0099354D01*
X0161282Y0098356D02*
X0161218Y0098356D01*
X0168388Y0101351D02*
X0174112Y0101351D01*
X0172607Y0100353D02*
X0169893Y0100353D01*
X0170804Y0099354D02*
X0171696Y0099354D01*
X0171282Y0098356D02*
X0171218Y0098356D01*
X0182952Y0086373D02*
X0188821Y0086373D01*
X0188821Y0085375D02*
X0182890Y0085375D01*
X0183950Y0087372D02*
X0188821Y0087372D01*
X0188821Y0088370D02*
X0184949Y0088370D01*
X0185947Y0089369D02*
X0188821Y0089369D01*
X0188821Y0090368D02*
X0186946Y0090368D01*
X0187944Y0091366D02*
X0188821Y0091366D01*
X0188821Y0092365D02*
X0188250Y0092365D01*
X0188250Y0093363D02*
X0188821Y0093363D01*
X0188821Y0094362D02*
X0188250Y0094362D01*
X0188250Y0095360D02*
X0188821Y0095360D01*
X0188821Y0096359D02*
X0188250Y0096359D01*
X0188250Y0097357D02*
X0188821Y0097357D01*
X0188821Y0098356D02*
X0188250Y0098356D01*
X0188250Y0099354D02*
X0188821Y0099354D01*
X0188821Y0100353D02*
X0188250Y0100353D01*
X0188250Y0101351D02*
X0188821Y0101351D01*
X0188821Y0102350D02*
X0188250Y0102350D01*
X0188250Y0103348D02*
X0188821Y0103348D01*
X0188821Y0104347D02*
X0188250Y0104347D01*
X0188250Y0105345D02*
X0188821Y0105345D01*
X0188821Y0106344D02*
X0188250Y0106344D01*
X0188250Y0107342D02*
X0188821Y0107342D01*
X0188821Y0108341D02*
X0188250Y0108341D01*
X0188250Y0109339D02*
X0188821Y0109339D01*
X0188821Y0110338D02*
X0188250Y0110338D01*
X0188250Y0111336D02*
X0188821Y0111336D01*
X0188821Y0112335D02*
X0188250Y0112335D01*
X0188250Y0113333D02*
X0188821Y0113333D01*
X0188821Y0114332D02*
X0188250Y0114332D01*
X0188250Y0115330D02*
X0188821Y0115330D01*
X0188821Y0116329D02*
X0188250Y0116329D01*
X0188250Y0117327D02*
X0188821Y0117327D01*
X0188821Y0118326D02*
X0188250Y0118326D01*
X0188250Y0119324D02*
X0188821Y0119324D01*
X0188821Y0120323D02*
X0188250Y0120323D01*
X0188250Y0121321D02*
X0188821Y0121321D01*
X0188821Y0122320D02*
X0188250Y0122320D01*
X0188250Y0123318D02*
X0188821Y0123318D01*
X0188821Y0124317D02*
X0188250Y0124317D01*
X0188250Y0125315D02*
X0188821Y0125315D01*
X0188821Y0126314D02*
X0188250Y0126314D01*
X0188250Y0127312D02*
X0188821Y0127312D01*
X0188821Y0128311D02*
X0188250Y0128311D01*
X0188250Y0129309D02*
X0188821Y0129309D01*
X0188821Y0130308D02*
X0188250Y0130308D01*
X0188250Y0131306D02*
X0188821Y0131306D01*
X0188821Y0132305D02*
X0188250Y0132305D01*
X0188250Y0133303D02*
X0188821Y0133303D01*
X0188821Y0134302D02*
X0188250Y0134302D01*
X0188250Y0135301D02*
X0188821Y0135301D01*
X0188821Y0136299D02*
X0188250Y0136299D01*
X0188250Y0137298D02*
X0188821Y0137298D01*
X0188821Y0138296D02*
X0188250Y0138296D01*
X0188250Y0139295D02*
X0188821Y0139295D01*
X0188821Y0140293D02*
X0188250Y0140293D01*
X0188250Y0141292D02*
X0188821Y0141292D01*
X0188821Y0142290D02*
X0188250Y0142290D01*
X0188250Y0143289D02*
X0188821Y0143289D01*
X0188821Y0144287D02*
X0188250Y0144287D01*
X0188250Y0145286D02*
X0188821Y0145286D01*
X0188821Y0146284D02*
X0188250Y0146284D01*
X0188250Y0147283D02*
X0188821Y0147283D01*
X0188821Y0148281D02*
X0188250Y0148281D01*
X0188250Y0149280D02*
X0188821Y0149280D01*
X0188821Y0150278D02*
X0188250Y0150278D01*
X0188250Y0151277D02*
X0188821Y0151277D01*
X0188821Y0152275D02*
X0188250Y0152275D01*
X0188250Y0153274D02*
X0188821Y0153274D01*
X0188821Y0154272D02*
X0188250Y0154272D01*
X0188250Y0155271D02*
X0188821Y0155271D01*
X0188821Y0156269D02*
X0187309Y0156269D01*
X0186311Y0157268D02*
X0188821Y0157268D01*
X0188821Y0158266D02*
X0185312Y0158266D01*
X0184314Y0159265D02*
X0188821Y0159265D01*
X0188821Y0160263D02*
X0183315Y0160263D01*
X0182317Y0161262D02*
X0188821Y0161262D01*
X0188821Y0162260D02*
X0181318Y0162260D01*
X0180320Y0163259D02*
X0188821Y0163259D01*
X0188821Y0164257D02*
X0179321Y0164257D01*
X0126250Y0096500D02*
X0124250Y0096500D01*
X0130250Y0031455D02*
X0134625Y0031455D01*
X0132853Y0030457D02*
X0130250Y0030457D01*
X0130646Y0029458D02*
X0131854Y0029458D01*
X0131433Y0028460D02*
X0131067Y0028460D01*
X0131036Y0024466D02*
X0131464Y0024466D01*
X0131929Y0023467D02*
X0130571Y0023467D01*
X0130250Y0022469D02*
X0132927Y0022469D01*
D19*
X0131250Y0064500D03*
X0176250Y0056500D03*
X0039250Y0074500D03*
M02*
