%
M48
M72
T01C0.01378
T02C0.02756
T03C0.03200
T04C0.03543
T05C0.04000
T06C0.04331
T07C0.12598
%
T01
X102250Y66900
X123050Y50900
X134250Y62100
X94250Y147700
T02
X29872Y44607
X29872Y36733
X167667Y36733
X167667Y44607
T03
X151250Y56300
X166250Y66300
X176250Y66300
X181250Y81300
X161250Y81300
X151250Y76300
X121250Y76300
X121250Y66300
X121250Y56300
X106250Y56300
X106250Y76300
X76250Y76300
X76250Y66300
X76250Y56300
X66250Y41300
X51250Y36300
X51250Y46300
X56250Y61300
X56250Y81300
X26250Y81300
X16250Y81300
X16250Y61300
X26250Y61300
X66250Y21300
X76250Y26300
X86250Y26300
X96250Y26300
T04
X66250Y51300
X66250Y81300
T05
X116250Y26300
X126250Y26300
X136250Y26300
T06
X136250Y96300
X126250Y96300
X116250Y96300
X106250Y96300
X96250Y96300
X86250Y96300
X76250Y96300
X66250Y96300
X56250Y96300
X46250Y96300
X36250Y96300
X26250Y96300
X16250Y96300
X16250Y156300
X26250Y156300
X36250Y156300
X46250Y156300
X56250Y156300
X66250Y156300
X76250Y156300
X86250Y156300
X96250Y156300
X106250Y156300
X116250Y156300
X126250Y156300
X136250Y156300
X146250Y156300
X156250Y156300
X166250Y156300
X176250Y156300
X176250Y96300
X166250Y96300
X156250Y96300
X146250Y96300
T07
X18061Y13111
X179478Y13111
X179478Y174528
X18061Y174528
M30
