%
M48
M72
T01C0.01378
T02C0.02756
T03C0.03200
T04C0.03543
T05C0.04000
T06C0.04331
T07C0.12598
%
T01
X55850Y70300
X74250Y147900
X141450Y79900
X136650Y71900
X135050Y65500
X171050Y84700
X157450Y19900
T02
X167667Y36933
X167667Y44807
X29872Y44807
X29872Y36933
T03
X51250Y36500
X51250Y46500
X56250Y61500
X76250Y56500
X76250Y66500
X76250Y76500
X56250Y81500
X26250Y81500
X16250Y81500
X16250Y61500
X26250Y61500
X66250Y41500
X76250Y26500
X86250Y26500
X96250Y26500
X66250Y21500
X106250Y56500
X121250Y56500
X121250Y66500
X121250Y76500
X106250Y76500
X151250Y76500
X161250Y81500
X166250Y66500
X176250Y66500
X181250Y81500
X151250Y56500
T04
X66250Y51500
X66250Y81500
T05
X116250Y26500
X126250Y26500
X136250Y26500
T06
X136250Y96500
X126250Y96500
X116250Y96500
X106250Y96500
X96250Y96500
X86250Y96500
X76250Y96500
X66250Y96500
X56250Y96500
X46250Y96500
X36250Y96500
X26250Y96500
X16250Y96500
X16250Y156500
X26250Y156500
X36250Y156500
X46250Y156500
X56250Y156500
X66250Y156500
X76250Y156500
X86250Y156500
X96250Y156500
X106250Y156500
X116250Y156500
X126250Y156500
X136250Y156500
X146250Y156500
X156250Y156500
X166250Y156500
X176250Y156500
X176250Y96500
X166250Y96500
X156250Y96500
X146250Y96500
T07
X18061Y13311
X179478Y13311
X179478Y174728
X18061Y174728
M30
