G75*
%MOIN*%
%OFA0B0*%
%FSLAX25Y25*%
%IPPOS*%
%LPD*%
%AMOC8*
5,1,8,0,0,1.08239X$1,22.5*
%
%ADD10C,0.00000*%
D10*
X0006250Y0001500D02*
X0006250Y0186539D01*
X0191289Y0186539D01*
X0191289Y0001500D01*
X0006250Y0001500D01*
X0011762Y0013311D02*
X0011764Y0013469D01*
X0011770Y0013627D01*
X0011780Y0013785D01*
X0011794Y0013943D01*
X0011812Y0014100D01*
X0011833Y0014257D01*
X0011859Y0014413D01*
X0011889Y0014569D01*
X0011922Y0014724D01*
X0011960Y0014877D01*
X0012001Y0015030D01*
X0012046Y0015182D01*
X0012095Y0015333D01*
X0012148Y0015482D01*
X0012204Y0015630D01*
X0012264Y0015776D01*
X0012328Y0015921D01*
X0012396Y0016064D01*
X0012467Y0016206D01*
X0012541Y0016346D01*
X0012619Y0016483D01*
X0012701Y0016619D01*
X0012785Y0016753D01*
X0012874Y0016884D01*
X0012965Y0017013D01*
X0013060Y0017140D01*
X0013157Y0017265D01*
X0013258Y0017387D01*
X0013362Y0017506D01*
X0013469Y0017623D01*
X0013579Y0017737D01*
X0013692Y0017848D01*
X0013807Y0017957D01*
X0013925Y0018062D01*
X0014046Y0018164D01*
X0014169Y0018264D01*
X0014295Y0018360D01*
X0014423Y0018453D01*
X0014553Y0018543D01*
X0014686Y0018629D01*
X0014821Y0018713D01*
X0014957Y0018792D01*
X0015096Y0018869D01*
X0015237Y0018941D01*
X0015379Y0019011D01*
X0015523Y0019076D01*
X0015669Y0019138D01*
X0015816Y0019196D01*
X0015965Y0019251D01*
X0016115Y0019302D01*
X0016266Y0019349D01*
X0016418Y0019392D01*
X0016571Y0019431D01*
X0016726Y0019467D01*
X0016881Y0019498D01*
X0017037Y0019526D01*
X0017193Y0019550D01*
X0017350Y0019570D01*
X0017508Y0019586D01*
X0017665Y0019598D01*
X0017824Y0019606D01*
X0017982Y0019610D01*
X0018140Y0019610D01*
X0018298Y0019606D01*
X0018457Y0019598D01*
X0018614Y0019586D01*
X0018772Y0019570D01*
X0018929Y0019550D01*
X0019085Y0019526D01*
X0019241Y0019498D01*
X0019396Y0019467D01*
X0019551Y0019431D01*
X0019704Y0019392D01*
X0019856Y0019349D01*
X0020007Y0019302D01*
X0020157Y0019251D01*
X0020306Y0019196D01*
X0020453Y0019138D01*
X0020599Y0019076D01*
X0020743Y0019011D01*
X0020885Y0018941D01*
X0021026Y0018869D01*
X0021165Y0018792D01*
X0021301Y0018713D01*
X0021436Y0018629D01*
X0021569Y0018543D01*
X0021699Y0018453D01*
X0021827Y0018360D01*
X0021953Y0018264D01*
X0022076Y0018164D01*
X0022197Y0018062D01*
X0022315Y0017957D01*
X0022430Y0017848D01*
X0022543Y0017737D01*
X0022653Y0017623D01*
X0022760Y0017506D01*
X0022864Y0017387D01*
X0022965Y0017265D01*
X0023062Y0017140D01*
X0023157Y0017013D01*
X0023248Y0016884D01*
X0023337Y0016753D01*
X0023421Y0016619D01*
X0023503Y0016483D01*
X0023581Y0016346D01*
X0023655Y0016206D01*
X0023726Y0016064D01*
X0023794Y0015921D01*
X0023858Y0015776D01*
X0023918Y0015630D01*
X0023974Y0015482D01*
X0024027Y0015333D01*
X0024076Y0015182D01*
X0024121Y0015030D01*
X0024162Y0014877D01*
X0024200Y0014724D01*
X0024233Y0014569D01*
X0024263Y0014413D01*
X0024289Y0014257D01*
X0024310Y0014100D01*
X0024328Y0013943D01*
X0024342Y0013785D01*
X0024352Y0013627D01*
X0024358Y0013469D01*
X0024360Y0013311D01*
X0024358Y0013153D01*
X0024352Y0012995D01*
X0024342Y0012837D01*
X0024328Y0012679D01*
X0024310Y0012522D01*
X0024289Y0012365D01*
X0024263Y0012209D01*
X0024233Y0012053D01*
X0024200Y0011898D01*
X0024162Y0011745D01*
X0024121Y0011592D01*
X0024076Y0011440D01*
X0024027Y0011289D01*
X0023974Y0011140D01*
X0023918Y0010992D01*
X0023858Y0010846D01*
X0023794Y0010701D01*
X0023726Y0010558D01*
X0023655Y0010416D01*
X0023581Y0010276D01*
X0023503Y0010139D01*
X0023421Y0010003D01*
X0023337Y0009869D01*
X0023248Y0009738D01*
X0023157Y0009609D01*
X0023062Y0009482D01*
X0022965Y0009357D01*
X0022864Y0009235D01*
X0022760Y0009116D01*
X0022653Y0008999D01*
X0022543Y0008885D01*
X0022430Y0008774D01*
X0022315Y0008665D01*
X0022197Y0008560D01*
X0022076Y0008458D01*
X0021953Y0008358D01*
X0021827Y0008262D01*
X0021699Y0008169D01*
X0021569Y0008079D01*
X0021436Y0007993D01*
X0021301Y0007909D01*
X0021165Y0007830D01*
X0021026Y0007753D01*
X0020885Y0007681D01*
X0020743Y0007611D01*
X0020599Y0007546D01*
X0020453Y0007484D01*
X0020306Y0007426D01*
X0020157Y0007371D01*
X0020007Y0007320D01*
X0019856Y0007273D01*
X0019704Y0007230D01*
X0019551Y0007191D01*
X0019396Y0007155D01*
X0019241Y0007124D01*
X0019085Y0007096D01*
X0018929Y0007072D01*
X0018772Y0007052D01*
X0018614Y0007036D01*
X0018457Y0007024D01*
X0018298Y0007016D01*
X0018140Y0007012D01*
X0017982Y0007012D01*
X0017824Y0007016D01*
X0017665Y0007024D01*
X0017508Y0007036D01*
X0017350Y0007052D01*
X0017193Y0007072D01*
X0017037Y0007096D01*
X0016881Y0007124D01*
X0016726Y0007155D01*
X0016571Y0007191D01*
X0016418Y0007230D01*
X0016266Y0007273D01*
X0016115Y0007320D01*
X0015965Y0007371D01*
X0015816Y0007426D01*
X0015669Y0007484D01*
X0015523Y0007546D01*
X0015379Y0007611D01*
X0015237Y0007681D01*
X0015096Y0007753D01*
X0014957Y0007830D01*
X0014821Y0007909D01*
X0014686Y0007993D01*
X0014553Y0008079D01*
X0014423Y0008169D01*
X0014295Y0008262D01*
X0014169Y0008358D01*
X0014046Y0008458D01*
X0013925Y0008560D01*
X0013807Y0008665D01*
X0013692Y0008774D01*
X0013579Y0008885D01*
X0013469Y0008999D01*
X0013362Y0009116D01*
X0013258Y0009235D01*
X0013157Y0009357D01*
X0013060Y0009482D01*
X0012965Y0009609D01*
X0012874Y0009738D01*
X0012785Y0009869D01*
X0012701Y0010003D01*
X0012619Y0010139D01*
X0012541Y0010276D01*
X0012467Y0010416D01*
X0012396Y0010558D01*
X0012328Y0010701D01*
X0012264Y0010846D01*
X0012204Y0010992D01*
X0012148Y0011140D01*
X0012095Y0011289D01*
X0012046Y0011440D01*
X0012001Y0011592D01*
X0011960Y0011745D01*
X0011922Y0011898D01*
X0011889Y0012053D01*
X0011859Y0012209D01*
X0011833Y0012365D01*
X0011812Y0012522D01*
X0011794Y0012679D01*
X0011780Y0012837D01*
X0011770Y0012995D01*
X0011764Y0013153D01*
X0011762Y0013311D01*
X0011762Y0174728D02*
X0011764Y0174886D01*
X0011770Y0175044D01*
X0011780Y0175202D01*
X0011794Y0175360D01*
X0011812Y0175517D01*
X0011833Y0175674D01*
X0011859Y0175830D01*
X0011889Y0175986D01*
X0011922Y0176141D01*
X0011960Y0176294D01*
X0012001Y0176447D01*
X0012046Y0176599D01*
X0012095Y0176750D01*
X0012148Y0176899D01*
X0012204Y0177047D01*
X0012264Y0177193D01*
X0012328Y0177338D01*
X0012396Y0177481D01*
X0012467Y0177623D01*
X0012541Y0177763D01*
X0012619Y0177900D01*
X0012701Y0178036D01*
X0012785Y0178170D01*
X0012874Y0178301D01*
X0012965Y0178430D01*
X0013060Y0178557D01*
X0013157Y0178682D01*
X0013258Y0178804D01*
X0013362Y0178923D01*
X0013469Y0179040D01*
X0013579Y0179154D01*
X0013692Y0179265D01*
X0013807Y0179374D01*
X0013925Y0179479D01*
X0014046Y0179581D01*
X0014169Y0179681D01*
X0014295Y0179777D01*
X0014423Y0179870D01*
X0014553Y0179960D01*
X0014686Y0180046D01*
X0014821Y0180130D01*
X0014957Y0180209D01*
X0015096Y0180286D01*
X0015237Y0180358D01*
X0015379Y0180428D01*
X0015523Y0180493D01*
X0015669Y0180555D01*
X0015816Y0180613D01*
X0015965Y0180668D01*
X0016115Y0180719D01*
X0016266Y0180766D01*
X0016418Y0180809D01*
X0016571Y0180848D01*
X0016726Y0180884D01*
X0016881Y0180915D01*
X0017037Y0180943D01*
X0017193Y0180967D01*
X0017350Y0180987D01*
X0017508Y0181003D01*
X0017665Y0181015D01*
X0017824Y0181023D01*
X0017982Y0181027D01*
X0018140Y0181027D01*
X0018298Y0181023D01*
X0018457Y0181015D01*
X0018614Y0181003D01*
X0018772Y0180987D01*
X0018929Y0180967D01*
X0019085Y0180943D01*
X0019241Y0180915D01*
X0019396Y0180884D01*
X0019551Y0180848D01*
X0019704Y0180809D01*
X0019856Y0180766D01*
X0020007Y0180719D01*
X0020157Y0180668D01*
X0020306Y0180613D01*
X0020453Y0180555D01*
X0020599Y0180493D01*
X0020743Y0180428D01*
X0020885Y0180358D01*
X0021026Y0180286D01*
X0021165Y0180209D01*
X0021301Y0180130D01*
X0021436Y0180046D01*
X0021569Y0179960D01*
X0021699Y0179870D01*
X0021827Y0179777D01*
X0021953Y0179681D01*
X0022076Y0179581D01*
X0022197Y0179479D01*
X0022315Y0179374D01*
X0022430Y0179265D01*
X0022543Y0179154D01*
X0022653Y0179040D01*
X0022760Y0178923D01*
X0022864Y0178804D01*
X0022965Y0178682D01*
X0023062Y0178557D01*
X0023157Y0178430D01*
X0023248Y0178301D01*
X0023337Y0178170D01*
X0023421Y0178036D01*
X0023503Y0177900D01*
X0023581Y0177763D01*
X0023655Y0177623D01*
X0023726Y0177481D01*
X0023794Y0177338D01*
X0023858Y0177193D01*
X0023918Y0177047D01*
X0023974Y0176899D01*
X0024027Y0176750D01*
X0024076Y0176599D01*
X0024121Y0176447D01*
X0024162Y0176294D01*
X0024200Y0176141D01*
X0024233Y0175986D01*
X0024263Y0175830D01*
X0024289Y0175674D01*
X0024310Y0175517D01*
X0024328Y0175360D01*
X0024342Y0175202D01*
X0024352Y0175044D01*
X0024358Y0174886D01*
X0024360Y0174728D01*
X0024358Y0174570D01*
X0024352Y0174412D01*
X0024342Y0174254D01*
X0024328Y0174096D01*
X0024310Y0173939D01*
X0024289Y0173782D01*
X0024263Y0173626D01*
X0024233Y0173470D01*
X0024200Y0173315D01*
X0024162Y0173162D01*
X0024121Y0173009D01*
X0024076Y0172857D01*
X0024027Y0172706D01*
X0023974Y0172557D01*
X0023918Y0172409D01*
X0023858Y0172263D01*
X0023794Y0172118D01*
X0023726Y0171975D01*
X0023655Y0171833D01*
X0023581Y0171693D01*
X0023503Y0171556D01*
X0023421Y0171420D01*
X0023337Y0171286D01*
X0023248Y0171155D01*
X0023157Y0171026D01*
X0023062Y0170899D01*
X0022965Y0170774D01*
X0022864Y0170652D01*
X0022760Y0170533D01*
X0022653Y0170416D01*
X0022543Y0170302D01*
X0022430Y0170191D01*
X0022315Y0170082D01*
X0022197Y0169977D01*
X0022076Y0169875D01*
X0021953Y0169775D01*
X0021827Y0169679D01*
X0021699Y0169586D01*
X0021569Y0169496D01*
X0021436Y0169410D01*
X0021301Y0169326D01*
X0021165Y0169247D01*
X0021026Y0169170D01*
X0020885Y0169098D01*
X0020743Y0169028D01*
X0020599Y0168963D01*
X0020453Y0168901D01*
X0020306Y0168843D01*
X0020157Y0168788D01*
X0020007Y0168737D01*
X0019856Y0168690D01*
X0019704Y0168647D01*
X0019551Y0168608D01*
X0019396Y0168572D01*
X0019241Y0168541D01*
X0019085Y0168513D01*
X0018929Y0168489D01*
X0018772Y0168469D01*
X0018614Y0168453D01*
X0018457Y0168441D01*
X0018298Y0168433D01*
X0018140Y0168429D01*
X0017982Y0168429D01*
X0017824Y0168433D01*
X0017665Y0168441D01*
X0017508Y0168453D01*
X0017350Y0168469D01*
X0017193Y0168489D01*
X0017037Y0168513D01*
X0016881Y0168541D01*
X0016726Y0168572D01*
X0016571Y0168608D01*
X0016418Y0168647D01*
X0016266Y0168690D01*
X0016115Y0168737D01*
X0015965Y0168788D01*
X0015816Y0168843D01*
X0015669Y0168901D01*
X0015523Y0168963D01*
X0015379Y0169028D01*
X0015237Y0169098D01*
X0015096Y0169170D01*
X0014957Y0169247D01*
X0014821Y0169326D01*
X0014686Y0169410D01*
X0014553Y0169496D01*
X0014423Y0169586D01*
X0014295Y0169679D01*
X0014169Y0169775D01*
X0014046Y0169875D01*
X0013925Y0169977D01*
X0013807Y0170082D01*
X0013692Y0170191D01*
X0013579Y0170302D01*
X0013469Y0170416D01*
X0013362Y0170533D01*
X0013258Y0170652D01*
X0013157Y0170774D01*
X0013060Y0170899D01*
X0012965Y0171026D01*
X0012874Y0171155D01*
X0012785Y0171286D01*
X0012701Y0171420D01*
X0012619Y0171556D01*
X0012541Y0171693D01*
X0012467Y0171833D01*
X0012396Y0171975D01*
X0012328Y0172118D01*
X0012264Y0172263D01*
X0012204Y0172409D01*
X0012148Y0172557D01*
X0012095Y0172706D01*
X0012046Y0172857D01*
X0012001Y0173009D01*
X0011960Y0173162D01*
X0011922Y0173315D01*
X0011889Y0173470D01*
X0011859Y0173626D01*
X0011833Y0173782D01*
X0011812Y0173939D01*
X0011794Y0174096D01*
X0011780Y0174254D01*
X0011770Y0174412D01*
X0011764Y0174570D01*
X0011762Y0174728D01*
X0173179Y0174728D02*
X0173181Y0174886D01*
X0173187Y0175044D01*
X0173197Y0175202D01*
X0173211Y0175360D01*
X0173229Y0175517D01*
X0173250Y0175674D01*
X0173276Y0175830D01*
X0173306Y0175986D01*
X0173339Y0176141D01*
X0173377Y0176294D01*
X0173418Y0176447D01*
X0173463Y0176599D01*
X0173512Y0176750D01*
X0173565Y0176899D01*
X0173621Y0177047D01*
X0173681Y0177193D01*
X0173745Y0177338D01*
X0173813Y0177481D01*
X0173884Y0177623D01*
X0173958Y0177763D01*
X0174036Y0177900D01*
X0174118Y0178036D01*
X0174202Y0178170D01*
X0174291Y0178301D01*
X0174382Y0178430D01*
X0174477Y0178557D01*
X0174574Y0178682D01*
X0174675Y0178804D01*
X0174779Y0178923D01*
X0174886Y0179040D01*
X0174996Y0179154D01*
X0175109Y0179265D01*
X0175224Y0179374D01*
X0175342Y0179479D01*
X0175463Y0179581D01*
X0175586Y0179681D01*
X0175712Y0179777D01*
X0175840Y0179870D01*
X0175970Y0179960D01*
X0176103Y0180046D01*
X0176238Y0180130D01*
X0176374Y0180209D01*
X0176513Y0180286D01*
X0176654Y0180358D01*
X0176796Y0180428D01*
X0176940Y0180493D01*
X0177086Y0180555D01*
X0177233Y0180613D01*
X0177382Y0180668D01*
X0177532Y0180719D01*
X0177683Y0180766D01*
X0177835Y0180809D01*
X0177988Y0180848D01*
X0178143Y0180884D01*
X0178298Y0180915D01*
X0178454Y0180943D01*
X0178610Y0180967D01*
X0178767Y0180987D01*
X0178925Y0181003D01*
X0179082Y0181015D01*
X0179241Y0181023D01*
X0179399Y0181027D01*
X0179557Y0181027D01*
X0179715Y0181023D01*
X0179874Y0181015D01*
X0180031Y0181003D01*
X0180189Y0180987D01*
X0180346Y0180967D01*
X0180502Y0180943D01*
X0180658Y0180915D01*
X0180813Y0180884D01*
X0180968Y0180848D01*
X0181121Y0180809D01*
X0181273Y0180766D01*
X0181424Y0180719D01*
X0181574Y0180668D01*
X0181723Y0180613D01*
X0181870Y0180555D01*
X0182016Y0180493D01*
X0182160Y0180428D01*
X0182302Y0180358D01*
X0182443Y0180286D01*
X0182582Y0180209D01*
X0182718Y0180130D01*
X0182853Y0180046D01*
X0182986Y0179960D01*
X0183116Y0179870D01*
X0183244Y0179777D01*
X0183370Y0179681D01*
X0183493Y0179581D01*
X0183614Y0179479D01*
X0183732Y0179374D01*
X0183847Y0179265D01*
X0183960Y0179154D01*
X0184070Y0179040D01*
X0184177Y0178923D01*
X0184281Y0178804D01*
X0184382Y0178682D01*
X0184479Y0178557D01*
X0184574Y0178430D01*
X0184665Y0178301D01*
X0184754Y0178170D01*
X0184838Y0178036D01*
X0184920Y0177900D01*
X0184998Y0177763D01*
X0185072Y0177623D01*
X0185143Y0177481D01*
X0185211Y0177338D01*
X0185275Y0177193D01*
X0185335Y0177047D01*
X0185391Y0176899D01*
X0185444Y0176750D01*
X0185493Y0176599D01*
X0185538Y0176447D01*
X0185579Y0176294D01*
X0185617Y0176141D01*
X0185650Y0175986D01*
X0185680Y0175830D01*
X0185706Y0175674D01*
X0185727Y0175517D01*
X0185745Y0175360D01*
X0185759Y0175202D01*
X0185769Y0175044D01*
X0185775Y0174886D01*
X0185777Y0174728D01*
X0185775Y0174570D01*
X0185769Y0174412D01*
X0185759Y0174254D01*
X0185745Y0174096D01*
X0185727Y0173939D01*
X0185706Y0173782D01*
X0185680Y0173626D01*
X0185650Y0173470D01*
X0185617Y0173315D01*
X0185579Y0173162D01*
X0185538Y0173009D01*
X0185493Y0172857D01*
X0185444Y0172706D01*
X0185391Y0172557D01*
X0185335Y0172409D01*
X0185275Y0172263D01*
X0185211Y0172118D01*
X0185143Y0171975D01*
X0185072Y0171833D01*
X0184998Y0171693D01*
X0184920Y0171556D01*
X0184838Y0171420D01*
X0184754Y0171286D01*
X0184665Y0171155D01*
X0184574Y0171026D01*
X0184479Y0170899D01*
X0184382Y0170774D01*
X0184281Y0170652D01*
X0184177Y0170533D01*
X0184070Y0170416D01*
X0183960Y0170302D01*
X0183847Y0170191D01*
X0183732Y0170082D01*
X0183614Y0169977D01*
X0183493Y0169875D01*
X0183370Y0169775D01*
X0183244Y0169679D01*
X0183116Y0169586D01*
X0182986Y0169496D01*
X0182853Y0169410D01*
X0182718Y0169326D01*
X0182582Y0169247D01*
X0182443Y0169170D01*
X0182302Y0169098D01*
X0182160Y0169028D01*
X0182016Y0168963D01*
X0181870Y0168901D01*
X0181723Y0168843D01*
X0181574Y0168788D01*
X0181424Y0168737D01*
X0181273Y0168690D01*
X0181121Y0168647D01*
X0180968Y0168608D01*
X0180813Y0168572D01*
X0180658Y0168541D01*
X0180502Y0168513D01*
X0180346Y0168489D01*
X0180189Y0168469D01*
X0180031Y0168453D01*
X0179874Y0168441D01*
X0179715Y0168433D01*
X0179557Y0168429D01*
X0179399Y0168429D01*
X0179241Y0168433D01*
X0179082Y0168441D01*
X0178925Y0168453D01*
X0178767Y0168469D01*
X0178610Y0168489D01*
X0178454Y0168513D01*
X0178298Y0168541D01*
X0178143Y0168572D01*
X0177988Y0168608D01*
X0177835Y0168647D01*
X0177683Y0168690D01*
X0177532Y0168737D01*
X0177382Y0168788D01*
X0177233Y0168843D01*
X0177086Y0168901D01*
X0176940Y0168963D01*
X0176796Y0169028D01*
X0176654Y0169098D01*
X0176513Y0169170D01*
X0176374Y0169247D01*
X0176238Y0169326D01*
X0176103Y0169410D01*
X0175970Y0169496D01*
X0175840Y0169586D01*
X0175712Y0169679D01*
X0175586Y0169775D01*
X0175463Y0169875D01*
X0175342Y0169977D01*
X0175224Y0170082D01*
X0175109Y0170191D01*
X0174996Y0170302D01*
X0174886Y0170416D01*
X0174779Y0170533D01*
X0174675Y0170652D01*
X0174574Y0170774D01*
X0174477Y0170899D01*
X0174382Y0171026D01*
X0174291Y0171155D01*
X0174202Y0171286D01*
X0174118Y0171420D01*
X0174036Y0171556D01*
X0173958Y0171693D01*
X0173884Y0171833D01*
X0173813Y0171975D01*
X0173745Y0172118D01*
X0173681Y0172263D01*
X0173621Y0172409D01*
X0173565Y0172557D01*
X0173512Y0172706D01*
X0173463Y0172857D01*
X0173418Y0173009D01*
X0173377Y0173162D01*
X0173339Y0173315D01*
X0173306Y0173470D01*
X0173276Y0173626D01*
X0173250Y0173782D01*
X0173229Y0173939D01*
X0173211Y0174096D01*
X0173197Y0174254D01*
X0173187Y0174412D01*
X0173181Y0174570D01*
X0173179Y0174728D01*
X0173179Y0013311D02*
X0173181Y0013469D01*
X0173187Y0013627D01*
X0173197Y0013785D01*
X0173211Y0013943D01*
X0173229Y0014100D01*
X0173250Y0014257D01*
X0173276Y0014413D01*
X0173306Y0014569D01*
X0173339Y0014724D01*
X0173377Y0014877D01*
X0173418Y0015030D01*
X0173463Y0015182D01*
X0173512Y0015333D01*
X0173565Y0015482D01*
X0173621Y0015630D01*
X0173681Y0015776D01*
X0173745Y0015921D01*
X0173813Y0016064D01*
X0173884Y0016206D01*
X0173958Y0016346D01*
X0174036Y0016483D01*
X0174118Y0016619D01*
X0174202Y0016753D01*
X0174291Y0016884D01*
X0174382Y0017013D01*
X0174477Y0017140D01*
X0174574Y0017265D01*
X0174675Y0017387D01*
X0174779Y0017506D01*
X0174886Y0017623D01*
X0174996Y0017737D01*
X0175109Y0017848D01*
X0175224Y0017957D01*
X0175342Y0018062D01*
X0175463Y0018164D01*
X0175586Y0018264D01*
X0175712Y0018360D01*
X0175840Y0018453D01*
X0175970Y0018543D01*
X0176103Y0018629D01*
X0176238Y0018713D01*
X0176374Y0018792D01*
X0176513Y0018869D01*
X0176654Y0018941D01*
X0176796Y0019011D01*
X0176940Y0019076D01*
X0177086Y0019138D01*
X0177233Y0019196D01*
X0177382Y0019251D01*
X0177532Y0019302D01*
X0177683Y0019349D01*
X0177835Y0019392D01*
X0177988Y0019431D01*
X0178143Y0019467D01*
X0178298Y0019498D01*
X0178454Y0019526D01*
X0178610Y0019550D01*
X0178767Y0019570D01*
X0178925Y0019586D01*
X0179082Y0019598D01*
X0179241Y0019606D01*
X0179399Y0019610D01*
X0179557Y0019610D01*
X0179715Y0019606D01*
X0179874Y0019598D01*
X0180031Y0019586D01*
X0180189Y0019570D01*
X0180346Y0019550D01*
X0180502Y0019526D01*
X0180658Y0019498D01*
X0180813Y0019467D01*
X0180968Y0019431D01*
X0181121Y0019392D01*
X0181273Y0019349D01*
X0181424Y0019302D01*
X0181574Y0019251D01*
X0181723Y0019196D01*
X0181870Y0019138D01*
X0182016Y0019076D01*
X0182160Y0019011D01*
X0182302Y0018941D01*
X0182443Y0018869D01*
X0182582Y0018792D01*
X0182718Y0018713D01*
X0182853Y0018629D01*
X0182986Y0018543D01*
X0183116Y0018453D01*
X0183244Y0018360D01*
X0183370Y0018264D01*
X0183493Y0018164D01*
X0183614Y0018062D01*
X0183732Y0017957D01*
X0183847Y0017848D01*
X0183960Y0017737D01*
X0184070Y0017623D01*
X0184177Y0017506D01*
X0184281Y0017387D01*
X0184382Y0017265D01*
X0184479Y0017140D01*
X0184574Y0017013D01*
X0184665Y0016884D01*
X0184754Y0016753D01*
X0184838Y0016619D01*
X0184920Y0016483D01*
X0184998Y0016346D01*
X0185072Y0016206D01*
X0185143Y0016064D01*
X0185211Y0015921D01*
X0185275Y0015776D01*
X0185335Y0015630D01*
X0185391Y0015482D01*
X0185444Y0015333D01*
X0185493Y0015182D01*
X0185538Y0015030D01*
X0185579Y0014877D01*
X0185617Y0014724D01*
X0185650Y0014569D01*
X0185680Y0014413D01*
X0185706Y0014257D01*
X0185727Y0014100D01*
X0185745Y0013943D01*
X0185759Y0013785D01*
X0185769Y0013627D01*
X0185775Y0013469D01*
X0185777Y0013311D01*
X0185775Y0013153D01*
X0185769Y0012995D01*
X0185759Y0012837D01*
X0185745Y0012679D01*
X0185727Y0012522D01*
X0185706Y0012365D01*
X0185680Y0012209D01*
X0185650Y0012053D01*
X0185617Y0011898D01*
X0185579Y0011745D01*
X0185538Y0011592D01*
X0185493Y0011440D01*
X0185444Y0011289D01*
X0185391Y0011140D01*
X0185335Y0010992D01*
X0185275Y0010846D01*
X0185211Y0010701D01*
X0185143Y0010558D01*
X0185072Y0010416D01*
X0184998Y0010276D01*
X0184920Y0010139D01*
X0184838Y0010003D01*
X0184754Y0009869D01*
X0184665Y0009738D01*
X0184574Y0009609D01*
X0184479Y0009482D01*
X0184382Y0009357D01*
X0184281Y0009235D01*
X0184177Y0009116D01*
X0184070Y0008999D01*
X0183960Y0008885D01*
X0183847Y0008774D01*
X0183732Y0008665D01*
X0183614Y0008560D01*
X0183493Y0008458D01*
X0183370Y0008358D01*
X0183244Y0008262D01*
X0183116Y0008169D01*
X0182986Y0008079D01*
X0182853Y0007993D01*
X0182718Y0007909D01*
X0182582Y0007830D01*
X0182443Y0007753D01*
X0182302Y0007681D01*
X0182160Y0007611D01*
X0182016Y0007546D01*
X0181870Y0007484D01*
X0181723Y0007426D01*
X0181574Y0007371D01*
X0181424Y0007320D01*
X0181273Y0007273D01*
X0181121Y0007230D01*
X0180968Y0007191D01*
X0180813Y0007155D01*
X0180658Y0007124D01*
X0180502Y0007096D01*
X0180346Y0007072D01*
X0180189Y0007052D01*
X0180031Y0007036D01*
X0179874Y0007024D01*
X0179715Y0007016D01*
X0179557Y0007012D01*
X0179399Y0007012D01*
X0179241Y0007016D01*
X0179082Y0007024D01*
X0178925Y0007036D01*
X0178767Y0007052D01*
X0178610Y0007072D01*
X0178454Y0007096D01*
X0178298Y0007124D01*
X0178143Y0007155D01*
X0177988Y0007191D01*
X0177835Y0007230D01*
X0177683Y0007273D01*
X0177532Y0007320D01*
X0177382Y0007371D01*
X0177233Y0007426D01*
X0177086Y0007484D01*
X0176940Y0007546D01*
X0176796Y0007611D01*
X0176654Y0007681D01*
X0176513Y0007753D01*
X0176374Y0007830D01*
X0176238Y0007909D01*
X0176103Y0007993D01*
X0175970Y0008079D01*
X0175840Y0008169D01*
X0175712Y0008262D01*
X0175586Y0008358D01*
X0175463Y0008458D01*
X0175342Y0008560D01*
X0175224Y0008665D01*
X0175109Y0008774D01*
X0174996Y0008885D01*
X0174886Y0008999D01*
X0174779Y0009116D01*
X0174675Y0009235D01*
X0174574Y0009357D01*
X0174477Y0009482D01*
X0174382Y0009609D01*
X0174291Y0009738D01*
X0174202Y0009869D01*
X0174118Y0010003D01*
X0174036Y0010139D01*
X0173958Y0010276D01*
X0173884Y0010416D01*
X0173813Y0010558D01*
X0173745Y0010701D01*
X0173681Y0010846D01*
X0173621Y0010992D01*
X0173565Y0011140D01*
X0173512Y0011289D01*
X0173463Y0011440D01*
X0173418Y0011592D01*
X0173377Y0011745D01*
X0173339Y0011898D01*
X0173306Y0012053D01*
X0173276Y0012209D01*
X0173250Y0012365D01*
X0173229Y0012522D01*
X0173211Y0012679D01*
X0173197Y0012837D01*
X0173187Y0012995D01*
X0173181Y0013153D01*
X0173179Y0013311D01*
M02*
