G75*
%MOIN*%
%OFA0B0*%
%FSLAX25Y25*%
%IPPOS*%
%LPD*%
%AMOC8*
5,1,8,0,0,1.08239X$1,22.5*
%
%ADD10C,0.13398*%
%ADD11C,0.07400*%
%ADD12C,0.08200*%
%ADD13C,0.06000*%
%ADD14OC8,0.06000*%
%ADD15C,0.08400*%
%ADD16C,0.06000*%
%ADD17OC8,0.07100*%
%ADD18C,0.03778*%
D10*
X0018061Y0013611D03*
X0179478Y0013611D03*
X0179478Y0175028D03*
X0018061Y0175028D03*
D11*
X0056250Y0086800D03*
X0056250Y0046800D03*
D12*
X0056250Y0037500D03*
X0056250Y0026100D03*
X0036950Y0036800D03*
X0025550Y0036800D03*
X0086250Y0026800D03*
X0096250Y0026800D03*
X0106250Y0026800D03*
D13*
X0093850Y0041800D02*
X0088650Y0041800D01*
X0073850Y0041800D02*
X0068650Y0041800D01*
X0038850Y0066800D02*
X0033650Y0066800D01*
X0033650Y0076800D02*
X0038850Y0076800D01*
X0038850Y0086800D02*
X0033650Y0086800D01*
X0068650Y0081800D02*
X0073850Y0081800D01*
X0073850Y0071800D02*
X0068650Y0071800D01*
X0088650Y0071800D02*
X0093850Y0071800D01*
X0093850Y0081800D02*
X0088650Y0081800D01*
X0103650Y0076800D02*
X0108850Y0076800D01*
X0108850Y0066800D02*
X0103650Y0066800D01*
X0103650Y0056800D02*
X0108850Y0056800D01*
X0133650Y0056800D02*
X0138850Y0056800D01*
X0148650Y0056800D02*
X0153850Y0056800D01*
X0153850Y0066800D02*
X0148650Y0066800D01*
X0148650Y0076800D02*
X0153850Y0076800D01*
X0138850Y0076800D02*
X0133650Y0076800D01*
X0178650Y0076800D02*
X0183850Y0076800D01*
X0183850Y0056800D02*
X0178650Y0056800D01*
D14*
X0146250Y0026800D03*
X0126250Y0026800D03*
X0016250Y0066800D03*
X0016250Y0086800D03*
D15*
X0016250Y0096800D03*
X0026250Y0096800D03*
X0036250Y0096800D03*
X0046250Y0096800D03*
X0056250Y0096800D03*
X0066250Y0096800D03*
X0076250Y0096800D03*
X0086250Y0096800D03*
X0096250Y0096800D03*
X0106250Y0096800D03*
X0116250Y0096800D03*
X0126250Y0096800D03*
X0136250Y0096800D03*
X0146250Y0096800D03*
X0156250Y0096800D03*
X0166250Y0096800D03*
X0176250Y0096800D03*
X0176250Y0156800D03*
X0166250Y0156800D03*
X0156250Y0156800D03*
X0146250Y0156800D03*
X0136250Y0156800D03*
X0126250Y0156800D03*
X0116250Y0156800D03*
X0106250Y0156800D03*
X0096250Y0156800D03*
X0086250Y0156800D03*
X0076250Y0156800D03*
X0066250Y0156800D03*
X0056250Y0156800D03*
X0046250Y0156800D03*
X0036250Y0156800D03*
X0026250Y0156800D03*
X0016250Y0156800D03*
D16*
X0156250Y0026800D03*
X0166250Y0026800D03*
D17*
X0036250Y0046800D03*
X0036250Y0056800D03*
D18*
X0040650Y0141800D03*
X0077450Y0145000D03*
X0084650Y0148200D03*
X0150250Y0091400D03*
M02*
