G75*
%MOIN*%
%OFA0B0*%
%FSLAX25Y25*%
%IPPOS*%
%LPD*%
%AMOC8*
5,1,8,0,0,1.08239X$1,22.5*
%
%ADD10C,0.06600*%
%ADD11C,0.07400*%
%ADD12C,0.05200*%
%ADD13OC8,0.05200*%
%ADD14C,0.07600*%
%ADD15C,0.05200*%
%ADD16OC8,0.06300*%
%ADD17C,0.03200*%
%ADD18C,0.00600*%
%ADD19C,0.02978*%
%ADD20C,0.01600*%
D10*
X0056250Y0046800D03*
X0056250Y0086800D03*
D11*
X0056250Y0037500D03*
X0056250Y0026100D03*
X0036950Y0036800D03*
X0025550Y0036800D03*
X0086250Y0026800D03*
X0096250Y0026800D03*
X0106250Y0026800D03*
D12*
X0093850Y0041800D02*
X0088650Y0041800D01*
X0073850Y0041800D02*
X0068650Y0041800D01*
X0038850Y0066800D02*
X0033650Y0066800D01*
X0033650Y0076800D02*
X0038850Y0076800D01*
X0038850Y0086800D02*
X0033650Y0086800D01*
X0068650Y0081800D02*
X0073850Y0081800D01*
X0073850Y0071800D02*
X0068650Y0071800D01*
X0088650Y0071800D02*
X0093850Y0071800D01*
X0093850Y0081800D02*
X0088650Y0081800D01*
X0103650Y0076800D02*
X0108850Y0076800D01*
X0108850Y0066800D02*
X0103650Y0066800D01*
X0103650Y0056800D02*
X0108850Y0056800D01*
X0133650Y0056800D02*
X0138850Y0056800D01*
X0148650Y0056800D02*
X0153850Y0056800D01*
X0153850Y0066800D02*
X0148650Y0066800D01*
X0148650Y0076800D02*
X0153850Y0076800D01*
X0138850Y0076800D02*
X0133650Y0076800D01*
X0178650Y0076800D02*
X0183850Y0076800D01*
X0183850Y0056800D02*
X0178650Y0056800D01*
D13*
X0146250Y0026800D03*
X0126250Y0026800D03*
X0016250Y0066800D03*
X0016250Y0086800D03*
D14*
X0016250Y0096800D03*
X0026250Y0096800D03*
X0036250Y0096800D03*
X0046250Y0096800D03*
X0056250Y0096800D03*
X0066250Y0096800D03*
X0076250Y0096800D03*
X0086250Y0096800D03*
X0096250Y0096800D03*
X0106250Y0096800D03*
X0116250Y0096800D03*
X0126250Y0096800D03*
X0136250Y0096800D03*
X0146250Y0096800D03*
X0156250Y0096800D03*
X0166250Y0096800D03*
X0176250Y0096800D03*
X0176250Y0156800D03*
X0166250Y0156800D03*
X0156250Y0156800D03*
X0146250Y0156800D03*
X0136250Y0156800D03*
X0126250Y0156800D03*
X0116250Y0156800D03*
X0106250Y0156800D03*
X0096250Y0156800D03*
X0086250Y0156800D03*
X0076250Y0156800D03*
X0066250Y0156800D03*
X0056250Y0156800D03*
X0046250Y0156800D03*
X0036250Y0156800D03*
X0026250Y0156800D03*
X0016250Y0156800D03*
D15*
X0156250Y0026800D03*
X0166250Y0026800D03*
D16*
X0036250Y0046800D03*
X0036250Y0056800D03*
D17*
X0036250Y0046800D02*
X0026250Y0036800D01*
X0025550Y0036800D01*
X0036250Y0046800D02*
X0071250Y0081800D01*
X0071250Y0041800D02*
X0056250Y0026800D01*
X0056250Y0026100D01*
D18*
X0055850Y0037000D02*
X0056250Y0037500D01*
X0055850Y0037000D02*
X0037450Y0037000D01*
X0036950Y0036800D01*
X0056250Y0046800D02*
X0056650Y0047400D01*
X0071050Y0061800D01*
X0071050Y0071400D01*
X0071250Y0071800D01*
X0078250Y0073800D02*
X0071850Y0080200D01*
X0071250Y0081800D01*
X0067050Y0085800D02*
X0087050Y0085800D01*
X0091050Y0081800D01*
X0091250Y0081800D01*
X0091850Y0081800D01*
X0106250Y0067400D01*
X0106250Y0066800D01*
X0106250Y0067400D02*
X0138250Y0067400D01*
X0144650Y0073800D01*
X0144650Y0094600D01*
X0146250Y0096200D01*
X0146250Y0096800D01*
X0150250Y0091400D02*
X0178250Y0091400D01*
X0181450Y0094600D01*
X0181450Y0099400D01*
X0139050Y0141800D01*
X0040650Y0141800D01*
X0046250Y0156200D02*
X0046250Y0156800D01*
X0046250Y0156200D02*
X0011050Y0121000D01*
X0011050Y0085800D01*
X0014250Y0082600D01*
X0018250Y0082600D01*
X0027050Y0091400D01*
X0090250Y0091400D01*
X0104650Y0077000D01*
X0106250Y0077000D01*
X0106250Y0076800D01*
X0078250Y0073800D02*
X0078250Y0046600D01*
X0095850Y0029000D01*
X0095850Y0027400D01*
X0096250Y0026800D01*
X0122250Y0025000D02*
X0124650Y0022600D01*
X0127850Y0022600D01*
X0174250Y0069000D01*
X0174250Y0080200D01*
X0186250Y0092200D01*
X0186250Y0154600D01*
X0178250Y0162600D01*
X0042250Y0162600D01*
X0036650Y0157000D01*
X0036250Y0156800D01*
X0066250Y0156800D02*
X0066250Y0156200D01*
X0077450Y0145000D01*
X0084650Y0148200D02*
X0076650Y0156200D01*
X0076250Y0156800D01*
X0086250Y0156800D02*
X0086250Y0156200D01*
X0092650Y0149800D01*
X0133450Y0149800D01*
X0183050Y0100200D01*
X0183050Y0093800D01*
X0166250Y0077000D01*
X0151850Y0077000D01*
X0151250Y0076800D01*
X0144650Y0073800D02*
X0151050Y0067400D01*
X0151250Y0066800D01*
X0136250Y0056800D02*
X0135850Y0056200D01*
X0135850Y0042600D01*
X0122250Y0029000D01*
X0122250Y0025000D01*
X0126250Y0026800D02*
X0126250Y0027400D01*
X0130250Y0027400D01*
X0172650Y0069800D01*
X0172650Y0081000D01*
X0184650Y0093000D01*
X0184650Y0101000D01*
X0134250Y0151400D01*
X0121450Y0151400D01*
X0116650Y0156200D01*
X0116250Y0156800D01*
X0056250Y0086800D02*
X0055850Y0086600D01*
X0046250Y0077000D01*
X0036650Y0077000D01*
X0036250Y0076800D01*
X0036650Y0067400D02*
X0036250Y0066800D01*
X0036650Y0066600D01*
X0036650Y0057000D01*
X0036250Y0056800D01*
X0036650Y0067400D02*
X0048650Y0067400D01*
X0067050Y0085800D01*
X0036250Y0086800D02*
X0035850Y0086600D01*
X0016650Y0067400D01*
X0016250Y0066800D01*
X0016250Y0086800D02*
X0016650Y0087400D01*
X0016650Y0096200D01*
X0016250Y0096800D01*
X0146250Y0026800D02*
X0146250Y0026600D01*
X0155850Y0026600D01*
X0156250Y0026800D01*
D19*
X0150250Y0091400D03*
X0084650Y0148200D03*
X0077450Y0145000D03*
X0040650Y0141800D03*
D20*
X0011050Y0082830D02*
X0011050Y0022297D01*
X0011246Y0022493D01*
X0013777Y0023954D01*
X0016600Y0024710D01*
X0019522Y0024710D01*
X0022345Y0023954D01*
X0024876Y0022493D01*
X0026943Y0020426D01*
X0028404Y0017895D01*
X0029160Y0015072D01*
X0029160Y0012150D01*
X0028404Y0009327D01*
X0026943Y0006796D01*
X0026747Y0006600D01*
X0170793Y0006600D01*
X0170597Y0006796D01*
X0169136Y0009327D01*
X0168379Y0012150D01*
X0168379Y0015072D01*
X0169136Y0017895D01*
X0170597Y0020426D01*
X0172663Y0022493D01*
X0175194Y0023954D01*
X0178017Y0024710D01*
X0180940Y0024710D01*
X0183762Y0023954D01*
X0186293Y0022493D01*
X0186489Y0022297D01*
X0186489Y0053217D01*
X0186342Y0053070D01*
X0184725Y0052400D01*
X0177775Y0052400D01*
X0176158Y0053070D01*
X0174920Y0054308D01*
X0174250Y0055925D01*
X0174250Y0057675D01*
X0174920Y0059292D01*
X0176158Y0060530D01*
X0177775Y0061200D01*
X0184725Y0061200D01*
X0186342Y0060530D01*
X0186489Y0060383D01*
X0186489Y0073217D01*
X0186342Y0073070D01*
X0184725Y0072400D01*
X0177775Y0072400D01*
X0176350Y0072990D01*
X0176350Y0068130D01*
X0175120Y0066900D01*
X0128720Y0020500D01*
X0123780Y0020500D01*
X0122550Y0021730D01*
X0120150Y0024130D01*
X0120150Y0029870D01*
X0121380Y0031100D01*
X0133750Y0043470D01*
X0133750Y0052400D01*
X0132775Y0052400D01*
X0131158Y0053070D01*
X0129920Y0054308D01*
X0129250Y0055925D01*
X0129250Y0057675D01*
X0129920Y0059292D01*
X0131158Y0060530D01*
X0132775Y0061200D01*
X0139725Y0061200D01*
X0141342Y0060530D01*
X0142580Y0059292D01*
X0143250Y0057675D01*
X0143250Y0055925D01*
X0142580Y0054308D01*
X0141342Y0053070D01*
X0139725Y0052400D01*
X0137950Y0052400D01*
X0137950Y0041730D01*
X0127420Y0031200D01*
X0128073Y0031200D01*
X0129576Y0029696D01*
X0152280Y0052400D01*
X0147775Y0052400D01*
X0146158Y0053070D01*
X0144920Y0054308D01*
X0144250Y0055925D01*
X0144250Y0057675D01*
X0144920Y0059292D01*
X0146158Y0060530D01*
X0147775Y0061200D01*
X0154725Y0061200D01*
X0156342Y0060530D01*
X0157580Y0059292D01*
X0158047Y0058166D01*
X0170550Y0070670D01*
X0170550Y0078330D01*
X0167120Y0074900D01*
X0157826Y0074900D01*
X0157580Y0074308D01*
X0156342Y0073070D01*
X0154725Y0072400D01*
X0149020Y0072400D01*
X0150220Y0071200D01*
X0154725Y0071200D01*
X0156342Y0070530D01*
X0157580Y0069292D01*
X0158250Y0067675D01*
X0158250Y0065925D01*
X0157580Y0064308D01*
X0156342Y0063070D01*
X0154725Y0062400D01*
X0147775Y0062400D01*
X0146158Y0063070D01*
X0144920Y0064308D01*
X0144250Y0065925D01*
X0144250Y0067675D01*
X0144920Y0069292D01*
X0145554Y0069926D01*
X0144650Y0070830D01*
X0139120Y0065300D01*
X0112991Y0065300D01*
X0112580Y0064308D01*
X0111342Y0063070D01*
X0109725Y0062400D01*
X0102775Y0062400D01*
X0101158Y0063070D01*
X0099920Y0064308D01*
X0099250Y0065925D01*
X0099250Y0067675D01*
X0099920Y0069292D01*
X0100654Y0070026D01*
X0098250Y0072430D01*
X0098250Y0070925D01*
X0097580Y0069308D01*
X0096342Y0068070D01*
X0094725Y0067400D01*
X0087775Y0067400D01*
X0086158Y0068070D01*
X0084920Y0069308D01*
X0084250Y0070925D01*
X0084250Y0072675D01*
X0084920Y0074292D01*
X0086158Y0075530D01*
X0087775Y0076200D01*
X0094480Y0076200D01*
X0093280Y0077400D01*
X0087775Y0077400D01*
X0086158Y0078070D01*
X0084920Y0079308D01*
X0084250Y0080925D01*
X0084250Y0082675D01*
X0084674Y0083700D01*
X0077826Y0083700D01*
X0078250Y0082675D01*
X0078250Y0080925D01*
X0077580Y0079308D01*
X0076646Y0078374D01*
X0080350Y0074670D01*
X0080350Y0047470D01*
X0084512Y0043308D01*
X0084920Y0044292D01*
X0086158Y0045530D01*
X0087775Y0046200D01*
X0094725Y0046200D01*
X0096342Y0045530D01*
X0097580Y0044292D01*
X0098250Y0042675D01*
X0098250Y0040925D01*
X0097580Y0039308D01*
X0096342Y0038070D01*
X0094725Y0037400D01*
X0090420Y0037400D01*
X0095520Y0032300D01*
X0097344Y0032300D01*
X0099365Y0031463D01*
X0100913Y0029915D01*
X0101250Y0029101D01*
X0101587Y0029915D01*
X0103134Y0031463D01*
X0105156Y0032300D01*
X0107344Y0032300D01*
X0109365Y0031463D01*
X0110913Y0029915D01*
X0111750Y0027894D01*
X0111750Y0025706D01*
X0110913Y0023684D01*
X0109365Y0022137D01*
X0107344Y0021300D01*
X0105156Y0021300D01*
X0103134Y0022137D01*
X0101587Y0023684D01*
X0101250Y0024499D01*
X0100913Y0023684D01*
X0099365Y0022137D01*
X0097344Y0021300D01*
X0095156Y0021300D01*
X0093134Y0022137D01*
X0091587Y0023684D01*
X0091250Y0024499D01*
X0090913Y0023684D01*
X0089365Y0022137D01*
X0087344Y0021300D01*
X0085156Y0021300D01*
X0083134Y0022137D01*
X0081587Y0023684D01*
X0080750Y0025706D01*
X0080750Y0027894D01*
X0081587Y0029915D01*
X0083134Y0031463D01*
X0085156Y0032300D01*
X0087344Y0032300D01*
X0089365Y0031463D01*
X0090913Y0029915D01*
X0091250Y0029101D01*
X0091587Y0029915D01*
X0091776Y0030104D01*
X0077380Y0044500D01*
X0076150Y0045730D01*
X0076150Y0067990D01*
X0074725Y0067400D01*
X0073150Y0067400D01*
X0073150Y0060930D01*
X0060965Y0048745D01*
X0061350Y0047814D01*
X0061350Y0045786D01*
X0060574Y0043911D01*
X0059139Y0042476D01*
X0058873Y0042366D01*
X0059365Y0042163D01*
X0060913Y0040615D01*
X0061750Y0038594D01*
X0061750Y0037108D01*
X0064636Y0039994D01*
X0064250Y0040925D01*
X0064250Y0042675D01*
X0064920Y0044292D01*
X0066158Y0045530D01*
X0067775Y0046200D01*
X0074725Y0046200D01*
X0076342Y0045530D01*
X0077580Y0044292D01*
X0078250Y0042675D01*
X0078250Y0040925D01*
X0077580Y0039308D01*
X0076342Y0038070D01*
X0074725Y0037400D01*
X0071658Y0037400D01*
X0061663Y0027404D01*
X0061750Y0027194D01*
X0061750Y0025006D01*
X0060913Y0022984D01*
X0059365Y0021437D01*
X0057344Y0020600D01*
X0055156Y0020600D01*
X0053134Y0021437D01*
X0051587Y0022984D01*
X0050750Y0025006D01*
X0050750Y0027194D01*
X0051587Y0029215D01*
X0053134Y0030763D01*
X0055156Y0031600D01*
X0056242Y0031600D01*
X0056642Y0032000D01*
X0055156Y0032000D01*
X0053134Y0032837D01*
X0051587Y0034384D01*
X0051374Y0034900D01*
X0042116Y0034900D01*
X0041613Y0033684D01*
X0040065Y0032137D01*
X0038044Y0031300D01*
X0035856Y0031300D01*
X0033834Y0032137D01*
X0032287Y0033684D01*
X0031450Y0035706D01*
X0031450Y0037192D01*
X0031050Y0036792D01*
X0031050Y0035706D01*
X0030213Y0033684D01*
X0028665Y0032137D01*
X0026644Y0031300D01*
X0024456Y0031300D01*
X0022434Y0032137D01*
X0020887Y0033684D01*
X0020050Y0035706D01*
X0020050Y0037894D01*
X0020887Y0039915D01*
X0022434Y0041463D01*
X0024456Y0042300D01*
X0026644Y0042300D01*
X0026854Y0042213D01*
X0031300Y0046658D01*
X0031300Y0048850D01*
X0034200Y0051750D01*
X0036392Y0051750D01*
X0036492Y0051850D01*
X0034200Y0051850D01*
X0031300Y0054750D01*
X0031300Y0058850D01*
X0034200Y0061750D01*
X0034550Y0061750D01*
X0034550Y0062400D01*
X0032775Y0062400D01*
X0031158Y0063070D01*
X0029920Y0064308D01*
X0029250Y0065925D01*
X0029250Y0067675D01*
X0029920Y0069292D01*
X0031158Y0070530D01*
X0032775Y0071200D01*
X0039725Y0071200D01*
X0041342Y0070530D01*
X0042373Y0069500D01*
X0047780Y0069500D01*
X0064950Y0086670D01*
X0066180Y0087900D01*
X0087920Y0087900D01*
X0089620Y0086200D01*
X0092480Y0086200D01*
X0089380Y0089300D01*
X0060735Y0089300D01*
X0061350Y0087814D01*
X0061350Y0085786D01*
X0060574Y0083911D01*
X0059139Y0082476D01*
X0057264Y0081700D01*
X0055236Y0081700D01*
X0054305Y0082085D01*
X0047120Y0074900D01*
X0042826Y0074900D01*
X0042580Y0074308D01*
X0041342Y0073070D01*
X0039725Y0072400D01*
X0032775Y0072400D01*
X0031158Y0073070D01*
X0029920Y0074308D01*
X0029250Y0075925D01*
X0029250Y0077030D01*
X0020650Y0068430D01*
X0020650Y0064977D01*
X0018073Y0062400D01*
X0014427Y0062400D01*
X0011850Y0064977D01*
X0011850Y0068623D01*
X0014427Y0071200D01*
X0017480Y0071200D01*
X0030254Y0083974D01*
X0029920Y0084308D01*
X0029250Y0085925D01*
X0029250Y0087675D01*
X0029920Y0089292D01*
X0029927Y0089300D01*
X0027920Y0089300D01*
X0020350Y0081730D01*
X0019120Y0080500D01*
X0013380Y0080500D01*
X0011050Y0082830D01*
X0011050Y0081726D02*
X0012155Y0081726D01*
X0011050Y0080127D02*
X0026407Y0080127D01*
X0024809Y0078529D02*
X0011050Y0078529D01*
X0011050Y0076930D02*
X0023210Y0076930D01*
X0021612Y0075332D02*
X0011050Y0075332D01*
X0011050Y0073733D02*
X0020013Y0073733D01*
X0018415Y0072134D02*
X0011050Y0072134D01*
X0011050Y0070536D02*
X0013763Y0070536D01*
X0012165Y0068937D02*
X0011050Y0068937D01*
X0011050Y0067339D02*
X0011850Y0067339D01*
X0011850Y0065740D02*
X0011050Y0065740D01*
X0011050Y0064142D02*
X0012686Y0064142D01*
X0014284Y0062543D02*
X0011050Y0062543D01*
X0011050Y0060945D02*
X0033395Y0060945D01*
X0032428Y0062543D02*
X0018216Y0062543D01*
X0019814Y0064142D02*
X0030086Y0064142D01*
X0029326Y0065740D02*
X0020650Y0065740D01*
X0020650Y0067339D02*
X0029250Y0067339D01*
X0029773Y0068937D02*
X0021157Y0068937D01*
X0022756Y0070536D02*
X0031172Y0070536D01*
X0030494Y0073733D02*
X0025953Y0073733D01*
X0027551Y0075332D02*
X0029496Y0075332D01*
X0029250Y0076930D02*
X0029150Y0076930D01*
X0028006Y0081726D02*
X0020345Y0081726D01*
X0021944Y0083324D02*
X0029604Y0083324D01*
X0029665Y0084923D02*
X0023542Y0084923D01*
X0025141Y0086521D02*
X0029250Y0086521D01*
X0029434Y0088120D02*
X0026739Y0088120D01*
X0023997Y0091317D02*
X0018750Y0091317D01*
X0018750Y0091774D02*
X0019422Y0092053D01*
X0020997Y0093628D01*
X0021250Y0094238D01*
X0021503Y0093628D01*
X0023078Y0092053D01*
X0024248Y0091568D01*
X0020650Y0087970D01*
X0020650Y0088623D01*
X0018750Y0090523D01*
X0018750Y0091774D01*
X0020285Y0092915D02*
X0022215Y0092915D01*
X0022398Y0089718D02*
X0019554Y0089718D01*
X0020650Y0088120D02*
X0020800Y0088120D01*
X0014550Y0091200D02*
X0014427Y0091200D01*
X0013150Y0089923D01*
X0013150Y0092023D01*
X0014550Y0091443D01*
X0014550Y0091200D01*
X0014550Y0091317D02*
X0013150Y0091317D01*
X0013150Y0101577D02*
X0013150Y0120130D01*
X0044488Y0151468D01*
X0045136Y0151200D01*
X0047364Y0151200D01*
X0049422Y0152053D01*
X0050997Y0153628D01*
X0051250Y0154238D01*
X0051503Y0153628D01*
X0053078Y0152053D01*
X0055136Y0151200D01*
X0057364Y0151200D01*
X0059422Y0152053D01*
X0060997Y0153628D01*
X0061250Y0154238D01*
X0061503Y0153628D01*
X0063078Y0152053D01*
X0065136Y0151200D01*
X0067364Y0151200D01*
X0068012Y0151468D01*
X0074161Y0145319D01*
X0074161Y0144346D01*
X0074346Y0143900D01*
X0043201Y0143900D01*
X0042513Y0144588D01*
X0041304Y0145089D01*
X0039996Y0145089D01*
X0038787Y0144588D01*
X0037862Y0143663D01*
X0037361Y0142454D01*
X0037361Y0141146D01*
X0037862Y0139937D01*
X0038787Y0139012D01*
X0039996Y0138511D01*
X0041304Y0138511D01*
X0042513Y0139012D01*
X0043201Y0139700D01*
X0138180Y0139700D01*
X0175480Y0102400D01*
X0175136Y0102400D01*
X0173078Y0101547D01*
X0171503Y0099972D01*
X0171250Y0099362D01*
X0170997Y0099972D01*
X0169422Y0101547D01*
X0167364Y0102400D01*
X0165136Y0102400D01*
X0163078Y0101547D01*
X0161503Y0099972D01*
X0161250Y0099362D01*
X0160997Y0099972D01*
X0159422Y0101547D01*
X0157364Y0102400D01*
X0155136Y0102400D01*
X0153078Y0101547D01*
X0151503Y0099972D01*
X0151250Y0099362D01*
X0150997Y0099972D01*
X0149422Y0101547D01*
X0147364Y0102400D01*
X0145136Y0102400D01*
X0143078Y0101547D01*
X0141503Y0099972D01*
X0141250Y0099362D01*
X0140997Y0099972D01*
X0139422Y0101547D01*
X0137364Y0102400D01*
X0135136Y0102400D01*
X0133078Y0101547D01*
X0131503Y0099972D01*
X0131250Y0099362D01*
X0130997Y0099972D01*
X0129422Y0101547D01*
X0127364Y0102400D01*
X0125136Y0102400D01*
X0123078Y0101547D01*
X0121503Y0099972D01*
X0121250Y0099362D01*
X0120997Y0099972D01*
X0119422Y0101547D01*
X0117364Y0102400D01*
X0115136Y0102400D01*
X0113078Y0101547D01*
X0111503Y0099972D01*
X0111250Y0099362D01*
X0110997Y0099972D01*
X0109422Y0101547D01*
X0107364Y0102400D01*
X0105136Y0102400D01*
X0103078Y0101547D01*
X0101503Y0099972D01*
X0101250Y0099362D01*
X0100997Y0099972D01*
X0099422Y0101547D01*
X0097364Y0102400D01*
X0095136Y0102400D01*
X0093078Y0101547D01*
X0091503Y0099972D01*
X0091250Y0099362D01*
X0090997Y0099972D01*
X0089422Y0101547D01*
X0087364Y0102400D01*
X0085136Y0102400D01*
X0083078Y0101547D01*
X0081503Y0099972D01*
X0081250Y0099362D01*
X0080997Y0099972D01*
X0079422Y0101547D01*
X0077364Y0102400D01*
X0075136Y0102400D01*
X0073078Y0101547D01*
X0071503Y0099972D01*
X0071250Y0099362D01*
X0070997Y0099972D01*
X0069422Y0101547D01*
X0067364Y0102400D01*
X0065136Y0102400D01*
X0063078Y0101547D01*
X0061503Y0099972D01*
X0061250Y0099362D01*
X0060997Y0099972D01*
X0059422Y0101547D01*
X0057364Y0102400D01*
X0055136Y0102400D01*
X0053078Y0101547D01*
X0051503Y0099972D01*
X0051250Y0099362D01*
X0050997Y0099972D01*
X0049422Y0101547D01*
X0047364Y0102400D01*
X0045136Y0102400D01*
X0043078Y0101547D01*
X0041503Y0099972D01*
X0041250Y0099362D01*
X0040997Y0099972D01*
X0039422Y0101547D01*
X0037364Y0102400D01*
X0035136Y0102400D01*
X0033078Y0101547D01*
X0031503Y0099972D01*
X0031250Y0099362D01*
X0030997Y0099972D01*
X0029422Y0101547D01*
X0027364Y0102400D01*
X0025136Y0102400D01*
X0023078Y0101547D01*
X0021503Y0099972D01*
X0021250Y0099362D01*
X0020997Y0099972D01*
X0019422Y0101547D01*
X0017364Y0102400D01*
X0015136Y0102400D01*
X0013150Y0101577D01*
X0013150Y0102506D02*
X0175374Y0102506D01*
X0173775Y0104105D02*
X0013150Y0104105D01*
X0013150Y0105703D02*
X0172177Y0105703D01*
X0170578Y0107302D02*
X0013150Y0107302D01*
X0013150Y0108900D02*
X0168980Y0108900D01*
X0167381Y0110499D02*
X0013150Y0110499D01*
X0013150Y0112097D02*
X0165783Y0112097D01*
X0164184Y0113696D02*
X0013150Y0113696D01*
X0013150Y0115294D02*
X0162586Y0115294D01*
X0160987Y0116893D02*
X0013150Y0116893D01*
X0013150Y0118491D02*
X0159389Y0118491D01*
X0157790Y0120090D02*
X0013150Y0120090D01*
X0014708Y0121688D02*
X0156192Y0121688D01*
X0154593Y0123287D02*
X0016307Y0123287D01*
X0017905Y0124885D02*
X0152995Y0124885D01*
X0151396Y0126484D02*
X0019504Y0126484D01*
X0021102Y0128082D02*
X0149798Y0128082D01*
X0148199Y0129681D02*
X0022701Y0129681D01*
X0024299Y0131279D02*
X0146601Y0131279D01*
X0145002Y0132878D02*
X0025898Y0132878D01*
X0027496Y0134476D02*
X0143404Y0134476D01*
X0141805Y0136075D02*
X0029095Y0136075D01*
X0030693Y0137673D02*
X0140207Y0137673D01*
X0138608Y0139272D02*
X0042773Y0139272D01*
X0038527Y0139272D02*
X0032292Y0139272D01*
X0033890Y0140870D02*
X0037475Y0140870D01*
X0037367Y0142469D02*
X0035489Y0142469D01*
X0037087Y0144068D02*
X0038266Y0144068D01*
X0038686Y0145666D02*
X0073814Y0145666D01*
X0074276Y0144068D02*
X0043034Y0144068D01*
X0040284Y0147265D02*
X0072216Y0147265D01*
X0070617Y0148863D02*
X0041883Y0148863D01*
X0043481Y0150462D02*
X0069019Y0150462D01*
X0071298Y0154122D02*
X0071230Y0154190D01*
X0071250Y0154238D01*
X0071298Y0154122D01*
X0073572Y0151848D02*
X0075136Y0151200D01*
X0077364Y0151200D01*
X0078295Y0151586D01*
X0081361Y0148519D01*
X0081361Y0147546D01*
X0081862Y0146337D01*
X0082787Y0145412D01*
X0083996Y0144911D01*
X0085304Y0144911D01*
X0086513Y0145412D01*
X0087438Y0146337D01*
X0087939Y0147546D01*
X0087939Y0148854D01*
X0087438Y0150063D01*
X0086513Y0150988D01*
X0086002Y0151200D01*
X0087364Y0151200D01*
X0088012Y0151468D01*
X0091780Y0147700D01*
X0132580Y0147700D01*
X0136380Y0143900D01*
X0080554Y0143900D01*
X0080739Y0144346D01*
X0080739Y0145654D01*
X0080238Y0146863D01*
X0079313Y0147788D01*
X0078104Y0148289D01*
X0077131Y0148289D01*
X0073572Y0151848D01*
X0074958Y0150462D02*
X0079419Y0150462D01*
X0081017Y0148863D02*
X0076557Y0148863D01*
X0079837Y0147265D02*
X0081478Y0147265D01*
X0080734Y0145666D02*
X0082533Y0145666D01*
X0080624Y0144068D02*
X0136213Y0144068D01*
X0134614Y0145666D02*
X0086767Y0145666D01*
X0087822Y0147265D02*
X0133016Y0147265D01*
X0137403Y0151216D02*
X0139422Y0152053D01*
X0140997Y0153628D01*
X0141250Y0154238D01*
X0141503Y0153628D01*
X0143078Y0152053D01*
X0145136Y0151200D01*
X0147364Y0151200D01*
X0149422Y0152053D01*
X0150997Y0153628D01*
X0151250Y0154238D01*
X0151503Y0153628D01*
X0153078Y0152053D01*
X0155136Y0151200D01*
X0157364Y0151200D01*
X0159422Y0152053D01*
X0160997Y0153628D01*
X0161250Y0154238D01*
X0161503Y0153628D01*
X0163078Y0152053D01*
X0165136Y0151200D01*
X0167364Y0151200D01*
X0169422Y0152053D01*
X0170997Y0153628D01*
X0171250Y0154238D01*
X0171503Y0153628D01*
X0173078Y0152053D01*
X0175136Y0151200D01*
X0177364Y0151200D01*
X0179422Y0152053D01*
X0180997Y0153628D01*
X0181850Y0155686D01*
X0181850Y0156030D01*
X0184150Y0153730D01*
X0184150Y0104470D01*
X0137403Y0151216D01*
X0138158Y0150462D02*
X0184150Y0150462D01*
X0184150Y0152060D02*
X0179430Y0152060D01*
X0181010Y0153659D02*
X0184150Y0153659D01*
X0182623Y0155257D02*
X0181672Y0155257D01*
X0185366Y0158454D02*
X0186489Y0158454D01*
X0186489Y0157330D02*
X0180350Y0163470D01*
X0179891Y0163929D01*
X0180940Y0163929D01*
X0183762Y0164686D01*
X0186293Y0166147D01*
X0186489Y0166343D01*
X0186489Y0157330D01*
X0186489Y0160053D02*
X0183767Y0160053D01*
X0182169Y0161651D02*
X0186489Y0161651D01*
X0186489Y0163250D02*
X0180570Y0163250D01*
X0184044Y0164848D02*
X0186489Y0164848D01*
X0175169Y0164700D02*
X0041380Y0164700D01*
X0038577Y0161897D01*
X0037364Y0162400D01*
X0035136Y0162400D01*
X0033078Y0161547D01*
X0031503Y0159972D01*
X0031250Y0159362D01*
X0030997Y0159972D01*
X0029422Y0161547D01*
X0027364Y0162400D01*
X0025136Y0162400D01*
X0023078Y0161547D01*
X0021503Y0159972D01*
X0021250Y0159362D01*
X0020997Y0159972D01*
X0019422Y0161547D01*
X0017364Y0162400D01*
X0015136Y0162400D01*
X0013078Y0161547D01*
X0011503Y0159972D01*
X0011050Y0158880D01*
X0011050Y0166343D01*
X0011246Y0166147D01*
X0013777Y0164686D01*
X0016600Y0163929D01*
X0019522Y0163929D01*
X0022345Y0164686D01*
X0024876Y0166147D01*
X0026943Y0168213D01*
X0028404Y0170744D01*
X0029160Y0173567D01*
X0029160Y0176490D01*
X0028404Y0179312D01*
X0026943Y0181843D01*
X0026747Y0182039D01*
X0170793Y0182039D01*
X0170597Y0181843D01*
X0169136Y0179312D01*
X0168379Y0176490D01*
X0168379Y0173567D01*
X0169136Y0170744D01*
X0170597Y0168213D01*
X0172663Y0166147D01*
X0175169Y0164700D01*
X0174913Y0164848D02*
X0022627Y0164848D01*
X0025176Y0166447D02*
X0172363Y0166447D01*
X0170765Y0168045D02*
X0026775Y0168045D01*
X0027768Y0169644D02*
X0169771Y0169644D01*
X0169002Y0171242D02*
X0028537Y0171242D01*
X0028966Y0172841D02*
X0168574Y0172841D01*
X0168379Y0174439D02*
X0029160Y0174439D01*
X0029160Y0176038D02*
X0168379Y0176038D01*
X0168686Y0177636D02*
X0028853Y0177636D01*
X0028425Y0179235D02*
X0169115Y0179235D01*
X0170014Y0180833D02*
X0027526Y0180833D01*
X0013495Y0164848D02*
X0011050Y0164848D01*
X0011050Y0163250D02*
X0039930Y0163250D01*
X0033328Y0161651D02*
X0029172Y0161651D01*
X0030917Y0160053D02*
X0031583Y0160053D01*
X0031250Y0154238D02*
X0031503Y0153628D01*
X0033078Y0152053D01*
X0035136Y0151200D01*
X0037364Y0151200D01*
X0038928Y0151848D01*
X0011050Y0123970D01*
X0011050Y0154720D01*
X0011503Y0153628D01*
X0013078Y0152053D01*
X0015136Y0151200D01*
X0017364Y0151200D01*
X0019422Y0152053D01*
X0020997Y0153628D01*
X0021250Y0154238D01*
X0021503Y0153628D01*
X0023078Y0152053D01*
X0025136Y0151200D01*
X0027364Y0151200D01*
X0029422Y0152053D01*
X0030997Y0153628D01*
X0031250Y0154238D01*
X0031010Y0153659D02*
X0031490Y0153659D01*
X0033070Y0152060D02*
X0029430Y0152060D01*
X0034345Y0147265D02*
X0011050Y0147265D01*
X0011050Y0148863D02*
X0035943Y0148863D01*
X0037542Y0150462D02*
X0011050Y0150462D01*
X0011050Y0152060D02*
X0013070Y0152060D01*
X0011490Y0153659D02*
X0011050Y0153659D01*
X0011050Y0160053D02*
X0011583Y0160053D01*
X0011050Y0161651D02*
X0013328Y0161651D01*
X0019172Y0161651D02*
X0023328Y0161651D01*
X0021583Y0160053D02*
X0020917Y0160053D01*
X0021010Y0153659D02*
X0021490Y0153659D01*
X0023070Y0152060D02*
X0019430Y0152060D01*
X0011050Y0145666D02*
X0032746Y0145666D01*
X0031148Y0144068D02*
X0011050Y0144068D01*
X0011050Y0142469D02*
X0029549Y0142469D01*
X0027951Y0140870D02*
X0011050Y0140870D01*
X0011050Y0139272D02*
X0026352Y0139272D01*
X0024754Y0137673D02*
X0011050Y0137673D01*
X0011050Y0136075D02*
X0023155Y0136075D01*
X0021557Y0134476D02*
X0011050Y0134476D01*
X0011050Y0132878D02*
X0019958Y0132878D01*
X0018360Y0131279D02*
X0011050Y0131279D01*
X0011050Y0129681D02*
X0016761Y0129681D01*
X0015163Y0128082D02*
X0011050Y0128082D01*
X0011050Y0126484D02*
X0013564Y0126484D01*
X0011966Y0124885D02*
X0011050Y0124885D01*
X0020062Y0100908D02*
X0022438Y0100908D01*
X0030062Y0100908D02*
X0032438Y0100908D01*
X0031250Y0094238D02*
X0031503Y0093628D01*
X0031630Y0093500D01*
X0030870Y0093500D01*
X0030997Y0093628D01*
X0031250Y0094238D01*
X0040062Y0100908D02*
X0042438Y0100908D01*
X0041250Y0094238D02*
X0041503Y0093628D01*
X0041630Y0093500D01*
X0040870Y0093500D01*
X0040997Y0093628D01*
X0041250Y0094238D01*
X0042573Y0089300D02*
X0051765Y0089300D01*
X0051150Y0087814D01*
X0051150Y0085786D01*
X0051418Y0085138D01*
X0045380Y0079100D01*
X0042660Y0079100D01*
X0042580Y0079292D01*
X0041342Y0080530D01*
X0039725Y0081200D01*
X0033420Y0081200D01*
X0034620Y0082400D01*
X0039725Y0082400D01*
X0041342Y0083070D01*
X0042580Y0084308D01*
X0043250Y0085925D01*
X0043250Y0087675D01*
X0042580Y0089292D01*
X0042573Y0089300D01*
X0043066Y0088120D02*
X0051276Y0088120D01*
X0051150Y0086521D02*
X0043250Y0086521D01*
X0042835Y0084923D02*
X0051203Y0084923D01*
X0049604Y0083324D02*
X0041597Y0083324D01*
X0041745Y0080127D02*
X0046407Y0080127D01*
X0048006Y0081726D02*
X0033945Y0081726D01*
X0042006Y0073733D02*
X0052013Y0073733D01*
X0050415Y0072134D02*
X0024354Y0072134D01*
X0031796Y0059346D02*
X0011050Y0059346D01*
X0011050Y0057748D02*
X0031300Y0057748D01*
X0031300Y0056149D02*
X0011050Y0056149D01*
X0011050Y0054551D02*
X0031499Y0054551D01*
X0033097Y0052952D02*
X0011050Y0052952D01*
X0011050Y0051354D02*
X0033804Y0051354D01*
X0032205Y0049755D02*
X0011050Y0049755D01*
X0011050Y0048157D02*
X0031300Y0048157D01*
X0031200Y0046558D02*
X0011050Y0046558D01*
X0011050Y0044960D02*
X0029602Y0044960D01*
X0028003Y0043361D02*
X0011050Y0043361D01*
X0011050Y0041763D02*
X0023159Y0041763D01*
X0021136Y0040164D02*
X0011050Y0040164D01*
X0011050Y0038566D02*
X0020328Y0038566D01*
X0020050Y0036967D02*
X0011050Y0036967D01*
X0011050Y0035369D02*
X0020190Y0035369D01*
X0020852Y0033770D02*
X0011050Y0033770D01*
X0011050Y0032172D02*
X0022400Y0032172D01*
X0028700Y0032172D02*
X0033800Y0032172D01*
X0032252Y0033770D02*
X0030248Y0033770D01*
X0030910Y0035369D02*
X0031590Y0035369D01*
X0031450Y0036967D02*
X0031226Y0036967D01*
X0038543Y0042093D02*
X0041200Y0044750D01*
X0041200Y0046942D01*
X0064523Y0070265D01*
X0064920Y0069308D01*
X0066158Y0068070D01*
X0067775Y0067400D01*
X0068950Y0067400D01*
X0068950Y0062670D01*
X0057912Y0051632D01*
X0057264Y0051900D01*
X0055236Y0051900D01*
X0053361Y0051124D01*
X0051926Y0049689D01*
X0051150Y0047814D01*
X0051150Y0045786D01*
X0051926Y0043911D01*
X0053361Y0042476D01*
X0053627Y0042366D01*
X0053134Y0042163D01*
X0051587Y0040615D01*
X0050960Y0039100D01*
X0041950Y0039100D01*
X0041613Y0039915D01*
X0040065Y0041463D01*
X0038543Y0042093D01*
X0039341Y0041763D02*
X0052735Y0041763D01*
X0052476Y0043361D02*
X0039812Y0043361D01*
X0041200Y0044960D02*
X0051492Y0044960D01*
X0051150Y0046558D02*
X0041200Y0046558D01*
X0042415Y0048157D02*
X0051292Y0048157D01*
X0051993Y0049755D02*
X0044014Y0049755D01*
X0045612Y0051354D02*
X0053917Y0051354D01*
X0050408Y0056149D02*
X0062430Y0056149D01*
X0064028Y0057748D02*
X0052006Y0057748D01*
X0053605Y0059346D02*
X0065627Y0059346D01*
X0067225Y0060945D02*
X0055203Y0060945D01*
X0056802Y0062543D02*
X0068824Y0062543D01*
X0068950Y0064142D02*
X0058400Y0064142D01*
X0059999Y0065740D02*
X0068950Y0065740D01*
X0068950Y0067339D02*
X0061597Y0067339D01*
X0063196Y0068937D02*
X0065290Y0068937D01*
X0059973Y0075332D02*
X0059551Y0075332D01*
X0058375Y0073733D02*
X0057953Y0073733D01*
X0056776Y0072134D02*
X0056354Y0072134D01*
X0055178Y0070536D02*
X0054756Y0070536D01*
X0053579Y0068937D02*
X0053157Y0068937D01*
X0051981Y0067339D02*
X0051559Y0067339D01*
X0050382Y0065740D02*
X0049960Y0065740D01*
X0049520Y0065300D02*
X0064512Y0080292D01*
X0064636Y0079994D01*
X0041200Y0056558D01*
X0041200Y0058850D01*
X0038750Y0061300D01*
X0038750Y0062400D01*
X0039725Y0062400D01*
X0041342Y0063070D01*
X0042580Y0064308D01*
X0042991Y0065300D01*
X0049520Y0065300D01*
X0048784Y0064142D02*
X0042414Y0064142D01*
X0040071Y0062543D02*
X0047185Y0062543D01*
X0045587Y0060945D02*
X0039105Y0060945D01*
X0040704Y0059346D02*
X0043988Y0059346D01*
X0042390Y0057748D02*
X0041200Y0057748D01*
X0047211Y0052952D02*
X0059233Y0052952D01*
X0060831Y0054551D02*
X0048809Y0054551D01*
X0061208Y0048157D02*
X0076150Y0048157D01*
X0076150Y0049755D02*
X0061975Y0049755D01*
X0063574Y0051354D02*
X0076150Y0051354D01*
X0076150Y0052952D02*
X0065172Y0052952D01*
X0066771Y0054551D02*
X0076150Y0054551D01*
X0076150Y0056149D02*
X0068369Y0056149D01*
X0069968Y0057748D02*
X0076150Y0057748D01*
X0076150Y0059346D02*
X0071566Y0059346D01*
X0073150Y0060945D02*
X0076150Y0060945D01*
X0076150Y0062543D02*
X0073150Y0062543D01*
X0073150Y0064142D02*
X0076150Y0064142D01*
X0076150Y0065740D02*
X0073150Y0065740D01*
X0073150Y0067339D02*
X0076150Y0067339D01*
X0080350Y0067339D02*
X0099250Y0067339D01*
X0099326Y0065740D02*
X0080350Y0065740D01*
X0080350Y0064142D02*
X0100086Y0064142D01*
X0102428Y0062543D02*
X0080350Y0062543D01*
X0080350Y0060945D02*
X0102159Y0060945D01*
X0102775Y0061200D02*
X0101158Y0060530D01*
X0099920Y0059292D01*
X0099250Y0057675D01*
X0099250Y0055925D01*
X0099920Y0054308D01*
X0101158Y0053070D01*
X0102775Y0052400D01*
X0109725Y0052400D01*
X0111342Y0053070D01*
X0112580Y0054308D01*
X0113250Y0055925D01*
X0113250Y0057675D01*
X0112580Y0059292D01*
X0111342Y0060530D01*
X0109725Y0061200D01*
X0102775Y0061200D01*
X0099974Y0059346D02*
X0080350Y0059346D01*
X0080350Y0057748D02*
X0099280Y0057748D01*
X0099250Y0056149D02*
X0080350Y0056149D01*
X0080350Y0054551D02*
X0099819Y0054551D01*
X0101441Y0052952D02*
X0080350Y0052952D01*
X0080350Y0051354D02*
X0133750Y0051354D01*
X0133750Y0049755D02*
X0080350Y0049755D01*
X0080350Y0048157D02*
X0133750Y0048157D01*
X0133750Y0046558D02*
X0081262Y0046558D01*
X0082860Y0044960D02*
X0085587Y0044960D01*
X0084534Y0043361D02*
X0084459Y0043361D01*
X0081716Y0040164D02*
X0077935Y0040164D01*
X0078250Y0041763D02*
X0080117Y0041763D01*
X0078519Y0043361D02*
X0077966Y0043361D01*
X0076920Y0044960D02*
X0076913Y0044960D01*
X0076150Y0046558D02*
X0061350Y0046558D01*
X0061008Y0044960D02*
X0065587Y0044960D01*
X0064534Y0043361D02*
X0060024Y0043361D01*
X0059765Y0041763D02*
X0064250Y0041763D01*
X0064565Y0040164D02*
X0061100Y0040164D01*
X0061750Y0038566D02*
X0063207Y0038566D01*
X0068029Y0033770D02*
X0088110Y0033770D01*
X0087654Y0032172D02*
X0089708Y0032172D01*
X0090255Y0030573D02*
X0091307Y0030573D01*
X0094050Y0033770D02*
X0124050Y0033770D01*
X0122452Y0032172D02*
X0107654Y0032172D01*
X0104846Y0032172D02*
X0097654Y0032172D01*
X0100255Y0030573D02*
X0102245Y0030573D01*
X0101382Y0024179D02*
X0101118Y0024179D01*
X0099809Y0022581D02*
X0102691Y0022581D01*
X0109809Y0022581D02*
X0121699Y0022581D01*
X0120150Y0024179D02*
X0111118Y0024179D01*
X0111750Y0025778D02*
X0120150Y0025778D01*
X0120150Y0027376D02*
X0111750Y0027376D01*
X0111302Y0028975D02*
X0120150Y0028975D01*
X0120853Y0030573D02*
X0110255Y0030573D01*
X0123298Y0020982D02*
X0058267Y0020982D01*
X0060509Y0022581D02*
X0082691Y0022581D01*
X0081382Y0024179D02*
X0061408Y0024179D01*
X0061750Y0025778D02*
X0080750Y0025778D01*
X0080750Y0027376D02*
X0061675Y0027376D01*
X0063233Y0028975D02*
X0081198Y0028975D01*
X0082245Y0030573D02*
X0064832Y0030573D01*
X0066430Y0032172D02*
X0084846Y0032172D01*
X0086511Y0035369D02*
X0069627Y0035369D01*
X0071226Y0036967D02*
X0084913Y0036967D01*
X0083314Y0038566D02*
X0076838Y0038566D01*
X0090853Y0036967D02*
X0127247Y0036967D01*
X0125649Y0035369D02*
X0092451Y0035369D01*
X0096838Y0038566D02*
X0128846Y0038566D01*
X0130444Y0040164D02*
X0097935Y0040164D01*
X0098250Y0041763D02*
X0132043Y0041763D01*
X0133641Y0043361D02*
X0097966Y0043361D01*
X0096913Y0044960D02*
X0133750Y0044960D01*
X0137950Y0044960D02*
X0144840Y0044960D01*
X0146438Y0046558D02*
X0137950Y0046558D01*
X0137950Y0048157D02*
X0148037Y0048157D01*
X0149636Y0049755D02*
X0137950Y0049755D01*
X0137950Y0051354D02*
X0151234Y0051354D01*
X0146441Y0052952D02*
X0141059Y0052952D01*
X0142681Y0054551D02*
X0144819Y0054551D01*
X0144250Y0056149D02*
X0143250Y0056149D01*
X0143220Y0057748D02*
X0144280Y0057748D01*
X0144974Y0059346D02*
X0142526Y0059346D01*
X0140341Y0060945D02*
X0147159Y0060945D01*
X0147428Y0062543D02*
X0110071Y0062543D01*
X0110341Y0060945D02*
X0132159Y0060945D01*
X0129974Y0059346D02*
X0112526Y0059346D01*
X0113220Y0057748D02*
X0129280Y0057748D01*
X0129250Y0056149D02*
X0113250Y0056149D01*
X0112681Y0054551D02*
X0129819Y0054551D01*
X0131441Y0052952D02*
X0111059Y0052952D01*
X0112414Y0064142D02*
X0145086Y0064142D01*
X0144326Y0065740D02*
X0139560Y0065740D01*
X0141159Y0067339D02*
X0144250Y0067339D01*
X0144773Y0068937D02*
X0142757Y0068937D01*
X0144356Y0070536D02*
X0144944Y0070536D01*
X0149285Y0072134D02*
X0170550Y0072134D01*
X0170550Y0073733D02*
X0157006Y0073733D01*
X0156328Y0070536D02*
X0170416Y0070536D01*
X0168818Y0068937D02*
X0157727Y0068937D01*
X0158250Y0067339D02*
X0167219Y0067339D01*
X0165621Y0065740D02*
X0158174Y0065740D01*
X0157414Y0064142D02*
X0164022Y0064142D01*
X0162424Y0062543D02*
X0155071Y0062543D01*
X0155341Y0060945D02*
X0160825Y0060945D01*
X0159227Y0059346D02*
X0157526Y0059346D01*
X0162771Y0054551D02*
X0174819Y0054551D01*
X0174250Y0056149D02*
X0164369Y0056149D01*
X0165968Y0057748D02*
X0174280Y0057748D01*
X0174974Y0059346D02*
X0167566Y0059346D01*
X0169165Y0060945D02*
X0177159Y0060945D01*
X0173960Y0065740D02*
X0186489Y0065740D01*
X0186489Y0064142D02*
X0172362Y0064142D01*
X0170763Y0062543D02*
X0186489Y0062543D01*
X0186489Y0060945D02*
X0185341Y0060945D01*
X0186489Y0067339D02*
X0175559Y0067339D01*
X0176350Y0068937D02*
X0186489Y0068937D01*
X0186489Y0070536D02*
X0176350Y0070536D01*
X0176350Y0072134D02*
X0186489Y0072134D01*
X0186489Y0080383D02*
X0186489Y0089470D01*
X0178220Y0081200D01*
X0184725Y0081200D01*
X0186342Y0080530D01*
X0186489Y0080383D01*
X0186489Y0081726D02*
X0178745Y0081726D01*
X0180344Y0083324D02*
X0186489Y0083324D01*
X0186489Y0084923D02*
X0181942Y0084923D01*
X0183541Y0086521D02*
X0186489Y0086521D01*
X0186489Y0088120D02*
X0185139Y0088120D01*
X0175580Y0089300D02*
X0165380Y0079100D01*
X0157660Y0079100D01*
X0157580Y0079292D01*
X0156342Y0080530D01*
X0154725Y0081200D01*
X0147775Y0081200D01*
X0146750Y0080776D01*
X0146750Y0091200D01*
X0146961Y0091200D01*
X0146961Y0090746D01*
X0147462Y0089537D01*
X0148387Y0088612D01*
X0149596Y0088111D01*
X0150904Y0088111D01*
X0152113Y0088612D01*
X0152801Y0089300D01*
X0175580Y0089300D01*
X0174400Y0088120D02*
X0150925Y0088120D01*
X0149575Y0088120D02*
X0146750Y0088120D01*
X0146750Y0089718D02*
X0147387Y0089718D01*
X0146750Y0086521D02*
X0172801Y0086521D01*
X0171203Y0084923D02*
X0146750Y0084923D01*
X0146750Y0083324D02*
X0169604Y0083324D01*
X0168006Y0081726D02*
X0146750Y0081726D01*
X0142550Y0081726D02*
X0102894Y0081726D01*
X0103420Y0081200D02*
X0092350Y0092270D01*
X0091120Y0093500D01*
X0090870Y0093500D01*
X0090997Y0093628D01*
X0091250Y0094238D01*
X0091503Y0093628D01*
X0093078Y0092053D01*
X0095136Y0091200D01*
X0097364Y0091200D01*
X0099422Y0092053D01*
X0100997Y0093628D01*
X0101250Y0094238D01*
X0101503Y0093628D01*
X0103078Y0092053D01*
X0105136Y0091200D01*
X0107364Y0091200D01*
X0109422Y0092053D01*
X0110997Y0093628D01*
X0111250Y0094238D01*
X0111503Y0093628D01*
X0113078Y0092053D01*
X0115136Y0091200D01*
X0117364Y0091200D01*
X0119422Y0092053D01*
X0120997Y0093628D01*
X0121250Y0094238D01*
X0121503Y0093628D01*
X0123078Y0092053D01*
X0125136Y0091200D01*
X0127364Y0091200D01*
X0129422Y0092053D01*
X0130997Y0093628D01*
X0131250Y0094238D01*
X0131503Y0093628D01*
X0133078Y0092053D01*
X0135136Y0091200D01*
X0137364Y0091200D01*
X0139422Y0092053D01*
X0140997Y0093628D01*
X0141250Y0094238D01*
X0141503Y0093628D01*
X0142550Y0092580D01*
X0142550Y0079323D01*
X0141342Y0080530D01*
X0139725Y0081200D01*
X0132775Y0081200D01*
X0131158Y0080530D01*
X0129920Y0079292D01*
X0129250Y0077675D01*
X0129250Y0075925D01*
X0129920Y0074308D01*
X0131158Y0073070D01*
X0132775Y0072400D01*
X0139725Y0072400D01*
X0140673Y0072792D01*
X0137380Y0069500D01*
X0112373Y0069500D01*
X0111342Y0070530D01*
X0109725Y0071200D01*
X0105420Y0071200D01*
X0104220Y0072400D01*
X0109725Y0072400D01*
X0111342Y0073070D01*
X0112580Y0074308D01*
X0113250Y0075925D01*
X0113250Y0077675D01*
X0112580Y0079292D01*
X0111342Y0080530D01*
X0109725Y0081200D01*
X0103420Y0081200D01*
X0101296Y0083324D02*
X0142550Y0083324D01*
X0142550Y0084923D02*
X0099697Y0084923D01*
X0098099Y0086521D02*
X0142550Y0086521D01*
X0142550Y0088120D02*
X0096500Y0088120D01*
X0094902Y0089718D02*
X0142550Y0089718D01*
X0142550Y0091317D02*
X0137645Y0091317D01*
X0140285Y0092915D02*
X0142215Y0092915D01*
X0134855Y0091317D02*
X0127645Y0091317D01*
X0130285Y0092915D02*
X0132215Y0092915D01*
X0124855Y0091317D02*
X0117645Y0091317D01*
X0114855Y0091317D02*
X0107645Y0091317D01*
X0104855Y0091317D02*
X0097645Y0091317D01*
X0094855Y0091317D02*
X0093303Y0091317D01*
X0092215Y0092915D02*
X0091705Y0092915D01*
X0090561Y0088120D02*
X0061224Y0088120D01*
X0061350Y0086521D02*
X0064801Y0086521D01*
X0063203Y0084923D02*
X0060993Y0084923D01*
X0061604Y0083324D02*
X0059987Y0083324D01*
X0060006Y0081726D02*
X0057326Y0081726D01*
X0058407Y0080127D02*
X0052347Y0080127D01*
X0053945Y0081726D02*
X0055174Y0081726D01*
X0056809Y0078529D02*
X0050748Y0078529D01*
X0049150Y0076930D02*
X0055210Y0076930D01*
X0053612Y0075332D02*
X0047551Y0075332D01*
X0048816Y0070536D02*
X0041328Y0070536D01*
X0061150Y0076930D02*
X0061572Y0076930D01*
X0062748Y0078529D02*
X0063170Y0078529D01*
X0064347Y0080127D02*
X0064580Y0080127D01*
X0070458Y0076200D02*
X0072880Y0076200D01*
X0071680Y0077400D01*
X0071658Y0077400D01*
X0070458Y0076200D01*
X0071188Y0076930D02*
X0072150Y0076930D01*
X0076801Y0078529D02*
X0085699Y0078529D01*
X0084580Y0080127D02*
X0077920Y0080127D01*
X0078250Y0081726D02*
X0084250Y0081726D01*
X0084519Y0083324D02*
X0077981Y0083324D01*
X0078090Y0076930D02*
X0093750Y0076930D01*
X0097446Y0079174D02*
X0097580Y0079308D01*
X0098105Y0080575D01*
X0099764Y0078916D01*
X0099250Y0077675D01*
X0099250Y0077370D01*
X0097446Y0079174D01*
X0098091Y0078529D02*
X0099603Y0078529D01*
X0098553Y0080127D02*
X0097920Y0080127D01*
X0092159Y0086521D02*
X0089299Y0086521D01*
X0081630Y0093500D02*
X0080870Y0093500D01*
X0080997Y0093628D01*
X0081250Y0094238D01*
X0081503Y0093628D01*
X0081630Y0093500D01*
X0082438Y0100908D02*
X0080062Y0100908D01*
X0072438Y0100908D02*
X0070062Y0100908D01*
X0071250Y0094238D02*
X0071503Y0093628D01*
X0071630Y0093500D01*
X0070870Y0093500D01*
X0070997Y0093628D01*
X0071250Y0094238D01*
X0062438Y0100908D02*
X0060062Y0100908D01*
X0061250Y0094238D02*
X0061503Y0093628D01*
X0061630Y0093500D01*
X0060870Y0093500D01*
X0060997Y0093628D01*
X0061250Y0094238D01*
X0052438Y0100908D02*
X0050062Y0100908D01*
X0051250Y0094238D02*
X0051503Y0093628D01*
X0051630Y0093500D01*
X0050870Y0093500D01*
X0050997Y0093628D01*
X0051250Y0094238D01*
X0079688Y0075332D02*
X0085959Y0075332D01*
X0084688Y0073733D02*
X0080350Y0073733D01*
X0080350Y0072134D02*
X0084250Y0072134D01*
X0084411Y0070536D02*
X0080350Y0070536D01*
X0080350Y0068937D02*
X0085290Y0068937D01*
X0097210Y0068937D02*
X0099773Y0068937D01*
X0100144Y0070536D02*
X0098089Y0070536D01*
X0098250Y0072134D02*
X0098546Y0072134D01*
X0104485Y0072134D02*
X0140015Y0072134D01*
X0138416Y0070536D02*
X0111328Y0070536D01*
X0112006Y0073733D02*
X0130494Y0073733D01*
X0129496Y0075332D02*
X0113004Y0075332D01*
X0113250Y0076930D02*
X0129250Y0076930D01*
X0129603Y0078529D02*
X0112897Y0078529D01*
X0111745Y0080127D02*
X0130755Y0080127D01*
X0141745Y0080127D02*
X0142550Y0080127D01*
X0156745Y0080127D02*
X0166407Y0080127D01*
X0169150Y0076930D02*
X0170550Y0076930D01*
X0170550Y0075332D02*
X0167551Y0075332D01*
X0170870Y0093500D02*
X0170997Y0093628D01*
X0171250Y0094238D01*
X0171503Y0093628D01*
X0171630Y0093500D01*
X0170870Y0093500D01*
X0170062Y0100908D02*
X0172438Y0100908D01*
X0179720Y0108900D02*
X0184150Y0108900D01*
X0184150Y0107302D02*
X0181318Y0107302D01*
X0182917Y0105703D02*
X0184150Y0105703D01*
X0184150Y0110499D02*
X0178121Y0110499D01*
X0176523Y0112097D02*
X0184150Y0112097D01*
X0184150Y0113696D02*
X0174924Y0113696D01*
X0173326Y0115294D02*
X0184150Y0115294D01*
X0184150Y0116893D02*
X0171727Y0116893D01*
X0170129Y0118491D02*
X0184150Y0118491D01*
X0184150Y0120090D02*
X0168530Y0120090D01*
X0166931Y0121688D02*
X0184150Y0121688D01*
X0184150Y0123287D02*
X0165333Y0123287D01*
X0163734Y0124885D02*
X0184150Y0124885D01*
X0184150Y0126484D02*
X0162136Y0126484D01*
X0160537Y0128082D02*
X0184150Y0128082D01*
X0184150Y0129681D02*
X0158939Y0129681D01*
X0157340Y0131279D02*
X0184150Y0131279D01*
X0184150Y0132878D02*
X0155742Y0132878D01*
X0154143Y0134476D02*
X0184150Y0134476D01*
X0184150Y0136075D02*
X0152545Y0136075D01*
X0150946Y0137673D02*
X0184150Y0137673D01*
X0184150Y0139272D02*
X0149348Y0139272D01*
X0147749Y0140870D02*
X0184150Y0140870D01*
X0184150Y0142469D02*
X0146151Y0142469D01*
X0144552Y0144068D02*
X0184150Y0144068D01*
X0184150Y0145666D02*
X0142954Y0145666D01*
X0141355Y0147265D02*
X0184150Y0147265D01*
X0184150Y0148863D02*
X0139757Y0148863D01*
X0139430Y0152060D02*
X0143070Y0152060D01*
X0141490Y0153659D02*
X0141010Y0153659D01*
X0141250Y0159362D02*
X0140997Y0159972D01*
X0140470Y0160500D01*
X0142030Y0160500D01*
X0141503Y0159972D01*
X0141250Y0159362D01*
X0140917Y0160053D02*
X0141583Y0160053D01*
X0150470Y0160500D02*
X0152030Y0160500D01*
X0151503Y0159972D01*
X0151250Y0159362D01*
X0150997Y0159972D01*
X0150470Y0160500D01*
X0150917Y0160053D02*
X0151583Y0160053D01*
X0151490Y0153659D02*
X0151010Y0153659D01*
X0149430Y0152060D02*
X0153070Y0152060D01*
X0159430Y0152060D02*
X0163070Y0152060D01*
X0161490Y0153659D02*
X0161010Y0153659D01*
X0161250Y0159362D02*
X0160997Y0159972D01*
X0160470Y0160500D01*
X0162030Y0160500D01*
X0161503Y0159972D01*
X0161250Y0159362D01*
X0160917Y0160053D02*
X0161583Y0160053D01*
X0169430Y0152060D02*
X0173070Y0152060D01*
X0171490Y0153659D02*
X0171010Y0153659D01*
X0171250Y0159362D02*
X0170997Y0159972D01*
X0170470Y0160500D01*
X0172030Y0160500D01*
X0171503Y0159972D01*
X0171250Y0159362D01*
X0170917Y0160053D02*
X0171583Y0160053D01*
X0132030Y0160500D02*
X0131503Y0159972D01*
X0131250Y0159362D01*
X0130997Y0159972D01*
X0130470Y0160500D01*
X0132030Y0160500D01*
X0131583Y0160053D02*
X0130917Y0160053D01*
X0131250Y0154238D02*
X0131503Y0153628D01*
X0131630Y0153500D01*
X0130870Y0153500D01*
X0130997Y0153628D01*
X0131250Y0154238D01*
X0131010Y0153659D02*
X0131490Y0153659D01*
X0122030Y0160500D02*
X0121503Y0159972D01*
X0121250Y0159362D01*
X0120997Y0159972D01*
X0120470Y0160500D01*
X0122030Y0160500D01*
X0121583Y0160053D02*
X0120917Y0160053D01*
X0112030Y0160500D02*
X0111503Y0159972D01*
X0111250Y0159362D01*
X0110997Y0159972D01*
X0110470Y0160500D01*
X0112030Y0160500D01*
X0111583Y0160053D02*
X0110917Y0160053D01*
X0111250Y0154238D02*
X0111503Y0153628D01*
X0113078Y0152053D01*
X0113446Y0151900D01*
X0109054Y0151900D01*
X0109422Y0152053D01*
X0110997Y0153628D01*
X0111250Y0154238D01*
X0111010Y0153659D02*
X0111490Y0153659D01*
X0113070Y0152060D02*
X0109430Y0152060D01*
X0103446Y0151900D02*
X0099054Y0151900D01*
X0099422Y0152053D01*
X0100997Y0153628D01*
X0101250Y0154238D01*
X0101503Y0153628D01*
X0103078Y0152053D01*
X0103446Y0151900D01*
X0103070Y0152060D02*
X0099430Y0152060D01*
X0101010Y0153659D02*
X0101490Y0153659D01*
X0101250Y0159362D02*
X0100997Y0159972D01*
X0100470Y0160500D01*
X0102030Y0160500D01*
X0101503Y0159972D01*
X0101250Y0159362D01*
X0100917Y0160053D02*
X0101583Y0160053D01*
X0092030Y0160500D02*
X0091503Y0159972D01*
X0091250Y0159362D01*
X0090997Y0159972D01*
X0090470Y0160500D01*
X0092030Y0160500D01*
X0091583Y0160053D02*
X0090917Y0160053D01*
X0091250Y0154238D02*
X0091230Y0154190D01*
X0091298Y0154122D01*
X0091250Y0154238D01*
X0089019Y0150462D02*
X0087040Y0150462D01*
X0087935Y0148863D02*
X0090617Y0148863D01*
X0084438Y0151489D02*
X0084331Y0151489D01*
X0084255Y0151565D01*
X0084438Y0151489D01*
X0081250Y0159362D02*
X0080997Y0159972D01*
X0080470Y0160500D01*
X0082030Y0160500D01*
X0081503Y0159972D01*
X0081250Y0159362D01*
X0080917Y0160053D02*
X0081583Y0160053D01*
X0072030Y0160500D02*
X0071503Y0159972D01*
X0071250Y0159362D01*
X0070997Y0159972D01*
X0070470Y0160500D01*
X0072030Y0160500D01*
X0071583Y0160053D02*
X0070917Y0160053D01*
X0062030Y0160500D02*
X0061503Y0159972D01*
X0061250Y0159362D01*
X0060997Y0159972D01*
X0060470Y0160500D01*
X0062030Y0160500D01*
X0061583Y0160053D02*
X0060917Y0160053D01*
X0061010Y0153659D02*
X0061490Y0153659D01*
X0063070Y0152060D02*
X0059430Y0152060D01*
X0053070Y0152060D02*
X0049430Y0152060D01*
X0051010Y0153659D02*
X0051490Y0153659D01*
X0051250Y0159362D02*
X0050997Y0159972D01*
X0050470Y0160500D01*
X0052030Y0160500D01*
X0051503Y0159972D01*
X0051250Y0159362D01*
X0050917Y0160053D02*
X0051583Y0160053D01*
X0041250Y0154238D02*
X0041202Y0154122D01*
X0041270Y0154190D01*
X0041250Y0154238D01*
X0090062Y0100908D02*
X0092438Y0100908D01*
X0100062Y0100908D02*
X0102438Y0100908D01*
X0110062Y0100908D02*
X0112438Y0100908D01*
X0120062Y0100908D02*
X0122438Y0100908D01*
X0130062Y0100908D02*
X0132438Y0100908D01*
X0140062Y0100908D02*
X0142438Y0100908D01*
X0150062Y0100908D02*
X0152438Y0100908D01*
X0160062Y0100908D02*
X0162438Y0100908D01*
X0161250Y0094238D02*
X0161503Y0093628D01*
X0161630Y0093500D01*
X0160870Y0093500D01*
X0160997Y0093628D01*
X0161250Y0094238D01*
X0122215Y0092915D02*
X0120285Y0092915D01*
X0112215Y0092915D02*
X0110285Y0092915D01*
X0102215Y0092915D02*
X0100285Y0092915D01*
X0137950Y0043361D02*
X0143241Y0043361D01*
X0141643Y0041763D02*
X0137950Y0041763D01*
X0136384Y0040164D02*
X0140044Y0040164D01*
X0138446Y0038566D02*
X0134786Y0038566D01*
X0133187Y0036967D02*
X0136847Y0036967D01*
X0135249Y0035369D02*
X0131589Y0035369D01*
X0129990Y0033770D02*
X0133650Y0033770D01*
X0132052Y0032172D02*
X0128392Y0032172D01*
X0128699Y0030573D02*
X0130453Y0030573D01*
X0133998Y0025778D02*
X0141850Y0025778D01*
X0141850Y0024977D02*
X0144427Y0022400D01*
X0148073Y0022400D01*
X0150173Y0024500D01*
X0152440Y0024500D01*
X0152520Y0024308D01*
X0153758Y0023070D01*
X0155375Y0022400D01*
X0157125Y0022400D01*
X0158742Y0023070D01*
X0159980Y0024308D01*
X0160650Y0025925D01*
X0160650Y0027675D01*
X0159980Y0029292D01*
X0158742Y0030530D01*
X0157125Y0031200D01*
X0155375Y0031200D01*
X0153758Y0030530D01*
X0152520Y0029292D01*
X0152274Y0028700D01*
X0150573Y0028700D01*
X0148073Y0031200D01*
X0144427Y0031200D01*
X0141850Y0028623D01*
X0141850Y0024977D01*
X0142648Y0024179D02*
X0132399Y0024179D01*
X0130800Y0022581D02*
X0144247Y0022581D01*
X0148253Y0022581D02*
X0154939Y0022581D01*
X0157561Y0022581D02*
X0164939Y0022581D01*
X0165375Y0022400D02*
X0167125Y0022400D01*
X0168742Y0023070D01*
X0169980Y0024308D01*
X0170650Y0025925D01*
X0170650Y0027675D01*
X0169980Y0029292D01*
X0168742Y0030530D01*
X0167125Y0031200D01*
X0165375Y0031200D01*
X0163758Y0030530D01*
X0162520Y0029292D01*
X0161850Y0027675D01*
X0161850Y0025925D01*
X0162520Y0024308D01*
X0163758Y0023070D01*
X0165375Y0022400D01*
X0167561Y0022581D02*
X0172816Y0022581D01*
X0171153Y0020982D02*
X0129202Y0020982D01*
X0135596Y0027376D02*
X0141850Y0027376D01*
X0142202Y0028975D02*
X0137195Y0028975D01*
X0138793Y0030573D02*
X0143801Y0030573D01*
X0141990Y0033770D02*
X0186489Y0033770D01*
X0186489Y0032172D02*
X0140392Y0032172D01*
X0143589Y0035369D02*
X0186489Y0035369D01*
X0186489Y0036967D02*
X0145187Y0036967D01*
X0146786Y0038566D02*
X0186489Y0038566D01*
X0186489Y0040164D02*
X0148384Y0040164D01*
X0149983Y0041763D02*
X0186489Y0041763D01*
X0186489Y0043361D02*
X0151581Y0043361D01*
X0153180Y0044960D02*
X0186489Y0044960D01*
X0186489Y0046558D02*
X0154778Y0046558D01*
X0156377Y0048157D02*
X0186489Y0048157D01*
X0186489Y0049755D02*
X0157975Y0049755D01*
X0159574Y0051354D02*
X0186489Y0051354D01*
X0186489Y0052952D02*
X0186059Y0052952D01*
X0176441Y0052952D02*
X0161172Y0052952D01*
X0158638Y0030573D02*
X0163862Y0030573D01*
X0162388Y0028975D02*
X0160112Y0028975D01*
X0160650Y0027376D02*
X0161850Y0027376D01*
X0161911Y0025778D02*
X0160589Y0025778D01*
X0159852Y0024179D02*
X0162648Y0024179D01*
X0169852Y0024179D02*
X0176035Y0024179D01*
X0170589Y0025778D02*
X0186489Y0025778D01*
X0186489Y0027376D02*
X0170650Y0027376D01*
X0170112Y0028975D02*
X0186489Y0028975D01*
X0186489Y0030573D02*
X0168638Y0030573D01*
X0169995Y0019384D02*
X0027544Y0019384D01*
X0028433Y0017785D02*
X0169106Y0017785D01*
X0168678Y0016187D02*
X0028862Y0016187D01*
X0029160Y0014588D02*
X0168379Y0014588D01*
X0168379Y0012990D02*
X0029160Y0012990D01*
X0028957Y0011391D02*
X0168582Y0011391D01*
X0169011Y0009793D02*
X0028529Y0009793D01*
X0027750Y0008194D02*
X0169790Y0008194D01*
X0182922Y0024179D02*
X0186489Y0024179D01*
X0186489Y0022581D02*
X0186141Y0022581D01*
X0153862Y0030573D02*
X0148699Y0030573D01*
X0150298Y0028975D02*
X0152388Y0028975D01*
X0152648Y0024179D02*
X0149852Y0024179D01*
X0092691Y0022581D02*
X0089809Y0022581D01*
X0091118Y0024179D02*
X0091382Y0024179D01*
X0054233Y0020982D02*
X0026387Y0020982D01*
X0024724Y0022581D02*
X0051991Y0022581D01*
X0051092Y0024179D02*
X0021504Y0024179D01*
X0014618Y0024179D02*
X0011050Y0024179D01*
X0011050Y0022581D02*
X0011398Y0022581D01*
X0011050Y0025778D02*
X0050750Y0025778D01*
X0050825Y0027376D02*
X0011050Y0027376D01*
X0011050Y0028975D02*
X0051488Y0028975D01*
X0052945Y0030573D02*
X0011050Y0030573D01*
X0040100Y0032172D02*
X0054741Y0032172D01*
X0052202Y0033770D02*
X0041648Y0033770D01*
X0041364Y0040164D02*
X0051400Y0040164D01*
M02*
