G75*
%MOIN*%
%OFA0B0*%
%FSLAX25Y25*%
%IPPOS*%
%LPD*%
%AMOC8*
5,1,8,0,0,1.08239X$1,22.5*
%
%ADD10C,0.00300*%
%ADD11C,0.00800*%
%ADD12C,0.00200*%
%ADD13C,0.00600*%
%ADD14C,0.01000*%
%ADD15R,0.02000X0.10000*%
%ADD16C,0.00500*%
D10*
X0030455Y0009524D02*
X0031689Y0013224D01*
X0032924Y0013224D02*
X0033746Y0013224D01*
X0033335Y0013224D02*
X0033335Y0009524D01*
X0032924Y0009524D02*
X0033746Y0009524D01*
X0035308Y0009524D02*
X0035308Y0013224D01*
X0037363Y0009524D01*
X0037363Y0013224D01*
X0039062Y0011580D02*
X0041529Y0011580D01*
X0041529Y0010346D02*
X0039062Y0010346D01*
X0043107Y0009524D02*
X0045163Y0009524D01*
X0044135Y0009524D02*
X0044135Y0013224D01*
X0043107Y0012402D01*
X0046707Y0009524D02*
X0048763Y0009524D01*
X0046707Y0009524D02*
X0048455Y0011580D01*
X0047838Y0013224D02*
X0047770Y0013222D01*
X0047702Y0013216D01*
X0047635Y0013207D01*
X0047569Y0013193D01*
X0047503Y0013176D01*
X0047438Y0013155D01*
X0047375Y0013130D01*
X0047313Y0013102D01*
X0047253Y0013070D01*
X0047195Y0013035D01*
X0047139Y0012997D01*
X0047086Y0012955D01*
X0047034Y0012911D01*
X0046986Y0012863D01*
X0046940Y0012813D01*
X0046897Y0012761D01*
X0046857Y0012706D01*
X0046820Y0012649D01*
X0046787Y0012590D01*
X0046757Y0012529D01*
X0046731Y0012466D01*
X0046708Y0012402D01*
X0048455Y0011579D02*
X0048498Y0011623D01*
X0048539Y0011670D01*
X0048576Y0011719D01*
X0048611Y0011770D01*
X0048642Y0011824D01*
X0048670Y0011879D01*
X0048694Y0011936D01*
X0048715Y0011994D01*
X0048732Y0012054D01*
X0048746Y0012114D01*
X0048755Y0012175D01*
X0048761Y0012237D01*
X0048763Y0012299D01*
X0048761Y0012357D01*
X0048756Y0012415D01*
X0048747Y0012472D01*
X0048734Y0012529D01*
X0048718Y0012585D01*
X0048698Y0012640D01*
X0048675Y0012693D01*
X0048649Y0012745D01*
X0048619Y0012795D01*
X0048586Y0012843D01*
X0048551Y0012889D01*
X0048512Y0012932D01*
X0048471Y0012973D01*
X0048428Y0013012D01*
X0048382Y0013047D01*
X0048334Y0013080D01*
X0048284Y0013110D01*
X0048232Y0013136D01*
X0048179Y0013159D01*
X0048124Y0013179D01*
X0048068Y0013195D01*
X0048011Y0013208D01*
X0047954Y0013217D01*
X0047896Y0013222D01*
X0047838Y0013224D01*
X0050102Y0013224D02*
X0051335Y0009524D01*
X0052569Y0013224D01*
X0055862Y0010963D02*
X0058329Y0010963D01*
X0059942Y0011991D02*
X0062409Y0010963D01*
X0059942Y0009935D01*
X0065897Y0010346D02*
X0065897Y0012402D01*
X0065899Y0012458D01*
X0065905Y0012514D01*
X0065914Y0012569D01*
X0065927Y0012624D01*
X0065944Y0012677D01*
X0065965Y0012729D01*
X0065989Y0012780D01*
X0066017Y0012829D01*
X0066047Y0012876D01*
X0066081Y0012921D01*
X0066118Y0012963D01*
X0066158Y0013003D01*
X0066200Y0013040D01*
X0066245Y0013074D01*
X0066292Y0013104D01*
X0066341Y0013132D01*
X0066392Y0013156D01*
X0066444Y0013177D01*
X0066497Y0013194D01*
X0066552Y0013207D01*
X0066607Y0013216D01*
X0066663Y0013222D01*
X0066719Y0013224D01*
X0067542Y0013224D01*
X0068873Y0011168D02*
X0068873Y0010346D01*
X0068875Y0010290D01*
X0068881Y0010234D01*
X0068890Y0010179D01*
X0068903Y0010124D01*
X0068920Y0010071D01*
X0068941Y0010019D01*
X0068965Y0009968D01*
X0068993Y0009919D01*
X0069023Y0009872D01*
X0069057Y0009827D01*
X0069094Y0009785D01*
X0069134Y0009745D01*
X0069176Y0009708D01*
X0069221Y0009674D01*
X0069268Y0009644D01*
X0069317Y0009616D01*
X0069368Y0009592D01*
X0069420Y0009571D01*
X0069473Y0009554D01*
X0069528Y0009541D01*
X0069583Y0009532D01*
X0069639Y0009526D01*
X0069695Y0009524D01*
X0069751Y0009526D01*
X0069807Y0009532D01*
X0069862Y0009541D01*
X0069917Y0009554D01*
X0069970Y0009571D01*
X0070022Y0009592D01*
X0070073Y0009616D01*
X0070122Y0009644D01*
X0070169Y0009674D01*
X0070214Y0009708D01*
X0070256Y0009745D01*
X0070296Y0009785D01*
X0070333Y0009827D01*
X0070367Y0009872D01*
X0070397Y0009919D01*
X0070425Y0009968D01*
X0070449Y0010019D01*
X0070470Y0010071D01*
X0070487Y0010124D01*
X0070500Y0010179D01*
X0070509Y0010234D01*
X0070515Y0010290D01*
X0070517Y0010346D01*
X0070517Y0011168D01*
X0070515Y0011224D01*
X0070509Y0011280D01*
X0070500Y0011335D01*
X0070487Y0011390D01*
X0070470Y0011443D01*
X0070449Y0011495D01*
X0070425Y0011546D01*
X0070397Y0011595D01*
X0070367Y0011642D01*
X0070333Y0011687D01*
X0070296Y0011729D01*
X0070256Y0011769D01*
X0070214Y0011806D01*
X0070169Y0011840D01*
X0070122Y0011870D01*
X0070073Y0011898D01*
X0070022Y0011922D01*
X0069970Y0011943D01*
X0069917Y0011960D01*
X0069862Y0011973D01*
X0069807Y0011982D01*
X0069751Y0011988D01*
X0069695Y0011990D01*
X0069639Y0011988D01*
X0069583Y0011982D01*
X0069528Y0011973D01*
X0069473Y0011960D01*
X0069420Y0011943D01*
X0069368Y0011922D01*
X0069317Y0011898D01*
X0069268Y0011870D01*
X0069221Y0011840D01*
X0069176Y0011806D01*
X0069134Y0011769D01*
X0069094Y0011729D01*
X0069057Y0011687D01*
X0069023Y0011642D01*
X0068993Y0011595D01*
X0068965Y0011546D01*
X0068941Y0011495D01*
X0068920Y0011443D01*
X0068903Y0011390D01*
X0068890Y0011335D01*
X0068881Y0011280D01*
X0068875Y0011224D01*
X0068873Y0011168D01*
X0067542Y0009524D02*
X0066719Y0009524D01*
X0066663Y0009526D01*
X0066607Y0009532D01*
X0066552Y0009541D01*
X0066497Y0009554D01*
X0066444Y0009571D01*
X0066392Y0009592D01*
X0066341Y0009616D01*
X0066292Y0009644D01*
X0066245Y0009674D01*
X0066200Y0009708D01*
X0066158Y0009745D01*
X0066118Y0009785D01*
X0066081Y0009827D01*
X0066047Y0009872D01*
X0066017Y0009919D01*
X0065989Y0009968D01*
X0065965Y0010019D01*
X0065944Y0010071D01*
X0065927Y0010124D01*
X0065914Y0010179D01*
X0065905Y0010234D01*
X0065899Y0010290D01*
X0065897Y0010346D01*
X0072113Y0009524D02*
X0072113Y0011991D01*
X0073141Y0011991D01*
X0073189Y0011989D01*
X0073238Y0011983D01*
X0073285Y0011974D01*
X0073332Y0011961D01*
X0073377Y0011944D01*
X0073421Y0011924D01*
X0073463Y0011900D01*
X0073504Y0011873D01*
X0073542Y0011843D01*
X0073577Y0011810D01*
X0073610Y0011775D01*
X0073640Y0011737D01*
X0073667Y0011696D01*
X0073691Y0011654D01*
X0073711Y0011610D01*
X0073728Y0011565D01*
X0073741Y0011518D01*
X0073750Y0011471D01*
X0073756Y0011422D01*
X0073758Y0011374D01*
X0073757Y0011374D02*
X0073757Y0009524D01*
X0075473Y0009524D02*
X0075473Y0011991D01*
X0076501Y0011991D01*
X0076549Y0011989D01*
X0076598Y0011983D01*
X0076645Y0011974D01*
X0076692Y0011961D01*
X0076737Y0011944D01*
X0076781Y0011924D01*
X0076823Y0011900D01*
X0076864Y0011873D01*
X0076902Y0011843D01*
X0076937Y0011810D01*
X0076970Y0011775D01*
X0077000Y0011737D01*
X0077027Y0011696D01*
X0077051Y0011654D01*
X0077071Y0011610D01*
X0077088Y0011565D01*
X0077101Y0011518D01*
X0077110Y0011471D01*
X0077116Y0011422D01*
X0077118Y0011374D01*
X0077117Y0011374D02*
X0077117Y0009524D01*
X0078713Y0010141D02*
X0078713Y0011168D01*
X0078713Y0010757D02*
X0080357Y0010757D01*
X0080357Y0011168D01*
X0080355Y0011224D01*
X0080349Y0011280D01*
X0080340Y0011335D01*
X0080327Y0011390D01*
X0080310Y0011443D01*
X0080289Y0011495D01*
X0080265Y0011546D01*
X0080237Y0011595D01*
X0080207Y0011642D01*
X0080173Y0011687D01*
X0080136Y0011729D01*
X0080096Y0011769D01*
X0080054Y0011806D01*
X0080009Y0011840D01*
X0079962Y0011870D01*
X0079913Y0011898D01*
X0079862Y0011922D01*
X0079810Y0011943D01*
X0079757Y0011960D01*
X0079702Y0011973D01*
X0079647Y0011982D01*
X0079591Y0011988D01*
X0079535Y0011990D01*
X0079479Y0011988D01*
X0079423Y0011982D01*
X0079368Y0011973D01*
X0079313Y0011960D01*
X0079260Y0011943D01*
X0079208Y0011922D01*
X0079157Y0011898D01*
X0079108Y0011870D01*
X0079061Y0011840D01*
X0079016Y0011806D01*
X0078974Y0011769D01*
X0078934Y0011729D01*
X0078897Y0011687D01*
X0078863Y0011642D01*
X0078833Y0011595D01*
X0078805Y0011546D01*
X0078781Y0011495D01*
X0078760Y0011443D01*
X0078743Y0011390D01*
X0078730Y0011335D01*
X0078721Y0011280D01*
X0078715Y0011224D01*
X0078713Y0011168D01*
X0078713Y0010141D02*
X0078715Y0010093D01*
X0078721Y0010044D01*
X0078730Y0009997D01*
X0078743Y0009950D01*
X0078760Y0009905D01*
X0078780Y0009861D01*
X0078804Y0009819D01*
X0078831Y0009778D01*
X0078861Y0009740D01*
X0078894Y0009705D01*
X0078929Y0009672D01*
X0078967Y0009642D01*
X0079008Y0009615D01*
X0079050Y0009591D01*
X0079094Y0009571D01*
X0079139Y0009554D01*
X0079186Y0009541D01*
X0079233Y0009532D01*
X0079282Y0009526D01*
X0079330Y0009524D01*
X0080357Y0009524D01*
X0081837Y0010141D02*
X0081837Y0011374D01*
X0081839Y0011422D01*
X0081845Y0011471D01*
X0081854Y0011518D01*
X0081867Y0011565D01*
X0081884Y0011610D01*
X0081904Y0011654D01*
X0081928Y0011696D01*
X0081955Y0011737D01*
X0081985Y0011775D01*
X0082018Y0011810D01*
X0082053Y0011843D01*
X0082091Y0011873D01*
X0082132Y0011900D01*
X0082174Y0011924D01*
X0082218Y0011944D01*
X0082263Y0011961D01*
X0082310Y0011974D01*
X0082357Y0011983D01*
X0082406Y0011989D01*
X0082454Y0011991D01*
X0083276Y0011991D01*
X0084290Y0011991D02*
X0085524Y0011991D01*
X0084701Y0013224D02*
X0084701Y0010141D01*
X0084703Y0010093D01*
X0084709Y0010044D01*
X0084718Y0009997D01*
X0084731Y0009950D01*
X0084748Y0009905D01*
X0084768Y0009861D01*
X0084792Y0009819D01*
X0084819Y0009778D01*
X0084849Y0009740D01*
X0084882Y0009705D01*
X0084917Y0009672D01*
X0084955Y0009642D01*
X0084996Y0009615D01*
X0085038Y0009591D01*
X0085082Y0009571D01*
X0085127Y0009554D01*
X0085174Y0009541D01*
X0085221Y0009532D01*
X0085270Y0009526D01*
X0085318Y0009524D01*
X0085524Y0009524D01*
X0083276Y0009524D02*
X0082454Y0009524D01*
X0082406Y0009526D01*
X0082357Y0009532D01*
X0082310Y0009541D01*
X0082263Y0009554D01*
X0082218Y0009571D01*
X0082174Y0009591D01*
X0082132Y0009615D01*
X0082091Y0009642D01*
X0082053Y0009672D01*
X0082018Y0009705D01*
X0081985Y0009740D01*
X0081955Y0009778D01*
X0081928Y0009819D01*
X0081904Y0009861D01*
X0081884Y0009905D01*
X0081867Y0009950D01*
X0081854Y0009997D01*
X0081845Y0010044D01*
X0081839Y0010093D01*
X0081837Y0010141D01*
X0088954Y0009524D02*
X0090599Y0009524D01*
X0088954Y0009524D02*
X0088954Y0013224D01*
X0092325Y0012299D02*
X0094072Y0009524D01*
X0092942Y0009627D02*
X0094483Y0010757D01*
X0095537Y0010346D02*
X0095537Y0012402D01*
X0095539Y0012458D01*
X0095545Y0012514D01*
X0095554Y0012569D01*
X0095567Y0012624D01*
X0095584Y0012677D01*
X0095605Y0012729D01*
X0095629Y0012780D01*
X0095657Y0012829D01*
X0095687Y0012876D01*
X0095721Y0012921D01*
X0095758Y0012963D01*
X0095798Y0013003D01*
X0095840Y0013040D01*
X0095885Y0013074D01*
X0095932Y0013104D01*
X0095981Y0013132D01*
X0096032Y0013156D01*
X0096084Y0013177D01*
X0096137Y0013194D01*
X0096192Y0013207D01*
X0096247Y0013216D01*
X0096303Y0013222D01*
X0096359Y0013224D01*
X0097182Y0013224D01*
X0098512Y0011682D02*
X0098718Y0011682D01*
X0098718Y0011477D01*
X0098512Y0011477D01*
X0098512Y0011682D01*
X0098512Y0009730D02*
X0098718Y0009730D01*
X0098718Y0009524D01*
X0098512Y0008702D01*
X0098512Y0009524D02*
X0098512Y0009730D01*
X0098512Y0009524D02*
X0098718Y0009524D01*
X0097182Y0009524D02*
X0096359Y0009524D01*
X0096303Y0009526D01*
X0096247Y0009532D01*
X0096192Y0009541D01*
X0096137Y0009554D01*
X0096084Y0009571D01*
X0096032Y0009592D01*
X0095981Y0009616D01*
X0095932Y0009644D01*
X0095885Y0009674D01*
X0095840Y0009708D01*
X0095798Y0009745D01*
X0095758Y0009785D01*
X0095721Y0009827D01*
X0095687Y0009872D01*
X0095657Y0009919D01*
X0095629Y0009968D01*
X0095605Y0010019D01*
X0095584Y0010071D01*
X0095567Y0010124D01*
X0095554Y0010179D01*
X0095545Y0010234D01*
X0095539Y0010290D01*
X0095537Y0010346D01*
X0092633Y0009524D02*
X0092585Y0009526D01*
X0092536Y0009532D01*
X0092489Y0009541D01*
X0092442Y0009554D01*
X0092397Y0009571D01*
X0092353Y0009591D01*
X0092311Y0009615D01*
X0092270Y0009642D01*
X0092232Y0009672D01*
X0092197Y0009705D01*
X0092164Y0009740D01*
X0092134Y0009778D01*
X0092107Y0009819D01*
X0092083Y0009861D01*
X0092063Y0009905D01*
X0092046Y0009950D01*
X0092033Y0009997D01*
X0092024Y0010044D01*
X0092018Y0010093D01*
X0092016Y0010141D01*
X0092119Y0010449D02*
X0093353Y0012299D01*
X0093376Y0012341D01*
X0093396Y0012384D01*
X0093413Y0012429D01*
X0093426Y0012474D01*
X0093436Y0012521D01*
X0093442Y0012568D01*
X0093444Y0012616D01*
X0093442Y0012664D01*
X0093437Y0012711D01*
X0093428Y0012758D01*
X0093415Y0012804D01*
X0093399Y0012848D01*
X0093379Y0012892D01*
X0093356Y0012933D01*
X0093330Y0012973D01*
X0093300Y0013011D01*
X0093268Y0013046D01*
X0093233Y0013078D01*
X0093196Y0013108D01*
X0093156Y0013134D01*
X0093114Y0013158D01*
X0093071Y0013178D01*
X0093027Y0013194D01*
X0092981Y0013207D01*
X0092934Y0013217D01*
X0092887Y0013222D01*
X0092839Y0013224D01*
X0092791Y0013222D01*
X0092744Y0013217D01*
X0092697Y0013207D01*
X0092651Y0013194D01*
X0092607Y0013178D01*
X0092564Y0013158D01*
X0092522Y0013134D01*
X0092482Y0013108D01*
X0092445Y0013078D01*
X0092410Y0013046D01*
X0092378Y0013011D01*
X0092348Y0012973D01*
X0092322Y0012933D01*
X0092299Y0012892D01*
X0092279Y0012848D01*
X0092263Y0012804D01*
X0092250Y0012758D01*
X0092241Y0012711D01*
X0092236Y0012664D01*
X0092234Y0012616D01*
X0092236Y0012568D01*
X0092242Y0012521D01*
X0092252Y0012474D01*
X0092265Y0012429D01*
X0092282Y0012384D01*
X0092302Y0012341D01*
X0092325Y0012299D01*
X0092120Y0010449D02*
X0092096Y0010415D01*
X0092076Y0010380D01*
X0092058Y0010342D01*
X0092043Y0010304D01*
X0092032Y0010264D01*
X0092024Y0010223D01*
X0092019Y0010182D01*
X0092017Y0010141D01*
X0092633Y0009524D02*
X0092674Y0009526D01*
X0092715Y0009531D01*
X0092756Y0009539D01*
X0092796Y0009550D01*
X0092834Y0009565D01*
X0092872Y0009583D01*
X0092907Y0009603D01*
X0092941Y0009627D01*
X0101942Y0013224D02*
X0103175Y0009524D01*
X0104408Y0013224D01*
X0105644Y0013224D02*
X0106466Y0013224D01*
X0106055Y0013224D02*
X0106055Y0009524D01*
X0105644Y0009524D02*
X0106466Y0009524D01*
X0108027Y0009524D02*
X0108027Y0013224D01*
X0110083Y0009524D01*
X0110083Y0013224D01*
X0111782Y0011580D02*
X0114248Y0011580D01*
X0114248Y0010346D02*
X0111782Y0010346D01*
X0115827Y0009524D02*
X0117060Y0009524D01*
X0117116Y0009526D01*
X0117172Y0009532D01*
X0117227Y0009541D01*
X0117282Y0009554D01*
X0117335Y0009571D01*
X0117387Y0009592D01*
X0117438Y0009616D01*
X0117487Y0009644D01*
X0117534Y0009674D01*
X0117579Y0009708D01*
X0117621Y0009745D01*
X0117661Y0009785D01*
X0117698Y0009827D01*
X0117732Y0009872D01*
X0117762Y0009919D01*
X0117790Y0009968D01*
X0117814Y0010019D01*
X0117835Y0010071D01*
X0117852Y0010124D01*
X0117865Y0010179D01*
X0117874Y0010234D01*
X0117880Y0010290D01*
X0117882Y0010346D01*
X0117883Y0010346D02*
X0117883Y0010757D01*
X0117882Y0010757D02*
X0117880Y0010813D01*
X0117874Y0010869D01*
X0117865Y0010924D01*
X0117852Y0010979D01*
X0117835Y0011032D01*
X0117814Y0011084D01*
X0117790Y0011135D01*
X0117762Y0011184D01*
X0117732Y0011231D01*
X0117698Y0011276D01*
X0117661Y0011318D01*
X0117621Y0011358D01*
X0117579Y0011395D01*
X0117534Y0011429D01*
X0117487Y0011459D01*
X0117438Y0011487D01*
X0117387Y0011511D01*
X0117335Y0011532D01*
X0117282Y0011549D01*
X0117227Y0011562D01*
X0117172Y0011571D01*
X0117116Y0011577D01*
X0117060Y0011579D01*
X0117060Y0011580D02*
X0115827Y0011580D01*
X0115827Y0013224D01*
X0117883Y0013224D01*
X0119222Y0013224D02*
X0120455Y0009524D01*
X0121688Y0013224D01*
X0124982Y0010963D02*
X0127448Y0010963D01*
X0129062Y0011991D02*
X0131528Y0010963D01*
X0129062Y0009935D01*
X0135017Y0010346D02*
X0135017Y0012402D01*
X0135019Y0012458D01*
X0135025Y0012514D01*
X0135034Y0012569D01*
X0135047Y0012624D01*
X0135064Y0012677D01*
X0135085Y0012729D01*
X0135109Y0012780D01*
X0135137Y0012829D01*
X0135167Y0012876D01*
X0135201Y0012921D01*
X0135238Y0012963D01*
X0135278Y0013003D01*
X0135320Y0013040D01*
X0135365Y0013074D01*
X0135412Y0013104D01*
X0135461Y0013132D01*
X0135512Y0013156D01*
X0135564Y0013177D01*
X0135617Y0013194D01*
X0135672Y0013207D01*
X0135727Y0013216D01*
X0135783Y0013222D01*
X0135839Y0013224D01*
X0136661Y0013224D01*
X0137993Y0011168D02*
X0137993Y0010346D01*
X0137995Y0010290D01*
X0138001Y0010234D01*
X0138010Y0010179D01*
X0138023Y0010124D01*
X0138040Y0010071D01*
X0138061Y0010019D01*
X0138085Y0009968D01*
X0138113Y0009919D01*
X0138143Y0009872D01*
X0138177Y0009827D01*
X0138214Y0009785D01*
X0138254Y0009745D01*
X0138296Y0009708D01*
X0138341Y0009674D01*
X0138388Y0009644D01*
X0138437Y0009616D01*
X0138488Y0009592D01*
X0138540Y0009571D01*
X0138593Y0009554D01*
X0138648Y0009541D01*
X0138703Y0009532D01*
X0138759Y0009526D01*
X0138815Y0009524D01*
X0138871Y0009526D01*
X0138927Y0009532D01*
X0138982Y0009541D01*
X0139037Y0009554D01*
X0139090Y0009571D01*
X0139142Y0009592D01*
X0139193Y0009616D01*
X0139242Y0009644D01*
X0139289Y0009674D01*
X0139334Y0009708D01*
X0139376Y0009745D01*
X0139416Y0009785D01*
X0139453Y0009827D01*
X0139487Y0009872D01*
X0139517Y0009919D01*
X0139545Y0009968D01*
X0139569Y0010019D01*
X0139590Y0010071D01*
X0139607Y0010124D01*
X0139620Y0010179D01*
X0139629Y0010234D01*
X0139635Y0010290D01*
X0139637Y0010346D01*
X0139637Y0011168D01*
X0139635Y0011224D01*
X0139629Y0011280D01*
X0139620Y0011335D01*
X0139607Y0011390D01*
X0139590Y0011443D01*
X0139569Y0011495D01*
X0139545Y0011546D01*
X0139517Y0011595D01*
X0139487Y0011642D01*
X0139453Y0011687D01*
X0139416Y0011729D01*
X0139376Y0011769D01*
X0139334Y0011806D01*
X0139289Y0011840D01*
X0139242Y0011870D01*
X0139193Y0011898D01*
X0139142Y0011922D01*
X0139090Y0011943D01*
X0139037Y0011960D01*
X0138982Y0011973D01*
X0138927Y0011982D01*
X0138871Y0011988D01*
X0138815Y0011990D01*
X0138759Y0011988D01*
X0138703Y0011982D01*
X0138648Y0011973D01*
X0138593Y0011960D01*
X0138540Y0011943D01*
X0138488Y0011922D01*
X0138437Y0011898D01*
X0138388Y0011870D01*
X0138341Y0011840D01*
X0138296Y0011806D01*
X0138254Y0011769D01*
X0138214Y0011729D01*
X0138177Y0011687D01*
X0138143Y0011642D01*
X0138113Y0011595D01*
X0138085Y0011546D01*
X0138061Y0011495D01*
X0138040Y0011443D01*
X0138023Y0011390D01*
X0138010Y0011335D01*
X0138001Y0011280D01*
X0137995Y0011224D01*
X0137993Y0011168D01*
X0136661Y0009524D02*
X0135839Y0009524D01*
X0135783Y0009526D01*
X0135727Y0009532D01*
X0135672Y0009541D01*
X0135617Y0009554D01*
X0135564Y0009571D01*
X0135512Y0009592D01*
X0135461Y0009616D01*
X0135412Y0009644D01*
X0135365Y0009674D01*
X0135320Y0009708D01*
X0135278Y0009745D01*
X0135238Y0009785D01*
X0135201Y0009827D01*
X0135167Y0009872D01*
X0135137Y0009919D01*
X0135109Y0009968D01*
X0135085Y0010019D01*
X0135064Y0010071D01*
X0135047Y0010124D01*
X0135034Y0010179D01*
X0135025Y0010234D01*
X0135019Y0010290D01*
X0135017Y0010346D01*
X0141233Y0009524D02*
X0141233Y0011991D01*
X0142260Y0011991D01*
X0142308Y0011989D01*
X0142357Y0011983D01*
X0142404Y0011974D01*
X0142451Y0011961D01*
X0142496Y0011944D01*
X0142540Y0011924D01*
X0142582Y0011900D01*
X0142623Y0011873D01*
X0142661Y0011843D01*
X0142696Y0011810D01*
X0142729Y0011775D01*
X0142759Y0011737D01*
X0142786Y0011696D01*
X0142810Y0011654D01*
X0142830Y0011610D01*
X0142847Y0011565D01*
X0142860Y0011518D01*
X0142869Y0011471D01*
X0142875Y0011422D01*
X0142877Y0011374D01*
X0142877Y0009524D01*
X0144593Y0009524D02*
X0144593Y0011991D01*
X0145620Y0011991D01*
X0145668Y0011989D01*
X0145717Y0011983D01*
X0145764Y0011974D01*
X0145811Y0011961D01*
X0145856Y0011944D01*
X0145900Y0011924D01*
X0145942Y0011900D01*
X0145983Y0011873D01*
X0146021Y0011843D01*
X0146056Y0011810D01*
X0146089Y0011775D01*
X0146119Y0011737D01*
X0146146Y0011696D01*
X0146170Y0011654D01*
X0146190Y0011610D01*
X0146207Y0011565D01*
X0146220Y0011518D01*
X0146229Y0011471D01*
X0146235Y0011422D01*
X0146237Y0011374D01*
X0146237Y0009524D01*
X0147833Y0010141D02*
X0147833Y0011168D01*
X0147833Y0010757D02*
X0149477Y0010757D01*
X0149477Y0011168D01*
X0149475Y0011224D01*
X0149469Y0011280D01*
X0149460Y0011335D01*
X0149447Y0011390D01*
X0149430Y0011443D01*
X0149409Y0011495D01*
X0149385Y0011546D01*
X0149357Y0011595D01*
X0149327Y0011642D01*
X0149293Y0011687D01*
X0149256Y0011729D01*
X0149216Y0011769D01*
X0149174Y0011806D01*
X0149129Y0011840D01*
X0149082Y0011870D01*
X0149033Y0011898D01*
X0148982Y0011922D01*
X0148930Y0011943D01*
X0148877Y0011960D01*
X0148822Y0011973D01*
X0148767Y0011982D01*
X0148711Y0011988D01*
X0148655Y0011990D01*
X0148599Y0011988D01*
X0148543Y0011982D01*
X0148488Y0011973D01*
X0148433Y0011960D01*
X0148380Y0011943D01*
X0148328Y0011922D01*
X0148277Y0011898D01*
X0148228Y0011870D01*
X0148181Y0011840D01*
X0148136Y0011806D01*
X0148094Y0011769D01*
X0148054Y0011729D01*
X0148017Y0011687D01*
X0147983Y0011642D01*
X0147953Y0011595D01*
X0147925Y0011546D01*
X0147901Y0011495D01*
X0147880Y0011443D01*
X0147863Y0011390D01*
X0147850Y0011335D01*
X0147841Y0011280D01*
X0147835Y0011224D01*
X0147833Y0011168D01*
X0147832Y0010141D02*
X0147834Y0010093D01*
X0147840Y0010044D01*
X0147849Y0009997D01*
X0147862Y0009950D01*
X0147879Y0009905D01*
X0147899Y0009861D01*
X0147923Y0009819D01*
X0147950Y0009778D01*
X0147980Y0009740D01*
X0148013Y0009705D01*
X0148048Y0009672D01*
X0148086Y0009642D01*
X0148127Y0009615D01*
X0148169Y0009591D01*
X0148213Y0009571D01*
X0148258Y0009554D01*
X0148305Y0009541D01*
X0148352Y0009532D01*
X0148401Y0009526D01*
X0148449Y0009524D01*
X0149477Y0009524D01*
X0150957Y0010141D02*
X0150957Y0011374D01*
X0150956Y0011374D02*
X0150958Y0011422D01*
X0150964Y0011471D01*
X0150973Y0011518D01*
X0150986Y0011565D01*
X0151003Y0011610D01*
X0151023Y0011654D01*
X0151047Y0011696D01*
X0151074Y0011737D01*
X0151104Y0011775D01*
X0151137Y0011810D01*
X0151172Y0011843D01*
X0151210Y0011873D01*
X0151251Y0011900D01*
X0151293Y0011924D01*
X0151337Y0011944D01*
X0151382Y0011961D01*
X0151429Y0011974D01*
X0151476Y0011983D01*
X0151525Y0011989D01*
X0151573Y0011991D01*
X0152395Y0011991D01*
X0153410Y0011991D02*
X0154643Y0011991D01*
X0153821Y0013224D02*
X0153821Y0010141D01*
X0153823Y0010093D01*
X0153829Y0010044D01*
X0153838Y0009997D01*
X0153851Y0009950D01*
X0153868Y0009905D01*
X0153888Y0009861D01*
X0153912Y0009819D01*
X0153939Y0009778D01*
X0153969Y0009740D01*
X0154002Y0009705D01*
X0154037Y0009672D01*
X0154075Y0009642D01*
X0154116Y0009615D01*
X0154158Y0009591D01*
X0154202Y0009571D01*
X0154247Y0009554D01*
X0154294Y0009541D01*
X0154341Y0009532D01*
X0154390Y0009526D01*
X0154438Y0009524D01*
X0154643Y0009524D01*
X0152395Y0009524D02*
X0151573Y0009524D01*
X0151525Y0009526D01*
X0151476Y0009532D01*
X0151429Y0009541D01*
X0151382Y0009554D01*
X0151337Y0009571D01*
X0151293Y0009591D01*
X0151251Y0009615D01*
X0151210Y0009642D01*
X0151172Y0009672D01*
X0151137Y0009705D01*
X0151104Y0009740D01*
X0151074Y0009778D01*
X0151047Y0009819D01*
X0151023Y0009861D01*
X0151003Y0009905D01*
X0150986Y0009950D01*
X0150973Y0009997D01*
X0150964Y0010044D01*
X0150958Y0010093D01*
X0150956Y0010141D01*
X0157937Y0010346D02*
X0157937Y0012402D01*
X0157939Y0012458D01*
X0157945Y0012514D01*
X0157954Y0012569D01*
X0157967Y0012624D01*
X0157984Y0012677D01*
X0158005Y0012729D01*
X0158029Y0012780D01*
X0158057Y0012829D01*
X0158087Y0012876D01*
X0158121Y0012921D01*
X0158158Y0012963D01*
X0158198Y0013003D01*
X0158240Y0013040D01*
X0158285Y0013074D01*
X0158332Y0013104D01*
X0158381Y0013132D01*
X0158432Y0013156D01*
X0158484Y0013177D01*
X0158537Y0013194D01*
X0158592Y0013207D01*
X0158647Y0013216D01*
X0158703Y0013222D01*
X0158759Y0013224D01*
X0159581Y0013224D01*
X0161325Y0012299D02*
X0163072Y0009524D01*
X0161941Y0009627D02*
X0163483Y0010757D01*
X0164689Y0011168D02*
X0165717Y0011168D01*
X0165923Y0011168D02*
X0166745Y0009524D01*
X0168112Y0009524D02*
X0168317Y0009524D01*
X0168317Y0009730D01*
X0168112Y0009730D01*
X0168112Y0009524D01*
X0164689Y0009524D02*
X0164689Y0013224D01*
X0165717Y0013224D01*
X0165780Y0013222D01*
X0165843Y0013216D01*
X0165906Y0013206D01*
X0165968Y0013193D01*
X0166029Y0013176D01*
X0166088Y0013155D01*
X0166147Y0013130D01*
X0166203Y0013102D01*
X0166258Y0013070D01*
X0166311Y0013035D01*
X0166361Y0012997D01*
X0166410Y0012956D01*
X0166455Y0012912D01*
X0166498Y0012865D01*
X0166537Y0012816D01*
X0166574Y0012764D01*
X0166607Y0012710D01*
X0166637Y0012654D01*
X0166664Y0012597D01*
X0166687Y0012538D01*
X0166706Y0012477D01*
X0166721Y0012416D01*
X0166733Y0012354D01*
X0166741Y0012291D01*
X0166745Y0012228D01*
X0166745Y0012164D01*
X0166741Y0012101D01*
X0166733Y0012038D01*
X0166721Y0011976D01*
X0166706Y0011915D01*
X0166687Y0011854D01*
X0166664Y0011795D01*
X0166637Y0011738D01*
X0166607Y0011682D01*
X0166574Y0011628D01*
X0166537Y0011576D01*
X0166498Y0011527D01*
X0166455Y0011480D01*
X0166410Y0011436D01*
X0166361Y0011395D01*
X0166311Y0011357D01*
X0166258Y0011322D01*
X0166203Y0011290D01*
X0166147Y0011262D01*
X0166088Y0011237D01*
X0166029Y0011216D01*
X0165968Y0011199D01*
X0165906Y0011186D01*
X0165843Y0011176D01*
X0165780Y0011170D01*
X0165717Y0011168D01*
X0162352Y0012299D02*
X0161119Y0010449D01*
X0161095Y0010415D01*
X0161075Y0010380D01*
X0161057Y0010342D01*
X0161042Y0010304D01*
X0161031Y0010264D01*
X0161023Y0010223D01*
X0161018Y0010182D01*
X0161016Y0010141D01*
X0161018Y0010093D01*
X0161024Y0010044D01*
X0161033Y0009997D01*
X0161046Y0009950D01*
X0161063Y0009905D01*
X0161083Y0009861D01*
X0161107Y0009819D01*
X0161134Y0009778D01*
X0161164Y0009740D01*
X0161197Y0009705D01*
X0161232Y0009672D01*
X0161270Y0009642D01*
X0161311Y0009615D01*
X0161353Y0009591D01*
X0161397Y0009571D01*
X0161442Y0009554D01*
X0161489Y0009541D01*
X0161536Y0009532D01*
X0161585Y0009526D01*
X0161633Y0009524D01*
X0161674Y0009526D01*
X0161715Y0009531D01*
X0161756Y0009539D01*
X0161796Y0009550D01*
X0161834Y0009565D01*
X0161872Y0009583D01*
X0161907Y0009603D01*
X0161941Y0009627D01*
X0159581Y0009524D02*
X0158759Y0009524D01*
X0158703Y0009526D01*
X0158647Y0009532D01*
X0158592Y0009541D01*
X0158537Y0009554D01*
X0158484Y0009571D01*
X0158432Y0009592D01*
X0158381Y0009616D01*
X0158332Y0009644D01*
X0158285Y0009674D01*
X0158240Y0009708D01*
X0158198Y0009745D01*
X0158158Y0009785D01*
X0158121Y0009827D01*
X0158087Y0009872D01*
X0158057Y0009919D01*
X0158029Y0009968D01*
X0158005Y0010019D01*
X0157984Y0010071D01*
X0157967Y0010124D01*
X0157954Y0010179D01*
X0157945Y0010234D01*
X0157939Y0010290D01*
X0157937Y0010346D01*
X0161325Y0012299D02*
X0161302Y0012341D01*
X0161282Y0012384D01*
X0161265Y0012429D01*
X0161252Y0012474D01*
X0161242Y0012521D01*
X0161236Y0012568D01*
X0161234Y0012616D01*
X0161236Y0012664D01*
X0161241Y0012711D01*
X0161250Y0012758D01*
X0161263Y0012804D01*
X0161279Y0012848D01*
X0161299Y0012892D01*
X0161322Y0012933D01*
X0161348Y0012973D01*
X0161378Y0013011D01*
X0161410Y0013046D01*
X0161445Y0013078D01*
X0161482Y0013108D01*
X0161522Y0013134D01*
X0161564Y0013158D01*
X0161607Y0013178D01*
X0161651Y0013194D01*
X0161697Y0013207D01*
X0161744Y0013217D01*
X0161791Y0013222D01*
X0161839Y0013224D01*
X0161887Y0013222D01*
X0161934Y0013217D01*
X0161981Y0013207D01*
X0162027Y0013194D01*
X0162071Y0013178D01*
X0162114Y0013158D01*
X0162156Y0013134D01*
X0162196Y0013108D01*
X0162233Y0013078D01*
X0162268Y0013046D01*
X0162300Y0013011D01*
X0162330Y0012973D01*
X0162356Y0012933D01*
X0162379Y0012892D01*
X0162399Y0012848D01*
X0162415Y0012804D01*
X0162428Y0012758D01*
X0162437Y0012711D01*
X0162442Y0012664D01*
X0162444Y0012616D01*
X0162442Y0012568D01*
X0162436Y0012521D01*
X0162426Y0012474D01*
X0162413Y0012429D01*
X0162396Y0012384D01*
X0162376Y0012341D01*
X0162353Y0012299D01*
X0144122Y0041650D02*
X0144122Y0044550D01*
X0143316Y0044550D02*
X0144928Y0044550D01*
X0142144Y0044550D02*
X0142144Y0041650D01*
X0140532Y0044550D01*
X0140532Y0041650D01*
X0139260Y0041650D02*
X0138616Y0041650D01*
X0138938Y0041650D02*
X0138938Y0044550D01*
X0138616Y0044550D02*
X0139260Y0044550D01*
X0137409Y0042778D02*
X0135475Y0042778D01*
X0134340Y0043261D02*
X0133051Y0043261D01*
X0131844Y0043261D02*
X0130555Y0043261D01*
X0130555Y0044550D02*
X0131844Y0044550D01*
X0133051Y0044550D02*
X0133051Y0041650D01*
X0133051Y0044550D02*
X0134340Y0044550D01*
X0130555Y0044550D02*
X0130555Y0041650D01*
X0129184Y0042456D02*
X0129184Y0043744D01*
X0129182Y0043799D01*
X0129176Y0043854D01*
X0129167Y0043908D01*
X0129154Y0043961D01*
X0129137Y0044014D01*
X0129117Y0044065D01*
X0129094Y0044115D01*
X0129067Y0044163D01*
X0129036Y0044209D01*
X0129003Y0044253D01*
X0128967Y0044294D01*
X0128928Y0044333D01*
X0128887Y0044369D01*
X0128843Y0044402D01*
X0128797Y0044433D01*
X0128749Y0044460D01*
X0128699Y0044483D01*
X0128648Y0044503D01*
X0128595Y0044520D01*
X0128542Y0044533D01*
X0128488Y0044542D01*
X0128433Y0044548D01*
X0128378Y0044550D01*
X0128323Y0044548D01*
X0128268Y0044542D01*
X0128214Y0044533D01*
X0128161Y0044520D01*
X0128108Y0044503D01*
X0128057Y0044483D01*
X0128007Y0044460D01*
X0127959Y0044433D01*
X0127913Y0044402D01*
X0127869Y0044369D01*
X0127828Y0044333D01*
X0127789Y0044294D01*
X0127753Y0044253D01*
X0127720Y0044209D01*
X0127689Y0044163D01*
X0127662Y0044115D01*
X0127639Y0044065D01*
X0127619Y0044014D01*
X0127602Y0043961D01*
X0127589Y0043908D01*
X0127580Y0043854D01*
X0127574Y0043799D01*
X0127572Y0043744D01*
X0127572Y0042456D01*
X0127574Y0042401D01*
X0127580Y0042346D01*
X0127589Y0042292D01*
X0127602Y0042239D01*
X0127619Y0042186D01*
X0127639Y0042135D01*
X0127662Y0042085D01*
X0127689Y0042037D01*
X0127720Y0041991D01*
X0127753Y0041947D01*
X0127789Y0041906D01*
X0127828Y0041867D01*
X0127869Y0041831D01*
X0127913Y0041798D01*
X0127959Y0041767D01*
X0128007Y0041740D01*
X0128057Y0041717D01*
X0128108Y0041697D01*
X0128161Y0041680D01*
X0128214Y0041667D01*
X0128268Y0041658D01*
X0128323Y0041652D01*
X0128378Y0041650D01*
X0128433Y0041652D01*
X0128488Y0041658D01*
X0128542Y0041667D01*
X0128595Y0041680D01*
X0128648Y0041697D01*
X0128699Y0041717D01*
X0128749Y0041740D01*
X0128797Y0041767D01*
X0128843Y0041798D01*
X0128887Y0041831D01*
X0128928Y0041867D01*
X0128967Y0041906D01*
X0129003Y0041947D01*
X0129036Y0041991D01*
X0129067Y0042037D01*
X0129094Y0042085D01*
X0129117Y0042135D01*
X0129137Y0042186D01*
X0129154Y0042239D01*
X0129167Y0042292D01*
X0129176Y0042346D01*
X0129182Y0042401D01*
X0129184Y0042456D01*
X0098968Y0044550D02*
X0097356Y0044550D01*
X0098162Y0044550D02*
X0098162Y0041650D01*
X0096184Y0041650D02*
X0096184Y0044550D01*
X0094572Y0044550D02*
X0096184Y0041650D01*
X0094572Y0041650D02*
X0094572Y0044550D01*
X0093300Y0044550D02*
X0092656Y0044550D01*
X0092978Y0044550D02*
X0092978Y0041650D01*
X0092656Y0041650D02*
X0093300Y0041650D01*
X0091449Y0042778D02*
X0089515Y0042778D01*
X0088120Y0041650D02*
X0088120Y0044550D01*
X0086508Y0044550D02*
X0086508Y0041650D01*
X0085144Y0042456D02*
X0085144Y0043744D01*
X0085142Y0043799D01*
X0085136Y0043854D01*
X0085127Y0043908D01*
X0085114Y0043961D01*
X0085097Y0044014D01*
X0085077Y0044065D01*
X0085054Y0044115D01*
X0085027Y0044163D01*
X0084996Y0044209D01*
X0084963Y0044253D01*
X0084927Y0044294D01*
X0084888Y0044333D01*
X0084847Y0044369D01*
X0084803Y0044402D01*
X0084757Y0044433D01*
X0084709Y0044460D01*
X0084659Y0044483D01*
X0084608Y0044503D01*
X0084555Y0044520D01*
X0084502Y0044533D01*
X0084448Y0044542D01*
X0084393Y0044548D01*
X0084338Y0044550D01*
X0084283Y0044548D01*
X0084228Y0044542D01*
X0084174Y0044533D01*
X0084121Y0044520D01*
X0084068Y0044503D01*
X0084017Y0044483D01*
X0083967Y0044460D01*
X0083919Y0044433D01*
X0083873Y0044402D01*
X0083829Y0044369D01*
X0083788Y0044333D01*
X0083749Y0044294D01*
X0083713Y0044253D01*
X0083680Y0044209D01*
X0083649Y0044163D01*
X0083622Y0044115D01*
X0083599Y0044065D01*
X0083579Y0044014D01*
X0083562Y0043961D01*
X0083549Y0043908D01*
X0083540Y0043854D01*
X0083534Y0043799D01*
X0083532Y0043744D01*
X0083532Y0042456D01*
X0083534Y0042401D01*
X0083540Y0042346D01*
X0083549Y0042292D01*
X0083562Y0042239D01*
X0083579Y0042186D01*
X0083599Y0042135D01*
X0083622Y0042085D01*
X0083649Y0042037D01*
X0083680Y0041991D01*
X0083713Y0041947D01*
X0083749Y0041906D01*
X0083788Y0041867D01*
X0083829Y0041831D01*
X0083873Y0041798D01*
X0083919Y0041767D01*
X0083967Y0041740D01*
X0084017Y0041717D01*
X0084068Y0041697D01*
X0084121Y0041680D01*
X0084174Y0041667D01*
X0084228Y0041658D01*
X0084283Y0041652D01*
X0084338Y0041650D01*
X0084393Y0041652D01*
X0084448Y0041658D01*
X0084502Y0041667D01*
X0084555Y0041680D01*
X0084608Y0041697D01*
X0084659Y0041717D01*
X0084709Y0041740D01*
X0084757Y0041767D01*
X0084803Y0041798D01*
X0084847Y0041831D01*
X0084888Y0041867D01*
X0084927Y0041906D01*
X0084963Y0041947D01*
X0084996Y0041991D01*
X0085027Y0042037D01*
X0085054Y0042085D01*
X0085077Y0042135D01*
X0085097Y0042186D01*
X0085114Y0042239D01*
X0085127Y0042292D01*
X0085136Y0042346D01*
X0085142Y0042401D01*
X0085144Y0042456D01*
X0086508Y0044550D02*
X0088120Y0041650D01*
X0029222Y0013224D02*
X0030455Y0009524D01*
X0071267Y0173645D02*
X0071678Y0173645D01*
X0072912Y0177345D01*
X0071267Y0177345D02*
X0072090Y0174878D01*
X0069930Y0175495D02*
X0069930Y0176728D01*
X0069928Y0176776D01*
X0069922Y0176825D01*
X0069913Y0176872D01*
X0069900Y0176919D01*
X0069883Y0176964D01*
X0069863Y0177008D01*
X0069839Y0177050D01*
X0069812Y0177091D01*
X0069782Y0177129D01*
X0069749Y0177164D01*
X0069714Y0177197D01*
X0069676Y0177227D01*
X0069635Y0177254D01*
X0069593Y0177278D01*
X0069549Y0177298D01*
X0069504Y0177315D01*
X0069457Y0177328D01*
X0069410Y0177337D01*
X0069361Y0177343D01*
X0069313Y0177345D01*
X0068285Y0177345D01*
X0068285Y0178578D02*
X0068285Y0174878D01*
X0069313Y0174878D01*
X0069361Y0174880D01*
X0069410Y0174886D01*
X0069457Y0174895D01*
X0069504Y0174908D01*
X0069549Y0174925D01*
X0069593Y0174945D01*
X0069635Y0174969D01*
X0069676Y0174996D01*
X0069714Y0175026D01*
X0069749Y0175059D01*
X0069782Y0175094D01*
X0069812Y0175132D01*
X0069839Y0175173D01*
X0069863Y0175215D01*
X0069883Y0175259D01*
X0069900Y0175304D01*
X0069913Y0175351D01*
X0069922Y0175398D01*
X0069928Y0175447D01*
X0069930Y0175495D01*
X0062970Y0175392D02*
X0062925Y0175488D01*
X0062884Y0175586D01*
X0062846Y0175686D01*
X0062811Y0175786D01*
X0062780Y0175888D01*
X0062752Y0175991D01*
X0062729Y0176094D01*
X0062708Y0176199D01*
X0062692Y0176304D01*
X0062679Y0176409D01*
X0062669Y0176515D01*
X0062664Y0176622D01*
X0062662Y0176728D01*
X0064717Y0176728D02*
X0064715Y0176834D01*
X0064710Y0176941D01*
X0064700Y0177047D01*
X0064687Y0177152D01*
X0064671Y0177257D01*
X0064650Y0177362D01*
X0064627Y0177465D01*
X0064599Y0177568D01*
X0064568Y0177670D01*
X0064533Y0177770D01*
X0064495Y0177870D01*
X0064454Y0177968D01*
X0064409Y0178064D01*
X0064512Y0177756D02*
X0062867Y0175701D01*
X0063690Y0174878D02*
X0063742Y0174880D01*
X0063795Y0174885D01*
X0063846Y0174894D01*
X0063897Y0174907D01*
X0063947Y0174923D01*
X0063996Y0174942D01*
X0064043Y0174965D01*
X0064089Y0174991D01*
X0064132Y0175020D01*
X0064174Y0175052D01*
X0064213Y0175086D01*
X0064250Y0175124D01*
X0064284Y0175164D01*
X0064316Y0175206D01*
X0064344Y0175250D01*
X0064369Y0175296D01*
X0064391Y0175343D01*
X0064410Y0175392D01*
X0063690Y0174878D02*
X0063638Y0174880D01*
X0063585Y0174885D01*
X0063534Y0174894D01*
X0063483Y0174907D01*
X0063433Y0174923D01*
X0063384Y0174942D01*
X0063337Y0174965D01*
X0063291Y0174991D01*
X0063248Y0175020D01*
X0063206Y0175052D01*
X0063167Y0175086D01*
X0063130Y0175124D01*
X0063096Y0175164D01*
X0063064Y0175206D01*
X0063036Y0175250D01*
X0063011Y0175296D01*
X0062989Y0175343D01*
X0062970Y0175392D01*
X0061272Y0175084D02*
X0061272Y0174878D01*
X0061067Y0174878D01*
X0061067Y0175084D01*
X0061272Y0175084D01*
X0064409Y0175392D02*
X0064454Y0175488D01*
X0064495Y0175586D01*
X0064533Y0175686D01*
X0064568Y0175786D01*
X0064599Y0175888D01*
X0064627Y0175991D01*
X0064650Y0176094D01*
X0064671Y0176199D01*
X0064687Y0176304D01*
X0064700Y0176409D01*
X0064710Y0176515D01*
X0064715Y0176622D01*
X0064717Y0176728D01*
X0062662Y0176728D02*
X0062664Y0176834D01*
X0062669Y0176941D01*
X0062679Y0177047D01*
X0062692Y0177152D01*
X0062708Y0177257D01*
X0062729Y0177362D01*
X0062752Y0177465D01*
X0062780Y0177568D01*
X0062811Y0177670D01*
X0062846Y0177770D01*
X0062884Y0177870D01*
X0062925Y0177968D01*
X0062970Y0178064D01*
X0063690Y0178579D02*
X0063742Y0178577D01*
X0063795Y0178572D01*
X0063846Y0178563D01*
X0063897Y0178550D01*
X0063947Y0178534D01*
X0063996Y0178515D01*
X0064043Y0178492D01*
X0064089Y0178466D01*
X0064132Y0178437D01*
X0064174Y0178405D01*
X0064213Y0178371D01*
X0064250Y0178333D01*
X0064284Y0178293D01*
X0064316Y0178251D01*
X0064344Y0178207D01*
X0064369Y0178161D01*
X0064391Y0178114D01*
X0064410Y0178065D01*
X0063690Y0178579D02*
X0063638Y0178577D01*
X0063585Y0178572D01*
X0063534Y0178563D01*
X0063483Y0178550D01*
X0063433Y0178534D01*
X0063384Y0178515D01*
X0063337Y0178492D01*
X0063291Y0178466D01*
X0063248Y0178437D01*
X0063206Y0178405D01*
X0063167Y0178371D01*
X0063130Y0178333D01*
X0063096Y0178293D01*
X0063064Y0178251D01*
X0063036Y0178207D01*
X0063011Y0178161D01*
X0062989Y0178114D01*
X0062970Y0178065D01*
X0057622Y0176728D02*
X0057624Y0176622D01*
X0057629Y0176515D01*
X0057639Y0176409D01*
X0057652Y0176304D01*
X0057668Y0176199D01*
X0057689Y0176094D01*
X0057712Y0175991D01*
X0057740Y0175888D01*
X0057771Y0175786D01*
X0057806Y0175686D01*
X0057844Y0175586D01*
X0057885Y0175488D01*
X0057930Y0175392D01*
X0057827Y0175701D02*
X0059472Y0177756D01*
X0059370Y0178065D02*
X0059351Y0178114D01*
X0059329Y0178161D01*
X0059304Y0178207D01*
X0059276Y0178251D01*
X0059244Y0178293D01*
X0059210Y0178333D01*
X0059173Y0178371D01*
X0059134Y0178405D01*
X0059092Y0178437D01*
X0059049Y0178466D01*
X0059003Y0178492D01*
X0058956Y0178515D01*
X0058907Y0178534D01*
X0058857Y0178550D01*
X0058806Y0178563D01*
X0058755Y0178572D01*
X0058702Y0178577D01*
X0058650Y0178579D01*
X0058598Y0178577D01*
X0058545Y0178572D01*
X0058494Y0178563D01*
X0058443Y0178550D01*
X0058393Y0178534D01*
X0058344Y0178515D01*
X0058297Y0178492D01*
X0058251Y0178466D01*
X0058208Y0178437D01*
X0058166Y0178405D01*
X0058127Y0178371D01*
X0058090Y0178333D01*
X0058056Y0178293D01*
X0058024Y0178251D01*
X0057996Y0178207D01*
X0057971Y0178161D01*
X0057949Y0178114D01*
X0057930Y0178065D01*
X0059369Y0178064D02*
X0059414Y0177968D01*
X0059455Y0177870D01*
X0059493Y0177770D01*
X0059528Y0177670D01*
X0059559Y0177568D01*
X0059587Y0177465D01*
X0059610Y0177362D01*
X0059631Y0177257D01*
X0059647Y0177152D01*
X0059660Y0177047D01*
X0059670Y0176941D01*
X0059675Y0176834D01*
X0059677Y0176728D01*
X0057622Y0176728D02*
X0057624Y0176834D01*
X0057629Y0176941D01*
X0057639Y0177047D01*
X0057652Y0177152D01*
X0057668Y0177257D01*
X0057689Y0177362D01*
X0057712Y0177465D01*
X0057740Y0177568D01*
X0057771Y0177670D01*
X0057806Y0177770D01*
X0057844Y0177870D01*
X0057885Y0177968D01*
X0057930Y0178064D01*
X0059677Y0176728D02*
X0059675Y0176622D01*
X0059670Y0176515D01*
X0059660Y0176409D01*
X0059647Y0176304D01*
X0059631Y0176199D01*
X0059610Y0176094D01*
X0059587Y0175991D01*
X0059559Y0175888D01*
X0059528Y0175786D01*
X0059493Y0175686D01*
X0059455Y0175586D01*
X0059414Y0175488D01*
X0059369Y0175392D01*
X0059370Y0175392D02*
X0059351Y0175343D01*
X0059329Y0175296D01*
X0059304Y0175250D01*
X0059276Y0175206D01*
X0059244Y0175164D01*
X0059210Y0175124D01*
X0059173Y0175086D01*
X0059134Y0175052D01*
X0059092Y0175020D01*
X0059049Y0174991D01*
X0059003Y0174965D01*
X0058956Y0174942D01*
X0058907Y0174923D01*
X0058857Y0174907D01*
X0058806Y0174894D01*
X0058755Y0174885D01*
X0058702Y0174880D01*
X0058650Y0174878D01*
X0058598Y0174880D01*
X0058545Y0174885D01*
X0058494Y0174894D01*
X0058443Y0174907D01*
X0058393Y0174923D01*
X0058344Y0174942D01*
X0058297Y0174965D01*
X0058251Y0174991D01*
X0058208Y0175020D01*
X0058166Y0175052D01*
X0058127Y0175086D01*
X0058090Y0175124D01*
X0058056Y0175164D01*
X0058024Y0175206D01*
X0057996Y0175250D01*
X0057971Y0175296D01*
X0057949Y0175343D01*
X0057930Y0175392D01*
X0056232Y0175084D02*
X0056232Y0174878D01*
X0056027Y0174878D01*
X0056027Y0175084D01*
X0056232Y0175084D01*
X0054637Y0174878D02*
X0052582Y0174878D01*
X0053610Y0174878D02*
X0053610Y0178578D01*
X0052582Y0177756D01*
X0048318Y0176523D02*
X0049140Y0174878D01*
X0048112Y0176523D02*
X0047084Y0176523D01*
X0048112Y0176523D02*
X0048175Y0176525D01*
X0048238Y0176531D01*
X0048301Y0176541D01*
X0048363Y0176554D01*
X0048424Y0176571D01*
X0048483Y0176592D01*
X0048542Y0176617D01*
X0048598Y0176645D01*
X0048653Y0176677D01*
X0048706Y0176712D01*
X0048756Y0176750D01*
X0048805Y0176791D01*
X0048850Y0176835D01*
X0048893Y0176882D01*
X0048932Y0176931D01*
X0048969Y0176983D01*
X0049002Y0177037D01*
X0049032Y0177093D01*
X0049059Y0177150D01*
X0049082Y0177209D01*
X0049101Y0177270D01*
X0049116Y0177331D01*
X0049128Y0177393D01*
X0049136Y0177456D01*
X0049140Y0177519D01*
X0049140Y0177583D01*
X0049136Y0177646D01*
X0049128Y0177709D01*
X0049116Y0177771D01*
X0049101Y0177832D01*
X0049082Y0177893D01*
X0049059Y0177952D01*
X0049032Y0178009D01*
X0049002Y0178065D01*
X0048969Y0178119D01*
X0048932Y0178171D01*
X0048893Y0178220D01*
X0048850Y0178267D01*
X0048805Y0178311D01*
X0048756Y0178352D01*
X0048706Y0178390D01*
X0048653Y0178425D01*
X0048598Y0178457D01*
X0048542Y0178485D01*
X0048483Y0178510D01*
X0048424Y0178531D01*
X0048363Y0178548D01*
X0048301Y0178561D01*
X0048238Y0178571D01*
X0048175Y0178577D01*
X0048112Y0178579D01*
X0048112Y0178578D02*
X0047084Y0178578D01*
X0047084Y0174878D01*
X0045593Y0174878D02*
X0043949Y0174878D01*
X0043949Y0178578D01*
X0045593Y0178578D01*
X0045182Y0176934D02*
X0043949Y0176934D01*
X0041986Y0176420D02*
X0040856Y0177037D01*
X0041267Y0178579D02*
X0041343Y0178577D01*
X0041419Y0178571D01*
X0041495Y0178562D01*
X0041570Y0178549D01*
X0041645Y0178532D01*
X0041718Y0178511D01*
X0041791Y0178487D01*
X0041862Y0178460D01*
X0041931Y0178428D01*
X0042000Y0178394D01*
X0042066Y0178356D01*
X0042130Y0178315D01*
X0042192Y0178271D01*
X0040856Y0177037D02*
X0040810Y0177066D01*
X0040767Y0177098D01*
X0040725Y0177132D01*
X0040686Y0177170D01*
X0040649Y0177209D01*
X0040615Y0177251D01*
X0040583Y0177296D01*
X0040555Y0177342D01*
X0040530Y0177390D01*
X0040507Y0177439D01*
X0040489Y0177490D01*
X0040473Y0177542D01*
X0040461Y0177594D01*
X0040452Y0177648D01*
X0040447Y0177702D01*
X0040445Y0177756D01*
X0040447Y0177812D01*
X0040453Y0177868D01*
X0040462Y0177923D01*
X0040475Y0177978D01*
X0040492Y0178031D01*
X0040513Y0178083D01*
X0040537Y0178134D01*
X0040565Y0178183D01*
X0040595Y0178230D01*
X0040629Y0178275D01*
X0040666Y0178317D01*
X0040706Y0178357D01*
X0040748Y0178394D01*
X0040793Y0178428D01*
X0040840Y0178458D01*
X0040889Y0178486D01*
X0040940Y0178510D01*
X0040992Y0178531D01*
X0041045Y0178548D01*
X0041100Y0178561D01*
X0041155Y0178570D01*
X0041211Y0178576D01*
X0041267Y0178578D01*
X0040342Y0175392D02*
X0040400Y0175336D01*
X0040460Y0175283D01*
X0040523Y0175232D01*
X0040589Y0175185D01*
X0040656Y0175141D01*
X0040726Y0175100D01*
X0040797Y0175062D01*
X0040870Y0175028D01*
X0040944Y0174997D01*
X0041020Y0174969D01*
X0041097Y0174945D01*
X0041175Y0174925D01*
X0041254Y0174908D01*
X0041334Y0174895D01*
X0041414Y0174885D01*
X0041494Y0174880D01*
X0041575Y0174878D01*
X0041575Y0174879D02*
X0041631Y0174881D01*
X0041687Y0174887D01*
X0041742Y0174896D01*
X0041797Y0174909D01*
X0041850Y0174926D01*
X0041902Y0174947D01*
X0041953Y0174971D01*
X0042002Y0174999D01*
X0042049Y0175029D01*
X0042094Y0175063D01*
X0042136Y0175100D01*
X0042176Y0175140D01*
X0042213Y0175182D01*
X0042247Y0175227D01*
X0042277Y0175274D01*
X0042305Y0175323D01*
X0042329Y0175374D01*
X0042350Y0175426D01*
X0042367Y0175479D01*
X0042380Y0175534D01*
X0042389Y0175589D01*
X0042395Y0175645D01*
X0042397Y0175701D01*
X0042395Y0175755D01*
X0042390Y0175809D01*
X0042381Y0175863D01*
X0042369Y0175915D01*
X0042353Y0175967D01*
X0042335Y0176018D01*
X0042312Y0176067D01*
X0042287Y0176115D01*
X0042259Y0176161D01*
X0042227Y0176206D01*
X0042193Y0176248D01*
X0042156Y0176287D01*
X0042117Y0176325D01*
X0042075Y0176359D01*
X0042032Y0176391D01*
X0041986Y0176420D01*
X0039123Y0178578D02*
X0037890Y0176831D01*
X0037890Y0174878D01*
X0037890Y0176831D02*
X0036656Y0178578D01*
X0035513Y0178578D02*
X0033869Y0178578D01*
X0033869Y0174878D01*
X0035513Y0174878D01*
X0035102Y0176934D02*
X0033869Y0176934D01*
X0032078Y0176934D02*
X0032078Y0174878D01*
X0030844Y0174878D01*
X0030844Y0174879D02*
X0030788Y0174881D01*
X0030732Y0174887D01*
X0030677Y0174896D01*
X0030622Y0174909D01*
X0030569Y0174926D01*
X0030517Y0174947D01*
X0030466Y0174971D01*
X0030417Y0174999D01*
X0030370Y0175029D01*
X0030325Y0175063D01*
X0030283Y0175100D01*
X0030243Y0175140D01*
X0030206Y0175182D01*
X0030172Y0175227D01*
X0030142Y0175274D01*
X0030114Y0175323D01*
X0030090Y0175374D01*
X0030069Y0175426D01*
X0030052Y0175479D01*
X0030039Y0175534D01*
X0030030Y0175589D01*
X0030024Y0175645D01*
X0030022Y0175701D01*
X0030022Y0177756D01*
X0030024Y0177812D01*
X0030030Y0177868D01*
X0030039Y0177923D01*
X0030052Y0177978D01*
X0030069Y0178031D01*
X0030090Y0178083D01*
X0030114Y0178134D01*
X0030142Y0178183D01*
X0030172Y0178230D01*
X0030206Y0178275D01*
X0030243Y0178317D01*
X0030283Y0178357D01*
X0030325Y0178394D01*
X0030370Y0178428D01*
X0030417Y0178458D01*
X0030466Y0178486D01*
X0030517Y0178510D01*
X0030569Y0178531D01*
X0030622Y0178548D01*
X0030677Y0178561D01*
X0030732Y0178570D01*
X0030788Y0178576D01*
X0030844Y0178578D01*
X0032078Y0178578D01*
X0032078Y0176934D02*
X0031461Y0176934D01*
X0076393Y0176523D02*
X0077421Y0176523D01*
X0077484Y0176525D01*
X0077547Y0176531D01*
X0077610Y0176541D01*
X0077672Y0176554D01*
X0077733Y0176571D01*
X0077792Y0176592D01*
X0077851Y0176617D01*
X0077907Y0176645D01*
X0077962Y0176677D01*
X0078015Y0176712D01*
X0078065Y0176750D01*
X0078114Y0176791D01*
X0078159Y0176835D01*
X0078202Y0176882D01*
X0078241Y0176931D01*
X0078278Y0176983D01*
X0078311Y0177037D01*
X0078341Y0177093D01*
X0078368Y0177150D01*
X0078391Y0177209D01*
X0078410Y0177270D01*
X0078425Y0177331D01*
X0078437Y0177393D01*
X0078445Y0177456D01*
X0078449Y0177519D01*
X0078449Y0177583D01*
X0078445Y0177646D01*
X0078437Y0177709D01*
X0078425Y0177771D01*
X0078410Y0177832D01*
X0078391Y0177893D01*
X0078368Y0177952D01*
X0078341Y0178009D01*
X0078311Y0178065D01*
X0078278Y0178119D01*
X0078241Y0178171D01*
X0078202Y0178220D01*
X0078159Y0178267D01*
X0078114Y0178311D01*
X0078065Y0178352D01*
X0078015Y0178390D01*
X0077962Y0178425D01*
X0077907Y0178457D01*
X0077851Y0178485D01*
X0077792Y0178510D01*
X0077733Y0178531D01*
X0077672Y0178548D01*
X0077610Y0178561D01*
X0077547Y0178571D01*
X0077484Y0178577D01*
X0077421Y0178579D01*
X0077421Y0178578D02*
X0076393Y0178578D01*
X0076393Y0174878D01*
X0079770Y0174878D02*
X0079770Y0177345D01*
X0079872Y0178373D02*
X0079667Y0178373D01*
X0079667Y0178578D01*
X0079872Y0178578D01*
X0079872Y0178373D01*
X0081347Y0177345D02*
X0081347Y0174878D01*
X0082992Y0174878D02*
X0082992Y0176728D01*
X0082990Y0176776D01*
X0082984Y0176825D01*
X0082975Y0176872D01*
X0082962Y0176919D01*
X0082945Y0176964D01*
X0082925Y0177008D01*
X0082901Y0177050D01*
X0082874Y0177091D01*
X0082844Y0177129D01*
X0082811Y0177164D01*
X0082776Y0177197D01*
X0082738Y0177227D01*
X0082697Y0177254D01*
X0082655Y0177278D01*
X0082611Y0177298D01*
X0082566Y0177315D01*
X0082519Y0177328D01*
X0082472Y0177337D01*
X0082423Y0177343D01*
X0082375Y0177345D01*
X0081347Y0177345D01*
X0084587Y0176523D02*
X0084587Y0175495D01*
X0084587Y0176112D02*
X0086232Y0176112D01*
X0086232Y0176523D01*
X0086230Y0176579D01*
X0086224Y0176635D01*
X0086215Y0176690D01*
X0086202Y0176745D01*
X0086185Y0176798D01*
X0086164Y0176850D01*
X0086140Y0176901D01*
X0086112Y0176950D01*
X0086082Y0176997D01*
X0086048Y0177042D01*
X0086011Y0177084D01*
X0085971Y0177124D01*
X0085929Y0177161D01*
X0085884Y0177195D01*
X0085837Y0177225D01*
X0085788Y0177253D01*
X0085737Y0177277D01*
X0085685Y0177298D01*
X0085632Y0177315D01*
X0085577Y0177328D01*
X0085522Y0177337D01*
X0085466Y0177343D01*
X0085410Y0177345D01*
X0085354Y0177343D01*
X0085298Y0177337D01*
X0085243Y0177328D01*
X0085188Y0177315D01*
X0085135Y0177298D01*
X0085083Y0177277D01*
X0085032Y0177253D01*
X0084983Y0177225D01*
X0084936Y0177195D01*
X0084891Y0177161D01*
X0084849Y0177124D01*
X0084809Y0177084D01*
X0084772Y0177042D01*
X0084738Y0176997D01*
X0084708Y0176950D01*
X0084680Y0176901D01*
X0084656Y0176850D01*
X0084635Y0176798D01*
X0084618Y0176745D01*
X0084605Y0176690D01*
X0084596Y0176635D01*
X0084590Y0176579D01*
X0084588Y0176523D01*
X0084587Y0175495D02*
X0084589Y0175447D01*
X0084595Y0175398D01*
X0084604Y0175351D01*
X0084617Y0175304D01*
X0084634Y0175259D01*
X0084654Y0175215D01*
X0084678Y0175173D01*
X0084705Y0175132D01*
X0084735Y0175094D01*
X0084768Y0175059D01*
X0084803Y0175026D01*
X0084841Y0174996D01*
X0084882Y0174969D01*
X0084924Y0174945D01*
X0084968Y0174925D01*
X0085013Y0174908D01*
X0085060Y0174895D01*
X0085107Y0174886D01*
X0085156Y0174880D01*
X0085204Y0174878D01*
X0086232Y0174878D01*
X0088409Y0174878D02*
X0089334Y0174878D01*
X0089334Y0176728D01*
X0089334Y0176317D02*
X0088409Y0176317D01*
X0089334Y0176728D02*
X0089332Y0176776D01*
X0089326Y0176825D01*
X0089317Y0176872D01*
X0089304Y0176919D01*
X0089287Y0176964D01*
X0089267Y0177008D01*
X0089243Y0177050D01*
X0089216Y0177091D01*
X0089186Y0177129D01*
X0089153Y0177164D01*
X0089118Y0177197D01*
X0089080Y0177227D01*
X0089039Y0177254D01*
X0088997Y0177278D01*
X0088953Y0177298D01*
X0088908Y0177315D01*
X0088861Y0177328D01*
X0088814Y0177337D01*
X0088765Y0177343D01*
X0088717Y0177345D01*
X0087895Y0177345D01*
X0088409Y0176317D02*
X0088357Y0176315D01*
X0088304Y0176309D01*
X0088253Y0176300D01*
X0088202Y0176287D01*
X0088152Y0176270D01*
X0088104Y0176249D01*
X0088057Y0176225D01*
X0088012Y0176198D01*
X0087970Y0176167D01*
X0087929Y0176133D01*
X0087891Y0176097D01*
X0087856Y0176058D01*
X0087824Y0176016D01*
X0087795Y0175973D01*
X0087770Y0175927D01*
X0087747Y0175879D01*
X0087729Y0175830D01*
X0087713Y0175780D01*
X0087702Y0175729D01*
X0087694Y0175677D01*
X0087690Y0175624D01*
X0087690Y0175572D01*
X0087694Y0175519D01*
X0087702Y0175467D01*
X0087713Y0175416D01*
X0087729Y0175366D01*
X0087747Y0175317D01*
X0087770Y0175269D01*
X0087795Y0175223D01*
X0087824Y0175180D01*
X0087856Y0175138D01*
X0087891Y0175099D01*
X0087929Y0175063D01*
X0087970Y0175029D01*
X0088012Y0174998D01*
X0088057Y0174971D01*
X0088104Y0174947D01*
X0088152Y0174926D01*
X0088202Y0174909D01*
X0088253Y0174896D01*
X0088304Y0174887D01*
X0088357Y0174881D01*
X0088409Y0174879D01*
X0091085Y0174878D02*
X0092113Y0174878D01*
X0092161Y0174880D01*
X0092210Y0174886D01*
X0092257Y0174895D01*
X0092304Y0174908D01*
X0092349Y0174925D01*
X0092393Y0174945D01*
X0092435Y0174969D01*
X0092476Y0174996D01*
X0092514Y0175026D01*
X0092549Y0175059D01*
X0092582Y0175094D01*
X0092612Y0175132D01*
X0092639Y0175173D01*
X0092663Y0175215D01*
X0092683Y0175259D01*
X0092700Y0175304D01*
X0092713Y0175351D01*
X0092722Y0175398D01*
X0092728Y0175447D01*
X0092730Y0175495D01*
X0092730Y0176728D01*
X0092728Y0176776D01*
X0092722Y0176825D01*
X0092713Y0176872D01*
X0092700Y0176919D01*
X0092683Y0176964D01*
X0092663Y0177008D01*
X0092639Y0177050D01*
X0092612Y0177091D01*
X0092582Y0177129D01*
X0092549Y0177164D01*
X0092514Y0177197D01*
X0092476Y0177227D01*
X0092435Y0177254D01*
X0092393Y0177278D01*
X0092349Y0177298D01*
X0092304Y0177315D01*
X0092257Y0177328D01*
X0092210Y0177337D01*
X0092161Y0177343D01*
X0092113Y0177345D01*
X0091085Y0177345D01*
X0091085Y0173645D01*
X0094325Y0173645D02*
X0094325Y0177345D01*
X0095353Y0177345D01*
X0095401Y0177343D01*
X0095450Y0177337D01*
X0095497Y0177328D01*
X0095544Y0177315D01*
X0095589Y0177298D01*
X0095633Y0177278D01*
X0095675Y0177254D01*
X0095716Y0177227D01*
X0095754Y0177197D01*
X0095789Y0177164D01*
X0095822Y0177129D01*
X0095852Y0177091D01*
X0095879Y0177050D01*
X0095903Y0177008D01*
X0095923Y0176964D01*
X0095940Y0176919D01*
X0095953Y0176872D01*
X0095962Y0176825D01*
X0095968Y0176776D01*
X0095970Y0176728D01*
X0095970Y0175495D01*
X0095968Y0175447D01*
X0095962Y0175398D01*
X0095953Y0175351D01*
X0095940Y0175304D01*
X0095923Y0175259D01*
X0095903Y0175215D01*
X0095879Y0175173D01*
X0095852Y0175132D01*
X0095822Y0175094D01*
X0095789Y0175059D01*
X0095754Y0175026D01*
X0095716Y0174996D01*
X0095675Y0174969D01*
X0095633Y0174945D01*
X0095589Y0174925D01*
X0095544Y0174908D01*
X0095497Y0174895D01*
X0095450Y0174886D01*
X0095401Y0174880D01*
X0095353Y0174878D01*
X0094325Y0174878D01*
X0097477Y0175495D02*
X0097477Y0178578D01*
X0099347Y0176523D02*
X0099347Y0175495D01*
X0099347Y0176112D02*
X0100992Y0176112D01*
X0100992Y0176523D01*
X0100991Y0176523D02*
X0100989Y0176579D01*
X0100983Y0176635D01*
X0100974Y0176690D01*
X0100961Y0176745D01*
X0100944Y0176798D01*
X0100923Y0176850D01*
X0100899Y0176901D01*
X0100871Y0176950D01*
X0100841Y0176997D01*
X0100807Y0177042D01*
X0100770Y0177084D01*
X0100730Y0177124D01*
X0100688Y0177161D01*
X0100643Y0177195D01*
X0100596Y0177225D01*
X0100547Y0177253D01*
X0100496Y0177277D01*
X0100444Y0177298D01*
X0100391Y0177315D01*
X0100336Y0177328D01*
X0100281Y0177337D01*
X0100225Y0177343D01*
X0100169Y0177345D01*
X0100113Y0177343D01*
X0100057Y0177337D01*
X0100002Y0177328D01*
X0099947Y0177315D01*
X0099894Y0177298D01*
X0099842Y0177277D01*
X0099791Y0177253D01*
X0099742Y0177225D01*
X0099695Y0177195D01*
X0099650Y0177161D01*
X0099608Y0177124D01*
X0099568Y0177084D01*
X0099531Y0177042D01*
X0099497Y0176997D01*
X0099467Y0176950D01*
X0099439Y0176901D01*
X0099415Y0176850D01*
X0099394Y0176798D01*
X0099377Y0176745D01*
X0099364Y0176690D01*
X0099355Y0176635D01*
X0099349Y0176579D01*
X0099347Y0176523D01*
X0099347Y0175495D02*
X0099349Y0175447D01*
X0099355Y0175398D01*
X0099364Y0175351D01*
X0099377Y0175304D01*
X0099394Y0175259D01*
X0099414Y0175215D01*
X0099438Y0175173D01*
X0099465Y0175132D01*
X0099495Y0175094D01*
X0099528Y0175059D01*
X0099563Y0175026D01*
X0099601Y0174996D01*
X0099642Y0174969D01*
X0099684Y0174945D01*
X0099728Y0174925D01*
X0099773Y0174908D01*
X0099820Y0174895D01*
X0099867Y0174886D01*
X0099916Y0174880D01*
X0099964Y0174878D01*
X0100992Y0174878D01*
X0098093Y0174878D02*
X0098045Y0174880D01*
X0097996Y0174886D01*
X0097949Y0174895D01*
X0097902Y0174908D01*
X0097857Y0174925D01*
X0097813Y0174945D01*
X0097771Y0174969D01*
X0097730Y0174996D01*
X0097692Y0175026D01*
X0097657Y0175059D01*
X0097624Y0175094D01*
X0097594Y0175132D01*
X0097567Y0175173D01*
X0097543Y0175215D01*
X0097523Y0175259D01*
X0097506Y0175304D01*
X0097493Y0175351D01*
X0097484Y0175398D01*
X0097478Y0175447D01*
X0097476Y0175495D01*
X0104542Y0174878D02*
X0105569Y0174878D01*
X0104542Y0174878D02*
X0104542Y0178578D01*
X0105569Y0178578D01*
X0105569Y0178579D02*
X0105631Y0178577D01*
X0105693Y0178572D01*
X0105754Y0178562D01*
X0105815Y0178549D01*
X0105875Y0178532D01*
X0105934Y0178512D01*
X0105991Y0178488D01*
X0106047Y0178461D01*
X0106101Y0178431D01*
X0106153Y0178397D01*
X0106203Y0178360D01*
X0106251Y0178320D01*
X0106296Y0178278D01*
X0106338Y0178233D01*
X0106378Y0178185D01*
X0106415Y0178135D01*
X0106449Y0178083D01*
X0106479Y0178029D01*
X0106506Y0177973D01*
X0106530Y0177916D01*
X0106550Y0177857D01*
X0106567Y0177797D01*
X0106580Y0177736D01*
X0106590Y0177675D01*
X0106595Y0177613D01*
X0106597Y0177551D01*
X0106597Y0175906D01*
X0106595Y0175844D01*
X0106590Y0175782D01*
X0106580Y0175721D01*
X0106567Y0175660D01*
X0106550Y0175600D01*
X0106530Y0175541D01*
X0106506Y0175484D01*
X0106479Y0175428D01*
X0106449Y0175374D01*
X0106415Y0175322D01*
X0106378Y0175272D01*
X0106338Y0175224D01*
X0106296Y0175179D01*
X0106251Y0175137D01*
X0106203Y0175097D01*
X0106153Y0175060D01*
X0106101Y0175026D01*
X0106047Y0174996D01*
X0105991Y0174969D01*
X0105934Y0174945D01*
X0105875Y0174925D01*
X0105815Y0174908D01*
X0105754Y0174895D01*
X0105693Y0174885D01*
X0105631Y0174880D01*
X0105569Y0174878D01*
X0108227Y0175495D02*
X0108227Y0176523D01*
X0108227Y0176112D02*
X0109872Y0176112D01*
X0109872Y0176523D01*
X0109871Y0176523D02*
X0109869Y0176579D01*
X0109863Y0176635D01*
X0109854Y0176690D01*
X0109841Y0176745D01*
X0109824Y0176798D01*
X0109803Y0176850D01*
X0109779Y0176901D01*
X0109751Y0176950D01*
X0109721Y0176997D01*
X0109687Y0177042D01*
X0109650Y0177084D01*
X0109610Y0177124D01*
X0109568Y0177161D01*
X0109523Y0177195D01*
X0109476Y0177225D01*
X0109427Y0177253D01*
X0109376Y0177277D01*
X0109324Y0177298D01*
X0109271Y0177315D01*
X0109216Y0177328D01*
X0109161Y0177337D01*
X0109105Y0177343D01*
X0109049Y0177345D01*
X0108993Y0177343D01*
X0108937Y0177337D01*
X0108882Y0177328D01*
X0108827Y0177315D01*
X0108774Y0177298D01*
X0108722Y0177277D01*
X0108671Y0177253D01*
X0108622Y0177225D01*
X0108575Y0177195D01*
X0108530Y0177161D01*
X0108488Y0177124D01*
X0108448Y0177084D01*
X0108411Y0177042D01*
X0108377Y0176997D01*
X0108347Y0176950D01*
X0108319Y0176901D01*
X0108295Y0176850D01*
X0108274Y0176798D01*
X0108257Y0176745D01*
X0108244Y0176690D01*
X0108235Y0176635D01*
X0108229Y0176579D01*
X0108227Y0176523D01*
X0108227Y0175495D02*
X0108229Y0175447D01*
X0108235Y0175398D01*
X0108244Y0175351D01*
X0108257Y0175304D01*
X0108274Y0175259D01*
X0108294Y0175215D01*
X0108318Y0175173D01*
X0108345Y0175132D01*
X0108375Y0175094D01*
X0108408Y0175059D01*
X0108443Y0175026D01*
X0108481Y0174996D01*
X0108522Y0174969D01*
X0108564Y0174945D01*
X0108608Y0174925D01*
X0108653Y0174908D01*
X0108700Y0174895D01*
X0108747Y0174886D01*
X0108796Y0174880D01*
X0108844Y0174878D01*
X0109872Y0174878D01*
X0111655Y0176317D02*
X0112683Y0175906D01*
X0112724Y0175887D01*
X0112763Y0175866D01*
X0112800Y0175841D01*
X0112835Y0175813D01*
X0112868Y0175782D01*
X0112898Y0175748D01*
X0112924Y0175713D01*
X0112948Y0175675D01*
X0112969Y0175635D01*
X0112986Y0175593D01*
X0112999Y0175551D01*
X0113009Y0175507D01*
X0113015Y0175463D01*
X0113018Y0175418D01*
X0113017Y0175373D01*
X0113012Y0175329D01*
X0113003Y0175285D01*
X0112990Y0175242D01*
X0112974Y0175200D01*
X0112955Y0175159D01*
X0112932Y0175121D01*
X0112906Y0175084D01*
X0112877Y0175050D01*
X0112845Y0175018D01*
X0112811Y0174989D01*
X0112775Y0174964D01*
X0112736Y0174941D01*
X0112696Y0174921D01*
X0112654Y0174905D01*
X0112611Y0174893D01*
X0112567Y0174884D01*
X0112522Y0174879D01*
X0112477Y0174878D01*
X0112786Y0177139D02*
X0112698Y0177177D01*
X0112609Y0177210D01*
X0112519Y0177240D01*
X0112427Y0177267D01*
X0112334Y0177289D01*
X0112241Y0177308D01*
X0112147Y0177323D01*
X0112052Y0177334D01*
X0111957Y0177341D01*
X0111861Y0177345D01*
X0111816Y0177344D01*
X0111771Y0177339D01*
X0111727Y0177330D01*
X0111684Y0177318D01*
X0111642Y0177302D01*
X0111602Y0177282D01*
X0111563Y0177259D01*
X0111527Y0177234D01*
X0111493Y0177205D01*
X0111461Y0177173D01*
X0111432Y0177139D01*
X0111406Y0177102D01*
X0111383Y0177064D01*
X0111364Y0177023D01*
X0111348Y0176981D01*
X0111335Y0176938D01*
X0111326Y0176894D01*
X0111321Y0176850D01*
X0111320Y0176805D01*
X0111323Y0176760D01*
X0111329Y0176716D01*
X0111339Y0176672D01*
X0111352Y0176630D01*
X0111369Y0176588D01*
X0111390Y0176548D01*
X0111414Y0176510D01*
X0111440Y0176475D01*
X0111470Y0176441D01*
X0111503Y0176410D01*
X0111538Y0176382D01*
X0111575Y0176357D01*
X0111614Y0176336D01*
X0111655Y0176317D01*
X0111347Y0175084D02*
X0111456Y0175047D01*
X0111566Y0175013D01*
X0111678Y0174983D01*
X0111790Y0174957D01*
X0111903Y0174934D01*
X0112017Y0174915D01*
X0112132Y0174900D01*
X0112247Y0174889D01*
X0112362Y0174882D01*
X0112477Y0174878D01*
X0114449Y0174878D02*
X0114449Y0177345D01*
X0114552Y0178373D02*
X0114347Y0178373D01*
X0114347Y0178578D01*
X0114552Y0178578D01*
X0114552Y0178373D01*
X0115889Y0176728D02*
X0115889Y0175495D01*
X0115891Y0175447D01*
X0115897Y0175398D01*
X0115906Y0175351D01*
X0115919Y0175304D01*
X0115936Y0175259D01*
X0115956Y0175215D01*
X0115980Y0175173D01*
X0116007Y0175132D01*
X0116037Y0175094D01*
X0116070Y0175059D01*
X0116105Y0175026D01*
X0116143Y0174996D01*
X0116184Y0174969D01*
X0116226Y0174945D01*
X0116270Y0174925D01*
X0116315Y0174908D01*
X0116362Y0174895D01*
X0116409Y0174886D01*
X0116458Y0174880D01*
X0116506Y0174878D01*
X0117534Y0174878D01*
X0117534Y0174262D02*
X0117534Y0177345D01*
X0116506Y0177345D01*
X0116458Y0177343D01*
X0116409Y0177337D01*
X0116362Y0177328D01*
X0116315Y0177315D01*
X0116270Y0177298D01*
X0116226Y0177278D01*
X0116184Y0177254D01*
X0116143Y0177227D01*
X0116105Y0177197D01*
X0116070Y0177164D01*
X0116037Y0177129D01*
X0116007Y0177091D01*
X0115980Y0177050D01*
X0115956Y0177008D01*
X0115936Y0176964D01*
X0115919Y0176919D01*
X0115906Y0176872D01*
X0115897Y0176825D01*
X0115891Y0176776D01*
X0115889Y0176728D01*
X0117534Y0174262D02*
X0117532Y0174214D01*
X0117526Y0174165D01*
X0117517Y0174118D01*
X0117504Y0174071D01*
X0117487Y0174026D01*
X0117467Y0173982D01*
X0117443Y0173940D01*
X0117416Y0173899D01*
X0117386Y0173861D01*
X0117353Y0173826D01*
X0117318Y0173793D01*
X0117280Y0173763D01*
X0117239Y0173736D01*
X0117197Y0173712D01*
X0117153Y0173692D01*
X0117108Y0173675D01*
X0117061Y0173662D01*
X0117014Y0173653D01*
X0116965Y0173647D01*
X0116917Y0173645D01*
X0116095Y0173645D01*
X0119267Y0174878D02*
X0119267Y0177345D01*
X0120295Y0177345D01*
X0120343Y0177343D01*
X0120392Y0177337D01*
X0120439Y0177328D01*
X0120486Y0177315D01*
X0120531Y0177298D01*
X0120575Y0177278D01*
X0120617Y0177254D01*
X0120658Y0177227D01*
X0120696Y0177197D01*
X0120731Y0177164D01*
X0120764Y0177129D01*
X0120794Y0177091D01*
X0120821Y0177050D01*
X0120845Y0177008D01*
X0120865Y0176964D01*
X0120882Y0176919D01*
X0120895Y0176872D01*
X0120904Y0176825D01*
X0120910Y0176776D01*
X0120912Y0176728D01*
X0120912Y0174878D01*
D11*
X0006250Y0052484D02*
X0006250Y0029256D01*
X0036171Y0029256D01*
X0036171Y0031815D01*
X0029872Y0031815D01*
X0029872Y0049925D02*
X0036171Y0049925D01*
X0036171Y0052484D01*
X0006250Y0052484D01*
X0012431Y0057524D02*
X0012431Y0085319D01*
X0060069Y0085319D01*
X0060069Y0057524D01*
X0012431Y0057524D01*
X0063250Y0056500D02*
X0066250Y0056500D01*
X0066250Y0055500D01*
X0066250Y0056500D02*
X0069250Y0056500D01*
X0069250Y0076500D01*
X0066250Y0076500D01*
X0066250Y0077500D01*
X0066250Y0076500D02*
X0063250Y0076500D01*
X0063250Y0056500D01*
X0063750Y0074000D02*
X0068750Y0074000D01*
X0103356Y0035063D02*
X0103356Y0017937D01*
X0149144Y0017937D01*
X0149144Y0035063D01*
X0103356Y0035063D01*
X0161368Y0031815D02*
X0161368Y0029256D01*
X0191289Y0029256D01*
X0191289Y0052484D01*
X0161368Y0052484D01*
X0161368Y0049925D01*
X0167667Y0049925D01*
X0167667Y0031815D02*
X0161368Y0031815D01*
D12*
X0183950Y0071600D02*
X0183950Y0072211D01*
X0183950Y0071600D02*
X0186150Y0071600D01*
X0185172Y0071600D02*
X0185172Y0072211D01*
X0185172Y0072333D02*
X0186150Y0072822D01*
X0186150Y0073746D02*
X0184928Y0074785D01*
X0183950Y0074418D02*
X0183952Y0074366D01*
X0183958Y0074314D01*
X0183967Y0074262D01*
X0183981Y0074212D01*
X0183998Y0074162D01*
X0184019Y0074114D01*
X0184043Y0074068D01*
X0184070Y0074024D01*
X0184101Y0073981D01*
X0184135Y0073941D01*
X0184171Y0073904D01*
X0184211Y0073870D01*
X0184253Y0073838D01*
X0184296Y0073810D01*
X0184342Y0073785D01*
X0184390Y0073763D01*
X0184439Y0073745D01*
X0184928Y0074785D02*
X0184894Y0074818D01*
X0184857Y0074848D01*
X0184817Y0074876D01*
X0184776Y0074900D01*
X0184733Y0074920D01*
X0184688Y0074937D01*
X0184642Y0074951D01*
X0184595Y0074960D01*
X0184548Y0074966D01*
X0184500Y0074968D01*
X0184455Y0074966D01*
X0184409Y0074960D01*
X0184365Y0074951D01*
X0184321Y0074938D01*
X0184279Y0074922D01*
X0184238Y0074902D01*
X0184199Y0074878D01*
X0184162Y0074852D01*
X0184127Y0074823D01*
X0184095Y0074791D01*
X0184066Y0074756D01*
X0184040Y0074719D01*
X0184016Y0074680D01*
X0183996Y0074639D01*
X0183980Y0074597D01*
X0183967Y0074553D01*
X0183958Y0074509D01*
X0183952Y0074463D01*
X0183950Y0074418D01*
X0186150Y0074968D02*
X0186150Y0073746D01*
X0185172Y0072211D02*
X0185170Y0072259D01*
X0185164Y0072307D01*
X0185155Y0072354D01*
X0185142Y0072400D01*
X0185125Y0072445D01*
X0185105Y0072488D01*
X0185082Y0072530D01*
X0185055Y0072570D01*
X0185026Y0072608D01*
X0184993Y0072643D01*
X0184958Y0072676D01*
X0184920Y0072705D01*
X0184880Y0072732D01*
X0184838Y0072755D01*
X0184795Y0072775D01*
X0184750Y0072792D01*
X0184704Y0072805D01*
X0184657Y0072814D01*
X0184609Y0072820D01*
X0184561Y0072822D01*
X0184513Y0072820D01*
X0184465Y0072814D01*
X0184418Y0072805D01*
X0184372Y0072792D01*
X0184327Y0072775D01*
X0184284Y0072755D01*
X0184242Y0072732D01*
X0184202Y0072705D01*
X0184164Y0072676D01*
X0184129Y0072643D01*
X0184096Y0072608D01*
X0184067Y0072570D01*
X0184040Y0072530D01*
X0184017Y0072488D01*
X0183997Y0072445D01*
X0183980Y0072400D01*
X0183967Y0072354D01*
X0183958Y0072307D01*
X0183952Y0072259D01*
X0183950Y0072211D01*
X0076150Y0039838D02*
X0076150Y0038616D01*
X0076150Y0039227D02*
X0073950Y0039227D01*
X0074439Y0038616D01*
X0073950Y0037822D02*
X0073950Y0036600D01*
X0073950Y0037211D02*
X0076150Y0037211D01*
X0061150Y0046600D02*
X0061150Y0047211D01*
X0061150Y0046600D02*
X0058950Y0046600D01*
X0058950Y0047211D01*
X0058952Y0047259D01*
X0058958Y0047307D01*
X0058967Y0047354D01*
X0058980Y0047400D01*
X0058997Y0047445D01*
X0059017Y0047488D01*
X0059040Y0047530D01*
X0059067Y0047570D01*
X0059096Y0047608D01*
X0059129Y0047643D01*
X0059164Y0047676D01*
X0059202Y0047705D01*
X0059242Y0047732D01*
X0059284Y0047755D01*
X0059327Y0047775D01*
X0059372Y0047792D01*
X0059418Y0047805D01*
X0059465Y0047814D01*
X0059513Y0047820D01*
X0059561Y0047822D01*
X0060539Y0047822D01*
X0060587Y0047820D01*
X0060635Y0047814D01*
X0060682Y0047805D01*
X0060728Y0047792D01*
X0060773Y0047775D01*
X0060816Y0047755D01*
X0060858Y0047732D01*
X0060898Y0047705D01*
X0060936Y0047676D01*
X0060971Y0047643D01*
X0061004Y0047608D01*
X0061033Y0047570D01*
X0061060Y0047530D01*
X0061083Y0047488D01*
X0061103Y0047445D01*
X0061120Y0047400D01*
X0061133Y0047354D01*
X0061142Y0047307D01*
X0061148Y0047259D01*
X0061150Y0047211D01*
X0061150Y0048832D02*
X0061150Y0050054D01*
X0061150Y0049443D02*
X0058950Y0049443D01*
X0059439Y0048832D01*
X0046150Y0029629D02*
X0046150Y0028406D01*
X0046150Y0029017D02*
X0043950Y0029017D01*
X0044439Y0028406D01*
X0043950Y0027578D02*
X0043950Y0027089D01*
X0043952Y0027046D01*
X0043957Y0027004D01*
X0043967Y0026962D01*
X0043979Y0026922D01*
X0043996Y0026882D01*
X0044016Y0026844D01*
X0044038Y0026809D01*
X0044064Y0026775D01*
X0044093Y0026743D01*
X0044125Y0026714D01*
X0044159Y0026688D01*
X0044195Y0026666D01*
X0044232Y0026646D01*
X0044272Y0026629D01*
X0044312Y0026617D01*
X0044354Y0026607D01*
X0044396Y0026602D01*
X0044439Y0026600D01*
X0045661Y0026600D01*
X0045704Y0026602D01*
X0045746Y0026607D01*
X0045788Y0026617D01*
X0045828Y0026629D01*
X0045868Y0026646D01*
X0045906Y0026666D01*
X0045941Y0026688D01*
X0045975Y0026714D01*
X0046007Y0026743D01*
X0046036Y0026775D01*
X0046062Y0026809D01*
X0046084Y0026845D01*
X0046104Y0026882D01*
X0046121Y0026922D01*
X0046133Y0026962D01*
X0046143Y0027004D01*
X0046148Y0027046D01*
X0046150Y0027089D01*
X0046150Y0027578D01*
X0058950Y0024357D02*
X0061150Y0024357D01*
X0061150Y0023746D02*
X0061150Y0024968D01*
X0059439Y0023746D02*
X0058950Y0024357D01*
X0058950Y0022211D02*
X0058950Y0021600D01*
X0061150Y0021600D01*
X0060172Y0021600D02*
X0060172Y0022211D01*
X0060172Y0022333D02*
X0061150Y0022822D01*
X0060172Y0022211D02*
X0060170Y0022259D01*
X0060164Y0022307D01*
X0060155Y0022354D01*
X0060142Y0022400D01*
X0060125Y0022445D01*
X0060105Y0022488D01*
X0060082Y0022530D01*
X0060055Y0022570D01*
X0060026Y0022608D01*
X0059993Y0022643D01*
X0059958Y0022676D01*
X0059920Y0022705D01*
X0059880Y0022732D01*
X0059838Y0022755D01*
X0059795Y0022775D01*
X0059750Y0022792D01*
X0059704Y0022805D01*
X0059657Y0022814D01*
X0059609Y0022820D01*
X0059561Y0022822D01*
X0059513Y0022820D01*
X0059465Y0022814D01*
X0059418Y0022805D01*
X0059372Y0022792D01*
X0059327Y0022775D01*
X0059284Y0022755D01*
X0059242Y0022732D01*
X0059202Y0022705D01*
X0059164Y0022676D01*
X0059129Y0022643D01*
X0059096Y0022608D01*
X0059067Y0022570D01*
X0059040Y0022530D01*
X0059017Y0022488D01*
X0058997Y0022445D01*
X0058980Y0022400D01*
X0058967Y0022354D01*
X0058958Y0022307D01*
X0058952Y0022259D01*
X0058950Y0022211D01*
X0025011Y0071600D02*
X0025011Y0072761D01*
X0025744Y0073800D01*
X0025011Y0072761D02*
X0024277Y0073800D01*
X0022851Y0073800D02*
X0022118Y0071600D01*
X0022301Y0072150D02*
X0023401Y0072150D01*
X0023584Y0071600D02*
X0022851Y0073800D01*
X0020444Y0073800D02*
X0020444Y0071600D01*
X0021422Y0071600D01*
X0019550Y0071600D02*
X0018572Y0071600D01*
X0018572Y0073800D01*
X0019550Y0073800D01*
X0019305Y0072822D02*
X0018572Y0072822D01*
X0017083Y0072578D02*
X0017572Y0071600D01*
X0016961Y0072578D02*
X0016350Y0072578D01*
X0016961Y0072578D02*
X0017009Y0072580D01*
X0017057Y0072586D01*
X0017104Y0072595D01*
X0017150Y0072608D01*
X0017195Y0072625D01*
X0017238Y0072645D01*
X0017280Y0072668D01*
X0017320Y0072695D01*
X0017358Y0072724D01*
X0017393Y0072757D01*
X0017426Y0072792D01*
X0017455Y0072830D01*
X0017482Y0072870D01*
X0017505Y0072912D01*
X0017525Y0072955D01*
X0017542Y0073000D01*
X0017555Y0073046D01*
X0017564Y0073093D01*
X0017570Y0073141D01*
X0017572Y0073189D01*
X0017570Y0073237D01*
X0017564Y0073285D01*
X0017555Y0073332D01*
X0017542Y0073378D01*
X0017525Y0073423D01*
X0017505Y0073466D01*
X0017482Y0073508D01*
X0017455Y0073548D01*
X0017426Y0073586D01*
X0017393Y0073621D01*
X0017358Y0073654D01*
X0017320Y0073683D01*
X0017280Y0073710D01*
X0017238Y0073733D01*
X0017195Y0073753D01*
X0017150Y0073770D01*
X0017104Y0073783D01*
X0017057Y0073792D01*
X0017009Y0073798D01*
X0016961Y0073800D01*
X0016350Y0073800D01*
X0016350Y0071600D01*
D13*
X0045250Y0050000D02*
X0045250Y0033000D01*
X0045252Y0032940D01*
X0045257Y0032879D01*
X0045266Y0032820D01*
X0045279Y0032761D01*
X0045295Y0032702D01*
X0045315Y0032645D01*
X0045338Y0032590D01*
X0045365Y0032535D01*
X0045394Y0032483D01*
X0045427Y0032432D01*
X0045463Y0032383D01*
X0045501Y0032337D01*
X0045543Y0032293D01*
X0045587Y0032251D01*
X0045633Y0032213D01*
X0045682Y0032177D01*
X0045733Y0032144D01*
X0045785Y0032115D01*
X0045840Y0032088D01*
X0045895Y0032065D01*
X0045952Y0032045D01*
X0046011Y0032029D01*
X0046070Y0032016D01*
X0046129Y0032007D01*
X0046190Y0032002D01*
X0046250Y0032000D01*
X0056250Y0032000D01*
X0056310Y0032002D01*
X0056371Y0032007D01*
X0056430Y0032016D01*
X0056489Y0032029D01*
X0056548Y0032045D01*
X0056605Y0032065D01*
X0056660Y0032088D01*
X0056715Y0032115D01*
X0056767Y0032144D01*
X0056818Y0032177D01*
X0056867Y0032213D01*
X0056913Y0032251D01*
X0056957Y0032293D01*
X0056999Y0032337D01*
X0057037Y0032383D01*
X0057073Y0032432D01*
X0057106Y0032483D01*
X0057135Y0032535D01*
X0057162Y0032590D01*
X0057185Y0032645D01*
X0057205Y0032702D01*
X0057221Y0032761D01*
X0057234Y0032820D01*
X0057243Y0032879D01*
X0057248Y0032940D01*
X0057250Y0033000D01*
X0057250Y0050000D01*
X0057248Y0050060D01*
X0057243Y0050121D01*
X0057234Y0050180D01*
X0057221Y0050239D01*
X0057205Y0050298D01*
X0057185Y0050355D01*
X0057162Y0050410D01*
X0057135Y0050465D01*
X0057106Y0050517D01*
X0057073Y0050568D01*
X0057037Y0050617D01*
X0056999Y0050663D01*
X0056957Y0050707D01*
X0056913Y0050749D01*
X0056867Y0050787D01*
X0056818Y0050823D01*
X0056767Y0050856D01*
X0056715Y0050885D01*
X0056660Y0050912D01*
X0056605Y0050935D01*
X0056548Y0050955D01*
X0056489Y0050971D01*
X0056430Y0050984D01*
X0056371Y0050993D01*
X0056310Y0050998D01*
X0056250Y0051000D01*
X0046250Y0051000D01*
X0046190Y0050998D01*
X0046129Y0050993D01*
X0046070Y0050984D01*
X0046011Y0050971D01*
X0045952Y0050955D01*
X0045895Y0050935D01*
X0045840Y0050912D01*
X0045785Y0050885D01*
X0045733Y0050856D01*
X0045682Y0050823D01*
X0045633Y0050787D01*
X0045587Y0050749D01*
X0045543Y0050707D01*
X0045501Y0050663D01*
X0045463Y0050617D01*
X0045427Y0050568D01*
X0045394Y0050517D01*
X0045365Y0050465D01*
X0045338Y0050410D01*
X0045315Y0050355D01*
X0045295Y0050298D01*
X0045279Y0050239D01*
X0045266Y0050180D01*
X0045257Y0050121D01*
X0045252Y0050060D01*
X0045250Y0050000D01*
X0051250Y0043000D02*
X0051250Y0042500D01*
X0051250Y0040500D02*
X0051250Y0040000D01*
X0062750Y0037500D02*
X0062750Y0036500D01*
X0063250Y0036000D01*
X0063250Y0027000D01*
X0062750Y0026500D01*
X0062750Y0025500D01*
X0062752Y0025440D01*
X0062757Y0025379D01*
X0062766Y0025320D01*
X0062779Y0025261D01*
X0062795Y0025202D01*
X0062815Y0025145D01*
X0062838Y0025090D01*
X0062865Y0025035D01*
X0062894Y0024983D01*
X0062927Y0024932D01*
X0062963Y0024883D01*
X0063001Y0024837D01*
X0063043Y0024793D01*
X0063087Y0024751D01*
X0063133Y0024713D01*
X0063182Y0024677D01*
X0063233Y0024644D01*
X0063285Y0024615D01*
X0063340Y0024588D01*
X0063395Y0024565D01*
X0063452Y0024545D01*
X0063511Y0024529D01*
X0063570Y0024516D01*
X0063629Y0024507D01*
X0063690Y0024502D01*
X0063750Y0024500D01*
X0068750Y0024500D02*
X0068810Y0024502D01*
X0068871Y0024507D01*
X0068930Y0024516D01*
X0068989Y0024529D01*
X0069048Y0024545D01*
X0069105Y0024565D01*
X0069160Y0024588D01*
X0069215Y0024615D01*
X0069267Y0024644D01*
X0069318Y0024677D01*
X0069367Y0024713D01*
X0069413Y0024751D01*
X0069457Y0024793D01*
X0069499Y0024837D01*
X0069537Y0024883D01*
X0069573Y0024932D01*
X0069606Y0024983D01*
X0069635Y0025035D01*
X0069662Y0025090D01*
X0069685Y0025145D01*
X0069705Y0025202D01*
X0069721Y0025261D01*
X0069734Y0025320D01*
X0069743Y0025379D01*
X0069748Y0025440D01*
X0069750Y0025500D01*
X0069750Y0026500D01*
X0069250Y0027000D01*
X0069250Y0036000D01*
X0069750Y0036500D01*
X0069750Y0037500D01*
X0069748Y0037560D01*
X0069743Y0037621D01*
X0069734Y0037680D01*
X0069721Y0037739D01*
X0069705Y0037798D01*
X0069685Y0037855D01*
X0069662Y0037910D01*
X0069635Y0037965D01*
X0069606Y0038017D01*
X0069573Y0038068D01*
X0069537Y0038117D01*
X0069499Y0038163D01*
X0069457Y0038207D01*
X0069413Y0038249D01*
X0069367Y0038287D01*
X0069318Y0038323D01*
X0069267Y0038356D01*
X0069215Y0038385D01*
X0069160Y0038412D01*
X0069105Y0038435D01*
X0069048Y0038455D01*
X0068989Y0038471D01*
X0068930Y0038484D01*
X0068871Y0038493D01*
X0068810Y0038498D01*
X0068750Y0038500D01*
X0063750Y0038500D02*
X0063690Y0038498D01*
X0063629Y0038493D01*
X0063570Y0038484D01*
X0063511Y0038471D01*
X0063452Y0038455D01*
X0063395Y0038435D01*
X0063340Y0038412D01*
X0063285Y0038385D01*
X0063233Y0038356D01*
X0063182Y0038323D01*
X0063133Y0038287D01*
X0063087Y0038249D01*
X0063043Y0038207D01*
X0063001Y0038163D01*
X0062963Y0038117D01*
X0062927Y0038068D01*
X0062894Y0038017D01*
X0062865Y0037965D01*
X0062838Y0037910D01*
X0062815Y0037855D01*
X0062795Y0037798D01*
X0062779Y0037739D01*
X0062766Y0037680D01*
X0062757Y0037621D01*
X0062752Y0037560D01*
X0062750Y0037500D01*
X0073250Y0046500D02*
X0109250Y0046500D01*
X0109337Y0046502D01*
X0109424Y0046508D01*
X0109511Y0046517D01*
X0109597Y0046530D01*
X0109683Y0046547D01*
X0109768Y0046568D01*
X0109851Y0046593D01*
X0109934Y0046621D01*
X0110015Y0046652D01*
X0110095Y0046687D01*
X0110173Y0046726D01*
X0110250Y0046768D01*
X0110325Y0046813D01*
X0110397Y0046862D01*
X0110468Y0046913D01*
X0110536Y0046968D01*
X0110601Y0047025D01*
X0110664Y0047086D01*
X0110725Y0047149D01*
X0110782Y0047214D01*
X0110837Y0047282D01*
X0110888Y0047353D01*
X0110937Y0047425D01*
X0110982Y0047500D01*
X0111024Y0047577D01*
X0111063Y0047655D01*
X0111098Y0047735D01*
X0111129Y0047816D01*
X0111157Y0047899D01*
X0111182Y0047982D01*
X0111203Y0048067D01*
X0111220Y0048153D01*
X0111233Y0048239D01*
X0111242Y0048326D01*
X0111248Y0048413D01*
X0111250Y0048500D01*
X0111250Y0084500D01*
X0111248Y0084587D01*
X0111242Y0084674D01*
X0111233Y0084761D01*
X0111220Y0084847D01*
X0111203Y0084933D01*
X0111182Y0085018D01*
X0111157Y0085101D01*
X0111129Y0085184D01*
X0111098Y0085265D01*
X0111063Y0085345D01*
X0111024Y0085423D01*
X0110982Y0085500D01*
X0110937Y0085575D01*
X0110888Y0085647D01*
X0110837Y0085718D01*
X0110782Y0085786D01*
X0110725Y0085851D01*
X0110664Y0085914D01*
X0110601Y0085975D01*
X0110536Y0086032D01*
X0110468Y0086087D01*
X0110397Y0086138D01*
X0110325Y0086187D01*
X0110250Y0086232D01*
X0110173Y0086274D01*
X0110095Y0086313D01*
X0110015Y0086348D01*
X0109934Y0086379D01*
X0109851Y0086407D01*
X0109768Y0086432D01*
X0109683Y0086453D01*
X0109597Y0086470D01*
X0109511Y0086483D01*
X0109424Y0086492D01*
X0109337Y0086498D01*
X0109250Y0086500D01*
X0077250Y0086500D01*
X0071250Y0080500D01*
X0071250Y0048500D01*
X0071252Y0048413D01*
X0071258Y0048326D01*
X0071267Y0048239D01*
X0071280Y0048153D01*
X0071297Y0048067D01*
X0071318Y0047982D01*
X0071343Y0047899D01*
X0071371Y0047816D01*
X0071402Y0047735D01*
X0071437Y0047655D01*
X0071476Y0047577D01*
X0071518Y0047500D01*
X0071563Y0047425D01*
X0071612Y0047353D01*
X0071663Y0047282D01*
X0071718Y0047214D01*
X0071775Y0047149D01*
X0071836Y0047086D01*
X0071899Y0047025D01*
X0071964Y0046968D01*
X0072032Y0046913D01*
X0072103Y0046862D01*
X0072175Y0046813D01*
X0072250Y0046768D01*
X0072327Y0046726D01*
X0072405Y0046687D01*
X0072485Y0046652D01*
X0072566Y0046621D01*
X0072649Y0046593D01*
X0072732Y0046568D01*
X0072817Y0046547D01*
X0072903Y0046530D01*
X0072989Y0046517D01*
X0073076Y0046508D01*
X0073163Y0046502D01*
X0073250Y0046500D01*
X0081450Y0056700D02*
X0081250Y0058500D01*
X0082050Y0059300D01*
X0083250Y0060500D01*
X0082050Y0059300D02*
X0084050Y0057300D01*
X0083250Y0056500D01*
X0081450Y0056700D01*
X0084050Y0057300D02*
X0085250Y0058500D01*
X0086450Y0057100D02*
X0088250Y0056900D01*
X0086450Y0057100D02*
X0085250Y0056300D01*
X0084650Y0055300D01*
X0084850Y0054100D01*
X0086050Y0053500D01*
X0087050Y0053700D01*
X0087450Y0054500D01*
X0087050Y0055500D01*
X0085250Y0056300D01*
X0087650Y0058700D02*
X0088250Y0060000D01*
X0086150Y0061400D02*
X0085150Y0060400D01*
X0083150Y0063200D02*
X0084750Y0063900D01*
X0082250Y0061900D02*
X0081450Y0063900D01*
X0080750Y0064000D01*
X0080050Y0063700D01*
X0079650Y0062900D01*
X0080450Y0061100D01*
X0078850Y0060300D01*
X0078050Y0062100D01*
X0078250Y0062700D01*
X0079050Y0063100D01*
X0079650Y0062900D01*
X0080450Y0061100D02*
X0082250Y0061900D01*
X0082550Y0066500D02*
X0084050Y0066500D01*
X0084650Y0069300D02*
X0083350Y0069800D01*
X0082350Y0071100D02*
X0081650Y0069500D01*
X0078050Y0071100D01*
X0078850Y0072800D01*
X0079550Y0073100D01*
X0082050Y0071900D01*
X0082350Y0071100D01*
X0083350Y0072700D02*
X0081950Y0074100D01*
X0080550Y0075500D01*
X0082250Y0077200D01*
X0082850Y0075000D02*
X0081950Y0074100D01*
X0083350Y0072700D02*
X0084950Y0074200D01*
X0085150Y0072600D02*
X0086150Y0071600D01*
X0088450Y0073100D02*
X0087850Y0074500D01*
X0086550Y0075300D02*
X0085750Y0077000D01*
X0087150Y0077600D01*
X0085750Y0077000D02*
X0084950Y0078700D01*
X0086850Y0079600D01*
X0090050Y0079700D02*
X0090050Y0077300D01*
X0090650Y0076600D01*
X0091850Y0076600D01*
X0092450Y0077300D01*
X0092450Y0079700D01*
X0091850Y0080300D01*
X0090650Y0080300D01*
X0090050Y0079700D01*
X0091250Y0075200D02*
X0091250Y0073700D01*
X0094250Y0073000D02*
X0094850Y0074300D01*
X0095450Y0075600D02*
X0096950Y0078900D01*
X0095750Y0078700D01*
X0094850Y0075800D02*
X0095950Y0075300D01*
X0097650Y0074300D02*
X0101050Y0074100D01*
X0101650Y0074600D01*
X0101650Y0075500D01*
X0100650Y0076600D01*
X0099550Y0076600D01*
X0097650Y0074300D02*
X0099250Y0072600D01*
X0100450Y0071900D02*
X0100050Y0071200D01*
X0100750Y0069500D01*
X0101650Y0069300D01*
X0102450Y0069700D01*
X0102650Y0070200D01*
X0103250Y0070100D01*
X0104050Y0070500D01*
X0104350Y0071000D01*
X0103650Y0072700D01*
X0102650Y0072900D01*
X0102350Y0071000D02*
X0102650Y0070200D01*
X0103150Y0067700D02*
X0103150Y0065300D01*
X0101350Y0065900D02*
X0105050Y0065900D01*
X0103150Y0067700D01*
X0099850Y0066500D02*
X0098350Y0066500D01*
X0097750Y0069300D02*
X0099250Y0069900D01*
X0097350Y0072500D02*
X0096350Y0071500D01*
X0084150Y0066500D02*
X0084152Y0066674D01*
X0084159Y0066848D01*
X0084169Y0067022D01*
X0084184Y0067196D01*
X0084203Y0067369D01*
X0084227Y0067542D01*
X0084255Y0067714D01*
X0084286Y0067885D01*
X0084323Y0068056D01*
X0084363Y0068225D01*
X0084407Y0068394D01*
X0084456Y0068561D01*
X0084508Y0068727D01*
X0084565Y0068892D01*
X0084626Y0069055D01*
X0084690Y0069217D01*
X0084759Y0069377D01*
X0084832Y0069536D01*
X0084908Y0069692D01*
X0084988Y0069847D01*
X0085072Y0070000D01*
X0085160Y0070150D01*
X0085252Y0070298D01*
X0085347Y0070445D01*
X0085445Y0070588D01*
X0085547Y0070729D01*
X0085653Y0070868D01*
X0085762Y0071004D01*
X0085874Y0071138D01*
X0085989Y0071268D01*
X0086108Y0071396D01*
X0086230Y0071520D01*
X0086354Y0071642D01*
X0086482Y0071761D01*
X0086612Y0071876D01*
X0086746Y0071988D01*
X0086882Y0072097D01*
X0087021Y0072203D01*
X0087162Y0072305D01*
X0087305Y0072403D01*
X0087452Y0072498D01*
X0087600Y0072590D01*
X0087750Y0072678D01*
X0087903Y0072762D01*
X0088058Y0072842D01*
X0088214Y0072918D01*
X0088373Y0072991D01*
X0088533Y0073060D01*
X0088695Y0073124D01*
X0088858Y0073185D01*
X0089023Y0073242D01*
X0089189Y0073294D01*
X0089356Y0073343D01*
X0089525Y0073387D01*
X0089694Y0073427D01*
X0089865Y0073464D01*
X0090036Y0073495D01*
X0090208Y0073523D01*
X0090381Y0073547D01*
X0090554Y0073566D01*
X0090728Y0073581D01*
X0090902Y0073591D01*
X0091076Y0073598D01*
X0091250Y0073600D01*
X0091424Y0073598D01*
X0091598Y0073591D01*
X0091772Y0073581D01*
X0091946Y0073566D01*
X0092119Y0073547D01*
X0092292Y0073523D01*
X0092464Y0073495D01*
X0092635Y0073464D01*
X0092806Y0073427D01*
X0092975Y0073387D01*
X0093144Y0073343D01*
X0093311Y0073294D01*
X0093477Y0073242D01*
X0093642Y0073185D01*
X0093805Y0073124D01*
X0093967Y0073060D01*
X0094127Y0072991D01*
X0094286Y0072918D01*
X0094442Y0072842D01*
X0094597Y0072762D01*
X0094750Y0072678D01*
X0094900Y0072590D01*
X0095048Y0072498D01*
X0095195Y0072403D01*
X0095338Y0072305D01*
X0095479Y0072203D01*
X0095618Y0072097D01*
X0095754Y0071988D01*
X0095888Y0071876D01*
X0096018Y0071761D01*
X0096146Y0071642D01*
X0096270Y0071520D01*
X0096392Y0071396D01*
X0096511Y0071268D01*
X0096626Y0071138D01*
X0096738Y0071004D01*
X0096847Y0070868D01*
X0096953Y0070729D01*
X0097055Y0070588D01*
X0097153Y0070445D01*
X0097248Y0070298D01*
X0097340Y0070150D01*
X0097428Y0070000D01*
X0097512Y0069847D01*
X0097592Y0069692D01*
X0097668Y0069536D01*
X0097741Y0069377D01*
X0097810Y0069217D01*
X0097874Y0069055D01*
X0097935Y0068892D01*
X0097992Y0068727D01*
X0098044Y0068561D01*
X0098093Y0068394D01*
X0098137Y0068225D01*
X0098177Y0068056D01*
X0098214Y0067885D01*
X0098245Y0067714D01*
X0098273Y0067542D01*
X0098297Y0067369D01*
X0098316Y0067196D01*
X0098331Y0067022D01*
X0098341Y0066848D01*
X0098348Y0066674D01*
X0098350Y0066500D01*
X0098348Y0066326D01*
X0098341Y0066152D01*
X0098331Y0065978D01*
X0098316Y0065804D01*
X0098297Y0065631D01*
X0098273Y0065458D01*
X0098245Y0065286D01*
X0098214Y0065115D01*
X0098177Y0064944D01*
X0098137Y0064775D01*
X0098093Y0064606D01*
X0098044Y0064439D01*
X0097992Y0064273D01*
X0097935Y0064108D01*
X0097874Y0063945D01*
X0097810Y0063783D01*
X0097741Y0063623D01*
X0097668Y0063464D01*
X0097592Y0063308D01*
X0097512Y0063153D01*
X0097428Y0063000D01*
X0097340Y0062850D01*
X0097248Y0062702D01*
X0097153Y0062555D01*
X0097055Y0062412D01*
X0096953Y0062271D01*
X0096847Y0062132D01*
X0096738Y0061996D01*
X0096626Y0061862D01*
X0096511Y0061732D01*
X0096392Y0061604D01*
X0096270Y0061480D01*
X0096146Y0061358D01*
X0096018Y0061239D01*
X0095888Y0061124D01*
X0095754Y0061012D01*
X0095618Y0060903D01*
X0095479Y0060797D01*
X0095338Y0060695D01*
X0095195Y0060597D01*
X0095048Y0060502D01*
X0094900Y0060410D01*
X0094750Y0060322D01*
X0094597Y0060238D01*
X0094442Y0060158D01*
X0094286Y0060082D01*
X0094127Y0060009D01*
X0093967Y0059940D01*
X0093805Y0059876D01*
X0093642Y0059815D01*
X0093477Y0059758D01*
X0093311Y0059706D01*
X0093144Y0059657D01*
X0092975Y0059613D01*
X0092806Y0059573D01*
X0092635Y0059536D01*
X0092464Y0059505D01*
X0092292Y0059477D01*
X0092119Y0059453D01*
X0091946Y0059434D01*
X0091772Y0059419D01*
X0091598Y0059409D01*
X0091424Y0059402D01*
X0091250Y0059400D01*
X0091076Y0059402D01*
X0090902Y0059409D01*
X0090728Y0059419D01*
X0090554Y0059434D01*
X0090381Y0059453D01*
X0090208Y0059477D01*
X0090036Y0059505D01*
X0089865Y0059536D01*
X0089694Y0059573D01*
X0089525Y0059613D01*
X0089356Y0059657D01*
X0089189Y0059706D01*
X0089023Y0059758D01*
X0088858Y0059815D01*
X0088695Y0059876D01*
X0088533Y0059940D01*
X0088373Y0060009D01*
X0088214Y0060082D01*
X0088058Y0060158D01*
X0087903Y0060238D01*
X0087750Y0060322D01*
X0087600Y0060410D01*
X0087452Y0060502D01*
X0087305Y0060597D01*
X0087162Y0060695D01*
X0087021Y0060797D01*
X0086882Y0060903D01*
X0086746Y0061012D01*
X0086612Y0061124D01*
X0086482Y0061239D01*
X0086354Y0061358D01*
X0086230Y0061480D01*
X0086108Y0061604D01*
X0085989Y0061732D01*
X0085874Y0061862D01*
X0085762Y0061996D01*
X0085653Y0062132D01*
X0085547Y0062271D01*
X0085445Y0062412D01*
X0085347Y0062555D01*
X0085252Y0062702D01*
X0085160Y0062850D01*
X0085072Y0063000D01*
X0084988Y0063153D01*
X0084908Y0063308D01*
X0084832Y0063464D01*
X0084759Y0063623D01*
X0084690Y0063783D01*
X0084626Y0063945D01*
X0084565Y0064108D01*
X0084508Y0064273D01*
X0084456Y0064439D01*
X0084407Y0064606D01*
X0084363Y0064775D01*
X0084323Y0064944D01*
X0084286Y0065115D01*
X0084255Y0065286D01*
X0084227Y0065458D01*
X0084203Y0065631D01*
X0084184Y0065804D01*
X0084169Y0065978D01*
X0084159Y0066152D01*
X0084152Y0066326D01*
X0084150Y0066500D01*
X0091250Y0059400D02*
X0091250Y0057900D01*
X0091750Y0056400D02*
X0090550Y0056400D01*
X0089950Y0055800D01*
X0089950Y0055200D01*
X0090550Y0054600D01*
X0091750Y0054600D01*
X0092350Y0055200D01*
X0092350Y0055800D01*
X0091750Y0056400D01*
X0091750Y0054600D02*
X0092350Y0054000D01*
X0092350Y0053400D01*
X0091750Y0052700D01*
X0090550Y0052700D01*
X0089950Y0053400D01*
X0089950Y0054000D01*
X0090550Y0054600D01*
X0094450Y0058300D02*
X0093850Y0059800D01*
X0095650Y0057500D02*
X0095850Y0056900D01*
X0095050Y0053900D01*
X0095250Y0053300D01*
X0097450Y0054300D01*
X0100050Y0055700D02*
X0100850Y0057100D01*
X0100450Y0058900D01*
X0099650Y0059700D01*
X0098650Y0059700D01*
X0097650Y0058700D01*
X0097650Y0057700D01*
X0098050Y0057300D01*
X0099050Y0057300D01*
X0100450Y0058900D01*
X0101550Y0060700D02*
X0100550Y0061200D01*
X0100250Y0062000D01*
X0100750Y0063000D01*
X0101550Y0063300D01*
X0102650Y0062800D02*
X0102750Y0061900D01*
X0102350Y0061000D01*
X0101550Y0060700D01*
X0103250Y0059800D02*
X0104250Y0062000D01*
X0102650Y0062800D01*
X0099250Y0063000D02*
X0097750Y0063600D01*
X0096250Y0061500D02*
X0097250Y0060500D01*
X0116250Y0048500D02*
X0116250Y0080500D01*
X0122250Y0086500D01*
X0154250Y0086500D01*
X0154337Y0086498D01*
X0154424Y0086492D01*
X0154511Y0086483D01*
X0154597Y0086470D01*
X0154683Y0086453D01*
X0154768Y0086432D01*
X0154851Y0086407D01*
X0154934Y0086379D01*
X0155015Y0086348D01*
X0155095Y0086313D01*
X0155173Y0086274D01*
X0155250Y0086232D01*
X0155325Y0086187D01*
X0155397Y0086138D01*
X0155468Y0086087D01*
X0155536Y0086032D01*
X0155601Y0085975D01*
X0155664Y0085914D01*
X0155725Y0085851D01*
X0155782Y0085786D01*
X0155837Y0085718D01*
X0155888Y0085647D01*
X0155937Y0085575D01*
X0155982Y0085500D01*
X0156024Y0085423D01*
X0156063Y0085345D01*
X0156098Y0085265D01*
X0156129Y0085184D01*
X0156157Y0085101D01*
X0156182Y0085018D01*
X0156203Y0084933D01*
X0156220Y0084847D01*
X0156233Y0084761D01*
X0156242Y0084674D01*
X0156248Y0084587D01*
X0156250Y0084500D01*
X0156250Y0048500D01*
X0156248Y0048413D01*
X0156242Y0048326D01*
X0156233Y0048239D01*
X0156220Y0048153D01*
X0156203Y0048067D01*
X0156182Y0047982D01*
X0156157Y0047899D01*
X0156129Y0047816D01*
X0156098Y0047735D01*
X0156063Y0047655D01*
X0156024Y0047577D01*
X0155982Y0047500D01*
X0155937Y0047425D01*
X0155888Y0047353D01*
X0155837Y0047282D01*
X0155782Y0047214D01*
X0155725Y0047149D01*
X0155664Y0047086D01*
X0155601Y0047025D01*
X0155536Y0046968D01*
X0155468Y0046913D01*
X0155397Y0046862D01*
X0155325Y0046813D01*
X0155250Y0046768D01*
X0155173Y0046726D01*
X0155095Y0046687D01*
X0155015Y0046652D01*
X0154934Y0046621D01*
X0154851Y0046593D01*
X0154768Y0046568D01*
X0154683Y0046547D01*
X0154597Y0046530D01*
X0154511Y0046517D01*
X0154424Y0046508D01*
X0154337Y0046502D01*
X0154250Y0046500D01*
X0118250Y0046500D01*
X0118163Y0046502D01*
X0118076Y0046508D01*
X0117989Y0046517D01*
X0117903Y0046530D01*
X0117817Y0046547D01*
X0117732Y0046568D01*
X0117649Y0046593D01*
X0117566Y0046621D01*
X0117485Y0046652D01*
X0117405Y0046687D01*
X0117327Y0046726D01*
X0117250Y0046768D01*
X0117175Y0046813D01*
X0117103Y0046862D01*
X0117032Y0046913D01*
X0116964Y0046968D01*
X0116899Y0047025D01*
X0116836Y0047086D01*
X0116775Y0047149D01*
X0116718Y0047214D01*
X0116663Y0047282D01*
X0116612Y0047353D01*
X0116563Y0047425D01*
X0116518Y0047500D01*
X0116476Y0047577D01*
X0116437Y0047655D01*
X0116402Y0047735D01*
X0116371Y0047816D01*
X0116343Y0047899D01*
X0116318Y0047982D01*
X0116297Y0048067D01*
X0116280Y0048153D01*
X0116267Y0048239D01*
X0116258Y0048326D01*
X0116252Y0048413D01*
X0116250Y0048500D01*
X0126450Y0056700D02*
X0126250Y0058500D01*
X0127050Y0059300D01*
X0128250Y0060500D01*
X0127050Y0059300D02*
X0129050Y0057300D01*
X0128250Y0056500D01*
X0126450Y0056700D01*
X0129050Y0057300D02*
X0130250Y0058500D01*
X0131450Y0057100D02*
X0133250Y0056900D01*
X0131450Y0057100D02*
X0130250Y0056300D01*
X0129650Y0055300D01*
X0129850Y0054100D01*
X0131050Y0053500D01*
X0132050Y0053700D01*
X0132450Y0054500D01*
X0132050Y0055500D01*
X0130250Y0056300D01*
X0132650Y0058700D02*
X0133250Y0060000D01*
X0131150Y0061400D02*
X0130150Y0060400D01*
X0127250Y0061900D02*
X0126450Y0063900D01*
X0125750Y0064000D01*
X0125050Y0063700D01*
X0124650Y0062900D01*
X0125450Y0061100D01*
X0123850Y0060300D01*
X0123050Y0062100D01*
X0123250Y0062700D01*
X0124050Y0063100D01*
X0124650Y0062900D01*
X0125450Y0061100D02*
X0127250Y0061900D01*
X0128150Y0063200D02*
X0129750Y0063900D01*
X0129050Y0066500D02*
X0127550Y0066500D01*
X0126650Y0069500D02*
X0123050Y0071100D01*
X0123850Y0072800D01*
X0124550Y0073100D01*
X0127050Y0071900D01*
X0127350Y0071100D01*
X0126650Y0069500D01*
X0128350Y0069800D02*
X0129650Y0069300D01*
X0131150Y0071600D02*
X0130150Y0072600D01*
X0129950Y0074200D02*
X0128350Y0072700D01*
X0126950Y0074100D01*
X0125550Y0075500D01*
X0127250Y0077200D01*
X0129950Y0078700D02*
X0130750Y0077000D01*
X0131550Y0075300D01*
X0132850Y0074500D02*
X0133450Y0073100D01*
X0136250Y0073700D02*
X0136250Y0075200D01*
X0136850Y0076600D02*
X0137450Y0077300D01*
X0137450Y0079700D01*
X0136850Y0080300D01*
X0135650Y0080300D01*
X0135050Y0079700D01*
X0135050Y0077300D01*
X0135650Y0076600D01*
X0136850Y0076600D01*
X0139850Y0075800D02*
X0140950Y0075300D01*
X0140450Y0075600D02*
X0141950Y0078900D01*
X0140750Y0078700D01*
X0144550Y0076600D02*
X0145650Y0076600D01*
X0146650Y0075500D01*
X0146650Y0074600D01*
X0146050Y0074100D01*
X0142650Y0074300D01*
X0144250Y0072600D01*
X0145450Y0071900D02*
X0145050Y0071200D01*
X0145750Y0069500D01*
X0146650Y0069300D01*
X0147450Y0069700D01*
X0147650Y0070200D01*
X0148250Y0070100D01*
X0149050Y0070500D01*
X0149350Y0071000D01*
X0148650Y0072700D01*
X0147650Y0072900D01*
X0147350Y0071000D02*
X0147650Y0070200D01*
X0148150Y0067700D02*
X0148150Y0065300D01*
X0146350Y0065900D02*
X0150050Y0065900D01*
X0148150Y0067700D01*
X0144850Y0066500D02*
X0143350Y0066500D01*
X0142750Y0069300D02*
X0144250Y0069900D01*
X0142350Y0072500D02*
X0141350Y0071500D01*
X0139250Y0073000D02*
X0139850Y0074300D01*
X0132150Y0077600D02*
X0130750Y0077000D01*
X0129950Y0078700D02*
X0131850Y0079600D01*
X0127850Y0075000D02*
X0126950Y0074100D01*
X0129150Y0066500D02*
X0129152Y0066674D01*
X0129159Y0066848D01*
X0129169Y0067022D01*
X0129184Y0067196D01*
X0129203Y0067369D01*
X0129227Y0067542D01*
X0129255Y0067714D01*
X0129286Y0067885D01*
X0129323Y0068056D01*
X0129363Y0068225D01*
X0129407Y0068394D01*
X0129456Y0068561D01*
X0129508Y0068727D01*
X0129565Y0068892D01*
X0129626Y0069055D01*
X0129690Y0069217D01*
X0129759Y0069377D01*
X0129832Y0069536D01*
X0129908Y0069692D01*
X0129988Y0069847D01*
X0130072Y0070000D01*
X0130160Y0070150D01*
X0130252Y0070298D01*
X0130347Y0070445D01*
X0130445Y0070588D01*
X0130547Y0070729D01*
X0130653Y0070868D01*
X0130762Y0071004D01*
X0130874Y0071138D01*
X0130989Y0071268D01*
X0131108Y0071396D01*
X0131230Y0071520D01*
X0131354Y0071642D01*
X0131482Y0071761D01*
X0131612Y0071876D01*
X0131746Y0071988D01*
X0131882Y0072097D01*
X0132021Y0072203D01*
X0132162Y0072305D01*
X0132305Y0072403D01*
X0132452Y0072498D01*
X0132600Y0072590D01*
X0132750Y0072678D01*
X0132903Y0072762D01*
X0133058Y0072842D01*
X0133214Y0072918D01*
X0133373Y0072991D01*
X0133533Y0073060D01*
X0133695Y0073124D01*
X0133858Y0073185D01*
X0134023Y0073242D01*
X0134189Y0073294D01*
X0134356Y0073343D01*
X0134525Y0073387D01*
X0134694Y0073427D01*
X0134865Y0073464D01*
X0135036Y0073495D01*
X0135208Y0073523D01*
X0135381Y0073547D01*
X0135554Y0073566D01*
X0135728Y0073581D01*
X0135902Y0073591D01*
X0136076Y0073598D01*
X0136250Y0073600D01*
X0136424Y0073598D01*
X0136598Y0073591D01*
X0136772Y0073581D01*
X0136946Y0073566D01*
X0137119Y0073547D01*
X0137292Y0073523D01*
X0137464Y0073495D01*
X0137635Y0073464D01*
X0137806Y0073427D01*
X0137975Y0073387D01*
X0138144Y0073343D01*
X0138311Y0073294D01*
X0138477Y0073242D01*
X0138642Y0073185D01*
X0138805Y0073124D01*
X0138967Y0073060D01*
X0139127Y0072991D01*
X0139286Y0072918D01*
X0139442Y0072842D01*
X0139597Y0072762D01*
X0139750Y0072678D01*
X0139900Y0072590D01*
X0140048Y0072498D01*
X0140195Y0072403D01*
X0140338Y0072305D01*
X0140479Y0072203D01*
X0140618Y0072097D01*
X0140754Y0071988D01*
X0140888Y0071876D01*
X0141018Y0071761D01*
X0141146Y0071642D01*
X0141270Y0071520D01*
X0141392Y0071396D01*
X0141511Y0071268D01*
X0141626Y0071138D01*
X0141738Y0071004D01*
X0141847Y0070868D01*
X0141953Y0070729D01*
X0142055Y0070588D01*
X0142153Y0070445D01*
X0142248Y0070298D01*
X0142340Y0070150D01*
X0142428Y0070000D01*
X0142512Y0069847D01*
X0142592Y0069692D01*
X0142668Y0069536D01*
X0142741Y0069377D01*
X0142810Y0069217D01*
X0142874Y0069055D01*
X0142935Y0068892D01*
X0142992Y0068727D01*
X0143044Y0068561D01*
X0143093Y0068394D01*
X0143137Y0068225D01*
X0143177Y0068056D01*
X0143214Y0067885D01*
X0143245Y0067714D01*
X0143273Y0067542D01*
X0143297Y0067369D01*
X0143316Y0067196D01*
X0143331Y0067022D01*
X0143341Y0066848D01*
X0143348Y0066674D01*
X0143350Y0066500D01*
X0143348Y0066326D01*
X0143341Y0066152D01*
X0143331Y0065978D01*
X0143316Y0065804D01*
X0143297Y0065631D01*
X0143273Y0065458D01*
X0143245Y0065286D01*
X0143214Y0065115D01*
X0143177Y0064944D01*
X0143137Y0064775D01*
X0143093Y0064606D01*
X0143044Y0064439D01*
X0142992Y0064273D01*
X0142935Y0064108D01*
X0142874Y0063945D01*
X0142810Y0063783D01*
X0142741Y0063623D01*
X0142668Y0063464D01*
X0142592Y0063308D01*
X0142512Y0063153D01*
X0142428Y0063000D01*
X0142340Y0062850D01*
X0142248Y0062702D01*
X0142153Y0062555D01*
X0142055Y0062412D01*
X0141953Y0062271D01*
X0141847Y0062132D01*
X0141738Y0061996D01*
X0141626Y0061862D01*
X0141511Y0061732D01*
X0141392Y0061604D01*
X0141270Y0061480D01*
X0141146Y0061358D01*
X0141018Y0061239D01*
X0140888Y0061124D01*
X0140754Y0061012D01*
X0140618Y0060903D01*
X0140479Y0060797D01*
X0140338Y0060695D01*
X0140195Y0060597D01*
X0140048Y0060502D01*
X0139900Y0060410D01*
X0139750Y0060322D01*
X0139597Y0060238D01*
X0139442Y0060158D01*
X0139286Y0060082D01*
X0139127Y0060009D01*
X0138967Y0059940D01*
X0138805Y0059876D01*
X0138642Y0059815D01*
X0138477Y0059758D01*
X0138311Y0059706D01*
X0138144Y0059657D01*
X0137975Y0059613D01*
X0137806Y0059573D01*
X0137635Y0059536D01*
X0137464Y0059505D01*
X0137292Y0059477D01*
X0137119Y0059453D01*
X0136946Y0059434D01*
X0136772Y0059419D01*
X0136598Y0059409D01*
X0136424Y0059402D01*
X0136250Y0059400D01*
X0136076Y0059402D01*
X0135902Y0059409D01*
X0135728Y0059419D01*
X0135554Y0059434D01*
X0135381Y0059453D01*
X0135208Y0059477D01*
X0135036Y0059505D01*
X0134865Y0059536D01*
X0134694Y0059573D01*
X0134525Y0059613D01*
X0134356Y0059657D01*
X0134189Y0059706D01*
X0134023Y0059758D01*
X0133858Y0059815D01*
X0133695Y0059876D01*
X0133533Y0059940D01*
X0133373Y0060009D01*
X0133214Y0060082D01*
X0133058Y0060158D01*
X0132903Y0060238D01*
X0132750Y0060322D01*
X0132600Y0060410D01*
X0132452Y0060502D01*
X0132305Y0060597D01*
X0132162Y0060695D01*
X0132021Y0060797D01*
X0131882Y0060903D01*
X0131746Y0061012D01*
X0131612Y0061124D01*
X0131482Y0061239D01*
X0131354Y0061358D01*
X0131230Y0061480D01*
X0131108Y0061604D01*
X0130989Y0061732D01*
X0130874Y0061862D01*
X0130762Y0061996D01*
X0130653Y0062132D01*
X0130547Y0062271D01*
X0130445Y0062412D01*
X0130347Y0062555D01*
X0130252Y0062702D01*
X0130160Y0062850D01*
X0130072Y0063000D01*
X0129988Y0063153D01*
X0129908Y0063308D01*
X0129832Y0063464D01*
X0129759Y0063623D01*
X0129690Y0063783D01*
X0129626Y0063945D01*
X0129565Y0064108D01*
X0129508Y0064273D01*
X0129456Y0064439D01*
X0129407Y0064606D01*
X0129363Y0064775D01*
X0129323Y0064944D01*
X0129286Y0065115D01*
X0129255Y0065286D01*
X0129227Y0065458D01*
X0129203Y0065631D01*
X0129184Y0065804D01*
X0129169Y0065978D01*
X0129159Y0066152D01*
X0129152Y0066326D01*
X0129150Y0066500D01*
X0136250Y0059400D02*
X0136250Y0057900D01*
X0136750Y0056400D02*
X0137350Y0055800D01*
X0137350Y0055200D01*
X0136750Y0054600D01*
X0135550Y0054600D01*
X0134950Y0054000D01*
X0134950Y0053400D01*
X0135550Y0052700D01*
X0136750Y0052700D01*
X0137350Y0053400D01*
X0137350Y0054000D01*
X0136750Y0054600D01*
X0135550Y0054600D02*
X0134950Y0055200D01*
X0134950Y0055800D01*
X0135550Y0056400D01*
X0136750Y0056400D01*
X0139450Y0058300D02*
X0138850Y0059800D01*
X0140650Y0057500D02*
X0140850Y0056900D01*
X0140050Y0053900D01*
X0140250Y0053300D01*
X0142450Y0054300D01*
X0145050Y0055700D02*
X0145850Y0057100D01*
X0145450Y0058900D01*
X0144650Y0059700D01*
X0143650Y0059700D01*
X0142650Y0058700D01*
X0142650Y0057700D01*
X0143050Y0057300D01*
X0144050Y0057300D01*
X0145450Y0058900D01*
X0146550Y0060700D02*
X0145550Y0061200D01*
X0145250Y0062000D01*
X0145750Y0063000D01*
X0146550Y0063300D01*
X0147650Y0062800D02*
X0147750Y0061900D01*
X0147350Y0061000D01*
X0146550Y0060700D01*
X0148250Y0059800D02*
X0149250Y0062000D01*
X0147650Y0062800D01*
X0144250Y0063000D02*
X0142750Y0063600D01*
X0141250Y0061500D02*
X0142250Y0060500D01*
X0165250Y0078000D02*
X0166250Y0078000D01*
X0166750Y0078500D01*
X0175750Y0078500D01*
X0176250Y0078000D01*
X0177250Y0078000D01*
X0177310Y0078002D01*
X0177371Y0078007D01*
X0177430Y0078016D01*
X0177489Y0078029D01*
X0177548Y0078045D01*
X0177605Y0078065D01*
X0177660Y0078088D01*
X0177715Y0078115D01*
X0177767Y0078144D01*
X0177818Y0078177D01*
X0177867Y0078213D01*
X0177913Y0078251D01*
X0177957Y0078293D01*
X0177999Y0078337D01*
X0178037Y0078383D01*
X0178073Y0078432D01*
X0178106Y0078483D01*
X0178135Y0078535D01*
X0178162Y0078590D01*
X0178185Y0078645D01*
X0178205Y0078702D01*
X0178221Y0078761D01*
X0178234Y0078820D01*
X0178243Y0078879D01*
X0178248Y0078940D01*
X0178250Y0079000D01*
X0178250Y0084000D02*
X0178248Y0084060D01*
X0178243Y0084121D01*
X0178234Y0084180D01*
X0178221Y0084239D01*
X0178205Y0084298D01*
X0178185Y0084355D01*
X0178162Y0084410D01*
X0178135Y0084465D01*
X0178106Y0084517D01*
X0178073Y0084568D01*
X0178037Y0084617D01*
X0177999Y0084663D01*
X0177957Y0084707D01*
X0177913Y0084749D01*
X0177867Y0084787D01*
X0177818Y0084823D01*
X0177767Y0084856D01*
X0177715Y0084885D01*
X0177660Y0084912D01*
X0177605Y0084935D01*
X0177548Y0084955D01*
X0177489Y0084971D01*
X0177430Y0084984D01*
X0177371Y0084993D01*
X0177310Y0084998D01*
X0177250Y0085000D01*
X0176250Y0085000D01*
X0175750Y0084500D01*
X0166750Y0084500D01*
X0166250Y0085000D01*
X0165250Y0085000D01*
X0165190Y0084998D01*
X0165129Y0084993D01*
X0165070Y0084984D01*
X0165011Y0084971D01*
X0164952Y0084955D01*
X0164895Y0084935D01*
X0164840Y0084912D01*
X0164785Y0084885D01*
X0164733Y0084856D01*
X0164682Y0084823D01*
X0164633Y0084787D01*
X0164587Y0084749D01*
X0164543Y0084707D01*
X0164501Y0084663D01*
X0164463Y0084617D01*
X0164427Y0084568D01*
X0164394Y0084517D01*
X0164365Y0084465D01*
X0164338Y0084410D01*
X0164315Y0084355D01*
X0164295Y0084298D01*
X0164279Y0084239D01*
X0164266Y0084180D01*
X0164257Y0084121D01*
X0164252Y0084060D01*
X0164250Y0084000D01*
X0164250Y0079000D02*
X0164252Y0078940D01*
X0164257Y0078879D01*
X0164266Y0078820D01*
X0164279Y0078761D01*
X0164295Y0078702D01*
X0164315Y0078645D01*
X0164338Y0078590D01*
X0164365Y0078535D01*
X0164394Y0078483D01*
X0164427Y0078432D01*
X0164463Y0078383D01*
X0164501Y0078337D01*
X0164543Y0078293D01*
X0164587Y0078251D01*
X0164633Y0078213D01*
X0164682Y0078177D01*
X0164733Y0078144D01*
X0164785Y0078115D01*
X0164840Y0078088D01*
X0164895Y0078065D01*
X0164952Y0078045D01*
X0165011Y0078029D01*
X0165070Y0078016D01*
X0165129Y0078007D01*
X0165190Y0078002D01*
X0165250Y0078000D01*
X0040401Y0028022D02*
X0038956Y0028022D01*
X0039679Y0028022D02*
X0039679Y0025422D01*
X0037617Y0026144D02*
X0037617Y0028022D01*
X0036172Y0028022D02*
X0036172Y0026144D01*
X0036173Y0026144D02*
X0036175Y0026091D01*
X0036181Y0026039D01*
X0036190Y0025987D01*
X0036204Y0025936D01*
X0036221Y0025886D01*
X0036241Y0025838D01*
X0036265Y0025791D01*
X0036293Y0025746D01*
X0036324Y0025703D01*
X0036357Y0025662D01*
X0036394Y0025624D01*
X0036433Y0025589D01*
X0036475Y0025557D01*
X0036519Y0025528D01*
X0036565Y0025502D01*
X0036613Y0025480D01*
X0036662Y0025461D01*
X0036712Y0025445D01*
X0036764Y0025434D01*
X0036816Y0025426D01*
X0036869Y0025422D01*
X0036921Y0025422D01*
X0036974Y0025426D01*
X0037026Y0025434D01*
X0037078Y0025445D01*
X0037128Y0025461D01*
X0037177Y0025480D01*
X0037225Y0025502D01*
X0037271Y0025528D01*
X0037315Y0025557D01*
X0037357Y0025589D01*
X0037396Y0025624D01*
X0037433Y0025662D01*
X0037466Y0025703D01*
X0037497Y0025746D01*
X0037525Y0025791D01*
X0037549Y0025838D01*
X0037569Y0025886D01*
X0037586Y0025936D01*
X0037600Y0025987D01*
X0037609Y0026039D01*
X0037615Y0026091D01*
X0037617Y0026144D01*
X0034641Y0026144D02*
X0034641Y0027300D01*
X0034639Y0027353D01*
X0034633Y0027405D01*
X0034624Y0027457D01*
X0034610Y0027508D01*
X0034593Y0027558D01*
X0034573Y0027606D01*
X0034549Y0027653D01*
X0034521Y0027698D01*
X0034490Y0027741D01*
X0034457Y0027782D01*
X0034420Y0027820D01*
X0034381Y0027855D01*
X0034339Y0027887D01*
X0034295Y0027916D01*
X0034249Y0027942D01*
X0034201Y0027964D01*
X0034152Y0027983D01*
X0034102Y0027999D01*
X0034050Y0028010D01*
X0033998Y0028018D01*
X0033945Y0028022D01*
X0033893Y0028022D01*
X0033840Y0028018D01*
X0033788Y0028010D01*
X0033736Y0027999D01*
X0033686Y0027983D01*
X0033637Y0027964D01*
X0033589Y0027942D01*
X0033543Y0027916D01*
X0033499Y0027887D01*
X0033457Y0027855D01*
X0033418Y0027820D01*
X0033381Y0027782D01*
X0033348Y0027741D01*
X0033317Y0027698D01*
X0033289Y0027653D01*
X0033265Y0027606D01*
X0033245Y0027558D01*
X0033228Y0027508D01*
X0033214Y0027457D01*
X0033205Y0027405D01*
X0033199Y0027353D01*
X0033197Y0027300D01*
X0033196Y0027300D02*
X0033196Y0026144D01*
X0033197Y0026144D02*
X0033199Y0026091D01*
X0033205Y0026039D01*
X0033214Y0025987D01*
X0033228Y0025936D01*
X0033245Y0025886D01*
X0033265Y0025838D01*
X0033289Y0025791D01*
X0033317Y0025746D01*
X0033348Y0025703D01*
X0033381Y0025662D01*
X0033418Y0025624D01*
X0033457Y0025589D01*
X0033499Y0025557D01*
X0033543Y0025528D01*
X0033589Y0025502D01*
X0033637Y0025480D01*
X0033686Y0025461D01*
X0033736Y0025445D01*
X0033788Y0025434D01*
X0033840Y0025426D01*
X0033893Y0025422D01*
X0033945Y0025422D01*
X0033998Y0025426D01*
X0034050Y0025434D01*
X0034102Y0025445D01*
X0034152Y0025461D01*
X0034201Y0025480D01*
X0034249Y0025502D01*
X0034295Y0025528D01*
X0034339Y0025557D01*
X0034381Y0025589D01*
X0034420Y0025624D01*
X0034457Y0025662D01*
X0034490Y0025703D01*
X0034521Y0025746D01*
X0034549Y0025791D01*
X0034573Y0025838D01*
X0034593Y0025886D01*
X0034610Y0025936D01*
X0034624Y0025987D01*
X0034633Y0026039D01*
X0034639Y0026091D01*
X0034641Y0026144D01*
X0031905Y0028022D02*
X0031039Y0025422D01*
X0030172Y0028022D01*
D14*
X0048250Y0040500D02*
X0051250Y0040500D01*
X0054250Y0040500D01*
X0054250Y0042500D02*
X0051250Y0042500D01*
X0048250Y0042500D01*
X0089250Y0070800D02*
X0093250Y0070800D01*
X0091250Y0072800D01*
X0089250Y0070800D01*
X0090250Y0071300D02*
X0092250Y0071300D01*
X0091250Y0071800D02*
X0091250Y0072300D01*
X0134250Y0070800D02*
X0138250Y0070800D01*
X0136250Y0072800D01*
X0134250Y0070800D01*
X0135250Y0071300D02*
X0137250Y0071300D01*
X0136250Y0071800D02*
X0136250Y0072300D01*
X0163800Y0071600D02*
X0163800Y0069800D01*
X0163800Y0063400D02*
X0163800Y0061400D01*
D15*
X0136250Y0065500D03*
X0091250Y0065500D03*
D16*
X0112602Y0038650D02*
X0113235Y0036750D01*
X0113868Y0038650D01*
X0114867Y0038122D02*
X0114867Y0037278D01*
X0114869Y0037233D01*
X0114875Y0037189D01*
X0114884Y0037145D01*
X0114897Y0037102D01*
X0114914Y0037061D01*
X0114934Y0037020D01*
X0114958Y0036982D01*
X0114984Y0036946D01*
X0115014Y0036913D01*
X0115046Y0036882D01*
X0115081Y0036853D01*
X0115118Y0036828D01*
X0115157Y0036807D01*
X0115198Y0036788D01*
X0115240Y0036773D01*
X0115284Y0036762D01*
X0115328Y0036754D01*
X0115373Y0036750D01*
X0115417Y0036750D01*
X0115462Y0036754D01*
X0115506Y0036762D01*
X0115550Y0036773D01*
X0115592Y0036788D01*
X0115633Y0036807D01*
X0115672Y0036828D01*
X0115709Y0036853D01*
X0115744Y0036882D01*
X0115776Y0036913D01*
X0115806Y0036946D01*
X0115832Y0036982D01*
X0115856Y0037020D01*
X0115876Y0037061D01*
X0115893Y0037102D01*
X0115906Y0037145D01*
X0115915Y0037189D01*
X0115921Y0037233D01*
X0115923Y0037278D01*
X0115923Y0038122D01*
X0115921Y0038167D01*
X0115915Y0038211D01*
X0115906Y0038255D01*
X0115893Y0038298D01*
X0115876Y0038339D01*
X0115856Y0038380D01*
X0115832Y0038418D01*
X0115806Y0038454D01*
X0115776Y0038487D01*
X0115744Y0038518D01*
X0115709Y0038547D01*
X0115672Y0038572D01*
X0115633Y0038593D01*
X0115592Y0038612D01*
X0115550Y0038627D01*
X0115506Y0038638D01*
X0115462Y0038646D01*
X0115417Y0038650D01*
X0115373Y0038650D01*
X0115328Y0038646D01*
X0115284Y0038638D01*
X0115240Y0038627D01*
X0115198Y0038612D01*
X0115157Y0038593D01*
X0115118Y0038572D01*
X0115081Y0038547D01*
X0115046Y0038518D01*
X0115014Y0038487D01*
X0114984Y0038454D01*
X0114958Y0038418D01*
X0114934Y0038380D01*
X0114914Y0038339D01*
X0114897Y0038298D01*
X0114884Y0038255D01*
X0114875Y0038211D01*
X0114869Y0038167D01*
X0114867Y0038122D01*
X0117107Y0038650D02*
X0117107Y0036750D01*
X0117951Y0036750D01*
X0119283Y0036750D02*
X0119283Y0038650D01*
X0118755Y0038650D02*
X0119811Y0038650D01*
X0121299Y0038650D02*
X0121932Y0036750D01*
X0121774Y0037225D02*
X0120824Y0037225D01*
X0120666Y0036750D02*
X0121299Y0038650D01*
X0123003Y0038228D02*
X0123003Y0037172D01*
X0123005Y0037133D01*
X0123010Y0037094D01*
X0123019Y0037057D01*
X0123031Y0037020D01*
X0123047Y0036984D01*
X0123066Y0036950D01*
X0123088Y0036918D01*
X0123113Y0036888D01*
X0123141Y0036860D01*
X0123171Y0036835D01*
X0123203Y0036813D01*
X0123237Y0036794D01*
X0123273Y0036778D01*
X0123310Y0036766D01*
X0123347Y0036757D01*
X0123386Y0036752D01*
X0123425Y0036750D01*
X0124059Y0036750D01*
X0124059Y0037806D01*
X0123742Y0037806D01*
X0123003Y0038228D02*
X0123005Y0038267D01*
X0123010Y0038306D01*
X0123019Y0038343D01*
X0123031Y0038380D01*
X0123047Y0038416D01*
X0123066Y0038450D01*
X0123088Y0038482D01*
X0123113Y0038512D01*
X0123141Y0038540D01*
X0123171Y0038565D01*
X0123203Y0038587D01*
X0123237Y0038606D01*
X0123273Y0038621D01*
X0123310Y0038634D01*
X0123347Y0038643D01*
X0123386Y0038648D01*
X0123425Y0038650D01*
X0124059Y0038650D01*
X0125315Y0038650D02*
X0125315Y0036750D01*
X0126159Y0036750D01*
X0125948Y0037806D02*
X0125315Y0037806D01*
X0125315Y0038650D02*
X0126159Y0038650D01*
X0127145Y0037489D02*
X0128412Y0037489D01*
X0129747Y0037858D02*
X0130327Y0037542D01*
X0130116Y0036750D02*
X0130057Y0036752D01*
X0129999Y0036758D01*
X0129941Y0036767D01*
X0129884Y0036781D01*
X0129828Y0036798D01*
X0129773Y0036819D01*
X0129720Y0036843D01*
X0129668Y0036871D01*
X0129618Y0036902D01*
X0129571Y0036936D01*
X0129525Y0036974D01*
X0129483Y0037014D01*
X0130328Y0037542D02*
X0130362Y0037519D01*
X0130393Y0037494D01*
X0130422Y0037466D01*
X0130449Y0037435D01*
X0130472Y0037402D01*
X0130492Y0037367D01*
X0130509Y0037330D01*
X0130522Y0037292D01*
X0130531Y0037253D01*
X0130537Y0037212D01*
X0130539Y0037172D01*
X0130538Y0037172D02*
X0130536Y0037133D01*
X0130531Y0037094D01*
X0130522Y0037057D01*
X0130510Y0037020D01*
X0130494Y0036984D01*
X0130475Y0036950D01*
X0130453Y0036918D01*
X0130428Y0036888D01*
X0130400Y0036860D01*
X0130370Y0036835D01*
X0130338Y0036813D01*
X0130304Y0036794D01*
X0130268Y0036778D01*
X0130231Y0036766D01*
X0130194Y0036757D01*
X0130155Y0036752D01*
X0130116Y0036750D01*
X0130433Y0038492D02*
X0130391Y0038521D01*
X0130348Y0038547D01*
X0130303Y0038571D01*
X0130256Y0038592D01*
X0130208Y0038609D01*
X0130160Y0038624D01*
X0130110Y0038635D01*
X0130060Y0038643D01*
X0130009Y0038648D01*
X0129958Y0038650D01*
X0129919Y0038648D01*
X0129880Y0038643D01*
X0129843Y0038634D01*
X0129806Y0038622D01*
X0129770Y0038606D01*
X0129736Y0038587D01*
X0129704Y0038565D01*
X0129674Y0038540D01*
X0129646Y0038512D01*
X0129621Y0038482D01*
X0129599Y0038450D01*
X0129580Y0038416D01*
X0129564Y0038380D01*
X0129552Y0038343D01*
X0129543Y0038306D01*
X0129538Y0038267D01*
X0129536Y0038228D01*
X0129538Y0038188D01*
X0129544Y0038147D01*
X0129553Y0038108D01*
X0129566Y0038070D01*
X0129583Y0038033D01*
X0129603Y0037998D01*
X0129626Y0037965D01*
X0129653Y0037934D01*
X0129682Y0037906D01*
X0129713Y0037881D01*
X0129747Y0037858D01*
X0131651Y0037806D02*
X0132284Y0037806D01*
X0132495Y0038650D02*
X0131651Y0038650D01*
X0131651Y0036750D01*
X0132495Y0036750D01*
X0133523Y0036750D02*
X0133523Y0038650D01*
X0135395Y0038650D02*
X0135395Y0036750D01*
X0136239Y0036750D01*
X0137176Y0037172D02*
X0137176Y0038228D01*
X0137178Y0038267D01*
X0137183Y0038306D01*
X0137192Y0038343D01*
X0137204Y0038380D01*
X0137220Y0038416D01*
X0137239Y0038450D01*
X0137261Y0038482D01*
X0137286Y0038512D01*
X0137314Y0038540D01*
X0137344Y0038565D01*
X0137376Y0038587D01*
X0137410Y0038606D01*
X0137446Y0038621D01*
X0137483Y0038634D01*
X0137520Y0038643D01*
X0137559Y0038648D01*
X0137598Y0038650D01*
X0138020Y0038650D01*
X0138843Y0038650D02*
X0139898Y0038650D01*
X0139371Y0038650D02*
X0139371Y0036750D01*
X0138020Y0036750D02*
X0137598Y0036750D01*
X0137559Y0036752D01*
X0137520Y0036757D01*
X0137483Y0036766D01*
X0137446Y0036778D01*
X0137410Y0036794D01*
X0137376Y0036813D01*
X0137344Y0036835D01*
X0137314Y0036860D01*
X0137286Y0036888D01*
X0137261Y0036918D01*
X0137239Y0036950D01*
X0137220Y0036984D01*
X0137204Y0037020D01*
X0137192Y0037057D01*
X0137183Y0037094D01*
X0137178Y0037133D01*
X0137176Y0037172D01*
X0136028Y0037806D02*
X0135395Y0037806D01*
X0135395Y0038650D02*
X0136239Y0038650D01*
X0134367Y0036750D02*
X0133523Y0036750D01*
X0160043Y0027272D02*
X0160677Y0025372D01*
X0161310Y0027272D01*
X0162194Y0027272D02*
X0162616Y0027272D01*
X0162405Y0027272D02*
X0162405Y0025372D01*
X0162194Y0025372D02*
X0162616Y0025372D01*
X0163677Y0025372D02*
X0163677Y0027272D01*
X0164732Y0025372D01*
X0164732Y0027272D01*
X0184100Y0061750D02*
X0186000Y0061750D01*
X0186000Y0062594D01*
X0186000Y0063622D02*
X0184100Y0063622D01*
X0184100Y0064466D01*
X0184944Y0064255D02*
X0184944Y0063622D01*
X0186000Y0063622D02*
X0186000Y0064466D01*
X0186000Y0065486D02*
X0186000Y0066014D01*
X0186000Y0065486D02*
X0184100Y0065486D01*
X0184100Y0066014D01*
X0184102Y0066058D01*
X0184107Y0066101D01*
X0184116Y0066144D01*
X0184129Y0066185D01*
X0184144Y0066226D01*
X0184164Y0066265D01*
X0184186Y0066303D01*
X0184211Y0066338D01*
X0184240Y0066372D01*
X0184270Y0066402D01*
X0184304Y0066431D01*
X0184339Y0066456D01*
X0184377Y0066478D01*
X0184416Y0066498D01*
X0184457Y0066513D01*
X0184498Y0066526D01*
X0184541Y0066535D01*
X0184584Y0066540D01*
X0184628Y0066542D01*
X0185472Y0066542D01*
X0185516Y0066540D01*
X0185559Y0066535D01*
X0185602Y0066526D01*
X0185643Y0066513D01*
X0185684Y0066498D01*
X0185723Y0066478D01*
X0185761Y0066456D01*
X0185796Y0066431D01*
X0185830Y0066402D01*
X0185860Y0066372D01*
X0185889Y0066338D01*
X0185914Y0066303D01*
X0185936Y0066265D01*
X0185956Y0066226D01*
X0185971Y0066185D01*
X0185984Y0066144D01*
X0185993Y0066101D01*
X0185998Y0066058D01*
X0186000Y0066014D01*
X0191250Y0090500D02*
X0191250Y0162500D01*
X0001250Y0162500D01*
X0001250Y0090500D01*
X0191250Y0090500D01*
X0094498Y0020000D02*
X0078002Y0020000D01*
X0080722Y0026000D02*
X0081778Y0026000D01*
X0076748Y0022028D02*
X0076852Y0021813D01*
X0076961Y0021600D01*
X0077075Y0021390D01*
X0077194Y0021183D01*
X0077317Y0020978D01*
X0077445Y0020776D01*
X0077578Y0020577D01*
X0077715Y0020382D01*
X0077856Y0020189D01*
X0078002Y0020000D01*
X0076750Y0030972D02*
X0076862Y0031202D01*
X0076979Y0031429D01*
X0077101Y0031653D01*
X0077229Y0031874D01*
X0077363Y0032091D01*
X0077501Y0032306D01*
X0077645Y0032517D01*
X0077794Y0032724D01*
X0077948Y0032928D01*
X0078106Y0033128D01*
X0078270Y0033324D01*
X0078438Y0033516D01*
X0078611Y0033704D01*
X0078789Y0033888D01*
X0078970Y0034067D01*
X0079157Y0034242D01*
X0079347Y0034412D01*
X0079541Y0034577D01*
X0079740Y0034738D01*
X0079942Y0034894D01*
X0080148Y0035045D01*
X0080358Y0035191D01*
X0080571Y0035331D01*
X0080787Y0035467D01*
X0081007Y0035597D01*
X0081230Y0035722D01*
X0081455Y0035841D01*
X0081684Y0035955D01*
X0081915Y0036063D01*
X0082149Y0036166D01*
X0082385Y0036263D01*
X0082624Y0036354D01*
X0082864Y0036439D01*
X0083107Y0036519D01*
X0083352Y0036592D01*
X0083598Y0036660D01*
X0083846Y0036721D01*
X0084095Y0036776D01*
X0084345Y0036826D01*
X0084597Y0036869D01*
X0084850Y0036906D01*
X0085103Y0036937D01*
X0085357Y0036962D01*
X0085612Y0036981D01*
X0085867Y0036993D01*
X0086122Y0036999D01*
X0086378Y0036999D01*
X0086633Y0036993D01*
X0086888Y0036981D01*
X0087143Y0036962D01*
X0087397Y0036937D01*
X0087650Y0036906D01*
X0087903Y0036869D01*
X0088155Y0036826D01*
X0088405Y0036776D01*
X0088654Y0036721D01*
X0088902Y0036660D01*
X0089148Y0036592D01*
X0089393Y0036519D01*
X0089636Y0036439D01*
X0089876Y0036354D01*
X0090115Y0036263D01*
X0090351Y0036166D01*
X0090585Y0036063D01*
X0090816Y0035955D01*
X0091045Y0035841D01*
X0091270Y0035722D01*
X0091493Y0035597D01*
X0091713Y0035467D01*
X0091929Y0035331D01*
X0092142Y0035191D01*
X0092352Y0035045D01*
X0092558Y0034894D01*
X0092760Y0034738D01*
X0092959Y0034577D01*
X0093153Y0034412D01*
X0093343Y0034242D01*
X0093530Y0034067D01*
X0093711Y0033888D01*
X0093889Y0033704D01*
X0094062Y0033516D01*
X0094230Y0033324D01*
X0094394Y0033128D01*
X0094552Y0032928D01*
X0094706Y0032724D01*
X0094855Y0032517D01*
X0094999Y0032306D01*
X0095137Y0032091D01*
X0095271Y0031874D01*
X0095399Y0031653D01*
X0095521Y0031429D01*
X0095638Y0031202D01*
X0095750Y0030972D01*
X0091778Y0026000D02*
X0090722Y0026000D01*
X0095796Y0022122D02*
X0095689Y0021897D01*
X0095577Y0021674D01*
X0095460Y0021454D01*
X0095338Y0021237D01*
X0095210Y0021022D01*
X0095077Y0020811D01*
X0094940Y0020603D01*
X0094797Y0020399D01*
X0094650Y0020197D01*
X0094498Y0020000D01*
M02*
