%
M48
M72
T01C0.01378
T02C0.03200
T03C0.04000
T04C0.04331
T05C0.04400
T06C0.12598
%
T01
X40650Y141800
X77450Y145000
X84650Y148200
X150250Y91400
T02
X151250Y76800
X151250Y66800
X151250Y56800
X136250Y56800
X136250Y76800
X106250Y76800
X106250Y66800
X106250Y56800
X91250Y41800
X71250Y41800
X71250Y71800
X71250Y81800
X91250Y81800
X91250Y71800
X126250Y26800
X146250Y26800
X156250Y26800
X166250Y26800
X181250Y56800
X181250Y76800
X36250Y76800
X36250Y66800
X36250Y56800
X36250Y46800
X16250Y66800
X16250Y86800
X36250Y86800
T03
X36950Y36800
X25550Y36800
X56250Y37500
X56250Y26100
X86250Y26800
X96250Y26800
X106250Y26800
T04
X106250Y96800
X116250Y96800
X126250Y96800
X136250Y96800
X146250Y96800
X156250Y96800
X166250Y96800
X176250Y96800
X176250Y156800
X166250Y156800
X156250Y156800
X146250Y156800
X136250Y156800
X126250Y156800
X116250Y156800
X106250Y156800
X96250Y156800
X86250Y156800
X76250Y156800
X66250Y156800
X56250Y156800
X46250Y156800
X36250Y156800
X26250Y156800
X16250Y156800
X16250Y96800
X26250Y96800
X36250Y96800
X46250Y96800
X56250Y96800
X66250Y96800
X76250Y96800
X86250Y96800
X96250Y96800
T05
X56250Y86800
X56250Y46800
T06
X18061Y13611
X179478Y13611
X179478Y175028
X18061Y175028
M30
