G75*
%MOIN*%
%OFA0B0*%
%FSLAX25Y25*%
%IPPOS*%
%LPD*%
%AMOC8*
5,1,8,0,0,1.08239X$1,22.5*
%
%ADD10C,0.00000*%
D10*
X0006250Y0001300D02*
X0006250Y0186339D01*
X0191289Y0186339D01*
X0191289Y0001300D01*
X0006250Y0001300D01*
X0011762Y0013111D02*
X0011764Y0013269D01*
X0011770Y0013427D01*
X0011780Y0013585D01*
X0011794Y0013743D01*
X0011812Y0013900D01*
X0011833Y0014057D01*
X0011859Y0014213D01*
X0011889Y0014369D01*
X0011922Y0014524D01*
X0011960Y0014677D01*
X0012001Y0014830D01*
X0012046Y0014982D01*
X0012095Y0015133D01*
X0012148Y0015282D01*
X0012204Y0015430D01*
X0012264Y0015576D01*
X0012328Y0015721D01*
X0012396Y0015864D01*
X0012467Y0016006D01*
X0012541Y0016146D01*
X0012619Y0016283D01*
X0012701Y0016419D01*
X0012785Y0016553D01*
X0012874Y0016684D01*
X0012965Y0016813D01*
X0013060Y0016940D01*
X0013157Y0017065D01*
X0013258Y0017187D01*
X0013362Y0017306D01*
X0013469Y0017423D01*
X0013579Y0017537D01*
X0013692Y0017648D01*
X0013807Y0017757D01*
X0013925Y0017862D01*
X0014046Y0017964D01*
X0014169Y0018064D01*
X0014295Y0018160D01*
X0014423Y0018253D01*
X0014553Y0018343D01*
X0014686Y0018429D01*
X0014821Y0018513D01*
X0014957Y0018592D01*
X0015096Y0018669D01*
X0015237Y0018741D01*
X0015379Y0018811D01*
X0015523Y0018876D01*
X0015669Y0018938D01*
X0015816Y0018996D01*
X0015965Y0019051D01*
X0016115Y0019102D01*
X0016266Y0019149D01*
X0016418Y0019192D01*
X0016571Y0019231D01*
X0016726Y0019267D01*
X0016881Y0019298D01*
X0017037Y0019326D01*
X0017193Y0019350D01*
X0017350Y0019370D01*
X0017508Y0019386D01*
X0017665Y0019398D01*
X0017824Y0019406D01*
X0017982Y0019410D01*
X0018140Y0019410D01*
X0018298Y0019406D01*
X0018457Y0019398D01*
X0018614Y0019386D01*
X0018772Y0019370D01*
X0018929Y0019350D01*
X0019085Y0019326D01*
X0019241Y0019298D01*
X0019396Y0019267D01*
X0019551Y0019231D01*
X0019704Y0019192D01*
X0019856Y0019149D01*
X0020007Y0019102D01*
X0020157Y0019051D01*
X0020306Y0018996D01*
X0020453Y0018938D01*
X0020599Y0018876D01*
X0020743Y0018811D01*
X0020885Y0018741D01*
X0021026Y0018669D01*
X0021165Y0018592D01*
X0021301Y0018513D01*
X0021436Y0018429D01*
X0021569Y0018343D01*
X0021699Y0018253D01*
X0021827Y0018160D01*
X0021953Y0018064D01*
X0022076Y0017964D01*
X0022197Y0017862D01*
X0022315Y0017757D01*
X0022430Y0017648D01*
X0022543Y0017537D01*
X0022653Y0017423D01*
X0022760Y0017306D01*
X0022864Y0017187D01*
X0022965Y0017065D01*
X0023062Y0016940D01*
X0023157Y0016813D01*
X0023248Y0016684D01*
X0023337Y0016553D01*
X0023421Y0016419D01*
X0023503Y0016283D01*
X0023581Y0016146D01*
X0023655Y0016006D01*
X0023726Y0015864D01*
X0023794Y0015721D01*
X0023858Y0015576D01*
X0023918Y0015430D01*
X0023974Y0015282D01*
X0024027Y0015133D01*
X0024076Y0014982D01*
X0024121Y0014830D01*
X0024162Y0014677D01*
X0024200Y0014524D01*
X0024233Y0014369D01*
X0024263Y0014213D01*
X0024289Y0014057D01*
X0024310Y0013900D01*
X0024328Y0013743D01*
X0024342Y0013585D01*
X0024352Y0013427D01*
X0024358Y0013269D01*
X0024360Y0013111D01*
X0024358Y0012953D01*
X0024352Y0012795D01*
X0024342Y0012637D01*
X0024328Y0012479D01*
X0024310Y0012322D01*
X0024289Y0012165D01*
X0024263Y0012009D01*
X0024233Y0011853D01*
X0024200Y0011698D01*
X0024162Y0011545D01*
X0024121Y0011392D01*
X0024076Y0011240D01*
X0024027Y0011089D01*
X0023974Y0010940D01*
X0023918Y0010792D01*
X0023858Y0010646D01*
X0023794Y0010501D01*
X0023726Y0010358D01*
X0023655Y0010216D01*
X0023581Y0010076D01*
X0023503Y0009939D01*
X0023421Y0009803D01*
X0023337Y0009669D01*
X0023248Y0009538D01*
X0023157Y0009409D01*
X0023062Y0009282D01*
X0022965Y0009157D01*
X0022864Y0009035D01*
X0022760Y0008916D01*
X0022653Y0008799D01*
X0022543Y0008685D01*
X0022430Y0008574D01*
X0022315Y0008465D01*
X0022197Y0008360D01*
X0022076Y0008258D01*
X0021953Y0008158D01*
X0021827Y0008062D01*
X0021699Y0007969D01*
X0021569Y0007879D01*
X0021436Y0007793D01*
X0021301Y0007709D01*
X0021165Y0007630D01*
X0021026Y0007553D01*
X0020885Y0007481D01*
X0020743Y0007411D01*
X0020599Y0007346D01*
X0020453Y0007284D01*
X0020306Y0007226D01*
X0020157Y0007171D01*
X0020007Y0007120D01*
X0019856Y0007073D01*
X0019704Y0007030D01*
X0019551Y0006991D01*
X0019396Y0006955D01*
X0019241Y0006924D01*
X0019085Y0006896D01*
X0018929Y0006872D01*
X0018772Y0006852D01*
X0018614Y0006836D01*
X0018457Y0006824D01*
X0018298Y0006816D01*
X0018140Y0006812D01*
X0017982Y0006812D01*
X0017824Y0006816D01*
X0017665Y0006824D01*
X0017508Y0006836D01*
X0017350Y0006852D01*
X0017193Y0006872D01*
X0017037Y0006896D01*
X0016881Y0006924D01*
X0016726Y0006955D01*
X0016571Y0006991D01*
X0016418Y0007030D01*
X0016266Y0007073D01*
X0016115Y0007120D01*
X0015965Y0007171D01*
X0015816Y0007226D01*
X0015669Y0007284D01*
X0015523Y0007346D01*
X0015379Y0007411D01*
X0015237Y0007481D01*
X0015096Y0007553D01*
X0014957Y0007630D01*
X0014821Y0007709D01*
X0014686Y0007793D01*
X0014553Y0007879D01*
X0014423Y0007969D01*
X0014295Y0008062D01*
X0014169Y0008158D01*
X0014046Y0008258D01*
X0013925Y0008360D01*
X0013807Y0008465D01*
X0013692Y0008574D01*
X0013579Y0008685D01*
X0013469Y0008799D01*
X0013362Y0008916D01*
X0013258Y0009035D01*
X0013157Y0009157D01*
X0013060Y0009282D01*
X0012965Y0009409D01*
X0012874Y0009538D01*
X0012785Y0009669D01*
X0012701Y0009803D01*
X0012619Y0009939D01*
X0012541Y0010076D01*
X0012467Y0010216D01*
X0012396Y0010358D01*
X0012328Y0010501D01*
X0012264Y0010646D01*
X0012204Y0010792D01*
X0012148Y0010940D01*
X0012095Y0011089D01*
X0012046Y0011240D01*
X0012001Y0011392D01*
X0011960Y0011545D01*
X0011922Y0011698D01*
X0011889Y0011853D01*
X0011859Y0012009D01*
X0011833Y0012165D01*
X0011812Y0012322D01*
X0011794Y0012479D01*
X0011780Y0012637D01*
X0011770Y0012795D01*
X0011764Y0012953D01*
X0011762Y0013111D01*
X0011762Y0174528D02*
X0011764Y0174686D01*
X0011770Y0174844D01*
X0011780Y0175002D01*
X0011794Y0175160D01*
X0011812Y0175317D01*
X0011833Y0175474D01*
X0011859Y0175630D01*
X0011889Y0175786D01*
X0011922Y0175941D01*
X0011960Y0176094D01*
X0012001Y0176247D01*
X0012046Y0176399D01*
X0012095Y0176550D01*
X0012148Y0176699D01*
X0012204Y0176847D01*
X0012264Y0176993D01*
X0012328Y0177138D01*
X0012396Y0177281D01*
X0012467Y0177423D01*
X0012541Y0177563D01*
X0012619Y0177700D01*
X0012701Y0177836D01*
X0012785Y0177970D01*
X0012874Y0178101D01*
X0012965Y0178230D01*
X0013060Y0178357D01*
X0013157Y0178482D01*
X0013258Y0178604D01*
X0013362Y0178723D01*
X0013469Y0178840D01*
X0013579Y0178954D01*
X0013692Y0179065D01*
X0013807Y0179174D01*
X0013925Y0179279D01*
X0014046Y0179381D01*
X0014169Y0179481D01*
X0014295Y0179577D01*
X0014423Y0179670D01*
X0014553Y0179760D01*
X0014686Y0179846D01*
X0014821Y0179930D01*
X0014957Y0180009D01*
X0015096Y0180086D01*
X0015237Y0180158D01*
X0015379Y0180228D01*
X0015523Y0180293D01*
X0015669Y0180355D01*
X0015816Y0180413D01*
X0015965Y0180468D01*
X0016115Y0180519D01*
X0016266Y0180566D01*
X0016418Y0180609D01*
X0016571Y0180648D01*
X0016726Y0180684D01*
X0016881Y0180715D01*
X0017037Y0180743D01*
X0017193Y0180767D01*
X0017350Y0180787D01*
X0017508Y0180803D01*
X0017665Y0180815D01*
X0017824Y0180823D01*
X0017982Y0180827D01*
X0018140Y0180827D01*
X0018298Y0180823D01*
X0018457Y0180815D01*
X0018614Y0180803D01*
X0018772Y0180787D01*
X0018929Y0180767D01*
X0019085Y0180743D01*
X0019241Y0180715D01*
X0019396Y0180684D01*
X0019551Y0180648D01*
X0019704Y0180609D01*
X0019856Y0180566D01*
X0020007Y0180519D01*
X0020157Y0180468D01*
X0020306Y0180413D01*
X0020453Y0180355D01*
X0020599Y0180293D01*
X0020743Y0180228D01*
X0020885Y0180158D01*
X0021026Y0180086D01*
X0021165Y0180009D01*
X0021301Y0179930D01*
X0021436Y0179846D01*
X0021569Y0179760D01*
X0021699Y0179670D01*
X0021827Y0179577D01*
X0021953Y0179481D01*
X0022076Y0179381D01*
X0022197Y0179279D01*
X0022315Y0179174D01*
X0022430Y0179065D01*
X0022543Y0178954D01*
X0022653Y0178840D01*
X0022760Y0178723D01*
X0022864Y0178604D01*
X0022965Y0178482D01*
X0023062Y0178357D01*
X0023157Y0178230D01*
X0023248Y0178101D01*
X0023337Y0177970D01*
X0023421Y0177836D01*
X0023503Y0177700D01*
X0023581Y0177563D01*
X0023655Y0177423D01*
X0023726Y0177281D01*
X0023794Y0177138D01*
X0023858Y0176993D01*
X0023918Y0176847D01*
X0023974Y0176699D01*
X0024027Y0176550D01*
X0024076Y0176399D01*
X0024121Y0176247D01*
X0024162Y0176094D01*
X0024200Y0175941D01*
X0024233Y0175786D01*
X0024263Y0175630D01*
X0024289Y0175474D01*
X0024310Y0175317D01*
X0024328Y0175160D01*
X0024342Y0175002D01*
X0024352Y0174844D01*
X0024358Y0174686D01*
X0024360Y0174528D01*
X0024358Y0174370D01*
X0024352Y0174212D01*
X0024342Y0174054D01*
X0024328Y0173896D01*
X0024310Y0173739D01*
X0024289Y0173582D01*
X0024263Y0173426D01*
X0024233Y0173270D01*
X0024200Y0173115D01*
X0024162Y0172962D01*
X0024121Y0172809D01*
X0024076Y0172657D01*
X0024027Y0172506D01*
X0023974Y0172357D01*
X0023918Y0172209D01*
X0023858Y0172063D01*
X0023794Y0171918D01*
X0023726Y0171775D01*
X0023655Y0171633D01*
X0023581Y0171493D01*
X0023503Y0171356D01*
X0023421Y0171220D01*
X0023337Y0171086D01*
X0023248Y0170955D01*
X0023157Y0170826D01*
X0023062Y0170699D01*
X0022965Y0170574D01*
X0022864Y0170452D01*
X0022760Y0170333D01*
X0022653Y0170216D01*
X0022543Y0170102D01*
X0022430Y0169991D01*
X0022315Y0169882D01*
X0022197Y0169777D01*
X0022076Y0169675D01*
X0021953Y0169575D01*
X0021827Y0169479D01*
X0021699Y0169386D01*
X0021569Y0169296D01*
X0021436Y0169210D01*
X0021301Y0169126D01*
X0021165Y0169047D01*
X0021026Y0168970D01*
X0020885Y0168898D01*
X0020743Y0168828D01*
X0020599Y0168763D01*
X0020453Y0168701D01*
X0020306Y0168643D01*
X0020157Y0168588D01*
X0020007Y0168537D01*
X0019856Y0168490D01*
X0019704Y0168447D01*
X0019551Y0168408D01*
X0019396Y0168372D01*
X0019241Y0168341D01*
X0019085Y0168313D01*
X0018929Y0168289D01*
X0018772Y0168269D01*
X0018614Y0168253D01*
X0018457Y0168241D01*
X0018298Y0168233D01*
X0018140Y0168229D01*
X0017982Y0168229D01*
X0017824Y0168233D01*
X0017665Y0168241D01*
X0017508Y0168253D01*
X0017350Y0168269D01*
X0017193Y0168289D01*
X0017037Y0168313D01*
X0016881Y0168341D01*
X0016726Y0168372D01*
X0016571Y0168408D01*
X0016418Y0168447D01*
X0016266Y0168490D01*
X0016115Y0168537D01*
X0015965Y0168588D01*
X0015816Y0168643D01*
X0015669Y0168701D01*
X0015523Y0168763D01*
X0015379Y0168828D01*
X0015237Y0168898D01*
X0015096Y0168970D01*
X0014957Y0169047D01*
X0014821Y0169126D01*
X0014686Y0169210D01*
X0014553Y0169296D01*
X0014423Y0169386D01*
X0014295Y0169479D01*
X0014169Y0169575D01*
X0014046Y0169675D01*
X0013925Y0169777D01*
X0013807Y0169882D01*
X0013692Y0169991D01*
X0013579Y0170102D01*
X0013469Y0170216D01*
X0013362Y0170333D01*
X0013258Y0170452D01*
X0013157Y0170574D01*
X0013060Y0170699D01*
X0012965Y0170826D01*
X0012874Y0170955D01*
X0012785Y0171086D01*
X0012701Y0171220D01*
X0012619Y0171356D01*
X0012541Y0171493D01*
X0012467Y0171633D01*
X0012396Y0171775D01*
X0012328Y0171918D01*
X0012264Y0172063D01*
X0012204Y0172209D01*
X0012148Y0172357D01*
X0012095Y0172506D01*
X0012046Y0172657D01*
X0012001Y0172809D01*
X0011960Y0172962D01*
X0011922Y0173115D01*
X0011889Y0173270D01*
X0011859Y0173426D01*
X0011833Y0173582D01*
X0011812Y0173739D01*
X0011794Y0173896D01*
X0011780Y0174054D01*
X0011770Y0174212D01*
X0011764Y0174370D01*
X0011762Y0174528D01*
X0173179Y0174528D02*
X0173181Y0174686D01*
X0173187Y0174844D01*
X0173197Y0175002D01*
X0173211Y0175160D01*
X0173229Y0175317D01*
X0173250Y0175474D01*
X0173276Y0175630D01*
X0173306Y0175786D01*
X0173339Y0175941D01*
X0173377Y0176094D01*
X0173418Y0176247D01*
X0173463Y0176399D01*
X0173512Y0176550D01*
X0173565Y0176699D01*
X0173621Y0176847D01*
X0173681Y0176993D01*
X0173745Y0177138D01*
X0173813Y0177281D01*
X0173884Y0177423D01*
X0173958Y0177563D01*
X0174036Y0177700D01*
X0174118Y0177836D01*
X0174202Y0177970D01*
X0174291Y0178101D01*
X0174382Y0178230D01*
X0174477Y0178357D01*
X0174574Y0178482D01*
X0174675Y0178604D01*
X0174779Y0178723D01*
X0174886Y0178840D01*
X0174996Y0178954D01*
X0175109Y0179065D01*
X0175224Y0179174D01*
X0175342Y0179279D01*
X0175463Y0179381D01*
X0175586Y0179481D01*
X0175712Y0179577D01*
X0175840Y0179670D01*
X0175970Y0179760D01*
X0176103Y0179846D01*
X0176238Y0179930D01*
X0176374Y0180009D01*
X0176513Y0180086D01*
X0176654Y0180158D01*
X0176796Y0180228D01*
X0176940Y0180293D01*
X0177086Y0180355D01*
X0177233Y0180413D01*
X0177382Y0180468D01*
X0177532Y0180519D01*
X0177683Y0180566D01*
X0177835Y0180609D01*
X0177988Y0180648D01*
X0178143Y0180684D01*
X0178298Y0180715D01*
X0178454Y0180743D01*
X0178610Y0180767D01*
X0178767Y0180787D01*
X0178925Y0180803D01*
X0179082Y0180815D01*
X0179241Y0180823D01*
X0179399Y0180827D01*
X0179557Y0180827D01*
X0179715Y0180823D01*
X0179874Y0180815D01*
X0180031Y0180803D01*
X0180189Y0180787D01*
X0180346Y0180767D01*
X0180502Y0180743D01*
X0180658Y0180715D01*
X0180813Y0180684D01*
X0180968Y0180648D01*
X0181121Y0180609D01*
X0181273Y0180566D01*
X0181424Y0180519D01*
X0181574Y0180468D01*
X0181723Y0180413D01*
X0181870Y0180355D01*
X0182016Y0180293D01*
X0182160Y0180228D01*
X0182302Y0180158D01*
X0182443Y0180086D01*
X0182582Y0180009D01*
X0182718Y0179930D01*
X0182853Y0179846D01*
X0182986Y0179760D01*
X0183116Y0179670D01*
X0183244Y0179577D01*
X0183370Y0179481D01*
X0183493Y0179381D01*
X0183614Y0179279D01*
X0183732Y0179174D01*
X0183847Y0179065D01*
X0183960Y0178954D01*
X0184070Y0178840D01*
X0184177Y0178723D01*
X0184281Y0178604D01*
X0184382Y0178482D01*
X0184479Y0178357D01*
X0184574Y0178230D01*
X0184665Y0178101D01*
X0184754Y0177970D01*
X0184838Y0177836D01*
X0184920Y0177700D01*
X0184998Y0177563D01*
X0185072Y0177423D01*
X0185143Y0177281D01*
X0185211Y0177138D01*
X0185275Y0176993D01*
X0185335Y0176847D01*
X0185391Y0176699D01*
X0185444Y0176550D01*
X0185493Y0176399D01*
X0185538Y0176247D01*
X0185579Y0176094D01*
X0185617Y0175941D01*
X0185650Y0175786D01*
X0185680Y0175630D01*
X0185706Y0175474D01*
X0185727Y0175317D01*
X0185745Y0175160D01*
X0185759Y0175002D01*
X0185769Y0174844D01*
X0185775Y0174686D01*
X0185777Y0174528D01*
X0185775Y0174370D01*
X0185769Y0174212D01*
X0185759Y0174054D01*
X0185745Y0173896D01*
X0185727Y0173739D01*
X0185706Y0173582D01*
X0185680Y0173426D01*
X0185650Y0173270D01*
X0185617Y0173115D01*
X0185579Y0172962D01*
X0185538Y0172809D01*
X0185493Y0172657D01*
X0185444Y0172506D01*
X0185391Y0172357D01*
X0185335Y0172209D01*
X0185275Y0172063D01*
X0185211Y0171918D01*
X0185143Y0171775D01*
X0185072Y0171633D01*
X0184998Y0171493D01*
X0184920Y0171356D01*
X0184838Y0171220D01*
X0184754Y0171086D01*
X0184665Y0170955D01*
X0184574Y0170826D01*
X0184479Y0170699D01*
X0184382Y0170574D01*
X0184281Y0170452D01*
X0184177Y0170333D01*
X0184070Y0170216D01*
X0183960Y0170102D01*
X0183847Y0169991D01*
X0183732Y0169882D01*
X0183614Y0169777D01*
X0183493Y0169675D01*
X0183370Y0169575D01*
X0183244Y0169479D01*
X0183116Y0169386D01*
X0182986Y0169296D01*
X0182853Y0169210D01*
X0182718Y0169126D01*
X0182582Y0169047D01*
X0182443Y0168970D01*
X0182302Y0168898D01*
X0182160Y0168828D01*
X0182016Y0168763D01*
X0181870Y0168701D01*
X0181723Y0168643D01*
X0181574Y0168588D01*
X0181424Y0168537D01*
X0181273Y0168490D01*
X0181121Y0168447D01*
X0180968Y0168408D01*
X0180813Y0168372D01*
X0180658Y0168341D01*
X0180502Y0168313D01*
X0180346Y0168289D01*
X0180189Y0168269D01*
X0180031Y0168253D01*
X0179874Y0168241D01*
X0179715Y0168233D01*
X0179557Y0168229D01*
X0179399Y0168229D01*
X0179241Y0168233D01*
X0179082Y0168241D01*
X0178925Y0168253D01*
X0178767Y0168269D01*
X0178610Y0168289D01*
X0178454Y0168313D01*
X0178298Y0168341D01*
X0178143Y0168372D01*
X0177988Y0168408D01*
X0177835Y0168447D01*
X0177683Y0168490D01*
X0177532Y0168537D01*
X0177382Y0168588D01*
X0177233Y0168643D01*
X0177086Y0168701D01*
X0176940Y0168763D01*
X0176796Y0168828D01*
X0176654Y0168898D01*
X0176513Y0168970D01*
X0176374Y0169047D01*
X0176238Y0169126D01*
X0176103Y0169210D01*
X0175970Y0169296D01*
X0175840Y0169386D01*
X0175712Y0169479D01*
X0175586Y0169575D01*
X0175463Y0169675D01*
X0175342Y0169777D01*
X0175224Y0169882D01*
X0175109Y0169991D01*
X0174996Y0170102D01*
X0174886Y0170216D01*
X0174779Y0170333D01*
X0174675Y0170452D01*
X0174574Y0170574D01*
X0174477Y0170699D01*
X0174382Y0170826D01*
X0174291Y0170955D01*
X0174202Y0171086D01*
X0174118Y0171220D01*
X0174036Y0171356D01*
X0173958Y0171493D01*
X0173884Y0171633D01*
X0173813Y0171775D01*
X0173745Y0171918D01*
X0173681Y0172063D01*
X0173621Y0172209D01*
X0173565Y0172357D01*
X0173512Y0172506D01*
X0173463Y0172657D01*
X0173418Y0172809D01*
X0173377Y0172962D01*
X0173339Y0173115D01*
X0173306Y0173270D01*
X0173276Y0173426D01*
X0173250Y0173582D01*
X0173229Y0173739D01*
X0173211Y0173896D01*
X0173197Y0174054D01*
X0173187Y0174212D01*
X0173181Y0174370D01*
X0173179Y0174528D01*
X0173179Y0013111D02*
X0173181Y0013269D01*
X0173187Y0013427D01*
X0173197Y0013585D01*
X0173211Y0013743D01*
X0173229Y0013900D01*
X0173250Y0014057D01*
X0173276Y0014213D01*
X0173306Y0014369D01*
X0173339Y0014524D01*
X0173377Y0014677D01*
X0173418Y0014830D01*
X0173463Y0014982D01*
X0173512Y0015133D01*
X0173565Y0015282D01*
X0173621Y0015430D01*
X0173681Y0015576D01*
X0173745Y0015721D01*
X0173813Y0015864D01*
X0173884Y0016006D01*
X0173958Y0016146D01*
X0174036Y0016283D01*
X0174118Y0016419D01*
X0174202Y0016553D01*
X0174291Y0016684D01*
X0174382Y0016813D01*
X0174477Y0016940D01*
X0174574Y0017065D01*
X0174675Y0017187D01*
X0174779Y0017306D01*
X0174886Y0017423D01*
X0174996Y0017537D01*
X0175109Y0017648D01*
X0175224Y0017757D01*
X0175342Y0017862D01*
X0175463Y0017964D01*
X0175586Y0018064D01*
X0175712Y0018160D01*
X0175840Y0018253D01*
X0175970Y0018343D01*
X0176103Y0018429D01*
X0176238Y0018513D01*
X0176374Y0018592D01*
X0176513Y0018669D01*
X0176654Y0018741D01*
X0176796Y0018811D01*
X0176940Y0018876D01*
X0177086Y0018938D01*
X0177233Y0018996D01*
X0177382Y0019051D01*
X0177532Y0019102D01*
X0177683Y0019149D01*
X0177835Y0019192D01*
X0177988Y0019231D01*
X0178143Y0019267D01*
X0178298Y0019298D01*
X0178454Y0019326D01*
X0178610Y0019350D01*
X0178767Y0019370D01*
X0178925Y0019386D01*
X0179082Y0019398D01*
X0179241Y0019406D01*
X0179399Y0019410D01*
X0179557Y0019410D01*
X0179715Y0019406D01*
X0179874Y0019398D01*
X0180031Y0019386D01*
X0180189Y0019370D01*
X0180346Y0019350D01*
X0180502Y0019326D01*
X0180658Y0019298D01*
X0180813Y0019267D01*
X0180968Y0019231D01*
X0181121Y0019192D01*
X0181273Y0019149D01*
X0181424Y0019102D01*
X0181574Y0019051D01*
X0181723Y0018996D01*
X0181870Y0018938D01*
X0182016Y0018876D01*
X0182160Y0018811D01*
X0182302Y0018741D01*
X0182443Y0018669D01*
X0182582Y0018592D01*
X0182718Y0018513D01*
X0182853Y0018429D01*
X0182986Y0018343D01*
X0183116Y0018253D01*
X0183244Y0018160D01*
X0183370Y0018064D01*
X0183493Y0017964D01*
X0183614Y0017862D01*
X0183732Y0017757D01*
X0183847Y0017648D01*
X0183960Y0017537D01*
X0184070Y0017423D01*
X0184177Y0017306D01*
X0184281Y0017187D01*
X0184382Y0017065D01*
X0184479Y0016940D01*
X0184574Y0016813D01*
X0184665Y0016684D01*
X0184754Y0016553D01*
X0184838Y0016419D01*
X0184920Y0016283D01*
X0184998Y0016146D01*
X0185072Y0016006D01*
X0185143Y0015864D01*
X0185211Y0015721D01*
X0185275Y0015576D01*
X0185335Y0015430D01*
X0185391Y0015282D01*
X0185444Y0015133D01*
X0185493Y0014982D01*
X0185538Y0014830D01*
X0185579Y0014677D01*
X0185617Y0014524D01*
X0185650Y0014369D01*
X0185680Y0014213D01*
X0185706Y0014057D01*
X0185727Y0013900D01*
X0185745Y0013743D01*
X0185759Y0013585D01*
X0185769Y0013427D01*
X0185775Y0013269D01*
X0185777Y0013111D01*
X0185775Y0012953D01*
X0185769Y0012795D01*
X0185759Y0012637D01*
X0185745Y0012479D01*
X0185727Y0012322D01*
X0185706Y0012165D01*
X0185680Y0012009D01*
X0185650Y0011853D01*
X0185617Y0011698D01*
X0185579Y0011545D01*
X0185538Y0011392D01*
X0185493Y0011240D01*
X0185444Y0011089D01*
X0185391Y0010940D01*
X0185335Y0010792D01*
X0185275Y0010646D01*
X0185211Y0010501D01*
X0185143Y0010358D01*
X0185072Y0010216D01*
X0184998Y0010076D01*
X0184920Y0009939D01*
X0184838Y0009803D01*
X0184754Y0009669D01*
X0184665Y0009538D01*
X0184574Y0009409D01*
X0184479Y0009282D01*
X0184382Y0009157D01*
X0184281Y0009035D01*
X0184177Y0008916D01*
X0184070Y0008799D01*
X0183960Y0008685D01*
X0183847Y0008574D01*
X0183732Y0008465D01*
X0183614Y0008360D01*
X0183493Y0008258D01*
X0183370Y0008158D01*
X0183244Y0008062D01*
X0183116Y0007969D01*
X0182986Y0007879D01*
X0182853Y0007793D01*
X0182718Y0007709D01*
X0182582Y0007630D01*
X0182443Y0007553D01*
X0182302Y0007481D01*
X0182160Y0007411D01*
X0182016Y0007346D01*
X0181870Y0007284D01*
X0181723Y0007226D01*
X0181574Y0007171D01*
X0181424Y0007120D01*
X0181273Y0007073D01*
X0181121Y0007030D01*
X0180968Y0006991D01*
X0180813Y0006955D01*
X0180658Y0006924D01*
X0180502Y0006896D01*
X0180346Y0006872D01*
X0180189Y0006852D01*
X0180031Y0006836D01*
X0179874Y0006824D01*
X0179715Y0006816D01*
X0179557Y0006812D01*
X0179399Y0006812D01*
X0179241Y0006816D01*
X0179082Y0006824D01*
X0178925Y0006836D01*
X0178767Y0006852D01*
X0178610Y0006872D01*
X0178454Y0006896D01*
X0178298Y0006924D01*
X0178143Y0006955D01*
X0177988Y0006991D01*
X0177835Y0007030D01*
X0177683Y0007073D01*
X0177532Y0007120D01*
X0177382Y0007171D01*
X0177233Y0007226D01*
X0177086Y0007284D01*
X0176940Y0007346D01*
X0176796Y0007411D01*
X0176654Y0007481D01*
X0176513Y0007553D01*
X0176374Y0007630D01*
X0176238Y0007709D01*
X0176103Y0007793D01*
X0175970Y0007879D01*
X0175840Y0007969D01*
X0175712Y0008062D01*
X0175586Y0008158D01*
X0175463Y0008258D01*
X0175342Y0008360D01*
X0175224Y0008465D01*
X0175109Y0008574D01*
X0174996Y0008685D01*
X0174886Y0008799D01*
X0174779Y0008916D01*
X0174675Y0009035D01*
X0174574Y0009157D01*
X0174477Y0009282D01*
X0174382Y0009409D01*
X0174291Y0009538D01*
X0174202Y0009669D01*
X0174118Y0009803D01*
X0174036Y0009939D01*
X0173958Y0010076D01*
X0173884Y0010216D01*
X0173813Y0010358D01*
X0173745Y0010501D01*
X0173681Y0010646D01*
X0173621Y0010792D01*
X0173565Y0010940D01*
X0173512Y0011089D01*
X0173463Y0011240D01*
X0173418Y0011392D01*
X0173377Y0011545D01*
X0173339Y0011698D01*
X0173306Y0011853D01*
X0173276Y0012009D01*
X0173250Y0012165D01*
X0173229Y0012322D01*
X0173211Y0012479D01*
X0173197Y0012637D01*
X0173187Y0012795D01*
X0173181Y0012953D01*
X0173179Y0013111D01*
M02*
